<svg width="1366" height="1024" viewBox="0 0 1366 1024" fill="none" xmlns="http://www.w3.org/2000/svg">
<g id="1">
<g id="step-11">
<g id="input">
<path id="draw-line d3 rgb-template" d="M540 670.5L682.5 528L825 670.5" stroke="#6685D4" stroke-width="8" stroke-linecap="round"/>
<path id="draw-line d2 rgb-template" d="M540 533.5L682.5 391L825 533.5" stroke="#6685D4" stroke-width="8" stroke-linecap="round"/>
<path id="draw-line d1 rgb-template" d="M540 397.5L682.5 255L825 397.5" stroke="#6685D4" stroke-width="8" stroke-linecap="round" stroke-linejoin="round"/>
<path id="draw-line rgb-template" d="M682.5 257.5V770" stroke="#6685D4" stroke-width="8" stroke-linecap="round"/>
</g>
</g>
<g id="step-10">
<g id="input_2">
<g id="prev">
<path id="d" d="M936 760H434.5" stroke="#CBD4E7" stroke-width="8" stroke-linecap="round"/>
<path id="d_2" d="M937 264.5V759.5" stroke="#CBD4E7" stroke-width="8" stroke-linecap="round"/>
<path id="d_3" d="M433.5 263H936.5" stroke="#CBD4E7" stroke-width="8" stroke-linecap="round"/>
<path id="d_4" d="M433 758V264.5" stroke="#CBD4E7" stroke-width="8" stroke-linecap="round"/>
</g>
<path id="draw-line d3 rgb-template_2" d="M936 760H434.5" stroke="#6685D5" stroke-width="8" stroke-linecap="round"/>
<path id="draw-line d2 rgb-template_2" d="M937 264.5V759.5" stroke="#6685D5" stroke-width="8" stroke-linecap="round"/>
<path id="draw-line d1 rgb-template_2" d="M433.5 263H936.5" stroke="#6685D5" stroke-width="8" stroke-linecap="round"/>
<path id="draw-line rgb-template_2" d="M433 758V264.5" stroke="#6685D5" stroke-width="8" stroke-linecap="round"/>
</g>
</g>
<g id="step-9">
<g id="input_3">
<path id="draw-line rgb-template_3" d="M234 585.5L383.5 436L533 585.5L682.5 436L832 585.5L981.5 436L1131 585.5" stroke="#6685D4" stroke-width="8" stroke-linecap="round" stroke-linejoin="round"/>
</g>
</g>
<g id="step-8">
<g id="input_4">
<path id="draw-line d3 rgb-template_3" d="M1035 406L1247 617" stroke="#6685D4" stroke-width="8" stroke-linecap="round"/>
<path id="draw-line d2 rgb-template_3" d="M732 616L944 405" stroke="#6685D4" stroke-width="8" stroke-linecap="round"/>
<path id="draw-line d1 rgb-template_3" d="M420 406L632 617" stroke="#6685D4" stroke-width="8" stroke-linecap="round"/>
<path id="draw-line rgb-template_4" d="M118 616L330 405" stroke="#6685D4" stroke-width="8" stroke-linecap="round"/>
</g>
</g>
<g id="step-7">
<g id="input_5">
<path id="draw-line d4 rgb-template" d="M1058 415L936 608" stroke="#6685D4" stroke-width="8" stroke-linecap="round"/>
<path id="draw-line d3 rgb-template_4" d="M901 415L778 608" stroke="#6685D4" stroke-width="8" stroke-linecap="round"/>
<path id="draw-line d2 rgb-template_4" d="M744 415L621 608" stroke="#6685D4" stroke-width="8" stroke-linecap="round"/>
<path id="draw-line d1 rgb-template_4" d="M587 415L464 608" stroke="#6685D4" stroke-width="8" stroke-linecap="round"/>
<path id="draw-line rgb-template_5" d="M430 415L307 608" stroke="#6685D4" stroke-width="8" stroke-linecap="round"/>
</g>
</g>
<g id="step-6">
<g id="input_6">
<path id="draw-line d4  rgb-template" d="M935 415L1058 608" stroke="#6685D4" stroke-width="8" stroke-linecap="round"/>
<path id="draw-line d3  rgb-template" d="M778 415L901 608" stroke="#6685D4" stroke-width="8" stroke-linecap="round"/>
<path id="draw-line d2  rgb-template" d="M621 415L744 608" stroke="#6685D4" stroke-width="8" stroke-linecap="round"/>
<path id="draw-line d1  rgb-template" d="M464 415L587 608" stroke="#6685D4" stroke-width="8" stroke-linecap="round"/>
<path id="draw-line  rgb-template" d="M307 415L429 608" stroke="#6685D4" stroke-width="8" stroke-linecap="round"/>
</g>
</g>
<g id="step-5">
<g id="input_7">
<path id="draw-line d2  rgb-template_2" d="M197 616.5H1175.5" stroke="#6685D4" stroke-width="8" stroke-linecap="round"/>
<path id="draw-line d1  rgb-template_2" d="M187 510.5H1165.5" stroke="#6685D4" stroke-width="8" stroke-linecap="round"/>
<path id="draw-line  rgb-template_2" d="M187 405H1165.5" stroke="#6685D4" stroke-width="8" stroke-linecap="round"/>
</g>
</g>
<g id="step-4">
<g id="input_8">
<path id="draw-line d4 rgb-template_2" d="M892.5 419V603.5" stroke="#6685D4" stroke-width="8" stroke-linecap="round"/>
<path id="draw-line d3 rgb-template_5" d="M787.5 419V603.5" stroke="#6685D4" stroke-width="8" stroke-linecap="round"/>
<path id="draw-line d2 rgb-template_5" d="M682.5 419V603.5" stroke="#6685D4" stroke-width="8" stroke-linecap="round"/>
<path id="draw-line d1 rgb-template_5" d="M577.5 419V603.5" stroke="#6685D4" stroke-width="8" stroke-linecap="round"/>
<path id="draw-line rgb-template_6" d="M473 419V603.5" stroke="#6685D4" stroke-width="8" stroke-linecap="round"/>
</g>
</g>
<g id="step-3">
<g id="input_9">
<path id="draw-line d7 rgb-template" d="M1137 512H1205" stroke="#6685D4" stroke-width="8" stroke-linecap="round"/>
<path id="draw-line d6 rgb-template" d="M998 512H1066" stroke="#6685D4" stroke-width="8" stroke-linecap="round"/>
<path id="draw-line d5 rgb-template" d="M858 512H926" stroke="#6685D4" stroke-width="8" stroke-linecap="round"/>
<path id="draw-line d4 rgb-template_3" d="M719 512H786" stroke="#6685D4" stroke-width="8" stroke-linecap="round"/>
<path id="draw-line d3 rgb-template_6" d="M580 512H647" stroke="#6685D4" stroke-width="8" stroke-linecap="round"/>
<path id="draw-line d2 rgb-template_6" d="M440 512H508" stroke="#6685D4" stroke-width="8" stroke-linecap="round"/>
<path id="draw-line d1 rgb-template_6" d="M300 512H368" stroke="#6685D4" stroke-width="8" stroke-linecap="round"/>
<path id="draw-line rgb-template_7" d="M161 512H229" stroke="#6685D4" stroke-width="8" stroke-linecap="round"/>
</g>
</g>
<g id="step-2">
<g id="input rgb-template">
<path id="draw-line d3" d="M1051 512H1262" stroke="#6685D4" stroke-width="8" stroke-linecap="round"/>
<path id="draw-line d2" d="M736 512H947" stroke="#6685D4" stroke-width="8" stroke-linecap="round"/>
<path id="draw-line d1" d="M418 512H629" stroke="#6685D4" stroke-width="8" stroke-linecap="round"/>
<path id="draw-line" d="M103 512H314" stroke="#6685D4" stroke-width="8" stroke-linecap="round"/>
</g>
</g>
<g id="step-1">
<g id="input_10">
<path id="draw-line rgb-template_8" d="M283 511H1106.5" stroke="#6685D4" stroke-width="6" stroke-linecap="round"/>
</g>
</g>
</g>
</svg>
