<svg width="1366" height="1024" viewBox="0 0 1366 1024" fill="none" xmlns="http://www.w3.org/2000/svg">
<g id="2" clip-path="url(#clip0)">
<g id="step-6">
<g id="input">
<g id="Group 6">
<rect id="appear d1" x="1219.5" y="877.5" width="95" height="95" stroke="#999999" stroke-width="5"/>
<path id="draw-line d2" d="M1233 919C1262.2 950.2 1262 960.5 1262 960.5C1262 960.5 1291 887 1313 861" stroke="#0000FF" stroke-opacity="0.1" stroke-width="10" stroke-linecap="round" stroke-linejoin="round"/>
</g>
</g>
<g id="template">
<rect id="Rectangle 6" x="1192" y="850" width="150" height="150" fill="#0000FF" stroke="#00FF00" stroke-width="50"/>
</g>
</g>
<g id="step-5">
<g id="input_2">
<path id="prev" d="M617.014 448.837L684.774 283L749.372 448.837H926L781.445 552.634L855.53 743.525L684.774 620.639L510.857 743.525L580.424 552.634L444 448.837H616.111" stroke="#C7D2E7" stroke-width="8" stroke-linecap="round" stroke-linejoin="round"/>
<path id="Vector 11" d="M577.578 555.683C579.336 557.021 581.845 556.68 583.183 554.922C584.521 553.164 584.18 550.655 582.422 549.317L577.578 555.683ZM444 449V445C442.283 445 440.758 446.095 440.21 447.722C439.661 449.348 440.212 451.144 441.578 452.183L444 449ZM615 453C617.209 453 619 451.209 619 449C619 446.791 617.209 445 615 445V453ZM582.422 549.317L446.422 445.817L441.578 452.183L577.578 555.683L582.422 549.317ZM444 453H615V445H444V453Z" fill="#85A7E8"/>
</g>
<g id="template_2">
<path id="Vector 3" d="M617 448L684.5 283L750 448" stroke="#00FF00" stroke-width="80" stroke-linecap="round" stroke-linejoin="round"/>
<path id="Vector 5" d="M750.229 408.501C728.138 408.374 710.127 426.18 710.001 448.271C709.874 470.362 727.68 488.373 749.771 488.499L750.229 408.501ZM924.5 449.5L947.932 481.918C961.957 471.781 967.873 453.775 962.592 437.295C957.312 420.815 942.034 409.6 924.729 409.501L924.5 449.5ZM758.568 520.082C740.664 533.023 736.641 558.028 749.582 575.932C762.523 593.836 787.528 597.859 805.432 584.918L758.568 520.082ZM749.771 488.499L924.271 489.499L924.729 409.501L750.229 408.501L749.771 488.499ZM901.068 417.082L758.568 520.082L805.432 584.918L947.932 481.918L901.068 417.082Z" fill="#00FF00"/>
<path id="Vector 7" d="M782.5 553.5L855.5 743.5L685 621" stroke="#00FF00" stroke-width="80" stroke-linecap="round" stroke-linejoin="round"/>
<path id="Vector 9" d="M685 620.5L510.5 743.5L581 553" stroke="#00FF00" stroke-width="80" stroke-linecap="round" stroke-linejoin="round"/>
<path id="Vector 11_2" d="M555.776 584.331C573.356 597.709 598.452 594.304 611.831 576.724C625.209 559.144 621.804 534.048 604.224 520.669L555.776 584.331ZM444 449V409C426.834 409 411.583 419.952 406.097 436.218C400.612 452.483 406.116 470.435 419.776 480.831L444 449ZM615 489C637.091 489 655 471.091 655 449C655 426.909 637.091 409 615 409V489ZM604.224 520.669L468.224 417.169L419.776 480.831L555.776 584.331L604.224 520.669ZM444 489H615V409H444V489Z" fill="#00FF00"/>
<path id="Vector 11_3" d="M576.972 556.479C579.169 558.151 582.307 557.725 583.979 555.528C585.651 553.331 585.225 550.193 583.028 548.521L576.972 556.479ZM444 449V444C441.854 444 439.948 445.369 439.262 447.402C438.576 449.435 439.265 451.679 440.972 452.979L444 449ZM615 454C617.761 454 620 451.761 620 449C620 446.239 617.761 444 615 444V454ZM583.028 548.521L447.028 445.021L440.972 452.979L576.972 556.479L583.028 548.521ZM444 454H615V444H444V454Z" fill="#0000FF"/>
</g>
</g>
<g id="step-4">
<g id="input_3">
<path id="prev_2" d="M617.014 448.837L684.774 283L749.372 448.837H926L781.445 552.634L855.53 743.525L684.774 620.639L510.857 743.525L580.424 552.634L444 448.837H616.111" stroke="#C7D2E7" stroke-width="8" stroke-linecap="round" stroke-linejoin="round"/>
<path id="Vector 9_2" d="M685 620.5L510.5 743.5L581 553" stroke="#85A7E8" stroke-width="8" stroke-linecap="round" stroke-linejoin="round"/>
</g>
<g id="template_3">
<path id="Vector 3_2" d="M617 448L684.5 283L750 448" stroke="#00FF00" stroke-width="80" stroke-linecap="round" stroke-linejoin="round"/>
<path id="Vector 5_2" d="M750.229 408.501C728.138 408.374 710.127 426.18 710.001 448.271C709.874 470.362 727.68 488.373 749.771 488.499L750.229 408.501ZM924.5 449.5L947.932 481.918C961.957 471.781 967.873 453.775 962.592 437.295C957.312 420.815 942.034 409.6 924.729 409.501L924.5 449.5ZM758.568 520.082C740.664 533.023 736.641 558.028 749.582 575.932C762.523 593.836 787.528 597.859 805.432 584.918L758.568 520.082ZM749.771 488.499L924.271 489.499L924.729 409.501L750.229 408.501L749.771 488.499ZM901.068 417.082L758.568 520.082L805.432 584.918L947.932 481.918L901.068 417.082Z" fill="#00FF00"/>
<path id="Vector 7_2" d="M782.5 553.5L855.5 743.5L685 621" stroke="#00FF00" stroke-width="80" stroke-linecap="round" stroke-linejoin="round"/>
<path id="Vector 9_3" d="M685 620.5L510.5 743.5L581 553" stroke="#00FF00" stroke-width="80" stroke-linecap="round" stroke-linejoin="round"/>
<path id="Vector 10" d="M685 620.5L510.5 743.5L581 553" stroke="#0000FF" stroke-width="10" stroke-linecap="round" stroke-linejoin="round"/>
</g>
</g>
<g id="step-3">
<g id="input_4">
<path id="prev_3" d="M617.014 448.837L684.774 283L749.372 448.837H926L781.445 552.634L855.53 743.525L684.774 620.639L510.857 743.525L580.424 552.634L444 448.837H616.111" stroke="#C7D2E7" stroke-width="8" stroke-linecap="round" stroke-linejoin="round"/>
<path id="Vector 7_3" d="M782.5 553.5L855.5 743.5L685 621" stroke="#85A7E8" stroke-width="8" stroke-linecap="round" stroke-linejoin="round"/>
</g>
<g id="template_4">
<path id="Vector 3_3" d="M617 448L684.5 283L750 448" stroke="#00FF00" stroke-width="80" stroke-linecap="round" stroke-linejoin="round"/>
<path id="Vector 5_3" d="M750.229 408.501C728.138 408.374 710.127 426.18 710.001 448.271C709.874 470.362 727.68 488.373 749.771 488.499L750.229 408.501ZM924.5 449.5L947.932 481.918C961.957 471.781 967.873 453.775 962.592 437.295C957.312 420.815 942.034 409.6 924.729 409.501L924.5 449.5ZM758.568 520.082C740.664 533.023 736.641 558.028 749.582 575.932C762.523 593.836 787.528 597.859 805.432 584.918L758.568 520.082ZM749.771 488.499L924.271 489.499L924.729 409.501L750.229 408.501L749.771 488.499ZM901.068 417.082L758.568 520.082L805.432 584.918L947.932 481.918L901.068 417.082Z" fill="#00FF00"/>
<path id="Vector 7_4" d="M782.5 553.5L855.5 743.5L685 621" stroke="#00FF00" stroke-width="80" stroke-linecap="round" stroke-linejoin="round"/>
<path id="Vector 8" d="M782.5 553.5L855.5 743.5L685 621" stroke="#0000FF" stroke-width="10" stroke-linecap="round" stroke-linejoin="round"/>
</g>
</g>
<g id="step-2">
<g id="input_5">
<path id="prev_4" d="M617.014 448.837L684.774 283L749.372 448.837H926L781.445 552.634L855.53 743.525L684.774 620.639L510.857 743.525L580.424 552.634L444 448.837H616.111" stroke="#C7D2E7" stroke-width="8" stroke-linecap="round" stroke-linejoin="round"/>
<path id="blink" d="M750.023 444.5C747.814 444.487 746.013 446.268 746 448.477C745.987 450.686 747.768 452.487 749.977 452.5L750.023 444.5ZM924.5 449.5L926.843 452.742C928.246 451.728 928.837 449.927 928.309 448.28C927.781 446.632 926.253 445.51 924.523 445.5L924.5 449.5ZM779.657 549.258C777.866 550.552 777.464 553.053 778.758 554.843C780.052 556.634 782.553 557.036 784.343 555.742L779.657 549.258ZM749.977 452.5L924.477 453.5L924.523 445.5L750.023 444.5L749.977 452.5ZM922.157 446.258L779.657 549.258L784.343 555.742L926.843 452.742L922.157 446.258Z" fill="#85A7E8"/>
</g>
<g id="template_5">
<path id="Vector 3_4" d="M617 448L684.5 283L750 448" stroke="#00FF00" stroke-width="80" stroke-linecap="round" stroke-linejoin="round"/>
<path id="Vector 5_4" d="M750.229 408.501C728.138 408.374 710.127 426.18 710.001 448.271C709.874 470.362 727.68 488.373 749.771 488.499L750.229 408.501ZM924.5 449.5L947.932 481.918C961.957 471.781 967.873 453.775 962.592 437.295C957.312 420.815 942.034 409.6 924.729 409.501L924.5 449.5ZM758.568 520.082C740.664 533.023 736.641 558.028 749.582 575.932C762.523 593.836 787.528 597.859 805.432 584.918L758.568 520.082ZM749.771 488.499L924.271 489.499L924.729 409.501L750.229 408.501L749.771 488.499ZM901.068 417.082L758.568 520.082L805.432 584.918L947.932 481.918L901.068 417.082Z" fill="#00FF00"/>
<path id="Vector 6" d="M750.029 443.5C747.267 443.484 745.016 445.71 745 448.471C744.984 451.233 747.21 453.484 749.971 453.5L750.029 443.5ZM924.5 449.5L927.429 453.552C929.182 452.285 929.922 450.034 929.262 447.974C928.602 445.914 926.692 444.512 924.529 444.5L924.5 449.5ZM779.071 548.448C776.833 550.065 776.33 553.191 777.948 555.429C779.565 557.667 782.691 558.17 784.929 556.552L779.071 548.448ZM749.971 453.5L924.471 454.5L924.529 444.5L750.029 443.5L749.971 453.5ZM921.571 445.448L779.071 548.448L784.929 556.552L927.429 453.552L921.571 445.448Z" fill="#0000FF"/>
</g>
</g>
<g id="step-1">
<g id="input_6">
<path id="prev_5" d="M617.014 448.837L684.774 283L749.372 448.837H926L781.445 552.634L855.53 743.525L684.774 620.639L510.857 743.525L580.424 552.634L444 448.837H616.111" stroke="#C7D2E7" stroke-width="8" stroke-linecap="round" stroke-linejoin="round"/>
<path id="draw-line" d="M617 448L684.5 283L750 448" stroke="#85A7E8" stroke-width="8" stroke-linecap="round" stroke-linejoin="round"/>
</g>
<g id="template_6">
<path id="Vector 3_5" d="M617 448L684.5 283L750 448" stroke="#00FF00" stroke-width="80" stroke-linecap="round" stroke-linejoin="round"/>
<path id="Vector 2" d="M617 448L684.5 283L750 448" stroke="#0000FF" stroke-width="10" stroke-linecap="round" stroke-linejoin="round"/>
</g>
</g>
</g>
<defs>
<clipPath id="clip0">
<rect width="1366" height="1024" fill="white"/>
</clipPath>
</defs>
</svg>
