<svg width="1366" height="1024" viewBox="0 0 1366 1024" fill="none" xmlns="http://www.w3.org/2000/svg">
<g id="3" clip-path="url(#clip0)">
<g id="step-9">
<g id="input">
<g id="Group 6">
<rect id="appear d1" x="1220.75" y="875.37" width="95" height="95" stroke="#999999" stroke-width="5"/>
<path id="draw-line d2" d="M1234.25 916.87C1263.45 948.07 1263.25 958.37 1263.25 958.37C1263.25 958.37 1292.25 884.87 1314.25 858.87" stroke="#0000FF" stroke-opacity="0.1" stroke-width="10" stroke-linecap="round" stroke-linejoin="round"/>
</g>
</g>
<g id="template">
<rect id="Rectangle 6" x="1193.25" y="847.87" width="150" height="150" fill="#0000FF" stroke="#00FF00" stroke-width="50"/>
</g>
</g>
<g id="step-8">
<g id="input_2">
<g id="ref">
<path id="d" d="M823.815 459.474L1088.09 942.275" stroke="#CBD8F1" stroke-width="8" stroke-linecap="round" stroke-linejoin="round"/>
<path id="d_2" d="M541.488 72.4743L711.631 398.872" stroke="#CBD8F1" stroke-width="8" stroke-linecap="round" stroke-linejoin="round"/>
<path id="d_3" d="M1064.19 122.128L991.122 454.694" stroke="#CBD8F1" stroke-width="8" stroke-linecap="round" stroke-linejoin="round"/>
<path id="d_4" d="M1064.19 122.128L906.444 451.962" stroke="#CBD8F1" stroke-width="8" stroke-linecap="round" stroke-linejoin="round"/>
<path id="d_5" d="M542.466 72.2775L906.444 453.328" stroke="#CBD8F1" stroke-width="8" stroke-linecap="round" stroke-linejoin="round"/>
<path id="d_6" d="M541.783 75.009L600.511 453.328" stroke="#CBD8F1" stroke-width="8" stroke-linecap="round" stroke-linejoin="round"/>
<path id="d_7" d="M600.511 454.694L776.013 374.796L899.615 447.865" stroke="#CBD8F1" stroke-width="8" stroke-linecap="round" stroke-linejoin="round"/>
<path id="d_8" d="M491.249 574.199L715.919 574.199" stroke="#CBD8F1" stroke-width="8" stroke-linecap="round" stroke-linejoin="round"/>
<path id="d_9" d="M991.122 453.328L1089.46 945.006" stroke="#CBD8F1" stroke-width="8" stroke-linecap="round" stroke-linejoin="round"/>
<path id="d_10" d="M601.877 456.743L1088.09 946.372" stroke="#CBD8F1" stroke-width="8" stroke-linecap="round" stroke-linejoin="round"/>
<path id="d_11" d="M604.608 455.377L989.756 455.377" stroke="#CBD8F1" stroke-width="8" stroke-linecap="round" stroke-linejoin="round"/>
<path id="d_12" d="M488.518 574.199L596.414 460.84" stroke="#CBD8F1" stroke-width="8" stroke-linecap="round" stroke-linejoin="round"/>
<path id="d_13" d="M330.771 182.905L487.152 570.102" stroke="#CBD8F1" stroke-width="8" stroke-linecap="round" stroke-linejoin="round"/>
<path id="d_14" d="M364.915 163.101L597.78 456.06" stroke="#CBD8F1" stroke-width="8" stroke-linecap="round" stroke-linejoin="round"/>
<path id="d_15" d="M244.044 230.024L363.549 165.833" stroke="#CBD8F1" stroke-width="8" stroke-linecap="round" stroke-linejoin="round"/>
<path id="d_16" d="M242.679 228.658L292.529 150.809L365.598 163.784" stroke="#CBD8F1" stroke-width="8" stroke-linecap="round" stroke-linejoin="round"/>
</g>
<path id="draw-line d1" d="M541.488 72.4743L711.631 398.872" stroke="#85A7E8" stroke-width="8" stroke-linecap="round" stroke-linejoin="round"/>
<path id="draw-line" d="M823.815 459.474L1088.09 942.275" stroke="#85A7E8" stroke-width="8" stroke-linecap="round" stroke-linejoin="round"/>
</g>
<g id="template_2">
<path id="d_17" d="M242.679 228.853L292.529 151.004L365.598 163.979" stroke="#00FF00" stroke-width="65" stroke-linecap="round" stroke-linejoin="round"/>
<path id="&#208;&#178;" d="M244.044 230.024L363.549 165.833" stroke="#00FF00" stroke-width="65" stroke-linecap="round" stroke-linejoin="round"/>
<path id="d_18" d="M364.915 163.101L597.78 456.06" stroke="#00FF00" stroke-width="65" stroke-linecap="round" stroke-linejoin="round"/>
<path id="d_19" d="M330.771 182.905L487.152 570.102" stroke="#00FF00" stroke-width="65" stroke-linecap="round" stroke-linejoin="round"/>
<path id="d_20" d="M491.249 574.199L715.919 574.199" stroke="#00FF00" stroke-width="65" stroke-linecap="round" stroke-linejoin="round"/>
<path id="d_21" d="M488.518 574.199L596.414 460.84" stroke="#00FF00" stroke-width="65" stroke-linecap="round" stroke-linejoin="round"/>
<path id="d_22" d="M991.122 453.328L1089.46 945.007" stroke="#00FF00" stroke-width="65" stroke-linecap="round" stroke-linejoin="round"/>
<path id="d_23" d="M601.877 456.743L1088.09 946.372" stroke="#00FF00" stroke-width="65" stroke-linecap="round" stroke-linejoin="round"/>
<path id="d_24" d="M604.608 455.377L989.756 455.377" stroke="#00FF00" stroke-width="65" stroke-linecap="round" stroke-linejoin="round"/>
<path id="d_25" d="M1064.19 122.128L991.122 454.694" stroke="#00FF00" stroke-width="65" stroke-linecap="round" stroke-linejoin="round"/>
<path id="d_26" d="M1064.19 122.128L906.444 451.962" stroke="#00FF00" stroke-width="65" stroke-linecap="round" stroke-linejoin="round"/>
<path id="d_27" d="M600.511 454.694L776.013 374.796L899.615 447.865" stroke="#00FF00" stroke-width="65" stroke-linecap="round" stroke-linejoin="round"/>
<path id="d_28" d="M542.466 72.2775L906.444 453.328" stroke="#00FF00" stroke-width="65" stroke-linecap="round" stroke-linejoin="round"/>
<path id="d_29" d="M541.783 75.009L600.511 453.328" stroke="#00FF00" stroke-width="65" stroke-linecap="round" stroke-linejoin="round"/>
<path id="d_30" d="M541.488 72.4743L711.631 398.872" stroke="#00FF00" stroke-width="65" stroke-linecap="round" stroke-linejoin="round"/>
<path id="d_31" d="M823.815 459.474L1088.09 942.275" stroke="#00FF00" stroke-width="65" stroke-linecap="round" stroke-linejoin="round"/>
<path id="d_32" d="M541.488 72.4743L711.631 398.872" stroke="#0000FF" stroke-width="5" stroke-linecap="round" stroke-linejoin="round"/>
<path id="d_33" d="M823.815 459.474L1088.09 942.275" stroke="#0000FF" stroke-width="5" stroke-linecap="round" stroke-linejoin="round"/>
</g>
</g>
<g id="step-7">
<g id="input_3">
<g id="ref_2">
<path id="d_34" d="M823.815 459.474L1088.09 942.275" stroke="#CBD8F1" stroke-width="8" stroke-linecap="round" stroke-linejoin="round"/>
<path id="d_35" d="M541.488 72.4743L711.631 398.872" stroke="#CBD8F1" stroke-width="8" stroke-linecap="round" stroke-linejoin="round"/>
<path id="d_36" d="M1064.19 122.128L991.122 454.694" stroke="#CBD8F1" stroke-width="8" stroke-linecap="round" stroke-linejoin="round"/>
<path id="d_37" d="M1064.19 122.128L906.444 451.962" stroke="#CBD8F1" stroke-width="8" stroke-linecap="round" stroke-linejoin="round"/>
<path id="d_38" d="M542.466 72.2775L906.444 453.328" stroke="#CBD8F1" stroke-width="8" stroke-linecap="round" stroke-linejoin="round"/>
<path id="d_39" d="M541.783 75.009L600.511 453.328" stroke="#CBD8F1" stroke-width="8" stroke-linecap="round" stroke-linejoin="round"/>
<path id="d_40" d="M600.511 454.694L776.013 374.796L899.615 447.865" stroke="#CBD8F1" stroke-width="8" stroke-linecap="round" stroke-linejoin="round"/>
<path id="d_41" d="M491.249 574.199H715.919" stroke="#CBD8F1" stroke-width="8" stroke-linecap="round" stroke-linejoin="round"/>
<path id="d_42" d="M991.122 453.328L1089.46 945.006" stroke="#CBD8F1" stroke-width="8" stroke-linecap="round" stroke-linejoin="round"/>
<path id="d_43" d="M601.877 456.743L1088.09 946.372" stroke="#CBD8F1" stroke-width="8" stroke-linecap="round" stroke-linejoin="round"/>
<path id="d_44" d="M604.608 455.377H989.756" stroke="#CBD8F1" stroke-width="8" stroke-linecap="round" stroke-linejoin="round"/>
<path id="d_45" d="M488.518 574.199L596.414 460.84" stroke="#CBD8F1" stroke-width="8" stroke-linecap="round" stroke-linejoin="round"/>
<path id="d_46" d="M330.771 182.905L487.152 570.102" stroke="#CBD8F1" stroke-width="8" stroke-linecap="round" stroke-linejoin="round"/>
<path id="d_47" d="M364.915 163.101L597.78 456.06" stroke="#CBD8F1" stroke-width="8" stroke-linecap="round" stroke-linejoin="round"/>
<path id="d_48" d="M244.044 230.024L363.549 165.833" stroke="#CBD8F1" stroke-width="8" stroke-linecap="round" stroke-linejoin="round"/>
<path id="d_49" d="M242.679 228.658L292.529 150.809L365.598 163.784" stroke="#CBD8F1" stroke-width="8" stroke-linecap="round" stroke-linejoin="round"/>
</g>
<path id="draw-line d1_2" d="M542.466 72.2775L906.444 453.328" stroke="#85A7E8" stroke-width="8" stroke-linecap="round" stroke-linejoin="round"/>
<path id="draw-line_2" d="M541.783 75.009L600.511 453.328" stroke="#85A7E8" stroke-width="8" stroke-linecap="round" stroke-linejoin="round"/>
</g>
<g id="template_3">
<path id="d_50" d="M242.679 228.853L292.529 151.004L365.598 163.979" stroke="#00FF00" stroke-width="65" stroke-linecap="round" stroke-linejoin="round"/>
<path id="&#208;&#178;_2" d="M244.044 230.024L363.549 165.833" stroke="#00FF00" stroke-width="65" stroke-linecap="round" stroke-linejoin="round"/>
<path id="d_51" d="M364.915 163.101L597.78 456.06" stroke="#00FF00" stroke-width="65" stroke-linecap="round" stroke-linejoin="round"/>
<path id="d_52" d="M330.771 182.905L487.152 570.102" stroke="#00FF00" stroke-width="65" stroke-linecap="round" stroke-linejoin="round"/>
<path id="d_53" d="M491.249 574.199H715.919" stroke="#00FF00" stroke-width="65" stroke-linecap="round" stroke-linejoin="round"/>
<path id="d_54" d="M488.518 574.199L596.414 460.84" stroke="#00FF00" stroke-width="65" stroke-linecap="round" stroke-linejoin="round"/>
<path id="d_55" d="M991.122 453.328L1089.46 945.007" stroke="#00FF00" stroke-width="65" stroke-linecap="round" stroke-linejoin="round"/>
<path id="d_56" d="M601.877 456.743L1088.09 946.372" stroke="#00FF00" stroke-width="65" stroke-linecap="round" stroke-linejoin="round"/>
<path id="d_57" d="M604.608 455.377H989.756" stroke="#00FF00" stroke-width="65" stroke-linecap="round" stroke-linejoin="round"/>
<path id="d_58" d="M1064.19 122.128L991.122 454.694" stroke="#00FF00" stroke-width="65" stroke-linecap="round" stroke-linejoin="round"/>
<path id="d_59" d="M1064.19 122.128L906.444 451.962" stroke="#00FF00" stroke-width="65" stroke-linecap="round" stroke-linejoin="round"/>
<path id="d_60" d="M600.511 454.694L776.013 374.796L899.615 447.865" stroke="#00FF00" stroke-width="65" stroke-linecap="round" stroke-linejoin="round"/>
<path id="d_61" d="M542.466 72.2775L906.444 453.328" stroke="#00FF00" stroke-width="65" stroke-linecap="round" stroke-linejoin="round"/>
<path id="d_62" d="M541.783 75.009L600.511 453.328" stroke="#00FF00" stroke-width="65" stroke-linecap="round" stroke-linejoin="round"/>
<path id="d_63" d="M542.466 72.2775L906.444 453.328" stroke="#0000FF" stroke-width="5" stroke-linecap="round" stroke-linejoin="round"/>
<path id="d_64" d="M541.783 75.009L600.511 453.328" stroke="#0000FF" stroke-width="5" stroke-linecap="round" stroke-linejoin="round"/>
</g>
</g>
<g id="step-6">
<g id="input_4">
<g id="ref_3">
<path id="d_65" d="M823.815 459.474L1088.09 942.275" stroke="#CBD8F1" stroke-width="8" stroke-linecap="round" stroke-linejoin="round"/>
<path id="d_66" d="M541.488 72.4744L711.631 398.872" stroke="#CBD8F1" stroke-width="8" stroke-linecap="round" stroke-linejoin="round"/>
<path id="d_67" d="M1064.19 122.128L991.122 454.694" stroke="#CBD8F1" stroke-width="8" stroke-linecap="round" stroke-linejoin="round"/>
<path id="d_68" d="M1064.19 122.128L906.444 451.962" stroke="#CBD8F1" stroke-width="8" stroke-linecap="round" stroke-linejoin="round"/>
<path id="d_69" d="M542.466 72.2775L906.444 453.328" stroke="#CBD8F1" stroke-width="8" stroke-linecap="round" stroke-linejoin="round"/>
<path id="d_70" d="M541.783 75.009L600.511 453.328" stroke="#CBD8F1" stroke-width="8" stroke-linecap="round" stroke-linejoin="round"/>
<path id="d_71" d="M600.511 454.694L776.013 374.796L899.615 447.865" stroke="#CBD8F1" stroke-width="8" stroke-linecap="round" stroke-linejoin="round"/>
<path id="d_72" d="M491.249 574.199H715.919" stroke="#CBD8F1" stroke-width="8" stroke-linecap="round" stroke-linejoin="round"/>
<path id="d_73" d="M991.122 453.328L1089.46 945.007" stroke="#CBD8F1" stroke-width="8" stroke-linecap="round" stroke-linejoin="round"/>
<path id="d_74" d="M601.877 456.743L1088.09 946.372" stroke="#CBD8F1" stroke-width="8" stroke-linecap="round" stroke-linejoin="round"/>
<path id="d_75" d="M604.608 455.377H989.756" stroke="#CBD8F1" stroke-width="8" stroke-linecap="round" stroke-linejoin="round"/>
<path id="d_76" d="M488.518 574.199L596.414 460.84" stroke="#CBD8F1" stroke-width="8" stroke-linecap="round" stroke-linejoin="round"/>
<path id="d_77" d="M330.771 182.905L487.152 570.102" stroke="#CBD8F1" stroke-width="8" stroke-linecap="round" stroke-linejoin="round"/>
<path id="d_78" d="M364.915 163.101L597.78 456.06" stroke="#CBD8F1" stroke-width="8" stroke-linecap="round" stroke-linejoin="round"/>
<path id="d_79" d="M244.044 230.024L363.549 165.833" stroke="#CBD8F1" stroke-width="8" stroke-linecap="round" stroke-linejoin="round"/>
<path id="d_80" d="M242.679 228.659L292.529 150.809L365.598 163.784" stroke="#CBD8F1" stroke-width="8" stroke-linecap="round" stroke-linejoin="round"/>
</g>
<path id="draw-line d2_2" d="M1064.19 122.128L991.122 454.694" stroke="#85A7E8" stroke-width="8" stroke-linecap="round" stroke-linejoin="round"/>
<path id="draw-line d1_3" d="M1064.19 122.128L906.444 451.962" stroke="#85A7E8" stroke-width="8" stroke-linecap="round" stroke-linejoin="round"/>
<path id="draw-line_3" d="M600.511 454.694L776.013 374.796L899.615 447.865" stroke="#85A7E8" stroke-width="8" stroke-linecap="round" stroke-linejoin="round"/>
</g>
<g id="template_4">
<path id="d_81" d="M242.679 228.853L292.529 151.004L365.598 163.979" stroke="#00FF00" stroke-width="65" stroke-linecap="round" stroke-linejoin="round"/>
<path id="&#208;&#178;_3" d="M244.044 230.024L363.549 165.833" stroke="#00FF00" stroke-width="65" stroke-linecap="round" stroke-linejoin="round"/>
<path id="d_82" d="M364.915 163.101L597.78 456.06" stroke="#00FF00" stroke-width="65" stroke-linecap="round" stroke-linejoin="round"/>
<path id="d_83" d="M330.771 182.905L487.152 570.102" stroke="#00FF00" stroke-width="65" stroke-linecap="round" stroke-linejoin="round"/>
<path id="d_84" d="M491.249 574.199H715.919" stroke="#00FF00" stroke-width="65" stroke-linecap="round" stroke-linejoin="round"/>
<path id="d_85" d="M488.518 574.199L596.414 460.84" stroke="#00FF00" stroke-width="65" stroke-linecap="round" stroke-linejoin="round"/>
<path id="d_86" d="M991.122 453.328L1089.46 945.007" stroke="#00FF00" stroke-width="65" stroke-linecap="round" stroke-linejoin="round"/>
<path id="d_87" d="M601.877 456.743L1088.09 946.372" stroke="#00FF00" stroke-width="65" stroke-linecap="round" stroke-linejoin="round"/>
<path id="d_88" d="M604.608 455.377H989.756" stroke="#00FF00" stroke-width="65" stroke-linecap="round" stroke-linejoin="round"/>
<path id="d_89" d="M1064.19 122.128L991.122 454.694" stroke="#00FF00" stroke-width="65" stroke-linecap="round" stroke-linejoin="round"/>
<path id="d_90" d="M1064.19 122.128L906.444 451.962" stroke="#00FF00" stroke-width="65" stroke-linecap="round" stroke-linejoin="round"/>
<path id="d_91" d="M600.511 454.694L776.013 374.796L899.615 447.865" stroke="#00FF00" stroke-width="65" stroke-linecap="round" stroke-linejoin="round"/>
<path id="d_92" d="M1064.19 122.128L991.122 454.694" stroke="#0000FF" stroke-width="5" stroke-linecap="round" stroke-linejoin="round"/>
<path id="d_93" d="M1064.19 122.128L906.444 451.962" stroke="#0000FF" stroke-width="5" stroke-linecap="round" stroke-linejoin="round"/>
<path id="d_94" d="M600.511 454.694L776.013 374.796L899.615 447.865" stroke="#0000FF" stroke-width="5" stroke-linecap="round" stroke-linejoin="round"/>
</g>
</g>
<g id="step-5">
<g id="input_5">
<g id="ref_4">
<path id="d_95" d="M823.815 459.474L1088.09 942.275" stroke="#CBD8F1" stroke-width="8" stroke-linecap="round" stroke-linejoin="round"/>
<path id="d_96" d="M541.488 72.4743L711.631 398.872" stroke="#CBD8F1" stroke-width="8" stroke-linecap="round" stroke-linejoin="round"/>
<path id="d_97" d="M1064.19 122.128L991.122 454.694" stroke="#CBD8F1" stroke-width="8" stroke-linecap="round" stroke-linejoin="round"/>
<path id="d_98" d="M1064.19 122.128L906.444 451.962" stroke="#CBD8F1" stroke-width="8" stroke-linecap="round" stroke-linejoin="round"/>
<path id="d_99" d="M542.466 72.2775L906.444 453.328" stroke="#CBD8F1" stroke-width="8" stroke-linecap="round" stroke-linejoin="round"/>
<path id="d_100" d="M541.783 75.009L600.511 453.328" stroke="#CBD8F1" stroke-width="8" stroke-linecap="round" stroke-linejoin="round"/>
<path id="d_101" d="M600.511 454.694L776.013 374.796L899.615 447.865" stroke="#CBD8F1" stroke-width="8" stroke-linecap="round" stroke-linejoin="round"/>
<path id="d_102" d="M491.249 574.199H715.919" stroke="#CBD8F1" stroke-width="8" stroke-linecap="round" stroke-linejoin="round"/>
<path id="d_103" d="M991.122 453.328L1089.46 945.006" stroke="#CBD8F1" stroke-width="8" stroke-linecap="round" stroke-linejoin="round"/>
<path id="d_104" d="M601.877 456.743L1088.09 946.372" stroke="#CBD8F1" stroke-width="8" stroke-linecap="round" stroke-linejoin="round"/>
<path id="d_105" d="M604.608 455.377H989.756" stroke="#CBD8F1" stroke-width="8" stroke-linecap="round" stroke-linejoin="round"/>
<path id="d_106" d="M488.518 574.199L596.414 460.84" stroke="#CBD8F1" stroke-width="8" stroke-linecap="round" stroke-linejoin="round"/>
<path id="d_107" d="M330.771 182.905L487.152 570.102" stroke="#CBD8F1" stroke-width="8" stroke-linecap="round" stroke-linejoin="round"/>
<path id="d_108" d="M364.915 163.101L597.78 456.06" stroke="#CBD8F1" stroke-width="8" stroke-linecap="round" stroke-linejoin="round"/>
<path id="d_109" d="M244.044 230.024L363.549 165.833" stroke="#CBD8F1" stroke-width="8" stroke-linecap="round" stroke-linejoin="round"/>
<path id="d_110" d="M242.679 228.658L292.529 150.809L365.598 163.784" stroke="#CBD8F1" stroke-width="8" stroke-linecap="round" stroke-linejoin="round"/>
</g>
<path id="draw-line d2_3" d="M991.122 453.328L1089.46 945.007" stroke="#85A7E8" stroke-width="8" stroke-linecap="round" stroke-linejoin="round"/>
<path id="draw-line d1_4" d="M601.877 456.743L1088.09 946.372" stroke="#85A7E8" stroke-width="8" stroke-linecap="round" stroke-linejoin="round"/>
<path id="draw-line_4" d="M604.608 455.377H989.756" stroke="#85A7E8" stroke-width="8" stroke-linecap="round" stroke-linejoin="round"/>
</g>
<g id="template_5">
<path id="d_111" d="M242.679 228.853L292.529 151.004L365.598 163.979" stroke="#00FF00" stroke-width="65" stroke-linecap="round" stroke-linejoin="round"/>
<path id="&#208;&#178;_4" d="M244.044 230.024L363.549 165.833" stroke="#00FF00" stroke-width="65" stroke-linecap="round" stroke-linejoin="round"/>
<path id="d_112" d="M364.915 163.101L597.78 456.06" stroke="#00FF00" stroke-width="65" stroke-linecap="round" stroke-linejoin="round"/>
<path id="d_113" d="M330.771 182.905L487.152 570.102" stroke="#00FF00" stroke-width="65" stroke-linecap="round" stroke-linejoin="round"/>
<path id="d_114" d="M491.249 574.199H715.919" stroke="#00FF00" stroke-width="65" stroke-linecap="round" stroke-linejoin="round"/>
<path id="d_115" d="M488.518 574.199L596.414 460.84" stroke="#00FF00" stroke-width="65" stroke-linecap="round" stroke-linejoin="round"/>
<path id="d_116" d="M991.122 453.328L1089.46 945.007" stroke="#00FF00" stroke-width="65" stroke-linecap="round" stroke-linejoin="round"/>
<path id="d_117" d="M601.877 456.743L1088.09 946.372" stroke="#00FF00" stroke-width="65" stroke-linecap="round" stroke-linejoin="round"/>
<path id="d_118" d="M604.608 455.377H989.756" stroke="#00FF00" stroke-width="65" stroke-linecap="round" stroke-linejoin="round"/>
<path id="d_119" d="M991.122 453.328L1089.46 945.007" stroke="#0000FF" stroke-width="5" stroke-linecap="round" stroke-linejoin="round"/>
<path id="d_120" d="M601.877 456.743L1088.09 946.372" stroke="#0000FF" stroke-width="5" stroke-linecap="round" stroke-linejoin="round"/>
<path id="d_121" d="M604.608 455.377H989.756" stroke="#0000FF" stroke-width="5" stroke-linecap="round" stroke-linejoin="round"/>
</g>
</g>
<g id="step-4">
<g id="input_6">
<g id="ref_5">
<path id="d_122" d="M823.815 459.474L1088.09 942.275" stroke="#CBD8F1" stroke-width="8" stroke-linecap="round" stroke-linejoin="round"/>
<path id="d_123" d="M541.488 72.4743L711.631 398.872" stroke="#CBD8F1" stroke-width="8" stroke-linecap="round" stroke-linejoin="round"/>
<path id="d_124" d="M1064.19 122.128L991.122 454.694" stroke="#CBD8F1" stroke-width="8" stroke-linecap="round" stroke-linejoin="round"/>
<path id="d_125" d="M1064.19 122.128L906.444 451.962" stroke="#CBD8F1" stroke-width="8" stroke-linecap="round" stroke-linejoin="round"/>
<path id="d_126" d="M542.466 72.2775L906.444 453.328" stroke="#CBD8F1" stroke-width="8" stroke-linecap="round" stroke-linejoin="round"/>
<path id="d_127" d="M541.783 75.009L600.511 453.328" stroke="#CBD8F1" stroke-width="8" stroke-linecap="round" stroke-linejoin="round"/>
<path id="d_128" d="M600.511 454.694L776.013 374.796L899.615 447.865" stroke="#CBD8F1" stroke-width="8" stroke-linecap="round" stroke-linejoin="round"/>
<path id="d_129" d="M491.249 574.199H715.919" stroke="#CBD8F1" stroke-width="8" stroke-linecap="round" stroke-linejoin="round"/>
<path id="d_130" d="M991.122 453.328L1089.46 945.006" stroke="#CBD8F1" stroke-width="8" stroke-linecap="round" stroke-linejoin="round"/>
<path id="d_131" d="M601.877 456.743L1088.09 946.372" stroke="#CBD8F1" stroke-width="8" stroke-linecap="round" stroke-linejoin="round"/>
<path id="d_132" d="M604.608 455.377H989.756" stroke="#CBD8F1" stroke-width="8" stroke-linecap="round" stroke-linejoin="round"/>
<path id="d_133" d="M488.518 574.199L596.414 460.84" stroke="#CBD8F1" stroke-width="8" stroke-linecap="round" stroke-linejoin="round"/>
<path id="d_134" d="M330.771 182.905L487.152 570.102" stroke="#CBD8F1" stroke-width="8" stroke-linecap="round" stroke-linejoin="round"/>
<path id="d_135" d="M364.915 163.101L597.78 456.06" stroke="#CBD8F1" stroke-width="8" stroke-linecap="round" stroke-linejoin="round"/>
<path id="d_136" d="M244.044 230.024L363.549 165.833" stroke="#CBD8F1" stroke-width="8" stroke-linecap="round" stroke-linejoin="round"/>
<path id="d_137" d="M242.679 228.658L292.529 150.809L365.598 163.784" stroke="#CBD8F1" stroke-width="8" stroke-linecap="round" stroke-linejoin="round"/>
</g>
<path id="draw-line d1_5" d="M491.249 574.199H715.919" stroke="#85A7E8" stroke-width="8" stroke-linecap="round" stroke-linejoin="round"/>
<path id="draw-line_5" d="M488.518 574.199L596.414 460.84" stroke="#85A7E8" stroke-width="8" stroke-linecap="round" stroke-linejoin="round"/>
</g>
<g id="template_6">
<path id="d_138" d="M242.679 228.853L292.529 151.004L365.598 163.979" stroke="#00FF00" stroke-width="65" stroke-linecap="round" stroke-linejoin="round"/>
<path id="&#208;&#178;_5" d="M244.044 230.024L363.549 165.833" stroke="#00FF00" stroke-width="65" stroke-linecap="round" stroke-linejoin="round"/>
<path id="d_139" d="M364.915 163.101L597.78 456.06" stroke="#00FF00" stroke-width="65" stroke-linecap="round" stroke-linejoin="round"/>
<path id="d_140" d="M330.771 182.905L487.152 570.102" stroke="#00FF00" stroke-width="65" stroke-linecap="round" stroke-linejoin="round"/>
<path id="d_141" d="M491.249 574.199H715.919" stroke="#00FF00" stroke-width="65" stroke-linecap="round" stroke-linejoin="round"/>
<path id="d_142" d="M488.518 574.199L596.414 460.84" stroke="#00FF00" stroke-width="65" stroke-linecap="round" stroke-linejoin="round"/>
<path id="d_143" d="M491.249 574.199H715.919" stroke="#0000FF" stroke-width="5" stroke-linecap="round" stroke-linejoin="round"/>
<path id="d_144" d="M488.518 574.199L596.414 460.84" stroke="#0000FF" stroke-width="5" stroke-linecap="round" stroke-linejoin="round"/>
</g>
</g>
<g id="step-3">
<g id="input_7">
<g id="ref_6">
<path id="d_145" d="M823.815 459.474L1088.09 942.275" stroke="#CBD8F1" stroke-width="8" stroke-linecap="round" stroke-linejoin="round"/>
<path id="d_146" d="M541.488 72.4744L711.631 398.872" stroke="#CBD8F1" stroke-width="8" stroke-linecap="round" stroke-linejoin="round"/>
<path id="d_147" d="M1064.19 122.128L991.122 454.694" stroke="#CBD8F1" stroke-width="8" stroke-linecap="round" stroke-linejoin="round"/>
<path id="d_148" d="M1064.19 122.128L906.444 451.962" stroke="#CBD8F1" stroke-width="8" stroke-linecap="round" stroke-linejoin="round"/>
<path id="d_149" d="M542.466 72.2775L906.444 453.328" stroke="#CBD8F1" stroke-width="8" stroke-linecap="round" stroke-linejoin="round"/>
<path id="d_150" d="M541.783 75.009L600.511 453.328" stroke="#CBD8F1" stroke-width="8" stroke-linecap="round" stroke-linejoin="round"/>
<path id="d_151" d="M600.511 454.694L776.013 374.796L899.615 447.865" stroke="#CBD8F1" stroke-width="8" stroke-linecap="round" stroke-linejoin="round"/>
<path id="d_152" d="M491.249 574.199H715.919" stroke="#CBD8F1" stroke-width="8" stroke-linecap="round" stroke-linejoin="round"/>
<path id="d_153" d="M991.122 453.328L1089.46 945.007" stroke="#CBD8F1" stroke-width="8" stroke-linecap="round" stroke-linejoin="round"/>
<path id="d_154" d="M601.877 456.743L1088.09 946.372" stroke="#CBD8F1" stroke-width="8" stroke-linecap="round" stroke-linejoin="round"/>
<path id="d_155" d="M604.608 455.377H989.756" stroke="#CBD8F1" stroke-width="8" stroke-linecap="round" stroke-linejoin="round"/>
<path id="d_156" d="M488.518 574.199L596.414 460.84" stroke="#CBD8F1" stroke-width="8" stroke-linecap="round" stroke-linejoin="round"/>
<path id="d_157" d="M330.771 182.905L487.152 570.102" stroke="#CBD8F1" stroke-width="8" stroke-linecap="round" stroke-linejoin="round"/>
<path id="d_158" d="M364.915 163.101L597.78 456.06" stroke="#CBD8F1" stroke-width="8" stroke-linecap="round" stroke-linejoin="round"/>
<path id="d_159" d="M244.044 230.024L363.549 165.833" stroke="#CBD8F1" stroke-width="8" stroke-linecap="round" stroke-linejoin="round"/>
<path id="d_160" d="M242.679 228.659L292.529 150.809L365.598 163.784" stroke="#CBD8F1" stroke-width="8" stroke-linecap="round" stroke-linejoin="round"/>
</g>
<path id="draw-line_6" d="M330.771 182.905L487.152 570.102" stroke="#85A7E8" stroke-width="8" stroke-linecap="round" stroke-linejoin="round"/>
</g>
<g id="template_7">
<path id="d_161" d="M242.679 228.853L292.529 151.004L365.598 163.979" stroke="#00FF00" stroke-width="65" stroke-linecap="round" stroke-linejoin="round"/>
<path id="&#208;&#178;_6" d="M244.044 230.024L363.549 165.833" stroke="#00FF00" stroke-width="65" stroke-linecap="round" stroke-linejoin="round"/>
<path id="d_162" d="M364.915 163.101L597.78 456.06" stroke="#00FF00" stroke-width="65" stroke-linecap="round" stroke-linejoin="round"/>
<path id="d_163" d="M330.771 182.905L487.152 570.102" stroke="#00FF00" stroke-width="65" stroke-linecap="round" stroke-linejoin="round"/>
<path id="d_164" d="M330.771 182.905L487.152 570.102" stroke="#0000FF" stroke-width="5" stroke-linecap="round" stroke-linejoin="round"/>
</g>
</g>
<g id="step-2">
<g id="input_8">
<g id="ref_7">
<path id="d_165" d="M823.815 459.474L1088.09 942.275" stroke="#CBD8F1" stroke-width="8" stroke-linecap="round" stroke-linejoin="round"/>
<path id="d_166" d="M541.488 72.4743L711.631 398.872" stroke="#CBD8F1" stroke-width="8" stroke-linecap="round" stroke-linejoin="round"/>
<path id="d_167" d="M1064.19 122.128L991.122 454.694" stroke="#CBD8F1" stroke-width="8" stroke-linecap="round" stroke-linejoin="round"/>
<path id="d_168" d="M1064.19 122.128L906.444 451.962" stroke="#CBD8F1" stroke-width="8" stroke-linecap="round" stroke-linejoin="round"/>
<path id="d_169" d="M542.466 72.2775L906.444 453.328" stroke="#CBD8F1" stroke-width="8" stroke-linecap="round" stroke-linejoin="round"/>
<path id="d_170" d="M541.783 75.009L600.511 453.328" stroke="#CBD8F1" stroke-width="8" stroke-linecap="round" stroke-linejoin="round"/>
<path id="d_171" d="M600.511 454.694L776.013 374.796L899.615 447.865" stroke="#CBD8F1" stroke-width="8" stroke-linecap="round" stroke-linejoin="round"/>
<path id="d_172" d="M491.249 574.199H715.919" stroke="#CBD8F1" stroke-width="8" stroke-linecap="round" stroke-linejoin="round"/>
<path id="d_173" d="M991.122 453.328L1089.46 945.006" stroke="#CBD8F1" stroke-width="8" stroke-linecap="round" stroke-linejoin="round"/>
<path id="d_174" d="M601.877 456.743L1088.09 946.372" stroke="#CBD8F1" stroke-width="8" stroke-linecap="round" stroke-linejoin="round"/>
<path id="d_175" d="M604.608 455.377H989.756" stroke="#CBD8F1" stroke-width="8" stroke-linecap="round" stroke-linejoin="round"/>
<path id="d_176" d="M488.518 574.199L596.414 460.84" stroke="#CBD8F1" stroke-width="8" stroke-linecap="round" stroke-linejoin="round"/>
<path id="d_177" d="M330.771 182.905L487.152 570.102" stroke="#CBD8F1" stroke-width="8" stroke-linecap="round" stroke-linejoin="round"/>
<path id="d_178" d="M364.915 163.101L597.78 456.06" stroke="#CBD8F1" stroke-width="8" stroke-linecap="round" stroke-linejoin="round"/>
<path id="d_179" d="M244.044 230.024L363.549 165.833" stroke="#CBD8F1" stroke-width="8" stroke-linecap="round" stroke-linejoin="round"/>
<path id="d_180" d="M242.679 228.658L292.529 150.809L365.598 163.784" stroke="#CBD8F1" stroke-width="8" stroke-linecap="round" stroke-linejoin="round"/>
</g>
<path id="draw-line_7" d="M364.915 163.101L597.78 456.06" stroke="#85A7E8" stroke-width="8" stroke-linecap="round" stroke-linejoin="round"/>
</g>
<g id="template_8">
<path id="d_181" d="M242.679 228.853L292.529 151.004L365.598 163.979" stroke="#00FF00" stroke-width="65" stroke-linecap="round" stroke-linejoin="round"/>
<path id="&#208;&#178;_7" d="M244.044 230.024L363.549 165.833" stroke="#00FF00" stroke-width="65" stroke-linecap="round" stroke-linejoin="round"/>
<path id="d_182" d="M364.915 163.101L597.78 456.06" stroke="#00FF00" stroke-width="65" stroke-linecap="round" stroke-linejoin="round"/>
<path id="d_183" d="M364.915 163.101L597.78 456.06" stroke="#0000FF" stroke-width="5" stroke-linecap="round" stroke-linejoin="round"/>
</g>
</g>
<g id="step-1">
<g id="input_9">
<g id="ref_8">
<path id="d_184" d="M823.815 459.474L1088.09 942.275" stroke="#CBD8F1" stroke-width="8" stroke-linecap="round" stroke-linejoin="round"/>
<path id="d_185" d="M541.488 72.4743L711.631 398.872" stroke="#CBD8F1" stroke-width="8" stroke-linecap="round" stroke-linejoin="round"/>
<path id="d_186" d="M1064.19 122.128L991.122 454.694" stroke="#CBD8F1" stroke-width="8" stroke-linecap="round" stroke-linejoin="round"/>
<path id="d_187" d="M1064.19 122.128L906.444 451.962" stroke="#CBD8F1" stroke-width="8" stroke-linecap="round" stroke-linejoin="round"/>
<path id="d_188" d="M542.466 72.2775L906.444 453.328" stroke="#CBD8F1" stroke-width="8" stroke-linecap="round" stroke-linejoin="round"/>
<path id="d_189" d="M541.783 75.009L600.511 453.328" stroke="#CBD8F1" stroke-width="8" stroke-linecap="round" stroke-linejoin="round"/>
<path id="d_190" d="M600.511 454.694L776.013 374.796L899.615 447.865" stroke="#CBD8F1" stroke-width="8" stroke-linecap="round" stroke-linejoin="round"/>
<path id="d_191" d="M491.249 574.199H715.919" stroke="#CBD8F1" stroke-width="8" stroke-linecap="round" stroke-linejoin="round"/>
<path id="d_192" d="M991.122 453.328L1089.46 945.006" stroke="#CBD8F1" stroke-width="8" stroke-linecap="round" stroke-linejoin="round"/>
<path id="d_193" d="M601.877 456.743L1088.09 946.372" stroke="#CBD8F1" stroke-width="8" stroke-linecap="round" stroke-linejoin="round"/>
<path id="d_194" d="M604.608 455.377H989.756" stroke="#CBD8F1" stroke-width="8" stroke-linecap="round" stroke-linejoin="round"/>
<path id="d_195" d="M488.518 574.199L596.414 460.84" stroke="#CBD8F1" stroke-width="8" stroke-linecap="round" stroke-linejoin="round"/>
<path id="d_196" d="M330.771 182.905L487.152 570.102" stroke="#CBD8F1" stroke-width="8" stroke-linecap="round" stroke-linejoin="round"/>
<path id="d_197" d="M364.915 163.101L597.78 456.06" stroke="#CBD8F1" stroke-width="8" stroke-linecap="round" stroke-linejoin="round"/>
<path id="d_198" d="M244.044 230.024L363.549 165.833" stroke="#CBD8F1" stroke-width="8" stroke-linecap="round" stroke-linejoin="round"/>
<path id="d_199" d="M242.679 228.658L292.529 150.809L365.598 163.784" stroke="#CBD8F1" stroke-width="8" stroke-linecap="round" stroke-linejoin="round"/>
</g>
<path id="draw-line d1_6" d="M244.044 230.024L363.549 165.833" stroke="#6685D4" stroke-width="8" stroke-linecap="round" stroke-linejoin="round"/>
<path id="draw-line_8" d="M242.679 228.853L292.529 151.004L365.598 163.979" stroke="#6685D4" stroke-width="8" stroke-linecap="round" stroke-linejoin="round"/>
</g>
<g id="template_9">
<path id="d_200" d="M244.044 230.024L363.549 165.833" stroke="#00FF00" stroke-width="65" stroke-linecap="round" stroke-linejoin="round"/>
<path id="d_201" d="M242.679 228.853L292.529 151.004L365.598 163.979" stroke="#00FF00" stroke-width="65" stroke-linecap="round" stroke-linejoin="round"/>
<path id="d_202" d="M244.044 230.024L363.549 165.833" stroke="#0000FF" stroke-width="5" stroke-linecap="round" stroke-linejoin="round"/>
<path id="d_203" d="M242.679 228.853L292.529 151.004L365.598 163.979" stroke="#0000FF" stroke-width="5" stroke-linecap="round" stroke-linejoin="round"/>
</g>
</g>
</g>
<defs>
<clipPath id="clip0">
<rect width="1366" height="1024" fill="white"/>
</clipPath>
</defs>
</svg>
