<svg width="1366" height="1024" viewBox="0 0 1366 1024" fill="none" xmlns="http://www.w3.org/2000/svg">
<g id="5">
<g id="step-15">
<g id="input">
<path id="draw-line" d="M266 564C301 534 304.5 443 360.5 443C423.5 443 418.567 586.5 490 586.5C570 586.5 549 482.5 604 482.5C650.5 482.5 641 534 670.5 534C715.976 534 705 458 749.5 458C794 458 824.11 603 910.5 603C994.5 603 1009.5 401 1065.5 401C1121.5 401 1116.5 518.5 1170 564" stroke="#85A7E8" stroke-width="8" stroke-linecap="round"/>
</g>
<g id="template">
<path id="Vector 34" d="M266 564C301 534 304.5 443 360.5 443C423.5 443 418.567 586.5 490 586.5C570 586.5 549 482.5 604 482.5C650.5 482.5 641 534 670.5 534C715.976 534 705 458 749.5 458C794 458 824.11 603 910.5 603C994.5 603 1009.5 401 1065.5 401C1121.5 401 1116.5 518.5 1170 564" stroke="#00FF00" stroke-width="80" stroke-linecap="round"/>
<path id="Vector 34_2" d="M266 564C301 534 304.5 443 360.5 443C423.5 443 418.567 586.5 490 586.5C570 586.5 549 482.5 604 482.5C650.5 482.5 641 534 670.5 534C715.976 534 705 458 749.5 458C794 458 824.11 603 910.5 603C994.5 603 1009.5 401 1065.5 401C1121.5 401 1116.5 518.5 1170 564" stroke="#0000FF" stroke-width="10" stroke-linecap="round"/>
</g>
</g>
<g id="step-14">
<g id="input_2">
<path id="draw-line_2" d="M296.5 508.5C296.5 508.5 330.185 581.103 375 580.5C454.603 579.43 446.037 447.829 525.5 443C588.345 439.181 610.044 528.814 673 528C720.647 527.384 741.867 487.795 789.5 486.5C869.592 484.322 877.62 586.719 957.5 580.5C1023.16 575.388 1048 480.5 1048 480.5" stroke="#85A7E8" stroke-width="8" stroke-linecap="round"/>
</g>
<g id="template_2">
<path id="Vector 33" d="M296.5 508.5C296.5 508.5 330.185 581.103 375 580.5C454.603 579.43 446.037 447.829 525.5 443C588.345 439.181 610.044 528.814 673 528C720.647 527.384 741.867 487.795 789.5 486.5C869.592 484.322 877.62 586.719 957.5 580.5C1023.16 575.388 1048 480.5 1048 480.5" stroke="#00FF00" stroke-width="80" stroke-linecap="round"/>
<path id="Vector 33_2" d="M296.5 508.5C296.5 508.5 330.185 581.103 375 580.5C454.603 579.43 446.037 447.829 525.5 443C588.345 439.181 610.044 528.814 673 528C720.647 527.384 741.867 487.795 789.5 486.5C869.592 484.322 877.62 586.719 957.5 580.5C1023.16 575.388 1048 480.5 1048 480.5" stroke="#0000FF" stroke-width="10" stroke-linecap="round"/>
</g>
</g>
<g id="step-13">
<g id="input_3">
<path id="draw-line_3" d="M283.798 421.409C379.507 439.529 439.149 502.771 441.01 554.199C442.162 585.465 417.348 613.444 388.99 613.089C357.264 612.733 334.666 595.946 332.273 562.193C330.766 541.231 340.603 516.183 360.188 492.467C423.995 415.458 543.012 410.661 609.3 485.539C628.264 506.945 638.81 530.483 639.608 551.978C640.76 583.244 615.946 611.223 587.588 610.868C555.862 610.513 533.263 593.725 530.871 559.972C528.301 523.378 560.115 474.17 618.693 441.661C658.041 419.899 706.073 418.122 746.572 437.752C804.087 465.643 838.117 511.209 839.535 549.936C840.687 581.201 815.873 609.18 787.515 608.825C755.789 608.47 733.191 591.682 730.798 557.93C729.291 536.967 739.128 511.919 758.713 488.204C822.52 411.194 941.537 406.398 1007.82 481.275C1026.79 502.682 1037.34 526.22 1038.13 547.715C1039.28 578.981 1014.47 606.96 986.113 606.604C954.387 606.249 931.789 589.462 929.396 555.709C926.028 507.478 982.302 437.397 1080.94 412.527" stroke="#85A7E8" stroke-width="8" stroke-miterlimit="10" stroke-linecap="round"/>
</g>
<g id="template_3">
<path id="Vector" d="M283.798 421.409C379.507 439.529 439.149 502.771 441.01 554.199C442.162 585.465 417.348 613.444 388.99 613.089C357.264 612.733 334.666 595.946 332.273 562.193C330.766 541.231 340.603 516.183 360.188 492.467C423.995 415.458 543.012 410.661 609.3 485.539C628.264 506.945 638.81 530.483 639.608 551.978C640.76 583.244 615.946 611.223 587.588 610.868C555.862 610.513 533.263 593.725 530.871 559.972C528.301 523.378 560.115 474.17 618.693 441.661C658.041 419.899 706.073 418.122 746.572 437.752C804.087 465.643 838.117 511.209 839.535 549.936C840.687 581.201 815.873 609.18 787.515 608.825C755.789 608.47 733.191 591.682 730.798 557.93C729.291 536.967 739.128 511.919 758.713 488.204C822.52 411.194 941.537 406.398 1007.82 481.275C1026.79 502.682 1037.34 526.22 1038.13 547.715C1039.28 578.981 1014.47 606.96 986.113 606.604C954.387 606.249 931.789 589.462 929.396 555.709C926.028 507.478 982.302 437.397 1080.94 412.527" stroke="#00FF00" stroke-width="80" stroke-miterlimit="10" stroke-linecap="round"/>
<path id="Vector_2" d="M283.798 421.409C379.507 439.529 439.149 502.771 441.01 554.199C442.162 585.465 417.348 613.444 388.99 613.089C357.264 612.733 334.666 595.946 332.273 562.193C330.766 541.231 340.603 516.183 360.188 492.467C423.995 415.458 543.012 410.661 609.3 485.539C628.264 506.945 638.81 530.483 639.608 551.978C640.76 583.244 615.946 611.223 587.588 610.868C555.862 610.513 533.263 593.725 530.871 559.972C528.301 523.378 560.115 474.17 618.693 441.661C658.041 419.899 706.073 418.122 746.572 437.752C804.087 465.643 838.117 511.209 839.535 549.936C840.687 581.201 815.873 609.18 787.515 608.825C755.789 608.47 733.191 591.682 730.798 557.93C729.291 536.967 739.128 511.919 758.713 488.204C822.52 411.194 941.537 406.398 1007.82 481.275C1026.79 502.682 1037.34 526.22 1038.13 547.715C1039.28 578.981 1014.47 606.96 986.113 606.604C954.387 606.249 931.789 589.462 929.396 555.709C926.028 507.478 982.302 437.397 1080.94 412.527" stroke="#0000FF" stroke-width="10" stroke-miterlimit="10" stroke-linecap="round"/>
</g>
</g>
<g id="step-12">
<g id="input_4">
<path id="draw-line_4" d="M283.798 604.21C379.507 586.09 439.149 522.848 441.01 471.419C442.162 440.154 417.348 412.175 388.99 412.53C357.264 412.885 334.666 429.673 332.273 463.425C330.766 484.388 340.603 509.436 360.188 533.151C423.995 610.161 543.012 614.957 609.3 540.08C628.264 518.673 638.81 495.135 639.608 473.64C640.76 442.374 615.946 414.395 587.588 414.751C555.862 415.106 533.263 431.893 530.871 465.646C528.301 502.241 560.115 551.449 618.693 583.958C658.041 605.72 706.073 607.496 746.572 587.866C804.087 559.976 838.117 514.41 839.535 475.683C840.687 444.417 815.873 416.438 787.515 416.793C755.789 417.149 733.191 433.936 730.798 467.689C729.291 488.651 739.128 513.699 758.713 537.415C822.52 614.424 941.537 619.221 1007.82 544.343C1026.79 522.937 1037.34 499.399 1038.13 477.904C1039.28 446.638 1014.47 418.659 986.113 419.014C954.387 419.369 931.789 436.157 929.396 469.91C926.028 518.14 982.302 588.221 1080.94 613.092" stroke="#85A7E8" stroke-width="8" stroke-miterlimit="10" stroke-linecap="round"/>
</g>
<g id="template_4">
<path id="Vector_3" d="M283.798 604.21C379.507 586.09 439.149 522.848 441.01 471.419C442.162 440.154 417.348 412.175 388.99 412.53C357.264 412.885 334.666 429.673 332.273 463.425C330.766 484.388 340.603 509.436 360.188 533.151C423.995 610.161 543.012 614.957 609.3 540.08C628.264 518.673 638.81 495.135 639.608 473.64C640.76 442.374 615.946 414.395 587.588 414.751C555.862 415.106 533.263 431.893 530.871 465.646C528.301 502.241 560.115 551.449 618.693 583.958C658.041 605.72 706.073 607.496 746.572 587.866C804.087 559.976 838.117 514.41 839.535 475.683C840.687 444.417 815.873 416.438 787.515 416.793C755.789 417.149 733.191 433.936 730.798 467.689C729.291 488.651 739.128 513.699 758.713 537.415C822.52 614.424 941.537 619.221 1007.82 544.343C1026.79 522.937 1037.34 499.399 1038.13 477.904C1039.28 446.638 1014.47 418.659 986.113 419.014C954.387 419.369 931.789 436.157 929.396 469.91C926.028 518.14 982.302 588.221 1080.94 613.092" stroke="#00FF00" stroke-width="80" stroke-miterlimit="10" stroke-linecap="round"/>
<path id="Vector_4" d="M283.798 604.21C379.507 586.09 439.149 522.848 441.01 471.419C442.162 440.154 417.348 412.175 388.99 412.53C357.264 412.885 334.666 429.673 332.273 463.425C330.766 484.388 340.603 509.436 360.188 533.151C423.995 610.161 543.012 614.957 609.3 540.08C628.264 518.673 638.81 495.135 639.608 473.64C640.76 442.374 615.946 414.395 587.588 414.751C555.862 415.106 533.263 431.893 530.871 465.646C528.301 502.241 560.115 551.449 618.693 583.958C658.041 605.72 706.073 607.496 746.572 587.866C804.087 559.976 838.117 514.41 839.535 475.683C840.687 444.417 815.873 416.438 787.515 416.793C755.789 417.149 733.191 433.936 730.798 467.689C729.291 488.651 739.128 513.699 758.713 537.415C822.52 614.424 941.537 619.221 1007.82 544.343C1026.79 522.937 1037.34 499.399 1038.13 477.904C1039.28 446.638 1014.47 418.659 986.113 419.014C954.387 419.369 931.789 436.157 929.396 469.91C926.028 518.14 982.302 588.221 1080.94 613.092" stroke="#0000FF" stroke-width="10" stroke-miterlimit="10" stroke-linecap="round"/>
</g>
</g>
<g id="step-11">
<g id="input_5">
<path id="draw-line d1" d="M721 464.787C813.262 510.274 870.894 564.55 861.99 605.272C857.476 625.943 835.4 647.851 812.953 647.789C793.165 647.727 776.407 623.034 774.922 600.569C770.223 529.522 952.706 493.874 947.882 423.074C946.336 400.547 925.683 377.092 906.513 376.04C885.735 374.864 864.278 399.99 860.877 421.28C854.507 460.702 906.513 509.346 989.314 544.498" stroke="#85A7E8" stroke-width="8" stroke-miterlimit="10" stroke-linecap="round"/>
<path id="draw-line_5" d="M377 464.787C469.262 510.274 526.894 564.55 517.99 605.272C513.476 625.943 491.4 647.851 468.953 647.789C449.165 647.727 432.407 623.034 430.922 600.569C426.223 529.522 608.706 493.874 603.882 423.074C602.336 400.547 581.683 377.092 562.513 376.04C541.735 374.864 520.278 399.99 516.877 421.28C510.507 460.702 562.513 509.346 645.314 544.498" stroke="#85A7E8" stroke-width="8" stroke-miterlimit="10" stroke-linecap="round"/>
</g>
<g id="template_5">
<path id="Vector_5" d="M377 464.787C469.262 510.274 526.894 564.55 517.99 605.272C513.476 625.943 491.4 647.851 468.953 647.789C449.165 647.727 432.407 623.034 430.922 600.569C426.223 529.522 608.706 493.874 603.882 423.074C602.336 400.547 581.683 377.092 562.513 376.04C541.735 374.864 520.278 399.99 516.877 421.28C510.507 460.702 562.513 509.346 645.314 544.498" stroke="#00FF00" stroke-width="80" stroke-miterlimit="10" stroke-linecap="round"/>
<path id="Vector_6" d="M721 464.787C813.262 510.274 870.894 564.55 861.99 605.272C857.476 625.943 835.4 647.851 812.953 647.789C793.165 647.727 776.407 623.034 774.922 600.569C770.223 529.522 952.706 493.874 947.882 423.074C946.336 400.547 925.683 377.092 906.513 376.04C885.735 374.864 864.278 399.99 860.877 421.28C854.507 460.702 906.513 509.346 989.314 544.498" stroke="#00FF00" stroke-width="80" stroke-miterlimit="10" stroke-linecap="round"/>
<path id="Vector_7" d="M377 464.787C469.262 510.274 526.894 564.55 517.99 605.272C513.476 625.943 491.4 647.851 468.953 647.789C449.165 647.727 432.407 623.034 430.922 600.569C426.223 529.522 608.706 493.874 603.882 423.074C602.336 400.547 581.683 377.092 562.513 376.04C541.735 374.864 520.278 399.99 516.877 421.28C510.507 460.702 562.513 509.346 645.314 544.498" stroke="#0000FF" stroke-width="10" stroke-miterlimit="10" stroke-linecap="round"/>
<path id="Vector_8" d="M721 464.787C813.262 510.274 870.894 564.55 861.99 605.272C857.476 625.943 835.4 647.851 812.953 647.789C793.165 647.727 776.407 623.034 774.922 600.569C770.223 529.522 952.706 493.874 947.882 423.074C946.336 400.547 925.683 377.092 906.513 376.04C885.735 374.864 864.278 399.99 860.877 421.28C854.507 460.702 906.513 509.346 989.314 544.498" stroke="#0000FF" stroke-width="10" stroke-miterlimit="10" stroke-linecap="round"/>
</g>
</g>
<g id="step-10">
<g id="input_6">
<path id="draw-line d2" d="M864 604.573C958.296 586.747 1017.06 524.531 1018.89 473.937C1020.02 443.179 995.577 415.654 967.638 416.003C936.381 416.353 914.116 432.868 911.759 466.073C908.441 513.521 963.883 582.465 1061.06 606.932" stroke="#85A7E8" stroke-width="8" stroke-miterlimit="10" stroke-linecap="round"/>
<path id="draw-line d1_2" d="M584.718 604.806C679.013 586.98 737.773 524.764 739.607 474.171C740.742 443.412 716.295 415.887 688.355 416.237C657.098 416.586 634.834 433.101 632.477 466.306C629.159 513.754 684.601 582.698 781.778 607.165" stroke="#85A7E8" stroke-width="8" stroke-miterlimit="10" stroke-linecap="round"/>
<path id="draw-line_6" d="M305 604.573C399.296 586.747 458.056 524.531 459.889 473.937C461.024 443.179 436.577 415.654 408.638 416.003C377.381 416.353 355.116 432.868 352.759 466.073C349.441 513.521 404.883 582.465 502.06 606.932" stroke="#85A7E8" stroke-width="8" stroke-miterlimit="10" stroke-linecap="round"/>
</g>
<g id="template_6">
<path id="Vector_9" d="M864 604.573C958.296 586.747 1017.06 524.531 1018.89 473.937C1020.02 443.179 995.577 415.654 967.638 416.003C936.381 416.353 914.116 432.868 911.759 466.073C908.441 513.521 963.883 582.465 1061.06 606.932" stroke="#00FF00" stroke-width="80" stroke-miterlimit="10" stroke-linecap="round"/>
<path id="Vector_10" d="M584.718 604.806C679.013 586.98 737.773 524.764 739.607 474.171C740.742 443.412 716.295 415.887 688.355 416.237C657.098 416.586 634.834 433.101 632.477 466.306C629.159 513.754 684.601 582.698 781.778 607.165" stroke="#00FF00" stroke-width="80" stroke-miterlimit="10" stroke-linecap="round"/>
<path id="Vector_11" d="M305 604.573C399.296 586.747 458.056 524.531 459.889 473.937C461.024 443.179 436.577 415.654 408.638 416.003C377.381 416.353 355.116 432.868 352.759 466.073C349.441 513.521 404.883 582.465 502.06 606.932" stroke="#00FF00" stroke-width="80" stroke-miterlimit="10" stroke-linecap="round"/>
<path id="Vector_12" d="M864 604.573C958.296 586.747 1017.06 524.531 1018.89 473.937C1020.02 443.179 995.577 415.654 967.638 416.003C936.381 416.353 914.116 432.868 911.759 466.073C908.441 513.521 963.883 582.465 1061.06 606.932" stroke="#0000FF" stroke-width="10" stroke-miterlimit="10" stroke-linecap="round"/>
<path id="Vector_13" d="M584.718 604.806C679.013 586.98 737.773 524.764 739.607 474.171C740.742 443.412 716.295 415.887 688.355 416.237C657.098 416.586 634.834 433.101 632.477 466.306C629.159 513.754 684.601 582.698 781.778 607.165" stroke="#0000FF" stroke-width="10" stroke-miterlimit="10" stroke-linecap="round"/>
<path id="Vector_14" d="M305 604.573C399.296 586.747 458.056 524.531 459.889 473.937C461.024 443.179 436.577 415.654 408.638 416.003C377.381 416.353 355.116 432.868 352.759 466.073C349.441 513.521 404.883 582.465 502.06 606.932" stroke="#0000FF" stroke-width="10" stroke-miterlimit="10" stroke-linecap="round"/>
</g>
</g>
<g id="step-9">
<g id="input_7">
<path id="draw-line_7" d="M300 448C370 448 357.084 575.5 427.5 575.5C497.916 575.5 484.584 448 555 448C625.416 448 612.084 575.5 682.5 575.5C752.916 575.5 739.584 448 810 448C880.416 448 867.084 575.5 937.5 575.5C1007.92 575.5 1001.5 448 1065 448" stroke="#85A7E8" stroke-width="8" stroke-linecap="round"/>
</g>
<g id="template_7">
<path id="Vector 31" d="M300 448C370 448 357.084 575.5 427.5 575.5C497.916 575.5 484.584 448 555 448C625.416 448 612.084 575.5 682.5 575.5C752.916 575.5 739.584 448 810 448C880.416 448 867.084 575.5 937.5 575.5C1007.92 575.5 1001.5 448 1065 448" stroke="#00FF00" stroke-width="80" stroke-linecap="round"/>
<path id="Vector 32" d="M300 448C370 448 357.084 575.5 427.5 575.5C497.916 575.5 484.584 448 555 448C625.416 448 612.084 575.5 682.5 575.5C752.916 575.5 739.584 448 810 448C880.416 448 867.084 575.5 937.5 575.5C1007.92 575.5 1001.5 448 1065 448" stroke="#0000FF" stroke-width="10" stroke-linecap="round"/>
</g>
</g>
<g id="step-8">
<g id="input_8">
<path id="draw-line_8" d="M300 575.5C370 575.5 357.084 448 427.5 448C497.916 448 484.584 575.5 555 575.5C625.416 575.5 612.084 448 682.5 448C752.916 448 739.584 575.5 810 575.5C880.416 575.5 867.084 448 937.5 448C1007.92 448 1001.5 575.5 1065 575.5" stroke="#85A7E8" stroke-width="8" stroke-linecap="round"/>
</g>
<g id="template_8">
<path id="Vector 31_2" d="M300 575.5C370 575.5 357.084 448 427.5 448C497.916 448 484.584 575.5 555 575.5C625.416 575.5 612.084 448 682.5 448C752.916 448 739.584 575.5 810 575.5C880.416 575.5 867.084 448 937.5 448C1007.92 448 1001.5 575.5 1065 575.5" stroke="#00FF00" stroke-width="80" stroke-linecap="round"/>
<path id="Vector 32_2" d="M300 575.5C370 575.5 357.084 448 427.5 448C497.916 448 484.584 575.5 555 575.5C625.416 575.5 612.084 448 682.5 448C752.916 448 739.584 575.5 810 575.5C880.416 575.5 867.084 448 937.5 448C1007.92 448 1001.5 575.5 1065 575.5" stroke="#0000FF" stroke-width="10" stroke-linecap="round"/>
</g>
</g>
<g id="step-7">
<g id="input_9">
<path id="draw-line_9" d="M340 478C340 478 370.668 546.5 408.5 546.5C446.332 546.5 477 478 477 478C477 478 507.668 546.5 545.5 546.5C583.332 546.5 614 478 614 478C614 478 644.668 546.5 682.5 546.5C720.332 546.5 751 478 751 478C751 478 781.668 546.5 819.5 546.5C857.332 546.5 888 478 888 478C888 478 918.668 546.5 956.5 546.5C994.332 546.5 1025 478 1025 478" stroke="#85A7E8" stroke-width="8" stroke-linecap="round" stroke-linejoin="round"/>
</g>
<g id="template_9">
<path id="Vector 36" d="M340 478C340 478 370.668 546.5 408.5 546.5C446.332 546.5 477 478 477 478C477 478 507.668 546.5 545.5 546.5C583.332 546.5 614 478 614 478C614 478 644.668 546.5 682.5 546.5C720.332 546.5 751 478 751 478C751 478 781.668 546.5 819.5 546.5C857.332 546.5 888 478 888 478C888 478 918.668 546.5 956.5 546.5C994.332 546.5 1025 478 1025 478" stroke="#00FF00" stroke-width="80" stroke-linecap="round" stroke-linejoin="round"/>
<path id="Vector 36_2" d="M340 478C340 478 370.668 546.5 408.5 546.5C446.332 546.5 477 478 477 478C477 478 507.668 546.5 545.5 546.5C583.332 546.5 614 478 614 478C614 478 644.668 546.5 682.5 546.5C720.332 546.5 751 478 751 478C751 478 781.668 546.5 819.5 546.5C857.332 546.5 888 478 888 478C888 478 918.668 546.5 956.5 546.5C994.332 546.5 1025 478 1025 478" stroke="#0000FF" stroke-width="10" stroke-linecap="round" stroke-linejoin="round"/>
</g>
</g>
<g id="step-6">
<g id="input_10">
<path id="draw-line_10" d="M365 459C365 459 412.458 565 471 565C529.542 565 577 459 577 459C577 459 624.458 565 683 565C741.542 565 789 459 789 459C789 459 836.458 565 895 565C953.542 565 1001 459 1001 459" stroke="#85A7E8" stroke-width="8" stroke-linecap="round" stroke-linejoin="round"/>
</g>
<g id="template_10">
<path id="Vector 35" d="M365 459C365 459 412.458 565 471 565C529.542 565 577 459 577 459C577 459 624.458 565 683 565C741.542 565 789 459 789 459C789 459 836.458 565 895 565C953.542 565 1001 459 1001 459" stroke="#00FF00" stroke-width="80" stroke-linecap="round" stroke-linejoin="round"/>
<path id="Vector 35_2" d="M365 459C365 459 412.458 565 471 565C529.542 565 577 459 577 459C577 459 624.458 565 683 565C741.542 565 789 459 789 459C789 459 836.458 565 895 565C953.542 565 1001 459 1001 459" stroke="#0000FF" stroke-width="10" stroke-linecap="round" stroke-linejoin="round"/>
</g>
</g>
<g id="step-5">
<g id="input_11">
<path id="draw-line d4" d="M904 534C904 534 919.293 599 969.5 599C1019.71 599 1035 534 1035 534" stroke="#85A7E8" stroke-width="8" stroke-linecap="round"/>
<path id="draw-line d3" d="M759 491C759 491 774.293 426 824.5 426C874.707 426 890 491 890 491" stroke="#85A7E8" stroke-width="8" stroke-linecap="round"/>
<path id="draw-line d2_2" d="M616 534C616 534 631.293 599 681.5 599C731.707 599 747 534 747 534" stroke="#85A7E8" stroke-width="8" stroke-linecap="round"/>
<path id="draw-line d1_3" d="M471 491C471 491 486.293 426 536.5 426C586.707 426 602 491 602 491" stroke="#85A7E8" stroke-width="8" stroke-linecap="round"/>
<path id="draw-line " d="M328 534C328 534 343.293 599 393.5 599C443.707 599 459 534 459 534" stroke="#85A7E8" stroke-width="8" stroke-linecap="round"/>
</g>
<g id="template_11">
<path id="Vector 16" d="M905 534C905 534 920.293 599 970.5 599C1020.71 599 1036 534 1036 534" stroke="#00FF00" stroke-width="80" stroke-linecap="round"/>
<path id="Vector 17" d="M328 534C328 534 343.293 599 393.5 599C443.707 599 459 534 459 534" stroke="#00FF00" stroke-width="80" stroke-linecap="round"/>
<path id="Vector 18" d="M759 491C759 491 774.293 426 824.5 426C874.707 426 890 491 890 491" stroke="#00FF00" stroke-width="80" stroke-linecap="round"/>
<path id="Vector 19" d="M616 534C616 534 631.293 599 681.5 599C731.707 599 747 534 747 534" stroke="#00FF00" stroke-width="80" stroke-linecap="round"/>
<path id="Vector 20" d="M471 491C471 491 486.293 426 536.5 426C586.707 426 602 491 602 491" stroke="#00FF00" stroke-width="80" stroke-linecap="round"/>
<path id="Vector 26" d="M952.5 491L837 535.5" stroke="#FF0000" stroke-width="10"/>
<path id="Vector 27" d="M666 490L550.5 534.5" stroke="#FF0000" stroke-width="10"/>
<path id="Vector 28" d="M695.5 491L811 535.5" stroke="#FF0000" stroke-width="10"/>
<path id="Vector 29" d="M407.5 491L523 535.5" stroke="#FF0000" stroke-width="10"/>
<path id="Vector 21" d="M904 534C904 534 919.293 599 969.5 599C1019.71 599 1035 534 1035 534" stroke="#0000FF" stroke-width="10" stroke-linecap="round"/>
<path id="Vector 22" d="M328 534C328 534 343.293 599 393.5 599C443.707 599 459 534 459 534" stroke="#0000FF" stroke-width="10" stroke-linecap="round"/>
<path id="Vector 23" d="M759 491C759 491 774.293 426 824.5 426C874.707 426 890 491 890 491" stroke="#0000FF" stroke-width="10" stroke-linecap="round"/>
<path id="Vector 24" d="M616 534C616 534 631.293 599 681.5 599C731.707 599 747 534 747 534" stroke="#0000FF" stroke-width="10" stroke-linecap="round"/>
<path id="Vector 25" d="M471 491C471 491 486.293 426 536.5 426C586.707 426 602 491 602 491" stroke="#0000FF" stroke-width="10" stroke-linecap="round"/>
</g>
</g>
<g id="step-4">
<g id="input_12">
<path id="draw-line d2_3" d="M809 399C809 399 904 425.5 904 512.5C904 599.5 809 626 809 626" stroke="#85A7E8" stroke-width="8" stroke-linecap="round"/>
<path id="draw-line d1_4" d="M635 399C635 399 730 425.5 730 512.5C730 599.5 635 626 635 626" stroke="#85A7E8" stroke-width="8" stroke-linecap="round"/>
<path id="draw-line_11" d="M461 399C461 399 556 425.5 556 512.5C556 599.5 461 626 461 626" stroke="#85A7E8" stroke-width="8" stroke-linecap="round"/>
</g>
<g id="template_12">
<path id="Vector 12" d="M809 399C809 399 904 425.5 904 512.5C904 599.5 809 626 809 626" stroke="#00FF00" stroke-width="80" stroke-linecap="round"/>
<path id="Vector 13" d="M635 399C635 399 730 425.5 730 512.5C730 599.5 635 626 635 626" stroke="#00FF00" stroke-width="80" stroke-linecap="round"/>
<path id="Vector 14" d="M461 399C461 399 556 425.5 556 512.5C556 599.5 461 626 461 626" stroke="#00FF00" stroke-width="80" stroke-linecap="round"/>
<path id="Vector 15" d="M809 399C809 399 904 425.5 904 512.5C904 599.5 809 626 809 626" stroke="#0000FF" stroke-width="10" stroke-linecap="round"/>
<path id="Vector 16_2" d="M635 399C635 399 730 425.5 730 512.5C730 599.5 635 626 635 626" stroke="#0000FF" stroke-width="10" stroke-linecap="round"/>
<path id="Vector 17_2" d="M461 399C461 399 556 425.5 556 512.5C556 599.5 461 626 461 626" stroke="#0000FF" stroke-width="10" stroke-linecap="round"/>
</g>
</g>
<g id="step-3">
<g id="input_13">
<path id="draw-line d2_4" d="M904 399C904 399 809 425.5 809 512.5C809 599.5 904 626 904 626" stroke="#85A7E8" stroke-width="8" stroke-linecap="round"/>
<path id="draw-line d1_5" d="M730 399C730 399 635 425.5 635 512.5C635 599.5 730 626 730 626" stroke="#85A7E8" stroke-width="8" stroke-linecap="round"/>
<path id="draw-line _2" d="M556 399C556 399 461 425.5 461 512.5C461 599.5 556 626 556 626" stroke="#85A7E8" stroke-width="8" stroke-linecap="round"/>
</g>
<g id="template_13">
<path id="Vector 12_2" d="M556 399C556 399 461 425.5 461 512.5C461 599.5 556 626 556 626" stroke="#00FF00" stroke-width="80" stroke-linecap="round"/>
<path id="Vector 13_2" d="M730 399C730 399 635 425.5 635 512.5C635 599.5 730 626 730 626" stroke="#00FF00" stroke-width="80" stroke-linecap="round"/>
<path id="Vector 14_2" d="M904 399C904 399 809 425.5 809 512.5C809 599.5 904 626 904 626" stroke="#00FF00" stroke-width="80" stroke-linecap="round"/>
<path id="Vector 15_2" d="M556 399C556 399 461 425.5 461 512.5C461 599.5 556 626 556 626" stroke="#0000FF" stroke-width="10" stroke-linecap="round"/>
<path id="Vector 16_3" d="M730 399C730 399 635 425.5 635 512.5C635 599.5 730 626 730 626" stroke="#0000FF" stroke-width="10" stroke-linecap="round"/>
<path id="Vector 17_3" d="M904 399C904 399 809 425.5 809 512.5C809 599.5 904 626 904 626" stroke="#0000FF" stroke-width="10" stroke-linecap="round"/>
</g>
</g>
<g id="step-2">
<g id="input_14">
<path id="draw-line d2_5" d="M885 465C885 465 911.5 560 998.5 560C1085.5 560 1112 465 1112 465" stroke="#85A7E8" stroke-width="8" stroke-linecap="round"/>
<path id="draw-line d1_6" d="M569.5 465C569.5 465 596 560 683 560C770 560 796.5 465 796.5 465" stroke="#85A7E8" stroke-width="8" stroke-linecap="round"/>
<path id="draw-line _3" d="M254 465C254 465 280.5 560 367.5 560C454.5 560 481 465 481 465" stroke="#85A7E8" stroke-width="8" stroke-linecap="round"/>
</g>
<g id="template_14">
<path id="Vector 4" d="M254 465C254 465 280.5 560 367.5 560C454.5 560 481 465 481 465" stroke="#00FF00" stroke-width="80" stroke-linecap="round"/>
<path id="Vector 5" d="M885 465C885 465 911.5 560 998.5 560C1085.5 560 1112 465 1112 465" stroke="#00FF00" stroke-width="80" stroke-linecap="round"/>
<path id="Vector 6" d="M569.5 465C569.5 465 596 560 683 560C770 560 796.5 465 796.5 465" stroke="#00FF00" stroke-width="80" stroke-linecap="round"/>
<path id="Vector 4_2" d="M254 465C254 465 280.5 560 367.5 560C454.5 560 481 465 481 465" stroke="#0000FF" stroke-width="10" stroke-linecap="round"/>
<path id="Vector 5_2" d="M885 465C885 465 911.5 560 998.5 560C1085.5 560 1112 465 1112 465" stroke="#0000FF" stroke-width="10" stroke-linecap="round"/>
<path id="Vector 6_2" d="M569.5 465C569.5 465 596 560 683 560C770 560 796.5 465 796.5 465" stroke="#0000FF" stroke-width="10" stroke-linecap="round"/>
</g>
</g>
<g id="step-1">
<g id="input_15">
<path id="draw-line d2_6" d="M885 560C885 560 911.5 465 998.5 465C1085.5 465 1112 560 1112 560" stroke="#85A7E8" stroke-width="8" stroke-linecap="round"/>
<path id="draw-line d1_7" d="M569.5 560C569.5 560 596 465 683 465C770 465 796.5 560 796.5 560" stroke="#85A7E8" stroke-width="8" stroke-linecap="round"/>
<path id="draw-line _4" d="M254 560C254 560 280.5 465 367.5 465C454.5 465 481 560 481 560" stroke="#85A7E8" stroke-width="8" stroke-linecap="round"/>
</g>
<g id="template_15">
<path id="Vector 4_3" d="M254 560C254 560 280.5 465 367.5 465C454.5 465 481 560 481 560" stroke="#00FF00" stroke-width="80" stroke-linecap="round"/>
<path id="Vector 5_3" d="M885 560C885 560 911.5 465 998.5 465C1085.5 465 1112 560 1112 560" stroke="#00FF00" stroke-width="80" stroke-linecap="round"/>
<path id="Vector 6_3" d="M569.5 560C569.5 560 596 465 683 465C770 465 796.5 560 796.5 560" stroke="#00FF00" stroke-width="80" stroke-linecap="round"/>
<path id="Vector 4_4" d="M254 560C254 560 280.5 465 367.5 465C454.5 465 481 560 481 560" stroke="#0000FF" stroke-width="10" stroke-linecap="round"/>
<path id="Vector 5_4" d="M885 560C885 560 911.5 465 998.5 465C1085.5 465 1112 560 1112 560" stroke="#0000FF" stroke-width="10" stroke-linecap="round"/>
<path id="Vector 6_4" d="M569.5 560C569.5 560 596 465 683 465C770 465 796.5 560 796.5 560" stroke="#0000FF" stroke-width="10" stroke-linecap="round"/>
</g>
</g>
</g>
</svg>
