<svg width="1366" height="1024" viewBox="0 0 1366 1024" fill="none" xmlns="http://www.w3.org/2000/svg">
<g id="9" clip-path="url(#clip0)">
<g id="step-4">
<g id="input">
<g id="Group 6">
<rect id="appear d1" x="1217.5" y="878.5" width="95" height="95" stroke="#999999" stroke-width="5"/>
<path id="draw-line d2" d="M1231 920C1260.2 951.2 1260 961.5 1260 961.5C1260 961.5 1289 888 1311 862" stroke="#0000FF" stroke-opacity="0.1" stroke-width="10" stroke-linecap="round" stroke-linejoin="round"/>
</g>
</g>
<g id="template">
<rect id="Rectangle 6" x="1190" y="851" width="150" height="150" fill="#0000FF" stroke="#00FF00" stroke-width="50"/>
</g>
</g>
<g id="step-3">
<g id="input_2">
<g id="ref">
<path id="f" d="M866 359.235C866 264.116 788.9 187 693.772 187C617.682 187 556 248.685 556 324.778C556 385.649 605.349 435 666.218 435C714.923 435 754.392 395.517 754.392 346.822C754.392 307.864 722.809 276.28 683.852 276.28C652.69 276.28 627.418 301.552 627.418 332.716C627.418 357.648 647.625 377.868 672.568 377.868C692.512 377.868 708.691 361.702 708.691 341.744C708.691 325.788 695.753 312.85 679.798 312.85C667.031 312.85 656.678 323.203 656.678 335.971C656.678 346.179 664.958 354.459 675.166 354.459C683.341 354.459 689.954 347.833 689.954 339.671C689.954 333.136 684.653 327.835 678.118 327.835C672.883 327.835 669 332.764 669 338" stroke="#CBD8F1" stroke-width="8" stroke-miterlimit="10" stroke-linecap="round" stroke-linejoin="round"/>
<path id="f_2" d="M676 517V919H690V517" stroke="#CBD8F1" stroke-width="8" stroke-miterlimit="10" stroke-linecap="round" stroke-linejoin="round"/>
<path id="f_3" d="M683 147C785.173 147 868 229.827 868 332C868 434.173 785.173 517 683 517C580.827 517 498 434.173 498 332C498 230.997 580.942 148.866 681.5 147" stroke="#CBD8F1" stroke-width="8" stroke-miterlimit="10" stroke-linecap="round" stroke-linejoin="round"/>
</g>
<path id="draw-line" d="M676 517V919H690V517" stroke="#6685D4" stroke-width="8" stroke-miterlimit="10" stroke-linecap="round" stroke-linejoin="round"/>
</g>
<g id="template_2">
<path id="Vector" d="M676 517V919H690V517" stroke="#00FF00" stroke-width="65" stroke-miterlimit="10" stroke-linecap="round" stroke-linejoin="round"/>
<path id="Vector_2" d="M676 517V919H690V517" stroke="#0000FF" stroke-width="5" stroke-miterlimit="10" stroke-linecap="round" stroke-linejoin="round"/>
</g>
</g>
<g id="step-2">
<g id="input_3">
<g id="ref_2">
<path id="f_4" d="M866 359.235C866 264.116 788.9 187 693.772 187C617.682 187 556 248.685 556 324.778C556 385.649 605.349 435 666.218 435C714.923 435 754.392 395.517 754.392 346.822C754.392 307.864 722.809 276.28 683.852 276.28C652.69 276.28 627.418 301.552 627.418 332.716C627.418 357.648 647.625 377.868 672.568 377.868C692.512 377.868 708.691 361.702 708.691 341.744C708.691 325.788 695.753 312.85 679.798 312.85C667.031 312.85 656.678 323.203 656.678 335.971C656.678 346.179 664.958 354.459 675.166 354.459C683.341 354.459 689.954 347.833 689.954 339.671C689.954 333.136 684.653 327.835 678.118 327.835C672.883 327.835 669 332.764 669 338" stroke="#CBD8F1" stroke-width="8" stroke-miterlimit="10" stroke-linecap="round" stroke-linejoin="round"/>
<path id="f_5" d="M676 517V919H690V517" stroke="#CBD8F1" stroke-width="8" stroke-miterlimit="10" stroke-linecap="round" stroke-linejoin="round"/>
<path id="f_6" d="M683 147C785.173 147 868 229.827 868 332C868 434.173 785.173 517 683 517C580.827 517 498 434.173 498 332C498 230.997 580.942 148.866 681.5 147" stroke="#CBD8F1" stroke-width="8" stroke-miterlimit="10" stroke-linecap="round" stroke-linejoin="round"/>
</g>
<path id="draw-line_2" d="M866 359.235C866 264.116 788.9 187 693.772 187C617.682 187 556 248.685 556 324.778C556 385.649 605.349 435 666.218 435C714.923 435 754.392 395.517 754.392 346.822C754.392 307.864 722.809 276.28 683.852 276.28C652.69 276.28 627.418 301.552 627.418 332.716C627.418 357.648 647.625 377.868 672.568 377.868C692.512 377.868 708.691 361.702 708.691 341.744C708.691 325.788 695.753 312.85 679.798 312.85C667.031 312.85 656.678 323.203 656.678 335.971C656.678 346.179 664.958 354.459 675.166 354.459C683.341 354.459 689.954 347.833 689.954 339.671C689.954 333.136 684.653 327.835 678.118 327.835C672.883 327.835 669 332.764 669 338" stroke="#6685D4" stroke-width="8" stroke-miterlimit="10" stroke-linecap="round" stroke-linejoin="round"/>
</g>
<g id="template_3">
<path id="Vector_3" d="M866 359.235C866 264.116 788.9 187 693.772 187C617.682 187 556 248.685 556 324.778C556 385.649 605.349 435 666.218 435C714.923 435 754.392 395.517 754.392 346.822C754.392 307.864 722.809 276.28 683.852 276.28C652.69 276.28 627.418 301.552 627.418 332.716C627.418 357.648 647.625 377.868 672.568 377.868C692.512 377.868 708.691 361.702 708.691 341.744C708.691 325.788 695.753 312.85 679.798 312.85C667.031 312.85 656.678 323.203 656.678 335.971C656.678 346.179 664.958 354.459 675.166 354.459C683.341 354.459 689.954 347.833 689.954 339.671C689.954 333.136 684.653 327.835 678.118 327.835C672.883 327.835 669 332.764 669 338" stroke="#00FF00" stroke-width="65" stroke-miterlimit="10" stroke-linecap="round" stroke-linejoin="round"/>
<path id="Vector_4" d="M866 359.235C866 264.116 788.9 187 693.772 187C617.682 187 556 248.685 556 324.778C556 385.649 605.349 435 666.218 435C714.923 435 754.392 395.517 754.392 346.822C754.392 307.864 722.809 276.28 683.852 276.28C652.69 276.28 627.418 301.552 627.418 332.716C627.418 357.648 647.625 377.868 672.568 377.868C692.512 377.868 708.691 361.702 708.691 341.744C708.691 325.788 695.753 312.85 679.798 312.85C667.031 312.85 656.678 323.203 656.678 335.971C656.678 346.179 664.958 354.459 675.166 354.459C683.341 354.459 689.954 347.833 689.954 339.671C689.954 333.136 684.653 327.835 678.118 327.835C672.883 327.835 669 332.764 669 338" stroke="#0000FF" stroke-width="5" stroke-miterlimit="10" stroke-linecap="round" stroke-linejoin="round"/>
</g>
</g>
<g id="step-1">
<g id="input_4">
<g id="ref_3">
<path id="f_7" d="M866 359.235C866 264.116 788.9 187 693.772 187C617.682 187 556 248.685 556 324.778C556 385.649 605.349 435 666.218 435C714.923 435 754.392 395.517 754.392 346.822C754.392 307.864 722.809 276.28 683.852 276.28C652.69 276.28 627.418 301.552 627.418 332.716C627.418 357.648 647.625 377.868 672.568 377.868C692.512 377.868 708.691 361.702 708.691 341.744C708.691 325.788 695.753 312.85 679.798 312.85C667.031 312.85 656.678 323.203 656.678 335.971C656.678 346.179 664.958 354.459 675.166 354.459C683.341 354.459 689.954 347.833 689.954 339.671C689.954 333.136 684.653 327.835 678.118 327.835C672.883 327.835 669 332.764 669 338" stroke="#CBD8F1" stroke-width="8" stroke-miterlimit="10" stroke-linecap="round" stroke-linejoin="round"/>
<path id="f_8" d="M676 517V919H690V517" stroke="#CBD8F1" stroke-width="8" stroke-miterlimit="10" stroke-linecap="round" stroke-linejoin="round"/>
<path id="f_9" d="M683 147C785.173 147 868 229.827 868 332C868 434.173 785.173 517 683 517C580.827 517 498 434.173 498 332C498 230.997 580.942 148.866 681.5 147" stroke="#CBD8F1" stroke-width="8" stroke-miterlimit="10" stroke-linecap="round" stroke-linejoin="round"/>
</g>
<path id="draw-line_3" d="M683 147C785.173 147 868 229.827 868 332C868 434.173 785.173 517 683 517C580.827 517 498 434.173 498 332C498 230.997 580.942 148.866 681.5 147" stroke="#6685D4" stroke-width="8" stroke-miterlimit="10" stroke-linecap="round" stroke-linejoin="round"/>
</g>
<g id="template_4">
<path id="Vector_5" d="M683 517C785.173 517 868 434.173 868 332C868 229.827 785.173 147 683 147C580.827 147 498 229.827 498 332C498 434.173 580.827 517 683 517Z" stroke="#00FF00" stroke-width="65" stroke-miterlimit="10" stroke-linecap="round" stroke-linejoin="round"/>
<path id="Vector_6" d="M683 517C785.173 517 868 434.173 868 332C868 229.827 785.173 147 683 147C580.827 147 498 229.827 498 332C498 434.173 580.827 517 683 517Z" stroke="#0000FF" stroke-width="5" stroke-miterlimit="10" stroke-linecap="round" stroke-linejoin="round"/>
</g>
</g>
</g>
<defs>
<clipPath id="clip0">
<rect width="1366" height="1024" fill="white"/>
</clipPath>
</defs>
</svg>
