<svg width="1366" height="1024" viewBox="0 0 1366 1024" fill="none" xmlns="http://www.w3.org/2000/svg">
<g id="butterfly">
<g id="step s-multistep-result">
<g id="input">
<g id="Group 6">
<rect id="appear d1" x="1218.5" y="876.5" width="95" height="95" stroke="#999999" stroke-width="5"/>
<path id="draw-line d2" d="M1232 918C1261.2 949.2 1261 959.5 1261 959.5C1261 959.5 1290 886 1312 860" stroke="#0000FF" stroke-opacity="0.1" stroke-width="10" stroke-linecap="round" stroke-linejoin="round"/>
</g>
</g>
<g id="template">
<rect id="Rectangle 6" x="1191" y="849" width="150" height="150" fill="#FF0000" stroke="#00FF00" stroke-width="50"/>
</g>
</g>
<g id="step">
<g id="input_2">
<path id="ref" d="M706.5 356.5C715.5 353 723.602 353.981 729 377.5C735.312 405 698.014 596.876 645.041 656.126C641.315 660.266 621.973 681.175 627.536 691.757C628.608 693.751 630.292 694.927 630.7 695.182C638.61 700.397 656.575 688.997 660.861 686.287C699.035 662.311 705.414 595.905 706.996 569.833C708.681 541.972 724.705 319.031 596.507 250.682C582.83 243.371 545.269 223.332 516.638 239.997C493.367 253.545 482.65 287.489 487.345 326.239C478.516 324.45 463.001 322.661 450.09 330.687C410.334 355.378 414.978 460.126 466.063 521.83C489.437 550.049 533.122 575.661 569.918 571.622C586.096 569.833 603.091 555.57 594.772 546.726C582.932 534.15 515.158 545.857 468.717 597.387C458.102 609.196 419.877 649.173 429.676 696.051C431.513 704.895 434.167 719.976 445.65 729.843C475.454 755.506 543.585 728.871 584.973 701.368C666.73 647.128 658.616 654.694 703.934 521.267C714.141 491.259 767.523 378.383 893.629 389.221C907.817 390.448 927.057 400.928 931.139 414.168C935.528 428.329 919.299 449.237 889.444 466.619C895.466 466.261 907.408 466.516 918.738 473.724C918.738 473.724 936.753 485.227 940.938 509.305C949.052 556.183 869.592 618.654 802.482 622.232C791.918 622.794 763.543 624.277 754.561 608.889C749.661 600.506 751.294 588.543 754.561 587.572C773.341 581.948 786.814 626.935 788.294 669.366C790.387 729.996 743.333 795.738 706.639 791.188C687.757 788.837 673.365 768.184 667.598 753.87C656.472 726.315 668.312 701.675 670.252 697.841" stroke="#CBD8F1" stroke-width="8" stroke-miterlimit="10" stroke-linecap="round" stroke-linejoin="round"/>
<path id="draw-line rgb-template" d="M706.5 356.5C715.5 353 723.602 353.981 729 377.5C735.312 405 698.014 596.876 645.041 656.126C641.315 660.266 621.973 681.175 627.536 691.757C628.608 693.751 630.292 694.927 630.7 695.182C638.61 700.397 656.575 688.997 660.861 686.287C699.035 662.311 705.414 595.905 706.996 569.833C708.681 541.972 724.705 319.031 596.507 250.682C582.83 243.371 545.269 223.332 516.638 239.997C493.367 253.545 482.65 287.489 487.345 326.239C478.516 324.45 463.001 322.661 450.09 330.687C410.334 355.378 414.978 460.126 466.063 521.83C489.437 550.049 533.122 575.661 569.918 571.622C586.096 569.833 603.091 555.57 594.772 546.726C582.932 534.15 515.158 545.857 468.717 597.387C458.102 609.196 419.877 649.173 429.676 696.051C431.513 704.895 434.167 719.976 445.65 729.843C475.454 755.506 543.585 728.871 584.973 701.368C666.73 647.128 658.616 654.694 703.934 521.267C714.141 491.259 767.523 378.383 893.629 389.221C907.817 390.448 927.057 400.928 931.139 414.168C935.528 428.329 919.299 449.237 889.444 466.619C895.466 466.261 907.408 466.516 918.738 473.724C918.738 473.724 936.753 485.227 940.938 509.305C949.052 556.183 869.592 618.654 802.482 622.232C791.918 622.794 763.543 624.277 754.561 608.889C749.661 600.506 751.294 588.543 754.561 587.572C773.341 581.948 786.814 626.935 788.294 669.366C790.387 729.996 743.333 795.738 706.639 791.188C687.757 788.837 673.365 768.184 667.598 753.87C656.472 726.315 668.312 701.675 670.252 697.841" stroke="#6685D4" stroke-width="8" stroke-miterlimit="10" stroke-linecap="round" stroke-linejoin="round"/>
</g>
</g>
<g id="step s-multistep-brush">
<g id="input_3">
<path id="ref_2" d="M706.5 356.5C715.5 353 723.602 353.981 729 377.5C735.312 405 698.014 596.876 645.041 656.126C641.315 660.266 621.973 681.175 627.536 691.757C628.608 693.751 630.292 694.927 630.7 695.182C638.61 700.397 656.575 688.997 660.861 686.287C699.035 662.311 705.414 595.905 706.996 569.833C708.681 541.972 724.705 319.031 596.507 250.682C582.83 243.371 545.269 223.332 516.638 239.997C493.367 253.545 482.65 287.489 487.345 326.239C478.516 324.45 463.001 322.661 450.09 330.687C410.334 355.378 414.978 460.126 466.063 521.83C489.437 550.049 533.122 575.661 569.918 571.622C586.096 569.833 603.091 555.57 594.772 546.726C582.932 534.15 515.158 545.857 468.717 597.387C458.102 609.196 419.877 649.173 429.676 696.051C431.513 704.895 434.167 719.976 445.65 729.843C475.454 755.506 543.585 728.871 584.973 701.368C666.73 647.128 658.616 654.694 703.934 521.267C714.141 491.259 767.523 378.383 893.629 389.221C907.817 390.448 927.057 400.928 931.139 414.168C935.528 428.329 919.299 449.237 889.444 466.619C895.466 466.261 907.408 466.516 918.738 473.724C918.738 473.724 936.753 485.227 940.938 509.305C949.052 556.183 869.592 618.654 802.482 622.232C791.918 622.794 763.543 624.277 754.561 608.889C749.661 600.506 751.294 588.543 754.561 587.572C773.341 581.948 786.814 626.935 788.294 669.366C790.387 729.996 743.333 795.738 706.639 791.188C687.757 788.837 673.365 768.184 667.598 753.87C656.472 726.315 668.312 701.675 670.252 697.841" stroke="#CBD8F1" stroke-width="8" stroke-miterlimit="10" stroke-linecap="round" stroke-linejoin="round"/>
<path id="draw-line rgb-template_2" d="M788.294 669.366C790.387 729.996 743.333 795.738 706.639 791.188C687.757 788.837 673.365 768.184 667.598 753.87C656.472 726.315 668.312 701.675 670.252 697.841" stroke="#6685D4" stroke-width="8" stroke-miterlimit="10" stroke-linecap="round" stroke-linejoin="round"/>
</g>
</g>
<g id="step s-multistep-brush_2">
<g id="input ">
<path id="ref_3" d="M706.5 356.5C715.5 353 723.602 353.981 729 377.5C735.312 405 698.014 596.876 645.041 656.126C641.315 660.266 621.973 681.175 627.536 691.757C628.608 693.751 630.292 694.927 630.7 695.182C638.61 700.397 656.575 688.997 660.861 686.287C699.035 662.311 705.414 595.905 706.996 569.833C708.681 541.972 724.705 319.031 596.507 250.682C582.83 243.371 545.269 223.332 516.638 239.997C493.367 253.545 482.65 287.489 487.345 326.239C478.516 324.45 463.001 322.661 450.09 330.687C410.334 355.378 414.978 460.126 466.063 521.83C489.437 550.049 533.122 575.661 569.918 571.622C586.096 569.833 603.091 555.57 594.772 546.726C582.932 534.15 515.158 545.857 468.717 597.387C458.102 609.196 419.877 649.173 429.676 696.051C431.513 704.895 434.167 719.976 445.65 729.843C475.454 755.506 543.585 728.871 584.973 701.368C666.73 647.128 658.616 654.694 703.934 521.267C714.141 491.259 767.523 378.383 893.629 389.221C907.817 390.448 927.057 400.928 931.139 414.168C935.528 428.329 919.299 449.237 889.444 466.619C895.466 466.261 907.408 466.516 918.738 473.724C918.738 473.724 936.753 485.227 940.938 509.305C949.052 556.183 869.592 618.654 802.482 622.232C791.918 622.794 763.543 624.277 754.561 608.889C749.661 600.506 751.294 588.543 754.561 587.572C773.341 581.948 786.814 626.935 788.294 669.366C790.387 729.996 743.333 795.738 706.639 791.188C687.757 788.837 673.365 768.184 667.598 753.87C656.472 726.315 668.312 701.675 670.252 697.841" stroke="#CBD8F1" stroke-width="8" stroke-miterlimit="10" stroke-linecap="round" stroke-linejoin="round"/>
<path id="draw-line flip rgb-template" d="M788.294 669.366C786.814 626.935 773.341 581.948 754.561 587.572C751.294 588.543 749.661 600.506 754.561 608.889C763.543 624.277 791.918 622.794 802.482 622.232C838.604 620.306 878.304 601.318 906 576.883" stroke="#6685D4" stroke-width="8" stroke-miterlimit="10" stroke-linecap="round" stroke-linejoin="round"/>
</g>
</g>
<g id="step s-multistep-brush_3">
<g id="input_4">
<path id="ref_4" d="M706.5 356.5C715.5 353 723.602 353.981 729 377.5C735.312 405 698.014 596.876 645.041 656.126C641.315 660.266 621.973 681.175 627.536 691.757C628.608 693.751 630.292 694.927 630.7 695.182C638.61 700.397 656.575 688.997 660.861 686.287C699.035 662.311 705.414 595.905 706.996 569.833C708.681 541.972 724.705 319.031 596.507 250.682C582.83 243.371 545.269 223.332 516.638 239.997C493.367 253.545 482.65 287.489 487.345 326.239C478.516 324.45 463.001 322.661 450.09 330.687C410.334 355.378 414.978 460.126 466.063 521.83C489.437 550.049 533.122 575.661 569.918 571.622C586.096 569.833 603.091 555.57 594.772 546.726C582.932 534.15 515.158 545.857 468.717 597.387C458.102 609.196 419.877 649.173 429.676 696.051C431.513 704.895 434.167 719.976 445.65 729.843C475.454 755.506 543.585 728.871 584.973 701.368C666.73 647.128 658.616 654.694 703.934 521.267C714.141 491.259 767.523 378.383 893.629 389.221C907.817 390.448 927.057 400.928 931.139 414.168C935.528 428.329 919.299 449.237 889.444 466.619C895.466 466.261 907.408 466.516 918.738 473.724C918.738 473.724 936.753 485.227 940.938 509.305C949.052 556.183 869.592 618.654 802.482 622.232C791.918 622.794 763.543 624.277 754.561 608.889C749.661 600.506 751.294 588.543 754.561 587.572C773.341 581.948 786.814 626.935 788.294 669.366C790.387 729.996 743.333 795.738 706.639 791.188C687.757 788.837 673.365 768.184 667.598 753.87C656.472 726.315 668.312 701.675 670.252 697.841" stroke="#CBD8F1" stroke-width="8" stroke-miterlimit="10" stroke-linecap="round" stroke-linejoin="round"/>
<path id="draw-line rgb-template_3" d="M893.629 389.221C907.817 390.448 927.057 400.928 931.139 414.168C935.528 428.329 919.299 449.237 889.444 466.619C895.466 466.261 907.408 466.516 918.738 473.724C918.738 473.724 936.753 485.227 940.938 509.305C944.632 530.646 930.177 555.218 907 575.994" stroke="#6685D4" stroke-width="8" stroke-miterlimit="10" stroke-linecap="round" stroke-linejoin="round"/>
</g>
</g>
<g id="step s-multistep-brush_4">
<g id="input_5">
<path id="ref_5" d="M706.5 356.5C715.5 353 723.602 353.981 729 377.5C735.312 405 698.014 596.876 645.041 656.126C641.315 660.266 621.973 681.175 627.536 691.757C628.608 693.751 630.292 694.927 630.7 695.182C638.61 700.397 656.575 688.997 660.861 686.287C699.035 662.311 705.414 595.905 706.996 569.833C708.681 541.972 724.705 319.031 596.507 250.682C582.83 243.371 545.269 223.332 516.638 239.997C493.367 253.545 482.65 287.489 487.345 326.239C478.516 324.45 463.001 322.661 450.09 330.687C410.334 355.378 414.978 460.126 466.063 521.83C489.437 550.049 533.122 575.661 569.918 571.622C586.096 569.833 603.091 555.57 594.772 546.726C582.932 534.15 515.158 545.857 468.717 597.387C458.102 609.196 419.877 649.173 429.676 696.051C431.513 704.895 434.167 719.976 445.65 729.843C475.454 755.506 543.585 728.871 584.973 701.368C666.73 647.128 658.616 654.694 703.934 521.267C714.141 491.259 767.523 378.383 893.629 389.221C907.817 390.448 927.057 400.928 931.139 414.168C935.528 428.329 919.299 449.237 889.444 466.619C895.466 466.261 907.408 466.516 918.738 473.724C918.738 473.724 936.753 485.227 940.938 509.305C949.052 556.183 869.592 618.654 802.482 622.232C791.918 622.794 763.543 624.277 754.561 608.889C749.661 600.506 751.294 588.543 754.561 587.572C773.341 581.948 786.814 626.935 788.294 669.366C790.387 729.996 743.333 795.738 706.639 791.188C687.757 788.837 673.365 768.184 667.598 753.87C656.472 726.315 668.312 701.675 670.252 697.841" stroke="#CBD8F1" stroke-width="8" stroke-miterlimit="10" stroke-linecap="round" stroke-linejoin="round"/>
<path id="draw-line rgb-template_4" d="M584.973 701.368C666.73 647.128 658.616 654.694 703.934 521.267C714.141 491.259 767.523 378.383 893.629 389.221" stroke="#6685D4" stroke-width="8" stroke-miterlimit="10" stroke-linecap="round" stroke-linejoin="round"/>
</g>
</g>
<g id="step s-multistep-brush_5">
<g id="input_6">
<path id="ref_6" d="M706.5 356.5C715.5 353 723.602 353.981 729 377.5C735.312 405 698.014 596.876 645.041 656.126C641.315 660.266 621.973 681.175 627.536 691.757C628.608 693.751 630.292 694.927 630.7 695.182C638.61 700.397 656.575 688.997 660.861 686.287C699.035 662.311 705.414 595.905 706.996 569.833C708.681 541.972 724.705 319.031 596.507 250.682C582.83 243.371 545.269 223.332 516.638 239.997C493.367 253.545 482.65 287.489 487.345 326.239C478.516 324.45 463.001 322.661 450.09 330.687C410.334 355.378 414.978 460.126 466.063 521.83C489.437 550.049 533.122 575.661 569.918 571.622C586.096 569.833 603.091 555.57 594.772 546.726C582.932 534.15 515.158 545.857 468.717 597.387C458.102 609.196 419.877 649.173 429.676 696.051C431.513 704.895 434.167 719.976 445.65 729.843C475.454 755.506 543.585 728.871 584.973 701.368C666.73 647.128 658.616 654.694 703.934 521.267C714.141 491.259 767.523 378.383 893.629 389.221C907.817 390.448 927.057 400.928 931.139 414.168C935.528 428.329 919.299 449.237 889.444 466.619C895.466 466.261 907.408 466.516 918.738 473.724C918.738 473.724 936.753 485.227 940.938 509.305C949.052 556.183 869.592 618.654 802.482 622.232C791.918 622.794 763.543 624.277 754.561 608.889C749.661 600.506 751.294 588.543 754.561 587.572C773.341 581.948 786.814 626.935 788.294 669.366C790.387 729.996 743.333 795.738 706.639 791.188C687.757 788.837 673.365 768.184 667.598 753.87C656.472 726.315 668.312 701.675 670.252 697.841" stroke="#CBD8F1" stroke-width="8" stroke-miterlimit="10" stroke-linecap="round" stroke-linejoin="round"/>
<path id="draw-line rgb-template_5" d="M468.717 597.387C458.102 609.196 419.877 649.173 429.676 696.051C431.513 704.895 434.167 719.976 445.65 729.843C475.454 755.506 543.585 728.871 584.973 701.368" stroke="#6685D4" stroke-width="8" stroke-miterlimit="10" stroke-linecap="round" stroke-linejoin="round"/>
</g>
</g>
<g id="step s-multistep-brush_6">
<g id="input_7">
<path id="ref_7" d="M706.5 356.5C715.5 353 723.602 353.981 729 377.5C735.312 405 698.014 596.876 645.041 656.126C641.315 660.266 621.973 681.175 627.536 691.757C628.608 693.751 630.292 694.927 630.7 695.182C638.61 700.397 656.575 688.997 660.861 686.287C699.035 662.311 705.414 595.905 706.996 569.833C708.681 541.972 724.705 319.031 596.507 250.682C582.83 243.371 545.269 223.332 516.638 239.997C493.367 253.545 482.65 287.489 487.345 326.239C478.516 324.45 463.001 322.661 450.09 330.687C410.334 355.378 414.978 460.126 466.063 521.83C489.437 550.049 533.122 575.661 569.918 571.622C586.096 569.833 603.091 555.57 594.772 546.726C582.932 534.15 515.158 545.857 468.717 597.387C458.102 609.196 419.877 649.173 429.676 696.051C431.513 704.895 434.167 719.976 445.65 729.843C475.454 755.506 543.585 728.871 584.973 701.368C666.73 647.128 658.616 654.694 703.934 521.267C714.141 491.259 767.523 378.383 893.629 389.221C907.817 390.448 927.057 400.928 931.139 414.168C935.528 428.329 919.299 449.237 889.444 466.619C895.466 466.261 907.408 466.516 918.738 473.724C918.738 473.724 936.753 485.227 940.938 509.305C949.052 556.183 869.592 618.654 802.482 622.232C791.918 622.794 763.543 624.277 754.561 608.889C749.661 600.506 751.294 588.543 754.561 587.572C773.341 581.948 786.814 626.935 788.294 669.366C790.387 729.996 743.333 795.738 706.639 791.188C687.757 788.837 673.365 768.184 667.598 753.87C656.472 726.315 668.312 701.675 670.252 697.841" stroke="#CBD8F1" stroke-width="8" stroke-miterlimit="10" stroke-linecap="round" stroke-linejoin="round"/>
<path id="draw-line rgb-template_6" d="M466.063 521.83C489.437 550.049 533.122 575.661 569.918 571.622C586.096 569.833 603.091 555.57 594.772 546.726C582.932 534.15 515.158 545.857 468.717 597.387" stroke="#6685D4" stroke-width="8" stroke-miterlimit="10" stroke-linecap="round" stroke-linejoin="round"/>
</g>
</g>
<g id="step s-multistep-brush_7">
<g id="input_8">
<path id="ref_8" d="M706.5 356.5C715.5 353 723.602 353.981 729 377.5C735.312 405 698.014 596.876 645.041 656.126C641.315 660.266 621.973 681.175 627.536 691.757C628.608 693.751 630.292 694.927 630.7 695.182C638.61 700.397 656.575 688.997 660.861 686.287C699.035 662.311 705.414 595.905 706.996 569.833C708.681 541.972 724.705 319.031 596.507 250.682C582.83 243.371 545.269 223.332 516.638 239.997C493.367 253.545 482.65 287.489 487.345 326.239C478.516 324.45 463.001 322.661 450.09 330.687C410.334 355.378 414.978 460.126 466.063 521.83C489.437 550.049 533.122 575.661 569.918 571.622C586.096 569.833 603.091 555.57 594.772 546.726C582.932 534.15 515.158 545.857 468.717 597.387C458.102 609.196 419.877 649.173 429.676 696.051C431.513 704.895 434.167 719.976 445.65 729.843C475.454 755.506 543.585 728.871 584.973 701.368C666.73 647.128 658.616 654.694 703.934 521.267C714.141 491.259 767.523 378.383 893.629 389.221C907.817 390.448 927.057 400.928 931.139 414.168C935.528 428.329 919.299 449.237 889.444 466.619C895.466 466.261 907.408 466.516 918.738 473.724C918.738 473.724 936.753 485.227 940.938 509.305C949.052 556.183 869.592 618.654 802.482 622.232C791.918 622.794 763.543 624.277 754.561 608.889C749.661 600.506 751.294 588.543 754.561 587.572C773.341 581.948 786.814 626.935 788.294 669.366C790.387 729.996 743.333 795.738 706.639 791.188C687.757 788.837 673.365 768.184 667.598 753.87C656.472 726.315 668.312 701.675 670.252 697.841" stroke="#CBD8F1" stroke-width="8" stroke-miterlimit="10" stroke-linecap="round" stroke-linejoin="round"/>
<path id="draw-line rgb-template_7" d="M596.507 250.682C582.83 243.371 545.269 223.332 516.638 239.997C493.367 253.545 482.65 287.489 487.345 326.239C478.516 324.45 463.001 322.661 450.09 330.687C410.334 355.378 414.978 460.126 466.063 521.83" stroke="#6685D4" stroke-width="8" stroke-miterlimit="10" stroke-linecap="round" stroke-linejoin="round"/>
</g>
</g>
<g id="step s-multistep-brush_8">
<g id="input_9">
<path id="ref_9" d="M706.5 356.5C715.5 353 723.602 353.981 729 377.5C735.312 405 698.014 596.876 645.041 656.126C641.315 660.266 621.973 681.175 627.536 691.757C628.608 693.751 630.292 694.927 630.7 695.182C638.61 700.397 656.575 688.997 660.861 686.287C699.035 662.311 705.414 595.905 706.996 569.833C708.681 541.972 724.705 319.031 596.507 250.682C582.83 243.371 545.269 223.332 516.638 239.997C493.367 253.545 482.65 287.489 487.345 326.239C478.516 324.45 463.001 322.661 450.09 330.687C410.334 355.378 414.978 460.126 466.063 521.83C489.437 550.049 533.122 575.661 569.918 571.622C586.096 569.833 603.091 555.57 594.772 546.726C582.932 534.15 515.158 545.857 468.717 597.387C458.102 609.196 419.877 649.173 429.676 696.051C431.513 704.895 434.167 719.976 445.65 729.843C475.454 755.506 543.585 728.871 584.973 701.368C666.73 647.128 658.616 654.694 703.934 521.267C714.141 491.259 767.523 378.383 893.629 389.221C907.817 390.448 927.057 400.928 931.139 414.168C935.528 428.329 919.299 449.237 889.444 466.619C895.466 466.261 907.408 466.516 918.738 473.724C918.738 473.724 936.753 485.227 940.938 509.305C949.052 556.183 869.592 618.654 802.482 622.232C791.918 622.794 763.543 624.277 754.561 608.889C749.661 600.506 751.294 588.543 754.561 587.572C773.341 581.948 786.814 626.935 788.294 669.366C790.387 729.996 743.333 795.738 706.639 791.188C687.757 788.837 673.365 768.184 667.598 753.87C656.472 726.315 668.312 701.675 670.252 697.841" stroke="#CBD8F1" stroke-width="8" stroke-miterlimit="10" stroke-linecap="round" stroke-linejoin="round"/>
<path id="draw-line rgb-template_8" d="M645.041 656.126C641.315 660.266 621.973 681.175 627.536 691.757C628.608 693.751 630.292 694.927 630.7 695.182C638.61 700.397 656.575 688.997 660.861 686.287C699.035 662.311 705.414 595.905 706.996 569.833C708.681 541.972 724.705 319.031 596.507 250.682" stroke="#6685D4" stroke-width="8" stroke-miterlimit="10" stroke-linecap="round" stroke-linejoin="round"/>
</g>
</g>
<g id="step s-multistep-brush_9">
<g id="input_10">
<path id="ref_10" d="M706.5 356.5C715.5 353 723.602 353.981 729 377.5C735.312 405 698.014 596.876 645.041 656.126C641.315 660.266 621.973 681.175 627.536 691.757C628.608 693.751 630.292 694.927 630.7 695.182C638.61 700.397 656.575 688.997 660.861 686.287C699.035 662.311 705.414 595.905 706.996 569.833C708.681 541.972 724.705 319.031 596.507 250.682C582.83 243.371 545.269 223.332 516.638 239.997C493.367 253.545 482.65 287.489 487.345 326.239C478.516 324.45 463.001 322.661 450.09 330.687C410.334 355.378 414.978 460.126 466.063 521.83C489.437 550.049 533.122 575.661 569.918 571.622C586.096 569.833 603.091 555.57 594.772 546.726C582.932 534.15 515.158 545.857 468.717 597.387C458.102 609.196 419.877 649.173 429.676 696.051C431.513 704.895 434.167 719.976 445.65 729.843C475.454 755.506 543.585 728.871 584.973 701.368C666.73 647.128 658.616 654.694 703.934 521.267C714.141 491.259 767.523 378.383 893.629 389.221C907.817 390.448 927.057 400.928 931.139 414.168C935.528 428.329 919.299 449.237 889.444 466.619C895.466 466.261 907.408 466.516 918.738 473.724C918.738 473.724 936.753 485.227 940.938 509.305C949.052 556.183 869.592 618.654 802.482 622.232C791.918 622.794 763.543 624.277 754.561 608.889C749.661 600.506 751.294 588.543 754.561 587.572C773.341 581.948 786.814 626.935 788.294 669.366C790.387 729.996 743.333 795.738 706.639 791.188C687.757 788.837 673.365 768.184 667.598 753.87C656.472 726.315 668.312 701.675 670.252 697.841" stroke="#CBD8F1" stroke-width="8" stroke-miterlimit="10" stroke-linecap="round" stroke-linejoin="round"/>
<path id="draw-line rgb-template_9" d="M706.5 356.5C715.5 353 723.601 353.981 729 377.5C735.312 405 698.014 596.876 645.041 656.126" stroke="#6685D4" stroke-width="8" stroke-miterlimit="10" stroke-linecap="round" stroke-linejoin="round"/>
</g>
</g>
</g>
</svg>
