<svg width="1366" height="1024" viewBox="0 0 1366 1024" fill="none" xmlns="http://www.w3.org/2000/svg">
<g id="fish">
<g id="step s-multistep-result">
<g id="input">
<g id="Group 6">
<rect id="appear d1" x="1218.5" y="876.5" width="95" height="95" stroke="#999999" stroke-width="5"/>
<path id="draw-line d2" d="M1232 918C1261.2 949.2 1261 959.5 1261 959.5C1261 959.5 1290 886 1312 860" stroke="#0000FF" stroke-opacity="0.1" stroke-width="10" stroke-linecap="round" stroke-linejoin="round"/>
</g>
</g>
<g id="template">
<rect id="Rectangle 6" x="1191" y="849" width="150" height="150" fill="#FF0000" stroke="#00FF00" stroke-width="50"/>
</g>
</g>
<g id="step s-template">
<g id="input_2">
<g id="ref">
<path id="Vector" d="M808.315 501.525C783.352 474.696 728.83 417.345 580.889 411.102C446.799 405.449 294.303 479.378 296.348 541.685C298.393 604.35 456.644 657.925 581.605 661.996C767.624 668.071 960.178 567.144 1012.06 430.17" stroke="#CBD8F1" stroke-width="8" stroke-miterlimit="10" stroke-linecap="round"/>
<path id="Vector_2" d="M1012.06 430.17C1014.21 424.517 1042.23 349.217 1022.33 336.266C1006.35 325.868 961.949 357.295 940.191 396.422C937.092 402.011 904.075 463.179 932.854 499.142C961.991 535.547 1034.79 521.457 1070.72 488.87C1086.87 474.21 1102.55 449.49 1095.66 438.986C1087.96 427.28 1071.06 425.635 1051.11 438.986" stroke="#CBD8F1" stroke-width="8" stroke-miterlimit="10" stroke-linecap="round"/>
<path id="Vector_3" d="M524.5 409C528.72 402.771 598.769 303.585 631.658 317.088C642.24 321.43 637.009 346.271 631.136 360.284C623.629 378.206 612.402 381.69 607.255 378.467C597.241 372.208 610.356 331.347 646.246 325.241C661.519 322.649 684.634 326.225 691.662 342.923C708.23 382.287 675.578 406.742 666.479 403.001C658.826 399.856 657.904 386.031 669.255 369.074C681.853 350.256 712.219 312.697 730.401 326.52C747.737 339.7 729.727 382.307 703.046 428.486" stroke="#CBD8F1" stroke-width="8" stroke-miterlimit="10" stroke-linecap="round"/>
<path id="d" d="M542.715 655.389C542.715 655.389 574.849 638.794 574.698 618.622C574.546 598.45 542.167 582.34 542.167 582.34C542.167 582.34 574.301 565.745 574.15 545.573C573.998 525.401 541.619 509.291 541.619 509.291C541.619 509.291 573.753 492.696 573.602 472.524C573.45 452.352 541.071 436.242 541.071 436.242" stroke="#CBD8F1" stroke-width="8" stroke-linecap="round" stroke-linejoin="round"/>
<path id="d_2" d="M610.972 662.389C610.972 662.389 643.106 645.794 642.955 625.622C642.803 605.45 610.424 589.34 610.424 589.34C610.424 589.34 642.558 572.745 642.406 552.573C642.255 532.401 609.876 516.291 609.876 516.291C609.876 516.291 642.01 499.696 641.858 479.524C641.707 459.352 609.327 443.242 609.327 443.242" stroke="#CBD8F1" stroke-width="8" stroke-linecap="round" stroke-linejoin="round"/>
<path id="d_3" d="M678.972 653.389C678.972 653.389 707.447 638.684 707.313 620.808C707.179 602.933 678.486 588.657 678.486 588.657C678.486 588.657 706.961 573.952 706.827 556.077C706.693 538.202 678 523.925 678 523.925C678 523.925 706.476 509.22 706.342 491.345C706.208 473.47 677.515 459.194 677.515 459.194" stroke="#CBD8F1" stroke-width="8" stroke-linecap="round" stroke-linejoin="round"/>
<path id="Vector 4" d="M366.327 495C366.327 495 377.073 519 390.327 519C403.582 519 414.327 495 414.327 495" stroke="#CBD8F1" stroke-width="8" stroke-linecap="round"/>
<path id="Vector 5" d="M296.327 530.5C296.327 530.5 289.278 509.598 278.827 508.5C271.759 507.758 267.827 514 268.827 520.5C269.825 526.985 281.327 534.5 281.327 534.5C281.327 534.5 271.827 539.5 268.827 547C265.767 554.651 271.59 559.777 279.827 560C288.382 560.231 296.327 543.5 296.327 543.5" stroke="#CBD8F1" stroke-width="8" stroke-linecap="round" stroke-linejoin="round"/>
<path id="Vector 6" d="M603.625 664.343C603.625 664.343 633.508 685.136 652.829 694.601C671.104 703.554 698.755 709.903 705.804 704.59C710.717 700.888 711.539 690.622 698.069 680.728C679.569 667.139 657.861 668.672 657.861 668.672" stroke="#CBD8F1" stroke-width="8" stroke-linecap="round"/>
</g>
<path id="draw-line rgb-template" d="M366.327 495C366.327 495 377.073 519 390.327 519C403.582 519 414.327 495 414.327 495" stroke="#6685D4" stroke-width="8" stroke-linecap="round"/>
</g>
</g>
<g id="step s-template_2">
<g id="input_3">
<g id="ref_2">
<path id="Vector_4" d="M808.315 501.525C783.352 474.696 728.83 417.345 580.889 411.102C446.799 405.449 294.303 479.378 296.348 541.685C298.393 604.35 456.644 657.925 581.605 661.996C767.624 668.071 960.178 567.144 1012.06 430.17" stroke="#CBD8F1" stroke-width="8" stroke-miterlimit="10" stroke-linecap="round"/>
<path id="Vector_5" d="M1012.06 430.17C1014.21 424.517 1042.23 349.217 1022.33 336.266C1006.35 325.868 961.949 357.295 940.191 396.422C937.092 402.011 904.075 463.179 932.854 499.142C961.991 535.547 1034.79 521.457 1070.72 488.87C1086.87 474.21 1102.55 449.49 1095.66 438.986C1087.96 427.28 1071.06 425.635 1051.11 438.986" stroke="#CBD8F1" stroke-width="8" stroke-miterlimit="10" stroke-linecap="round"/>
<path id="Vector_6" d="M524.5 409C528.72 402.771 598.769 303.585 631.658 317.088C642.24 321.43 637.009 346.271 631.136 360.284C623.629 378.206 612.402 381.69 607.255 378.467C597.241 372.208 610.356 331.347 646.246 325.241C661.519 322.649 684.634 326.225 691.662 342.923C708.23 382.287 675.578 406.742 666.479 403.001C658.826 399.856 657.904 386.031 669.255 369.074C681.853 350.256 712.219 312.697 730.401 326.52C747.737 339.7 729.727 382.307 703.046 428.486" stroke="#CBD8F1" stroke-width="8" stroke-miterlimit="10" stroke-linecap="round"/>
<path id="d_4" d="M542.715 655.389C542.715 655.389 574.849 638.794 574.698 618.622C574.546 598.45 542.167 582.34 542.167 582.34C542.167 582.34 574.301 565.745 574.15 545.573C573.998 525.401 541.619 509.291 541.619 509.291C541.619 509.291 573.753 492.696 573.602 472.524C573.45 452.352 541.071 436.242 541.071 436.242" stroke="#CBD8F1" stroke-width="8" stroke-linecap="round" stroke-linejoin="round"/>
<path id="d_5" d="M610.972 662.389C610.972 662.389 643.106 645.794 642.955 625.622C642.803 605.45 610.424 589.34 610.424 589.34C610.424 589.34 642.558 572.745 642.406 552.573C642.255 532.401 609.876 516.291 609.876 516.291C609.876 516.291 642.01 499.696 641.858 479.524C641.707 459.352 609.327 443.242 609.327 443.242" stroke="#CBD8F1" stroke-width="8" stroke-linecap="round" stroke-linejoin="round"/>
<path id="d_6" d="M678.972 653.389C678.972 653.389 707.447 638.684 707.313 620.808C707.179 602.933 678.486 588.657 678.486 588.657C678.486 588.657 706.961 573.952 706.827 556.077C706.693 538.202 678 523.925 678 523.925C678 523.925 706.476 509.22 706.342 491.345C706.208 473.47 677.515 459.194 677.515 459.194" stroke="#CBD8F1" stroke-width="8" stroke-linecap="round" stroke-linejoin="round"/>
<path id="Vector 4_2" d="M366.327 495C366.327 495 377.073 519 390.327 519C403.582 519 414.327 495 414.327 495" stroke="#CBD8F1" stroke-width="8" stroke-linecap="round"/>
<path id="Vector 5_2" d="M296.327 530.5C296.327 530.5 289.278 509.598 278.827 508.5C271.759 507.758 267.827 514 268.827 520.5C269.825 526.985 281.327 534.5 281.327 534.5C281.327 534.5 271.827 539.5 268.827 547C265.767 554.651 271.59 559.777 279.827 560C288.382 560.231 296.327 543.5 296.327 543.5" stroke="#CBD8F1" stroke-width="8" stroke-linecap="round" stroke-linejoin="round"/>
<path id="Vector 6_2" d="M603.625 664.343C603.625 664.343 633.508 685.136 652.829 694.601C671.104 703.554 698.755 709.903 705.804 704.59C710.717 700.888 711.539 690.622 698.069 680.728C679.569 667.139 657.861 668.672 657.861 668.672" stroke="#CBD8F1" stroke-width="8" stroke-linecap="round"/>
</g>
<g id="ref g-template">
<path id="Vector_7" d="M808.315 501.525C783.352 474.696 728.83 417.345 580.889 411.102C446.799 405.449 294.303 479.378 296.348 541.685C298.393 604.35 456.644 657.925 581.605 661.996C767.624 668.071 960.178 567.144 1012.06 430.17" stroke="#CBD8F1" stroke-width="8" stroke-miterlimit="10" stroke-linecap="round"/>
<path id="Vector_8" d="M1012.06 430.17C1014.21 424.517 1042.23 349.217 1022.33 336.266C1006.35 325.868 961.949 357.295 940.191 396.422C937.092 402.011 904.075 463.179 932.854 499.142C961.991 535.547 1034.79 521.457 1070.72 488.87C1086.87 474.21 1102.55 449.49 1095.66 438.986C1087.96 427.28 1071.06 425.635 1051.11 438.986" stroke="#CBD8F1" stroke-width="8" stroke-miterlimit="10" stroke-linecap="round"/>
<path id="Vector_9" d="M524.5 409C528.72 402.771 598.769 303.585 631.658 317.088C642.24 321.43 637.009 346.271 631.136 360.284C623.629 378.206 612.402 381.69 607.255 378.467C597.241 372.208 610.356 331.347 646.246 325.241C661.519 322.649 684.634 326.225 691.662 342.923C708.23 382.287 675.578 406.742 666.479 403.001C658.826 399.856 657.904 386.031 669.255 369.074C681.853 350.256 712.219 312.697 730.401 326.52C747.737 339.7 729.727 382.307 703.046 428.486" stroke="#CBD8F1" stroke-width="8" stroke-miterlimit="10" stroke-linecap="round"/>
<path id="d_7" d="M542.715 655.389C542.715 655.389 574.849 638.794 574.698 618.622C574.546 598.45 542.167 582.34 542.167 582.34C542.167 582.34 574.301 565.745 574.15 545.573C573.998 525.401 541.619 509.291 541.619 509.291C541.619 509.291 573.753 492.696 573.602 472.524C573.45 452.352 541.071 436.242 541.071 436.242" stroke="#CBD8F1" stroke-width="8" stroke-linecap="round" stroke-linejoin="round"/>
<path id="d_8" d="M610.972 662.389C610.972 662.389 643.106 645.794 642.955 625.622C642.803 605.45 610.424 589.34 610.424 589.34C610.424 589.34 642.558 572.745 642.406 552.573C642.255 532.401 609.876 516.291 609.876 516.291C609.876 516.291 642.01 499.696 641.858 479.524C641.707 459.352 609.327 443.242 609.327 443.242" stroke="#CBD8F1" stroke-width="8" stroke-linecap="round" stroke-linejoin="round"/>
<path id="d_9" d="M678.972 653.389C678.972 653.389 707.447 638.684 707.313 620.808C707.179 602.933 678.486 588.657 678.486 588.657C678.486 588.657 706.961 573.952 706.827 556.077C706.693 538.202 678 523.925 678 523.925C678 523.925 706.476 509.22 706.342 491.345C706.208 473.47 677.515 459.194 677.515 459.194" stroke="#CBD8F1" stroke-width="8" stroke-linecap="round" stroke-linejoin="round"/>
<path id="Vector 5_3" d="M296.327 530.5C296.327 530.5 289.278 509.598 278.827 508.5C271.759 507.758 267.827 514 268.827 520.5C269.825 526.985 281.327 534.5 281.327 534.5C281.327 534.5 271.827 539.5 268.827 547C265.767 554.651 271.59 559.777 279.827 560C288.382 560.231 296.327 543.5 296.327 543.5" stroke="#CBD8F1" stroke-width="8" stroke-linecap="round" stroke-linejoin="round"/>
<path id="Vector 6_3" d="M603.625 664.343C603.625 664.343 633.508 685.136 652.829 694.601C671.104 703.554 698.755 709.903 705.804 704.59C710.717 700.888 711.539 690.622 698.069 680.728C679.569 667.139 657.861 668.672 657.861 668.672" stroke="#CBD8F1" stroke-width="8" stroke-linecap="round"/>
</g>
<path id="draw-line rgb-template_2" d="M296.327 530.5C296.327 530.5 289.278 509.598 278.827 508.5C271.759 507.758 267.827 514 268.827 520.5C269.825 526.985 281.327 534.5 281.327 534.5C281.327 534.5 271.827 539.5 268.827 547C265.767 554.651 271.59 559.777 279.827 560C288.382 560.231 296.327 543.5 296.327 543.5" stroke="#6685D4" stroke-width="8" stroke-linecap="round" stroke-linejoin="round"/>
</g>
</g>
<g id="step s-template_3">
<g id="input_4">
<g id="ref_3">
<path id="Vector_10" d="M808.315 501.525C783.352 474.696 728.83 417.345 580.889 411.102C446.799 405.449 294.303 479.378 296.348 541.685C298.393 604.35 456.644 657.925 581.605 661.996C767.624 668.071 960.178 567.144 1012.06 430.17" stroke="#CBD8F1" stroke-width="8" stroke-miterlimit="10" stroke-linecap="round"/>
<path id="Vector_11" d="M1012.06 430.17C1014.21 424.517 1042.23 349.217 1022.33 336.266C1006.35 325.868 961.949 357.295 940.191 396.422C937.092 402.011 904.075 463.179 932.854 499.142C961.991 535.547 1034.79 521.457 1070.72 488.87C1086.87 474.21 1102.55 449.49 1095.66 438.986C1087.96 427.28 1071.06 425.635 1051.11 438.986" stroke="#CBD8F1" stroke-width="8" stroke-miterlimit="10" stroke-linecap="round"/>
<path id="Vector_12" d="M524.5 409C528.72 402.771 598.769 303.585 631.658 317.088C642.24 321.43 637.009 346.271 631.136 360.284C623.629 378.206 612.402 381.69 607.255 378.467C597.241 372.208 610.356 331.347 646.246 325.241C661.519 322.649 684.634 326.225 691.662 342.923C708.23 382.287 675.578 406.742 666.479 403.001C658.826 399.856 657.904 386.031 669.255 369.074C681.853 350.256 712.219 312.697 730.401 326.52C747.737 339.7 729.727 382.307 703.046 428.486" stroke="#CBD8F1" stroke-width="8" stroke-miterlimit="10" stroke-linecap="round"/>
<path id="d_10" d="M542.715 655.389C542.715 655.389 574.849 638.794 574.698 618.622C574.546 598.45 542.167 582.34 542.167 582.34C542.167 582.34 574.301 565.745 574.15 545.573C573.998 525.401 541.619 509.291 541.619 509.291C541.619 509.291 573.753 492.696 573.602 472.524C573.45 452.352 541.071 436.242 541.071 436.242" stroke="#CBD8F1" stroke-width="8" stroke-linecap="round" stroke-linejoin="round"/>
<path id="d_11" d="M610.972 662.389C610.972 662.389 643.106 645.794 642.955 625.622C642.803 605.45 610.424 589.34 610.424 589.34C610.424 589.34 642.558 572.745 642.406 552.573C642.255 532.401 609.876 516.291 609.876 516.291C609.876 516.291 642.01 499.696 641.858 479.524C641.707 459.352 609.327 443.242 609.327 443.242" stroke="#CBD8F1" stroke-width="8" stroke-linecap="round" stroke-linejoin="round"/>
<path id="d_12" d="M678.972 653.389C678.972 653.389 707.447 638.684 707.313 620.808C707.179 602.933 678.486 588.657 678.486 588.657C678.486 588.657 706.961 573.952 706.827 556.077C706.693 538.202 678 523.925 678 523.925C678 523.925 706.476 509.22 706.342 491.345C706.208 473.47 677.515 459.194 677.515 459.194" stroke="#CBD8F1" stroke-width="8" stroke-linecap="round" stroke-linejoin="round"/>
<path id="Vector 4_3" d="M366.327 495C366.327 495 377.073 519 390.327 519C403.582 519 414.327 495 414.327 495" stroke="#CBD8F1" stroke-width="8" stroke-linecap="round"/>
<path id="Vector 5_4" d="M296.327 530.5C296.327 530.5 289.278 509.598 278.827 508.5C271.759 507.758 267.827 514 268.827 520.5C269.825 526.985 281.327 534.5 281.327 534.5C281.327 534.5 271.827 539.5 268.827 547C265.767 554.651 271.59 559.777 279.827 560C288.382 560.231 296.327 543.5 296.327 543.5" stroke="#CBD8F1" stroke-width="8" stroke-linecap="round" stroke-linejoin="round"/>
<path id="Vector 6_4" d="M603.625 664.343C603.625 664.343 633.508 685.136 652.829 694.601C671.104 703.554 698.755 709.903 705.804 704.59C710.717 700.888 711.539 690.622 698.069 680.728C679.569 667.139 657.861 668.672 657.861 668.672" stroke="#CBD8F1" stroke-width="8" stroke-linecap="round"/>
</g>
<g id="ref g-template_2">
<path id="Vector_13" d="M808.315 501.525C783.352 474.696 728.83 417.345 580.889 411.102C446.799 405.449 294.303 479.378 296.348 541.685C298.393 604.35 456.644 657.925 581.605 661.996C767.624 668.071 960.178 567.144 1012.06 430.17" stroke="#CBD8F1" stroke-width="8" stroke-miterlimit="10" stroke-linecap="round"/>
<path id="Vector_14" d="M1012.06 430.17C1014.21 424.517 1042.23 349.217 1022.33 336.266C1006.35 325.868 961.949 357.295 940.191 396.422C937.092 402.011 904.075 463.179 932.854 499.142C961.991 535.547 1034.79 521.457 1070.72 488.87C1086.87 474.21 1102.55 449.49 1095.66 438.986C1087.96 427.28 1071.06 425.635 1051.11 438.986" stroke="#CBD8F1" stroke-width="8" stroke-miterlimit="10" stroke-linecap="round"/>
<path id="Vector_15" d="M524.5 409C528.72 402.771 598.769 303.585 631.658 317.088C642.24 321.43 637.009 346.271 631.136 360.284C623.629 378.206 612.402 381.69 607.255 378.467C597.241 372.208 610.356 331.347 646.246 325.241C661.519 322.649 684.634 326.225 691.662 342.923C708.23 382.287 675.578 406.742 666.479 403.001C658.826 399.856 657.904 386.031 669.255 369.074C681.853 350.256 712.219 312.697 730.401 326.52C747.737 339.7 729.727 382.307 703.046 428.486" stroke="#CBD8F1" stroke-width="8" stroke-miterlimit="10" stroke-linecap="round"/>
<path id="d_13" d="M542.715 655.389C542.715 655.389 574.849 638.794 574.698 618.622C574.546 598.45 542.167 582.34 542.167 582.34C542.167 582.34 574.301 565.745 574.15 545.573C573.998 525.401 541.619 509.291 541.619 509.291C541.619 509.291 573.753 492.696 573.602 472.524C573.45 452.352 541.071 436.242 541.071 436.242" stroke="#CBD8F1" stroke-width="8" stroke-linecap="round" stroke-linejoin="round"/>
<path id="d_14" d="M610.972 662.389C610.972 662.389 643.106 645.794 642.955 625.622C642.803 605.45 610.424 589.34 610.424 589.34C610.424 589.34 642.558 572.745 642.406 552.573C642.255 532.401 609.876 516.291 609.876 516.291C609.876 516.291 642.01 499.696 641.858 479.524C641.707 459.352 609.327 443.242 609.327 443.242" stroke="#CBD8F1" stroke-width="8" stroke-linecap="round" stroke-linejoin="round"/>
<path id="d_15" d="M678.972 653.389C678.972 653.389 707.447 638.684 707.313 620.808C707.179 602.933 678.486 588.657 678.486 588.657C678.486 588.657 706.961 573.952 706.827 556.077C706.693 538.202 678 523.925 678 523.925C678 523.925 706.476 509.22 706.342 491.345C706.208 473.47 677.515 459.194 677.515 459.194" stroke="#CBD8F1" stroke-width="8" stroke-linecap="round" stroke-linejoin="round"/>
<path id="Vector 6_5" d="M603.625 664.343C603.625 664.343 633.508 685.136 652.829 694.601C671.104 703.554 698.755 709.903 705.804 704.59C710.717 700.888 711.539 690.622 698.069 680.728C679.569 667.139 657.861 668.672 657.861 668.672" stroke="#CBD8F1" stroke-width="8" stroke-linecap="round"/>
</g>
<path id="draw-line rgb-template_3" d="M603.625 664.343C603.625 664.343 633.508 685.136 652.829 694.601C671.104 703.554 698.755 709.903 705.804 704.59C710.717 700.888 711.539 690.622 698.069 680.728C679.569 667.139 657.861 668.672 657.861 668.672" stroke="#6685D4" stroke-width="8" stroke-linecap="round"/>
</g>
</g>
<g id="step s-multistep">
<g id="input flip">
<g id="ref_4">
<path id="Vector_16" d="M808.315 501.525C783.352 474.696 728.83 417.345 580.889 411.102C446.799 405.449 294.303 479.378 296.348 541.685C298.393 604.35 456.644 657.925 581.605 661.996C767.624 668.071 960.178 567.144 1012.06 430.17" stroke="#CBD8F1" stroke-width="8" stroke-miterlimit="10" stroke-linecap="round"/>
<path id="Vector_17" d="M1012.06 430.17C1014.21 424.517 1042.23 349.217 1022.33 336.266C1006.35 325.868 961.949 357.295 940.191 396.422C937.092 402.011 904.075 463.179 932.854 499.142C961.991 535.547 1034.79 521.457 1070.72 488.87C1086.87 474.21 1102.55 449.49 1095.66 438.986C1087.96 427.28 1071.06 425.635 1051.11 438.986" stroke="#CBD8F1" stroke-width="8" stroke-miterlimit="10" stroke-linecap="round"/>
<path id="Vector_18" d="M524.5 409C528.72 402.771 598.769 303.585 631.658 317.088C642.24 321.43 637.009 346.271 631.136 360.284C623.629 378.206 612.402 381.69 607.255 378.467C597.241 372.208 610.356 331.347 646.246 325.241C661.519 322.649 684.634 326.225 691.662 342.923C708.23 382.287 675.578 406.742 666.479 403.001C658.826 399.856 657.904 386.031 669.255 369.074C681.853 350.256 712.219 312.697 730.401 326.52C747.737 339.7 729.727 382.307 703.046 428.486" stroke="#CBD8F1" stroke-width="8" stroke-miterlimit="10" stroke-linecap="round"/>
<path id="d_16" d="M542.715 655.389C542.715 655.389 574.849 638.794 574.698 618.622C574.546 598.45 542.167 582.34 542.167 582.34C542.167 582.34 574.301 565.745 574.15 545.573C573.998 525.401 541.619 509.291 541.619 509.291C541.619 509.291 573.753 492.696 573.602 472.524C573.45 452.352 541.071 436.242 541.071 436.242" stroke="#CBD8F1" stroke-width="8" stroke-linecap="round" stroke-linejoin="round"/>
<path id="d_17" d="M610.972 662.389C610.972 662.389 643.106 645.794 642.955 625.622C642.803 605.45 610.424 589.34 610.424 589.34C610.424 589.34 642.558 572.745 642.406 552.573C642.255 532.401 609.876 516.291 609.876 516.291C609.876 516.291 642.01 499.696 641.858 479.524C641.707 459.352 609.327 443.242 609.327 443.242" stroke="#CBD8F1" stroke-width="8" stroke-linecap="round" stroke-linejoin="round"/>
<path id="d_18" d="M678.972 653.389C678.972 653.389 707.447 638.684 707.313 620.808C707.179 602.933 678.486 588.657 678.486 588.657C678.486 588.657 706.961 573.952 706.827 556.077C706.693 538.202 678 523.925 678 523.925C678 523.925 706.476 509.22 706.342 491.345C706.208 473.47 677.515 459.194 677.515 459.194" stroke="#CBD8F1" stroke-width="8" stroke-linecap="round" stroke-linejoin="round"/>
<path id="Vector 4_4" d="M366.327 495C366.327 495 377.073 519 390.327 519C403.582 519 414.327 495 414.327 495" stroke="#CBD8F1" stroke-width="8" stroke-linecap="round"/>
<path id="Vector 5_5" d="M296.327 530.5C296.327 530.5 289.278 509.598 278.827 508.5C271.759 507.758 267.827 514 268.827 520.5C269.825 526.985 281.327 534.5 281.327 534.5C281.327 534.5 271.827 539.5 268.827 547C265.767 554.651 271.59 559.777 279.827 560C288.382 560.231 296.327 543.5 296.327 543.5" stroke="#CBD8F1" stroke-width="8" stroke-linecap="round" stroke-linejoin="round"/>
<path id="Vector 6_6" d="M603.625 664.343C603.625 664.343 633.508 685.136 652.829 694.601C671.104 703.554 698.755 709.903 705.804 704.59C710.717 700.888 711.539 690.622 698.069 680.728C679.569 667.139 657.861 668.672 657.861 668.672" stroke="#CBD8F1" stroke-width="8" stroke-linecap="round"/>
</g>
<g id="ref g-template_3">
<path id="Vector_19" d="M808.315 501.525C783.352 474.696 728.83 417.345 580.889 411.102C446.799 405.449 294.303 479.378 296.348 541.685C298.393 604.35 456.644 657.925 581.605 661.996C767.624 668.071 960.178 567.144 1012.06 430.17" stroke="#CBD8F1" stroke-width="8" stroke-miterlimit="10" stroke-linecap="round"/>
<path id="Vector_20" d="M1012.06 430.17C1014.21 424.517 1042.23 349.217 1022.33 336.266C1006.35 325.868 961.949 357.295 940.191 396.422C937.092 402.011 904.075 463.179 932.854 499.142C961.991 535.547 1034.79 521.457 1070.72 488.87C1086.87 474.21 1102.55 449.49 1095.66 438.986C1087.96 427.28 1071.06 425.635 1051.11 438.986" stroke="#CBD8F1" stroke-width="8" stroke-miterlimit="10" stroke-linecap="round"/>
<path id="Vector_21" d="M524.5 409C528.72 402.771 598.769 303.585 631.658 317.088C642.24 321.43 637.009 346.271 631.136 360.284C623.629 378.206 612.402 381.69 607.255 378.467C597.241 372.208 610.356 331.347 646.246 325.241C661.519 322.649 684.634 326.225 691.662 342.923C708.23 382.287 675.578 406.742 666.479 403.001C658.826 399.856 657.904 386.031 669.255 369.074C681.853 350.256 712.219 312.697 730.401 326.52C747.737 339.7 729.727 382.307 703.046 428.486" stroke="#CBD8F1" stroke-width="8" stroke-miterlimit="10" stroke-linecap="round"/>
<path id="d_19" d="M542.715 655.389C542.715 655.389 574.849 638.794 574.698 618.622C574.546 598.45 542.167 582.34 542.167 582.34C542.167 582.34 574.301 565.745 574.15 545.573C573.998 525.401 541.619 509.291 541.619 509.291C541.619 509.291 573.753 492.696 573.602 472.524C573.45 452.352 541.071 436.242 541.071 436.242" stroke="#CBD8F1" stroke-width="8" stroke-linecap="round" stroke-linejoin="round"/>
<path id="d_20" d="M610.972 662.389C610.972 662.389 643.106 645.794 642.955 625.622C642.803 605.45 610.424 589.34 610.424 589.34C610.424 589.34 642.558 572.745 642.406 552.573C642.255 532.401 609.876 516.291 609.876 516.291C609.876 516.291 642.01 499.696 641.858 479.524C641.707 459.352 609.327 443.242 609.327 443.242" stroke="#CBD8F1" stroke-width="8" stroke-linecap="round" stroke-linejoin="round"/>
<path id="d_21" d="M678.972 653.389C678.972 653.389 707.447 638.684 707.313 620.808C707.179 602.933 678.486 588.657 678.486 588.657C678.486 588.657 706.961 573.952 706.827 556.077C706.693 538.202 678 523.925 678 523.925C678 523.925 706.476 509.22 706.342 491.345C706.208 473.47 677.515 459.194 677.515 459.194" stroke="#CBD8F1" stroke-width="8" stroke-linecap="round" stroke-linejoin="round"/>
</g>
<path id="draw-line d2 rgb-template" d="M678.972 653.389C678.972 653.389 707.447 638.684 707.313 620.808C707.179 602.933 678.486 588.657 678.486 588.657C678.486 588.657 706.961 573.952 706.827 556.077C706.693 538.202 678 523.925 678 523.925C678 523.925 706.476 509.22 706.342 491.345C706.208 473.47 677.515 459.194 677.515 459.194" stroke="#6685D4" stroke-width="8" stroke-linecap="round" stroke-linejoin="round"/>
<path id="draw-line d1 rgb-tempalte" d="M610.972 662.389C610.972 662.389 643.106 645.794 642.955 625.622C642.803 605.45 610.424 589.34 610.424 589.34C610.424 589.34 642.558 572.745 642.406 552.573C642.255 532.401 609.876 516.291 609.876 516.291C609.876 516.291 642.01 499.696 641.858 479.524C641.707 459.352 609.327 443.242 609.327 443.242" stroke="#6685D4" stroke-width="8" stroke-linecap="round" stroke-linejoin="round"/>
<path id="draw-line rgb-template_4" d="M542.715 655.389C542.715 655.389 574.849 638.794 574.698 618.622C574.546 598.45 542.167 582.34 542.167 582.34C542.167 582.34 574.301 565.745 574.15 545.573C573.998 525.401 541.619 509.291 541.619 509.291C541.619 509.291 573.753 492.696 573.602 472.524C573.45 452.352 541.071 436.242 541.071 436.242" stroke="#6685D4" stroke-width="8" stroke-linecap="round" stroke-linejoin="round"/>
</g>
</g>
<g id="step s-multistep_2">
<g id="input ">
<g id="ref_5">
<path id="Vector_22" d="M808.315 501.525C783.352 474.696 728.83 417.345 580.889 411.102C446.799 405.449 294.303 479.378 296.348 541.685C298.393 604.35 456.644 657.925 581.605 661.996C767.624 668.071 960.178 567.144 1012.06 430.17" stroke="#CBD8F1" stroke-width="8" stroke-miterlimit="10" stroke-linecap="round"/>
<path id="Vector_23" d="M1012.06 430.17C1014.21 424.517 1042.23 349.217 1022.33 336.266C1006.35 325.868 961.949 357.295 940.191 396.422C937.092 402.011 904.075 463.179 932.854 499.142C961.991 535.547 1034.79 521.457 1070.72 488.87C1086.87 474.21 1102.55 449.49 1095.66 438.986C1087.96 427.28 1071.06 425.635 1051.11 438.986" stroke="#CBD8F1" stroke-width="8" stroke-miterlimit="10" stroke-linecap="round"/>
<path id="Vector_24" d="M524.5 409C528.72 402.771 598.769 303.585 631.658 317.088C642.24 321.43 637.009 346.271 631.136 360.284C623.629 378.206 612.402 381.69 607.255 378.467C597.241 372.208 610.356 331.347 646.246 325.241C661.519 322.649 684.634 326.225 691.662 342.923C708.23 382.287 675.578 406.742 666.479 403.001C658.826 399.856 657.904 386.031 669.255 369.074C681.853 350.256 712.219 312.697 730.401 326.52C747.737 339.7 729.727 382.307 703.046 428.486" stroke="#CBD8F1" stroke-width="8" stroke-miterlimit="10" stroke-linecap="round"/>
<path id="d_22" d="M542.715 655.389C542.715 655.389 574.849 638.794 574.698 618.622C574.546 598.45 542.167 582.34 542.167 582.34C542.167 582.34 574.301 565.745 574.15 545.573C573.998 525.401 541.619 509.291 541.619 509.291C541.619 509.291 573.753 492.696 573.602 472.524C573.45 452.352 541.071 436.242 541.071 436.242" stroke="#CBD8F1" stroke-width="8" stroke-linecap="round" stroke-linejoin="round"/>
<path id="d_23" d="M610.972 662.389C610.972 662.389 643.106 645.794 642.955 625.622C642.803 605.45 610.424 589.34 610.424 589.34C610.424 589.34 642.558 572.745 642.406 552.573C642.255 532.401 609.876 516.291 609.876 516.291C609.876 516.291 642.01 499.696 641.858 479.524C641.707 459.352 609.327 443.242 609.327 443.242" stroke="#CBD8F1" stroke-width="8" stroke-linecap="round" stroke-linejoin="round"/>
<path id="d_24" d="M678.972 653.389C678.972 653.389 707.447 638.684 707.313 620.808C707.179 602.933 678.486 588.657 678.486 588.657C678.486 588.657 706.961 573.952 706.827 556.077C706.693 538.202 678 523.925 678 523.925C678 523.925 706.476 509.22 706.342 491.345C706.208 473.47 677.515 459.194 677.515 459.194" stroke="#CBD8F1" stroke-width="8" stroke-linecap="round" stroke-linejoin="round"/>
<path id="Vector 4_5" d="M366.327 495C366.327 495 377.073 519 390.327 519C403.582 519 414.327 495 414.327 495" stroke="#CBD8F1" stroke-width="8" stroke-linecap="round"/>
<path id="Vector 5_6" d="M296.327 530.5C296.327 530.5 289.278 509.598 278.827 508.5C271.759 507.758 267.827 514 268.827 520.5C269.825 526.985 281.327 534.5 281.327 534.5C281.327 534.5 271.827 539.5 268.827 547C265.767 554.651 271.59 559.777 279.827 560C288.382 560.231 296.327 543.5 296.327 543.5" stroke="#CBD8F1" stroke-width="8" stroke-linecap="round" stroke-linejoin="round"/>
<path id="Vector 6_7" d="M603.625 664.343C603.625 664.343 633.508 685.136 652.829 694.601C671.104 703.554 698.755 709.903 705.804 704.59C710.717 700.888 711.539 690.622 698.069 680.728C679.569 667.139 657.861 668.672 657.861 668.672" stroke="#CBD8F1" stroke-width="8" stroke-linecap="round"/>
</g>
<g id="ref g-template_4">
<path id="Vector_25" d="M808.315 501.525C783.352 474.696 728.83 417.345 580.889 411.102C446.799 405.449 294.303 479.378 296.348 541.685C298.393 604.35 456.644 657.925 581.605 661.996C767.624 668.071 960.178 567.144 1012.06 430.17" stroke="#CBD8F1" stroke-width="8" stroke-miterlimit="10" stroke-linecap="round"/>
<path id="Vector_26" d="M1012.06 430.17C1014.21 424.517 1042.23 349.217 1022.33 336.266C1006.35 325.868 961.949 357.295 940.191 396.422C937.092 402.011 904.075 463.179 932.854 499.142C961.991 535.547 1034.79 521.457 1070.72 488.87C1086.87 474.21 1102.55 449.49 1095.66 438.986C1087.96 427.28 1071.06 425.635 1051.11 438.986" stroke="#CBD8F1" stroke-width="8" stroke-miterlimit="10" stroke-linecap="round"/>
<path id="Vector_27" d="M524.5 409C528.72 402.771 598.769 303.585 631.658 317.088C642.24 321.43 637.009 346.271 631.136 360.284C623.629 378.206 612.402 381.69 607.255 378.467C597.241 372.208 610.356 331.347 646.246 325.241C661.519 322.649 684.634 326.225 691.662 342.923C708.23 382.287 675.578 406.742 666.479 403.001C658.826 399.856 657.904 386.031 669.255 369.074C681.853 350.256 712.219 312.697 730.401 326.52C747.737 339.7 729.727 382.307 703.046 428.486" stroke="#CBD8F1" stroke-width="8" stroke-miterlimit="10" stroke-linecap="round"/>
</g>
<path id="draw-line rgb-template_5" d="M524.5 409C528.72 402.771 598.769 303.585 631.658 317.088C642.24 321.43 637.009 346.271 631.136 360.284C623.629 378.206 612.402 381.69 607.255 378.467C597.241 372.208 610.356 331.347 646.246 325.241C661.519 322.649 684.634 326.225 691.662 342.923C708.23 382.287 675.578 406.742 666.479 403.001C658.826 399.856 657.904 386.031 669.255 369.074C681.853 350.256 712.219 312.697 730.401 326.52C747.737 339.7 729.727 382.307 703.046 428.486" stroke="#6685D4" stroke-width="8" stroke-miterlimit="10" stroke-linecap="round"/>
</g>
</g>
<g id="step s-multistep_3">
<g id="input_5">
<g id="ref_6">
<path id="Vector_28" d="M808.315 501.525C783.352 474.696 728.83 417.345 580.889 411.102C446.799 405.449 294.303 479.378 296.348 541.685C298.393 604.35 456.644 657.925 581.605 661.996C767.624 668.071 960.178 567.144 1012.06 430.17" stroke="#CBD8F1" stroke-width="8" stroke-miterlimit="10" stroke-linecap="round"/>
<path id="Vector_29" d="M1012.06 430.17C1014.21 424.517 1042.23 349.217 1022.33 336.266C1006.35 325.868 961.949 357.295 940.191 396.422C937.092 402.011 904.075 463.179 932.854 499.142C961.991 535.547 1034.79 521.457 1070.72 488.87C1086.87 474.21 1102.55 449.49 1095.66 438.986C1087.96 427.28 1071.06 425.635 1051.11 438.986" stroke="#CBD8F1" stroke-width="8" stroke-miterlimit="10" stroke-linecap="round"/>
<path id="Vector_30" d="M524.5 409C528.72 402.771 598.769 303.585 631.658 317.088C642.24 321.43 637.009 346.271 631.136 360.284C623.629 378.206 612.402 381.69 607.255 378.467C597.241 372.208 610.356 331.347 646.246 325.241C661.519 322.649 684.634 326.225 691.662 342.923C708.23 382.287 675.578 406.742 666.479 403.001C658.826 399.856 657.904 386.031 669.255 369.074C681.853 350.256 712.219 312.697 730.401 326.52C747.737 339.7 729.727 382.307 703.046 428.486" stroke="#CBD8F1" stroke-width="8" stroke-miterlimit="10" stroke-linecap="round"/>
<path id="c" d="M542.715 655.389C542.715 655.389 574.849 638.794 574.698 618.622C574.546 598.45 542.167 582.34 542.167 582.34C542.167 582.34 574.301 565.745 574.15 545.573C573.998 525.401 541.619 509.291 541.619 509.291C541.619 509.291 573.753 492.696 573.602 472.524C573.45 452.352 541.071 436.242 541.071 436.242" stroke="#CBD8F1" stroke-width="8" stroke-linecap="round" stroke-linejoin="round"/>
<path id="c_2" d="M610.972 662.389C610.972 662.389 643.106 645.794 642.955 625.622C642.803 605.45 610.424 589.34 610.424 589.34C610.424 589.34 642.558 572.745 642.406 552.573C642.255 532.401 609.876 516.291 609.876 516.291C609.876 516.291 642.01 499.696 641.858 479.524C641.707 459.352 609.327 443.242 609.327 443.242" stroke="#CBD8F1" stroke-width="8" stroke-linecap="round" stroke-linejoin="round"/>
<path id="c_3" d="M678.972 653.389C678.972 653.389 707.447 638.684 707.313 620.808C707.179 602.933 678.486 588.657 678.486 588.657C678.486 588.657 706.961 573.952 706.827 556.077C706.693 538.202 678 523.925 678 523.925C678 523.925 706.476 509.22 706.342 491.345C706.208 473.47 677.515 459.194 677.515 459.194" stroke="#CBD8F1" stroke-width="8" stroke-linecap="round" stroke-linejoin="round"/>
<path id="Vector 4_6" d="M366.327 495C366.327 495 377.073 519 390.327 519C403.582 519 414.327 495 414.327 495" stroke="#CBD8F1" stroke-width="8" stroke-linecap="round"/>
<path id="Vector 5_7" d="M296.327 530.5C296.327 530.5 289.278 509.598 278.827 508.5C271.759 507.758 267.827 514 268.827 520.5C269.825 526.985 281.327 534.5 281.327 534.5C281.327 534.5 271.827 539.5 268.827 547C265.767 554.651 271.59 559.777 279.827 560C288.382 560.231 296.327 543.5 296.327 543.5" stroke="#CBD8F1" stroke-width="8" stroke-linecap="round" stroke-linejoin="round"/>
<path id="Vector 6_8" d="M603.625 664.343C603.625 664.343 633.508 685.136 652.829 694.601C671.104 703.554 698.755 709.903 705.804 704.59C710.717 700.888 711.539 690.622 698.069 680.728C679.569 667.139 657.861 668.672 657.861 668.672" stroke="#CBD8F1" stroke-width="8" stroke-linecap="round"/>
</g>
<g id="ref g-template_5">
<path id="Vector_31" d="M808.315 501.525C783.352 474.696 728.83 417.345 580.889 411.102C446.799 405.449 294.303 479.378 296.348 541.685C298.393 604.35 456.644 657.925 581.605 661.996C767.624 668.071 960.178 567.144 1012.06 430.17" stroke="#CBD8F1" stroke-width="8" stroke-miterlimit="10" stroke-linecap="round"/>
<path id="Vector_32" d="M1012.06 430.17C1014.21 424.517 1042.23 349.217 1022.33 336.266C1006.35 325.868 961.949 357.295 940.191 396.422C937.092 402.011 904.075 463.179 932.854 499.142C961.991 535.547 1034.79 521.457 1070.72 488.87C1086.87 474.21 1102.55 449.49 1095.66 438.986C1087.96 427.28 1071.06 425.635 1051.11 438.986" stroke="#CBD8F1" stroke-width="8" stroke-miterlimit="10" stroke-linecap="round"/>
</g>
<path id="draw-line rgb-template_6" d="M1012.06 430.17C1014.21 424.517 1042.23 349.217 1022.33 336.266C1006.35 325.868 961.949 357.295 940.191 396.422C937.092 402.011 904.075 463.179 932.854 499.142C961.991 535.547 1034.79 521.457 1070.72 488.87C1086.87 474.21 1102.55 449.49 1095.66 438.986C1087.96 427.28 1071.06 425.635 1051.11 438.986" stroke="#6685D4" stroke-width="8" stroke-miterlimit="10" stroke-linecap="round"/>
</g>
</g>
<g id="step s-multistep_4">
<g id="input_6">
<g id="ref_7">
<path id="Vector_33" d="M808.315 501.525C783.352 474.696 728.83 417.345 580.889 411.102C446.799 405.449 294.303 479.378 296.348 541.685C298.393 604.35 456.644 657.925 581.605 661.996C767.624 668.071 960.178 567.144 1012.06 430.17" stroke="#CBD8F1" stroke-width="8" stroke-miterlimit="10" stroke-linecap="round"/>
<path id="Vector_34" d="M1012.06 430.17C1014.21 424.517 1042.23 349.217 1022.33 336.266C1006.35 325.868 961.949 357.295 940.191 396.422C937.092 402.011 904.075 463.179 932.854 499.142C961.991 535.547 1034.79 521.457 1070.72 488.87C1086.87 474.21 1102.55 449.49 1095.66 438.986C1087.96 427.28 1071.06 425.635 1051.11 438.986" stroke="#CBD8F1" stroke-width="8" stroke-miterlimit="10" stroke-linecap="round"/>
<path id="Vector_35" d="M524.5 409C528.72 402.771 598.769 303.585 631.658 317.088C642.24 321.43 637.009 346.271 631.136 360.284C623.629 378.206 612.402 381.69 607.255 378.467C597.241 372.208 610.356 331.347 646.246 325.241C661.519 322.649 684.634 326.225 691.662 342.923C708.23 382.287 675.578 406.742 666.479 403.001C658.826 399.856 657.904 386.031 669.255 369.074C681.853 350.256 712.219 312.697 730.401 326.52C747.737 339.7 729.727 382.307 703.046 428.486" stroke="#CBD8F1" stroke-width="8" stroke-miterlimit="10" stroke-linecap="round"/>
<path id="c_4" d="M542.715 655.389C542.715 655.389 574.849 638.794 574.698 618.622C574.546 598.45 542.167 582.34 542.167 582.34C542.167 582.34 574.301 565.745 574.15 545.573C573.998 525.401 541.619 509.291 541.619 509.291C541.619 509.291 573.753 492.696 573.602 472.524C573.45 452.352 541.071 436.242 541.071 436.242" stroke="#CBD8F1" stroke-width="8" stroke-linecap="round" stroke-linejoin="round"/>
<path id="c_5" d="M610.972 662.389C610.972 662.389 643.106 645.794 642.955 625.622C642.803 605.45 610.424 589.34 610.424 589.34C610.424 589.34 642.558 572.745 642.406 552.573C642.255 532.401 609.876 516.291 609.876 516.291C609.876 516.291 642.01 499.696 641.858 479.524C641.707 459.352 609.327 443.242 609.327 443.242" stroke="#CBD8F1" stroke-width="8" stroke-linecap="round" stroke-linejoin="round"/>
<path id="c_6" d="M678.972 653.389C678.972 653.389 707.447 638.684 707.313 620.808C707.179 602.933 678.486 588.657 678.486 588.657C678.486 588.657 706.961 573.952 706.827 556.077C706.693 538.202 678 523.925 678 523.925C678 523.925 706.476 509.22 706.342 491.345C706.208 473.47 677.515 459.194 677.515 459.194" stroke="#CBD8F1" stroke-width="8" stroke-linecap="round" stroke-linejoin="round"/>
<path id="Vector 4_7" d="M366.327 495C366.327 495 377.073 519 390.327 519C403.582 519 414.327 495 414.327 495" stroke="#CBD8F1" stroke-width="8" stroke-linecap="round"/>
<path id="Vector 5_8" d="M296.327 530.5C296.327 530.5 289.278 509.598 278.827 508.5C271.759 507.758 267.827 514 268.827 520.5C269.825 526.985 281.327 534.5 281.327 534.5C281.327 534.5 271.827 539.5 268.827 547C265.767 554.651 271.59 559.777 279.827 560C288.382 560.231 296.327 543.5 296.327 543.5" stroke="#CBD8F1" stroke-width="8" stroke-linecap="round" stroke-linejoin="round"/>
<path id="Vector 6_9" d="M603.625 664.343C603.625 664.343 633.508 685.136 652.829 694.601C671.104 703.554 698.755 709.903 705.804 704.59C710.717 700.888 711.539 690.622 698.069 680.728C679.569 667.139 657.861 668.672 657.861 668.672" stroke="#CBD8F1" stroke-width="8" stroke-linecap="round"/>
</g>
<path id="draw-line rgb-template_7" d="M808.315 501.525C783.352 474.696 728.83 417.345 580.889 411.102C446.799 405.449 294.303 479.378 296.348 541.685C298.393 604.35 456.644 657.925 581.605 661.996C767.624 668.071 960.178 567.144 1012.06 430.17" stroke="#6685D4" stroke-width="8" stroke-miterlimit="10" stroke-linecap="round"/>
</g>
</g>
</g>
</svg>
