<svg width="1366" height="1024" viewBox="0 0 1366 1024" fill="none" xmlns="http://www.w3.org/2000/svg">
<g id="house" clip-path="url(#clip0)">
<g id="step s-multistep-result">
<g id="input">
<g id="Group 6">
<rect id="appear d1" x="1219.5" y="878" width="95" height="95" stroke="#999999" stroke-width="5"/>
<path id="draw-line d2" d="M1233 919.5C1262.2 950.7 1262 961 1262 961C1262 961 1291 887.5 1313 861.5" stroke="#0000FF" stroke-opacity="0.1" stroke-width="10" stroke-linecap="round" stroke-linejoin="round"/>
</g>
</g>
<g id="template">
<rect id="Rectangle 6" x="1192" y="850.5" width="150" height="150" fill="#FF0000" stroke="#00FF00" stroke-width="50"/>
</g>
</g>
<g id="step s-multistep-brush">
<g id="input_2">
<g id="ref g-template">
<path id="Vector 1" d="M461.5 352V774.5" stroke="#CBD8F1" stroke-width="8" stroke-linecap="round" stroke-linejoin="round"/>
<path id="Vector 2" d="M461.5 774.5H879" stroke="#CBD8F1" stroke-width="8" stroke-linecap="round" stroke-linejoin="round"/>
<path id="Vector 3" d="M878 774.5V354" stroke="#CBD8F1" stroke-width="8" stroke-linecap="round" stroke-linejoin="round"/>
<path id="Vector 4" d="M962 351.5H379" stroke="#CBD8F1" stroke-width="8" stroke-linecap="round" stroke-linejoin="round"/>
<path id="Vector 26" d="M761 163.5L963 350.5" stroke="#CBD8F1" stroke-width="8" stroke-linecap="round"/>
<path id="Vector 6" d="M578 163.5H761.5" stroke="#CBD8F1" stroke-width="8" stroke-linecap="round" stroke-linejoin="round"/>
<path id="Vector 5" d="M378 350.5L578 163" stroke="#CBD8F1" stroke-width="8" stroke-linecap="round" stroke-linejoin="round"/>
<path id="Vector 10" d="M546.5 433.5H638.5" stroke="#CBD8F1" stroke-width="8" stroke-linecap="round" stroke-linejoin="round"/>
<path id="Vector 11" d="M639.5 433.5V584.5" stroke="#CBD8F1" stroke-width="8" stroke-linecap="round" stroke-linejoin="round"/>
<path id="Vector 12" d="M639.5 585H546.5" stroke="#CBD8F1" stroke-width="8" stroke-linecap="round" stroke-linejoin="round"/>
<path id="Vector 13" d="M545.5 584.5V434" stroke="#CBD8F1" stroke-width="8" stroke-linecap="round" stroke-linejoin="round"/>
<path id="a" d="M701 433H795.5V583.5" stroke="#CBD8F1" stroke-width="8" stroke-linecap="round" stroke-linejoin="round"/>
<path id="a_2" d="M793.5 584H700.5V433" stroke="#CBD8F1" stroke-width="8" stroke-linecap="round" stroke-linejoin="round"/>
<path id="a_3" d="M701 508.5H794.5" stroke="#CBD8F1" stroke-width="8" stroke-linecap="round" stroke-linejoin="round"/>
<path id="a_4" d="M546 509H639" stroke="#CBD8F1" stroke-width="8" stroke-linecap="round" stroke-linejoin="round"/>
<path id="a_5" d="M880 407H899V774" stroke="#CBD8F1" stroke-width="8" stroke-linecap="round" stroke-linejoin="round"/>
<path id="a_6" d="M899.5 731H997V774.5H877.5" stroke="#CBD8F1" stroke-width="8" stroke-linecap="round" stroke-linejoin="round"/>
<path id="a_7" d="M459 637.5H421.282V678.148H385.718V718.797H348V774.5H461.5" stroke="#CBD8F1" stroke-width="8" stroke-linecap="round" stroke-linejoin="round"/>
</g>
<path id="draw-line rgb-template" d="M459 637.5H421.282V678.148H385.718V718.797H348V774.5H461.5" stroke="#6685D4" stroke-width="8" stroke-linecap="round" stroke-linejoin="round"/>
</g>
</g>
<g id="step s-multistep-brush_2">
<g id="input_3">
<g id="ref">
<path id="Vector 1_2" d="M461.5 352V774.5" stroke="#CBD8F1" stroke-width="8" stroke-linecap="round" stroke-linejoin="round"/>
<path id="Vector 2_2" d="M461.5 774.5H879" stroke="#CBD8F1" stroke-width="8" stroke-linecap="round" stroke-linejoin="round"/>
<path id="Vector 3_2" d="M878 774.5V354" stroke="#CBD8F1" stroke-width="8" stroke-linecap="round" stroke-linejoin="round"/>
<path id="Vector 4_2" d="M962 351.5H379" stroke="#CBD8F1" stroke-width="8" stroke-linecap="round" stroke-linejoin="round"/>
<path id="Vector 26_2" d="M761 163.5L963 350.5" stroke="#CBD8F1" stroke-width="8" stroke-linecap="round"/>
<path id="Vector 6_2" d="M578 163.5H761.5" stroke="#CBD8F1" stroke-width="8" stroke-linecap="round" stroke-linejoin="round"/>
<path id="Vector 5_2" d="M378 350.5L578 163" stroke="#CBD8F1" stroke-width="8" stroke-linecap="round" stroke-linejoin="round"/>
<path id="Vector 10_2" d="M546.5 433.5H638.5" stroke="#CBD8F1" stroke-width="8" stroke-linecap="round" stroke-linejoin="round"/>
<path id="Vector 11_2" d="M639.5 433.5V584.5" stroke="#CBD8F1" stroke-width="8" stroke-linecap="round" stroke-linejoin="round"/>
<path id="Vector 12_2" d="M639.5 585H546.5" stroke="#CBD8F1" stroke-width="8" stroke-linecap="round" stroke-linejoin="round"/>
<path id="Vector 13_2" d="M545.5 584.5V434" stroke="#CBD8F1" stroke-width="8" stroke-linecap="round" stroke-linejoin="round"/>
<path id="Vector 14" d="M701 433H795.5V583.5" stroke="#CBD8F1" stroke-width="8" stroke-linecap="round" stroke-linejoin="round"/>
<path id="Vector 15" d="M793.5 584H700.5V433" stroke="#CBD8F1" stroke-width="8" stroke-linecap="round" stroke-linejoin="round"/>
<path id="Vector 18" d="M701 508.5H794.5" stroke="#CBD8F1" stroke-width="8" stroke-linecap="round" stroke-linejoin="round"/>
<path id="Vector 16" d="M546 509H639" stroke="#CBD8F1" stroke-width="8" stroke-linecap="round" stroke-linejoin="round"/>
<path id="Vector 29" d="M880 407H899V774" stroke="#CBD8F1" stroke-width="8" stroke-linecap="round" stroke-linejoin="round"/>
<path id="Vector 30" d="M899.5 731H997V774.5H877.5" stroke="#CBD8F1" stroke-width="8" stroke-linecap="round" stroke-linejoin="round"/>
<path id="Vector 28" d="M459 637.5H421.282V678.148H385.718V718.797H348V774.5H461.5" stroke="#CBD8F1" stroke-width="8" stroke-linecap="round" stroke-linejoin="round"/>
</g>
<g id="ref g-template_2">
<path id="Vector 1_3" d="M461.5 352V774.5" stroke="#CBD8F1" stroke-width="8" stroke-linecap="round" stroke-linejoin="round"/>
<path id="Vector 2_3" d="M461.5 774.5H879" stroke="#CBD8F1" stroke-width="8" stroke-linecap="round" stroke-linejoin="round"/>
<path id="Vector 3_3" d="M878 774.5V354" stroke="#CBD8F1" stroke-width="8" stroke-linecap="round" stroke-linejoin="round"/>
<path id="Vector 4_3" d="M962 351.5H379" stroke="#CBD8F1" stroke-width="8" stroke-linecap="round" stroke-linejoin="round"/>
<path id="Vector 26_3" d="M761 163.5L963 350.5" stroke="#CBD8F1" stroke-width="8" stroke-linecap="round"/>
<path id="Vector 6_3" d="M578 163.5H761.5" stroke="#CBD8F1" stroke-width="8" stroke-linecap="round" stroke-linejoin="round"/>
<path id="Vector 5_3" d="M378 350.5L578 163" stroke="#CBD8F1" stroke-width="8" stroke-linecap="round" stroke-linejoin="round"/>
<path id="Vector 10_3" d="M546.5 433.5H638.5" stroke="#CBD8F1" stroke-width="8" stroke-linecap="round" stroke-linejoin="round"/>
<path id="Vector 11_3" d="M639.5 433.5V584.5" stroke="#CBD8F1" stroke-width="8" stroke-linecap="round" stroke-linejoin="round"/>
<path id="Vector 12_3" d="M639.5 585H546.5" stroke="#CBD8F1" stroke-width="8" stroke-linecap="round" stroke-linejoin="round"/>
<path id="Vector 13_3" d="M545.5 584.5V434" stroke="#CBD8F1" stroke-width="8" stroke-linecap="round" stroke-linejoin="round"/>
<path id="Vector 14_2" d="M701 433H795.5V583.5" stroke="#CBD8F1" stroke-width="8" stroke-linecap="round" stroke-linejoin="round"/>
<path id="Vector 15_2" d="M793.5 584H700.5V433" stroke="#CBD8F1" stroke-width="8" stroke-linecap="round" stroke-linejoin="round"/>
<path id="Vector 18_2" d="M701 508.5H794.5" stroke="#CBD8F1" stroke-width="8" stroke-linecap="round" stroke-linejoin="round"/>
<path id="Vector 16_2" d="M546 509H639" stroke="#CBD8F1" stroke-width="8" stroke-linecap="round" stroke-linejoin="round"/>
<path id="Vector 29_2" d="M880 407H899V774" stroke="#CBD8F1" stroke-width="8" stroke-linecap="round" stroke-linejoin="round"/>
<path id="Vector 30_2" d="M899.5 731H997V774.5H877.5" stroke="#CBD8F1" stroke-width="8" stroke-linecap="round" stroke-linejoin="round"/>
</g>
<path id="draw-line rgb-template_2" d="M899.5 731H997V774.5H877.5" stroke="#6685D4" stroke-width="8" stroke-linecap="round" stroke-linejoin="round"/>
</g>
</g>
<g id="step s-multistep-brush_3">
<g id="input_4">
<g id="ref_2">
<path id="Vector 1_4" d="M461.5 352V774.5" stroke="#CBD8F1" stroke-width="8" stroke-linecap="round" stroke-linejoin="round"/>
<path id="Vector 2_4" d="M461.5 774.5H879" stroke="#CBD8F1" stroke-width="8" stroke-linecap="round" stroke-linejoin="round"/>
<path id="Vector 3_4" d="M878 774.5V354" stroke="#CBD8F1" stroke-width="8" stroke-linecap="round" stroke-linejoin="round"/>
<path id="Vector 4_4" d="M962 351.5H379" stroke="#CBD8F1" stroke-width="8" stroke-linecap="round" stroke-linejoin="round"/>
<path id="Vector 26_4" d="M761 163.5L963 350.5" stroke="#CBD8F1" stroke-width="8" stroke-linecap="round"/>
<path id="Vector 6_4" d="M578 163.5H761.5" stroke="#CBD8F1" stroke-width="8" stroke-linecap="round" stroke-linejoin="round"/>
<path id="Vector 5_4" d="M378 350.5L578 163" stroke="#CBD8F1" stroke-width="8" stroke-linecap="round" stroke-linejoin="round"/>
<path id="Vector 10_4" d="M546.5 433.5H638.5" stroke="#CBD8F1" stroke-width="8" stroke-linecap="round" stroke-linejoin="round"/>
<path id="Vector 11_4" d="M639.5 433.5V584.5" stroke="#CBD8F1" stroke-width="8" stroke-linecap="round" stroke-linejoin="round"/>
<path id="Vector 12_4" d="M639.5 585H546.5" stroke="#CBD8F1" stroke-width="8" stroke-linecap="round" stroke-linejoin="round"/>
<path id="Vector 13_4" d="M545.5 584.5V434" stroke="#CBD8F1" stroke-width="8" stroke-linecap="round" stroke-linejoin="round"/>
<path id="Vector 14_3" d="M701 433H795.5V583.5" stroke="#CBD8F1" stroke-width="8" stroke-linecap="round" stroke-linejoin="round"/>
<path id="Vector 15_3" d="M793.5 584H700.5V433" stroke="#CBD8F1" stroke-width="8" stroke-linecap="round" stroke-linejoin="round"/>
<path id="Vector 18_3" d="M701 508.5H794.5" stroke="#CBD8F1" stroke-width="8" stroke-linecap="round" stroke-linejoin="round"/>
<path id="Vector 16_3" d="M546 509H639" stroke="#CBD8F1" stroke-width="8" stroke-linecap="round" stroke-linejoin="round"/>
<path id="Vector 29_3" d="M880 407H899V774" stroke="#CBD8F1" stroke-width="8" stroke-linecap="round" stroke-linejoin="round"/>
<path id="Vector 30_3" d="M899.5 731H997V774.5H877.5" stroke="#CBD8F1" stroke-width="8" stroke-linecap="round" stroke-linejoin="round"/>
<path id="Vector 28_2" d="M459 637.5H421.282V678.148H385.718V718.797H348V774.5H461.5" stroke="#CBD8F1" stroke-width="8" stroke-linecap="round" stroke-linejoin="round"/>
</g>
<g id="ref g-template_3">
<path id="Vector 1_5" d="M461.5 352V774.5" stroke="#CBD8F1" stroke-width="8" stroke-linecap="round" stroke-linejoin="round"/>
<path id="Vector 2_5" d="M461.5 774.5H879" stroke="#CBD8F1" stroke-width="8" stroke-linecap="round" stroke-linejoin="round"/>
<path id="Vector 3_5" d="M878 774.5V354" stroke="#CBD8F1" stroke-width="8" stroke-linecap="round" stroke-linejoin="round"/>
<path id="Vector 4_5" d="M962 351.5H379" stroke="#CBD8F1" stroke-width="8" stroke-linecap="round" stroke-linejoin="round"/>
<path id="Vector 26_5" d="M761 163.5L963 350.5" stroke="#CBD8F1" stroke-width="8" stroke-linecap="round"/>
<path id="Vector 6_5" d="M578 163.5H761.5" stroke="#CBD8F1" stroke-width="8" stroke-linecap="round" stroke-linejoin="round"/>
<path id="Vector 5_5" d="M378 350.5L578 163" stroke="#CBD8F1" stroke-width="8" stroke-linecap="round" stroke-linejoin="round"/>
<path id="Vector 10_5" d="M546.5 433.5H638.5" stroke="#CBD8F1" stroke-width="8" stroke-linecap="round" stroke-linejoin="round"/>
<path id="Vector 11_5" d="M639.5 433.5V584.5" stroke="#CBD8F1" stroke-width="8" stroke-linecap="round" stroke-linejoin="round"/>
<path id="Vector 12_5" d="M639.5 585H546.5" stroke="#CBD8F1" stroke-width="8" stroke-linecap="round" stroke-linejoin="round"/>
<path id="Vector 13_5" d="M545.5 584.5V434" stroke="#CBD8F1" stroke-width="8" stroke-linecap="round" stroke-linejoin="round"/>
<path id="Vector 14_4" d="M701 433H795.5V583.5" stroke="#CBD8F1" stroke-width="8" stroke-linecap="round" stroke-linejoin="round"/>
<path id="Vector 15_4" d="M793.5 584H700.5V433" stroke="#CBD8F1" stroke-width="8" stroke-linecap="round" stroke-linejoin="round"/>
<path id="Vector 18_4" d="M701 508.5H794.5" stroke="#CBD8F1" stroke-width="8" stroke-linecap="round" stroke-linejoin="round"/>
<path id="Vector 16_4" d="M546 509H639" stroke="#CBD8F1" stroke-width="8" stroke-linecap="round" stroke-linejoin="round"/>
<path id="Vector 29_4" d="M880 407H899V774" stroke="#CBD8F1" stroke-width="8" stroke-linecap="round" stroke-linejoin="round"/>
</g>
<path id="draw-line rgb-template_3" d="M880 407H899V774" stroke="#6685D4" stroke-width="8" stroke-linecap="round" stroke-linejoin="round"/>
</g>
</g>
<g id="step s-multistep-brush_4">
<g id="input_5">
<g id="ref_3">
<path id="Vector 1_6" d="M461.5 352V774.5" stroke="#CBD8F1" stroke-width="8" stroke-linecap="round" stroke-linejoin="round"/>
<path id="Vector 2_6" d="M461.5 774.5H879" stroke="#CBD8F1" stroke-width="8" stroke-linecap="round" stroke-linejoin="round"/>
<path id="Vector 3_6" d="M878 774.5V354" stroke="#CBD8F1" stroke-width="8" stroke-linecap="round" stroke-linejoin="round"/>
<path id="Vector 4_6" d="M962 351.5H379" stroke="#CBD8F1" stroke-width="8" stroke-linecap="round" stroke-linejoin="round"/>
<path id="Vector 26_6" d="M761 163.5L963 350.5" stroke="#CBD8F1" stroke-width="8" stroke-linecap="round"/>
<path id="Vector 6_6" d="M578 163.5H761.5" stroke="#CBD8F1" stroke-width="8" stroke-linecap="round" stroke-linejoin="round"/>
<path id="Vector 5_6" d="M378 350.5L578 163" stroke="#CBD8F1" stroke-width="8" stroke-linecap="round" stroke-linejoin="round"/>
<path id="Vector 10_6" d="M546.5 433.5H638.5" stroke="#CBD8F1" stroke-width="8" stroke-linecap="round" stroke-linejoin="round"/>
<path id="Vector 11_6" d="M639.5 433.5V584.5" stroke="#CBD8F1" stroke-width="8" stroke-linecap="round" stroke-linejoin="round"/>
<path id="Vector 12_6" d="M639.5 585H546.5" stroke="#CBD8F1" stroke-width="8" stroke-linecap="round" stroke-linejoin="round"/>
<path id="Vector 13_6" d="M545.5 584.5V434" stroke="#CBD8F1" stroke-width="8" stroke-linecap="round" stroke-linejoin="round"/>
<path id="Vector 14_5" d="M701 433H795.5V583.5" stroke="#CBD8F1" stroke-width="8" stroke-linecap="round" stroke-linejoin="round"/>
<path id="Vector 15_5" d="M793.5 584H700.5V433" stroke="#CBD8F1" stroke-width="8" stroke-linecap="round" stroke-linejoin="round"/>
<path id="Vector 18_5" d="M701 508.5H794.5" stroke="#CBD8F1" stroke-width="8" stroke-linecap="round" stroke-linejoin="round"/>
<path id="Vector 16_5" d="M546 509H639" stroke="#CBD8F1" stroke-width="8" stroke-linecap="round" stroke-linejoin="round"/>
<path id="Vector 29_5" d="M880 407H899V774" stroke="#CBD8F1" stroke-width="8" stroke-linecap="round" stroke-linejoin="round"/>
<path id="Vector 30_4" d="M899.5 731H997V774.5H877.5" stroke="#CBD8F1" stroke-width="8" stroke-linecap="round" stroke-linejoin="round"/>
<path id="Vector 28_3" d="M459 637.5H421.282V678.148H385.718V718.797H348V774.5H461.5" stroke="#CBD8F1" stroke-width="8" stroke-linecap="round" stroke-linejoin="round"/>
</g>
<g id="ref g-template_4">
<path id="Vector 1_7" d="M461.5 352V774.5" stroke="#CBD8F1" stroke-width="8" stroke-linecap="round" stroke-linejoin="round"/>
<path id="Vector 2_7" d="M461.5 774.5H879" stroke="#CBD8F1" stroke-width="8" stroke-linecap="round" stroke-linejoin="round"/>
<path id="Vector 3_7" d="M878 774.5V354" stroke="#CBD8F1" stroke-width="8" stroke-linecap="round" stroke-linejoin="round"/>
<path id="Vector 4_7" d="M962 351.5H379" stroke="#CBD8F1" stroke-width="8" stroke-linecap="round" stroke-linejoin="round"/>
<path id="Vector 26_7" d="M761 163.5L963 350.5" stroke="#CBD8F1" stroke-width="8" stroke-linecap="round"/>
<path id="Vector 6_7" d="M578 163.5H761.5" stroke="#CBD8F1" stroke-width="8" stroke-linecap="round" stroke-linejoin="round"/>
<path id="Vector 5_7" d="M378 350.5L578 163" stroke="#CBD8F1" stroke-width="8" stroke-linecap="round" stroke-linejoin="round"/>
<path id="Vector 10_7" d="M546.5 433.5H638.5" stroke="#CBD8F1" stroke-width="8" stroke-linecap="round" stroke-linejoin="round"/>
<path id="Vector 11_7" d="M639.5 433.5V584.5" stroke="#CBD8F1" stroke-width="8" stroke-linecap="round" stroke-linejoin="round"/>
<path id="Vector 12_7" d="M639.5 585H546.5" stroke="#CBD8F1" stroke-width="8" stroke-linecap="round" stroke-linejoin="round"/>
<path id="Vector 13_7" d="M545.5 584.5V434" stroke="#CBD8F1" stroke-width="8" stroke-linecap="round" stroke-linejoin="round"/>
<path id="Vector 14_6" d="M701 433H795.5V583.5" stroke="#CBD8F1" stroke-width="8" stroke-linecap="round" stroke-linejoin="round"/>
<path id="Vector 15_6" d="M793.5 584H700.5V433" stroke="#CBD8F1" stroke-width="8" stroke-linecap="round" stroke-linejoin="round"/>
<path id="Vector 18_6" d="M701 508.5H794.5" stroke="#CBD8F1" stroke-width="8" stroke-linecap="round" stroke-linejoin="round"/>
<path id="Vector 16_6" d="M546 509H639" stroke="#CBD8F1" stroke-width="8" stroke-linecap="round" stroke-linejoin="round"/>
</g>
<path id="draw-line d1 rgb-template" d="M701 508.5H794.5" stroke="#6685D4" stroke-width="8" stroke-linecap="round" stroke-linejoin="round"/>
<path id="draw-line rgb-template_4" d="M546 509H639" stroke="#6685D4" stroke-width="8" stroke-linecap="round" stroke-linejoin="round"/>
</g>
</g>
<g id="step s-multistep-brush_5">
<g id="input_6">
<g id="ref_4">
<path id="Vector 1_8" d="M461.5 352V774.5" stroke="#CBD8F1" stroke-width="8" stroke-linecap="round" stroke-linejoin="round"/>
<path id="Vector 2_8" d="M461.5 774.5H879" stroke="#CBD8F1" stroke-width="8" stroke-linecap="round" stroke-linejoin="round"/>
<path id="Vector 3_8" d="M878 774.5V354" stroke="#CBD8F1" stroke-width="8" stroke-linecap="round" stroke-linejoin="round"/>
<path id="Vector 4_8" d="M962 351.5H379" stroke="#CBD8F1" stroke-width="8" stroke-linecap="round" stroke-linejoin="round"/>
<path id="Vector 26_8" d="M761 163.5L963 350.5" stroke="#CBD8F1" stroke-width="8" stroke-linecap="round"/>
<path id="Vector 6_8" d="M578 163.5H761.5" stroke="#CBD8F1" stroke-width="8" stroke-linecap="round" stroke-linejoin="round"/>
<path id="Vector 5_8" d="M378 350.5L578 163" stroke="#CBD8F1" stroke-width="8" stroke-linecap="round" stroke-linejoin="round"/>
<path id="Vector 10_8" d="M546.5 433.5H638.5" stroke="#CBD8F1" stroke-width="8" stroke-linecap="round" stroke-linejoin="round"/>
<path id="Vector 11_8" d="M639.5 433.5V584.5" stroke="#CBD8F1" stroke-width="8" stroke-linecap="round" stroke-linejoin="round"/>
<path id="Vector 12_8" d="M639.5 585H546.5" stroke="#CBD8F1" stroke-width="8" stroke-linecap="round" stroke-linejoin="round"/>
<path id="Vector 13_8" d="M545.5 584.5V434" stroke="#CBD8F1" stroke-width="8" stroke-linecap="round" stroke-linejoin="round"/>
<path id="Vector 14_7" d="M701 433H795.5V583.5" stroke="#CBD8F1" stroke-width="8" stroke-linecap="round" stroke-linejoin="round"/>
<path id="Vector 15_7" d="M793.5 584H700.5V433" stroke="#CBD8F1" stroke-width="8" stroke-linecap="round" stroke-linejoin="round"/>
<path id="Vector 18_7" d="M701 508.5H794.5" stroke="#CBD8F1" stroke-width="8" stroke-linecap="round" stroke-linejoin="round"/>
<path id="Vector 16_7" d="M546 509H639" stroke="#CBD8F1" stroke-width="8" stroke-linecap="round" stroke-linejoin="round"/>
<path id="Vector 29_6" d="M880 407H899V774" stroke="#CBD8F1" stroke-width="8" stroke-linecap="round" stroke-linejoin="round"/>
<path id="Vector 30_5" d="M899.5 731H997V774.5H877.5" stroke="#CBD8F1" stroke-width="8" stroke-linecap="round" stroke-linejoin="round"/>
<path id="Vector 28_4" d="M459 637.5H421.282V678.148H385.718V718.797H348V774.5H461.5" stroke="#CBD8F1" stroke-width="8" stroke-linecap="round" stroke-linejoin="round"/>
</g>
<g id="ref g-template_5">
<path id="Vector 1_9" d="M461.5 352V774.5" stroke="#CBD8F1" stroke-width="8" stroke-linecap="round" stroke-linejoin="round"/>
<path id="Vector 2_9" d="M461.5 774.5H879" stroke="#CBD8F1" stroke-width="8" stroke-linecap="round" stroke-linejoin="round"/>
<path id="Vector 3_9" d="M878 774.5V354" stroke="#CBD8F1" stroke-width="8" stroke-linecap="round" stroke-linejoin="round"/>
<path id="Vector 4_9" d="M962 351.5H379" stroke="#CBD8F1" stroke-width="8" stroke-linecap="round" stroke-linejoin="round"/>
<path id="Vector 26_9" d="M761 163.5L963 350.5" stroke="#CBD8F1" stroke-width="8" stroke-linecap="round"/>
<path id="Vector 6_9" d="M578 163.5H761.5" stroke="#CBD8F1" stroke-width="8" stroke-linecap="round" stroke-linejoin="round"/>
<path id="Vector 5_9" d="M378 350.5L578 163" stroke="#CBD8F1" stroke-width="8" stroke-linecap="round" stroke-linejoin="round"/>
<path id="Vector 10_9" d="M546.5 433.5H638.5" stroke="#CBD8F1" stroke-width="8" stroke-linecap="round" stroke-linejoin="round"/>
<path id="Vector 11_9" d="M639.5 433.5V584.5" stroke="#CBD8F1" stroke-width="8" stroke-linecap="round" stroke-linejoin="round"/>
<path id="Vector 12_9" d="M639.5 585H546.5" stroke="#CBD8F1" stroke-width="8" stroke-linecap="round" stroke-linejoin="round"/>
<path id="Vector 13_9" d="M545.5 584.5V434" stroke="#CBD8F1" stroke-width="8" stroke-linecap="round" stroke-linejoin="round"/>
<path id="Vector 14_8" d="M701 433H795.5V583.5" stroke="#CBD8F1" stroke-width="8" stroke-linecap="round" stroke-linejoin="round"/>
<path id="Vector 15_8" d="M793.5 584H700.5V433" stroke="#CBD8F1" stroke-width="8" stroke-linecap="round" stroke-linejoin="round"/>
</g>
<path id="draw-line d1 rgb-template_2" d="M701 433H795.5V583.5" stroke="#6685D4" stroke-width="8" stroke-linecap="round" stroke-linejoin="round"/>
<path id="draw-line rgb-template_5" d="M793.5 584H700.5V433" stroke="#6685D4" stroke-width="8" stroke-linecap="round" stroke-linejoin="round"/>
</g>
</g>
<g id="step s-multistep-brush_6">
<g id="input_7">
<g id="ref_5">
<path id="Vector 1_10" d="M461.5 352V774.5" stroke="#CBD8F1" stroke-width="8" stroke-linecap="round" stroke-linejoin="round"/>
<path id="Vector 2_10" d="M461.5 774.5H879" stroke="#CBD8F1" stroke-width="8" stroke-linecap="round" stroke-linejoin="round"/>
<path id="Vector 3_10" d="M878 774.5V354" stroke="#CBD8F1" stroke-width="8" stroke-linecap="round" stroke-linejoin="round"/>
<path id="Vector 4_10" d="M962 351.5H379" stroke="#CBD8F1" stroke-width="8" stroke-linecap="round" stroke-linejoin="round"/>
<path id="Vector 26_10" d="M761 163.5L963 350.5" stroke="#CBD8F1" stroke-width="8" stroke-linecap="round"/>
<path id="Vector 6_10" d="M578 163.5H761.5" stroke="#CBD8F1" stroke-width="8" stroke-linecap="round" stroke-linejoin="round"/>
<path id="Vector 5_10" d="M378 350.5L578 163" stroke="#CBD8F1" stroke-width="8" stroke-linecap="round" stroke-linejoin="round"/>
<path id="Vector 10_10" d="M546.5 433.5H638.5" stroke="#CBD8F1" stroke-width="8" stroke-linecap="round" stroke-linejoin="round"/>
<path id="Vector 11_10" d="M639.5 433.5V584.5" stroke="#CBD8F1" stroke-width="8" stroke-linecap="round" stroke-linejoin="round"/>
<path id="Vector 12_10" d="M639.5 585H546.5" stroke="#CBD8F1" stroke-width="8" stroke-linecap="round" stroke-linejoin="round"/>
<path id="Vector 13_10" d="M545.5 584.5V434" stroke="#CBD8F1" stroke-width="8" stroke-linecap="round" stroke-linejoin="round"/>
<path id="Vector 14_9" d="M701 433H795.5V583.5" stroke="#CBD8F1" stroke-width="8" stroke-linecap="round" stroke-linejoin="round"/>
<path id="Vector 15_9" d="M793.5 584H700.5V433" stroke="#CBD8F1" stroke-width="8" stroke-linecap="round" stroke-linejoin="round"/>
<path id="Vector 18_8" d="M701 508.5H794.5" stroke="#CBD8F1" stroke-width="8" stroke-linecap="round" stroke-linejoin="round"/>
<path id="Vector 16_8" d="M546 509H639" stroke="#CBD8F1" stroke-width="8" stroke-linecap="round" stroke-linejoin="round"/>
<path id="Vector 29_7" d="M880 407H899V774" stroke="#CBD8F1" stroke-width="8" stroke-linecap="round" stroke-linejoin="round"/>
<path id="Vector 30_6" d="M899.5 731H997V774.5H877.5" stroke="#CBD8F1" stroke-width="8" stroke-linecap="round" stroke-linejoin="round"/>
<path id="Vector 28_5" d="M459 637.5H421.282V678.148H385.718V718.797H348V774.5H461.5" stroke="#CBD8F1" stroke-width="8" stroke-linecap="round" stroke-linejoin="round"/>
</g>
<g id="ref g-template_6">
<path id="Vector 1_11" d="M461.5 352V774.5" stroke="#CBD8F1" stroke-width="8" stroke-linecap="round" stroke-linejoin="round"/>
<path id="Vector 2_11" d="M461.5 774.5H879" stroke="#CBD8F1" stroke-width="8" stroke-linecap="round" stroke-linejoin="round"/>
<path id="Vector 3_11" d="M878 774.5V354" stroke="#CBD8F1" stroke-width="8" stroke-linecap="round" stroke-linejoin="round"/>
<path id="Vector 4_11" d="M962 351.5H379" stroke="#CBD8F1" stroke-width="8" stroke-linecap="round" stroke-linejoin="round"/>
<path id="Vector 26_11" d="M761 163.5L963 350.5" stroke="#CBD8F1" stroke-width="8" stroke-linecap="round"/>
<path id="Vector 6_11" d="M578 163.5H761.5" stroke="#CBD8F1" stroke-width="8" stroke-linecap="round" stroke-linejoin="round"/>
<path id="Vector 5_11" d="M378 350.5L578 163" stroke="#CBD8F1" stroke-width="8" stroke-linecap="round" stroke-linejoin="round"/>
<path id="Vector 10_11" d="M546.5 433.5H638.5" stroke="#CBD8F1" stroke-width="8" stroke-linecap="round" stroke-linejoin="round"/>
<path id="Vector 11_11" d="M639.5 433.5V584.5" stroke="#CBD8F1" stroke-width="8" stroke-linecap="round" stroke-linejoin="round"/>
<path id="Vector 12_11" d="M639.5 585H546.5" stroke="#CBD8F1" stroke-width="8" stroke-linecap="round" stroke-linejoin="round"/>
<path id="Vector 13_11" d="M545.5 584.5V434" stroke="#CBD8F1" stroke-width="8" stroke-linecap="round" stroke-linejoin="round"/>
</g>
<path id="draw-line d3 rgb-template" d="M545.5 584.5V434" stroke="#6685D4" stroke-width="8" stroke-linecap="round" stroke-linejoin="round"/>
<path id="draw-line d2 rgb-template" d="M639.5 585H546.5" stroke="#6685D4" stroke-width="8" stroke-linecap="round" stroke-linejoin="round"/>
<path id="draw-line d1 rgb-template_3" d="M639.5 433.5V584.5" stroke="#6685D4" stroke-width="8" stroke-linecap="round" stroke-linejoin="round"/>
<path id="draw-line rgb-template_6" d="M546.5 433.5H638.5" stroke="#6685D4" stroke-width="8" stroke-linecap="round" stroke-linejoin="round"/>
</g>
</g>
<g id="step s-multistep-brush_7">
<g id="input_8">
<g id="ref_6">
<path id="Vector 1_12" d="M461.5 352V774.5" stroke="#CBD8F1" stroke-width="8" stroke-linecap="round" stroke-linejoin="round"/>
<path id="Vector 2_12" d="M461.5 774.5H879" stroke="#CBD8F1" stroke-width="8" stroke-linecap="round" stroke-linejoin="round"/>
<path id="Vector 3_12" d="M878 774.5V354" stroke="#CBD8F1" stroke-width="8" stroke-linecap="round" stroke-linejoin="round"/>
<path id="Vector 4_12" d="M962 351.5H379" stroke="#CBD8F1" stroke-width="8" stroke-linecap="round" stroke-linejoin="round"/>
<path id="Vector 26_12" d="M761 163.5L963 350.5" stroke="#CBD8F1" stroke-width="8" stroke-linecap="round"/>
<path id="Vector 6_12" d="M578 163.5H761.5" stroke="#CBD8F1" stroke-width="8" stroke-linecap="round" stroke-linejoin="round"/>
<path id="Vector 5_12" d="M378 350.5L578 163" stroke="#CBD8F1" stroke-width="8" stroke-linecap="round" stroke-linejoin="round"/>
<path id="Vector 10_12" d="M546.5 433.5H638.5" stroke="#CBD8F1" stroke-width="8" stroke-linecap="round" stroke-linejoin="round"/>
<path id="Vector 11_12" d="M639.5 433.5V584.5" stroke="#CBD8F1" stroke-width="8" stroke-linecap="round" stroke-linejoin="round"/>
<path id="Vector 12_12" d="M639.5 585H546.5" stroke="#CBD8F1" stroke-width="8" stroke-linecap="round" stroke-linejoin="round"/>
<path id="Vector 13_12" d="M545.5 584.5V434" stroke="#CBD8F1" stroke-width="8" stroke-linecap="round" stroke-linejoin="round"/>
<path id="Vector 14_10" d="M701 433H795.5V583.5" stroke="#CBD8F1" stroke-width="8" stroke-linecap="round" stroke-linejoin="round"/>
<path id="Vector 15_10" d="M793.5 584H700.5V433" stroke="#CBD8F1" stroke-width="8" stroke-linecap="round" stroke-linejoin="round"/>
<path id="Vector 18_9" d="M701 508.5H794.5" stroke="#CBD8F1" stroke-width="8" stroke-linecap="round" stroke-linejoin="round"/>
<path id="Vector 16_9" d="M546 509H639" stroke="#CBD8F1" stroke-width="8" stroke-linecap="round" stroke-linejoin="round"/>
<path id="Vector 29_8" d="M880 407H899V774" stroke="#CBD8F1" stroke-width="8" stroke-linecap="round" stroke-linejoin="round"/>
<path id="Vector 30_7" d="M899.5 731H997V774.5H877.5" stroke="#CBD8F1" stroke-width="8" stroke-linecap="round" stroke-linejoin="round"/>
<path id="Vector 28_6" d="M459 637.5H421.282V678.148H385.718V718.797H348V774.5H461.5" stroke="#CBD8F1" stroke-width="8" stroke-linecap="round" stroke-linejoin="round"/>
</g>
<g id="ref g-template_7">
<path id="Vector 1_13" d="M461.5 352V774.5" stroke="#CBD8F1" stroke-width="8" stroke-linecap="round" stroke-linejoin="round"/>
<path id="Vector 2_13" d="M461.5 774.5H879" stroke="#CBD8F1" stroke-width="8" stroke-linecap="round" stroke-linejoin="round"/>
<path id="Vector 3_13" d="M878 774.5V354" stroke="#CBD8F1" stroke-width="8" stroke-linecap="round" stroke-linejoin="round"/>
<path id="Vector 26_13" d="M761 163.5L963 350.5" stroke="#CBD8F1" stroke-width="8" stroke-linecap="round"/>
<path id="Vector 6_13" d="M578 163.5H761.5" stroke="#CBD8F1" stroke-width="8" stroke-linecap="round" stroke-linejoin="round"/>
<path id="Vector 5_13" d="M378 350.5L578 163" stroke="#CBD8F1" stroke-width="8" stroke-linecap="round" stroke-linejoin="round"/>
</g>
<path id="draw-line d2 rgb-template_2" d="M761 163.5L963 350.5" stroke="#6685D4" stroke-width="8" stroke-linecap="round"/>
<path id="draw-line d1 rgb-template_4" d="M578 163.5H761.5" stroke="#6685D4" stroke-width="8" stroke-linecap="round" stroke-linejoin="round"/>
<path id=" draw-line rgb-template" d="M378 350.5L578 163" stroke="#6685D4" stroke-width="8" stroke-linecap="round" stroke-linejoin="round"/>
</g>
</g>
<g id="step s-multistep-brush_8">
<g id="input_9">
<g id="ref_7">
<path id="Vector 1_14" d="M461.5 352V774.5" stroke="#CBD8F1" stroke-width="8" stroke-linecap="round" stroke-linejoin="round"/>
<path id="Vector 2_14" d="M461.5 774.5H879" stroke="#CBD8F1" stroke-width="8" stroke-linecap="round" stroke-linejoin="round"/>
<path id="Vector 3_14" d="M878 774.5V354" stroke="#CBD8F1" stroke-width="8" stroke-linecap="round" stroke-linejoin="round"/>
<path id="Vector 4_13" d="M962 351.5H379" stroke="#CBD8F1" stroke-width="8" stroke-linecap="round" stroke-linejoin="round"/>
<path id="Vector 26_14" d="M761 163.5L963 350.5" stroke="#CBD8F1" stroke-width="8" stroke-linecap="round"/>
<path id="Vector 6_14" d="M578 163.5H761.5" stroke="#CBD8F1" stroke-width="8" stroke-linecap="round" stroke-linejoin="round"/>
<path id="Vector 5_14" d="M378 350.5L578 163" stroke="#CBD8F1" stroke-width="8" stroke-linecap="round" stroke-linejoin="round"/>
<path id="Vector 10_13" d="M546.5 433.5H638.5" stroke="#CBD8F1" stroke-width="8" stroke-linecap="round" stroke-linejoin="round"/>
<path id="Vector 11_13" d="M639.5 433.5V584.5" stroke="#CBD8F1" stroke-width="8" stroke-linecap="round" stroke-linejoin="round"/>
<path id="Vector 12_13" d="M639.5 585H546.5" stroke="#CBD8F1" stroke-width="8" stroke-linecap="round" stroke-linejoin="round"/>
<path id="Vector 13_13" d="M545.5 584.5V434" stroke="#CBD8F1" stroke-width="8" stroke-linecap="round" stroke-linejoin="round"/>
<path id="Vector 14_11" d="M701 433H795.5V583.5" stroke="#CBD8F1" stroke-width="8" stroke-linecap="round" stroke-linejoin="round"/>
<path id="Vector 15_11" d="M793.5 584H700.5V433" stroke="#CBD8F1" stroke-width="8" stroke-linecap="round" stroke-linejoin="round"/>
<path id="Vector 18_10" d="M701 508.5H794.5" stroke="#CBD8F1" stroke-width="8" stroke-linecap="round" stroke-linejoin="round"/>
<path id="Vector 16_10" d="M546 509H639" stroke="#CBD8F1" stroke-width="8" stroke-linecap="round" stroke-linejoin="round"/>
<path id="Vector 29_9" d="M880 407H899V774" stroke="#CBD8F1" stroke-width="8" stroke-linecap="round" stroke-linejoin="round"/>
<path id="Vector 30_8" d="M899.5 731H997V774.5H877.5" stroke="#CBD8F1" stroke-width="8" stroke-linecap="round" stroke-linejoin="round"/>
<path id="Vector 28_7" d="M459 637.5H421.282V678.148H385.718V718.797H348V774.5H461.5" stroke="#CBD8F1" stroke-width="8" stroke-linecap="round" stroke-linejoin="round"/>
</g>
<g id="ref g-template_8">
<path id="Vector 1_15" d="M461.5 352V774.5" stroke="#CBD8F1" stroke-width="8" stroke-linecap="round" stroke-linejoin="round"/>
<path id="Vector 2_15" d="M461.5 774.5H879" stroke="#CBD8F1" stroke-width="8" stroke-linecap="round" stroke-linejoin="round"/>
<path id="Vector 3_15" d="M878 774.5V354" stroke="#CBD8F1" stroke-width="8" stroke-linecap="round" stroke-linejoin="round"/>
<path id="Vector 4_14" d="M962 351.5H379" stroke="#CBD8F1" stroke-width="8" stroke-linecap="round" stroke-linejoin="round"/>
<path id="Vector 26_15" d="M761 163.5L963 350.5" stroke="#CBD8F1" stroke-width="8" stroke-linecap="round"/>
<path id="Vector 6_15" d="M578 163.5H761.5" stroke="#CBD8F1" stroke-width="8" stroke-linecap="round" stroke-linejoin="round"/>
<path id="Vector 5_15" d="M378 350.5L578 163" stroke="#CBD8F1" stroke-width="8" stroke-linecap="round" stroke-linejoin="round"/>
<path id="Vector 10_14" d="M546.5 433.5H638.5" stroke="#CBD8F1" stroke-width="8" stroke-linecap="round" stroke-linejoin="round"/>
<path id="Vector 11_14" d="M639.5 433.5V584.5" stroke="#CBD8F1" stroke-width="8" stroke-linecap="round" stroke-linejoin="round"/>
<path id="Vector 12_14" d="M639.5 585H546.5" stroke="#CBD8F1" stroke-width="8" stroke-linecap="round" stroke-linejoin="round"/>
<path id="Vector 13_14" d="M545.5 584.5V434" stroke="#CBD8F1" stroke-width="8" stroke-linecap="round" stroke-linejoin="round"/>
<path id="Vector 14_12" d="M701 433H795.5V583.5" stroke="#CBD8F1" stroke-width="8" stroke-linecap="round" stroke-linejoin="round"/>
<path id="Vector 15_12" d="M793.5 584H700.5V433" stroke="#CBD8F1" stroke-width="8" stroke-linecap="round" stroke-linejoin="round"/>
<path id="Vector 18_11" d="M701 508.5H794.5" stroke="#CBD8F1" stroke-width="8" stroke-linecap="round" stroke-linejoin="round"/>
<path id="Vector 16_11" d="M546 509H639" stroke="#CBD8F1" stroke-width="8" stroke-linecap="round" stroke-linejoin="round"/>
<path id="Vector 29_10" d="M880 407H899V774" stroke="#CBD8F1" stroke-width="8" stroke-linecap="round" stroke-linejoin="round"/>
<path id="Vector 30_9" d="M899.5 731H997V774.5H877.5" stroke="#CBD8F1" stroke-width="8" stroke-linecap="round" stroke-linejoin="round"/>
<path id="Vector 28_8" d="M459 637.5H421.282V678.148H385.718V718.797H348V774.5H461.5" stroke="#CBD8F1" stroke-width="8" stroke-linecap="round" stroke-linejoin="round"/>
</g>
<path id="draw-line rgb-template_7" d="M962 351.5H379" stroke="#6685D4" stroke-width="8" stroke-linecap="round" stroke-linejoin="round"/>
</g>
</g>
<g id="step s-multistep-brush_9">
<g id="input_10">
<g id="ref_8">
<path id="Vector 1_16" d="M461.5 352V774.5" stroke="#CBD8F1" stroke-width="8" stroke-linecap="round" stroke-linejoin="round"/>
<path id="Vector 2_16" d="M461.5 774.5H879" stroke="#CBD8F1" stroke-width="8" stroke-linecap="round" stroke-linejoin="round"/>
<path id="Vector 3_16" d="M878 774.5V354" stroke="#CBD8F1" stroke-width="8" stroke-linecap="round" stroke-linejoin="round"/>
<path id="Vector 4_15" d="M962 351.5H379" stroke="#CBD8F1" stroke-width="8" stroke-linecap="round" stroke-linejoin="round"/>
<path id="Vector 26_16" d="M761 163.5L963 350.5" stroke="#CBD8F1" stroke-width="8" stroke-linecap="round"/>
<path id="Vector 6_16" d="M578 163.5H761.5" stroke="#CBD8F1" stroke-width="8" stroke-linecap="round" stroke-linejoin="round"/>
<path id="Vector 5_16" d="M378 350.5L578 163" stroke="#CBD8F1" stroke-width="8" stroke-linecap="round" stroke-linejoin="round"/>
<path id="Vector 10_15" d="M546.5 433.5H638.5" stroke="#CBD8F1" stroke-width="8" stroke-linecap="round" stroke-linejoin="round"/>
<path id="Vector 11_15" d="M639.5 433.5V584.5" stroke="#CBD8F1" stroke-width="8" stroke-linecap="round" stroke-linejoin="round"/>
<path id="Vector 12_15" d="M639.5 585H546.5" stroke="#CBD8F1" stroke-width="8" stroke-linecap="round" stroke-linejoin="round"/>
<path id="Vector 13_15" d="M545.5 584.5V434" stroke="#CBD8F1" stroke-width="8" stroke-linecap="round" stroke-linejoin="round"/>
<path id="Vector 14_13" d="M701 433H795.5V583.5" stroke="#CBD8F1" stroke-width="8" stroke-linecap="round" stroke-linejoin="round"/>
<path id="Vector 15_13" d="M793.5 584H700.5V433" stroke="#CBD8F1" stroke-width="8" stroke-linecap="round" stroke-linejoin="round"/>
<path id="Vector 18_12" d="M701 508.5H794.5" stroke="#CBD8F1" stroke-width="8" stroke-linecap="round" stroke-linejoin="round"/>
<path id="Vector 16_12" d="M546 509H639" stroke="#CBD8F1" stroke-width="8" stroke-linecap="round" stroke-linejoin="round"/>
<path id="Vector 29_11" d="M880 407H899V774" stroke="#CBD8F1" stroke-width="8" stroke-linecap="round" stroke-linejoin="round"/>
<path id="Vector 30_10" d="M899.5 731H997V774.5H877.5" stroke="#CBD8F1" stroke-width="8" stroke-linecap="round" stroke-linejoin="round"/>
<path id="Vector 28_9" d="M459 637.5H421.282V678.148H385.718V718.797H348V774.5H461.5" stroke="#CBD8F1" stroke-width="8" stroke-linecap="round" stroke-linejoin="round"/>
</g>
<g id="ref g-template_9">
<path id="Vector 1_17" d="M461.5 352V774.5" stroke="#CBD8F1" stroke-width="8" stroke-linecap="round" stroke-linejoin="round"/>
<path id="Vector 2_17" d="M461.5 774.5H879" stroke="#CBD8F1" stroke-width="8" stroke-linecap="round" stroke-linejoin="round"/>
<path id="Vector 3_17" d="M878 774.5V354" stroke="#CBD8F1" stroke-width="8" stroke-linecap="round" stroke-linejoin="round"/>
</g>
<path id="draw-line rgb-template_8" d="M878 774.5V354" stroke="#6685D4" stroke-width="8" stroke-linecap="round" stroke-linejoin="round"/>
</g>
</g>
<g id="step s-multistep-brush_10">
<g id="input_11">
<g id="ref_9">
<path id="Vector 1_18" d="M461.5 352V774.5" stroke="#CBD8F1" stroke-width="8" stroke-linecap="round" stroke-linejoin="round"/>
<path id="Vector 2_18" d="M461.5 774.5H879" stroke="#CBD8F1" stroke-width="8" stroke-linecap="round" stroke-linejoin="round"/>
<path id="Vector 3_18" d="M878 774.5V354" stroke="#CBD8F1" stroke-width="8" stroke-linecap="round" stroke-linejoin="round"/>
<path id="Vector 4_16" d="M962 351.5H379" stroke="#CBD8F1" stroke-width="8" stroke-linecap="round" stroke-linejoin="round"/>
<path id="Vector 26_17" d="M761 163.5L963 350.5" stroke="#CBD8F1" stroke-width="8" stroke-linecap="round"/>
<path id="Vector 6_17" d="M578 163.5H761.5" stroke="#CBD8F1" stroke-width="8" stroke-linecap="round" stroke-linejoin="round"/>
<path id="Vector 5_17" d="M378 350.5L578 163" stroke="#CBD8F1" stroke-width="8" stroke-linecap="round" stroke-linejoin="round"/>
<path id="Vector 10_16" d="M546.5 433.5H638.5" stroke="#CBD8F1" stroke-width="8" stroke-linecap="round" stroke-linejoin="round"/>
<path id="Vector 11_16" d="M639.5 433.5V584.5" stroke="#CBD8F1" stroke-width="8" stroke-linecap="round" stroke-linejoin="round"/>
<path id="Vector 12_16" d="M639.5 585H546.5" stroke="#CBD8F1" stroke-width="8" stroke-linecap="round" stroke-linejoin="round"/>
<path id="Vector 13_16" d="M545.5 584.5V434" stroke="#CBD8F1" stroke-width="8" stroke-linecap="round" stroke-linejoin="round"/>
<path id="Vector 14_14" d="M701 433H795.5V583.5" stroke="#CBD8F1" stroke-width="8" stroke-linecap="round" stroke-linejoin="round"/>
<path id="Vector 15_14" d="M793.5 584H700.5V433" stroke="#CBD8F1" stroke-width="8" stroke-linecap="round" stroke-linejoin="round"/>
<path id="Vector 18_13" d="M701 508.5H794.5" stroke="#CBD8F1" stroke-width="8" stroke-linecap="round" stroke-linejoin="round"/>
<path id="Vector 16_13" d="M546 509H639" stroke="#CBD8F1" stroke-width="8" stroke-linecap="round" stroke-linejoin="round"/>
<path id="Vector 29_12" d="M880 407H899V774" stroke="#CBD8F1" stroke-width="8" stroke-linecap="round" stroke-linejoin="round"/>
<path id="Vector 30_11" d="M899.5 731H997V774.5H877.5" stroke="#CBD8F1" stroke-width="8" stroke-linecap="round" stroke-linejoin="round"/>
<path id="Vector 28_10" d="M459 637.5H421.282V678.148H385.718V718.797H348V774.5H461.5" stroke="#CBD8F1" stroke-width="8" stroke-linecap="round" stroke-linejoin="round"/>
</g>
<g id="ref g-template_10">
<path id="Vector 1_19" d="M461.5 352V774.5" stroke="#CBD8F1" stroke-width="8" stroke-linecap="round" stroke-linejoin="round"/>
<path id="Vector 2_19" d="M461.5 774.5H879" stroke="#CBD8F1" stroke-width="8" stroke-linecap="round" stroke-linejoin="round"/>
</g>
<path id="draw-line rgb-template_9" d="M461.5 774.5H879" stroke="#6685D4" stroke-width="8" stroke-linecap="round" stroke-linejoin="round"/>
</g>
</g>
<g id="step s-multistep-brush_11">
<g id="input_12">
<g id="ref_10">
<path id="Vector 1_20" d="M461.5 352V774.5" stroke="#CBD8F1" stroke-width="8" stroke-linecap="round" stroke-linejoin="round"/>
<path id="Vector 2_20" d="M461.5 774.5H879" stroke="#CBD8F1" stroke-width="8" stroke-linecap="round" stroke-linejoin="round"/>
<path id="Vector 3_19" d="M878 774.5V354" stroke="#CBD8F1" stroke-width="8" stroke-linecap="round" stroke-linejoin="round"/>
<path id="Vector 4_17" d="M962 351.5H379" stroke="#CBD8F1" stroke-width="8" stroke-linecap="round" stroke-linejoin="round"/>
<path id="Vector 26_18" d="M761 163.5L963 350.5" stroke="#CBD8F1" stroke-width="8" stroke-linecap="round"/>
<path id="Vector 6_18" d="M578 163.5H761.5" stroke="#CBD8F1" stroke-width="8" stroke-linecap="round" stroke-linejoin="round"/>
<path id="Vector 5_18" d="M378 350.5L578 163" stroke="#CBD8F1" stroke-width="8" stroke-linecap="round" stroke-linejoin="round"/>
<path id="Vector 10_17" d="M546.5 433.5H638.5" stroke="#CBD8F1" stroke-width="8" stroke-linecap="round" stroke-linejoin="round"/>
<path id="Vector 11_17" d="M639.5 433.5V584.5" stroke="#CBD8F1" stroke-width="8" stroke-linecap="round" stroke-linejoin="round"/>
<path id="Vector 12_17" d="M639.5 585H546.5" stroke="#CBD8F1" stroke-width="8" stroke-linecap="round" stroke-linejoin="round"/>
<path id="Vector 13_17" d="M545.5 584.5V434" stroke="#CBD8F1" stroke-width="8" stroke-linecap="round" stroke-linejoin="round"/>
<path id="Vector 14_15" d="M701 433H795.5V583.5" stroke="#CBD8F1" stroke-width="8" stroke-linecap="round" stroke-linejoin="round"/>
<path id="Vector 15_15" d="M793.5 584H700.5V433" stroke="#CBD8F1" stroke-width="8" stroke-linecap="round" stroke-linejoin="round"/>
<path id="Vector 18_14" d="M701 508.5H794.5" stroke="#CBD8F1" stroke-width="8" stroke-linecap="round" stroke-linejoin="round"/>
<path id="Vector 16_14" d="M546 509H639" stroke="#CBD8F1" stroke-width="8" stroke-linecap="round" stroke-linejoin="round"/>
<path id="Vector 29_13" d="M880 407H899V774" stroke="#CBD8F1" stroke-width="8" stroke-linecap="round" stroke-linejoin="round"/>
<path id="Vector 30_12" d="M899.5 731H997V774.5H877.5" stroke="#CBD8F1" stroke-width="8" stroke-linecap="round" stroke-linejoin="round"/>
<path id="Vector 28_11" d="M459 637.5H421.282V678.148H385.718V718.797H348V774.5H461.5" stroke="#CBD8F1" stroke-width="8" stroke-linecap="round" stroke-linejoin="round"/>
</g>
<path id="draw-line rgb-template_10" d="M461.5 352V774.5" stroke="#6685D4" stroke-width="8" stroke-linecap="round" stroke-linejoin="round"/>
</g>
</g>
</g>
<defs>
<clipPath id="clip0">
<rect width="1366" height="1024" fill="white"/>
</clipPath>
</defs>
</svg>
