<svg width="1366" height="1024" viewBox="0 0 1366 1024" fill="none" xmlns="http://www.w3.org/2000/svg">
<g id="wave">
<g id="step">
<g id="input rgb-template">
<path id="draw-line" d="M266 564C301 534 304.5 443 360.5 443C423.5 443 418.567 586.5 490 586.5C570 586.5 549 482.5 604 482.5C650.5 482.5 641 534 670.5 534C715.976 534 705 458 749.5 458C794 458 824.11 603 910.5 603C994.5 603 1009.5 401 1065.5 401C1121.5 401 1116.5 518.5 1170 564" stroke="#85A7E8" stroke-width="8" stroke-linecap="round"/>
</g>
</g>
<g id="step_2">
<g id="input rgb-template_2">
<path id="draw-line_2" d="M296.5 508.5C296.5 508.5 330.185 581.103 375 580.5C454.603 579.43 446.037 447.829 525.5 443C588.345 439.181 610.044 528.814 673 528C720.647 527.384 741.867 487.795 789.5 486.5C869.592 484.322 877.62 586.719 957.5 580.5C1023.16 575.388 1048 480.5 1048 480.5" stroke="#85A7E8" stroke-width="8" stroke-linecap="round"/>
</g>
</g>
<g id="step_3">
<g id="input rgb-template_3">
<path id="draw-line d2" d="M857 593C919.013 593 1023.84 534.118 1029.74 489.698C1034.8 451.627 1011.7 433.201 987.77 432.037C966.264 430.992 955.651 452.56 952.901 465.802H952.799C950.048 452.56 939.444 430.992 917.929 432.037C894.004 433.201 870.893 451.627 875.962 489.698C881.871 534.118 993.987 593 1056 593" stroke="#85A7E8" stroke-width="8" stroke-miterlimit="10" stroke-linecap="round" stroke-linejoin="round"/>
<path id="draw-line d1" d="M583 593C645.013 593 749.837 534.118 755.737 489.698C760.797 451.627 737.695 433.201 713.77 432.037C692.264 430.992 681.651 452.56 678.901 465.802H678.799C676.048 452.56 665.444 430.992 643.929 432.037C620.004 433.201 596.893 451.627 601.962 489.698C607.871 534.118 719.987 593 782 593" stroke="#85A7E8" stroke-width="8" stroke-miterlimit="10" stroke-linecap="round" stroke-linejoin="round"/>
<path id="draw-line_3" d="M309 593C371.013 593 475.837 534.118 481.737 489.698C486.797 451.627 463.695 433.201 439.77 432.037C418.264 430.992 407.651 452.56 404.901 465.802H404.799C402.048 452.56 391.444 430.992 369.929 432.037C346.004 433.201 322.893 451.627 327.962 489.698C333.871 534.118 445.987 593 508 593" stroke="#85A7E8" stroke-width="8" stroke-miterlimit="10" stroke-linecap="round" stroke-linejoin="round"/>
</g>
</g>
<g id="step_4">
<g id="input rgb-template_4">
<path id="draw-line d5" d="M879 464C879 464 960.672 567 1010.29 567C1055.4 567 1093 514.47 1093 514.47" stroke="#85A7E8" stroke-width="8" stroke-linecap="round"/>
<path id="draw-line d4" d="M879 566C879 566 960.672 461 1010.29 461C1055.4 461 1093 514.55 1093 514.55" stroke="#85A7E8" stroke-width="8" stroke-linecap="round"/>
<path id="draw-line d3" d="M573 461C573 461 654.672 564 704.295 564C749.401 564 787 511.47 787 511.47" stroke="#85A7E8" stroke-width="8" stroke-linecap="round"/>
<path id="draw-line d2_2" d="M573 563C573 563 654.672 458 704.295 458C749.401 458 787 511.55 787 511.55" stroke="#85A7E8" stroke-width="8" stroke-linecap="round"/>
<path id="draw-line d1_2" d="M273 462C273 462 354.672 566 404.295 566C449.401 566 487 512.96 487 512.96" stroke="#85A7E8" stroke-width="8" stroke-linecap="round"/>
<path id="draw-line_4" d="M273 564C273 564 354.672 459 404.295 459C449.401 459 487 512.55 487 512.55" stroke="#85A7E8" stroke-width="8" stroke-linecap="round"/>
</g>
</g>
<g id="step_5">
<g id="input rgb-template_5">
<path id="draw-line_5" d="M283.798 421.409C379.507 439.529 439.149 502.771 441.01 554.199C442.162 585.465 417.348 613.444 388.99 613.089C357.264 612.733 334.666 595.946 332.273 562.193C330.766 541.231 340.603 516.183 360.188 492.467C423.995 415.458 543.012 410.661 609.3 485.539C628.264 506.945 638.81 530.483 639.608 551.978C640.76 583.244 615.946 611.223 587.588 610.868C555.862 610.513 533.263 593.725 530.871 559.972C528.301 523.378 560.115 474.17 618.693 441.661C658.041 419.899 706.073 418.122 746.572 437.752C804.087 465.643 838.117 511.209 839.535 549.936C840.687 581.201 815.873 609.18 787.515 608.825C755.789 608.47 733.191 591.682 730.798 557.93C729.291 536.967 739.128 511.919 758.713 488.204C822.52 411.194 941.537 406.398 1007.82 481.275C1026.79 502.682 1037.34 526.22 1038.13 547.715C1039.28 578.981 1014.47 606.96 986.113 606.604C954.387 606.249 931.789 589.462 929.396 555.709C926.028 507.478 982.302 437.397 1080.94 412.527" stroke="#85A7E8" stroke-width="8" stroke-miterlimit="10" stroke-linecap="round"/>
</g>
</g>
<g id="step_6">
<g id="input rgb-template_6">
<path id="draw-line_6" d="M283.798 604.21C379.507 586.09 439.149 522.848 441.01 471.419C442.162 440.154 417.348 412.175 388.99 412.53C357.264 412.885 334.666 429.673 332.273 463.425C330.766 484.388 340.603 509.436 360.188 533.151C423.995 610.161 543.012 614.957 609.3 540.08C628.264 518.673 638.81 495.135 639.608 473.64C640.76 442.374 615.946 414.395 587.588 414.751C555.862 415.106 533.263 431.893 530.871 465.646C528.301 502.241 560.115 551.449 618.693 583.958C658.041 605.72 706.073 607.496 746.572 587.866C804.087 559.976 838.117 514.41 839.535 475.683C840.687 444.417 815.873 416.438 787.515 416.793C755.789 417.149 733.191 433.936 730.798 467.689C729.291 488.651 739.128 513.699 758.713 537.415C822.52 614.424 941.537 619.221 1007.82 544.343C1026.79 522.937 1037.34 499.399 1038.13 477.904C1039.28 446.638 1014.47 418.659 986.113 419.014C954.387 419.369 931.789 436.157 929.396 469.91C926.028 518.14 982.302 588.221 1080.94 613.092" stroke="#85A7E8" stroke-width="8" stroke-miterlimit="10" stroke-linecap="round"/>
</g>
</g>
<g id="step_7">
<g id="input rgb-template_7">
<path id="draw-line d1_3" d="M721 464.787C813.262 510.274 870.894 564.55 861.99 605.272C857.476 625.943 835.4 647.851 812.953 647.789C793.165 647.727 776.407 623.034 774.922 600.569C770.223 529.522 952.706 493.874 947.882 423.074C946.336 400.547 925.683 377.092 906.513 376.04C885.735 374.864 864.278 399.99 860.877 421.28C854.507 460.702 906.513 509.346 989.314 544.498" stroke="#85A7E8" stroke-width="8" stroke-miterlimit="10" stroke-linecap="round"/>
<path id="draw-line_7" d="M377 464.787C469.262 510.274 526.894 564.55 517.99 605.272C513.476 625.943 491.4 647.851 468.953 647.789C449.165 647.727 432.407 623.034 430.922 600.569C426.223 529.522 608.706 493.874 603.882 423.074C602.336 400.547 581.683 377.092 562.513 376.04C541.735 374.864 520.278 399.99 516.877 421.28C510.507 460.702 562.513 509.346 645.314 544.498" stroke="#85A7E8" stroke-width="8" stroke-miterlimit="10" stroke-linecap="round"/>
</g>
</g>
<g id="step_8">
<g id="input rgb-template_8">
<path id="draw-line d2_3" d="M864 604.573C958.296 586.747 1017.06 524.531 1018.89 473.937C1020.02 443.179 995.577 415.654 967.638 416.003C936.381 416.353 914.116 432.868 911.759 466.073C908.441 513.521 963.883 582.465 1061.06 606.932" stroke="#85A7E8" stroke-width="8" stroke-miterlimit="10" stroke-linecap="round"/>
<path id="draw-line d1_4" d="M584.718 604.806C679.013 586.98 737.773 524.764 739.607 474.171C740.742 443.412 716.295 415.887 688.355 416.237C657.098 416.586 634.834 433.101 632.477 466.306C629.159 513.754 684.601 582.698 781.778 607.165" stroke="#85A7E8" stroke-width="8" stroke-miterlimit="10" stroke-linecap="round"/>
<path id="draw-line_8" d="M305 604.573C399.296 586.747 458.056 524.531 459.889 473.937C461.024 443.179 436.577 415.654 408.638 416.003C377.381 416.353 355.116 432.868 352.759 466.073C349.441 513.521 404.883 582.465 502.06 606.932" stroke="#85A7E8" stroke-width="8" stroke-miterlimit="10" stroke-linecap="round"/>
</g>
</g>
<g id="step_9">
<g id="input rgb-template_9">
<path id="draw-line_9" d="M300 405C370 405 357.084 618.5 427.5 618.5C497.916 618.5 484.584 405 555 405C625.416 405 612.084 618.5 682.5 618.5C752.916 618.5 739.584 405 810 405C880.416 405 867.084 618.5 937.5 618.5C1007.92 618.5 1001.5 405 1065 405" stroke="#85A7E8" stroke-width="8" stroke-linecap="round"/>
</g>
</g>
<g id="step_10">
<g id="input rgb-template_10">
<path id="draw-line_10" d="M300 575.5C370 575.5 357.084 448 427.5 448C497.916 448 484.584 575.5 555 575.5C625.416 575.5 612.084 448 682.5 448C752.916 448 739.584 575.5 810 575.5C880.416 575.5 867.084 448 937.5 448C1007.92 448 1001.5 575.5 1065 575.5" stroke="#85A7E8" stroke-width="8" stroke-linecap="round"/>
</g>
</g>
<g id="step_11">
<g id="input">
<path id="draw-line rgb-template" d="M340 478C340 478 370.668 546.5 408.5 546.5C446.332 546.5 477 478 477 478C477 478 507.668 546.5 545.5 546.5C583.332 546.5 614 478 614 478C614 478 644.668 546.5 682.5 546.5C720.332 546.5 751 478 751 478C751 478 781.668 546.5 819.5 546.5C857.332 546.5 888 478 888 478C888 478 918.668 546.5 956.5 546.5C994.332 546.5 1025 478 1025 478" stroke="#85A7E8" stroke-width="8" stroke-linecap="round" stroke-linejoin="round"/>
</g>
</g>
<g id="step_12">
<g id="input rgb-template_11">
<path id="draw-line_11" d="M365 459C365 459 412.458 565 471 565C529.542 565 577 459 577 459C577 459 624.458 565 683 565C741.542 565 789 459 789 459C789 459 836.458 565 895 565C953.542 565 1001 459 1001 459" stroke="#85A7E8" stroke-width="8" stroke-linecap="round" stroke-linejoin="round"/>
</g>
</g>
<g id="step_13">
<g id="input rgb-template_12">
<path id="draw-line d4_2" d="M906 546C906 546 921.293 611 971.5 611C1021.71 611 1037 546 1037 546" stroke="#85A7E8" stroke-width="8" stroke-linecap="round"/>
<path id="draw-line d3_2" d="M760 479C760 479 775.293 414 825.5 414C875.707 414 891 479 891 479" stroke="#85A7E8" stroke-width="8" stroke-linecap="round"/>
<path id="draw-line d2_4" d="M617 546C617 546 632.293 611 682.5 611C732.707 611 748 546 748 546" stroke="#85A7E8" stroke-width="8" stroke-linecap="round"/>
<path id="draw-line d1_5" d="M472 479C472 479 487.293 414 537.5 414C587.707 414 603 479 603 479" stroke="#85A7E8" stroke-width="8" stroke-linecap="round"/>
<path id="draw-line_12" d="M329 546C329 546 344.293 611 394.5 611C444.707 611 460 546 460 546" stroke="#85A7E8" stroke-width="8" stroke-linecap="round"/>
</g>
</g>
<g id="step_14">
<g id="input rgb-template_13">
<path id="draw-line d2_5" d="M809 399C809 399 904 425.5 904 512.5C904 599.5 809 626 809 626" stroke="#85A7E8" stroke-width="8" stroke-linecap="round"/>
<path id="draw-line d1_6" d="M635 399C635 399 730 425.5 730 512.5C730 599.5 635 626 635 626" stroke="#85A7E8" stroke-width="8" stroke-linecap="round"/>
<path id="draw-line_13" d="M461 399C461 399 556 425.5 556 512.5C556 599.5 461 626 461 626" stroke="#85A7E8" stroke-width="8" stroke-linecap="round"/>
</g>
</g>
<g id="step_15">
<g id="input rgb-template_14">
<path id="draw-line d2_6" d="M904 399C904 399 809 425.5 809 512.5C809 599.5 904 626 904 626" stroke="#85A7E8" stroke-width="8" stroke-linecap="round"/>
<path id="draw-line d1_7" d="M730 399C730 399 635 425.5 635 512.5C635 599.5 730 626 730 626" stroke="#85A7E8" stroke-width="8" stroke-linecap="round"/>
<path id="draw-line " d="M556 399C556 399 461 425.5 461 512.5C461 599.5 556 626 556 626" stroke="#85A7E8" stroke-width="8" stroke-linecap="round"/>
</g>
</g>
<g id="step_16">
<g id="input rgb-template_15">
<path id="draw-line d2_7" d="M885 465C885 465 911.5 560 998.5 560C1085.5 560 1112 465 1112 465" stroke="#85A7E8" stroke-width="8" stroke-linecap="round"/>
<path id="draw-line d1_8" d="M569.5 465C569.5 465 596 560 683 560C770 560 796.5 465 796.5 465" stroke="#85A7E8" stroke-width="8" stroke-linecap="round"/>
<path id="draw-line _2" d="M254 465C254 465 280.5 560 367.5 560C454.5 560 481 465 481 465" stroke="#85A7E8" stroke-width="8" stroke-linecap="round"/>
</g>
</g>
<g id="step_17">
<g id="input rgb-template_16">
<path id="draw-line d2_8" d="M885 560C885 560 911.5 465 998.5 465C1085.5 465 1112 560 1112 560" stroke="#85A7E8" stroke-width="8" stroke-linecap="round"/>
<path id="draw-line d1_9" d="M569.5 560C569.5 560 596 465 683 465C770 465 796.5 560 796.5 560" stroke="#85A7E8" stroke-width="8" stroke-linecap="round"/>
<path id="draw-line _3" d="M254 560C254 560 280.5 465 367.5 465C454.5 465 481 560 481 560" stroke="#85A7E8" stroke-width="8" stroke-linecap="round"/>
</g>
</g>
</g>
</svg>
