<svg width="1366" height="1024" viewBox="0 0 1366 1024" fill="none" xmlns="http://www.w3.org/2000/svg">
<g id="iPad Pro 12.9&#34; - 1">
<g id="step-6-group">
<g id="step-6-template">
<path id="neutral" d="M684 350.015C701.667 310.85 760.4 232.22 854 231.02C971 229.52 1018 314.504 1018 407.013C1018 559.008 796.167 693.004 684 794" stroke="#00FF00" stroke-width="100" stroke-linecap="round"/>
<path id="good" d="M683 349.015C700.667 309.85 759.4 231.22 853 230.02C970 228.52 1017 313.504 1017 406.013C1017 558.008 795.167 692.004 683 793" stroke="#0000FF" stroke-width="30" stroke-linecap="round"/>
</g>
<g id="task">
<path id="Vector 2" d="M683 113V927.5" stroke="black" stroke-width="2" stroke-linecap="round" stroke-dasharray="20 20"/>
<path id="Vector 1" d="M683 349.02C665.333 309.853 606.6 231.22 513 230.02C396 228.52 349 313.507 349 406.02C349 558.02 570.833 692.019 683 793.019" stroke="#6100FF" stroke-width="15" stroke-linecap="round"/>
</g>
<path id="step-6-type" d="M895.706 768.828V785.33C895.695 786.957 895.335 788.374 894.627 789.58C893.919 790.786 892.917 791.716 891.622 792.369C890.338 793.011 888.861 793.332 887.189 793.332C884.644 793.332 882.602 792.64 881.063 791.257C879.536 789.862 878.745 787.937 878.689 785.479V768.828H880.715V785.181C880.715 787.217 881.296 788.8 882.458 789.929C883.62 791.047 885.197 791.605 887.189 791.605C889.182 791.605 890.753 791.041 891.904 789.912C893.066 788.783 893.647 787.212 893.647 785.197V768.828H895.706ZM906.568 775.037L906.635 778.108C907.31 777.002 908.151 776.16 909.158 775.585C910.165 774.998 911.277 774.705 912.495 774.705C914.421 774.705 915.854 775.247 916.795 776.332C917.735 777.417 918.211 779.044 918.222 781.213V793H916.247V781.196C916.236 779.591 915.893 778.396 915.218 777.61C914.553 776.825 913.485 776.432 912.013 776.432C910.785 776.432 909.695 776.819 908.743 777.594C907.802 778.357 907.105 779.392 906.651 780.698V793H904.676V775.037H906.568ZM933.285 783.172H925.333V781.495H933.285V783.172ZM941.042 793V768.828H948.181C950.771 768.828 952.735 769.365 954.074 770.438C955.414 771.501 956.083 773.073 956.083 775.153C956.083 776.404 955.74 777.494 955.054 778.424C954.379 779.342 953.449 780.001 952.265 780.399C953.671 780.709 954.799 781.401 955.652 782.475C956.515 783.548 956.947 784.788 956.947 786.193C956.947 788.329 956.255 790.001 954.871 791.207C953.499 792.402 951.584 793 949.127 793H941.042ZM943.084 781.379V791.273H949.21C950.959 791.273 952.342 790.831 953.361 789.945C954.39 789.049 954.905 787.809 954.905 786.227C954.905 784.732 954.412 783.554 953.427 782.69C952.453 781.816 951.103 781.379 949.376 781.379H943.084ZM943.084 779.669H948.662C950.367 779.636 951.684 779.237 952.614 778.474C953.554 777.699 954.025 776.576 954.025 775.104C954.025 773.554 953.538 772.414 952.564 771.684C951.601 770.942 950.14 770.571 948.181 770.571H943.084V779.669ZM973.47 776.73C973.049 776.653 972.601 776.614 972.125 776.614C970.885 776.614 969.834 776.963 968.971 777.66C968.119 778.346 967.51 779.348 967.145 780.665V793H965.169V775.037H967.111L967.145 777.893C968.196 775.768 969.884 774.705 972.208 774.705C972.761 774.705 973.199 774.777 973.52 774.921L973.47 776.73ZM986.988 793.332C985.461 793.332 984.077 792.956 982.838 792.203C981.609 791.451 980.652 790.405 979.966 789.065C979.279 787.715 978.936 786.204 978.936 784.533V783.819C978.936 782.093 979.268 780.538 979.932 779.154C980.608 777.771 981.543 776.686 982.738 775.9C983.933 775.104 985.228 774.705 986.623 774.705C988.803 774.705 990.53 775.452 991.803 776.946C993.086 778.429 993.728 780.46 993.728 783.039V784.151H980.912V784.533C980.912 786.57 981.493 788.269 982.655 789.63C983.828 790.98 985.3 791.655 987.071 791.655C988.134 791.655 989.069 791.462 989.877 791.074C990.696 790.687 991.437 790.067 992.101 789.215L993.346 790.161C991.886 792.275 989.766 793.332 986.988 793.332ZM986.623 776.398C985.129 776.398 983.867 776.946 982.838 778.042C981.819 779.138 981.2 780.61 980.978 782.458H991.753V782.242C991.697 780.516 991.205 779.11 990.275 778.025C989.346 776.941 988.128 776.398 986.623 776.398ZM1012.68 793C1012.48 792.436 1012.35 791.6 1012.29 790.493C1011.6 791.401 1010.71 792.104 1009.62 792.602C1008.55 793.089 1007.41 793.332 1006.2 793.332C1004.47 793.332 1003.07 792.851 1002 791.888C1000.94 790.925 1000.41 789.707 1000.41 788.235C1000.41 786.487 1001.13 785.103 1002.58 784.085C1004.04 783.067 1006.07 782.558 1008.67 782.558H1012.28V780.516C1012.28 779.232 1011.88 778.225 1011.08 777.494C1010.3 776.753 1009.14 776.382 1007.63 776.382C1006.25 776.382 1005.1 776.736 1004.19 777.444C1003.28 778.153 1002.83 779.005 1002.83 780.001L1000.84 779.984C1000.84 778.557 1001.5 777.323 1002.83 776.282C1004.16 775.231 1005.79 774.705 1007.73 774.705C1009.73 774.705 1011.31 775.209 1012.46 776.216C1013.62 777.212 1014.22 778.606 1014.25 780.399V788.899C1014.25 790.637 1014.44 791.938 1014.8 792.801V793H1012.68ZM1006.43 791.572C1007.76 791.572 1008.95 791.251 1009.99 790.609C1011.04 789.967 1011.8 789.11 1012.28 788.036V784.085H1008.72C1006.74 784.107 1005.19 784.472 1004.08 785.181C1002.96 785.878 1002.4 786.841 1002.4 788.069C1002.4 789.076 1002.77 789.912 1003.51 790.576C1004.26 791.24 1005.24 791.572 1006.43 791.572ZM1027.57 783.952L1025.3 786.144V793H1023.3V767.5H1025.3V783.819L1027.17 781.794L1034.05 775.037H1036.55L1028.93 782.607L1037.22 793H1034.84L1027.57 783.952ZM1058.89 768.828L1067.81 790.161L1076.75 768.828H1079.48V793H1077.44V782.475L1077.6 771.684L1068.6 793H1067.03L1058.06 771.767L1058.23 782.408V793H1056.19V768.828H1058.89ZM1094.57 790.145L1099.82 775.037H1101.96L1094.29 796.055L1093.89 796.984C1092.91 799.165 1091.39 800.255 1089.33 800.255C1088.85 800.255 1088.34 800.177 1087.8 800.022L1087.78 798.379L1088.81 798.479C1089.79 798.479 1090.57 798.235 1091.17 797.748C1091.78 797.272 1092.29 796.448 1092.71 795.274L1093.59 792.851L1086.82 775.037H1088.99L1094.57 790.145ZM1139.17 793H1137.12V781.412H1123.3V793H1121.26V768.828H1123.3V779.686H1137.12V768.828H1139.17V793ZM1155.56 793.332C1154.04 793.332 1152.65 792.956 1151.41 792.203C1150.19 791.451 1149.23 790.405 1148.54 789.065C1147.86 787.715 1147.51 786.204 1147.51 784.533V783.819C1147.51 782.093 1147.84 780.538 1148.51 779.154C1149.18 777.771 1150.12 776.686 1151.31 775.9C1152.51 775.104 1153.8 774.705 1155.2 774.705C1157.38 774.705 1159.11 775.452 1160.38 776.946C1161.66 778.429 1162.3 780.46 1162.3 783.039V784.151H1149.49V784.533C1149.49 786.57 1150.07 788.269 1151.23 789.63C1152.4 790.98 1153.88 791.655 1155.65 791.655C1156.71 791.655 1157.65 791.462 1158.45 791.074C1159.27 790.687 1160.01 790.067 1160.68 789.215L1161.92 790.161C1160.46 792.275 1158.34 793.332 1155.56 793.332ZM1155.2 776.398C1153.7 776.398 1152.44 776.946 1151.41 778.042C1150.4 779.138 1149.78 780.61 1149.55 782.458H1160.33V782.242C1160.27 780.516 1159.78 779.11 1158.85 778.025C1157.92 776.941 1156.7 776.398 1155.2 776.398ZM1181.25 793C1181.05 792.436 1180.93 791.6 1180.87 790.493C1180.17 791.401 1179.28 792.104 1178.2 792.602C1177.12 793.089 1175.98 793.332 1174.78 793.332C1173.05 793.332 1171.65 792.851 1170.58 791.888C1169.51 790.925 1168.98 789.707 1168.98 788.235C1168.98 786.487 1169.71 785.103 1171.16 784.085C1172.62 783.067 1174.65 782.558 1177.25 782.558H1180.85V780.516C1180.85 779.232 1180.45 778.225 1179.66 777.494C1178.87 776.753 1177.72 776.382 1176.2 776.382C1174.82 776.382 1173.68 776.736 1172.77 777.444C1171.86 778.153 1171.41 779.005 1171.41 780.001L1169.41 779.984C1169.41 778.557 1170.08 777.323 1171.41 776.282C1172.73 775.231 1174.37 774.705 1176.3 774.705C1178.31 774.705 1179.88 775.209 1181.04 776.216C1182.2 777.212 1182.8 778.606 1182.83 780.399V788.899C1182.83 790.637 1183.01 791.938 1183.38 792.801V793H1181.25ZM1175.01 791.572C1176.34 791.572 1177.52 791.251 1178.56 790.609C1179.61 789.967 1180.38 789.11 1180.85 788.036V784.085H1177.3C1175.32 784.107 1173.77 784.472 1172.65 785.181C1171.53 785.878 1170.98 786.841 1170.98 788.069C1170.98 789.076 1171.35 789.912 1172.09 790.576C1172.84 791.24 1173.81 791.572 1175.01 791.572ZM1200.18 776.73C1199.76 776.653 1199.31 776.614 1198.84 776.614C1197.6 776.614 1196.55 776.963 1195.68 777.66C1194.83 778.346 1194.22 779.348 1193.86 780.665V793H1191.88V775.037H1193.82L1193.86 777.893C1194.91 775.768 1196.6 774.705 1198.92 774.705C1199.47 774.705 1199.91 774.777 1200.23 774.921L1200.18 776.73ZM1210.99 770.438V775.037H1214.71V776.664H1210.99V788.634C1210.99 789.63 1211.17 790.371 1211.53 790.858C1211.89 791.345 1212.49 791.589 1213.34 791.589C1213.67 791.589 1214.2 791.534 1214.95 791.423L1215.03 793.05C1214.51 793.238 1213.8 793.332 1212.9 793.332C1211.54 793.332 1210.55 792.939 1209.93 792.153C1209.31 791.356 1209 790.189 1209 788.65V776.664H1205.7V775.037H1209V770.438H1210.99Z" fill="black"/>
</g>
<g id="step-5-group">
<g id="step-5-template">
<path id="neutral_2" d="M683 237V706" stroke="#00FF00" stroke-width="100" stroke-linecap="round"/>
<path id="good_2" d="M683 237V706" stroke="#0000FF" stroke-width="30" stroke-linecap="round"/>
</g>
<path id="step-5-type" d="M408.171 837.463C407.894 840.008 406.981 841.956 405.432 843.307C403.893 844.657 401.84 845.332 399.272 845.332C397.479 845.332 395.891 844.884 394.508 843.987C393.135 843.091 392.073 841.824 391.32 840.186C390.568 838.536 390.186 836.655 390.175 834.541V831.403C390.175 829.256 390.551 827.353 391.304 825.692C392.056 824.032 393.135 822.754 394.541 821.857C395.958 820.95 397.585 820.496 399.422 820.496C402.012 820.496 404.054 821.199 405.548 822.604C407.053 823.999 407.927 825.93 408.171 828.398H406.112C405.603 824.292 403.373 822.239 399.422 822.239C397.23 822.239 395.482 823.058 394.176 824.696C392.881 826.334 392.233 828.598 392.233 831.486V834.441C392.233 837.23 392.864 839.455 394.126 841.115C395.399 842.775 397.114 843.605 399.272 843.605C401.409 843.605 403.019 843.096 404.104 842.078C405.188 841.049 405.858 839.51 406.112 837.463H408.171ZM427.965 842.726C426.769 844.463 424.86 845.332 422.237 845.332C420.322 845.332 418.867 844.779 417.871 843.672C416.875 842.554 416.366 840.905 416.344 838.725V827.037H418.319V838.476C418.319 841.896 419.703 843.605 422.469 843.605C425.347 843.605 427.168 842.416 427.931 840.036V827.037H429.924V845H427.998L427.965 842.726ZM441.931 822.438V827.037H445.65V828.664H441.931V840.634C441.931 841.63 442.108 842.371 442.462 842.858C442.828 843.345 443.431 843.589 444.272 843.589C444.604 843.589 445.141 843.534 445.882 843.423L445.965 845.05C445.445 845.238 444.737 845.332 443.84 845.332C442.479 845.332 441.488 844.939 440.869 844.153C440.249 843.356 439.939 842.189 439.939 840.65V828.664H436.635V827.037H439.939V822.438H441.931ZM468.603 822.438V827.037H472.321V828.664H468.603V840.634C468.603 841.63 468.78 842.371 469.134 842.858C469.499 843.345 470.102 843.589 470.943 843.589C471.275 843.589 471.812 843.534 472.554 843.423L472.637 845.05C472.117 845.238 471.408 845.332 470.512 845.332C469.15 845.332 468.16 844.939 467.54 844.153C466.92 843.356 466.61 842.189 466.61 840.65V828.664H463.307V827.037H466.61V822.438H468.603ZM482.154 830.075C482.807 829.002 483.643 828.172 484.661 827.585C485.679 826.998 486.791 826.705 487.998 826.705C489.924 826.705 491.357 827.247 492.298 828.332C493.238 829.417 493.714 831.044 493.725 833.213V845H491.75V833.196C491.739 831.591 491.396 830.396 490.721 829.61C490.056 828.825 488.988 828.432 487.516 828.432C486.288 828.432 485.198 828.819 484.246 829.594C483.305 830.357 482.608 831.392 482.154 832.698V845H480.179V819.5H482.154V830.075ZM509.535 845.332C508.007 845.332 506.624 844.956 505.384 844.203C504.156 843.451 503.198 842.405 502.512 841.065C501.826 839.715 501.483 838.204 501.483 836.533V835.819C501.483 834.093 501.815 832.538 502.479 831.154C503.154 829.771 504.089 828.686 505.285 827.9C506.48 827.104 507.775 826.705 509.169 826.705C511.35 826.705 513.076 827.452 514.349 828.946C515.633 830.429 516.275 832.46 516.275 835.039V836.151H503.459V836.533C503.459 838.57 504.04 840.269 505.202 841.63C506.375 842.98 507.847 843.655 509.618 843.655C510.68 843.655 511.615 843.462 512.423 843.074C513.242 842.687 513.984 842.067 514.648 841.215L515.893 842.161C514.432 844.275 512.313 845.332 509.535 845.332ZM509.169 828.398C507.675 828.398 506.414 828.946 505.384 830.042C504.366 831.138 503.746 832.61 503.525 834.458H514.299V834.242C514.244 832.516 513.752 831.11 512.822 830.025C511.892 828.941 510.675 828.398 509.169 828.398ZM544.191 828.73C543.771 828.653 543.323 828.614 542.847 828.614C541.607 828.614 540.556 828.963 539.692 829.66C538.84 830.346 538.232 831.348 537.866 832.665V845H535.891V827.037H537.833L537.866 829.893C538.918 827.768 540.606 826.705 542.93 826.705C543.483 826.705 543.92 826.777 544.241 826.921L544.191 828.73ZM557.71 845.332C556.182 845.332 554.799 844.956 553.559 844.203C552.331 843.451 551.374 842.405 550.687 841.065C550.001 839.715 549.658 838.204 549.658 836.533V835.819C549.658 834.093 549.99 832.538 550.654 831.154C551.329 829.771 552.264 828.686 553.46 827.9C554.655 827.104 555.95 826.705 557.345 826.705C559.525 826.705 561.251 827.452 562.524 828.946C563.808 830.429 564.45 832.46 564.45 835.039V836.151H551.634V836.533C551.634 838.57 552.215 840.269 553.377 841.63C554.55 842.98 556.022 843.655 557.793 843.655C558.855 843.655 559.791 843.462 560.598 843.074C561.417 842.687 562.159 842.067 562.823 841.215L564.068 842.161C562.607 844.275 560.488 845.332 557.71 845.332ZM557.345 828.398C555.85 828.398 554.589 828.946 553.559 830.042C552.541 831.138 551.921 832.61 551.7 834.458H562.474V834.242C562.419 832.516 561.927 831.11 560.997 830.025C560.067 828.941 558.85 828.398 557.345 828.398ZM578.699 843.655C580.082 843.655 581.239 843.268 582.169 842.493C583.109 841.707 583.618 840.695 583.696 839.455H585.605C585.55 840.551 585.207 841.552 584.576 842.46C583.945 843.356 583.104 844.059 582.052 844.568C581.012 845.077 579.894 845.332 578.699 845.332C576.341 845.332 574.471 844.513 573.087 842.875C571.715 841.237 571.029 839.035 571.029 836.268V835.67C571.029 833.899 571.339 832.333 571.959 830.972C572.578 829.61 573.464 828.559 574.615 827.817C575.777 827.076 577.133 826.705 578.682 826.705C580.652 826.705 582.274 827.292 583.546 828.465C584.83 829.638 585.517 831.182 585.605 833.097H583.696C583.607 831.691 583.098 830.557 582.169 829.693C581.25 828.83 580.088 828.398 578.682 828.398C576.889 828.398 575.495 829.046 574.499 830.341C573.514 831.636 573.021 833.451 573.021 835.786V836.367C573.021 838.658 573.514 840.446 574.499 841.729C575.495 843.013 576.895 843.655 578.699 843.655ZM596.417 822.438V827.037H600.136V828.664H596.417V840.634C596.417 841.63 596.594 842.371 596.949 842.858C597.314 843.345 597.917 843.589 598.758 843.589C599.09 843.589 599.627 843.534 600.369 843.423L600.452 845.05C599.931 845.238 599.223 845.332 598.327 845.332C596.965 845.332 595.975 844.939 595.355 844.153C594.735 843.356 594.425 842.189 594.425 840.65V828.664H591.121V827.037H594.425V822.438H596.417ZM619.332 845C619.133 844.436 619.006 843.6 618.95 842.493C618.253 843.401 617.362 844.104 616.277 844.602C615.204 845.089 614.064 845.332 612.858 845.332C611.131 845.332 609.731 844.851 608.657 843.888C607.595 842.925 607.064 841.707 607.064 840.235C607.064 838.487 607.789 837.103 609.238 836.085C610.699 835.067 612.73 834.558 615.331 834.558H618.934V832.516C618.934 831.232 618.535 830.225 617.738 829.494C616.953 828.753 615.802 828.382 614.285 828.382C612.902 828.382 611.756 828.736 610.849 829.444C609.941 830.153 609.487 831.005 609.487 832.001L607.495 831.984C607.495 830.557 608.159 829.323 609.487 828.282C610.816 827.231 612.448 826.705 614.385 826.705C616.388 826.705 617.965 827.209 619.116 828.216C620.278 829.212 620.876 830.606 620.909 832.399V840.899C620.909 842.637 621.092 843.938 621.457 844.801V845H619.332ZM613.09 843.572C614.418 843.572 615.602 843.251 616.643 842.609C617.694 841.967 618.458 841.11 618.934 840.036V836.085H615.381C613.4 836.107 611.85 836.472 610.733 837.181C609.615 837.878 609.056 838.841 609.056 840.069C609.056 841.076 609.427 841.912 610.168 842.576C610.921 843.24 611.895 843.572 613.09 843.572ZM631.854 827.037L631.921 830.108C632.596 829.002 633.437 828.16 634.444 827.585C635.451 826.998 636.564 826.705 637.781 826.705C639.707 826.705 641.14 827.247 642.081 828.332C643.022 829.417 643.498 831.044 643.509 833.213V845H641.533V833.196C641.522 831.591 641.179 830.396 640.504 829.61C639.84 828.825 638.772 828.432 637.3 828.432C636.071 828.432 634.981 828.819 634.029 829.594C633.088 830.357 632.391 831.392 631.937 832.698V845H629.962V827.037H631.854ZM651.598 835.853C651.598 833.041 652.218 830.817 653.458 829.179C654.708 827.53 656.402 826.705 658.538 826.705C660.984 826.705 662.843 827.679 664.116 829.627L664.215 827.037H666.075V844.635C666.075 846.948 665.427 848.78 664.132 850.13C662.838 851.48 661.083 852.155 658.87 852.155C657.619 852.155 656.424 851.873 655.284 851.309C654.155 850.755 653.264 850.014 652.611 849.084L653.723 847.889C655.129 849.615 656.8 850.479 658.737 850.479C660.397 850.479 661.692 849.986 662.622 849.001C663.551 848.027 664.033 846.671 664.066 844.934V842.676C662.793 844.447 660.939 845.332 658.505 845.332C656.424 845.332 654.753 844.502 653.491 842.842C652.229 841.182 651.598 838.94 651.598 836.118V835.853ZM653.607 836.201C653.607 838.492 654.066 840.302 654.985 841.63C655.904 842.947 657.199 843.605 658.87 843.605C661.316 843.605 663.048 842.51 664.066 840.318V831.968C663.601 830.817 662.932 829.942 662.057 829.345C661.183 828.736 660.131 828.432 658.903 828.432C657.232 828.432 655.931 829.09 655.002 830.407C654.072 831.713 653.607 833.645 653.607 836.201ZM677.219 845H675.227V819.5H677.219V845ZM693.327 845.332C691.8 845.332 690.416 844.956 689.177 844.203C687.948 843.451 686.991 842.405 686.305 841.065C685.619 839.715 685.276 838.204 685.276 836.533V835.819C685.276 834.093 685.608 832.538 686.272 831.154C686.947 829.771 687.882 828.686 689.077 827.9C690.273 827.104 691.568 826.705 692.962 826.705C695.142 826.705 696.869 827.452 698.142 828.946C699.426 830.429 700.068 832.46 700.068 835.039V836.151H687.251V836.533C687.251 838.57 687.832 840.269 688.994 841.63C690.167 842.98 691.639 843.655 693.41 843.655C694.473 843.655 695.408 843.462 696.216 843.074C697.035 842.687 697.777 842.067 698.441 841.215L699.686 842.161C698.225 844.275 696.105 845.332 693.327 845.332ZM692.962 828.398C691.468 828.398 690.206 828.946 689.177 830.042C688.159 831.138 687.539 832.61 687.318 834.458H698.092V834.242C698.037 832.516 697.544 831.11 696.614 830.025C695.685 828.941 694.467 828.398 692.962 828.398ZM721.908 845H719.916V827.037H721.908V845ZM719.567 821.841C719.567 821.465 719.689 821.149 719.932 820.895C720.176 820.629 720.508 820.496 720.928 820.496C721.349 820.496 721.681 820.629 721.924 820.895C722.179 821.149 722.306 821.465 722.306 821.841C722.306 822.217 722.179 822.533 721.924 822.787C721.681 823.042 721.349 823.169 720.928 823.169C720.508 823.169 720.176 823.042 719.932 822.787C719.689 822.533 719.567 822.217 719.567 821.841ZM732.953 827.037L733.019 830.108C733.694 829.002 734.535 828.16 735.542 827.585C736.55 826.998 737.662 826.705 738.879 826.705C740.805 826.705 742.238 827.247 743.179 828.332C744.12 829.417 744.596 831.044 744.607 833.213V845H742.631V833.196C742.62 831.591 742.277 830.396 741.602 829.61C740.938 828.825 739.87 828.432 738.398 828.432C737.169 828.432 736.079 828.819 735.127 829.594C734.187 830.357 733.489 831.392 733.036 832.698V845H731.06V827.037H732.953ZM756.581 822.438V827.037H760.3V828.664H756.581V840.634C756.581 841.63 756.758 842.371 757.112 842.858C757.478 843.345 758.081 843.589 758.922 843.589C759.254 843.589 759.791 843.534 760.532 843.423L760.615 845.05C760.095 845.238 759.387 845.332 758.49 845.332C757.129 845.332 756.139 844.939 755.519 844.153C754.899 843.356 754.589 842.189 754.589 840.65V828.664H751.285V827.037H754.589V822.438H756.581ZM766.729 835.753C766.729 834.026 767.061 832.471 767.726 831.088C768.401 829.704 769.347 828.631 770.564 827.867C771.793 827.092 773.182 826.705 774.731 826.705C777.122 826.705 779.059 827.546 780.542 829.229C782.025 830.9 782.767 833.119 782.767 835.886V836.301C782.767 838.038 782.429 839.604 781.754 840.999C781.09 842.382 780.149 843.451 778.932 844.203C777.714 844.956 776.325 845.332 774.765 845.332C772.385 845.332 770.448 844.496 768.954 842.825C767.471 841.143 766.729 838.918 766.729 836.151V835.753ZM768.722 836.301C768.722 838.448 769.275 840.213 770.382 841.597C771.5 842.969 772.961 843.655 774.765 843.655C776.558 843.655 778.007 842.969 779.114 841.597C780.232 840.213 780.791 838.393 780.791 836.135V835.753C780.791 834.381 780.536 833.124 780.027 831.984C779.518 830.844 778.804 829.965 777.886 829.345C776.967 828.714 775.916 828.398 774.731 828.398C772.961 828.398 771.516 829.096 770.398 830.49C769.281 831.874 768.722 833.689 768.722 835.936V836.301ZM817.457 845H802.316V843.473L810.6 834.076C811.972 832.493 812.924 831.188 813.456 830.158C813.987 829.129 814.252 828.127 814.252 827.153C814.252 825.626 813.804 824.42 812.908 823.534C812.011 822.638 810.777 822.189 809.206 822.189C807.579 822.189 806.262 822.71 805.254 823.75C804.258 824.79 803.76 826.141 803.76 827.801H801.785C801.785 826.439 802.089 825.2 802.698 824.082C803.318 822.964 804.192 822.09 805.321 821.459C806.461 820.817 807.756 820.496 809.206 820.496C811.419 820.496 813.146 821.077 814.385 822.239C815.636 823.401 816.261 824.984 816.261 826.987C816.261 828.116 815.907 829.35 815.199 830.689C814.501 832.029 813.267 833.7 811.497 835.703L804.756 843.323H817.457V845ZM847.996 840.435C847.996 839.45 847.598 838.658 846.801 838.061C846.015 837.463 844.825 836.998 843.231 836.666C841.638 836.323 840.398 835.936 839.513 835.504C838.638 835.061 837.985 834.524 837.554 833.894C837.133 833.263 836.923 832.499 836.923 831.603C836.923 830.186 837.515 829.018 838.699 828.1C839.883 827.17 841.4 826.705 843.248 826.705C845.251 826.705 846.856 827.203 848.062 828.199C849.28 829.184 849.889 830.474 849.889 832.067H847.896C847.896 831.016 847.454 830.142 846.568 829.444C845.694 828.747 844.587 828.398 843.248 828.398C841.942 828.398 840.891 828.692 840.094 829.278C839.308 829.854 838.915 830.606 838.915 831.536C838.915 832.433 839.242 833.13 839.895 833.628C840.559 834.115 841.759 834.563 843.497 834.973C845.246 835.382 846.552 835.819 847.415 836.284C848.289 836.749 848.937 837.308 849.357 837.961C849.778 838.614 849.988 839.405 849.988 840.335C849.988 841.851 849.374 843.063 848.146 843.971C846.928 844.878 845.334 845.332 843.364 845.332C841.272 845.332 839.574 844.828 838.268 843.821C836.973 842.803 836.325 841.519 836.325 839.97H838.317C838.395 841.132 838.882 842.039 839.778 842.692C840.686 843.334 841.881 843.655 843.364 843.655C844.748 843.655 845.866 843.351 846.718 842.742C847.57 842.133 847.996 841.364 847.996 840.435ZM857.414 835.853C857.414 833.041 858.034 830.817 859.273 829.179C860.524 827.53 862.228 826.705 864.386 826.705C866.81 826.705 868.653 827.629 869.915 829.478L870.014 827.037H871.874V851.906H869.882V842.775C868.576 844.48 866.733 845.332 864.353 845.332C862.25 845.332 860.568 844.502 859.306 842.842C858.045 841.182 857.414 838.94 857.414 836.118V835.853ZM859.423 836.201C859.423 838.525 859.887 840.352 860.817 841.68C861.758 842.997 863.058 843.655 864.719 843.655C867.098 843.655 868.819 842.62 869.882 840.551V831.752C869.384 830.678 868.692 829.854 867.806 829.278C866.932 828.692 865.914 828.398 864.752 828.398C863.08 828.398 861.774 829.062 860.834 830.391C859.893 831.708 859.423 833.645 859.423 836.201ZM892.464 842.726C891.269 844.463 889.36 845.332 886.737 845.332C884.822 845.332 883.367 844.779 882.371 843.672C881.375 842.554 880.865 840.905 880.843 838.725V827.037H882.819V838.476C882.819 841.896 884.202 843.605 886.969 843.605C889.847 843.605 891.668 842.416 892.431 840.036V827.037H894.423V845H892.498L892.464 842.726ZM914.682 845C914.483 844.436 914.355 843.6 914.3 842.493C913.603 843.401 912.712 844.104 911.627 844.602C910.554 845.089 909.414 845.332 908.207 845.332C906.481 845.332 905.081 844.851 904.007 843.888C902.945 842.925 902.413 841.707 902.413 840.235C902.413 838.487 903.138 837.103 904.588 836.085C906.049 835.067 908.08 834.558 910.681 834.558H914.283V832.516C914.283 831.232 913.885 830.225 913.088 829.494C912.302 828.753 911.151 828.382 909.635 828.382C908.252 828.382 907.106 828.736 906.198 829.444C905.291 830.153 904.837 831.005 904.837 832.001L902.845 831.984C902.845 830.557 903.509 829.323 904.837 828.282C906.165 827.231 907.798 826.705 909.735 826.705C911.738 826.705 913.315 827.209 914.466 828.216C915.628 829.212 916.226 830.606 916.259 832.399V840.899C916.259 842.637 916.442 843.938 916.807 844.801V845H914.682ZM908.44 843.572C909.768 843.572 910.952 843.251 911.992 842.609C913.044 841.967 913.808 841.11 914.283 840.036V836.085H910.731C908.75 836.107 907.2 836.472 906.082 837.181C904.964 837.878 904.406 838.841 904.406 840.069C904.406 841.076 904.776 841.912 905.518 842.576C906.27 843.24 907.244 843.572 908.44 843.572ZM933.612 828.73C933.192 828.653 932.744 828.614 932.268 828.614C931.028 828.614 929.977 828.963 929.113 829.66C928.261 830.346 927.652 831.348 927.287 832.665V845H925.312V827.037H927.254L927.287 829.893C928.339 827.768 930.026 826.705 932.351 826.705C932.904 826.705 933.341 826.777 933.662 826.921L933.612 828.73ZM947.131 845.332C945.603 845.332 944.22 844.956 942.98 844.203C941.752 843.451 940.794 842.405 940.108 841.065C939.422 839.715 939.079 838.204 939.079 836.533V835.819C939.079 834.093 939.411 832.538 940.075 831.154C940.75 829.771 941.685 828.686 942.881 827.9C944.076 827.104 945.371 826.705 946.765 826.705C948.946 826.705 950.672 827.452 951.945 828.946C953.229 830.429 953.871 832.46 953.871 835.039V836.151H941.055V836.533C941.055 838.57 941.636 840.269 942.798 841.63C943.971 842.98 945.443 843.655 947.214 843.655C948.276 843.655 949.211 843.462 950.019 843.074C950.838 842.687 951.58 842.067 952.244 841.215L953.489 842.161C952.028 844.275 949.909 845.332 947.131 845.332ZM946.765 828.398C945.271 828.398 944.01 828.946 942.98 830.042C941.962 831.138 941.342 832.61 941.121 834.458H951.895V834.242C951.84 832.516 951.347 831.11 950.418 830.025C949.488 828.941 948.271 828.398 946.765 828.398ZM972.237 840.435C972.237 839.45 971.838 838.658 971.042 838.061C970.256 837.463 969.066 836.998 967.472 836.666C965.878 836.323 964.639 835.936 963.753 835.504C962.879 835.061 962.226 834.524 961.794 833.894C961.374 833.263 961.164 832.499 961.164 831.603C961.164 830.186 961.756 829.018 962.94 828.1C964.124 827.17 965.641 826.705 967.489 826.705C969.492 826.705 971.097 827.203 972.303 828.199C973.521 829.184 974.129 830.474 974.129 832.067H972.137C972.137 831.016 971.695 830.142 970.809 829.444C969.935 828.747 968.828 828.398 967.489 828.398C966.183 828.398 965.131 828.692 964.335 829.278C963.549 829.854 963.156 830.606 963.156 831.536C963.156 832.433 963.482 833.13 964.135 833.628C964.799 834.115 966 834.563 967.738 834.973C969.487 835.382 970.793 835.819 971.656 836.284C972.53 836.749 973.178 837.308 973.598 837.961C974.019 838.614 974.229 839.405 974.229 840.335C974.229 841.851 973.615 843.063 972.386 843.971C971.169 844.878 969.575 845.332 967.605 845.332C965.513 845.332 963.814 844.828 962.508 843.821C961.213 842.803 960.566 841.519 960.566 839.97H962.558C962.636 841.132 963.123 842.039 964.019 842.692C964.927 843.334 966.122 843.655 967.605 843.655C968.989 843.655 970.106 843.351 970.959 842.742C971.811 842.133 972.237 841.364 972.237 840.435Z" fill="black"/>
<rect id="Rectangle 1" x="183" y="221" width="1000" height="500" stroke="#6100FF" stroke-width="20"/>
</g>
<g id="step-4-group">
<g id="step-4-template">
<path id="neutral_3" d="M682.5 215L977.382 725.75H387.618L682.5 215Z" stroke="#00FF00" stroke-width="100" stroke-linecap="round" stroke-linejoin="round"/>
<path id="good_3" d="M682.5 215L977.382 725.75H387.618L682.5 215Z" stroke="#0000FF" stroke-width="30" stroke-linecap="round" stroke-linejoin="round"/>
</g>
<g id="points">
<circle id="Ellipse 1" cx="682.5" cy="227.5" r="17.5" fill="#0000FF"/>
<circle id="Ellipse 2" cx="968.5" cy="722.5" r="17.5" fill="#0000FF"/>
<circle id="Ellipse 3" cx="398.5" cy="721.5" r="17.5" fill="#0000FF"/>
</g>
<path id="step-4-type" d="M547.171 557.463C546.894 560.008 545.981 561.956 544.432 563.307C542.893 564.657 540.84 565.332 538.272 565.332C536.479 565.332 534.891 564.884 533.508 563.987C532.135 563.091 531.073 561.824 530.32 560.186C529.568 558.536 529.186 556.655 529.175 554.541V551.403C529.175 549.256 529.551 547.353 530.304 545.692C531.056 544.032 532.135 542.754 533.541 541.857C534.958 540.95 536.585 540.496 538.422 540.496C541.012 540.496 543.054 541.199 544.548 542.604C546.053 543.999 546.927 545.93 547.171 548.398H545.112C544.603 544.292 542.373 542.239 538.422 542.239C536.23 542.239 534.482 543.058 533.176 544.696C531.881 546.334 531.233 548.598 531.233 551.486V554.441C531.233 557.23 531.864 559.455 533.126 561.115C534.399 562.775 536.114 563.605 538.272 563.605C540.409 563.605 542.019 563.096 543.104 562.078C544.188 561.049 544.858 559.51 545.112 557.463H547.171ZM554.314 555.753C554.314 554.026 554.646 552.471 555.31 551.088C555.985 549.704 556.932 548.631 558.149 547.867C559.378 547.092 560.767 546.705 562.316 546.705C564.707 546.705 566.644 547.546 568.127 549.229C569.61 550.9 570.351 553.119 570.351 555.886V556.301C570.351 558.038 570.014 559.604 569.339 560.999C568.675 562.382 567.734 563.451 566.516 564.203C565.299 564.956 563.91 565.332 562.349 565.332C559.97 565.332 558.033 564.496 556.539 562.825C555.056 561.143 554.314 558.918 554.314 556.151V555.753ZM556.306 556.301C556.306 558.448 556.86 560.213 557.967 561.597C559.084 562.969 560.545 563.655 562.349 563.655C564.142 563.655 565.592 562.969 566.699 561.597C567.817 560.213 568.376 558.393 568.376 556.135V555.753C568.376 554.381 568.121 553.124 567.612 551.984C567.103 550.844 566.389 549.965 565.47 549.345C564.552 548.714 563.5 548.398 562.316 548.398C560.545 548.398 559.101 549.096 557.983 550.49C556.865 551.874 556.306 553.689 556.306 555.936V556.301ZM580.101 547.037L580.167 550.108C580.843 549.002 581.684 548.16 582.691 547.585C583.698 546.998 584.81 546.705 586.028 546.705C587.954 546.705 589.387 547.247 590.328 548.332C591.268 549.417 591.744 551.044 591.755 553.213V565H589.78V553.196C589.769 551.591 589.426 550.396 588.751 549.61C588.086 548.825 587.018 548.432 585.546 548.432C584.318 548.432 583.228 548.819 582.276 549.594C581.335 550.357 580.638 551.392 580.184 552.698V565H578.209V547.037H580.101ZM602.534 547.037L602.601 550.108C603.276 549.002 604.117 548.16 605.124 547.585C606.131 546.998 607.244 546.705 608.461 546.705C610.387 546.705 611.82 547.247 612.761 548.332C613.702 549.417 614.178 551.044 614.189 553.213V565H612.213V553.196C612.202 551.591 611.859 550.396 611.184 549.61C610.52 548.825 609.452 548.432 607.98 548.432C606.751 548.432 605.661 548.819 604.709 549.594C603.769 550.357 603.071 551.392 602.617 552.698V565H600.642V547.037H602.534ZM630.031 565.332C628.504 565.332 627.12 564.956 625.881 564.203C624.652 563.451 623.695 562.405 623.009 561.065C622.323 559.715 621.98 558.204 621.98 556.533V555.819C621.98 554.093 622.312 552.538 622.976 551.154C623.651 549.771 624.586 548.686 625.781 547.9C626.977 547.104 628.272 546.705 629.666 546.705C631.846 546.705 633.573 547.452 634.846 548.946C636.13 550.429 636.772 552.46 636.772 555.039V556.151H623.955V556.533C623.955 558.57 624.536 560.269 625.698 561.63C626.871 562.98 628.343 563.655 630.114 563.655C631.177 563.655 632.112 563.462 632.92 563.074C633.739 562.687 634.481 562.067 635.145 561.215L636.39 562.161C634.929 564.275 632.809 565.332 630.031 565.332ZM629.666 548.398C628.172 548.398 626.91 548.946 625.881 550.042C624.863 551.138 624.243 552.61 624.022 554.458H634.796V554.242C634.741 552.516 634.248 551.11 633.318 550.025C632.389 548.941 631.171 548.398 629.666 548.398ZM651.02 563.655C652.404 563.655 653.56 563.268 654.49 562.493C655.431 561.707 655.94 560.695 656.017 559.455H657.927C657.871 560.551 657.528 561.552 656.897 562.46C656.266 563.356 655.425 564.059 654.374 564.568C653.333 565.077 652.216 565.332 651.02 565.332C648.663 565.332 646.792 564.513 645.409 562.875C644.037 561.237 643.35 559.035 643.35 556.268V555.67C643.35 553.899 643.66 552.333 644.28 550.972C644.9 549.61 645.785 548.559 646.936 547.817C648.098 547.076 649.454 546.705 651.004 546.705C652.974 546.705 654.595 547.292 655.868 548.465C657.152 549.638 657.838 551.182 657.927 553.097H656.017C655.929 551.691 655.42 550.557 654.49 549.693C653.571 548.83 652.409 548.398 651.004 548.398C649.211 548.398 647.816 549.046 646.82 550.341C645.835 551.636 645.343 553.451 645.343 555.786V556.367C645.343 558.658 645.835 560.446 646.82 561.729C647.816 563.013 649.216 563.655 651.02 563.655ZM668.739 542.438V547.037H672.458V548.664H668.739V560.634C668.739 561.63 668.916 562.371 669.27 562.858C669.635 563.345 670.239 563.589 671.08 563.589C671.412 563.589 671.948 563.534 672.69 563.423L672.773 565.05C672.253 565.238 671.544 565.332 670.648 565.332C669.287 565.332 668.296 564.939 667.676 564.153C667.057 563.356 666.747 562.189 666.747 560.65V548.664H663.443V547.037H666.747V542.438H668.739ZM695.41 542.438V547.037H699.129V548.664H695.41V560.634C695.41 561.63 695.587 562.371 695.941 562.858C696.307 563.345 696.91 563.589 697.751 563.589C698.083 563.589 698.62 563.534 699.361 563.423L699.444 565.05C698.924 565.238 698.216 565.332 697.319 565.332C695.958 565.332 694.968 564.939 694.348 564.153C693.728 563.356 693.418 562.189 693.418 560.65V548.664H690.114V547.037H693.418V542.438H695.41ZM708.962 550.075C709.615 549.002 710.45 548.172 711.469 547.585C712.487 546.998 713.599 546.705 714.806 546.705C716.731 546.705 718.165 547.247 719.105 548.332C720.046 549.417 720.522 551.044 720.533 553.213V565H718.557V553.196C718.546 551.591 718.203 550.396 717.528 549.61C716.864 548.825 715.796 548.432 714.324 548.432C713.096 548.432 712.005 548.819 711.054 549.594C710.113 550.357 709.416 551.392 708.962 552.698V565H706.986V539.5H708.962V550.075ZM736.342 565.332C734.815 565.332 733.432 564.956 732.192 564.203C730.963 563.451 730.006 562.405 729.32 561.065C728.634 559.715 728.291 558.204 728.291 556.533V555.819C728.291 554.093 728.623 552.538 729.287 551.154C729.962 549.771 730.897 548.686 732.092 547.9C733.288 547.104 734.583 546.705 735.977 546.705C738.157 546.705 739.884 547.452 741.157 548.946C742.441 550.429 743.083 552.46 743.083 555.039V556.151H730.266V556.533C730.266 558.57 730.847 560.269 732.009 561.63C733.183 562.98 734.655 563.655 736.425 563.655C737.488 563.655 738.423 563.462 739.231 563.074C740.05 562.687 740.792 562.067 741.456 561.215L742.701 562.161C741.24 564.275 739.12 565.332 736.342 565.332ZM735.977 548.398C734.483 548.398 733.221 548.946 732.192 550.042C731.174 551.138 730.554 552.61 730.333 554.458H741.107V554.242C741.052 552.516 740.559 551.11 739.629 550.025C738.7 548.941 737.482 548.398 735.977 548.398ZM761.901 555.853C761.901 553.063 762.521 550.844 763.761 549.195C765.012 547.535 766.705 546.705 768.841 546.705C771.265 546.705 773.113 547.662 774.386 549.577V539.5H776.361V565H774.502L774.419 562.609C773.146 564.424 771.276 565.332 768.808 565.332C766.738 565.332 765.067 564.502 763.794 562.842C762.532 561.171 761.901 558.918 761.901 556.085V555.853ZM763.91 556.201C763.91 558.492 764.37 560.302 765.288 561.63C766.207 562.947 767.502 563.605 769.173 563.605C771.619 563.605 773.357 562.526 774.386 560.368V551.935C773.357 549.599 771.63 548.432 769.206 548.432C767.535 548.432 766.234 549.09 765.305 550.407C764.375 551.713 763.91 553.645 763.91 556.201ZM784.235 555.753C784.235 554.026 784.567 552.471 785.231 551.088C785.906 549.704 786.853 548.631 788.07 547.867C789.299 547.092 790.688 546.705 792.237 546.705C794.628 546.705 796.565 547.546 798.048 549.229C799.531 550.9 800.272 553.119 800.272 555.886V556.301C800.272 558.038 799.935 559.604 799.26 560.999C798.596 562.382 797.655 563.451 796.437 564.203C795.22 564.956 793.831 565.332 792.27 565.332C789.891 565.332 787.954 564.496 786.46 562.825C784.977 561.143 784.235 558.918 784.235 556.151V555.753ZM786.227 556.301C786.227 558.448 786.781 560.213 787.888 561.597C789.005 562.969 790.466 563.655 792.27 563.655C794.063 563.655 795.513 562.969 796.62 561.597C797.738 560.213 798.297 558.393 798.297 556.135V555.753C798.297 554.381 798.042 553.124 797.533 551.984C797.024 550.844 796.31 549.965 795.391 549.345C794.473 548.714 793.421 548.398 792.237 548.398C790.466 548.398 789.022 549.096 787.904 550.49C786.786 551.874 786.227 553.689 786.227 555.936V556.301ZM811.217 542.438V547.037H814.936V548.664H811.217V560.634C811.217 561.63 811.394 562.371 811.749 562.858C812.114 563.345 812.717 563.589 813.558 563.589C813.89 563.589 814.427 563.534 815.169 563.423L815.252 565.05C814.731 565.238 814.023 565.332 813.127 565.332C811.765 565.332 810.775 564.939 810.155 564.153C809.535 563.356 809.225 562.189 809.225 560.65V548.664H805.922V547.037H809.225V542.438H811.217ZM833.551 560.435C833.551 559.45 833.153 558.658 832.356 558.061C831.57 557.463 830.38 556.998 828.787 556.666C827.193 556.323 825.953 555.936 825.068 555.504C824.193 555.061 823.54 554.524 823.109 553.894C822.688 553.263 822.478 552.499 822.478 551.603C822.478 550.186 823.07 549.018 824.254 548.1C825.439 547.17 826.955 546.705 828.803 546.705C830.806 546.705 832.411 547.203 833.618 548.199C834.835 549.184 835.444 550.474 835.444 552.067H833.452C833.452 551.016 833.009 550.142 832.123 549.444C831.249 548.747 830.142 548.398 828.803 548.398C827.497 548.398 826.446 548.692 825.649 549.278C824.863 549.854 824.47 550.606 824.47 551.536C824.47 552.433 824.797 553.13 825.45 553.628C826.114 554.115 827.315 554.563 829.052 554.973C830.801 555.382 832.107 555.819 832.97 556.284C833.844 556.749 834.492 557.308 834.913 557.961C835.333 558.614 835.543 559.405 835.543 560.335C835.543 561.851 834.929 563.063 833.701 563.971C832.483 564.878 830.889 565.332 828.919 565.332C826.828 565.332 825.129 564.828 823.823 563.821C822.528 562.803 821.88 561.519 821.88 559.97H823.872C823.95 561.132 824.437 562.039 825.333 562.692C826.241 563.334 827.436 563.655 828.919 563.655C830.303 563.655 831.421 563.351 832.273 562.742C833.125 562.133 833.551 561.364 833.551 560.435Z" fill="black"/>
</g>
<g id="step-3-group">
<g id="step-3-template">
<path id="newtral" d="M790.782 452.335C808.782 363.835 715.169 298.518 646.369 357.718C560.369 431.718 502.782 599.835 552.282 659.835C601.782 719.835 685.282 678.335 722.282 622.835C772.178 547.991 784.282 465.835 832.37 357.718C791.203 460.551 718.07 645.335 751.782 680.335C768.435 697.624 800.949 687.168 813.782 680.335" stroke="#00FF00" stroke-width="70" stroke-linecap="round" stroke-linejoin="round"/>
<path id="good_4" d="M790.782 452.335C808.782 363.835 715.169 298.518 646.369 357.718C560.369 431.718 502.782 599.835 552.282 659.835C601.782 719.835 685.282 678.335 722.282 622.835C772.178 547.991 784.282 465.835 832.37 357.718C791.203 460.551 718.07 645.335 751.782 680.335C768.435 697.624 800.949 687.168 813.782 680.335" stroke="#0000FF" stroke-width="30" stroke-linecap="round" stroke-linejoin="round"/>
</g>
<path id="step-3-draw-line" d="M790.782 452.335C808.782 363.835 715.169 298.518 646.369 357.718C560.369 431.718 502.782 599.835 552.282 659.835C601.782 719.835 685.282 678.335 722.282 622.835C772.178 547.991 784.282 465.835 832.37 357.718C791.203 460.551 718.07 645.335 751.782 680.335C768.435 697.624 800.949 687.168 813.782 680.335" stroke="#0000FF" stroke-width="10" stroke-linecap="round" stroke-linejoin="round"/>
<path id="asis" d="M565.5 310L609.856 297.121L576.525 265.147L565.5 310ZM813.043 308.143C797.656 278.788 779.594 258.907 760.044 246.57C740.468 234.217 719.619 229.566 698.924 230.337C657.706 231.874 617.217 254.889 587.765 281.031L593.075 287.014C621.799 261.519 660.579 239.772 699.222 238.332C718.458 237.615 737.686 241.921 755.774 253.335C773.887 264.765 791.073 283.462 805.957 311.857L813.043 308.143Z" fill="black"/>
</g>
<g id="step-2-group">
<g id="step-2-template">
<path id="neutral_4" d="M408 237H958V787H408V239.5" stroke="#00FF00" stroke-width="80" stroke-linecap="round" stroke-linejoin="round"/>
<path id="good_5" d="M408 237H958V787H408V239.5" stroke="#005BE3" stroke-width="30" stroke-linecap="round" stroke-linejoin="round"/>
</g>
<path id="step-2-draw-line" d="M408 237H958V787H408V239.5" stroke="#005BE3" stroke-width="8" stroke-linecap="round" stroke-linejoin="round"/>
<path id="step-2-type" d="M566.369 512.711H555.097V524H553.055V499.828H568.029V501.571H555.097V510.968H566.369V512.711ZM573.994 514.753C573.994 513.026 574.326 511.471 574.99 510.088C575.665 508.704 576.611 507.631 577.829 506.867C579.057 506.092 580.446 505.705 581.996 505.705C584.386 505.705 586.323 506.546 587.806 508.229C589.289 509.9 590.031 512.119 590.031 514.886V515.301C590.031 517.038 589.693 518.604 589.018 519.999C588.354 521.382 587.414 522.451 586.196 523.203C584.979 523.956 583.59 524.332 582.029 524.332C579.65 524.332 577.713 523.496 576.219 521.825C574.735 520.143 573.994 517.918 573.994 515.151V514.753ZM575.986 515.301C575.986 517.448 576.539 519.213 577.646 520.597C578.764 521.969 580.225 522.655 582.029 522.655C583.822 522.655 585.272 521.969 586.379 520.597C587.497 519.213 588.055 517.393 588.055 515.135V514.753C588.055 513.381 587.801 512.124 587.292 510.984C586.783 509.844 586.069 508.965 585.15 508.345C584.232 507.714 583.18 507.398 581.996 507.398C580.225 507.398 578.781 508.096 577.663 509.49C576.545 510.874 575.986 512.689 575.986 514.936V515.301ZM600.113 524H598.121V498.5H600.113V524ZM611.49 524H609.497V498.5H611.49V524ZM619.546 514.753C619.546 513.026 619.878 511.471 620.542 510.088C621.217 508.704 622.163 507.631 623.381 506.867C624.609 506.092 625.998 505.705 627.548 505.705C629.939 505.705 631.875 506.546 633.358 508.229C634.842 509.9 635.583 512.119 635.583 514.886V515.301C635.583 517.038 635.245 518.604 634.57 519.999C633.906 521.382 632.966 522.451 631.748 523.203C630.531 523.956 629.142 524.332 627.581 524.332C625.202 524.332 623.265 523.496 621.771 521.825C620.287 520.143 619.546 517.918 619.546 515.151V514.753ZM621.538 515.301C621.538 517.448 622.092 519.213 623.198 520.597C624.316 521.969 625.777 522.655 627.581 522.655C629.374 522.655 630.824 521.969 631.931 520.597C633.049 519.213 633.607 517.393 633.607 515.135V514.753C633.607 513.381 633.353 512.124 632.844 510.984C632.335 509.844 631.621 508.965 630.702 508.345C629.784 507.714 628.732 507.398 627.548 507.398C625.777 507.398 624.333 508.096 623.215 509.49C622.097 510.874 621.538 512.689 621.538 514.936V515.301ZM647.74 519.866L648.039 521.41L648.437 519.783L652.754 506.037H654.447L658.714 519.667L659.179 521.56L659.56 519.816L663.246 506.037H665.304L660.075 524H658.382L653.766 509.756L653.551 508.776L653.335 509.772L648.803 524H647.109L641.896 506.037H643.938L647.74 519.866ZM687.909 501.438V506.037H691.627V507.664H687.909V519.634C687.909 520.63 688.086 521.371 688.44 521.858C688.805 522.345 689.408 522.589 690.249 522.589C690.581 522.589 691.118 522.534 691.86 522.423L691.943 524.05C691.423 524.238 690.714 524.332 689.818 524.332C688.456 524.332 687.466 523.939 686.846 523.153C686.226 522.356 685.916 521.189 685.916 519.65V507.664H682.613V506.037H685.916V501.438H687.909ZM701.46 509.075C702.113 508.002 702.949 507.172 703.967 506.585C704.985 505.998 706.097 505.705 707.304 505.705C709.23 505.705 710.663 506.247 711.604 507.332C712.544 508.417 713.02 510.044 713.031 512.213V524H711.056V512.196C711.045 510.591 710.702 509.396 710.026 508.61C709.362 507.825 708.294 507.432 706.822 507.432C705.594 507.432 704.504 507.819 703.552 508.594C702.611 509.357 701.914 510.392 701.46 511.698V524H699.484V498.5H701.46V509.075ZM728.841 524.332C727.313 524.332 725.93 523.956 724.69 523.203C723.462 522.451 722.504 521.405 721.818 520.065C721.132 518.715 720.789 517.204 720.789 515.533V514.819C720.789 513.093 721.121 511.538 721.785 510.154C722.46 508.771 723.395 507.686 724.591 506.9C725.786 506.104 727.081 505.705 728.475 505.705C730.656 505.705 732.382 506.452 733.655 507.946C734.939 509.429 735.581 511.46 735.581 514.039V515.151H722.764V515.533C722.764 517.57 723.346 519.269 724.508 520.63C725.681 521.98 727.153 522.655 728.924 522.655C729.986 522.655 730.921 522.462 731.729 522.074C732.548 521.687 733.29 521.067 733.954 520.215L735.199 521.161C733.738 523.275 731.619 524.332 728.841 524.332ZM728.475 507.398C726.981 507.398 725.72 507.946 724.69 509.042C723.672 510.138 723.052 511.61 722.831 513.458H733.605V513.242C733.55 511.516 733.057 510.11 732.128 509.025C731.198 507.941 729.981 507.398 728.475 507.398ZM757.421 524H755.429V498.5H757.421V524ZM768.798 524H766.806V506.037H768.798V524ZM766.457 500.841C766.457 500.465 766.579 500.149 766.822 499.895C767.066 499.629 767.398 499.496 767.818 499.496C768.239 499.496 768.571 499.629 768.815 499.895C769.069 500.149 769.196 500.465 769.196 500.841C769.196 501.217 769.069 501.533 768.815 501.787C768.571 502.042 768.239 502.169 767.818 502.169C767.398 502.169 767.066 502.042 766.822 501.787C766.579 501.533 766.457 501.217 766.457 500.841ZM779.843 506.037L779.909 509.108C780.584 508.002 781.425 507.16 782.432 506.585C783.44 505.998 784.552 505.705 785.769 505.705C787.695 505.705 789.128 506.247 790.069 507.332C791.01 508.417 791.486 510.044 791.497 512.213V524H789.521V512.196C789.51 510.591 789.167 509.396 788.492 508.61C787.828 507.825 786.76 507.432 785.288 507.432C784.059 507.432 782.969 507.819 782.017 508.594C781.077 509.357 780.379 510.392 779.926 511.698V524H777.95V506.037H779.843ZM807.339 524.332C805.812 524.332 804.429 523.956 803.189 523.203C801.961 522.451 801.003 521.405 800.317 520.065C799.631 518.715 799.288 517.204 799.288 515.533V514.819C799.288 513.093 799.62 511.538 800.284 510.154C800.959 508.771 801.894 507.686 803.089 506.9C804.285 506.104 805.58 505.705 806.974 505.705C809.155 505.705 810.881 506.452 812.154 507.946C813.438 509.429 814.08 511.46 814.08 514.039V515.151H801.263V515.533C801.263 517.57 801.844 519.269 803.006 520.63C804.18 521.98 805.652 522.655 807.423 522.655C808.485 522.655 809.42 522.462 810.228 522.074C811.047 521.687 811.789 521.067 812.453 520.215L813.698 521.161C812.237 523.275 810.117 524.332 807.339 524.332ZM806.974 507.398C805.48 507.398 804.218 507.946 803.189 509.042C802.171 510.138 801.551 511.61 801.33 513.458H812.104V513.242C812.049 511.516 811.556 510.11 810.627 509.025C809.697 507.941 808.479 507.398 806.974 507.398Z" fill="black"/>
</g>
<g id="step-1-group">
<g id="step-1-template">
<path id="neutral_5" d="M77 872L1303 144" stroke="#00FF00" stroke-width="80" stroke-linecap="round"/>
<path id="good_6" d="M260 762.5L1106 261" stroke="#0000FF" stroke-width="30" stroke-linecap="round"/>
</g>
<path id="step-1-draw-line" d="M260 762.5L1106 261" stroke="#0000FF" stroke-width="10" stroke-linecap="round"/>
<path id="step-1-type" d="M276.369 281.711H265.097V293H263.055V268.828H278.029V270.571H265.097V279.968H276.369V281.711ZM283.994 283.753C283.994 282.026 284.326 280.471 284.99 279.088C285.665 277.704 286.611 276.631 287.829 275.867C289.057 275.092 290.446 274.705 291.996 274.705C294.386 274.705 296.323 275.546 297.806 277.229C299.289 278.9 300.031 281.119 300.031 283.886V284.301C300.031 286.038 299.693 287.604 299.018 288.999C298.354 290.382 297.414 291.451 296.196 292.203C294.979 292.956 293.59 293.332 292.029 293.332C289.65 293.332 287.713 292.496 286.219 290.825C284.735 289.143 283.994 286.918 283.994 284.151V283.753ZM285.986 284.301C285.986 286.448 286.539 288.213 287.646 289.597C288.764 290.969 290.225 291.655 292.029 291.655C293.822 291.655 295.272 290.969 296.379 289.597C297.497 288.213 298.055 286.393 298.055 284.135V283.753C298.055 282.381 297.801 281.124 297.292 279.984C296.783 278.844 296.069 277.965 295.15 277.345C294.232 276.714 293.18 276.398 291.996 276.398C290.225 276.398 288.781 277.096 287.663 278.49C286.545 279.874 285.986 281.689 285.986 283.936V284.301ZM310.113 293H308.121V267.5H310.113V293ZM321.49 293H319.497V267.5H321.49V293ZM329.546 283.753C329.546 282.026 329.878 280.471 330.542 279.088C331.217 277.704 332.163 276.631 333.381 275.867C334.609 275.092 335.998 274.705 337.548 274.705C339.939 274.705 341.875 275.546 343.358 277.229C344.842 278.9 345.583 281.119 345.583 283.886V284.301C345.583 286.038 345.245 287.604 344.57 288.999C343.906 290.382 342.966 291.451 341.748 292.203C340.531 292.956 339.142 293.332 337.581 293.332C335.202 293.332 333.265 292.496 331.771 290.825C330.287 289.143 329.546 286.918 329.546 284.151V283.753ZM331.538 284.301C331.538 286.448 332.092 288.213 333.198 289.597C334.316 290.969 335.777 291.655 337.581 291.655C339.374 291.655 340.824 290.969 341.931 289.597C343.049 288.213 343.607 286.393 343.607 284.135V283.753C343.607 282.381 343.353 281.124 342.844 279.984C342.335 278.844 341.621 277.965 340.702 277.345C339.784 276.714 338.732 276.398 337.548 276.398C335.777 276.398 334.333 277.096 333.215 278.49C332.097 279.874 331.538 281.689 331.538 283.936V284.301ZM357.74 288.866L358.039 290.41L358.437 288.783L362.754 275.037H364.447L368.714 288.667L369.179 290.56L369.56 288.816L373.246 275.037H375.304L370.075 293H368.382L363.766 278.756L363.551 277.776L363.335 278.772L358.803 293H357.109L351.896 275.037H353.938L357.74 288.866ZM397.909 270.438V275.037H401.627V276.664H397.909V288.634C397.909 289.63 398.086 290.371 398.44 290.858C398.805 291.345 399.408 291.589 400.249 291.589C400.581 291.589 401.118 291.534 401.86 291.423L401.943 293.05C401.423 293.238 400.714 293.332 399.818 293.332C398.456 293.332 397.466 292.939 396.846 292.153C396.226 291.356 395.916 290.189 395.916 288.65V276.664H392.613V275.037H395.916V270.438H397.909ZM411.46 278.075C412.113 277.002 412.949 276.172 413.967 275.585C414.985 274.998 416.097 274.705 417.304 274.705C419.23 274.705 420.663 275.247 421.604 276.332C422.544 277.417 423.02 279.044 423.031 281.213V293H421.056V281.196C421.045 279.591 420.702 278.396 420.026 277.61C419.362 276.825 418.294 276.432 416.822 276.432C415.594 276.432 414.504 276.819 413.552 277.594C412.611 278.357 411.914 279.392 411.46 280.698V293H409.484V267.5H411.46V278.075ZM438.841 293.332C437.313 293.332 435.93 292.956 434.69 292.203C433.462 291.451 432.504 290.405 431.818 289.065C431.132 287.715 430.789 286.204 430.789 284.533V283.819C430.789 282.093 431.121 280.538 431.785 279.154C432.46 277.771 433.395 276.686 434.591 275.9C435.786 275.104 437.081 274.705 438.475 274.705C440.656 274.705 442.382 275.452 443.655 276.946C444.939 278.429 445.581 280.46 445.581 283.039V284.151H432.764V284.533C432.764 286.57 433.346 288.269 434.508 289.63C435.681 290.98 437.153 291.655 438.924 291.655C439.986 291.655 440.921 291.462 441.729 291.074C442.548 290.687 443.29 290.067 443.954 289.215L445.199 290.161C443.738 292.275 441.619 293.332 438.841 293.332ZM438.475 276.398C436.981 276.398 435.72 276.946 434.69 278.042C433.672 279.138 433.052 280.61 432.831 282.458H443.605V282.242C443.55 280.516 443.057 279.11 442.128 278.025C441.198 276.941 439.981 276.398 438.475 276.398ZM467.421 293H465.429V267.5H467.421V293ZM478.798 293H476.806V275.037H478.798V293ZM476.457 269.841C476.457 269.465 476.579 269.149 476.822 268.895C477.066 268.629 477.398 268.496 477.818 268.496C478.239 268.496 478.571 268.629 478.815 268.895C479.069 269.149 479.196 269.465 479.196 269.841C479.196 270.217 479.069 270.533 478.815 270.787C478.571 271.042 478.239 271.169 477.818 271.169C477.398 271.169 477.066 271.042 476.822 270.787C476.579 270.533 476.457 270.217 476.457 269.841ZM489.843 275.037L489.909 278.108C490.584 277.002 491.425 276.16 492.432 275.585C493.44 274.998 494.552 274.705 495.769 274.705C497.695 274.705 499.128 275.247 500.069 276.332C501.01 277.417 501.486 279.044 501.497 281.213V293H499.521V281.196C499.51 279.591 499.167 278.396 498.492 277.61C497.828 276.825 496.76 276.432 495.288 276.432C494.059 276.432 492.969 276.819 492.017 277.594C491.077 278.357 490.379 279.392 489.926 280.698V293H487.95V275.037H489.843ZM517.339 293.332C515.812 293.332 514.429 292.956 513.189 292.203C511.961 291.451 511.003 290.405 510.317 289.065C509.631 287.715 509.288 286.204 509.288 284.533V283.819C509.288 282.093 509.62 280.538 510.284 279.154C510.959 277.771 511.894 276.686 513.089 275.9C514.285 275.104 515.58 274.705 516.974 274.705C519.155 274.705 520.881 275.452 522.154 276.946C523.438 278.429 524.08 280.46 524.08 283.039V284.151H511.263V284.533C511.263 286.57 511.844 288.269 513.006 289.63C514.18 290.98 515.652 291.655 517.423 291.655C518.485 291.655 519.42 291.462 520.228 291.074C521.047 290.687 521.789 290.067 522.453 289.215L523.698 290.161C522.237 292.275 520.117 293.332 517.339 293.332ZM516.974 276.398C515.48 276.398 514.218 276.946 513.189 278.042C512.171 279.138 511.551 280.61 511.33 282.458H522.104V282.242C522.049 280.516 521.556 279.11 520.627 278.025C519.697 276.941 518.479 276.398 516.974 276.398Z" fill="black"/>
</g>
</g>
</svg>
