<svg width="1366" height="1024" viewBox="0 0 1366 1024" fill="none" xmlns="http://www.w3.org/2000/svg">
<g id="1" clip-path="url(#clip0)">
<g id="step-2">
<g id="input">
<path id="draw-line d3" d="M683 683.126C714.217 683.126 744.158 695.514 766.25 717.571C788.341 739.627 800.776 769.549 800.825 800.766C800.874 831.983 788.533 861.944 766.511 884.07C744.489 906.196 714.587 918.678 683.37 918.776C652.153 918.874 622.173 906.58 600.013 884.593C577.852 862.606 565.323 832.723 565.176 801.507C565.029 770.29 577.276 740.29 599.228 718.096C621.18 695.901 651.043 683.324 682.26 683.128" stroke="#AAAAFF" stroke-width="10" stroke-linecap="round"/>
<text id="appear d2" fill="black" xml:space="preserve" style="white-space: pre" font-family="Roboto" font-size="31" letter-spacing="0.09em"><tspan x="280.507" y="584.764">Trace </tspan><tspan x="381.71" y="584.764">the </tspan><tspan x="444.214" y="584.764">circle </tspan><tspan x="545.603" y="584.764">and </tspan><tspan x="615.917" y="584.764">notice </tspan><tspan x="728.266" y="584.764">how </tspan><tspan x="805.18" y="584.764">the </tspan><tspan x="867.683" y="584.764">bar </tspan><tspan x="931.307" y="584.764">fills </tspan><tspan x="1001.17" y="584.764">up.</tspan></text>
<g id="appear">
<g id="a">
<text fill="black" xml:space="preserve" style="white-space: pre" font-family="Roboto" font-size="31" letter-spacing="0.09em"><tspan x="749.521" y="418.818"> highlights your mistakes.</tspan></text>
<text fill="#BB0000" xml:space="preserve" style="white-space: pre" font-family="Roboto" font-size="31" letter-spacing="0.09em"><tspan x="688.112" y="418.818">Red</tspan></text>
</g>
<g id="a_2">
<text fill="black" xml:space="preserve" style="white-space: pre" font-family="Roboto" font-size="31" letter-spacing="0.09em"><tspan x="266.264" y="312.425"> </tspan><tspan x="276.744" y="312.425">means </tspan><tspan x="394.749" y="312.425">you&#x2019;re </tspan><tspan x="504.039" y="312.425">doing </tspan><tspan x="605.696" y="312.425">well </tspan></text>
<text fill="#00AA00" xml:space="preserve" style="white-space: pre" font-family="Roboto" font-size="31" letter-spacing="0.09em"><tspan x="171" y="312.425">Green</tspan></text>
</g>
<rect id="Rectangle 10" x="171" y="341.44" width="1024" height="20" fill="#C4C4C4"/>
<rect id="Rectangle 11" x="171" y="341.44" width="521.598" height="20" fill="#00FF00"/>
<path id="Rectangle 12" d="M688.112 341.44H831.424V361.44H688.112V341.44Z" fill="#FF0000"/>
</g>
<text id="appear_2" fill="black" xml:space="preserve" style="white-space: pre" font-family="Roboto" font-size="31" letter-spacing="0.09em"><tspan x="404.576" y="110.452">This is your current step progress</tspan></text>
<path id="appear_3" d="M561.712 0.457665C562.102 0.067141 562.735 0.067141 563.126 0.457665L569.49 6.82163C569.88 7.21215 569.88 7.84532 569.49 8.23584C569.099 8.62636 568.466 8.62636 568.076 8.23584L562.419 2.57899L556.762 8.23584C556.371 8.62636 555.738 8.62636 555.348 8.23584C554.957 7.84532 554.957 7.21215 555.348 6.82163L561.712 0.457665ZM563.419 1.16477C563.419 17.4206 556.133 28.0191 545.272 35.446C534.483 42.8234 520.152 47.0841 505.996 50.7999C491.757 54.5374 477.729 57.7189 467.219 62.9003C461.982 65.4822 457.697 68.5264 454.723 72.3164C451.764 76.0867 450.066 80.6416 450.066 86.3352H448.066C448.066 80.2023 449.909 75.2108 453.15 71.0817C456.374 66.9722 460.945 63.7638 466.335 61.1065C477.079 55.8096 491.389 52.5664 505.488 48.8654C519.671 45.1427 533.678 40.9512 544.143 33.7951C554.536 26.6885 561.419 16.6724 561.419 1.16477H563.419Z" fill="black"/>
</g>
<g id="template">
<circle id="Ellipse 6" cx="683" cy="800.951" r="117.825" stroke="#00FF00" stroke-width="80"/>
<circle id="Ellipse 6_2" cx="683" cy="800.951" r="117.825" stroke="#0000FF" stroke-width="10"/>
</g>
</g>
</g>
<defs>
<clipPath id="clip0">
<rect width="1366" height="1024" fill="white"/>
</clipPath>
</defs>
</svg>
