<svg width="1366" height="1024" viewBox="0 0 1366 1024" fill="none" xmlns="http://www.w3.org/2000/svg">
<g id="1" clip-path="url(#clip0)">
<g id="step-16">
<g id="input">
<g id="Group 7">
<rect id="appear d1" x="1218.5" y="876.5" width="95" height="95" stroke="#999999" stroke-width="5"/>
<path id="draw-line d5" d="M1232 918C1261.2 949.2 1261 959.5 1261 959.5C1261 959.5 1290 886 1312 860" stroke="#0000FF" stroke-opacity="0.1" stroke-width="10" stroke-linecap="round" stroke-linejoin="round"/>
</g>
<text id="appear" fill="black" xml:space="preserve" style="white-space: pre" font-family="Roboto" font-size="31" letter-spacing="0.09em"><tspan x="283" y="82.5957">&#x41f;&#x43e;&#x437;&#x434;&#x440;&#x430;&#x432;&#x43b;&#x44f;&#x44e; </tspan><tspan x="513.18" y="82.5957">&#x441; </tspan><tspan x="547.992" y="82.5957">&#x43f;&#x440;&#x43e;&#x445;&#x43e;&#x436;&#x434;&#x435;&#x43d;&#x438;&#x435;&#x43c; </tspan><tspan x="816.447" y="82.5957">&#x44d;&#x442;&#x43e;&#x433;&#x43e; </tspan><tspan x="923.995" y="82.5957">&#x432;&#x432;&#x43e;&#x434;&#x43d;&#x43e;&#x433;&#x43e; </tspan><tspan x="283" y="118.596">&#x443;&#x440;&#x43e;&#x43a;&#x430;!&#10;</tspan><tspan x="283" y="179.596">&#x422;&#x435;&#x43f;&#x435;&#x440;&#x44c; </tspan><tspan x="426.921" y="179.596">&#x432;&#x44b; </tspan><tspan x="499.468" y="179.596">&#x43c;&#x43e;&#x436;&#x435;&#x442;&#x435; </tspan><tspan x="651.563" y="179.596">&#x43d;&#x430;&#x440;&#x438;&#x441;&#x43e;&#x432;&#x430;&#x442;&#x44c; </tspan><tspan x="874.668" y="179.596">&#x447;&#x442;&#x43e; </tspan><tspan x="957.029" y="179.596">&#x443;&#x433;&#x43e;&#x434;&#x43d;&#x43e;. </tspan><tspan x="283" y="215.596">&#x41f;&#x43e;&#x441;&#x442;&#x430;&#x432;&#x44c;&#x442;&#x435; </tspan><tspan x="469.745" y="215.596">&#x433;&#x430;&#x43b;&#x43e;&#x447;&#x43a;&#x443;, </tspan><tspan x="620.762" y="215.596">&#x447;&#x442;&#x43e;&#x431;&#x44b; </tspan><tspan x="735.194" y="215.596">&#x437;&#x430;&#x432;&#x435;&#x440;&#x448;&#x438;&#x442;&#x44c;.</tspan></text>
</g>
<g id="template">
<rect id="Rectangle 6" x="1191" y="849" width="150" height="150" fill="#0000FF" stroke="#00FF00" stroke-width="50"/>
</g>
</g>
<g id="step-15">
<g id="input_2">
<g id="Group 7_2">
<rect id="appear d1_2" x="1218.5" y="876.5" width="95" height="95" stroke="#999999" stroke-width="5"/>
<path id="draw-line d3" d="M1232 918C1261.2 949.2 1261 959.5 1261 959.5C1261 959.5 1290 886 1312 860" stroke="#0000FF" stroke-opacity="0.1" stroke-width="10" stroke-linecap="round" stroke-linejoin="round"/>
</g>
<text id="appear_2" fill="black" xml:space="preserve" style="white-space: pre" font-family="Roboto" font-size="31" letter-spacing="0.09em"><tspan x="613.326" y="82.5957">&#x425;&#x43e;&#x440;&#x43e;&#x448;&#x43e;!&#10;</tspan><tspan x="465.853" y="143.596">&#x412;&#x43e;&#x442; &#x43a;&#x430;&#x43a;&#x43e;&#x439; &#x43a;&#x443;&#x431; &#x43f;&#x43e;&#x43b;&#x443;&#x447;&#x438;&#x43b;&#x441;&#x44f;:</tspan></text>
</g>
<g id="template_2">
<rect id="Rectangle 6_2" x="1191" y="849" width="150" height="150" fill="#0000FF" stroke="#00FF00" stroke-width="50"/>
</g>
</g>
<g id="step-14">
<g id="input_3">
<path id="a" d="M745.5 564.5V871.5" stroke="#AAAAFF" stroke-width="7" stroke-linecap="round"/>
<path id="a_2" d="M745.5 565.5L420 520" stroke="#AAAAFF" stroke-width="7" stroke-linecap="round"/>
<path id="a_3" d="M746 565L869 404" stroke="#AAAAFF" stroke-width="7" stroke-linecap="round"/>
<path id="a_4" d="M419 520L419.5 813.5" stroke="#AAAAFF" stroke-width="7" stroke-linecap="round"/>
<path id="a_5" d="M745.5 872L419.5 815.5" stroke="#AAAAFF" stroke-width="7" stroke-linecap="round"/>
<path id="a_6" d="M869.5 404L869 675" stroke="#AAAAFF" stroke-width="7" stroke-linecap="round"/>
<path id="a_7" d="M746 871L869 675" stroke="#AAAAFF" stroke-width="7" stroke-linecap="round"/>
<path id="draw-line" d="M419 520L580 366" stroke="#AAAAFF" stroke-width="7" stroke-linecap="round"/>
<path id="draw-line d2 flip" d="M869 401.5L580.5 366" stroke="#AAAAFF" stroke-width="7" stroke-linecap="round"/>
<text id="a_8" fill="black" xml:space="preserve" style="white-space: pre" font-family="Roboto" font-size="31" letter-spacing="0.09em"><tspan x="283" y="144.596">&#x41e;&#x442;&#x43b;&#x438;&#x447;&#x43d;&#x43e;!&#10;</tspan><tspan x="283" y="205.596">&#x422;&#x435;&#x43f;&#x435;&#x440;&#x44c; </tspan><tspan x="412.211" y="205.596">&#x43d;&#x430;&#x440;&#x438;&#x441;&#x443;&#x439;&#x442;&#x435; </tspan><tspan x="596.776" y="205.596">&#x43a;&#x443;&#x431; </tspan><tspan x="664.184" y="205.596">&#x43f;&#x43e; </tspan><tspan x="715.814" y="205.596">&#x448;&#x430;&#x433;&#x430;&#x43c;.&#10;</tspan><tspan x="283" y="266.596">&#x412;&#x44b; </tspan><tspan x="360.132" y="266.596">&#x43c;&#x43e;&#x436;&#x435;&#x442;&#x435; </tspan><tspan x="515.208" y="266.596">&#x431;&#x44b;&#x442;&#x44c; </tspan><tspan x="627.467" y="266.596">&#x43d;&#x435;&#x430;&#x43a;&#x43a;&#x443;&#x440;&#x430;&#x442;&#x43d;&#x44b; </tspan><tspan x="876.566" y="266.596">&#x438; </tspan><tspan x="925.418" y="266.596">&#x440;&#x438;&#x441;&#x43e;&#x432;&#x430;&#x442;&#x44c; </tspan><tspan x="283" y="302.596">&#x43f;&#x43e;&#x432;&#x435;&#x440;&#x445; </tspan><tspan x="412.483" y="302.596">&#x441;&#x432;&#x43e;&#x438;&#x445; </tspan><tspan x="521.799" y="302.596">&#x43b;&#x438;&#x43d;&#x438;&#x439;.</tspan></text>
</g>
<g id="template_3">
<path id="draw-line_2" d="M745.5 564.5V871.5" stroke="#00FF00" stroke-width="100" stroke-linecap="round"/>
<path id="draw-line d1" d="M745.5 565.5L420 520" stroke="#00FF00" stroke-width="100" stroke-linecap="round"/>
<path id="draw-line d2" d="M746 565L869 404" stroke="#00FF00" stroke-width="100" stroke-linecap="round"/>
<path id="Vector 10" d="M419 520L419.5 813.5" stroke="#00FF00" stroke-width="100" stroke-linecap="round"/>
<path id="Vector 11" d="M745.5 872L419.5 815.5" stroke="#00FF00" stroke-width="100" stroke-linecap="round"/>
<path id="Vector 12" d="M869.5 404L869 675" stroke="#00FF00" stroke-width="100" stroke-linecap="round"/>
<path id="Vector 13" d="M746 871L869 675" stroke="#00FF00" stroke-width="100" stroke-linecap="round"/>
<path id="Vector 14" d="M419 520L580 366" stroke="#00FF00" stroke-width="100" stroke-linecap="round"/>
<path id="Vector 15" d="M869 401.5L580.5 366" stroke="#00FF00" stroke-width="100" stroke-linecap="round"/>
<path id="Vector 14_2" d="M419 520L580 366" stroke="#0000FF" stroke-width="7" stroke-linecap="round"/>
<path id="Vector 15_2" d="M869 401.5L580.5 366" stroke="#0000FF" stroke-width="7" stroke-linecap="round"/>
</g>
</g>
<g id="step-13">
<g id="input_4">
<path id="a_9" d="M745.5 564.5V871.5" stroke="#AAAAFF" stroke-width="7" stroke-linecap="round"/>
<path id="a_10" d="M745.5 565.5L420 520" stroke="#AAAAFF" stroke-width="7" stroke-linecap="round"/>
<path id="a_11" d="M746 565L869 404" stroke="#AAAAFF" stroke-width="7" stroke-linecap="round"/>
<path id="a_12" d="M419 520L419.5 813.5" stroke="#AAAAFF" stroke-width="7" stroke-linecap="round"/>
<path id="a_13" d="M745.5 872L419.5 815.5" stroke="#AAAAFF" stroke-width="7" stroke-linecap="round"/>
<path id="draw-line_3" d="M869.5 404L869 675" stroke="#AAAAFF" stroke-width="7" stroke-linecap="round"/>
<path id="draw-line d2_2" d="M746 871L869 675" stroke="#AAAAFF" stroke-width="7" stroke-linecap="round"/>
<text id="a_14" fill="black" xml:space="preserve" style="white-space: pre" font-family="Roboto" font-size="31" letter-spacing="0.09em"><tspan x="283" y="144.596">&#x41e;&#x442;&#x43b;&#x438;&#x447;&#x43d;&#x43e;!&#10;</tspan><tspan x="283" y="205.596">&#x422;&#x435;&#x43f;&#x435;&#x440;&#x44c; </tspan><tspan x="412.211" y="205.596">&#x43d;&#x430;&#x440;&#x438;&#x441;&#x443;&#x439;&#x442;&#x435; </tspan><tspan x="596.776" y="205.596">&#x43a;&#x443;&#x431; </tspan><tspan x="664.184" y="205.596">&#x43f;&#x43e; </tspan><tspan x="715.814" y="205.596">&#x448;&#x430;&#x433;&#x430;&#x43c;.&#10;</tspan><tspan x="283" y="266.596">&#x412;&#x44b; </tspan><tspan x="360.132" y="266.596">&#x43c;&#x43e;&#x436;&#x435;&#x442;&#x435; </tspan><tspan x="515.208" y="266.596">&#x431;&#x44b;&#x442;&#x44c; </tspan><tspan x="627.467" y="266.596">&#x43d;&#x435;&#x430;&#x43a;&#x43a;&#x443;&#x440;&#x430;&#x442;&#x43d;&#x44b; </tspan><tspan x="876.566" y="266.596">&#x438; </tspan><tspan x="925.418" y="266.596">&#x440;&#x438;&#x441;&#x43e;&#x432;&#x430;&#x442;&#x44c; </tspan><tspan x="283" y="302.596">&#x43f;&#x43e;&#x432;&#x435;&#x440;&#x445; </tspan><tspan x="412.483" y="302.596">&#x441;&#x432;&#x43e;&#x438;&#x445; </tspan><tspan x="521.799" y="302.596">&#x43b;&#x438;&#x43d;&#x438;&#x439;.</tspan></text>
</g>
<g id="template_4">
<path id="draw-line_4" d="M745.5 564.5V871.5" stroke="#00FF00" stroke-width="100" stroke-linecap="round"/>
<path id="draw-line d1_2" d="M745.5 565.5L420 520" stroke="#00FF00" stroke-width="100" stroke-linecap="round"/>
<path id="draw-line d2_3" d="M746 565L869 404" stroke="#00FF00" stroke-width="100" stroke-linecap="round"/>
<path id="Vector 10_2" d="M419 520L419.5 813.5" stroke="#00FF00" stroke-width="100" stroke-linecap="round"/>
<path id="Vector 11_2" d="M745.5 872L419.5 815.5" stroke="#00FF00" stroke-width="100" stroke-linecap="round"/>
<path id="Vector 12_2" d="M869.5 404L869 675" stroke="#00FF00" stroke-width="100" stroke-linecap="round"/>
<path id="Vector 13_2" d="M746 871L869 675" stroke="#00FF00" stroke-width="100" stroke-linecap="round"/>
<path id="Vector 12_3" d="M869.5 404L869 675" stroke="#0000FF" stroke-width="7" stroke-linecap="round"/>
<path id="Vector 13_3" d="M746 871L869 675" stroke="#0000FF" stroke-width="7" stroke-linecap="round"/>
</g>
</g>
<g id="step-12">
<g id="input_5">
<path id="a_15" d="M745.5 564.5V871.5" stroke="#AAAAFF" stroke-width="7" stroke-linecap="round"/>
<path id="a_16" d="M745.5 565.5L420 520" stroke="#AAAAFF" stroke-width="7" stroke-linecap="round"/>
<path id="a_17" d="M746 565L869 404" stroke="#AAAAFF" stroke-width="7" stroke-linecap="round"/>
<path id="draw-line_5" d="M419 520L419.5 813.5" stroke="#AAAAFF" stroke-width="7" stroke-linecap="round"/>
<path id="draw-line d2 flip_2" d="M745.5 872L419.5 815.5" stroke="#AAAAFF" stroke-width="7" stroke-linecap="round"/>
<text id="a_18" fill="black" xml:space="preserve" style="white-space: pre" font-family="Roboto" font-size="31" letter-spacing="0.09em"><tspan x="283" y="144.596">&#x41e;&#x442;&#x43b;&#x438;&#x447;&#x43d;&#x43e;!&#10;</tspan><tspan x="283" y="205.596">&#x422;&#x435;&#x43f;&#x435;&#x440;&#x44c; </tspan><tspan x="412.211" y="205.596">&#x43d;&#x430;&#x440;&#x438;&#x441;&#x443;&#x439;&#x442;&#x435; </tspan><tspan x="596.776" y="205.596">&#x43a;&#x443;&#x431; </tspan><tspan x="664.184" y="205.596">&#x43f;&#x43e; </tspan><tspan x="715.814" y="205.596">&#x448;&#x430;&#x433;&#x430;&#x43c;.&#10;</tspan><tspan x="283" y="266.596">&#x412;&#x44b; </tspan><tspan x="360.132" y="266.596">&#x43c;&#x43e;&#x436;&#x435;&#x442;&#x435; </tspan><tspan x="515.208" y="266.596">&#x431;&#x44b;&#x442;&#x44c; </tspan><tspan x="627.467" y="266.596">&#x43d;&#x435;&#x430;&#x43a;&#x43a;&#x443;&#x440;&#x430;&#x442;&#x43d;&#x44b; </tspan><tspan x="876.566" y="266.596">&#x438; </tspan><tspan x="925.418" y="266.596">&#x440;&#x438;&#x441;&#x43e;&#x432;&#x430;&#x442;&#x44c; </tspan><tspan x="283" y="302.596">&#x43f;&#x43e;&#x432;&#x435;&#x440;&#x445; </tspan><tspan x="412.483" y="302.596">&#x441;&#x432;&#x43e;&#x438;&#x445; </tspan><tspan x="521.799" y="302.596">&#x43b;&#x438;&#x43d;&#x438;&#x439;.</tspan></text>
</g>
<g id="template_5">
<path id="draw-line_6" d="M745.5 564.5V871.5" stroke="#00FF00" stroke-width="100" stroke-linecap="round"/>
<path id="draw-line d1_3" d="M745.5 565.5L420 520" stroke="#00FF00" stroke-width="100" stroke-linecap="round"/>
<path id="draw-line d2_4" d="M746 565L869 404" stroke="#00FF00" stroke-width="100" stroke-linecap="round"/>
<path id="Vector 10_3" d="M419 520L419.5 813.5" stroke="#00FF00" stroke-width="100" stroke-linecap="round"/>
<path id="Vector 11_3" d="M745.5 872L419.5 815.5" stroke="#00FF00" stroke-width="100" stroke-linecap="round"/>
<path id="Vector 10_4" d="M419 520L419.5 813.5" stroke="#0000FF" stroke-width="7" stroke-linecap="round"/>
<path id="Vector 11_4" d="M745.5 872L419.5 815.5" stroke="#0000FF" stroke-width="7" stroke-linecap="round"/>
</g>
</g>
<g id="step-11">
<g id="input_6">
<path id="draw-line d1_4" d="M745.5 564.5V871.5" stroke="#AAAAFF" stroke-width="7" stroke-linecap="round"/>
<path id="draw-line d3_2" d="M745.5 565.5L420 520" stroke="#AAAAFF" stroke-width="7" stroke-linecap="round"/>
<path id="draw-line d5_2" d="M746 565L869 404" stroke="#AAAAFF" stroke-width="7" stroke-linecap="round"/>
<text id="appear_3" fill="black" xml:space="preserve" style="white-space: pre" font-family="Roboto" font-size="31" letter-spacing="0.09em"><tspan x="283" y="144.596">&#x41e;&#x442;&#x43b;&#x438;&#x447;&#x43d;&#x43e;!&#10;</tspan><tspan x="283" y="205.596">&#x422;&#x435;&#x43f;&#x435;&#x440;&#x44c; </tspan><tspan x="412.211" y="205.596">&#x43d;&#x430;&#x440;&#x438;&#x441;&#x443;&#x439;&#x442;&#x435; </tspan><tspan x="596.776" y="205.596">&#x43a;&#x443;&#x431; </tspan><tspan x="664.184" y="205.596">&#x43f;&#x43e; </tspan><tspan x="715.814" y="205.596">&#x448;&#x430;&#x433;&#x430;&#x43c;.&#10;</tspan><tspan x="283" y="266.596">&#x412;&#x44b; </tspan><tspan x="360.132" y="266.596">&#x43c;&#x43e;&#x436;&#x435;&#x442;&#x435; </tspan><tspan x="515.208" y="266.596">&#x431;&#x44b;&#x442;&#x44c; </tspan><tspan x="627.467" y="266.596">&#x43d;&#x435;&#x430;&#x43a;&#x43a;&#x443;&#x440;&#x430;&#x442;&#x43d;&#x44b; </tspan><tspan x="876.566" y="266.596">&#x438; </tspan><tspan x="925.418" y="266.596">&#x440;&#x438;&#x441;&#x43e;&#x432;&#x430;&#x442;&#x44c; </tspan><tspan x="283" y="302.596">&#x43f;&#x43e;&#x432;&#x435;&#x440;&#x445; </tspan><tspan x="412.483" y="302.596">&#x441;&#x432;&#x43e;&#x438;&#x445; </tspan><tspan x="521.799" y="302.596">&#x43b;&#x438;&#x43d;&#x438;&#x439;.</tspan></text>
</g>
<g id="template_6">
<path id="draw-line_7" d="M745.5 564.5V871.5" stroke="#00FF00" stroke-width="100" stroke-linecap="round"/>
<path id="draw-line d1_5" d="M745.5 565.5L420 520" stroke="#00FF00" stroke-width="100" stroke-linecap="round"/>
<path id="draw-line d2_5" d="M746 565L869 404" stroke="#00FF00" stroke-width="100" stroke-linecap="round"/>
<path id="draw-line_8" d="M745.5 564.5V871.5" stroke="#0000FF" stroke-width="7" stroke-linecap="round"/>
<path id="draw-line d1_6" d="M745.5 565.5L420 520" stroke="#0000FF" stroke-width="7" stroke-linecap="round"/>
<path id="draw-line d2_6" d="M746 565L869 404" stroke="#0000FF" stroke-width="7" stroke-linecap="round"/>
</g>
</g>
<g id="step-10">
<g id="input_7">
<path id="appear d4" d="M505.375 897.5C495.875 880 501.073 674.776 505.375 589.161C496.317 575.372 847.769 577.916 860.706 583.517C873.644 589.117 860.745 905.001 860.745 905.001C790.955 901 646.662 902.187 505.375 897.5Z" stroke="black" stroke-width="5"/>
<path id="appear d3" d="M148 518H1218.5" stroke="#999999" stroke-width="5"/>
<path id="appear d1_3" d="M521.805 314.239C542.972 276.887 590.469 261.63 662.231 259C704.221 261.806 796.669 271.731 830.536 288.987C872.871 310.556 841.378 406.83 830.536 442.603C819.694 478.377 662.231 465.751 588.92 460.49C515.61 455.229 500.638 351.591 521.805 314.239Z" stroke="#999999" stroke-width="6"/>
<path id="draw-line d2_7" d="M525.884 328.685L620.525 271.595M522.807 365.63L682.668 268.944M525.884 400.881L736.609 272.595M544.195 424.651L780.168 283.244M569.583 445.009L821.578 295.828M615.121 454.57L839.376 321.049M668.258 454.57L842.078 357.975M723.985 457L832.26 396.744M783.221 454.57L821.578 432.703" stroke="#00AA00" stroke-width="15" stroke-linecap="round"/>
<text id="appear_4" fill="black" xml:space="preserve" style="white-space: pre" font-family="Roboto" font-size="31" letter-spacing="0.09em"><tspan x="283" y="144.596">&#x414;&#x430;&#x432;&#x430;&#x439;&#x442;&#x435; </tspan><tspan x="435.768" y="144.596">&#x443;&#x441;&#x43b;&#x43e;&#x436;&#x43d;&#x438;&#x43c; </tspan><tspan x="617.059" y="144.596">&#x437;&#x430;&#x434;&#x430;&#x43d;&#x438;&#x435;!&#10;</tspan><tspan x="283" y="205.596">&#x417;&#x430;&#x43a;&#x440;&#x430;&#x441;&#x44c;&#x442;&#x435; </tspan><tspan x="466.99" y="205.596">&#x44d;&#x442;&#x443; </tspan><tspan x="531.068" y="205.596">&#x444;&#x438;&#x433;&#x443;&#x440;&#x443; </tspan><tspan x="658.28" y="205.596">&#x448;&#x442;&#x440;&#x438;&#x445;&#x43e;&#x432;&#x43a;&#x43e;&#x439;, </tspan><tspan x="883.24" y="205.596">&#x432;&#x43e;&#x442; </tspan><tspan x="952.041" y="205.596">&#x442;&#x430;&#x43a;:</tspan></text>
</g>
<g id="template_7">
<path id="appear_5" d="M483.403 909.427L490.235 922.012L504.546 922.486C575.41 924.837 645.671 925.711 707.077 926.475C770.139 927.259 823.864 927.928 859.314 929.96L884.687 931.414L885.724 906.021L860.745 905.001C885.724 906.021 885.724 906.019 885.724 906.016L885.724 906.004L885.726 905.959L885.733 905.783L885.761 905.098C885.785 904.494 885.821 903.601 885.867 902.437C885.959 900.11 886.091 896.701 886.256 892.362C886.584 883.686 887.039 871.292 887.544 856.404C888.553 826.637 889.765 786.854 890.572 746.863C891.377 706.946 891.786 666.529 891.165 635.61C890.857 620.239 890.285 606.678 889.307 596.536C888.829 591.589 888.178 586.593 887.175 582.329C886.694 580.283 885.898 577.362 884.505 574.373L884.487 574.333C883.664 572.566 879.959 564.609 870.638 560.574C867.156 559.067 863.692 558.511 862.604 558.336L862.509 558.321C860.745 558.036 858.821 557.811 856.931 557.626C853.107 557.249 848.249 556.918 842.686 556.621C831.495 556.023 816.458 555.511 799.039 555.103C764.15 554.287 719.055 553.873 674.683 554.068C630.375 554.262 586.44 555.064 553.991 556.706C537.914 557.52 523.949 558.572 514.013 559.976C509.405 560.627 503.973 561.571 499.375 563.202C497.685 563.801 492.444 565.681 487.89 570.231C485.281 572.838 481.589 577.642 480.501 584.736C480.186 586.784 480.131 588.747 480.272 590.603C478.141 634.053 475.84 705.425 475.2 768.621C474.874 800.855 474.976 831.247 475.776 854.826C476.175 866.573 476.757 877 477.599 885.27C478.018 889.383 478.538 893.348 479.22 896.861C479.766 899.67 480.858 904.739 483.403 909.427Z" fill="#0000FF" stroke="#00FF00" stroke-width="50"/>
</g>
</g>
<g id="step-9">
<g id="input_8">
<path id="appear d1_4" d="M505.375 794.5C495.875 777 501.073 571.776 505.375 486.161C496.317 472.372 847.769 474.916 860.706 480.517C873.644 486.117 860.745 802.001 860.745 802.001C790.955 798 646.662 799.187 505.375 794.5Z" stroke="black" stroke-width="5"/>
<path id="draw-line d3 r1" d="M521.977 508.933C528.466 504.505 536.542 498.449 543.845 495.404C548.163 493.603 551.774 489.281 556.581 489.008C562.661 488.662 553.505 499.987 551.174 502.046C546.6 506.085 540.863 509.969 535.794 513.361C531.671 516.122 529.627 518.614 526.303 522.217C519.949 529.104 535.426 520.039 537.356 519.142C553.05 511.855 569.756 504.611 586.618 500.939C592.448 499.669 607.965 490.756 603.439 494.727C588 508.275 573.15 521.692 556.16 533.287C544.923 540.956 532.168 548.316 522.578 558.133C519.409 561.377 526.874 558.887 527.864 558.502C539.991 553.781 552.388 548.986 564.27 543.68C589.673 532.338 615.663 521.25 642.368 513.607C651.538 510.983 660.512 507.764 669.042 503.399C673.8 500.963 678.36 497.099 681.838 493.005C682.734 491.95 687.371 488.183 684.541 489.5C674.463 494.189 664.839 500.976 654.924 506.166C640.534 513.699 625.616 520.774 611.85 529.474C597.585 538.49 587.88 553.016 574.964 563.668C564.743 572.096 555.361 581.297 544.686 589.19C540.88 592.003 535.678 597.512 531.169 598.538C527.923 599.276 531.525 598.162 533.031 597.492C545.239 592.059 556.871 585.228 568.656 578.919C599.139 562.601 631.559 549.809 661.713 533.041C681.966 521.779 703.369 512.735 724.431 503.153C729.262 500.955 734.324 498.298 738.669 495.219C741.661 493.099 740.138 494.662 737.528 496.142C702.99 515.723 673.454 543.051 638.884 562.561C619.634 573.424 602.653 586.241 584.636 598.538C565.733 611.438 545.106 622.073 526.543 635.375C523.23 637.75 519.187 639.73 516.09 642.325C515.358 642.938 511.303 645.882 513.807 644.6C539.255 631.575 563.106 615.24 587.94 601.059C606.551 590.431 625.021 579.804 644.05 570.063C650.482 566.771 657.757 565.048 664.055 561.577C668.42 559.171 653.367 571.072 651.98 572.277C621.13 599.1 590.547 626.219 559.404 652.657C552.855 658.217 545.218 662.111 538.738 667.724C534.98 670.979 529.52 675.486 525.221 677.687C523.69 678.47 516.5 682.855 517.351 681.5C518.804 679.187 521.705 677.613 523.719 675.903C529.635 670.881 535.455 665.874 541.562 661.082C549.63 654.752 556.343 647.23 565.772 642.94C585.338 634.038 604.033 621.578 622.243 610.038C658.378 587.138 695.879 566.07 729.838 539.683C740.805 531.162 752.852 520.501 765.523 514.714C777.762 509.124 790.408 504.627 802.049 497.864C805.836 495.663 809.665 493.126 813.343 490.73C815.975 489.015 811.418 492.148 810.7 493.436C805.151 503.376 793.949 509.326 784.747 515.083C759.916 530.617 734.342 544.003 710.614 561.515C692.644 574.777 674.749 588.461 656.186 600.813C641.976 610.268 629.118 622.183 615.214 632.054C601.396 641.865 588.324 652.402 574.964 662.804C565.017 670.548 555.671 679.803 544.686 686.051C538.91 689.335 534.094 694.409 528.706 698.227C527.356 699.184 526.073 700.915 524.681 701.548C519.944 703.704 529.115 703.762 530.268 703.762C556.597 703.762 583.828 700.897 608.005 689.802C619.608 684.478 630.014 675.645 639.184 666.863C648.274 658.158 659.369 652.153 669.042 644.231C689.526 627.455 708.917 609.594 728.516 591.711C748.623 573.366 768.356 554.499 787.631 535.255C797.526 525.375 808.352 517.423 820.372 510.655C825.505 507.765 841.789 502.292 835.931 502.292C827.527 502.292 818.466 510.853 811.901 515.206C793.544 527.378 774.96 539.187 756.572 551.306C735.663 565.087 713.705 576.98 693.252 591.404C680.129 600.658 668.047 611.352 655.825 621.846C643.578 632.361 630.288 641.654 617.137 650.873C597.265 664.803 575.007 674.364 554.898 687.773C547.083 692.984 539.187 697.716 532.31 704.193C529.863 706.498 527.493 707.492 526.543 710.896C525.162 715.842 521.839 720.159 519.574 724.795C518.954 726.065 516.914 727.716 516.63 728.731C515.832 731.591 532.354 728.711 533.512 728.485C548.171 725.626 561.662 717.488 575.504 712.065C589.078 706.747 601.949 701.093 614.734 694.046C631.923 684.57 649.348 675.617 666.519 666.125C695.131 650.308 725.298 637.789 752.126 618.648C776.503 601.255 799.817 582.356 824.757 565.943C833.044 560.489 841.311 552.999 845.063 544.357C846.686 540.617 847.647 536.608 842.9 536.608C833.889 536.608 825.738 536.617 817.248 540.298C797.149 549.012 779.891 561.924 762.639 575.352C731.081 599.917 702.393 629.04 673.127 656.408C646.696 681.126 620.174 705.306 591.244 726.947C575.361 738.83 561.665 753.429 545.887 765.138C539.836 769.629 532.63 777.019 525.762 780.144C523.838 781.019 522.785 781.791 525.702 781.005C538.874 777.457 552.272 770.746 564.27 764.4C589.735 750.932 615.148 735.807 639.364 720.121C654.529 710.298 668.95 699.242 684.301 689.741C714.441 671.085 744.031 649.767 775.856 634.268C791.265 626.764 806.511 616.742 819.35 605.241C824.809 600.352 831.602 597.643 837.193 593.064C838.39 592.083 845.479 589.27 843.681 590.727C822.554 607.849 799.613 624.371 780.782 644.17C773.307 652.028 764.964 658.214 756.632 665.018C748.704 671.492 741.558 678.883 733.803 685.559C710.661 705.48 685.572 721.759 660.871 739.432C647.562 748.955 635.01 759.643 621.702 769.074C618.674 771.221 614.483 775.303 610.648 775.716C608.824 775.913 598.712 779.841 604.641 777.93C643.576 765.382 676.989 739.677 710.494 716.677C728.96 704.001 748.219 692.513 766.784 679.962C783.16 668.892 796.6 653.653 812.742 642.386C820.237 637.155 841.564 620.015 835.15 626.581C813.464 648.782 792.271 671.821 769.187 692.57C763.12 698.024 756.554 703.509 749.903 708.19C742.884 713.13 737.168 719.302 730.198 724.242C718.63 732.441 708.402 742.212 696.616 750.256C688.305 755.928 681.889 763.057 674.929 770.181C674.366 770.757 671.325 772.374 671.325 772.949C671.325 775.887 700.339 763.429 701.603 762.801C727.718 749.826 750.495 732.011 773.453 714.217C782.246 707.401 792.078 701.177 799.886 693.185C806.457 686.458 814.562 679.051 822.114 673.382C827.189 669.572 833.771 668.272 839.295 665.633C842.02 664.332 845.118 662.583 841.098 666.248C827.52 678.624 813.569 690.712 801.027 704.193C788.655 717.492 776.187 730.208 764.682 744.229C760.692 749.091 755.865 753.004 752.066 758.005C750.365 760.243 748.224 764.059 745.818 765.507C741.758 767.952 738.017 771.702 733.322 773.256C732.698 773.463 731.55 773.602 731.76 774.609C732.596 778.599 739.145 771.439 742.514 769.259C761.256 757.13 779.326 743.887 797.964 731.56C806.767 725.738 815.244 719.661 823.616 713.233C827.181 710.496 830.756 707.578 835.09 706.222C837.622 705.43 845.002 701.344 844.642 701.671C826.774 717.931 809.312 734.663 791.776 751.301C786.657 756.158 782.994 761.744 778.259 766.86C776.612 768.64 771.351 773.068 770.749 775.224C770.053 777.719 776.919 771.389 777.658 770.796C786.654 763.576 795.52 755.626 805.113 749.272C811.99 744.716 818.346 739.744 825.839 736.111C829.451 734.359 832.963 732.194 836.652 730.576C837.589 730.165 835.254 732.099 834.489 732.79C830.972 735.967 828.247 739.851 825.298 743.552C820.378 749.726 815.12 755.693 809.618 761.325C806.634 764.381 802.543 768.948 802.049 773.502C801.91 774.775 799.499 776.888 802.83 776.147C813.867 773.69 824.252 766.815 833.468 760.526C836.413 758.516 839.443 756.695 842.419 754.745C842.422 754.744 845.947 752.313 845.904 752.716C845.777 753.886 842.783 756.156 842.179 756.774C837.487 761.578 832.678 766.288 828.121 771.227C827.004 772.437 817.477 782.358 821.513 782.358C826.581 782.358 832.661 780.36 837.013 777.93C839.874 776.333 851.791 766.768 851.791 773.01C851.791 775.057 852.498 778.598 851.311 780.39C849.237 783.519 845.397 785.391 844.222 789" stroke="#00AA00" stroke-opacity="0.5" stroke-width="39" stroke-linecap="round" stroke-linejoin="round"/>
<text id="appear_6" fill="black" xml:space="preserve" style="white-space: pre" font-family="Roboto" font-size="31" letter-spacing="0.09em"><tspan x="630.327" y="224.596">&#x41a;&#x440;&#x443;&#x442;&#x43e;!&#10;</tspan><tspan x="292.721" y="285.596">&#x41d;&#x43e; &#x441;&#x43c;&#x43e;&#x436;&#x435;&#x442;&#x435; &#x43b;&#x438; &#x432;&#x44b; &#x437;&#x430;&#x43a;&#x440;&#x430;&#x441;&#x438;&#x442;&#x44c; &#x432;&#x441;&#x44e; &#x44d;&#x442;&#x443; &#x444;&#x438;&#x433;&#x443;&#x440;&#x443;?</tspan></text>
</g>
<g id="template_8">
<path id="appear_7" d="M483.403 806.427L490.235 819.012L504.546 819.486C575.41 821.837 645.671 822.711 707.077 823.475C770.139 824.259 823.864 824.928 859.314 826.96L884.687 828.414L885.724 803.021L860.745 802.001C885.724 803.021 885.724 803.019 885.724 803.016L885.724 803.004L885.726 802.959L885.733 802.783L885.761 802.098C885.785 801.494 885.821 800.601 885.867 799.437C885.959 797.11 886.091 793.701 886.256 789.362C886.584 780.686 887.039 768.292 887.544 753.404C888.553 723.637 889.765 683.854 890.572 643.863C891.377 603.946 891.786 563.529 891.165 532.61C890.857 517.239 890.285 503.678 889.307 493.536C888.829 488.589 888.178 483.593 887.175 479.329C886.694 477.283 885.898 474.362 884.505 471.373L884.487 471.333C883.664 469.566 879.959 461.609 870.638 457.574C867.156 456.067 863.692 455.511 862.604 455.336L862.509 455.321C860.745 455.036 858.821 454.811 856.931 454.626C853.107 454.249 848.249 453.918 842.686 453.621C831.495 453.023 816.458 452.511 799.039 452.103C764.15 451.287 719.055 450.873 674.683 451.068C630.375 451.262 586.44 452.064 553.991 453.706C537.914 454.52 523.949 455.572 514.013 456.976C509.405 457.627 503.973 458.571 499.375 460.202C497.685 460.801 492.444 462.681 487.89 467.231C485.281 469.838 481.589 474.642 480.501 481.736C480.186 483.784 480.131 485.747 480.272 487.603C478.141 531.053 475.84 602.425 475.2 665.621C474.874 697.855 474.976 728.247 475.776 751.826C476.175 763.573 476.757 774 477.599 782.27C478.018 786.383 478.538 790.348 479.22 793.861C479.766 796.67 480.858 801.739 483.403 806.427Z" fill="#0000FF" stroke="#00FF00" stroke-width="50"/>
</g>
</g>
<g id="step-8">
<g id="template_9">
<path id="neutral" d="M683 368V837" stroke="#00FF00" stroke-width="100" stroke-linecap="round"/>
<path id="good" d="M683 368V837" stroke="#0000FF" stroke-width="6" stroke-linecap="round"/>
</g>
<g id="input_9">
<rect id="appear d1_5" x="183" y="352" width="1000" height="500" stroke="#6100FF" stroke-width="20"/>
<text id="appear_8" fill="black" xml:space="preserve" style="white-space: pre" font-family="Roboto" font-size="31" letter-spacing="0.09em"><tspan x="334.739" y="199.596">&#x420;&#x430;&#x437;&#x434;&#x435;&#x43b;&#x438;&#x442;&#x435; &#x43f;&#x440;&#x44f;&#x43c;&#x43e;&#x443;&#x433;&#x43e;&#x43b;&#x44c;&#x43d;&#x438;&#x43a; &#x43d;&#x430; 2 &#x43a;&#x432;&#x430;&#x434;&#x440;&#x430;&#x442;&#x430;</tspan></text>
</g>
</g>
<g id="step-7">
<g id="input_10">
<path id="appear_9" d="M374.504 641.079H991.831" stroke="black" stroke-dasharray="10 10"/>
<path id="draw-line d3_3" d="M819.622 584.15C819.622 578.288 816.503 570.926 808.001 568.991C797.883 566.688 785.794 572.705 775.652 594.566C764.418 618.783 768.655 638.283 783.437 639.108C796.793 639.854 810.12 627.719 811.868 623.975" stroke="#CCCCFF" stroke-width="4" stroke-linecap="round"/>
<path id="draw-line d2_8" d="M648.228 599.434C698.388 563.588 734.416 532.691 745.181 517.853C760.837 496.272 736.526 482.485 722.528 496.272C708.53 510.059 683.284 567.009 669.85 593.419C657.502 617.694 661.515 636.815 676.095 638.796C694.051 641.235 705.02 620.734 711.616 601.812C718.763 581.306 711.239 571.84 700.296 568.828C689.353 565.816 683.219 575.854 676.876 581.319" stroke="#CCCCFF" stroke-width="4" stroke-linecap="round"/>
<path id="draw-line d1_7" d="M598.465 592.463C602.069 574.743 582.653 560.917 568.877 572.771C551.658 587.588 540.127 621.25 550.038 633.263C559.95 645.277 576.669 636.968 584.077 625.855C594.068 610.869 596.492 594.419 606.12 572.771C597.877 593.361 583.234 630.36 589.984 637.368C593.319 640.83 599.829 638.736 602.399 637.368" stroke="#CCCCFF" stroke-width="4" stroke-linecap="round" stroke-linejoin="round"/>
<text id="appear_10" fill="black" xml:space="preserve" style="white-space: pre" font-family="Roboto" font-size="31" letter-spacing="0.09em"><tspan x="424.509" y="199.596">&#x41d;&#x430; &#x44d;&#x442;&#x43e;&#x43c; &#x448;&#x430;&#x433;&#x435; &#x43d;&#x430;&#x43f;&#x438;&#x448;&#x435;&#x43c; &#x431;&#x443;&#x43a;&#x432;&#x44b;.</tspan></text>
</g>
<g id="template_10">
<path id="n" d="M819.622 584.15C819.622 578.288 816.503 570.926 808.001 568.991C797.883 566.688 785.794 572.705 775.652 594.566C764.418 618.783 768.655 638.283 783.437 639.108C796.793 639.854 810.12 627.719 811.868 623.975" stroke="#00FF00" stroke-width="26" stroke-linecap="round"/>
<path id="n_2" d="M648.228 599.434C698.388 563.588 734.416 532.691 745.181 517.853C760.837 496.272 736.526 482.485 722.528 496.272C708.53 510.059 683.284 567.009 669.85 593.419C657.502 617.694 661.515 636.815 676.095 638.796C694.051 641.235 705.02 620.734 711.616 601.812C718.763 581.306 711.239 571.84 700.296 568.828C689.353 565.816 683.219 575.854 676.876 581.319" stroke="#00FF00" stroke-width="26" stroke-linecap="round"/>
<path id="n_3" d="M598.465 592.463C602.069 574.743 582.653 560.917 568.877 572.771C551.658 587.588 540.127 621.25 550.038 633.263C559.95 645.277 576.669 636.968 584.077 625.855C594.068 610.869 596.492 594.419 606.12 572.771C597.877 593.361 583.234 630.36 589.984 637.368C593.319 640.83 599.829 638.736 602.399 637.368" stroke="#00FF00" stroke-width="26" stroke-linecap="round" stroke-linejoin="round"/>
<path id="g" d="M819.622 584.15C819.622 578.288 816.503 570.926 808.001 568.991C797.883 566.688 785.794 572.705 775.652 594.566C764.418 618.783 768.655 638.283 783.437 639.108C796.793 639.854 810.12 627.719 811.868 623.975" stroke="#0000FF" stroke-width="2" stroke-linecap="round"/>
<path id="g_2" d="M648.228 599.434C698.388 563.588 734.416 532.691 745.181 517.853C760.837 496.272 736.526 482.485 722.528 496.272C708.53 510.059 683.284 567.009 669.85 593.419C657.502 617.694 661.515 636.815 676.095 638.796C694.051 641.235 705.02 620.734 711.616 601.812C718.763 581.306 711.239 571.84 700.296 568.828C689.353 565.816 683.219 575.854 676.876 581.319" stroke="#0000FF" stroke-width="2" stroke-linecap="round"/>
<path id="g_3" d="M598.465 592.463C602.069 574.743 582.653 560.917 568.877 572.771C551.658 587.588 540.127 621.25 550.038 633.263C559.95 645.277 576.669 636.968 584.077 625.855C594.068 610.869 596.492 594.419 606.12 572.771C597.877 593.361 583.234 630.36 589.984 637.368C593.319 640.83 599.829 638.736 602.399 637.368" stroke="#0000FF" stroke-width="2" stroke-linecap="round" stroke-linejoin="round"/>
</g>
</g>
<g id="step-6">
<g id="input_11">
<path id="appear d1_6" d="M209 813.577L1157.82 512" stroke="#AAAAFF" stroke-width="10" stroke-linecap="round" stroke-linejoin="round"/>
<path id="draw-line d2 r2" d="M208.519 813.922C210.078 811.834 215.557 801.073 218.28 800.295C219.525 799.939 221.293 800.807 222.21 799.661C225.231 795.884 236.448 804.956 239.197 805.873C244.858 807.76 244.486 807.17 247.944 803.084C249.6 801.126 255.485 793.386 258.148 793.386C262.273 793.386 266.011 794.527 270.191 794.527C278.647 794.527 282.342 788.502 288.953 784.829C295.637 781.116 305.77 786.515 312.912 782.547C318.206 779.606 324.61 773.483 327.173 767.716C330.902 759.326 351.29 761.441 358.548 761.441C360.412 761.441 366.972 762.462 368.246 760.87C370.731 757.764 373.546 756.201 376.866 754.088C381.706 751.008 389.63 752.313 394.994 752.313C400.479 752.313 401.654 750.326 405.959 748.891C408.312 748.107 411.105 745.955 412.995 744.581C415.989 742.403 425.549 744.399 429.094 744.074C434.361 743.59 439.361 742.045 444.687 742.045C447.438 742.045 451.686 742.914 453.814 740.904C456.443 738.421 458.532 734.805 461.8 733.172C467.9 730.122 474.288 728.164 480.055 724.044C482.914 722.002 486.897 721.509 490.323 721.509C500.797 721.509 510.398 716.55 520.24 713.269C524.255 711.931 527.232 708.959 531.395 708.959C538.089 708.959 544.156 706.009 550.537 705.536C553.296 705.332 556.521 703.187 558.777 701.86C563.852 698.875 565.775 698.837 572.215 698.691C579.08 698.535 586.127 696.606 593.004 696.409C596.161 696.319 603.108 697.714 605.554 695.268C608.797 692.026 610.602 686.745 612.653 682.718C613.515 681.026 615.162 675.939 616.963 674.985C621.289 672.695 629.171 672.684 634.077 671.563C637.598 670.758 641.455 670.746 644.979 670.105C650.507 669.1 654.781 666.859 659.811 664.464C667.067 661.008 675.776 657.618 683.706 657.618C691.303 657.618 698.867 659.9 706.525 659.9C710.3 659.9 711.232 656.033 714.448 654.196C716.982 652.747 719.518 652.951 722.624 652.421C730.57 651.064 738.589 649.027 746.33 646.78C751.469 645.288 754.532 644.439 759.703 643.864C771.316 642.574 776.733 632.603 784.106 625.229C787.027 622.309 797.434 623.391 801.22 623.391C808.211 623.391 816.797 622.598 823.467 620.475C828.78 618.785 830.899 614.649 835.51 612.552C847.708 607.008 855.458 608.559 868.47 608.559C872.625 608.559 877.879 599.724 882.288 597.721C890.203 594.123 899.911 590.56 908.338 588.657C918.455 586.372 929.549 588.796 938.699 583.713C944.685 580.387 951.497 578.535 957.841 574.332C964.677 569.803 966.99 567.202 974.955 567.487C980.706 567.692 987.041 570.503 992.575 567.233C999.066 563.397 1003.75 556.957 1010.58 553.542C1017.57 550.046 1027.71 550.739 1035.42 548.345C1040.8 546.675 1042.24 546.028 1046.58 540.865C1052.84 533.416 1056.47 533.259 1065.59 533.259C1073.41 533.259 1081.23 533.259 1089.05 533.259C1093.01 533.259 1097.57 532.478 1100.71 529.837C1102.75 528.12 1109.74 527.266 1112.37 526.668C1121.91 524.498 1126.28 517.287 1136.08 517.287C1140.77 517.287 1140.52 514.243 1144.06 512.47C1147.62 510.69 1150.4 510.441 1154.33 510.441" stroke="#00AA00" stroke-opacity="0.5" stroke-width="15" stroke-linecap="round" stroke-linejoin="round"/>
<text id="appear_11" fill="black" xml:space="preserve" style="white-space: pre" font-family="Roboto" font-size="31" letter-spacing="0.09em"><tspan x="283.168" y="199.596">&#x41f;&#x440;&#x435;&#x43a;&#x440;&#x430;&#x441;&#x43d;&#x43e;!&#10;</tspan><tspan x="283.168" y="260.596">&#x422;&#x435;&#x43f;&#x435;&#x440;&#x44c; </tspan><tspan x="465.492" y="260.596">&#x434;&#x430;&#x432;&#x430;&#x439;&#x442;&#x435; </tspan><tspan x="666.772" y="260.596">&#x43f;&#x43e;&#x43f;&#x440;&#x43e;&#x431;&#x443;&#x435;&#x43c; </tspan><tspan x="915.076" y="260.596">&#x43d;&#x430;&#x43e;&#x431;&#x43e;&#x440;&#x43e;&#x442;, </tspan><tspan x="283.168" y="296.596">&#x43e;&#x431;&#x432;&#x435;&#x434;&#x438;&#x442;&#x435; </tspan><tspan x="452.783" y="296.596">&#x44d;&#x442;&#x443; </tspan><tspan x="517.99" y="296.596">&#x43b;&#x438;&#x43d;&#x438;&#x44e;, </tspan><tspan x="649.33" y="296.596">&#x43d;&#x43e; </tspan><tspan x="702.091" y="296.596">&#x441;&#x434;&#x435;&#x43b;&#x430;&#x439;&#x442;&#x435; </tspan><tspan x="870.192" y="296.596">&#x435;&#x435; </tspan><tspan x="920.258" y="296.596">&#x43d;&#x435;&#x440;&#x43e;&#x432;&#x43d;&#x43e;&#x439; </tspan><tspan x="283.168" y="332.596">&#x438; </tspan><tspan x="314.329" y="332.596">&#x437;&#x430;&#x437;&#x443;&#x431;&#x440;&#x435;&#x43d;&#x43d;&#x43e;&#x439;.</tspan></text>
</g>
<g id="template_11">
<path id="draw-line_9" d="M209 813.577L1157.82 512" stroke="#00FF00" stroke-width="110" stroke-linecap="round" stroke-linejoin="round"/>
<path id="draw-line_10" d="M209 813.577L1157.82 512" stroke="#0000FF" stroke-width="10" stroke-linecap="round" stroke-linejoin="round"/>
</g>
</g>
<g id="step-5">
<g id="input_12">
<path id="appear d1_7" d="M-1001.89 1198.36L2068.38 222.643" stroke="#EEEEFF" stroke-width="10" stroke-linecap="round" stroke-linejoin="round" stroke-dasharray="50 50"/>
<path id="draw-line d2_9" d="M209 813.577L1157.82 512" stroke="#AAAAFF" stroke-width="10" stroke-linecap="round" stroke-linejoin="round"/>
<text id="appear_12" fill="black" xml:space="preserve" style="white-space: pre" font-family="Roboto" font-size="31" letter-spacing="0.09em"><tspan x="283" y="199.596">&#x412;&#x435;&#x440;&#x43d;&#x43e;!&#10;</tspan><tspan x="283" y="260.596">&#x41e;&#x431;&#x432;&#x435;&#x434;&#x438;&#x442;&#x435; </tspan><tspan x="455.118" y="260.596">&#x44d;&#x442;&#x443; </tspan><tspan x="519.196" y="260.596">&#x43b;&#x438;&#x43d;&#x438;&#x44e; </tspan><tspan x="640.531" y="260.596">&#x43a;&#x430;&#x43a; </tspan><tspan x="709.725" y="260.596">&#x43c;&#x43e;&#x436;&#x43d;&#x43e; </tspan><tspan x="833.814" y="260.596">&#x43f;&#x440;&#x44f;&#x43c;&#x435;&#x435;.&#10;</tspan><tspan x="283" y="321.596">&#x420;&#x438;&#x441;&#x443;&#x439;&#x442;&#x435; </tspan><tspan x="437.391" y="321.596">&#x43f;&#x43b;&#x435;&#x447;&#x43e;&#x43c; </tspan><tspan x="582.423" y="321.596">&#x438; </tspan><tspan x="621.595" y="321.596">&#x43b;&#x43e;&#x43a;&#x442;&#x435;&#x43c;, </tspan><tspan x="771.172" y="321.596">&#x430; </tspan><tspan x="809.315" y="321.596">&#x43d;&#x435; </tspan><tspan x="867.715" y="321.596">&#x43a;&#x438;&#x441;&#x442;&#x44c;&#x44e;. </tspan><tspan x="1021.8" y="321.596">&#x42d;&#x442;&#x43e; </tspan><tspan x="283" y="357.596">&#x434;&#x43e;&#x43b;&#x436;&#x43d;&#x43e; </tspan><tspan x="423.594" y="357.596">&#x431;&#x44b;&#x442;&#x44c; </tspan><tspan x="518.162" y="357.596">&#x431;&#x44b;&#x441;&#x442;&#x440;&#x43e;&#x435; </tspan><tspan x="672.02" y="357.596">&#x438; </tspan><tspan x="703.181" y="357.596">&#x443;&#x432;&#x435;&#x440;&#x435;&#x43d;&#x43d;&#x43e;&#x435; </tspan><tspan x="891.349" y="357.596">&#x434;&#x432;&#x438;&#x436;&#x435;&#x43d;&#x438;&#x435;.</tspan></text>
</g>
<g id="template_12">
<path id="draw-line d1_8" d="M-1001.89 1198.36L2068.38 222.643" stroke="#00FF00" stroke-width="150" stroke-linecap="round" stroke-linejoin="round"/>
<path id="draw-line d1_9" d="M209 813.577L1157.82 512" stroke="#0000FF" stroke-width="10" stroke-linecap="round" stroke-linejoin="round"/>
</g>
</g>
<g id="step-4">
<g id="input_13">
<g id="appear d2">
<g id="Group 4">
<circle id="Ellipse 2" cx="555.5" cy="744.5" r="67" fill="#C0FFCA" stroke="#999999" stroke-width="3"/>
<rect id="Rectangle 1" x="534.5" y="832.5" width="41" height="41" stroke="#555555" stroke-width="3"/>
</g>
<g id="Group 3">
<circle id="Ellipse 3" cx="810.5" cy="744.5" r="67" fill="#44FFE9" stroke="#999999" stroke-width="3"/>
<rect id="Rectangle 2" x="790.5" y="832.5" width="41" height="41" stroke="#555555" stroke-width="3"/>
</g>
<g id="Group 2">
<circle id="Ellipse 4" cx="300.5" cy="744.5" r="67" fill="#44FFAA" stroke="#999999" stroke-width="3"/>
<rect id="Rectangle 3" x="280.5" y="832.5" width="41" height="41" stroke="#555555" stroke-width="3"/>
</g>
<g id="Group 1">
<circle id="Ellipse 5" cx="1065.5" cy="744.5" r="67" fill="#16D87F" stroke="#999999" stroke-width="3"/>
<rect id="Rectangle 4" x="1045.5" y="832.5" width="41" height="41" stroke="#555555" stroke-width="3"/>
</g>
</g>
<path id="appear d2_2" d="M148 574H1218.5" stroke="#999999" stroke-width="5"/>
<path id="appear d1_8" d="M626.058 347.883C636.266 334.817 651.775 322.689 667.638 318.156C670.663 317.292 669.446 320.167 668.272 323.037C665.152 330.663 663.162 338.303 658.257 345.094C652.192 353.492 642.113 359.127 637.467 368.419C634.242 374.869 631.194 381.534 628.911 388.385C628.497 389.627 621.382 404.121 625.044 403.597C631.862 402.623 642.382 392.195 647.736 387.815C654.165 382.554 661.838 377.146 668.969 372.92C688.13 361.565 707.003 341.495 729.31 336.537C736.028 335.045 728.481 345.275 727.472 346.742C720.499 356.885 710.402 367.532 701.295 375.835C684.485 391.162 661.426 411.235 661.426 435.479C661.426 439.785 665.923 436.095 668.272 434.529C675.875 429.46 683.02 423.9 690.52 418.683C701.411 411.106 712.041 399.49 724.24 394.153C726.937 392.973 739.235 388.549 742.177 391.491C746.207 395.521 732.105 409.455 729.627 412.027C728.697 412.994 716.975 427.457 721.895 427.747C726.161 427.998 738.532 422.994 740.149 419.76" stroke="#44FFAA" stroke-width="70" stroke-linecap="round" stroke-linejoin="round"/>
<text id="appear_13" fill="black" xml:space="preserve" style="white-space: pre" font-family="Roboto" font-size="31" letter-spacing="0.09em"><tspan x="306.38" y="120.092">&#x414;&#x430;&#x432;&#x430;&#x439;&#x442;&#x435; &#x43f;&#x43e;&#x43f;&#x440;&#x43e;&#x431;&#x443;&#x435;&#x43c; &#x437;&#x430;&#x434;&#x430;&#x43d;&#x438;&#x435; &#x441; &#x43d;&#x435;&#x441;&#x43a;&#x43e;&#x43b;&#x44c;&#x43a;&#x438;&#x43c;&#x438; </tspan><tspan x="576.444" y="156.092">&#x432;&#x430;&#x440;&#x438;&#x430;&#x43d;&#x442;&#x430;&#x43c;&#x438;.&#10;</tspan><tspan x="388.458" y="217.092">&#x412;&#x44b;&#x431;&#x435;&#x440;&#x438;&#x442;&#x435; &#x43d;&#x430;&#x438;&#x431;&#x43e;&#x43b;&#x435;&#x435; &#x43f;&#x43e;&#x445;&#x43e;&#x436;&#x438;&#x439; &#x446;&#x432;&#x435;&#x442;:</tspan></text>
</g>
<g id="template_13">
<rect id="Rectangle 8" x="207" y="651" width="186" height="259" fill="#0000FF"/>
</g>
</g>
<g id="step-3">
<g id="input_14">
<g id="Group 6">
<rect id="appear d1_9" x="1218.5" y="876.5" width="95" height="95" stroke="#999999" stroke-width="5"/>
<path id="draw-line d2_10" d="M1232 918C1261.2 949.2 1261 959.5 1261 959.5C1261 959.5 1290 886 1312 860" stroke="#0000FF" stroke-opacity="0.1" stroke-width="10" stroke-linecap="round" stroke-linejoin="round"/>
</g>
<path id="appear d10" d="M1263.12 874.828C1264.67 876.402 1267.2 876.421 1268.77 874.87L1294.42 849.604C1295.99 848.054 1296.01 845.521 1294.46 843.948C1292.91 842.374 1290.38 842.355 1288.8 843.906L1266.01 866.364L1243.55 843.57C1242 841.996 1239.47 841.977 1237.89 843.528C1236.32 845.078 1236.3 847.611 1237.85 849.184L1263.12 874.828ZM917.928 278.999C1069.42 281.738 1155.7 381.91 1204.11 506.007C1252.57 630.191 1262.67 777.465 1261.97 871.991L1269.97 872.051C1270.67 777.132 1260.56 628.674 1211.57 503.099C1162.54 377.437 1074.13 273.821 918.072 271.001L917.928 278.999Z" fill="black"/>
<path id="draw-line d6 r0" d="M239.5 265.5C473 355 975.5 573.5 1232 759.5" stroke="#FF0000" stroke-width="20" stroke-miterlimit="5.75877" stroke-linecap="round"/>
<path id="draw-line d3 r3" d="M290 814C474.48 666.216 923.953 353.118 1246 283" stroke="#FF0000" stroke-width="20" stroke-miterlimit="5.75877" stroke-linecap="round"/>
<text id="appear_14" fill="black" xml:space="preserve" style="white-space: pre" font-family="Roboto" font-size="31" letter-spacing="0.09em"><tspan x="283" y="151.596">&#x427;&#x442;&#x43e;&#x431;&#x44b; </tspan><tspan x="418.673" y="151.596">&#x43f;&#x435;&#x440;&#x435;&#x437;&#x430;&#x43f;&#x443;&#x441;&#x442;&#x438;&#x442;&#x44c; </tspan><tspan x="696.186" y="151.596">&#x44d;&#x442;&#x430;&#x43f; </tspan><tspan x="799.584" y="151.596">&#x438;&#x43b;&#x438; </tspan><tspan x="889.02" y="151.596">&#x43f;&#x440;&#x43e;&#x43f;&#x443;&#x441;&#x442;&#x438;&#x442;&#x44c; </tspan><tspan x="283" y="187.596">&#x430;&#x43d;&#x438;&#x43c;&#x430;&#x446;&#x438;&#x438;, </tspan><tspan x="505.389" y="187.596">&#x43f;&#x440;&#x43e;&#x432;&#x435;&#x434;&#x438;&#x442;&#x435; </tspan><tspan x="728.867" y="187.596">&#x43b;&#x44e;&#x431;&#x443;&#x44e; </tspan><tspan x="887.693" y="187.596">&#x43e;&#x448;&#x438;&#x431;&#x43e;&#x447;&#x43d;&#x443;&#x44e; </tspan><tspan x="283" y="223.596">&#x43b;&#x438;&#x43d;&#x438;&#x44e;. </tspan><tspan x="415.299" y="223.596">&#x41f;&#x43e;&#x43f;&#x440;&#x43e;&#x431;&#x443;&#x439;&#x442;&#x435;!&#10;</tspan><tspan x="283" y="284.596">&#x41f;&#x43e;&#x441;&#x442;&#x430;&#x432;&#x44c;&#x442;&#x435; </tspan><tspan x="469.745" y="284.596">&#x433;&#x430;&#x43b;&#x43e;&#x447;&#x43a;&#x443;, </tspan><tspan x="620.762" y="284.596">&#x43a;&#x43e;&#x433;&#x434;&#x430; </tspan><tspan x="727.021" y="284.596">&#x437;&#x430;&#x43a;&#x43e;&#x43d;&#x447;&#x438;&#x442;&#x435;.</tspan></text>
</g>
<g id="template_14">
<rect id="Rectangle 6_3" x="1191" y="849" width="150" height="150" fill="#0000FF" stroke="#00FF00" stroke-width="50"/>
</g>
</g>
<g id="step-2">
<g id="input_15">
<path id="draw-line d3_4" d="M683 683.126C714.217 683.126 744.158 695.514 766.25 717.571C788.341 739.627 800.776 769.549 800.825 800.766C800.874 831.983 788.533 861.944 766.511 884.07C744.489 906.196 714.587 918.678 683.37 918.776C652.153 918.874 622.173 906.58 600.013 884.593C577.852 862.606 565.323 832.723 565.176 801.507C565.029 770.29 577.276 740.29 599.228 718.096C621.18 695.901 651.043 683.324 682.26 683.128" stroke="#AAAAFF" stroke-width="10" stroke-linecap="round"/>
<text id="appear d2_3" fill="black" xml:space="preserve" style="white-space: pre" font-family="Roboto" font-size="31" letter-spacing="0.09em"><tspan x="280.507" y="553.764">&#x41e;&#x431;&#x432;&#x435;&#x434;&#x438;&#x442;&#x435; </tspan><tspan x="490.551" y="553.764">&#x43e;&#x43a;&#x440;&#x443;&#x436;&#x43d;&#x43e;&#x441;&#x442;&#x44c; </tspan><tspan x="740.445" y="553.764">&#x438; </tspan><tspan x="809.533" y="553.764">&#x437;&#x430;&#x43c;&#x435;&#x442;&#x44c;&#x442;&#x435;, </tspan><tspan x="1021.79" y="553.764">&#x43a;&#x430;&#x43a; </tspan><tspan x="280.507" y="589.764">&#x438;&#x43d;&#x434;&#x438;&#x43a;&#x430;&#x442;&#x43e;&#x440; </tspan><tspan x="471.187" y="589.764">&#x437;&#x430;&#x43f;&#x43e;&#x43b;&#x43d;&#x44f;&#x435;&#x442;&#x441;&#x44f;.</tspan></text>
<g id="appear_15">
<g id="a_19">
<text fill="black" xml:space="preserve" style="white-space: pre" font-family="Roboto" font-size="31" letter-spacing="0.09em"><tspan x="675.866" y="418.818"> &#x43f;&#x43e;&#x434;&#x441;&#x432;&#x435;&#x447;&#x438;&#x432;&#x430;&#x435;&#x442; &#x432;&#x430;&#x448;&#x438; &#x43e;&#x448;&#x438;&#x431;&#x43a;&#x438;.</tspan></text>
<text fill="#BB0000" xml:space="preserve" style="white-space: pre" font-family="Roboto" font-size="31" letter-spacing="0.09em"><tspan x="526.433" y="418.818">&#x41a;&#x440;&#x430;&#x441;&#x43d;&#x44b;&#x439;</tspan></text>
</g>
<g id="a_20">
<text fill="black" xml:space="preserve" style="white-space: pre" font-family="Roboto" font-size="31" letter-spacing="0.09em"><tspan x="319.586" y="312.425"> </tspan><tspan x="330.065" y="312.425">&#x437;&#x43d;&#x430;&#x447;&#x438;&#x442;, </tspan><tspan x="466.304" y="312.425">&#x447;&#x442;&#x43e; </tspan><tspan x="533.954" y="312.425">&#x432;&#x441;&#x451; </tspan><tspan x="603.179" y="312.425">&#x445;&#x43e;&#x440;&#x43e;&#x448;&#x43e;.</tspan></text>
<text fill="#00AA00" xml:space="preserve" style="white-space: pre" font-family="Roboto" font-size="31" letter-spacing="0.09em"><tspan x="171" y="312.425">&#x417;&#x435;&#x43b;&#x435;&#x43d;&#x44b;&#x439;</tspan></text>
</g>
<rect id="Rectangle 10" x="171" y="341.44" width="1024" height="20" fill="#C4C4C4"/>
<rect id="Rectangle 11" x="171" y="341.44" width="521.598" height="20" fill="#00FF00"/>
<path id="Rectangle 12" d="M688.112 341.44H831.424V361.44H688.112V341.44Z" fill="#FF0000"/>
</g>
<text id="appear_16" fill="black" xml:space="preserve" style="white-space: pre" font-family="Roboto" font-size="31" letter-spacing="0.09em"><tspan x="425.176" y="110.452">&#x42d;&#x442;&#x43e; &#x440;&#x435;&#x437;&#x443;&#x43b;&#x44c;&#x442;&#x430;&#x442; &#x442;&#x435;&#x43a;&#x443;&#x449;&#x435;&#x433;&#x43e; &#x44d;&#x442;&#x430;&#x43f;&#x430;</tspan></text>
<path id="appear_17" d="M561.712 0.457664C562.102 0.0671387 562.735 0.0671387 563.126 0.457664L569.49 6.82162C569.88 7.21215 569.88 7.84531 569.49 8.23584C569.099 8.62637 568.466 8.62637 568.076 8.23584L562.419 2.57899L556.762 8.23584C556.371 8.62637 555.738 8.62637 555.348 8.23584C554.957 7.84531 554.957 7.21215 555.348 6.82162L561.712 0.457664ZM563.419 1.16477C563.419 17.3608 557.121 27.9547 547.66 35.4062C538.267 42.8038 525.792 47.0734 513.499 50.7899C501.121 54.5318 488.973 57.7051 479.872 62.873C475.344 65.4442 471.634 68.4772 469.055 72.2621C466.485 76.0342 465 80.6082 465 86.3352H463C463 80.2356 464.59 75.2633 467.403 71.136C470.206 67.0214 474.186 63.8018 478.884 61.1338C488.236 55.8234 500.693 52.572 512.92 48.8754C525.232 45.1534 537.362 40.9708 546.422 33.8349C555.414 26.7529 561.419 16.7321 561.419 1.16477H563.419Z" fill="black"/>
</g>
<g id="template_15">
<circle id="Ellipse 6" cx="683" cy="800.951" r="117.825" stroke="#00FF00" stroke-width="80"/>
<circle id="Ellipse 6_2" cx="683" cy="800.951" r="117.825" stroke="#0000FF" stroke-width="10"/>
</g>
</g>
<g id="step-1">
<g id="input_16">
<g id="Group 8">
<path id="draw-line d2_11" d="M541 696L824.5 696.5" stroke="#AAAAFF" stroke-width="10" stroke-linecap="round" stroke-linejoin="round"/>
<path id="draw-line d3_5" d="M759 644L825 696L759 748" stroke="#AAAAFF" stroke-width="10" stroke-linecap="round" stroke-linejoin="round"/>
</g>
<text id="appear_18" fill="black" xml:space="preserve" style="white-space: pre" font-family="Roboto" font-size="31" letter-spacing="0.09em"><tspan x="283" y="304.596">&#x414;&#x43e;&#x431;&#x440;&#x43e; </tspan><tspan x="400.369" y="304.596">&#x43f;&#x43e;&#x436;&#x430;&#x43b;&#x43e;&#x432;&#x430;&#x442;&#x44c; </tspan><tspan x="616.242" y="304.596">&#x432; </tspan><tspan x="647.221" y="304.596">Drawing </tspan><tspan x="789.696" y="304.596">Dojo!&#10;</tspan><tspan x="283" y="365.596">&#x412; </tspan><tspan x="325.632" y="365.596">&#x44d;&#x442;&#x43e;&#x43c; </tspan><tspan x="427.736" y="365.596">&#x443;&#x440;&#x43e;&#x43a;&#x435; </tspan><tspan x="544.921" y="365.596">&#x432;&#x44b; </tspan><tspan x="612.806" y="365.596">&#x43f;&#x43e;&#x437;&#x43d;&#x430;&#x43a;&#x43e;&#x43c;&#x438;&#x442;&#x435;&#x441;&#x44c; </tspan><tspan x="893.839" y="365.596">&#x441; </tspan><tspan x="933.383" y="365.596">&#x442;&#x435;&#x43c;, </tspan><tspan x="1024.29" y="365.596">&#x43a;&#x430;&#x43a; </tspan><tspan x="283" y="401.596">&#x440;&#x430;&#x431;&#x43e;&#x442;&#x430;&#x435;&#x442; </tspan><tspan x="447.216" y="401.596">&#x44d;&#x442;&#x43e; </tspan><tspan x="513.474" y="401.596">&#x43f;&#x440;&#x438;&#x43b;&#x43e;&#x436;&#x435;&#x43d;&#x438;&#x435; </tspan><tspan x="732.404" y="401.596">&#x438; </tspan><tspan x="763.565" y="401.596">&#x43a;&#x430;&#x43a;&#x438;&#x435; </tspan><tspan x="872.67" y="401.596">&#x437;&#x430;&#x434;&#x430;&#x43d;&#x438;&#x44f; </tspan><tspan x="1023.65" y="401.596">&#x43e;&#x43d;&#x43e; </tspan><tspan x="283" y="437.596">&#x43c;&#x43e;&#x436;&#x435;&#x442; </tspan><tspan x="402.367" y="437.596">&#x43f;&#x440;&#x435;&#x434;&#x43b;&#x43e;&#x436;&#x438;&#x442;&#x44c;.&#10;</tspan><tspan x="283" y="498.596">&#x41e;&#x431;&#x432;&#x435;&#x434;&#x438;&#x442;&#x435; </tspan><tspan x="455.118" y="498.596">&#x441;&#x442;&#x440;&#x435;&#x43b;&#x43a;&#x443;, </tspan><tspan x="606.68" y="498.596">&#x447;&#x442;&#x43e;&#x431;&#x44b; </tspan><tspan x="721.112" y="498.596">&#x43f;&#x440;&#x43e;&#x434;&#x43e;&#x43b;&#x436;&#x438;&#x442;&#x44c;.</tspan></text>
</g>
<g id="template_16">
<path id="Vector 1" d="M541 696L824.5 696.5" stroke="#00FF00" stroke-width="80" stroke-linecap="round" stroke-linejoin="round"/>
<path id="Vector 2" d="M759 644L825 696L759 748" stroke="#00FF00" stroke-width="80" stroke-linecap="round" stroke-linejoin="round"/>
<path id="Vector 3" d="M541 696L824.5 696.5" stroke="#0000FF" stroke-width="10" stroke-linecap="round" stroke-linejoin="round"/>
<path id="Vector 4" d="M759 644L825 696L759 748" stroke="#0000FF" stroke-width="10" stroke-linecap="round" stroke-linejoin="round"/>
</g>
</g>
</g>
<defs>
<clipPath id="clip0">
<rect width="1366" height="1024" fill="white"/>
</clipPath>
</defs>
</svg>
