<svg width="1366" height="1025" viewBox="0 0 1366 1025" fill="none" xmlns="http://www.w3.org/2000/svg">
<g id="3">
<g id="step-14">
<g id="input">
<g id="Group 7">
<rect id="appear d1" x="1218.5" y="877.5" width="95" height="95" stroke="#999999" stroke-width="5"/>
<path id="draw-line d5" d="M1232 919C1261.2 950.2 1261 960.5 1261 960.5C1261 960.5 1290 887 1312 861" stroke="#0000FF" stroke-opacity="0.1" stroke-width="10" stroke-linecap="round" stroke-linejoin="round"/>
</g>
<text id="appear" fill="black" xml:space="preserve" style="white-space: pre" font-family="Roboto" font-size="31" letter-spacing="0.09em"><tspan x="283" y="83.5957">Congratulations </tspan><tspan x="571.309" y="83.5957">on </tspan><tspan x="638.892" y="83.5957">passing </tspan><tspan x="793.929" y="83.5957">this </tspan><tspan x="883.046" y="83.5957">introductory </tspan><tspan x="283" y="119.596">lesson!&#10;</tspan><tspan x="283" y="180.596">Now </tspan><tspan x="380.081" y="180.596">you&#39;re </tspan><tspan x="503.726" y="180.596">free </tspan><tspan x="594.363" y="180.596">to </tspan><tspan x="653.083" y="180.596">draw </tspan><tspan x="757.434" y="180.596">whatever </tspan><tspan x="930.737" y="180.596">you </tspan><tspan x="1013.95" y="180.596">like. </tspan><tspan x="283" y="216.596">Check </tspan><tspan x="393.073" y="216.596">the </tspan><tspan x="455.577" y="216.596">box </tspan><tspan x="524.559" y="216.596">to </tspan><tspan x="568.137" y="216.596">finish.</tspan></text>
</g>
<g id="template">
<rect id="Rectangle 6" x="1216" y="875" width="100" height="100" fill="#0000FF"/>
</g>
</g>
<g id="step-13">
<g id="input_2">
<g id="Group 7_2">
<rect id="appear d1_2" x="1218.5" y="877.5" width="95" height="95" stroke="#999999" stroke-width="5"/>
<path id="draw-line d3" d="M1232 919C1261.2 950.2 1261 960.5 1261 960.5C1261 960.5 1290 887 1312 861" stroke="#0000FF" stroke-opacity="0.1" stroke-width="10" stroke-linecap="round" stroke-linejoin="round"/>
</g>
<text id="appear_2" fill="black" xml:space="preserve" style="white-space: pre" font-family="Roboto" font-size="31" letter-spacing="0.09em"><tspan x="283" y="83.5957">Well </tspan><tspan x="363.188" y="83.5957">done!&#10;</tspan><tspan x="283" y="144.596">Here&#x2019;s </tspan><tspan x="394.682" y="144.596">your </tspan><tspan x="476.051" y="144.596">cube:</tspan></text>
</g>
<g id="template_2">
<rect id="Rectangle 6_2" x="1191" y="850" width="150" height="150" fill="#0000FF" stroke="#00FF00" stroke-width="50"/>
<path id="draw-line" d="M745.5 565.5V872.5" stroke="#00FF00" stroke-width="100" stroke-linecap="round"/>
<path id="draw-line d1" d="M745.5 566.5L420 521" stroke="#00FF00" stroke-width="100" stroke-linecap="round"/>
<path id="draw-line d2" d="M746 566L869 405" stroke="#00FF00" stroke-width="100" stroke-linecap="round"/>
<path id="Vector 10" d="M419 521L419.5 814.5" stroke="#00FF00" stroke-width="100" stroke-linecap="round"/>
<path id="Vector 11" d="M745.5 873L419.5 816.5" stroke="#00FF00" stroke-width="100" stroke-linecap="round"/>
<path id="Vector 12" d="M869.5 405L869 676" stroke="#00FF00" stroke-width="100" stroke-linecap="round"/>
<path id="Vector 13" d="M746 872L869 676" stroke="#00FF00" stroke-width="100" stroke-linecap="round"/>
<path id="Vector 14" d="M419 521L580 367" stroke="#00FF00" stroke-width="100" stroke-linecap="round"/>
<path id="Vector 15" d="M869 402.5L580.5 367" stroke="#00FF00" stroke-width="100" stroke-linecap="round"/>
</g>
</g>
<g id="step-12">
<g id="input_3">
<path id="a" d="M745.5 565.5V872.5" stroke="#0000FF" stroke-width="7" stroke-linecap="round"/>
<path id="a_2" d="M745.5 566.5L420 521" stroke="#0000FF" stroke-width="7" stroke-linecap="round"/>
<path id="a_3" d="M746 566L869 405" stroke="#0000FF" stroke-width="7" stroke-linecap="round"/>
<path id="a_4" d="M419 521L419.5 814.5" stroke="#0000FF" stroke-width="7" stroke-linecap="round"/>
<path id="a_5" d="M745.5 873L419.5 816.5" stroke="#0000FF" stroke-width="7" stroke-linecap="round"/>
<path id="a_6" d="M869.5 405L869 676" stroke="#0000FF" stroke-width="7" stroke-linecap="round"/>
<path id="a_7" d="M746 872L869 676" stroke="#0000FF" stroke-width="7" stroke-linecap="round"/>
<path id="draw-line d1_2" d="M419 521L580 367" stroke="#0000FF" stroke-width="7" stroke-linecap="round"/>
<path id="draw-line d3_2" d="M869 402.5L580.5 367" stroke="#0000FF" stroke-width="7" stroke-linecap="round"/>
<text id="a_8" fill="black" xml:space="preserve" style="white-space: pre" font-family="Roboto" font-size="31" letter-spacing="0.09em"><tspan x="283" y="145.596">Great!&#10;</tspan><tspan x="283" y="206.596">Now </tspan><tspan x="364.939" y="206.596">let&#39;s </tspan><tspan x="443.679" y="206.596">draw </tspan><tspan x="532.889" y="206.596">a </tspan><tspan x="563.021" y="206.596">box </tspan><tspan x="632.003" y="206.596">step </tspan><tspan x="713.614" y="206.596">by </tspan><tspan x="761.582" y="206.596">step.&#10;</tspan><tspan x="283" y="267.596">You </tspan><tspan x="354.253" y="267.596">can </tspan><tspan x="423.296" y="267.596">draw </tspan><tspan x="512.505" y="267.596">over </tspan><tspan x="593.329" y="267.596">your </tspan><tspan x="674.698" y="267.596">lines </tspan><tspan x="763.731" y="267.596">here.</tspan></text>
</g>
<g id="template_3">
<path id="draw-line_2" d="M745.5 565.5V872.5" stroke="#00FF00" stroke-width="100" stroke-linecap="round"/>
<path id="draw-line d1_3" d="M745.5 566.5L420 521" stroke="#00FF00" stroke-width="100" stroke-linecap="round"/>
<path id="draw-line d2_2" d="M746 566L869 405" stroke="#00FF00" stroke-width="100" stroke-linecap="round"/>
<path id="Vector 10_2" d="M419 521L419.5 814.5" stroke="#00FF00" stroke-width="100" stroke-linecap="round"/>
<path id="Vector 11_2" d="M745.5 873L419.5 816.5" stroke="#00FF00" stroke-width="100" stroke-linecap="round"/>
<path id="Vector 12_2" d="M869.5 405L869 676" stroke="#00FF00" stroke-width="100" stroke-linecap="round"/>
<path id="Vector 13_2" d="M746 872L869 676" stroke="#00FF00" stroke-width="100" stroke-linecap="round"/>
<path id="Vector 14_2" d="M419 521L580 367" stroke="#00FF00" stroke-width="100" stroke-linecap="round"/>
<path id="Vector 15_2" d="M869 402.5L580.5 367" stroke="#00FF00" stroke-width="100" stroke-linecap="round"/>
<path id="Vector 14_3" d="M419 521L580 367" stroke="#0000FF" stroke-width="7" stroke-linecap="round"/>
<path id="Vector 15_3" d="M869 402.5L580.5 367" stroke="#0000FF" stroke-width="7" stroke-linecap="round"/>
</g>
</g>
<g id="step-11">
<g id="input_4">
<path id="a_9" d="M745.5 565.5V872.5" stroke="#0000FF" stroke-width="7" stroke-linecap="round"/>
<path id="a_10" d="M745.5 566.5L420 521" stroke="#0000FF" stroke-width="7" stroke-linecap="round"/>
<path id="a_11" d="M746 566L869 405" stroke="#0000FF" stroke-width="7" stroke-linecap="round"/>
<path id="a_12" d="M419 521L419.5 814.5" stroke="#0000FF" stroke-width="7" stroke-linecap="round"/>
<path id="a_13" d="M745.5 873L419.5 816.5" stroke="#0000FF" stroke-width="7" stroke-linecap="round"/>
<path id="draw-line d1_4" d="M869.5 405L869 676" stroke="#0000FF" stroke-width="7" stroke-linecap="round"/>
<path id="draw-line d3_3" d="M746 872L869 676" stroke="#0000FF" stroke-width="7" stroke-linecap="round"/>
<text id="a_14" fill="black" xml:space="preserve" style="white-space: pre" font-family="Roboto" font-size="31" letter-spacing="0.09em"><tspan x="283" y="145.596">Great!&#10;</tspan><tspan x="283" y="206.596">Now </tspan><tspan x="364.939" y="206.596">let&#39;s </tspan><tspan x="443.679" y="206.596">draw </tspan><tspan x="532.889" y="206.596">a </tspan><tspan x="563.021" y="206.596">box </tspan><tspan x="632.003" y="206.596">step </tspan><tspan x="713.614" y="206.596">by </tspan><tspan x="761.582" y="206.596">step.&#10;</tspan><tspan x="283" y="267.596">You </tspan><tspan x="354.253" y="267.596">can </tspan><tspan x="423.296" y="267.596">draw </tspan><tspan x="512.505" y="267.596">over </tspan><tspan x="593.329" y="267.596">your </tspan><tspan x="674.698" y="267.596">lines </tspan><tspan x="763.731" y="267.596">here.</tspan></text>
</g>
<g id="template_4">
<path id="draw-line_3" d="M745.5 565.5V872.5" stroke="#00FF00" stroke-width="100" stroke-linecap="round"/>
<path id="draw-line d1_5" d="M745.5 566.5L420 521" stroke="#00FF00" stroke-width="100" stroke-linecap="round"/>
<path id="draw-line d2_3" d="M746 566L869 405" stroke="#00FF00" stroke-width="100" stroke-linecap="round"/>
<path id="Vector 10_3" d="M419 521L419.5 814.5" stroke="#00FF00" stroke-width="100" stroke-linecap="round"/>
<path id="Vector 11_3" d="M745.5 873L419.5 816.5" stroke="#00FF00" stroke-width="100" stroke-linecap="round"/>
<path id="Vector 12_3" d="M869.5 405L869 676" stroke="#00FF00" stroke-width="100" stroke-linecap="round"/>
<path id="Vector 13_3" d="M746 872L869 676" stroke="#00FF00" stroke-width="100" stroke-linecap="round"/>
<path id="Vector 12_4" d="M869.5 405L869 676" stroke="#0000FF" stroke-width="7" stroke-linecap="round"/>
<path id="Vector 13_4" d="M746 872L869 676" stroke="#0000FF" stroke-width="7" stroke-linecap="round"/>
</g>
</g>
<g id="step-10">
<g id="input_5">
<path id="a_15" d="M745.5 565.5V872.5" stroke="#0000FF" stroke-width="7" stroke-linecap="round"/>
<path id="a_16" d="M745.5 566.5L420 521" stroke="#0000FF" stroke-width="7" stroke-linecap="round"/>
<path id="a_17" d="M746 566L869 405" stroke="#0000FF" stroke-width="7" stroke-linecap="round"/>
<path id="draw-line d1_6" d="M419 521L419.5 814.5" stroke="#0000FF" stroke-width="7" stroke-linecap="round"/>
<path id="draw-line d3_4" d="M745.5 873L419.5 816.5" stroke="#0000FF" stroke-width="7" stroke-linecap="round"/>
<text id="a_18" fill="black" xml:space="preserve" style="white-space: pre" font-family="Roboto" font-size="31" letter-spacing="0.09em"><tspan x="283" y="145.596">Great!&#10;</tspan><tspan x="283" y="206.596">Now </tspan><tspan x="364.939" y="206.596">let&#39;s </tspan><tspan x="443.679" y="206.596">draw </tspan><tspan x="532.889" y="206.596">a </tspan><tspan x="563.021" y="206.596">box </tspan><tspan x="632.003" y="206.596">step </tspan><tspan x="713.614" y="206.596">by </tspan><tspan x="761.582" y="206.596">step.&#10;</tspan><tspan x="283" y="267.596">You </tspan><tspan x="354.253" y="267.596">can </tspan><tspan x="423.296" y="267.596">draw </tspan><tspan x="512.505" y="267.596">over </tspan><tspan x="593.329" y="267.596">your </tspan><tspan x="674.698" y="267.596">lines </tspan><tspan x="763.731" y="267.596">here.</tspan></text>
</g>
<g id="template_5">
<path id="draw-line_4" d="M745.5 565.5V872.5" stroke="#00FF00" stroke-width="100" stroke-linecap="round"/>
<path id="draw-line d1_7" d="M745.5 566.5L420 521" stroke="#00FF00" stroke-width="100" stroke-linecap="round"/>
<path id="draw-line d2_4" d="M746 566L869 405" stroke="#00FF00" stroke-width="100" stroke-linecap="round"/>
<path id="Vector 10_4" d="M419 521L419.5 814.5" stroke="#00FF00" stroke-width="100" stroke-linecap="round"/>
<path id="Vector 11_4" d="M745.5 873L419.5 816.5" stroke="#00FF00" stroke-width="100" stroke-linecap="round"/>
<path id="Vector 10_5" d="M419 521L419.5 814.5" stroke="#0000FF" stroke-width="7" stroke-linecap="round"/>
<path id="Vector 11_5" d="M745.5 873L419.5 816.5" stroke="#0000FF" stroke-width="7" stroke-linecap="round"/>
</g>
</g>
<g id="step-9">
<g id="input_6">
<path id="draw-line d1_8" d="M745.5 565.5V872.5" stroke="#0000FF" stroke-width="7" stroke-linecap="round"/>
<path id="draw-line d3_5" d="M745.5 566.5L420 521" stroke="#0000FF" stroke-width="7" stroke-linecap="round"/>
<path id="draw-line d5_2" d="M746 566L869 405" stroke="#0000FF" stroke-width="7" stroke-linecap="round"/>
<text id="appear_3" fill="black" xml:space="preserve" style="white-space: pre" font-family="Roboto" font-size="31" letter-spacing="0.09em"><tspan x="283" y="145.596">Great!&#10;</tspan><tspan x="283" y="206.596">Now </tspan><tspan x="364.939" y="206.596">let&#39;s </tspan><tspan x="443.679" y="206.596">draw </tspan><tspan x="532.889" y="206.596">a </tspan><tspan x="563.021" y="206.596">box </tspan><tspan x="632.003" y="206.596">step </tspan><tspan x="713.614" y="206.596">by </tspan><tspan x="761.582" y="206.596">step.&#10;</tspan><tspan x="283" y="267.596">You </tspan><tspan x="354.253" y="267.596">can </tspan><tspan x="423.296" y="267.596">draw </tspan><tspan x="512.505" y="267.596">over </tspan><tspan x="593.329" y="267.596">your </tspan><tspan x="674.698" y="267.596">lines </tspan><tspan x="763.731" y="267.596">here.</tspan></text>
</g>
<g id="template_6">
<path id="draw-line_5" d="M745.5 565.5V872.5" stroke="#00FF00" stroke-width="100" stroke-linecap="round"/>
<path id="draw-line d1_9" d="M745.5 566.5L420 521" stroke="#00FF00" stroke-width="100" stroke-linecap="round"/>
<path id="draw-line d2_5" d="M746 566L869 405" stroke="#00FF00" stroke-width="100" stroke-linecap="round"/>
<path id="draw-line_6" d="M745.5 565.5V872.5" stroke="#0000FF" stroke-width="7" stroke-linecap="round"/>
<path id="draw-line d1_10" d="M745.5 566.5L420 521" stroke="#0000FF" stroke-width="7" stroke-linecap="round"/>
<path id="draw-line d2_6" d="M746 566L869 405" stroke="#0000FF" stroke-width="7" stroke-linecap="round"/>
</g>
</g>
<g id="step-8">
<g id="input_7">
<path id="appear d4" d="M505.375 898.5C495.875 881 501.073 675.776 505.375 590.161C496.317 576.372 847.769 578.916 860.706 584.517C873.644 590.117 860.745 906.001 860.745 906.001C790.955 902 646.662 903.187 505.375 898.5Z" stroke="black" stroke-width="5"/>
<path id="appear d3" d="M148 519H1218.5" stroke="#999999" stroke-width="5"/>
<path id="appear d1_3" d="M521.805 315.239C542.972 277.887 590.469 262.63 662.231 260C704.221 262.806 796.669 272.731 830.536 289.987C872.871 311.556 841.378 407.83 830.536 443.603C819.694 479.377 662.231 466.751 588.92 461.49C515.61 456.229 500.638 352.591 521.805 315.239Z" stroke="#999999" stroke-width="6"/>
<path id="draw-line d2_7" d="M525.884 330.685L627.362 269.944M522 356.926L667.177 268M525.884 384.624L704.078 271.402M532.682 405.033L743.406 276.747M541.907 423.499L777.88 282.092M559.872 440.506L811.868 291.325M586.577 452.655L834.202 306.875M628.819 455.57L841 332.629M674.945 458L839.058 365.673M723.985 458L832.26 397.744M783.221 455.57L821.578 433.703" stroke="#00AA00" stroke-width="15" stroke-linecap="round"/>
<text id="appear_4" fill="black" xml:space="preserve" style="white-space: pre" font-family="Roboto" font-size="31" letter-spacing="0.09em"><tspan x="283" y="155.596">Let&#39;s </tspan><tspan x="370.883" y="155.596">take </tspan><tspan x="451.374" y="155.596">it </tspan><tspan x="485.113" y="155.596">up </tspan><tspan x="535.684" y="155.596">a </tspan><tspan x="565.816" y="155.596">notch,&#10;</tspan><tspan x="283" y="216.596">try </tspan><tspan x="337.451" y="216.596">to </tspan><tspan x="381.029" y="216.596">shade </tspan><tspan x="489.316" y="216.596">this </tspan><tspan x="561.694" y="216.596">area </tspan><tspan x="643.698" y="216.596">with </tspan><tspan x="723.402" y="216.596">hatching, </tspan><tspan x="884.505" y="216.596">like </tspan><tspan x="953.069" y="216.596">this</tspan></text>
</g>
<g id="template_7">
<path id="appear_5" d="M860.745 906.001C875.732 906.613 875.732 906.611 875.732 906.608L875.733 906.597L875.735 906.553L875.742 906.379L875.769 905.696C875.793 905.095 875.829 904.204 875.875 903.043C875.966 900.721 876.099 897.317 876.263 892.984C876.591 884.319 877.045 871.938 877.549 857.065C878.558 827.324 879.768 787.59 880.574 747.661C881.379 707.777 881.783 667.523 881.167 636.81C880.86 621.508 880.294 608.252 879.353 598.497C878.889 593.694 878.288 589.224 877.44 585.617C877.029 583.865 876.419 581.694 875.441 579.596C874.829 578.282 872.463 573.261 866.665 570.751C864.349 569.748 861.912 569.354 860.915 569.193C859.438 568.954 857.743 568.754 855.952 568.578C852.345 568.223 847.656 567.901 842.152 567.607C831.105 567.017 816.182 566.508 798.805 566.101C764.021 565.286 719.019 564.874 674.726 565.068C630.472 565.262 586.717 566.063 554.497 567.694C538.475 568.504 524.881 569.54 515.413 570.878C510.894 571.516 506.308 572.353 502.717 573.627C501.287 574.134 497.85 575.415 494.958 578.305C493.313 579.949 491.051 582.913 490.385 587.252C490.162 588.703 490.152 590.084 490.295 591.378C488.161 634.622 485.842 706.304 485.2 769.722C484.874 801.901 484.978 832.124 485.77 855.487C486.166 867.143 486.739 877.314 487.548 885.257C487.951 889.216 488.435 892.852 489.037 895.954C489.558 898.634 490.427 902.406 492.192 905.657L496.291 913.207L504.877 913.492C575.143 915.823 645.34 916.701 706.844 917.471C770.244 918.264 824.407 918.942 859.886 920.976L875.11 921.849L875.732 906.613L860.745 906.001Z" fill="#0000FF" stroke="#00FF00" stroke-width="30"/>
</g>
</g>
<g id="step-7">
<g id="input_8">
<path id="appear d1_4" d="M505.375 795.5C495.875 778 501.073 572.776 505.375 487.161C496.317 473.372 847.769 475.916 860.706 481.517C873.644 487.117 860.745 803.001 860.745 803.001C790.955 799 646.662 800.187 505.375 795.5Z" stroke="black" stroke-width="5"/>
<path id="draw-line d3 r1" d="M521.977 509.933C528.466 505.505 536.542 499.449 543.845 496.404C548.163 494.603 551.774 490.281 556.581 490.008C562.661 489.662 553.505 500.987 551.174 503.046C546.6 507.085 540.863 510.969 535.794 514.361C531.671 517.122 529.627 519.614 526.303 523.217C519.949 530.104 535.426 521.039 537.356 520.142C553.05 512.855 569.756 505.611 586.618 501.939C592.448 500.669 607.965 491.756 603.439 495.727C588 509.275 573.15 522.692 556.16 534.287C544.923 541.956 532.168 549.316 522.578 559.133C519.409 562.377 526.874 559.887 527.864 559.502C539.991 554.781 552.388 549.986 564.27 544.68C589.673 533.338 615.663 522.25 642.368 514.607C651.538 511.983 660.512 508.764 669.042 504.399C673.8 501.963 678.36 498.099 681.838 494.005C682.734 492.95 687.371 489.183 684.541 490.5C674.463 495.189 664.839 501.976 654.924 507.166C640.534 514.699 625.616 521.774 611.85 530.474C597.585 539.49 587.88 554.016 574.964 564.668C564.743 573.096 555.361 582.297 544.686 590.19C540.88 593.003 535.678 598.512 531.169 599.538C527.923 600.276 531.525 599.162 533.031 598.492C545.239 593.059 556.871 586.228 568.656 579.919C599.139 563.601 631.559 550.809 661.713 534.041C681.966 522.779 703.369 513.735 724.431 504.153C729.262 501.955 734.324 499.298 738.669 496.219C741.661 494.099 740.138 495.662 737.528 497.142C702.99 516.723 673.454 544.051 638.884 563.561C619.634 574.424 602.653 587.241 584.636 599.538C565.733 612.438 545.106 623.073 526.543 636.375C523.23 638.75 519.187 640.73 516.09 643.325C515.358 643.938 511.303 646.882 513.807 645.6C539.255 632.575 563.106 616.24 587.94 602.059C606.551 591.431 625.021 580.804 644.05 571.063C650.482 567.771 657.757 566.048 664.055 562.577C668.42 560.171 653.367 572.072 651.98 573.277C621.13 600.1 590.547 627.219 559.404 653.657C552.855 659.217 545.218 663.111 538.738 668.724C534.98 671.979 529.52 676.486 525.221 678.687C523.69 679.47 516.5 683.855 517.351 682.5C518.804 680.187 521.705 678.613 523.719 676.903C529.635 671.881 535.455 666.874 541.562 662.082C549.63 655.752 556.343 648.23 565.772 643.94C585.338 635.038 604.033 622.578 622.243 611.038C658.378 588.138 695.879 567.07 729.838 540.683C740.805 532.162 752.852 521.501 765.523 515.714C777.762 510.124 790.408 505.627 802.049 498.864C805.836 496.663 809.665 494.126 813.343 491.73C815.975 490.015 811.418 493.148 810.7 494.436C805.151 504.376 793.949 510.326 784.747 516.083C759.916 531.617 734.342 545.003 710.614 562.515C692.644 575.777 674.749 589.461 656.186 601.813C641.976 611.268 629.118 623.183 615.214 633.054C601.396 642.865 588.324 653.402 574.964 663.804C565.017 671.548 555.671 680.803 544.686 687.051C538.91 690.335 534.094 695.409 528.706 699.227C527.356 700.184 526.073 701.915 524.681 702.548C519.944 704.704 529.115 704.762 530.268 704.762C556.597 704.762 583.828 701.897 608.005 690.802C619.608 685.478 630.014 676.645 639.184 667.863C648.274 659.158 659.369 653.153 669.042 645.231C689.526 628.455 708.917 610.594 728.516 592.711C748.623 574.366 768.356 555.499 787.631 536.255C797.526 526.375 808.352 518.423 820.372 511.655C825.505 508.765 841.789 503.292 835.931 503.292C827.527 503.292 818.466 511.853 811.901 516.206C793.544 528.378 774.96 540.187 756.572 552.306C735.663 566.087 713.705 577.98 693.252 592.404C680.129 601.658 668.047 612.352 655.825 622.846C643.578 633.361 630.288 642.654 617.137 651.873C597.265 665.803 575.007 675.364 554.898 688.773C547.083 693.984 539.187 698.716 532.31 705.193C529.863 707.498 527.493 708.492 526.543 711.896C525.162 716.842 521.839 721.159 519.574 725.795C518.954 727.065 516.914 728.716 516.63 729.731C515.832 732.591 532.354 729.711 533.512 729.485C548.171 726.626 561.662 718.488 575.504 713.065C589.078 707.747 601.949 702.093 614.734 695.046C631.923 685.57 649.348 676.617 666.519 667.125C695.131 651.308 725.298 638.789 752.126 619.648C776.503 602.255 799.817 583.356 824.757 566.943C833.044 561.489 841.311 553.999 845.063 545.357C846.686 541.617 847.647 537.608 842.9 537.608C833.889 537.608 825.738 537.617 817.248 541.298C797.149 550.012 779.891 562.924 762.639 576.352C731.081 600.917 702.393 630.04 673.127 657.408C646.696 682.126 620.174 706.306 591.244 727.947C575.361 739.83 561.665 754.429 545.887 766.138C539.836 770.629 532.63 778.019 525.762 781.144C523.838 782.019 522.785 782.791 525.702 782.005C538.874 778.457 552.272 771.746 564.27 765.4C589.735 751.932 615.148 736.807 639.364 721.121C654.529 711.298 668.95 700.242 684.301 690.741C714.441 672.085 744.031 650.767 775.856 635.268C791.265 627.764 806.511 617.742 819.35 606.241C824.809 601.352 831.602 598.643 837.193 594.064C838.39 593.083 845.479 590.27 843.681 591.727C822.554 608.849 799.613 625.371 780.782 645.17C773.307 653.028 764.964 659.214 756.632 666.018C748.704 672.492 741.558 679.883 733.803 686.559C710.661 706.48 685.572 722.759 660.871 740.432C647.562 749.955 635.01 760.643 621.702 770.074C618.674 772.221 614.483 776.303 610.648 776.716C608.824 776.913 598.712 780.841 604.641 778.93C643.576 766.382 676.989 740.677 710.494 717.677C728.96 705.001 748.219 693.513 766.784 680.962C783.16 669.892 796.6 654.653 812.742 643.386C820.237 638.155 841.564 621.015 835.15 627.581C813.464 649.782 792.271 672.821 769.187 693.57C763.12 699.024 756.554 704.509 749.903 709.19C742.884 714.13 737.168 720.302 730.198 725.242C718.63 733.441 708.402 743.212 696.616 751.256C688.305 756.928 681.889 764.057 674.929 771.181C674.366 771.757 671.325 773.374 671.325 773.949C671.325 776.887 700.339 764.429 701.603 763.801C727.718 750.826 750.495 733.011 773.453 715.217C782.246 708.401 792.078 702.177 799.886 694.185C806.457 687.458 814.562 680.051 822.114 674.382C827.189 670.572 833.771 669.272 839.295 666.633C842.02 665.332 845.118 663.583 841.098 667.248C827.52 679.624 813.569 691.712 801.027 705.193C788.655 718.492 776.187 731.208 764.682 745.229C760.692 750.091 755.865 754.004 752.066 759.005C750.365 761.243 748.224 765.059 745.818 766.507C741.758 768.952 738.017 772.702 733.322 774.256C732.698 774.463 731.55 774.602 731.76 775.609C732.596 779.599 739.145 772.439 742.514 770.259C761.256 758.13 779.326 744.887 797.964 732.56C806.767 726.738 815.244 720.661 823.616 714.233C827.181 711.496 830.756 708.578 835.09 707.222C837.622 706.43 845.002 702.344 844.642 702.671C826.774 718.931 809.312 735.663 791.776 752.301C786.657 757.158 782.994 762.744 778.259 767.86C776.612 769.64 771.351 774.068 770.749 776.224C770.053 778.719 776.919 772.389 777.658 771.796C786.654 764.576 795.52 756.626 805.113 750.272C811.99 745.716 818.346 740.744 825.839 737.111C829.451 735.359 832.963 733.194 836.652 731.576C837.589 731.165 835.254 733.099 834.489 733.79C830.972 736.967 828.247 740.851 825.298 744.552C820.378 750.726 815.12 756.693 809.618 762.325C806.634 765.381 802.543 769.948 802.049 774.502C801.91 775.775 799.499 777.888 802.83 777.147C813.867 774.69 824.252 767.815 833.468 761.526C836.413 759.516 839.443 757.695 842.419 755.745C842.422 755.744 845.947 753.313 845.904 753.716C845.777 754.886 842.783 757.156 842.179 757.774C837.487 762.578 832.678 767.288 828.121 772.227C827.004 773.437 817.477 783.358 821.513 783.358C826.581 783.358 832.661 781.36 837.013 778.93C839.874 777.333 851.791 767.768 851.791 774.01C851.791 776.057 852.498 779.598 851.311 781.39C849.237 784.519 845.397 786.391 844.222 790" stroke="#00AA00" stroke-width="39" stroke-linecap="round" stroke-linejoin="round"/>
<text id="appear_6" fill="black" xml:space="preserve" style="white-space: pre" font-family="Roboto" font-size="31" letter-spacing="0.09em"><tspan x="283" y="225.596">Cool!&#10;</tspan><tspan x="283" y="286.596">But </tspan><tspan x="348.41" y="286.596">can </tspan><tspan x="417.453" y="286.596">you </tspan><tspan x="485.527" y="286.596">paint </tspan><tspan x="579.01" y="286.596">this </tspan><tspan x="651.388" y="286.596">entire </tspan><tspan x="756.471" y="286.596">area </tspan><tspan x="838.475" y="286.596">over?</tspan></text>
</g>
<g id="template_8">
<path id="appear_7" d="M860.745 803.001C873.234 803.511 873.234 803.509 873.234 803.507L873.235 803.495L873.237 803.451L873.244 803.278L873.271 802.596C873.295 801.995 873.331 801.105 873.377 799.944C873.468 797.623 873.601 794.221 873.765 789.89C874.093 781.227 874.547 768.85 875.051 753.98C876.059 724.246 877.269 684.524 878.074 644.611C878.879 604.735 879.283 564.521 878.668 533.86C878.361 518.575 877.797 505.395 876.864 495.737C876.404 490.97 875.816 486.632 875.007 483.189C874.612 481.511 874.049 479.528 873.175 477.652C872.605 476.43 870.571 472.166 865.672 470.045C863.674 469.181 861.521 468.823 860.516 468.661C859.112 468.434 857.473 468.239 855.708 468.065C852.154 467.716 847.508 467.397 842.019 467.103C831.008 466.515 816.113 466.007 798.746 465.6C763.989 464.786 719.011 464.374 674.737 464.568C630.496 464.762 586.786 465.563 554.623 467.19C538.615 468.001 525.114 469.032 515.763 470.353C511.266 470.989 506.892 471.799 503.553 472.983C502.188 473.467 499.202 474.599 496.725 477.074C495.321 478.477 493.416 480.981 492.856 484.631C492.658 485.921 492.659 487.147 492.803 488.29C490.667 531.477 488.342 603.257 487.7 666.747C487.374 698.913 487.478 729.094 488.269 752.403C488.664 764.035 489.235 774.142 490.035 782.004C490.434 785.924 490.909 789.478 491.491 792.477C492.005 795.125 492.82 798.573 494.389 801.464L497.805 807.756L504.96 807.993C575.077 810.319 645.257 811.199 706.785 811.97C770.27 812.766 824.543 813.446 860.029 815.48L872.716 816.207L873.234 803.511L860.745 803.001Z" fill="#0000FF" stroke="#00FF00" stroke-width="25"/>
</g>
</g>
<g id="step-6">
<g id="input_9">
<path id="appear d2" d="M209 814.577L1157.82 513" stroke="#0000FF" stroke-width="10" stroke-linecap="round" stroke-linejoin="round"/>
<path id="draw-line d3 r2" d="M208.519 814.922C210.078 812.834 215.557 802.073 218.28 801.295C219.525 800.939 221.293 801.807 222.21 800.661C225.231 796.884 236.448 805.956 239.197 806.873C244.858 808.76 244.486 808.17 247.944 804.084C249.6 802.126 255.485 794.386 258.148 794.386C262.273 794.386 266.011 795.527 270.191 795.527C278.647 795.527 282.342 789.502 288.953 785.829C295.637 782.116 305.77 787.515 312.912 783.547C318.206 780.606 324.61 774.483 327.173 768.716C330.902 760.326 351.29 762.441 358.548 762.441C360.412 762.441 366.972 763.462 368.246 761.87C370.731 758.764 373.546 757.201 376.866 755.088C381.706 752.008 389.63 753.313 394.994 753.313C400.479 753.313 401.654 751.326 405.959 749.891C408.312 749.107 411.105 746.955 412.995 745.581C415.989 743.403 425.549 745.399 429.094 745.074C434.361 744.59 439.361 743.045 444.687 743.045C447.438 743.045 451.686 743.914 453.814 741.904C456.443 739.421 458.532 735.805 461.8 734.172C467.9 731.122 474.288 729.164 480.055 725.044C482.914 723.002 486.897 722.509 490.323 722.509C500.797 722.509 510.398 717.55 520.24 714.269C524.255 712.931 527.232 709.959 531.395 709.959C538.089 709.959 544.156 707.009 550.537 706.536C553.296 706.332 556.521 704.187 558.777 702.86C563.852 699.875 565.775 699.837 572.215 699.691C579.08 699.535 586.127 697.606 593.004 697.409C596.161 697.319 603.108 698.714 605.554 696.268C608.797 693.026 610.602 687.745 612.653 683.718C613.515 682.026 615.162 676.939 616.963 675.985C621.289 673.695 629.171 673.684 634.077 672.563C637.598 671.758 641.455 671.746 644.979 671.105C650.507 670.1 654.781 667.859 659.811 665.464C667.067 662.008 675.776 658.618 683.706 658.618C691.303 658.618 698.867 660.9 706.525 660.9C710.3 660.9 711.232 657.033 714.448 655.196C716.982 653.747 719.518 653.951 722.624 653.421C730.57 652.064 738.589 650.027 746.33 647.78C751.469 646.288 754.532 645.439 759.703 644.864C771.316 643.574 776.733 633.603 784.106 626.229C787.027 623.309 797.434 624.391 801.22 624.391C808.211 624.391 816.797 623.598 823.467 621.475C828.78 619.785 830.899 615.649 835.51 613.552C847.708 608.008 855.458 609.559 868.47 609.559C872.625 609.559 877.879 600.724 882.288 598.721C890.203 595.123 899.911 591.56 908.338 589.657C918.455 587.372 929.549 589.796 938.699 584.713C944.685 581.387 951.497 579.535 957.841 575.332C964.677 570.803 966.99 568.202 974.955 568.487C980.706 568.692 987.041 571.503 992.575 568.233C999.066 564.397 1003.75 557.957 1010.58 554.542C1017.57 551.046 1027.71 551.739 1035.42 549.345C1040.8 547.675 1042.24 547.028 1046.58 541.865C1052.84 534.416 1056.47 534.259 1065.59 534.259C1073.41 534.259 1081.23 534.259 1089.05 534.259C1093.01 534.259 1097.57 533.478 1100.71 530.837C1102.75 529.12 1109.74 528.266 1112.37 527.668C1121.91 525.498 1126.28 518.287 1136.08 518.287C1140.77 518.287 1140.52 515.243 1144.06 513.47C1147.62 511.69 1150.4 511.441 1154.33 511.441" stroke="#00AA00" stroke-width="15" stroke-linecap="round" stroke-linejoin="round"/>
<text id="appear_8" fill="black" xml:space="preserve" style="white-space: pre" font-family="Roboto" font-size="31" letter-spacing="0.09em"><tspan x="283" y="200.596">Good </tspan><tspan x="378.628" y="200.596">job!&#10;</tspan><tspan x="283" y="261.596">Now </tspan><tspan x="375.018" y="261.596">let&#39;s </tspan><tspan x="463.837" y="261.596">try </tspan><tspan x="528.367" y="261.596">the </tspan><tspan x="600.95" y="261.596">opposite, </tspan><tspan x="772.98" y="261.596">trace </tspan><tspan x="877.056" y="261.596">the </tspan><tspan x="949.639" y="261.596">line </tspan><tspan x="1029.98" y="261.596">but </tspan><tspan x="283" y="297.596">make </tspan><tspan x="380.535" y="297.596">it </tspan><tspan x="414.274" y="297.596">jagged </tspan><tspan x="534.524" y="297.596">and </tspan><tspan x="604.838" y="297.596">rough.</tspan></text>
</g>
<g id="template_9">
<path id="draw-line_7" d="M209 814.577L1157.82 513" stroke="#00FF00" stroke-width="110" stroke-linecap="round" stroke-linejoin="round"/>
<path id="draw-line_8" d="M209 814.577L1157.82 513" stroke="#0000FF" stroke-width="10" stroke-linecap="round" stroke-linejoin="round"/>
</g>
</g>
<g id="step-5">
<g id="input_10">
<path id="draw-line d2_8" d="M209 814.577L1157.82 513" stroke="#0000FF" stroke-width="10" stroke-linecap="round" stroke-linejoin="round"/>
<text id="appear_9" fill="black" xml:space="preserve" style="white-space: pre" font-family="Roboto" font-size="31" letter-spacing="0.09em"><tspan x="283" y="200.596">That&#39;s </tspan><tspan x="392.987" y="200.596">right!&#10;</tspan><tspan x="283" y="261.596">Let&#39;s </tspan><tspan x="370.883" y="261.596">now </tspan><tspan x="447.827" y="261.596">trace </tspan><tspan x="541.825" y="261.596">this </tspan><tspan x="614.202" y="261.596">line </tspan><tspan x="684.461" y="261.596">as </tspan><tspan x="733.367" y="261.596">smooth </tspan><tspan x="866.332" y="261.596">as </tspan><tspan x="915.238" y="261.596">possible.&#10;</tspan><tspan x="283" y="322.596">It </tspan><tspan x="321.307" y="322.596">helps </tspan><tspan x="423.839" y="322.596">to </tspan><tspan x="471.078" y="322.596">move </tspan><tspan x="572.242" y="322.596">your </tspan><tspan x="657.272" y="322.596">entire </tspan><tspan x="766.014" y="322.596">hand, </tspan><tspan x="868.728" y="322.596">not </tspan><tspan x="936.163" y="322.596">just </tspan><tspan x="1012.11" y="322.596">your </tspan><tspan x="283" y="358.596">wrist. </tspan><tspan x="385.267" y="358.596">Try </tspan><tspan x="446.923" y="358.596">to </tspan><tspan x="490.501" y="358.596">make </tspan><tspan x="588.036" y="358.596">it </tspan><tspan x="621.776" y="358.596">a </tspan><tspan x="651.907" y="358.596">fast </tspan><tspan x="727.312" y="358.596">and </tspan><tspan x="797.627" y="358.596">steady </tspan><tspan x="916.453" y="358.596">motion.</tspan></text>
</g>
<g id="template_10">
<path id="draw-line d1_11" d="M209 814.577L1157.82 513" stroke="#00FF00" stroke-width="80" stroke-linecap="round" stroke-linejoin="round"/>
<path id="draw-line d1_12" d="M209 814.577L1157.82 513" stroke="#0000FF" stroke-width="10" stroke-linecap="round" stroke-linejoin="round"/>
</g>
</g>
<g id="step-4">
<g id="input_11">
<g id="appear d3_2">
<g id="Group 4">
<circle id="Ellipse 2" cx="555.5" cy="745.5" r="67" fill="#80FF8C" stroke="#999999" stroke-width="3"/>
<rect id="Rectangle 1" x="534.5" y="833.5" width="41" height="41" stroke="#555555" stroke-width="3"/>
</g>
<g id="Group 3">
<circle id="Ellipse 3" cx="810.5" cy="745.5" r="67" fill="#26F7D1" stroke="#999999" stroke-width="3"/>
<rect id="Rectangle 2" x="790.5" y="833.5" width="41" height="41" stroke="#555555" stroke-width="3"/>
</g>
<g id="Group 2">
<circle id="Ellipse 4" cx="300.5" cy="745.5" r="67" fill="#44FFAA" stroke="#999999" stroke-width="3"/>
<rect id="Rectangle 3" x="280.5" y="833.5" width="41" height="41" stroke="#555555" stroke-width="3"/>
</g>
<g id="Group 1">
<circle id="Ellipse 5" cx="1065.5" cy="745.5" r="67" fill="#43EEA0" stroke="#999999" stroke-width="3"/>
<rect id="Rectangle 4" x="1045.5" y="833.5" width="41" height="41" stroke="#555555" stroke-width="3"/>
</g>
</g>
<path id="appear d2_2" d="M148 575H1218.5" stroke="#999999" stroke-width="5"/>
<path id="appear d1_5" d="M626.058 348.883C636.266 335.817 651.775 323.689 667.638 319.156C670.663 318.292 669.446 321.167 668.272 324.037C665.152 331.662 663.162 339.303 658.257 346.094C652.192 354.492 642.113 360.127 637.467 369.419C634.242 375.869 631.194 382.534 628.911 389.385C628.497 390.627 621.382 405.121 625.044 404.597C631.862 403.623 642.382 393.195 647.736 388.815C654.165 383.554 661.838 378.146 668.969 373.92C688.13 362.565 707.003 342.495 729.31 337.537C736.028 336.045 728.481 346.275 727.472 347.742C720.499 357.885 710.402 368.532 701.295 376.835C684.485 392.162 661.426 412.235 661.426 436.479C661.426 440.785 665.923 437.095 668.272 435.529C675.875 430.46 683.02 424.9 690.52 419.683C701.411 412.106 712.041 400.49 724.24 395.153C726.937 393.973 739.235 389.549 742.177 392.491C746.207 396.521 732.105 410.455 729.627 413.027C728.697 413.994 716.975 428.457 721.895 428.747C726.161 428.998 738.532 423.994 740.149 420.76" stroke="#44FFAA" stroke-width="70" stroke-linecap="round" stroke-linejoin="round"/>
<text id="appear_10" fill="black" xml:space="preserve" style="white-space: pre" font-family="Roboto" font-size="31" letter-spacing="0.09em"><tspan x="283" y="178.596">Let&#x2019;s </tspan><tspan x="371.185" y="178.596">try </tspan><tspan x="425.636" y="178.596">a </tspan><tspan x="455.768" y="178.596">multiple </tspan><tspan x="599.459" y="178.596">choice </tspan><tspan x="717.862" y="178.596">question. </tspan><tspan x="870.756" y="178.596">&#10;</tspan><tspan x="283" y="239.596">Check </tspan><tspan x="393.073" y="239.596">the </tspan><tspan x="455.577" y="239.596">color </tspan><tspan x="549.635" y="239.596">most </tspan><tspan x="642.266" y="239.596">similar </tspan><tspan x="765.427" y="239.596">to </tspan><tspan x="809.005" y="239.596">this </tspan><tspan x="881.382" y="239.596">one:</tspan></text>
</g>
<g id="template_11">
<rect id="Rectangle 8" x="207" y="652" width="186" height="259" fill="#0000FF"/>
</g>
</g>
<g id="step-3">
<g id="input_12">
<g id="Group 6">
<rect id="appear d1_6" x="1218.5" y="877.5" width="95" height="95" stroke="#999999" stroke-width="5"/>
<path id="draw-line d3_6" d="M1232 919C1261.2 950.2 1261 960.5 1261 960.5C1261 960.5 1290 887 1312 861" stroke="#0000FF" stroke-opacity="0.1" stroke-width="10" stroke-linecap="round" stroke-linejoin="round"/>
</g>
<path id="draw-line d8 r0" d="M239.5 266.5C473 356 975.5 574.5 1232 760.5" stroke="#FF0000" stroke-width="20" stroke-miterlimit="5.75877" stroke-linecap="round"/>
<path id="draw-line d4 r4" d="M290 815C474.48 667.216 923.953 354.118 1246 284" stroke="#FF0000" stroke-width="20" stroke-miterlimit="5.75877" stroke-linecap="round"/>
<text id="appear_11" fill="black" xml:space="preserve" style="white-space: pre" font-family="Roboto" font-size="31" letter-spacing="0.09em"><tspan x="283" y="152.596">To </tspan><tspan x="347.905" y="152.596">restart </tspan><tspan x="483.13" y="152.596">the </tspan><tspan x="559.816" y="152.596">step, </tspan><tspan x="664.485" y="152.596">draw </tspan><tspan x="767.878" y="152.596">a </tspan><tspan x="812.193" y="152.596">line </tspan><tspan x="896.634" y="152.596">across </tspan><tspan x="1030.98" y="152.596">the </tspan><tspan x="283" y="188.596">screen. </tspan><tspan x="412.972" y="188.596">Try </tspan><tspan x="474.628" y="188.596">it!&#10;</tspan><tspan x="283" y="249.596">Check </tspan><tspan x="393.073" y="249.596">the </tspan><tspan x="455.577" y="249.596">box </tspan><tspan x="524.559" y="249.596">when </tspan><tspan x="620.126" y="249.596">you&#39;re </tspan><tspan x="728.63" y="249.596">done.</tspan></text>
</g>
<g id="template_12">
<rect id="Rectangle 6_3" x="1191" y="850" width="150" height="150" fill="#0000FF" stroke="#00FF00" stroke-width="50"/>
</g>
</g>
<g id="step-2">
<g id="template_13">
<path id="draw-line_9" d="M541 808L824.5 808.5" stroke="#00FF00" stroke-width="80" stroke-linecap="round" stroke-linejoin="round"/>
<path id="draw-line d1_13" d="M759 756L825 808L759 860" stroke="#00FF00" stroke-width="80" stroke-linecap="round" stroke-linejoin="round"/>
<path id="draw-line_10" d="M541 808L824.5 808.5" stroke="#0000FF" stroke-width="10" stroke-linecap="round" stroke-linejoin="round"/>
<path id="draw-line d1_14" d="M759 756L825 808L759 860" stroke="#0000FF" stroke-width="10" stroke-linecap="round" stroke-linejoin="round"/>
</g>
<g id="input_13">
<g id="Group 8">
<path id="draw-line d2_9" d="M541 808L824.5 808.5" stroke="#0000FF" stroke-width="10" stroke-linecap="round" stroke-linejoin="round"/>
<path id="draw-line d3_7" d="M759 756L825 808L759 860" stroke="#0000FF" stroke-width="10" stroke-linecap="round" stroke-linejoin="round"/>
</g>
<g id="appear_12">
<text fill="black" xml:space="preserve" style="white-space: pre" font-family="Roboto" font-size="31" letter-spacing="0.09em"><tspan x="283" y="415.596">This </tspan><tspan x="363.733" y="415.596">bar </tspan><tspan x="427.357" y="415.596">shows </tspan><tspan x="541.82" y="415.596">how </tspan><tspan x="618.734" y="415.596">well </tspan><tspan x="695.198" y="415.596">you </tspan><tspan x="763.272" y="415.596">are </tspan><tspan x="825.625" y="415.596">doing </tspan><tspan x="927.282" y="415.596">the </tspan><tspan x="989.785" y="415.596">task.&#10;</tspan><tspan x="389.864" y="476.596"> </tspan><tspan x="426.08" y="476.596">means </tspan><tspan x="569.82" y="476.596">you&#x2019;re </tspan><tspan x="704.847" y="476.596">doing </tspan><tspan x="832.24" y="476.596">well </tspan><tspan x="934.441" y="476.596">and </tspan><tspan x="1083" y="476.596"> </tspan><tspan x="283" y="512.596">highlights </tspan><tspan x="456.157" y="512.596">your </tspan><tspan x="537.526" y="512.596">mistakes.&#10;</tspan><tspan x="283" y="573.596">Trace </tspan><tspan x="384.203" y="573.596">the </tspan><tspan x="446.707" y="573.596">arrow </tspan><tspan x="549.696" y="573.596">and </tspan><tspan x="620.01" y="573.596">notice </tspan><tspan x="732.358" y="573.596">how </tspan><tspan x="809.272" y="573.596">it </tspan><tspan x="843.011" y="573.596">fills </tspan><tspan x="912.876" y="573.596">up.</tspan></text>
<text fill="#BB0000" xml:space="preserve" style="white-space: pre" font-family="Roboto" font-size="31" letter-spacing="0.09em"><tspan x="1030.49" y="476.596">red</tspan></text>
<text fill="#AEA700" xml:space="preserve" style="white-space: pre" font-family="Roboto" font-size="31" letter-spacing="0.09em"><tspan x="283" y="476.596">Yellow</tspan></text>
</g>
<path id="draw-line d1 flip" d="M589 0.999995C589 255.253 351 158.988 351 377" stroke="black" stroke-width="2" stroke-linecap="round"/>
</g>
</g>
<g id="step-1">
<g id="template_14">
<path id="Vector 1" d="M541 697L824.5 697.5" stroke="#00FF00" stroke-width="80" stroke-linecap="round" stroke-linejoin="round"/>
<path id="Vector 2" d="M759 645L825 697L759 749" stroke="#00FF00" stroke-width="80" stroke-linecap="round" stroke-linejoin="round"/>
<path id="Vector 3" d="M541 697L824.5 697.5" stroke="#0000FF" stroke-width="10" stroke-linecap="round" stroke-linejoin="round"/>
<path id="Vector 4" d="M759 645L825 697L759 749" stroke="#0000FF" stroke-width="10" stroke-linecap="round" stroke-linejoin="round"/>
</g>
<g id="input_14">
<g id="Group 8_2">
<path id="draw-line d2_10" d="M541 697L824.5 697.5" stroke="#0000FF" stroke-width="10" stroke-linecap="round" stroke-linejoin="round"/>
<path id="draw-line d3_8" d="M759 645L825 697L759 749" stroke="#0000FF" stroke-width="10" stroke-linecap="round" stroke-linejoin="round"/>
</g>
<text id="appear_13" fill="black" xml:space="preserve" style="white-space: pre" font-family="Roboto" font-size="31" letter-spacing="0.09em"><tspan x="283" y="305.596">Welcome </tspan><tspan x="441.55" y="305.596">to </tspan><tspan x="485.128" y="305.596">Drawing </tspan><tspan x="627.604" y="305.596">Dojo!&#10;</tspan><tspan x="283" y="366.596">This </tspan><tspan x="366.233" y="366.596">app </tspan><tspan x="439.259" y="366.596">is </tspan><tspan x="481.34" y="366.596">a </tspan><tspan x="513.972" y="366.596">trainer </tspan><tspan x="634.97" y="366.596">that </tspan><tspan x="713.329" y="366.596">helps </tspan><tspan x="814.701" y="366.596">you </tspan><tspan x="885.274" y="366.596">master </tspan><tspan x="1012.11" y="366.596">your </tspan><tspan x="283" y="402.596">technical </tspan><tspan x="443.74" y="402.596">drawing </tspan><tspan x="583.369" y="402.596">skills. </tspan><tspan x="691.848" y="402.596">Let&#39;s </tspan><tspan x="779.73" y="402.596">learn </tspan><tspan x="872.608" y="402.596">it&#x2019;s </tspan><tspan x="932.422" y="402.596">basics.&#10;</tspan><tspan x="283" y="463.596">Trace </tspan><tspan x="384.203" y="463.596">the </tspan><tspan x="446.707" y="463.596">arrow </tspan><tspan x="549.696" y="463.596">to </tspan><tspan x="593.274" y="463.596">proceed.</tspan></text>
</g>
</g>
</g>
</svg>
