<svg width="1366" height="1024" viewBox="0 0 1366 1024" fill="none" xmlns="http://www.w3.org/2000/svg">
<g id="branch" clip-path="url(#clip0)">
<g id="step s-multistep-result">
<g id="input">
<rect id="appear d1" x="1218.5" y="880.5" width="95" height="95" stroke="#999999" stroke-width="5"/>
<path id="draw-line d2" d="M1232 922C1261.2 953.2 1261 963.5 1261 963.5C1261 963.5 1290 890 1312 864" stroke="#0000FF" stroke-opacity="0.1" stroke-width="10" stroke-linecap="round" stroke-linejoin="round"/>
</g>
<g id="template">
<rect id="Rectangle 6" x="1191" y="853" width="150" height="150" fill="#FF0000" stroke="#00FF00" stroke-width="50"/>
</g>
</g>
<g id="step s-multistep-brush">
<g id="input_2">
<path id="draw-line rgb-template" d="M686.5 703H694.419L692.011 688L701.043 696.4L696.828 676.6L707.064 691L701.043 662.8L716.698 691L707.064 652L728.74 691L713.085 645.4L737.17 696.4L719.5 641L744.998 696.4L723.923 632.2L752.826 696.4L728.74 628L760.051 696.4L737.17 618.4L769.685 696.4L744.998 608.8L779.319 696.4L752.826 602.2L787.147 696.4L756.438 593.2L797.383 696.4L764.266 588.4L807.017 696.4L769.685 580L814.845 696.4L775.706 571.6L823.877 696.4L782.932 566.2L833.511 691L791.964 561.4L844.951 691L801.598 554.8L854.585 688L811.232 548.8L864.821 685L820.866 547.6L873.251 681.4L831.102 545.8L882.885 681.4L841.94 544L891.315 674.2L854.585 545.8L899.745 670.6L864.821 548.8L909.981 667L878.068 554.8L919.615 662.8L891.315 561.4L926.84 657.4L903.357 561.4L934.066 652L913.594 566.2L940.5 641L926.84 566.2L945.506 624.4L934.066 566.2L950.5 615L945.506 566.2L956.345 602.2V566.2L964.172 588.4V571.6L970.194 580L972 574.6" stroke="#6685D4" stroke-width="14" stroke-linecap="round" stroke-linejoin="round"/>
</g>
</g>
<g id="step s-multistep-brush_2">
<g id="input_3">
<path id="draw-line rgb-template_2" d="M885 408.546L866.285 384.581L877.755 408.546L852.399 377.991L871.115 412.141L835.495 372L862.663 412.141L828.854 372L856.022 417.533L820.402 372L852.399 425.921L817.988 374.996L848.777 433.11L811.347 374.996L843.947 438.502L805.913 377.991L835.495 441.498L798.669 380.987L828.854 446.291L792.028 384.581L820.402 449.885L782.972 384.581L811.347 452.282L775.124 384.581L805.913 457.674L767.879 384.581L798.669 461.269L758.824 384.581L792.028 467.859L752.183 388.775L786.594 472.053L744.334 392.37L782.972 478.643L737.09 400.159L775.124 482.238L731.656 408.546L767.879 486.432L726.223 412.141L758.824 490.026L723.204 425.921L752.183 495.419L719 436.5L741.92 497.815L714.149 443.894L737.09 501.41L711.734 454.678L731.656 504.405L711.734 467.859L723.204 504.405L705.697 476.247L716.563 504.405L702.074 486.432L711.734 508L697.245 490.026L705.697 508L693.622 495.419L697.245 508L690 504.405" stroke="#6685D4" stroke-width="12" stroke-linecap="round" stroke-linejoin="round"/>
</g>
</g>
<g id="step s-multistep-brush_3">
<g id="input_4">
<path id="draw-line rgb-template_3" d="M475 491H479.229L476.208 498.826L486.479 495.214L476.208 507.857L491.312 500.632L476.208 519.295L499.167 507.857L479.229 528.325L507.625 513.877L482.25 540.366L516.688 519.295L482.25 553.008L526.354 523.509L482.25 560.232L535.417 528.325L482.25 573L542.062 533.141L486.479 581.303L548.708 540.366L486.479 589.129L555.354 544.58L488 598.5L562 548.192L493.125 605.986L569.25 553.008L491.312 619.832L574.688 560.232L493.125 626.455L581.938 569.263L499.167 635.485L591 576.487L494.938 647.525L597.646 581.303L491.312 657.158L603.083 589.129L494.938 666.79L606.708 595.752L499.167 674.616L611.542 601.17L507.625 681.238L616.375 605.986L510 689.5L616.375 612.608L518.5 694.483L622.417 619.832L521.5 704L626.646 627.659L526.354 711.941L630.271 635.485L531.792 719.768L630.271 648.729L535.417 727.594L630.271 657.158L542.062 733.012L630.271 667.392L548.708 742.042L630.271 681.238L555.354 749.869L622.417 694.483L562 755.889L611.542 711.941L569.25 755.889L611.542 727.594L574.688 763.113L616.375 733.012L584.354 766.725L622.417 742.042L597.646 766.725L626.646 749.869L616.375 766.725L630.271 755.889L622.417 772.143L635.104 763.113L630.271 778.766L641.146 772.143V783.582L649 789" stroke="#6685D4" stroke-width="13" stroke-linecap="round" stroke-linejoin="round"/>
</g>
</g>
<g id="step s-multistep-brush_4">
<g id="input_5">
<path id="draw-line rgb-template_4" d="M594.723 427H603.81L590.482 432.408H606.234C598.156 434.41 582.848 438.416 586.241 438.416C589.634 438.416 602.599 438.416 608.657 438.416L583.818 447.429H609.869L582 453.437H612.292L582 460.046H615.927L586.241 466.655L617.139 464.853L583.818 474.466L620.774 471.462L583.818 481.076L625.62 474.466L582 488.286L633.496 476.87L582 495.496L640.161 476.87L583.818 500.903L642.584 481.076L586.241 508.714L648.036 484.08L586.241 515.924L652.883 488.286L590.482 520.731L656.518 492.492L590.482 526.139L660.153 495.496L594.723 530.345L660.153 500.903L594.723 534.55L662.577 506.311L601.387 538.756L662.577 511.118L608.657 541.761L662.577 515.924L618.956 542.962L662.577 520.731L628.044 542.962L665 526.139L633.496 545.366L662.577 530.345L640.161 545.366L662.577 536.954L648.036 548.971L665 542.962L648.036 553.777L665 548.971L652.883 560.387L665 557.382C659.749 560.186 649.975 565.794 652.883 565.794C655.791 565.794 662.173 565.794 665 565.794L662.577 576" stroke="#6685D4" stroke-width="10" stroke-linecap="round" stroke-linejoin="round"/>
</g>
</g>
<g id="step s-multistep-brush_5">
<g id="input_6">
<path id="draw-line rgb-template_5" d="M566.233 131.424L583.683 135.637L560.215 147L602.939 141.5L560.215 167L617.983 153.087L557 185.5L636.035 163.317L560.215 204.235L649.875 180.767L566.233 219.881L657.096 197.015L570.445 235.526L661.91 212.058L578.267 249.366L669.733 225.297L570.445 268.02L677.555 240.34L570.445 284.267L677.555 258.994L570.445 301.718L677.555 274.64L570.445 311.948L677.555 284.267L578.267 321.576L677.555 295.099L578.267 336.017L681.767 308.337L588.497 345.044L677.555 321.576L598.125 354.07L681.767 336.017L602.939 363.698L687.785 347.451L617.983 373.326L687.785 358.884L628.814 382.954L692.599 363.698L641.451 391.98L692.599 382.954L657.096 396.192H687.785L684.776 405.218" stroke="#6685D4" stroke-width="24" stroke-linecap="round" stroke-linejoin="round"/>
</g>
</g>
<g id="step s-multistep-brush_6">
<g id="input_7">
<path id="draw-line rgb-template_6" d="M684.776 416.651L648.824 402.867C636.267 398.496 615.209 389.211 595.743 369.598C572.439 346.115 564.248 329.694 561.419 302.922C557.761 268.316 568.225 258.447 568.64 246.358C562.558 236.921 546.15 216.087 549.049 177.491C551.207 148.855 548.308 132.743 554.782 123.045C567.055 122.719 590.816 123.849 615.449 137.418C643.81 153.03 657.282 176.339 666.241 191.864C682.002 219.131 686.122 243.658 688.237 256.9C692.531 284.015 690.635 306.824 688.237 321.936C692.226 328.959 696.586 338.635 698.853 350.681C704.586 381.079 696.88 409.839 691.997 419.058" stroke="#6685D4" stroke-width="8" stroke-miterlimit="10" stroke-linecap="round" stroke-linejoin="round"/>
</g>
</g>
<g id="step s-multistep-brush_7">
<g id="input_8">
<path id="draw-line rgb-template_7" d="M688.387 512.618C691.763 512.856 697.975 513.182 705.702 512.618C749.616 509.408 783.359 482.057 791.518 475.268C799.137 468.935 802.081 465.335 811.084 459.435C825.78 449.827 832.836 449.718 842.706 442.084C848.636 437.507 856.298 429.656 862.271 415.688L877.936 411.837L894.183 415.688C894.183 399.802 867.985 377.688 841.948 369.663C822.296 363.611 802.539 377.262 785.267 380.494C710.651 369.663 713.437 466.861 693.201 494.276" stroke="#6685D4" stroke-width="8" stroke-miterlimit="10" stroke-linecap="round" stroke-linejoin="round"/>
</g>
</g>
<g id="step s-multistep-brush_8">
<g id="input_9">
<path id="draw-line rgb-template_8" d="M666.724 588.75L646.866 559.265C641.451 540.009 606.349 554.059 596.742 540.009C571.67 503.343 582.289 471.846 582.505 465.189C571.648 450.349 594.889 422.392 600.532 414.846C608.89 428.159 613.479 454.131 621.837 467.444C630.323 475.099 652.014 473.357 661.169 493.674C668.579 510.12 668.835 551.356 666.724 563.477" stroke="#6685D4" stroke-width="8" stroke-miterlimit="10" stroke-linecap="round" stroke-linejoin="round"/>
</g>
</g>
<g id="step s-multistep-brush_9">
<g id="input_10">
<path id="draw-line rgb-template_9" d="M652.282 784.919L676.47 718.438M676.47 718.438L708.98 695.785C722.345 698.283 742.208 701.193 766.418 701.823C792.93 702.518 833.33 703.191 879.054 685.773C915.085 672.047 934.492 664.641 944.814 644.79C952.377 630.26 953.181 612.668 970.523 591.536C976.238 584.586 981.802 579.591 985.648 576.42L962.221 563.584C930.362 563.128 905.48 557.937 888.138 553.007C863.081 545.883 853.475 539.216 835.981 539.411C809.121 539.694 787.258 555.896 772.481 570.382L701.625 651.331C695.084 661.409 683.011 708.382 676.47 718.438Z" stroke="#6685D4" stroke-width="8" stroke-miterlimit="10" stroke-linecap="round" stroke-linejoin="round"/>
</g>
</g>
<g id="step s-multistep-brush_10">
<g id="input_11">
<path id="draw-line rgb-template_10" d="M661.308 805.98L614.488 769.273H580.674C553.225 757.864 545.81 746.412 536.638 735.199C526.163 722.377 523.598 713.25 504.125 689.845C495.149 679.044 493.041 677.805 490.89 672.09C484.869 655.987 493.606 644.752 489.759 624.085C488.064 615.044 484.696 608.047 482.196 603.679L469.352 474.419L505.647 507.668C562.501 533.811 593.558 568.691 608.446 588.553C632.461 620.542 635.047 640.818 635.656 648.272C638.373 681.63 621.594 707.361 614.488 717.053C623.811 742.001 635.042 754.831 647.468 777.096" stroke="#6685D4" stroke-width="8" stroke-miterlimit="10" stroke-linecap="round" stroke-linejoin="round"/>
</g>
</g>
<g id="step s-multistep-brush_11">
<g id="input_12">
<path id="draw-line rgb-template_11" d="M662.271 951C661.402 941.153 660.62 925.668 662.271 906.864C665.356 871.837 673.936 859.388 672.481 836.702C671.612 823.19 667.028 803.497 648.672 780.117L672.481 631.876L666.811 569.63C675.696 545.209 681.822 523.976 686.08 507.384C694.075 476.196 695.183 462.359 694.009 448.543C692.988 436.615 690.468 426.898 688.339 420.262" stroke="#6685D4" stroke-width="8" stroke-miterlimit="10" stroke-linecap="round" stroke-linejoin="round"/>
</g>
</g>
</g>
<defs>
<clipPath id="clip0">
<rect width="1366" height="1024" fill="white"/>
</clipPath>
</defs>
</svg>
