<svg width="1366" height="1024" viewBox="0 0 1366 1024" fill="none" xmlns="http://www.w3.org/2000/svg">
<g id="cactus" clip-path="url(#clip0)">
<g id="step s-multistep-result">
<g id="input">
<rect id="appear d1" x="1221.5" y="881.5" width="95" height="95" stroke="#999999" stroke-width="5"/>
<path id="draw-line d2" d="M1235 923C1264.2 954.2 1264 964.5 1264 964.5C1264 964.5 1293 891 1315 865" stroke="#0000FF" stroke-opacity="0.1" stroke-width="10" stroke-linecap="round" stroke-linejoin="round"/>
</g>
<g id="template">
<rect id="Rectangle 6" x="1194" y="854" width="150" height="150" fill="#FF0000" stroke="#00FF00" stroke-width="50"/>
</g>
</g>
<g id="step s-multistep-brush">
<g id="input_2">
<path id="draw-line d1 rgb-template flip" d="M1187.85 356.308C1189.97 365.99 1193.57 381.905 1191.03 389.892C1187.85 399.877 1182.86 421.208 1176.05 433.462C1169.25 445.715 1158.81 459.785 1149.28 466.138C1141.65 471.222 1132.18 478.544 1128.4 481.569V494.277C1135.97 491.251 1152.18 480.843 1156.54 476.123C1161.99 470.223 1181.05 447.985 1181.5 443.446C1181.86 439.815 1188.01 416.821 1191.03 405.777" stroke="#6685D4" stroke-width="19" stroke-linecap="round" stroke-linejoin="round"/>
<path id="draw-line rgb-template" d="M1127.04 430.285L1145.19 412.131L1155.63 391.254L1167.43 354.038L1158.35 397.154L1140.2 430.285L1127.04 442.538" stroke="#6685D4" stroke-width="20" stroke-linecap="round" stroke-linejoin="round"/>
</g>
</g>
<g id="step s-multistep-brush_2">
<g id="input_3">
<path id="draw-line rgb-template flip" d="M1118.88 693.515L1115.7 555.546L1118.88 428.923L1115.7 376.277L1107.08 329.077L1082.57 275.977L1102.99 341.785L1110.71 437.092L1107.08 591.854V693.515H1100.27L1102.99 518.331" stroke="#6685D4" stroke-width="20" stroke-linecap="round" stroke-linejoin="round"/>
<path id="draw-line rgb-template_2" d="M1053.6 280.062L1068.12 401.692V521.508L1063.13 621.354V696.238H1058.59V604.108V450.254V389.438V357.215" stroke="#6685D4" stroke-width="19" stroke-linecap="round" stroke-linejoin="round"/>
<path id="draw-line rgb-template flip_2" d="M1031.63 280.062L1017.11 401.692V521.508L1022.1 621.354V696.238H1026.64V604.108V450.254V389.438V357.215" stroke="#6685D4" stroke-width="19" stroke-linecap="round" stroke-linejoin="round"/>
<path id="draw-line rgb-template_3" d="M960.355 693.515L963.532 555.546L960.355 428.923L963.532 376.277L972.155 329.077L996.663 275.977L976.24 341.785L968.524 437.092L972.155 591.854V693.515H978.963L976.24 518.331" stroke="#6685D4" stroke-width="20" stroke-linecap="round" stroke-linejoin="round"/>
</g>
</g>
<g id="step s-multistep-brush_3">
<g id="input_4">
<path id="draw-line rgb-template_4" d="M256.916 739.354H261.909V749.792L275.524 739.354L266.447 762.5L291.863 739.354L270.986 776.569L306.84 739.354L275.524 791.559L321.363 739.354L280.97 803.346L339.516 739.354L280.97 816.962L357.216 739.354L286.87 830.577L373.555 739.354L286.87 845.554L390.801 739.354L295.493 858.715L405.324 739.354L295.493 872.785L421.209 739.354L299.578 885.946L436.186 739.354L304.116 900.015L451.163 739.354L317.278 900.015L469.316 739.354L329.532 900.015L485.201 739.354L342.693 900.015L482.478 756.146L352.678 900.015L477.032 776.569L364.024 900.015L473.855 795.177L377.64 902.738L465.686 820.592L394.886 902.738L461.601 840.562L412.132 902.738L455.701 864.162L429.832 902.738L451.163 885.946L446.17 902.738" stroke="#6685D4" stroke-width="20" stroke-linecap="round" stroke-linejoin="round"/>
</g>
</g>
<g id="step s-multistep-brush_4">
<g id="input_5">
<path id="draw-line d2 rgb-template" d="M388.986 298.215L377.64 300.938L383.54 308.2L371.286 311.831L380.816 317.277L362.663 324.085L380.816 325.9L362.663 336.338L380.816 333.615L364.932 348.138L383.54 341.785L371.286 356.762L386.263 348.138C380.816 357.669 372.92 365.203 375.824 366.292C378.729 367.382 382.481 354.946 388.986 354.492L383.54 374.462L394.432 360.392L391.709 378.546L401.24 366.292V381.269L409.409 369.923V383.538L418.94 369.923V383.538L428.016 372.192C427.26 375.974 426.201 381.269 428.016 381.269C429.832 381.269 433.614 375.218 435.278 372.192V378.546L440.724 372.192" stroke="#6685D4" stroke-width="13" stroke-linecap="round" stroke-linejoin="round"/>
<path id="draw-line d1 rgb-template" d="M433.463 391.708L424.386 400.785L416.67 397.608V408.046L410.316 402.6L412.586 411.223L402.147 408.046L408.501 416.215L395.34 413.492L405.324 421.662H388.986L402.147 427.562H385.809L398.516 434.823H381.724L396.701 442.538H379.001L395.34 449.346H379.001L395.34 456.608H377.64L395.34 462.054L377.64 466.138L395.34 467.954L381.724 473.854H396.701L384.447 482.023L398.516 479.3L390.801 489.285L402.147 485.2L396.701 494.277L407.14 489.285L403.963 498.815L414.401 494.277L412.586 501.992L421.663 498.815V505.169L427.563 500.631V506.531L438.001 503.808" stroke="#6685D4" stroke-width="13" stroke-linecap="round" stroke-linejoin="round"/>
<path id="draw-line rgb-template_5" d="M346.324 513.338L325.901 524.231L330.893 528.315L314.539 534.239L323.084 539.575L311.378 546.015L317.278 551.915L306.386 560.538L317.278 567.346L304.116 574.608L317.278 581.869L301.393 587.769L317.278 599.569L302.755 604.108L323.084 615.173L307.747 619.992L329.188 628.513L315.463 635.423L338.139 643.633L329.188 650.854L351.567 656.084L347.232 661.292L369.47 668.1" stroke="#6685D4" stroke-width="20" stroke-linecap="round" stroke-linejoin="round"/>
</g>
</g>
<g id="step s-multistep-brush_5">
<g id="input_6">
<path id="draw-line rgb-template_6" d="M613.64 769.308L621.817 804.708L626.515 769.308L634.502 804.708L641.548 769.308L650.944 804.708L657.991 769.308L666.447 804.708L675.373 769.308L683.36 804.708L692.755 769.308L699.332 804.708L706.849 769.308L714.836 804.708L722.822 769.308L731.748 804.708L738.795 769.308L748.191 804.708L754.332 769.308L763.409 804.708L772.032 769.308L779.747 804.708L789.278 769.308L794.27 804.708L804.095 769.308" stroke="#6685D4" stroke-width="20" stroke-linecap="round" stroke-linejoin="round"/>
<path id="draw-line rgb-template_7" d="M594.124 694.877L602.747 713.485L605.47 694.877L612.732 713.485L616.816 694.877L624.078 713.485L629.07 694.877L635.424 713.485L640.416 694.877L645.863 713.485L650.855 694.877L656.301 713.485L662.201 694.877L668.101 713.485L675.363 694.877L681.716 713.485L690.793 694.877L696.24 713.485L703.501 694.877L708.493 713.485L716.209 694.877L721.201 713.485L728.463 694.877L734.816 713.485L740.716 694.877L747.978 713.485L754.786 694.877L761.14 713.485L769.309 694.877L777.024 713.485L783.378 694.877L792.455 713.485L797.447 694.877C799.111 701.08 805.163 713.485 806.978 713.485C808.793 713.485 810.911 701.08 811.97 694.877L816.055 708.038" stroke="#6685D4" stroke-width="16" stroke-linecap="round" stroke-linejoin="round"/>
</g>
</g>
<g id="step s-multistep-brush_6">
<g id="input_7">
<path id="draw-line rgb-template_8" d="M816.963 516.062L814.693 523.323L821.047 520.146L819.232 529.677L826.04 527.408V536.485L832.847 529.677L835.116 540.115L843.74 531.946" stroke="#6685D4" stroke-width="12" stroke-linecap="round" stroke-linejoin="round"/>
<path id="draw-line d1 rgb-template_2" d="M783.832 548.738L781.109 568.254L791.547 558.269L786.555 577.785L797.901 568.254L791.547 582.323L806.978 573.246L801.986 586.862L815.601 575.515L812.424 590.946L824.678 577.785" stroke="#6685D4" stroke-width="12" stroke-linecap="round" stroke-linejoin="round"/>
<path id="draw-line d2 rgb-template_2" d="M756.147 612.277L751.609 624.077L760.232 619.085L754.786 630.885L764.316 625.892L760.232 634.969L772.032 629.069L767.947 637.238L781.109 631.792" stroke="#6685D4" stroke-width="12" stroke-linecap="round" stroke-linejoin="round"/>
</g>
</g>
<g id="step s-multistep-brush_7">
<g id="input_8">
<path id="draw-line rgb-template_9" d="M744.347 469.315L738.901 490.646L751.609 473.4L748.432 497L761.139 478.392L758.416 503.808L771.124 480.208V503.808L780.655 480.208V503.808L787.916 480.208" stroke="#6685D4" stroke-width="14" stroke-linecap="round" stroke-linejoin="round"/>
<path id="draw-line d1 rgb-template_3" d="M718.932 562.808L715.301 588.677L726.193 565.985L722.109 593.669L733.909 572.792L729.37 599.115L744.801 575.062L742.078 599.115L753.878 577.785L751.155 599.115L764.316 580.054" stroke="#6685D4" stroke-width="12" stroke-linecap="round" stroke-linejoin="round"/>
</g>
</g>
<g id="step s-multistep-brush_8">
<g id="input_9">
<path id="draw-line rgb-template_10" d="M545.109 477.031H552.37L548.286 487.015L560.086 481.569L552.37 493.369L569.616 487.015L556.909 502.9L581.416 491.554L560.086 512.885L589.586 496.092L563.263 520.6L581.416 512.885" stroke="#6685D4" stroke-width="12" stroke-linecap="round" stroke-linejoin="round"/>
<path id="draw-line d1 rgb-template_4" d="M582.324 561.9C583.413 565.894 587.922 573.851 590.04 577.331V561.9L600.932 572.792V556L612.732 567.346L610.009 551.008L620.447 559.631L615.455 541.477L626.801 547.831L620.447 529.677L631.34 536.031L626.801 518.331L636.786 529.677" stroke="#6685D4" stroke-width="13" stroke-linecap="round" stroke-linejoin="round"/>
<path id="draw-line d1 rgb-template_5" d="M617.724 615.908L631.793 624.531L628.616 608.646L640.416 620.446L636.332 604.108L649.947 613.638L648.586 599.569L659.024 608.646L653.578 594.123L663.109 601.385L656.301 584.138" stroke="#6685D4" stroke-width="13" stroke-linecap="round" stroke-linejoin="round"/>
</g>
</g>
<g id="step s-multistep-brush_9">
<g id="input_10">
<path id="draw-line rgb-template_11" d="M956.747 780.2L963.555 812.877" stroke="#6685D4" stroke-width="8" stroke-linecap="round" stroke-linejoin="round"/>
<path id="draw-line rgb-template_12" d="M988.516 792V834.208" stroke="#6685D4" stroke-width="8" stroke-linecap="round" stroke-linejoin="round"/>
<path id="draw-line rgb-template_13" d="M1021.65 784.738V809.7" stroke="#6685D4" stroke-width="8" stroke-linecap="round" stroke-linejoin="round"/>
<path id="draw-line rgb-template_14" d="M1056.59 796.085L1062.04 827.854" stroke="#6685D4" stroke-width="8" stroke-linecap="round" stroke-linejoin="round"/>
<path id="draw-line rgb-template_15" d="M1091.99 783.831V815.146" stroke="#6685D4" stroke-width="8" stroke-linecap="round" stroke-linejoin="round"/>
<path id="draw-line rgb-template_16" d="M1136.02 783.831L1124.22 816.508" stroke="#6685D4" stroke-width="8" stroke-linecap="round" stroke-linejoin="round"/>
<path id="draw-line rgb-template_17" d="M969.909 845.554L988.516 873.238" stroke="#6685D4" stroke-width="8" stroke-linecap="round" stroke-linejoin="round"/>
<path id="draw-line rgb-template_18" d="M1023.01 845.554L1014.84 883.223" stroke="#6685D4" stroke-width="8" stroke-linecap="round" stroke-linejoin="round"/>
<path id="draw-line rgb-template_19" d="M1040.71 835.569L1057.95 864.162" stroke="#6685D4" stroke-width="8" stroke-linecap="round" stroke-linejoin="round"/>
<path id="draw-line rgb-template_20" d="M1109.24 850.092L1095.62 875.508" stroke="#6685D4" stroke-width="8" stroke-linecap="round" stroke-linejoin="round"/>
</g>
</g>
<g id="step s-multistep-brush_10">
<g id="input_11">
<path id="draw-line d2 rgb-template_3" d="M363.57 504.262C351.165 517.726 333.66 527.34 325.901 548.738C318.288 569.733 325.901 605.923 325.901 605.923C325.901 605.923 340.219 640.435 358.124 654.485C369.224 663.194 390.347 670.823 390.347 670.823" stroke="#6685D4" stroke-width="8" stroke-linecap="round" stroke-linejoin="round"/>
<path id="draw-line d1 rgb-template_6" d="M445.716 389.892C445.716 389.892 411.995 409.71 403.963 431.192C397.259 449.122 394.12 463.79 403.963 480.208C413.549 496.198 445.716 503.354 445.716 503.354" stroke="#6685D4" stroke-width="8" stroke-linecap="round" stroke-linejoin="round"/>
<path id="draw-line rgb-template_21" d="M397.609 287.777C397.609 287.777 382.698 310.053 383.54 325.9C384.276 339.774 387.552 348.991 397.609 358.577C410.996 371.337 443.901 368.562 443.901 368.562" stroke="#6685D4" stroke-width="8" stroke-linecap="round" stroke-linejoin="round"/>
</g>
</g>
<g id="step s-multistep-brush_11">
<g id="input_12">
<path id="draw-line d3 rgb-template" d="M617.27 811.062H798.355" stroke="#6685D4" stroke-width="8" stroke-linecap="round" stroke-linejoin="round"/>
<path id="draw-line d2 rgb-template_4" d="M605.016 763.408H807.432" stroke="#6685D4" stroke-width="8" stroke-linecap="round" stroke-linejoin="round"/>
<path id="draw-line d1 rgb-template_7" d="M597.301 717.115H816.055" stroke="#6685D4" stroke-width="8" stroke-linecap="round" stroke-linejoin="round"/>
<path id="draw-line rgb-template_22" d="M592.309 691.246H820.139" stroke="#6685D4" stroke-width="8" stroke-linecap="round" stroke-linejoin="round"/>
</g>
</g>
<g id="step s-multistep-brush_12">
<g id="input_13">
<path id="draw-line d2 rgb-template_5" d="M819.232 511.977L829.216 526.046L844.647 528.769" stroke="#6685D4" stroke-width="8" stroke-linecap="round" stroke-linejoin="round"/>
<path id="draw-line d2 rgb-template_6" d="M808.34 521.962L821.501 539.208L840.563 543.292" stroke="#6685D4" stroke-width="8" stroke-linecap="round" stroke-linejoin="round"/>
<path id="draw-line d2 rgb-template_7" d="M785.193 542.838L799.263 566.892L828.309 576.423" stroke="#6685D4" stroke-width="8" stroke-linecap="round" stroke-linejoin="round"/>
<path id="draw-line d2 rgb-template_8" d="M776.116 566.892L787.009 585.954L816.055 595.485" stroke="#6685D4" stroke-width="8" stroke-linecap="round" stroke-linejoin="round"/>
<path id="draw-line d2 rgb-template_9" d="M757.963 608.192L767.947 625.438L787.463 628.615" stroke="#6685D4" stroke-width="8" stroke-linecap="round" stroke-linejoin="round"/>
<path id="draw-line d2 rgb-template_10" d="M747.978 624.077L753.878 636.331L768.855 641.323" stroke="#6685D4" stroke-width="8" stroke-linecap="round" stroke-linejoin="round"/>
<path id="draw-line d1 rgb-template_8" d="M742.986 463.415L765.224 476.577H791.547" stroke="#6685D4" stroke-width="8" stroke-linecap="round" stroke-linejoin="round"/>
<path id="draw-line d1 rgb-template_9" d="M731.186 491.1L754.786 506.985L787.009 510.615" stroke="#6685D4" stroke-width="8" stroke-linecap="round" stroke-linejoin="round"/>
<path id="draw-line d1 rgb-template_10" d="M715.301 556.454L737.54 571.431L767.947 576.877" stroke="#6685D4" stroke-width="8" stroke-linecap="round" stroke-linejoin="round"/>
<path id="draw-line d1 rgb-template_11" d="M709.401 586.408L726.647 601.385H755.693" stroke="#6685D4" stroke-width="8" stroke-linecap="round" stroke-linejoin="round"/>
<path id="draw-line rgb-template_23" d="M565.532 525.138L582.324 519.238L593.67 496.092" stroke="#6685D4" stroke-width="8" stroke-linecap="round" stroke-linejoin="round"/>
<path id="draw-line rgb-template_24" d="M580.509 560.992L607.286 548.738L623.17 513.338" stroke="#6685D4" stroke-width="8" stroke-linecap="round" stroke-linejoin="round"/>
<path id="draw-line rgb-template_25" d="M589.132 580.962L621.355 565.985L640.416 528.769" stroke="#6685D4" stroke-width="8" stroke-linecap="round" stroke-linejoin="round"/>
<path id="draw-line rgb-template_26" d="M614.093 614.546L647.224 595.031L657.209 574.154" stroke="#6685D4" stroke-width="8" stroke-linecap="round" stroke-linejoin="round"/>
<path id="draw-line rgb-template_27" d="M630.432 630.885L660.84 612.277L665.832 600.931" stroke="#6685D4" stroke-width="8" stroke-linecap="round" stroke-linejoin="round"/>
</g>
</g>
<g id="step s-multistep-brush_13">
<g id="input_14">
<path id="draw-line d1 rgb-template_12" d="M1170.61 332.677C1170.61 332.677 1155.27 326.453 1151.93 314.98C1150.62 310.491 1150.08 304.329 1155.24 301.154C1160.82 297.719 1165.79 304.079 1170.01 309.097C1172.29 311.817 1174.34 317.095 1174.34 317.095C1174.34 317.095 1173.01 311.114 1174.03 307.741C1177.32 296.925 1183.56 293.082 1187.72 294.078C1191.88 295.073 1195.7 301.092 1194.84 312.718C1194.57 316.234 1190.55 320.973 1190.55 320.973C1190.55 320.973 1194.7 317.021 1198.03 315.804C1203.63 313.76 1209.62 312.377 1213.23 317.12C1215.39 319.957 1212.76 326.289 1210.39 328.971C1205.84 334.122 1194.77 338.458 1186.82 336.555C1178.86 334.652 1180.32 334.999 1172.36 333.096" stroke="#6685D4" stroke-width="8" stroke-linecap="round" stroke-linejoin="round"/>
<path id="draw-line rgb-template_28" d="M1047.97 259.638C1047.97 259.638 1022.56 261.454 1008.49 252.831C1004.25 250.236 998.577 245.562 1000.77 240.577C1005.76 229.231 1020.29 240.577 1020.29 240.577C1020.29 240.577 1017.56 233.788 1017.56 229.231C1017.56 223.785 1019.38 218.338 1023.01 216.977C1029.36 214.594 1033.45 218.792 1036.62 225.146C1039.33 230.564 1040.26 240.577 1040.26 240.577C1040.26 240.577 1042.68 230.934 1045.25 225.146C1047.06 221.062 1049.91 216.438 1054.78 216.977C1060.22 217.578 1061.59 221.487 1061.59 226.962C1061.59 233.315 1056.59 241.485 1056.59 241.485C1056.59 241.485 1072.02 231.5 1077.47 241.485C1079.38 244.981 1077.47 250.108 1075.65 251.923C1068.95 258.626 1051.15 259.638 1051.15 259.638" stroke="#6685D4" stroke-width="8" stroke-linecap="round" stroke-linejoin="round"/>
</g>
</g>
<g id="step s-multistep-brush_14">
<g id="input_15">
<path id="draw-line d1 rgb-template_13" d="M1127.13 504.262C1136.21 504.262 1148.01 497.454 1160.26 487.469C1179.41 469.325 1189.02 456.281 1197.02 418.031C1203.81 385.599 1194.76 341.785 1187.04 346.323C1179.32 350.862 1190.26 379.066 1179.32 408.046C1170.25 432.1 1161.62 442.539 1149.82 455.7C1141.62 464.852 1127.13 469.769 1127.13 469.769" stroke="#6685D4" stroke-width="8" stroke-miterlimit="10" stroke-linecap="round" stroke-linejoin="round"/>
<path id="draw-line rgb-template_29" d="M1127.13 456.608C1134.77 452.042 1139.68 447.549 1143.05 443.673C1146.07 440.206 1157.33 425.51 1164.77 403.281C1176.46 368.326 1179.15 333.071 1167.52 345.679C1155.9 358.286 1157.44 375.95 1148.01 393.977C1140.85 407.661 1127.13 420.754 1127.13 420.754" stroke="#6685D4" stroke-width="8" stroke-miterlimit="10" stroke-linecap="round" stroke-linejoin="round"/>
</g>
</g>
<g id="step s-multistep-brush_15">
<g id="input_16">
<path id="draw-line d3 rgb-template_2" d="M1094.95 697.12C1088.99 632.1 1095.14 588.45 1095.98 552.69C1098.05 464.53 1108.54 399.53 1086.46 307.54C1082.88 292.64 1078.34 278.65 1075.98 271.06L1075.76 270.28C1072.9 259.57 1080.44 251.09 1099.56 292.07C1132.2 362.04 1128.51 422.01 1125.74 561.02C1125.2 588.04 1127.53 645.55 1128.54 697.12" stroke="#6685D4" stroke-width="8" stroke-miterlimit="10" stroke-linecap="round" stroke-linejoin="round"/>
<path id="draw-line d2 rgb-template_11" d="M1073.52 696.21C1069.05 594.01 1081.86 467.5 1079.58 420.01C1078.09 389.07 1078.07 368.21 1073.63 343.92C1062.4 282.53 1059.91 255.56 1051.87 269.17L1051.21 270.5C1051.21 331.59 1053.41 383.31 1053.41 444.4C1053.41 533.25 1052.65 607.36 1052.65 696.21" stroke="#6685D4" stroke-width="8" stroke-miterlimit="10" stroke-linecap="round" stroke-linejoin="round"/>
<path id="draw-line d1 rgb-template_14" d="M1010.7 696.66C1015.17 594.46 1002.93 467.06 1005.22 419.57C1006.71 388.63 1006.73 367.77 1011.17 343.48C1022.4 282.09 1024.9 255.12 1032.93 268.73L1033.59 270.06C1033.59 331.15 1031.39 382.87 1031.39 443.96C1031.39 532.81 1032.48 607.81 1032.48 696.66" stroke="#6685D4" stroke-width="8" stroke-miterlimit="10" stroke-linecap="round" stroke-linejoin="round"/>
<path id="draw-line rgb-template_30" d="M953 701.29C954.01 649.72 955.27 587.59 954.73 560.57C951.96 421.57 948.27 361.59 980.91 291.62C1000.03 250.64 1007.57 259.12 1004.71 269.83C1002.34 277.42 997.58 292.19 994.01 307.09C971.93 399.08 982.42 464.08 984.49 552.24C985.32 588 986.76 630.39 986.76 696.65" stroke="#6685D4" stroke-width="8" stroke-miterlimit="10" stroke-linecap="round" stroke-linejoin="round"/>
</g>
</g>
<g id="step s-multistep-brush_16">
<g id="input_17">
<path id="draw-line d1 rgb-template_15" d="M923.163 760.231L971.168 910H1123.39L1168.24 760.231" stroke="#6685D4" stroke-width="8" stroke-miterlimit="10" stroke-linecap="round" stroke-linejoin="round"/>
<path id="draw-line rgb-template_31" d="M896.84 760.458V702.138H1199.71V760.458H899.563" stroke="#6685D4" stroke-width="8" stroke-miterlimit="10" stroke-linecap="round" stroke-linejoin="round"/>
</g>
</g>
<g id="step s-multistep-brush_17">
<g id="input_18">
<path id="draw-line d3 rgb-template_3" d="M436.124 207.446C436.124 207.446 410.714 203.593 401.528 187.482C397.934 181.177 394.888 172.071 401.528 165.416C408.714 158.214 418.516 166.018 426.689 172.071C431.119 175.352 436.124 182.578 436.124 182.578C436.124 182.578 431.953 174.03 432.28 168.568C433.329 151.056 441.366 143 448.006 143C454.646 143 462.583 150.706 465.479 168.568C466.354 173.969 461.984 182.578 461.984 182.578C461.984 182.578 466.824 175.114 471.419 172.071C479.133 166.963 487.668 162.713 494.833 168.568C499.119 172.071 497.44 182.578 494.833 187.482C489.826 196.902 474.676 207.446 461.984 207.446C449.292 207.446 451.612 207.446 438.92 207.446" stroke="#6685D4" stroke-width="8" stroke-linecap="round" stroke-linejoin="round"/>
<path id="draw-line d2 rgb-template_12" d="M319.738 280.61C319.738 280.61 299.406 284.957 287.894 275.47C283.39 271.757 278.508 265.783 281.654 258.89C285.059 251.431 294.688 254.501 302.589 256.719C306.871 257.922 312.705 261.925 312.705 261.925C312.705 261.925 307.129 256.691 305.832 252.494C301.674 239.037 305.482 230.694 310.509 228.801C315.537 226.909 323.727 230.436 330.971 243.032C333.161 246.84 332.287 254.555 332.287 254.555C332.287 254.555 333.841 247.567 336.46 243.971C340.857 237.935 346.118 232.308 353.199 234.666C357.435 236.076 359.135 244.45 358.548 248.877C357.42 257.382 348.93 269.622 339.319 273.239C329.709 276.857 331.465 276.196 321.855 279.813" stroke="#6685D4" stroke-width="8" stroke-linecap="round" stroke-linejoin="round"/>
<path id="draw-line d1 rgb-template_16" d="M481.005 389.796C481.005 389.796 469.252 370.727 474.726 355.615C476.868 349.702 481.171 342.59 489.303 343.295C498.105 344.058 498.465 354.941 499.066 363.762C499.391 368.544 497.434 375.911 497.434 375.911C497.434 375.911 500.734 368.361 504.526 365.529C516.685 356.449 526.53 357.302 530.266 361.723C534.002 366.144 533.379 375.731 523.207 387.632C520.132 391.231 511.986 393.128 511.986 393.128C511.986 393.128 519.64 392.183 524.237 393.543C531.951 395.827 539.562 399.136 539.726 407.176C539.823 411.985 531.937 416.734 527.231 417.737C518.19 419.663 502.699 415.464 495.557 407.014C488.415 398.563 489.721 400.108 482.579 391.658" stroke="#6685D4" stroke-width="8" stroke-linecap="round" stroke-linejoin="round"/>
<path id="draw-line rgb-template_32" d="M236.352 460.032C236.352 460.032 219.063 471.579 204.861 467.013C199.304 465.226 192.562 461.476 192.94 453.909C193.35 445.72 203.432 445.017 211.594 444.162C216.017 443.698 222.917 445.265 222.917 445.265C222.917 445.265 215.803 442.459 213.048 439.038C204.214 428.067 204.672 418.907 208.646 415.292C212.62 411.677 221.533 411.931 232.917 420.962C236.358 423.693 238.394 431.185 238.394 431.185C238.394 431.185 237.258 424.117 238.364 419.808C240.221 412.575 243.033 405.404 250.485 404.98C254.942 404.726 259.613 411.881 260.703 416.212C262.795 424.532 259.425 439.042 251.829 445.952C244.233 452.863 245.621 451.6 238.025 458.51" stroke="#6685D4" stroke-width="8" stroke-linecap="round" stroke-linejoin="round"/>
</g>
</g>
<g id="step s-multistep-brush_18">
<g id="input_19">
<path id="draw-line d3 rgb-template_4" d="M453.16 207.283C446.833 206.911 424.023 211.476 416.716 229.839C413.82 237.119 414.918 243.817 416.716 254.828C418.604 266.383 420.601 278.555 430.694 288.149C434.016 291.299 441.514 297.317 452.415 298.86C468.536 301.138 487.979 293.042 494.069 278.037C499.116 265.602 497.827 252.676 490.502 237.654C483.377 223.031 472.802 210.95 453.541 207.283" stroke="#6685D4" stroke-width="8" stroke-miterlimit="10" stroke-linecap="round" stroke-linejoin="round"/>
<path id="draw-line d2 rgb-template_13" d="M334.279 278.037C324.058 281.487 315.68 290.291 315.236 299.314C314.582 312.548 328.66 322.914 341.413 323.113C354.62 323.322 362.998 312.575 364.024 311.214C365.032 310.26 372.91 302.545 371.168 293.359C369.743 285.871 365.059 281.187 358.823 278.555C348.938 274.398 343.32 274.398 334.279 278.037Z" stroke="#6685D4" stroke-width="8" stroke-miterlimit="10" stroke-linecap="round" stroke-linejoin="round"/>
<path id="draw-line d1 rgb-template_17" d="M393.107 288.639C390.193 290.527 363.425 305.486 359.604 326.236C355.537 348.311 368.29 364.55 370.904 367.89C373.954 371.775 385.146 385.563 404.825 388.159C407.829 388.558 431.03 391.245 445.29 375.024C457.925 360.646 454.648 341.53 452.433 328.614C450.219 315.679 446.978 296.79 430.712 288.149C414.928 279.771 397.536 286.706 394.114 288.149" stroke="#6685D4" stroke-width="8" stroke-miterlimit="10" stroke-linecap="round" stroke-linejoin="round"/>
<path id="draw-line rgb-template_33" d="M448.848 388.159C440.987 388.095 424.041 389.112 407.194 400.013C402.674 402.936 380.326 417.395 375.661 445.234C374.762 450.59 371.867 467.845 382.205 484.51C395.721 506.304 420.709 509.1 425.048 509.499C428.879 509.853 452.234 511.623 469.08 495.221C478.92 485.645 481.189 474.553 485.746 452.378C490.075 431.283 492.581 419.047 485.746 407.157C478.729 394.957 467.301 390.5 450.228 388.567" stroke="#6685D4" stroke-width="8" stroke-miterlimit="10" stroke-linecap="round" stroke-linejoin="round"/>
</g>
</g>
<g id="step s-multistep-brush_19">
<g id="input_20">
<path id="draw-line d2 rgb-template_14" d="M328.406 389.302C308.682 373.536 285.327 387.078 278.883 396.446C276.813 399.459 274.244 406.585 273.128 411.023C270.16 422.751 278.184 433.952 280.117 436.756C281.279 438.436 290.065 448.629 305.042 448.802C313.82 448.91 320.101 444.753 322.897 442.847C336.312 433.707 338.355 418.584 338.364 417.259C338.527 403.136 330.04 391.454 328.406 389.302Z" stroke="#6685D4" stroke-width="8" stroke-miterlimit="10" stroke-linecap="round" stroke-linejoin="round"/>
<path id="draw-line d1 rgb-template_18" d="M260.23 445.243C248.33 449.854 234.197 469.488 233.453 495.221C232.708 521.072 263.034 530.33 267.963 532.11C272.402 533.716 287.724 538.99 304.852 532.11C308.827 530.512 322.561 524.739 329.84 509.499C330.748 507.602 339.235 489.058 329.84 471.503C324.113 460.792 314.764 456.136 307.23 452.378C289.348 443.455 270.949 444.018 261.119 445.243" stroke="#6685D4" stroke-width="8" stroke-miterlimit="10" stroke-linecap="round" stroke-linejoin="round"/>
<path id="draw-line rgb-template_34" d="M368 503.181C352.823 504.071 327.281 512.286 310.806 535.686C308.292 539.262 284.456 574.372 298.906 616.607C311.478 653.368 343.592 667.873 348.884 670.16M420.283 670.16C428.588 661.991 446.651 641.868 452.415 610.661C453.813 603.109 461.474 561.6 435.75 530.93C420.292 512.494 400.568 503.19 370.451 502.737" stroke="#6685D4" stroke-width="8" stroke-miterlimit="10" stroke-linecap="round" stroke-linejoin="round"/>
</g>
</g>
<g id="step s-multistep-brush_20">
<g id="input_21">
<path id="draw-line d1 rgb-template_19" d="M250.327 731.938L298.316 910H450.491L495.322 731.938" stroke="#6685D4" stroke-width="8" stroke-miterlimit="10" stroke-linecap="round" stroke-linejoin="round"/>
<path id="draw-line rgb-template_35" d="M223.332 732.247V673.927H526.202V732.247H225.147" stroke="#6685D4" stroke-width="8" stroke-miterlimit="10" stroke-linecap="round" stroke-linejoin="round"/>
</g>
</g>
<g id="step s-multistep-brush_21">
<g id="input_22">
<path id="draw-line d5 rgb-template" d="M726.193 664.356C749.923 666.123 771.456 667.04 781.365 662.741C801.174 654.159 807.036 643.454 829.939 628.897C832.108 627.517 841.645 618.412 866.363 610.391C867.207 610.118 866.971 609.064 866.064 609.064L832.371 605.015C825.257 605.015 813.687 605.319 809.976 610.391" stroke="#6685D4" stroke-width="8" stroke-miterlimit="10" stroke-linecap="round" stroke-linejoin="round"/>
<path id="draw-line d4 rgb-template" d="M726.193 661.292C739.392 657.977 759.152 651.52 778.704 638.363C807.385 619.061 819.455 596.216 830.022 575.545C840.626 554.814 855.399 518.218 855.081 468.862C831.779 491.981 811.854 516.56 789.126 539.923" stroke="#6685D4" stroke-width="8" stroke-miterlimit="10" stroke-linecap="round" stroke-linejoin="round"/>
<path id="draw-line d3 rgb-template_5" d="M629.07 663.108C611.281 658.188 610.825 648.348 591.668 640.59C577.72 633.823 566.034 628.623 558.27 625.27C569.327 621.38 596.804 619.752 614.474 623.37" stroke="#6685D4" stroke-width="8" stroke-miterlimit="10" stroke-linecap="round" stroke-linejoin="round"/>
<path id="draw-line d2 rgb-template_15" d="M645.48 531.978C630.987 508.033 600.441 496.973 587.27 490.785C566.852 481.199 550.211 472.731 537.393 468.862C543.517 483.084 550.546 499.398 557.585 515.703C582.523 573.476 584.724 577.558 587.279 582.476C607.172 620.918 626.91 633.081 680.809 663.108" stroke="#6685D4" stroke-width="8" stroke-miterlimit="10" stroke-linecap="round" stroke-linejoin="round"/>
<path id="draw-line d1 rgb-template_20" d="M715.689 527.672C718.636 498.086 710.327 454.301 657.604 394.431C648.888 423.494 641.465 463.228 645.751 509.773C646.908 522.378 650.95 557.425 668.274 600.261C676.511 620.64 689.332 648.725 696.909 661.292" stroke="#6685D4" stroke-width="8" stroke-miterlimit="10" stroke-linecap="round" stroke-linejoin="round"/>
<path id="draw-line rgb-template_36" d="M709.451 661.292C706.929 630.799 707.164 592.748 715.382 549.769C728.239 482.478 755.571 429.732 778.211 394.431C788.636 427.332 798.979 479.099 784.142 535.825C782.669 541.475 775.49 567.989 758.067 600.548C744.405 626.075 729.225 646.384 716.576 661.292" stroke="#6685D4" stroke-width="8" stroke-miterlimit="10" stroke-linecap="round" stroke-linejoin="round"/>
</g>
</g>
<g id="step s-multistep-brush_22">
<g id="input_23">
<path id="draw-line rgb-template_37" d="M632.599 910L584.593 664.923H829.67L784.824 910H636.332" stroke="#6685D4" stroke-width="8" stroke-miterlimit="10" stroke-linecap="round" stroke-linejoin="round"/>
</g>
</g>
</g>
<defs>
<clipPath id="clip0">
<rect width="1366" height="1024" fill="white"/>
</clipPath>
</defs>
</svg>
