<svg width="1366" height="1024" viewBox="0 0 1366 1024" fill="none" xmlns="http://www.w3.org/2000/svg">
<g id="flower3" clip-path="url(#clip0)">
<g id="step s-multistep-result">
<g id="input">
<rect id="appear d1" x="1220.5" y="881.5" width="95" height="95" stroke="#999999" stroke-width="5"/>
<path id="draw-line d2" d="M1234 923C1263.2 954.2 1263 964.5 1263 964.5C1263 964.5 1292 891 1314 865" stroke="#0000FF" stroke-opacity="0.1" stroke-width="10" stroke-linecap="round" stroke-linejoin="round"/>
</g>
<g id="template">
<rect id="Rectangle 6" x="1193" y="854" width="150" height="150" fill="#FF0000" stroke="#00FF00" stroke-width="50"/>
</g>
</g>
<g id="step s-multistep-brush">
<g id="input_2">
<g id="ref">
<path id="Vector" d="M690.948 164.09C741.502 164.09 782.484 226.576 782.484 303.657C782.484 380.737 741.502 443.223 690.948 443.223C640.394 443.223 599.412 380.737 599.412 303.657C599.412 227.568 639.345 165.701 689 164.121" stroke="#CBD8F1" stroke-width="8" stroke-miterlimit="10" stroke-linecap="round" stroke-linejoin="round"/>
<path id="Vector_2" d="M691 404C714.196 404 733 442.056 733 489C733 535.944 714.196 574 691 574C667.804 574 649 535.944 649 489C649 442.66 667.323 404.981 690.106 404.019" stroke="#CBD8F1" stroke-width="8" stroke-miterlimit="10" stroke-linecap="round" stroke-linejoin="round"/>
<path id="Vector_3" d="M837.038 496.177C859.976 506.768 839.506 599.958 791.318 704.322C743.129 808.687 685.47 884.706 662.532 874.115C639.595 863.524 660.064 770.334 708.253 665.969C755.821 562.948 812.617 487.548 836.135 495.811" stroke="#CBD8F1" stroke-width="8" stroke-miterlimit="10" stroke-linecap="round" stroke-linejoin="round"/>
<path id="Vector_4" d="M520.572 409.935C496.508 417.632 509.4 525.175 549.367 650.14C589.334 775.106 641.242 870.171 665.306 862.475C689.37 854.779 676.478 747.235 636.51 622.27C597.058 498.913 545.97 404.692 521.515 409.689" stroke="#CBD8F1" stroke-width="8" stroke-miterlimit="10" stroke-linecap="round" stroke-linejoin="round"/>
</g>
<g id="ref g-template">
<path id="d" d="M650.111 781.014L647.59 686.111C646.508 645.343 635.195 605.484 614.672 570.221L523.615 413.698L592.341 605.865C598.686 623.607 603.814 641.767 607.699 660.21L646.299 843.653" stroke="#CBD8F1" stroke-width="8" stroke-miterlimit="10" stroke-linecap="round" stroke-linejoin="round"/>
<path id="d_2" d="M660.206 898.244L766.831 701.248C776.201 683.936 784.267 665.96 790.981 647.456L838.84 515.409" stroke="#CBD8F1" stroke-width="8" stroke-miterlimit="10" stroke-linecap="round" stroke-linejoin="round"/>
<path id="d_3" d="M658.767 902.605L721.161 712.527C729.744 686.369 741.819 661.475 757.067 638.536L838.84 515.409L748.361 596.207C728.723 613.741 714.766 636.742 708.286 662.249L660.895 848.777" stroke="#CBD8F1" stroke-width="8" stroke-miterlimit="10" stroke-linecap="round" stroke-linejoin="round"/>
<path id="d_4" d="M680.188 565.466V666.021C680.078 670.187 678.75 674.868 676.708 679.844C660.108 720.403 649.926 763.309 647.946 807.087L641.896 940.744L658.767 902.605L662.149 816.745C663.907 772.131 673.622 728.23 690.468 686.872C691.895 683.371 692.792 680.102 692.891 677.19L694.477 569.262" stroke="#CBD8F1" stroke-width="8" stroke-miterlimit="10" stroke-linecap="round" stroke-linejoin="round"/>
<path id="d_5" d="M734.109 438.702C708.458 482.505 714.373 569.262 688.07 569.262C662.407 569.262 671.384 476.509 650.111 440.324" stroke="#CBD8F1" stroke-width="8" stroke-miterlimit="10" stroke-linecap="round" stroke-linejoin="round"/>
<path id="d_6" d="M642 172C677 118.5 701.5 115.5 737 172" stroke="#CBD8F1" stroke-width="8" stroke-miterlimit="10" stroke-linecap="round" stroke-linejoin="round"/>
<path id="d_7" d="M723.3 183.933C729.977 177.691 736.937 172.052 744.057 167.088C757.51 157.713 775.93 160.699 785.632 173.919C806.598 202.511 819.595 242.185 819.595 286.037C819.595 368.937 774.012 437.049 715 443.5" stroke="#CBD8F1" stroke-width="8" stroke-miterlimit="10" stroke-linecap="round" stroke-linejoin="round"/>
<path id="d_8" d="M655.742 188.799C646.409 179.227 636.461 170.86 626.157 163.918C613.872 155.624 597.235 158.217 588.246 170C566.321 198.751 552.66 239.31 552.66 284.28C552.66 367.18 609.501 435.049 668.5 441.5" stroke="#CBD8F1" stroke-width="8" stroke-miterlimit="10" stroke-linecap="round" stroke-linejoin="round"/>
<path id="d_9" d="M691.132 442.818C642.241 442.818 595.403 377.636 602.596 297.943C607.244 246.51 643.729 200.348 668.383 174.583C680.754 161.657 701.461 161.903 713.66 174.976C737.786 200.815 773.434 246.768 779.668 297.943C789.235 376.354 741.271 441.149 693 442.786" stroke="#CBD8F1" stroke-width="8" stroke-miterlimit="10" stroke-linecap="round" stroke-linejoin="round"/>
</g>
<path id="draw-line rgb-template" d="M645.327 865.044L585.16 724.728C571.559 693.003 561.98 659.706 556.668 625.61L523.615 413.698" stroke="#6685D4" stroke-width="8" stroke-miterlimit="10" stroke-linecap="round" stroke-linejoin="round"/>
</g>
</g>
<g id="step s-multistep-brush_2">
<g id="input_3">
<g id="ref_2">
<path id="Vector_5" d="M690.948 164.09C741.502 164.09 782.484 226.576 782.484 303.657C782.484 380.737 741.502 443.223 690.948 443.223C640.394 443.223 599.412 380.737 599.412 303.657C599.412 227.568 639.345 165.701 689 164.121" stroke="#CBD8F1" stroke-width="8" stroke-miterlimit="10" stroke-linecap="round" stroke-linejoin="round"/>
<path id="Vector_6" d="M691 404C714.196 404 733 442.056 733 489C733 535.944 714.196 574 691 574C667.804 574 649 535.944 649 489C649 442.66 667.323 404.981 690.106 404.019" stroke="#CBD8F1" stroke-width="8" stroke-miterlimit="10" stroke-linecap="round" stroke-linejoin="round"/>
<path id="Vector_7" d="M837.038 496.177C859.976 506.768 839.506 599.958 791.318 704.322C743.129 808.687 685.47 884.706 662.532 874.115C639.595 863.524 660.064 770.334 708.253 665.969C755.821 562.948 812.617 487.548 836.135 495.811" stroke="#CBD8F1" stroke-width="8" stroke-miterlimit="10" stroke-linecap="round" stroke-linejoin="round"/>
<path id="Vector_8" d="M520.572 409.935C496.508 417.632 509.4 525.175 549.367 650.14C589.334 775.106 641.242 870.171 665.306 862.475C689.37 854.779 676.478 747.235 636.51 622.27C597.058 498.913 545.97 404.692 521.515 409.689" stroke="#CBD8F1" stroke-width="8" stroke-miterlimit="10" stroke-linecap="round" stroke-linejoin="round"/>
</g>
<g id="ref g-template_2">
<path id="d_10" d="M660.206 898.244L766.831 701.248C776.201 683.936 784.267 665.96 790.981 647.456L838.84 515.409" stroke="#CBD8F1" stroke-width="8" stroke-miterlimit="10" stroke-linecap="round" stroke-linejoin="round"/>
<path id="d_11" d="M658.767 902.605L721.161 712.527C729.744 686.369 741.819 661.475 757.067 638.536L838.84 515.409L748.361 596.207C728.723 613.741 714.766 636.742 708.286 662.249L660.895 848.777" stroke="#CBD8F1" stroke-width="8" stroke-miterlimit="10" stroke-linecap="round" stroke-linejoin="round"/>
<path id="d_12" d="M680.188 565.466V666.021C680.078 670.187 678.75 674.868 676.708 679.844C660.108 720.403 649.926 763.309 647.946 807.087L641.896 940.744L658.767 902.605L662.149 816.745C663.907 772.131 673.622 728.23 690.468 686.872C691.895 683.371 692.792 680.102 692.891 677.19L694.477 569.262" stroke="#CBD8F1" stroke-width="8" stroke-miterlimit="10" stroke-linecap="round" stroke-linejoin="round"/>
<path id="d_13" d="M734.109 438.702C708.458 482.505 714.373 569.262 688.07 569.262C662.407 569.262 671.384 476.509 650.111 440.324" stroke="#CBD8F1" stroke-width="8" stroke-miterlimit="10" stroke-linecap="round" stroke-linejoin="round"/>
<path id="d_14" d="M642 172C677 118.5 701.5 115.5 737 172" stroke="#CBD8F1" stroke-width="8" stroke-miterlimit="10" stroke-linecap="round" stroke-linejoin="round"/>
<path id="d_15" d="M723.3 183.933C729.977 177.691 736.937 172.052 744.057 167.088C757.51 157.713 775.93 160.699 785.632 173.919C806.598 202.511 819.595 242.185 819.595 286.037C819.595 368.937 774.012 437.049 715 443.5" stroke="#CBD8F1" stroke-width="8" stroke-miterlimit="10" stroke-linecap="round" stroke-linejoin="round"/>
<path id="d_16" d="M655.742 188.799C646.409 179.227 636.461 170.86 626.157 163.918C613.872 155.624 597.235 158.217 588.246 170C566.321 198.751 552.66 239.31 552.66 284.28C552.66 367.18 609.501 435.049 668.5 441.5" stroke="#CBD8F1" stroke-width="8" stroke-miterlimit="10" stroke-linecap="round" stroke-linejoin="round"/>
<path id="d_17" d="M691.132 442.818C642.241 442.818 595.403 377.636 602.596 297.943C607.244 246.51 643.729 200.348 668.383 174.583C680.754 161.657 701.461 161.903 713.66 174.976C737.786 200.815 773.434 246.768 779.668 297.943C789.235 376.354 741.271 441.149 693 442.786" stroke="#CBD8F1" stroke-width="8" stroke-miterlimit="10" stroke-linecap="round" stroke-linejoin="round"/>
</g>
<path id="draw-line rgb-template_2" d="M650.111 781.014L647.59 686.111C646.508 645.343 635.195 605.484 614.672 570.221L523.615 413.698L592.341 605.865C598.686 623.607 603.814 641.767 607.699 660.21L646.299 843.653" stroke="#6685D4" stroke-width="8" stroke-miterlimit="10" stroke-linecap="round" stroke-linejoin="round"/>
</g>
</g>
<g id="step s-multistep-brush_3">
<g id="input_4">
<g id="ref_3">
<path id="Vector_9" d="M690.948 164.09C741.502 164.09 782.484 226.576 782.484 303.657C782.484 380.737 741.502 443.223 690.948 443.223C640.394 443.223 599.412 380.737 599.412 303.657C599.412 227.568 639.345 165.701 689 164.121" stroke="#CBD8F1" stroke-width="8" stroke-miterlimit="10" stroke-linecap="round" stroke-linejoin="round"/>
<path id="Vector_10" d="M691 404C714.196 404 733 442.056 733 489C733 535.944 714.196 574 691 574C667.804 574 649 535.944 649 489C649 442.66 667.323 404.981 690.106 404.019" stroke="#CBD8F1" stroke-width="8" stroke-miterlimit="10" stroke-linecap="round" stroke-linejoin="round"/>
<path id="Vector_11" d="M837.038 496.177C859.976 506.768 839.506 599.958 791.318 704.322C743.129 808.687 685.47 884.706 662.532 874.115C639.595 863.524 660.064 770.334 708.253 665.969C755.821 562.948 812.617 487.548 836.135 495.811" stroke="#CBD8F1" stroke-width="8" stroke-miterlimit="10" stroke-linecap="round" stroke-linejoin="round"/>
<path id="Vector_12" d="M520.572 409.935C496.508 417.632 509.4 525.175 549.367 650.14C589.334 775.106 641.242 870.171 665.306 862.475C689.37 854.779 676.478 747.235 636.51 622.27C597.058 498.913 545.97 404.692 521.515 409.689" stroke="#CBD8F1" stroke-width="8" stroke-miterlimit="10" stroke-linecap="round" stroke-linejoin="round"/>
</g>
<g id="ref g-template_3">
<path id="d_18" d="M680.188 565.466V666.021C680.078 670.187 678.75 674.868 676.708 679.844C660.108 720.403 649.926 763.309 647.946 807.087L641.896 940.744L658.767 902.605L662.149 816.745C663.907 772.131 673.622 728.23 690.468 686.872C691.895 683.371 692.792 680.102 692.891 677.19L694.477 569.262" stroke="#CBD8F1" stroke-width="8" stroke-miterlimit="10" stroke-linecap="round" stroke-linejoin="round"/>
<path id="d_19" d="M734.109 438.702C708.458 482.505 714.373 569.262 688.07 569.262C662.407 569.262 671.384 476.509 650.111 440.324" stroke="#CBD8F1" stroke-width="8" stroke-miterlimit="10" stroke-linecap="round" stroke-linejoin="round"/>
<path id="d_20" d="M642 172C677 118.5 701.5 115.5 737 172" stroke="#CBD8F1" stroke-width="8" stroke-miterlimit="10" stroke-linecap="round" stroke-linejoin="round"/>
<path id="d_21" d="M723.3 183.933C729.977 177.691 736.937 172.052 744.057 167.088C757.51 157.713 775.93 160.699 785.632 173.919C806.598 202.511 819.595 242.185 819.595 286.037C819.595 368.937 774.012 437.049 715 443.5" stroke="#CBD8F1" stroke-width="8" stroke-miterlimit="10" stroke-linecap="round" stroke-linejoin="round"/>
<path id="d_22" d="M655.742 188.799C646.409 179.227 636.461 170.86 626.157 163.918C613.872 155.624 597.235 158.217 588.246 170C566.321 198.751 552.66 239.31 552.66 284.28C552.66 367.18 609.501 435.049 668.5 441.5" stroke="#CBD8F1" stroke-width="8" stroke-miterlimit="10" stroke-linecap="round" stroke-linejoin="round"/>
<path id="d_23" d="M691.132 442.818C642.241 442.818 595.403 377.636 602.596 297.943C607.244 246.51 643.729 200.348 668.383 174.583C680.754 161.657 701.461 161.903 713.66 174.976C737.786 200.815 773.434 246.768 779.668 297.943C789.235 376.354 741.271 441.149 693 442.786" stroke="#CBD8F1" stroke-width="8" stroke-miterlimit="10" stroke-linecap="round" stroke-linejoin="round"/>
</g>
<path id="draw-line rgb-template_3" d="M660.206 898.244L766.831 701.248C776.201 683.936 784.267 665.96 790.981 647.456L838.84 515.409" stroke="#6685D4" stroke-width="8" stroke-miterlimit="10" stroke-linecap="round" stroke-linejoin="round"/>
</g>
</g>
<g id="step s-multistep-brush_4">
<g id="input_5">
<g id="ref_4">
<path id="Vector_13" d="M690.948 164.09C741.502 164.09 782.484 226.576 782.484 303.657C782.484 380.737 741.502 443.223 690.948 443.223C640.394 443.223 599.412 380.737 599.412 303.657C599.412 227.568 639.345 165.701 689 164.121" stroke="#CBD8F1" stroke-width="8" stroke-miterlimit="10" stroke-linecap="round" stroke-linejoin="round"/>
<path id="Vector_14" d="M691 404C714.196 404 733 442.056 733 489C733 535.944 714.196 574 691 574C667.804 574 649 535.944 649 489C649 442.66 667.323 404.981 690.106 404.019" stroke="#CBD8F1" stroke-width="8" stroke-miterlimit="10" stroke-linecap="round" stroke-linejoin="round"/>
<path id="Vector_15" d="M837.038 496.177C859.976 506.768 839.506 599.958 791.318 704.322C743.129 808.687 685.47 884.706 662.532 874.115C639.595 863.524 660.064 770.334 708.253 665.969C755.821 562.948 812.617 487.548 836.135 495.811" stroke="#CBD8F1" stroke-width="8" stroke-miterlimit="10" stroke-linecap="round" stroke-linejoin="round"/>
<path id="Vector_16" d="M520.572 409.935C496.508 417.632 509.4 525.175 549.367 650.14C589.334 775.106 641.242 870.171 665.306 862.475C689.37 854.779 676.478 747.235 636.51 622.27C597.058 498.913 545.97 404.692 521.515 409.689" stroke="#CBD8F1" stroke-width="8" stroke-miterlimit="10" stroke-linecap="round" stroke-linejoin="round"/>
</g>
<g id="ref g-template_4">
<path id="d_24" d="M680.188 565.466V666.021C680.078 670.187 678.75 674.868 676.708 679.844C660.108 720.403 649.926 763.309 647.946 807.087L641.896 940.744L658.767 902.605L662.149 816.745C663.907 772.131 673.622 728.23 690.468 686.872C691.895 683.371 692.792 680.102 692.891 677.19L694.477 569.262" stroke="#CBD8F1" stroke-width="8" stroke-miterlimit="10" stroke-linecap="round" stroke-linejoin="round"/>
<path id="d_25" d="M734.109 438.702C708.458 482.505 714.373 569.262 688.07 569.262C662.407 569.262 671.384 476.509 650.111 440.324" stroke="#CBD8F1" stroke-width="8" stroke-miterlimit="10" stroke-linecap="round" stroke-linejoin="round"/>
<path id="d_26" d="M642 172C677 118.5 701.5 115.5 737 172" stroke="#CBD8F1" stroke-width="8" stroke-miterlimit="10" stroke-linecap="round" stroke-linejoin="round"/>
<path id="d_27" d="M723.3 183.933C729.977 177.691 736.937 172.052 744.057 167.088C757.51 157.713 775.93 160.699 785.632 173.919C806.598 202.511 819.595 242.185 819.595 286.037C819.595 368.937 774.012 437.049 715 443.5" stroke="#CBD8F1" stroke-width="8" stroke-miterlimit="10" stroke-linecap="round" stroke-linejoin="round"/>
<path id="d_28" d="M655.742 188.799C646.409 179.227 636.461 170.86 626.157 163.918C613.872 155.624 597.235 158.217 588.246 170C566.321 198.751 552.66 239.31 552.66 284.28C552.66 367.18 609.501 435.049 668.5 441.5" stroke="#CBD8F1" stroke-width="8" stroke-miterlimit="10" stroke-linecap="round" stroke-linejoin="round"/>
<path id="d_29" d="M691.132 442.818C642.241 442.818 595.403 377.636 602.596 297.943C607.244 246.51 643.729 200.348 668.383 174.583C680.754 161.657 701.461 161.903 713.66 174.976C737.786 200.815 773.434 246.768 779.668 297.943C789.235 376.354 741.271 441.149 693 442.786" stroke="#CBD8F1" stroke-width="8" stroke-miterlimit="10" stroke-linecap="round" stroke-linejoin="round"/>
</g>
<path id="draw-line rgb-template_4" d="M658.767 902.605L721.161 712.527C729.744 686.369 741.819 661.475 757.067 638.536L838.84 515.409L748.361 596.207C728.723 613.741 714.766 636.742 708.286 662.249L660.895 848.777" stroke="#6685D4" stroke-width="8" stroke-miterlimit="10" stroke-linecap="round" stroke-linejoin="round"/>
</g>
</g>
<g id="step s-multistep-brush_5">
<g id="input_6">
<g id="ref_5">
<path id="Vector_17" d="M690.948 164.09C741.502 164.09 782.484 226.576 782.484 303.657C782.484 380.737 741.502 443.223 690.948 443.223C640.394 443.223 599.412 380.737 599.412 303.657C599.412 227.568 639.345 165.701 689 164.121" stroke="#CBD8F1" stroke-width="8" stroke-miterlimit="10" stroke-linecap="round" stroke-linejoin="round"/>
<path id="Vector_18" d="M691 404C714.196 404 733 442.056 733 489C733 535.944 714.196 574 691 574C667.804 574 649 535.944 649 489C649 442.66 667.323 404.981 690.106 404.019" stroke="#CBD8F1" stroke-width="8" stroke-miterlimit="10" stroke-linecap="round" stroke-linejoin="round"/>
<path id="Vector_19" d="M837.038 496.177C859.976 506.768 839.506 599.958 791.318 704.322C743.129 808.687 685.47 884.706 662.532 874.115C639.595 863.524 660.064 770.334 708.253 665.969C755.821 562.948 812.617 487.548 836.135 495.811" stroke="#CBD8F1" stroke-width="8" stroke-miterlimit="10" stroke-linecap="round" stroke-linejoin="round"/>
<path id="Vector_20" d="M520.572 409.935C496.508 417.632 509.4 525.175 549.367 650.14C589.334 775.106 641.242 870.171 665.306 862.475C689.37 854.779 676.478 747.235 636.51 622.27C597.058 498.913 545.97 404.692 521.515 409.689" stroke="#CBD8F1" stroke-width="8" stroke-miterlimit="10" stroke-linecap="round" stroke-linejoin="round"/>
</g>
<g id="ref g-template_5">
<path id="d_30" d="M734.109 438.702C708.458 482.505 714.373 569.262 688.07 569.262C662.407 569.262 671.384 476.509 650.111 440.324" stroke="#CBD8F1" stroke-width="8" stroke-miterlimit="10" stroke-linecap="round" stroke-linejoin="round"/>
<path id="d_31" d="M642 172C677 118.5 701.5 115.5 737 172" stroke="#CBD8F1" stroke-width="8" stroke-miterlimit="10" stroke-linecap="round" stroke-linejoin="round"/>
<path id="d_32" d="M723.3 183.933C729.977 177.691 736.937 172.052 744.057 167.088C757.51 157.713 775.93 160.699 785.632 173.919C806.598 202.511 819.595 242.185 819.595 286.037C819.595 368.937 774.012 437.049 715 443.5" stroke="#CBD8F1" stroke-width="8" stroke-miterlimit="10" stroke-linecap="round" stroke-linejoin="round"/>
<path id="d_33" d="M655.742 188.799C646.409 179.227 636.461 170.86 626.157 163.918C613.872 155.624 597.235 158.217 588.246 170C566.321 198.751 552.66 239.31 552.66 284.28C552.66 367.18 609.501 435.049 668.5 441.5" stroke="#CBD8F1" stroke-width="8" stroke-miterlimit="10" stroke-linecap="round" stroke-linejoin="round"/>
<path id="d_34" d="M691.132 442.818C642.241 442.818 595.403 377.636 602.596 297.943C607.244 246.51 643.729 200.348 668.383 174.583C680.754 161.657 701.461 161.903 713.66 174.976C737.786 200.815 773.434 246.768 779.668 297.943C789.235 376.354 741.271 441.149 693 442.786" stroke="#CBD8F1" stroke-width="8" stroke-miterlimit="10" stroke-linecap="round" stroke-linejoin="round"/>
</g>
<path id="draw-line rgb-template_5" d="M680.188 565.466V666.021C680.078 670.187 678.75 674.868 676.708 679.844C660.108 720.403 649.926 763.309 647.946 807.087L641.896 940.744L658.767 902.605L662.149 816.745C663.907 772.131 673.622 728.23 690.468 686.872C691.895 683.371 692.792 680.102 692.891 677.19L694.477 569.262" stroke="#6685D4" stroke-width="8" stroke-miterlimit="10" stroke-linecap="round" stroke-linejoin="round"/>
</g>
</g>
<g id="step s-multistep-brush_6">
<g id="input_7">
<g id="ref_6">
<path id="Vector_21" d="M690.948 164.09C741.502 164.09 782.484 226.576 782.484 303.657C782.484 380.737 741.502 443.223 690.948 443.223C640.394 443.223 599.412 380.737 599.412 303.657C599.412 227.568 639.345 165.701 689 164.121" stroke="#CBD8F1" stroke-width="8" stroke-miterlimit="10" stroke-linecap="round" stroke-linejoin="round"/>
<path id="Vector_22" d="M691 404C714.196 404 733 442.056 733 489C733 535.944 714.196 574 691 574C667.804 574 649 535.944 649 489C649 442.66 667.323 404.981 690.106 404.019" stroke="#CBD8F1" stroke-width="8" stroke-miterlimit="10" stroke-linecap="round" stroke-linejoin="round"/>
<path id="Vector_23" d="M837.038 496.177C859.976 506.768 839.506 599.958 791.318 704.322C743.129 808.687 685.47 884.706 662.532 874.115C639.595 863.524 660.064 770.334 708.253 665.969C755.821 562.948 812.617 487.548 836.135 495.811" stroke="#CBD8F1" stroke-width="8" stroke-miterlimit="10" stroke-linecap="round" stroke-linejoin="round"/>
<path id="Vector_24" d="M520.572 409.935C496.508 417.632 509.4 525.175 549.367 650.14C589.334 775.106 641.242 870.171 665.306 862.475C689.37 854.779 676.478 747.235 636.51 622.27C597.058 498.913 545.97 404.692 521.515 409.689" stroke="#CBD8F1" stroke-width="8" stroke-miterlimit="10" stroke-linecap="round" stroke-linejoin="round"/>
</g>
<g id="ref g-template_6">
<path id="d_35" d="M642 172C677 118.5 701.5 115.5 737 172" stroke="#CBD8F1" stroke-width="8" stroke-miterlimit="10" stroke-linecap="round" stroke-linejoin="round"/>
<path id="d_36" d="M723.3 183.933C729.977 177.691 736.937 172.052 744.057 167.088C757.51 157.713 775.93 160.699 785.632 173.919C806.598 202.511 819.595 242.185 819.595 286.037C819.595 368.937 774.012 437.049 715 443.5" stroke="#CBD8F1" stroke-width="8" stroke-miterlimit="10" stroke-linecap="round" stroke-linejoin="round"/>
<path id="d_37" d="M655.742 188.799C646.409 179.227 636.461 170.86 626.157 163.918C613.872 155.624 597.235 158.217 588.246 170C566.321 198.751 552.66 239.31 552.66 284.28C552.66 367.18 609.501 435.049 668.5 441.5" stroke="#CBD8F1" stroke-width="8" stroke-miterlimit="10" stroke-linecap="round" stroke-linejoin="round"/>
<path id="d_38" d="M691.132 442.818C642.241 442.818 595.403 377.636 602.596 297.943C607.244 246.51 643.729 200.348 668.383 174.583C680.754 161.657 701.461 161.903 713.66 174.976C737.786 200.815 773.434 246.768 779.668 297.943C789.235 376.354 741.271 441.149 693 442.786" stroke="#CBD8F1" stroke-width="8" stroke-miterlimit="10" stroke-linecap="round" stroke-linejoin="round"/>
</g>
<path id="draw-line rgb-template_6" d="M734.109 438.702C708.458 482.505 714.373 569.262 688.07 569.262C662.407 569.262 671.384 476.509 650.111 440.324" stroke="#6685D4" stroke-width="8" stroke-miterlimit="10" stroke-linecap="round" stroke-linejoin="round"/>
</g>
</g>
<g id="step s-multistep-brush_7">
<g id="input_8">
<g id="ref_7">
<path id="Vector_25" d="M690.948 164.09C741.502 164.09 782.484 226.576 782.484 303.657C782.484 380.737 741.502 443.223 690.948 443.223C640.394 443.223 599.412 380.737 599.412 303.657C599.412 227.568 639.345 165.701 689 164.121" stroke="#CBD8F1" stroke-width="8" stroke-miterlimit="10" stroke-linecap="round" stroke-linejoin="round"/>
<path id="Vector_26" d="M691 404C714.196 404 733 442.056 733 489C733 535.944 714.196 574 691 574C667.804 574 649 535.944 649 489C649 442.66 667.323 404.981 690.106 404.019" stroke="#CBD8F1" stroke-width="8" stroke-miterlimit="10" stroke-linecap="round" stroke-linejoin="round"/>
<path id="Vector_27" d="M837.038 496.177C859.976 506.768 839.506 599.958 791.318 704.322C743.129 808.687 685.47 884.706 662.532 874.115C639.595 863.524 660.064 770.334 708.253 665.969C755.821 562.948 812.617 487.548 836.135 495.811" stroke="#CBD8F1" stroke-width="8" stroke-miterlimit="10" stroke-linecap="round" stroke-linejoin="round"/>
<path id="Vector_28" d="M520.572 409.935C496.508 417.632 509.4 525.175 549.367 650.14C589.334 775.106 641.242 870.171 665.306 862.475C689.37 854.779 676.478 747.235 636.51 622.27C597.058 498.913 545.97 404.692 521.515 409.689" stroke="#CBD8F1" stroke-width="8" stroke-miterlimit="10" stroke-linecap="round" stroke-linejoin="round"/>
</g>
<g id="ref g-template_7">
<path id="d_39" d="M723.3 183.933C729.977 177.691 736.937 172.052 744.057 167.088C757.51 157.713 775.93 160.699 785.632 173.919C806.598 202.511 819.595 242.185 819.595 286.037C819.595 368.937 774.012 437.049 715 443.5" stroke="#CBD8F1" stroke-width="8" stroke-miterlimit="10" stroke-linecap="round" stroke-linejoin="round"/>
<path id="d_40" d="M655.742 188.799C646.409 179.227 636.461 170.86 626.157 163.918C613.872 155.624 597.235 158.217 588.246 170C566.321 198.751 552.66 239.31 552.66 284.28C552.66 367.18 609.501 435.049 668.5 441.5" stroke="#CBD8F1" stroke-width="8" stroke-miterlimit="10" stroke-linecap="round" stroke-linejoin="round"/>
<path id="d_41" d="M691.132 442.818C642.241 442.818 595.403 377.636 602.596 297.943C607.244 246.51 643.729 200.348 668.383 174.583C680.754 161.657 701.461 161.903 713.66 174.976C737.786 200.815 773.434 246.768 779.668 297.943C789.235 376.354 741.271 441.149 693 442.786" stroke="#CBD8F1" stroke-width="8" stroke-miterlimit="10" stroke-linecap="round" stroke-linejoin="round"/>
</g>
<path id="draw-line rgb-template_7" d="M642 172C677 118.5 701.5 115.5 737 172" stroke="#6685D4" stroke-width="8" stroke-miterlimit="10" stroke-linecap="round" stroke-linejoin="round"/>
</g>
</g>
<g id="step s-multistep-brush_8">
<g id="input_9">
<g id="ref_8">
<path id="Vector_29" d="M690.948 164.09C741.502 164.09 782.484 226.576 782.484 303.657C782.484 380.737 741.502 443.223 690.948 443.223C640.394 443.223 599.412 380.737 599.412 303.657C599.412 227.568 639.345 165.701 689 164.121" stroke="#CBD8F1" stroke-width="8" stroke-miterlimit="10" stroke-linecap="round" stroke-linejoin="round"/>
<path id="Vector_30" d="M691 404C714.196 404 733 442.056 733 489C733 535.944 714.196 574 691 574C667.804 574 649 535.944 649 489C649 442.66 667.323 404.981 690.106 404.019" stroke="#CBD8F1" stroke-width="8" stroke-miterlimit="10" stroke-linecap="round" stroke-linejoin="round"/>
<path id="Vector_31" d="M837.038 496.177C859.976 506.768 839.506 599.958 791.318 704.322C743.129 808.687 685.47 884.706 662.532 874.115C639.595 863.524 660.064 770.334 708.253 665.969C755.821 562.948 812.617 487.548 836.135 495.811" stroke="#CBD8F1" stroke-width="8" stroke-miterlimit="10" stroke-linecap="round" stroke-linejoin="round"/>
<path id="Vector_32" d="M520.572 409.935C496.508 417.632 509.4 525.175 549.367 650.14C589.334 775.106 641.242 870.171 665.306 862.475C689.37 854.779 676.478 747.235 636.51 622.27C597.058 498.913 545.97 404.692 521.515 409.689" stroke="#CBD8F1" stroke-width="8" stroke-miterlimit="10" stroke-linecap="round" stroke-linejoin="round"/>
</g>
<g id="ref g-template_8">
<path id="d_42" d="M655.742 188.799C646.409 179.227 636.461 170.86 626.157 163.918C613.872 155.624 597.235 158.217 588.246 170C566.321 198.751 552.66 239.31 552.66 284.28C552.66 367.18 609.501 435.049 668.5 441.5" stroke="#CBD8F1" stroke-width="8" stroke-miterlimit="10" stroke-linecap="round" stroke-linejoin="round"/>
<path id="d_43" d="M691.132 442.818C642.241 442.818 595.403 377.636 602.596 297.943C607.244 246.51 643.729 200.348 668.383 174.583C680.754 161.657 701.461 161.903 713.66 174.976C737.786 200.815 773.434 246.768 779.668 297.943C789.235 376.354 741.271 441.149 693 442.786" stroke="#CBD8F1" stroke-width="8" stroke-miterlimit="10" stroke-linecap="round" stroke-linejoin="round"/>
</g>
<path id="draw-line rgb-template_8" d="M723.3 183.933C729.977 177.691 736.937 172.052 744.057 167.088C757.51 157.713 775.93 160.699 785.632 173.919C806.598 202.511 819.595 242.185 819.595 286.037C819.595 368.937 774.012 437.049 715 443.5" stroke="#6685D4" stroke-width="8" stroke-miterlimit="10" stroke-linecap="round" stroke-linejoin="round"/>
</g>
</g>
<g id="step s-multistep-brush_9">
<g id="input_10">
<g id="ref_9">
<path id="Vector_33" d="M690.948 164.09C741.502 164.09 782.484 226.576 782.484 303.657C782.484 380.737 741.502 443.223 690.948 443.223C640.394 443.223 599.412 380.737 599.412 303.657C599.412 227.568 639.345 165.701 689 164.121" stroke="#CBD8F1" stroke-width="8" stroke-miterlimit="10" stroke-linecap="round" stroke-linejoin="round"/>
<path id="Vector_34" d="M691 404C714.196 404 733 442.056 733 489C733 535.944 714.196 574 691 574C667.804 574 649 535.944 649 489C649 442.66 667.323 404.981 690.106 404.019" stroke="#CBD8F1" stroke-width="8" stroke-miterlimit="10" stroke-linecap="round" stroke-linejoin="round"/>
<path id="Vector_35" d="M837.038 496.177C859.976 506.768 839.506 599.958 791.318 704.322C743.129 808.687 685.47 884.706 662.532 874.115C639.595 863.524 660.064 770.334 708.253 665.969C755.821 562.948 812.617 487.548 836.135 495.811" stroke="#CBD8F1" stroke-width="8" stroke-miterlimit="10" stroke-linecap="round" stroke-linejoin="round"/>
<path id="Vector_36" d="M520.572 409.935C496.508 417.632 509.4 525.175 549.367 650.14C589.334 775.106 641.242 870.171 665.306 862.475C689.37 854.779 676.478 747.235 636.51 622.27C597.058 498.913 545.97 404.692 521.515 409.689" stroke="#CBD8F1" stroke-width="8" stroke-miterlimit="10" stroke-linecap="round" stroke-linejoin="round"/>
</g>
<g id="ref g-template_9">
<path id="d_44" d="M691.132 442.818C642.241 442.818 595.403 377.636 602.596 297.943C607.244 246.51 643.729 200.348 668.383 174.583C680.754 161.657 701.461 161.903 713.66 174.976C737.786 200.815 773.434 246.768 779.668 297.943C789.235 376.354 741.271 441.149 693 442.786" stroke="#CBD8F1" stroke-width="8" stroke-miterlimit="10" stroke-linecap="round" stroke-linejoin="round"/>
</g>
<path id="draw-line rgb-template_9" d="M655.742 188.799C646.409 179.227 636.461 170.86 626.157 163.918C613.872 155.624 597.235 158.217 588.246 170C566.321 198.751 552.66 239.31 552.66 284.28C552.66 367.18 609.501 435.049 668.5 441.5" stroke="#6685D4" stroke-width="8" stroke-miterlimit="10" stroke-linecap="round" stroke-linejoin="round"/>
</g>
</g>
<g id="step s-multistep-first-brush">
<g id="input_11">
<g id="ref_10">
<path id="Vector_37" d="M690.948 164.09C741.502 164.09 782.484 226.576 782.484 303.657C782.484 380.737 741.502 443.223 690.948 443.223C640.394 443.223 599.412 380.737 599.412 303.657C599.412 227.568 639.345 165.701 689 164.121" stroke="#CBD8F1" stroke-width="8" stroke-miterlimit="10" stroke-linecap="round" stroke-linejoin="round"/>
<path id="Vector_38" d="M691 404C714.196 404 733 442.056 733 489C733 535.944 714.196 574 691 574C667.804 574 649 535.944 649 489C649 442.66 667.323 404.981 690.106 404.019" stroke="#CBD8F1" stroke-width="8" stroke-miterlimit="10" stroke-linecap="round" stroke-linejoin="round"/>
<path id="Vector_39" d="M837.038 496.177C859.976 506.768 839.506 599.958 791.318 704.322C743.129 808.687 685.47 884.706 662.532 874.115C639.595 863.524 660.064 770.334 708.253 665.969C755.821 562.948 812.617 487.548 836.135 495.811" stroke="#CBD8F1" stroke-width="8" stroke-miterlimit="10" stroke-linecap="round" stroke-linejoin="round"/>
<path id="Vector_40" d="M520.572 409.935C496.508 417.632 509.4 525.175 549.367 650.14C589.334 775.106 641.242 870.171 665.306 862.475C689.37 854.779 676.478 747.235 636.51 622.27C597.058 498.913 545.97 404.692 521.515 409.689" stroke="#CBD8F1" stroke-width="8" stroke-miterlimit="10" stroke-linecap="round" stroke-linejoin="round"/>
</g>
<path id="draw-line rgb-template_10" d="M691.132 442.818C642.241 442.818 595.403 377.636 602.596 297.943C607.244 246.51 643.729 200.348 668.383 174.583C680.754 161.657 701.461 161.903 713.66 174.976C737.786 200.815 773.434 246.768 779.668 297.943C789.235 376.354 741.271 441.149 693 442.786" stroke="#6685D4" stroke-width="8" stroke-miterlimit="10" stroke-linecap="round" stroke-linejoin="round"/>
</g>
</g>
<g id="step s-multistep">
<g id="input_12">
<g id="ref_11">
<path id="Vector_41" d="M690.948 164.09C741.502 164.09 782.484 226.576 782.484 303.657C782.484 380.737 741.502 443.223 690.948 443.223C640.394 443.223 599.412 380.737 599.412 303.657C599.412 227.568 639.345 165.701 689 164.121" stroke="#CBD8F1" stroke-width="8" stroke-miterlimit="10" stroke-linecap="round" stroke-linejoin="round"/>
<path id="Vector_42" d="M691 404C714.196 404 733 442.056 733 489C733 535.944 714.196 574 691 574C667.804 574 649 535.944 649 489C649 442.66 667.323 404.981 690.106 404.019" stroke="#CBD8F1" stroke-width="8" stroke-miterlimit="10" stroke-linecap="round" stroke-linejoin="round"/>
<path id="draw-line rgb-template_11" d="M520.572 409.935C496.508 417.632 509.4 525.175 549.367 650.14C589.334 775.106 641.242 870.171 665.306 862.475C689.37 854.779 676.478 747.235 636.51 622.27C597.058 498.913 545.97 404.692 521.515 409.689" stroke="#CBD8F1" stroke-width="8" stroke-miterlimit="10" stroke-linecap="round" stroke-linejoin="round"/>
</g>
<path id="draw-line rgb-template_12" d="M837.038 496.177C859.976 506.768 839.506 599.958 791.318 704.322C743.129 808.687 685.47 884.706 662.532 874.115C639.595 863.524 660.064 770.334 708.253 665.969C755.821 562.948 812.617 487.548 836.135 495.811" stroke="#6685D4" stroke-width="8" stroke-miterlimit="10" stroke-linecap="round" stroke-linejoin="round"/>
</g>
</g>
<g id="step s-multistep_2">
<g id="input_13">
<g id="ref_12">
<path id="Vector_43" d="M690.948 164.09C741.502 164.09 782.484 226.576 782.484 303.657C782.484 380.737 741.502 443.223 690.948 443.223C640.394 443.223 599.412 380.737 599.412 303.657C599.412 227.568 639.345 165.701 689 164.121" stroke="#CBD8F1" stroke-width="8" stroke-miterlimit="10" stroke-linecap="round" stroke-linejoin="round"/>
<path id="Vector_44" d="M691 404C714.196 404 733 442.056 733 489C733 535.944 714.196 574 691 574C667.804 574 649 535.944 649 489C649 442.66 667.323 404.981 690.106 404.019" stroke="#CBD8F1" stroke-width="8" stroke-miterlimit="10" stroke-linecap="round" stroke-linejoin="round"/>
</g>
<path id="draw-line rgb-template_13" d="M520.572 409.935C496.508 417.632 509.4 525.175 549.367 650.14C589.334 775.106 641.242 870.171 665.306 862.475C689.37 854.779 676.478 747.235 636.51 622.27C597.058 498.913 545.97 404.692 521.515 409.689" stroke="#6685D4" stroke-width="8" stroke-miterlimit="10" stroke-linecap="round" stroke-linejoin="round"/>
</g>
</g>
<g id="step s-multistep_3">
<g id="input_14">
<g id="ref_13">
<path id="Vector_45" d="M690.948 164.09C741.502 164.09 782.484 226.576 782.484 303.657C782.484 380.737 741.502 443.223 690.948 443.223C640.394 443.223 599.412 380.737 599.412 303.657C599.412 227.568 639.345 165.701 689 164.121" stroke="#CBD8F1" stroke-width="8" stroke-miterlimit="10" stroke-linecap="round" stroke-linejoin="round"/>
</g>
<path id="draw-line rgb-template_14" d="M691 404C714.196 404 733 442.056 733 489C733 535.944 714.196 574 691 574C667.804 574 649 535.944 649 489C649 442.66 667.323 404.981 690.106 404.019" stroke="#6685D4" stroke-width="8" stroke-miterlimit="10" stroke-linecap="round" stroke-linejoin="round"/>
</g>
</g>
<g id="step s-multistep_4">
<g id="input_15">
<path id="draw-line rgb-template_15" d="M690.948 164.09C741.502 164.09 782.484 226.576 782.484 303.657C782.484 380.737 741.502 443.223 690.948 443.223C640.394 443.223 599.412 380.737 599.412 303.657C599.412 227.568 639.345 165.701 689 164.121" stroke="#6685D4" stroke-width="8" stroke-miterlimit="10" stroke-linecap="round" stroke-linejoin="round"/>
</g>
</g>
</g>
<defs>
<clipPath id="clip0">
<rect width="1366" height="1024" fill="white"/>
</clipPath>
</defs>
</svg>
