<svg width="1366" height="1024" viewBox="0 0 1366 1024" fill="none" xmlns="http://www.w3.org/2000/svg">
<g id="flower1" clip-path="url(#clip0)">
<g id="step s-multistep-result">
<g id="input">
<rect id="appear d1" x="1219" y="879.5" width="95" height="95" stroke="#999999" stroke-width="5"/>
<path id="draw-line d2" d="M1232.5 921C1261.7 952.2 1261.5 962.5 1261.5 962.5C1261.5 962.5 1290.5 889 1312.5 863" stroke="#0000FF" stroke-opacity="0.1" stroke-width="10" stroke-linecap="round" stroke-linejoin="round"/>
</g>
<g id="template">
<rect id="Rectangle 6" x="1191.5" y="852" width="150" height="150" fill="#FF0000" stroke="#00FF00" stroke-width="50"/>
</g>
</g>
<g id="step s-multistep-brush">
<g id="input_2">
<g id="ref">
<path id="Ellipse 1" d="M935.391 293.984C935.391 295.308 934.614 297.246 931.617 299.751C928.658 302.224 924.053 304.791 917.743 307.342C905.159 312.43 886.711 317.095 863.621 321.044C817.507 328.929 753.646 333.828 683 333.828C612.354 333.828 548.493 328.929 502.379 321.044C479.289 317.095 460.841 312.43 448.257 307.342C441.947 304.791 437.342 302.224 434.383 299.751C431.386 297.246 430.609 295.308 430.609 293.984C430.609 292.661 431.386 290.723 434.383 288.218C437.342 285.745 441.947 283.178 448.257 280.627C460.841 275.539 479.289 270.873 502.379 266.925C548.493 259.039 612.354 254.141 683 254.141C753.646 254.141 817.507 259.039 863.621 266.925C886.711 270.873 905.159 275.539 917.743 280.627C924.053 283.178 928.658 285.745 931.617 288.218C934.614 290.723 935.391 292.661 935.391 293.984Z" stroke="#CBD8F1" stroke-width="8" stroke-linecap="round" stroke-linejoin="round"/>
<path id="Vector 1" d="M683.953 192V810.102" stroke="#CBD8F1" stroke-width="8" stroke-linecap="round" stroke-linejoin="round"/>
<path id="Vector 2" d="M686.812 705.258L427.562 293.984H937.961L686.812 705.258Z" stroke="#CBD8F1" stroke-width="8" stroke-linecap="round" stroke-linejoin="round"/>
</g>
<g id="ref g-template">
<path id="d" d="M620.094 478.414C623.43 493.188 627.225 507.44 634.867 526.547C644.398 550.375 652.977 564.195 669.18 594.695" stroke="#CBD8F1" stroke-width="8" stroke-linecap="round" stroke-linejoin="round"/>
<path id="d_2" d="M546.227 458.398C557.664 483.18 567.824 500.276 588.641 526.07C610.562 553.234 617.234 560.383 636.297 576.586" stroke="#CBD8F1" stroke-width="8" stroke-linecap="round" stroke-linejoin="round"/>
<path id="d_3" d="M723.508 388.82C723.984 381.831 726.081 364.516 730.656 351.172C735.231 337.828 742.729 322.737 745.906 316.859" stroke="#CBD8F1" stroke-width="8" stroke-linecap="round" stroke-linejoin="round"/>
<path id="d_4" d="M701.586 372.141C701.205 369.472 701.427 342.753 701.586 329.727" stroke="#CBD8F1" stroke-width="8" stroke-linecap="round" stroke-linejoin="round"/>
<path id="d_5" d="M682.047 362.133C682.047 359.273 681.094 351.267 677.281 342.117C673.469 332.967 667.75 324.643 665.367 321.625" stroke="#CBD8F1" stroke-width="8" stroke-linecap="round" stroke-linejoin="round"/>
<path id="d_6" d="M615.328 239.389C596.146 235.275 551.161 229.515 524.674 239.389C498.187 249.263 469.23 268.463 458.062 276.828" stroke="#CBD8F1" stroke-width="8" stroke-linecap="round" stroke-linejoin="round"/>
<path id="d_7" d="M605.17 342.594C596.233 324.23 581.671 281.993 594.918 259.957C611.478 232.411 657.214 221.722 672.985 222.544C688.756 223.366 731.731 240.634 749.08 241.456C766.428 242.278 844.099 232.411 872.487 241.456C895.197 248.692 908.76 265.027 912.703 272.291" stroke="#CBD8F1" stroke-width="8" stroke-linecap="round" stroke-linejoin="round"/>
<path id="d_8" d="M680.617 594.219C678.241 571.601 681.249 492.66 702.791 460.42C729.719 420.12 778.427 392.157 814.463 367.072C850.499 341.987 862.775 313.612 880.991 300.864C899.207 288.116 934.055 244.526 925.739 279.892C917.423 315.257 884.96 415.097 849.32 466.5C820.808 507.623 778.159 576.126 743.047 604.227" stroke="#CBD8F1" stroke-width="8" stroke-linecap="round" stroke-linejoin="round"/>
<path id="d_9" d="M741.141 418.613C736.15 409.033 721.913 386.835 704.892 374.682C683.615 359.491 617.422 348.816 585.507 336.089C553.593 323.361 532.71 308.17 488.975 288.463C445.24 268.756 440.906 277.788 440.906 288.463C440.906 299.138 476.543 409.453 503.336 448.867C524.77 480.399 555.21 525.753 599.602 561.336" stroke="#CBD8F1" stroke-width="8" stroke-linecap="round" stroke-linejoin="round"/>
<path id="d_10" d="M814.531 698.109C814.531 698.109 784.369 738.334 762.109 761.492C742.39 782.008 708.258 810.578 708.258 810.578" stroke="#CBD8F1" stroke-width="8" stroke-linecap="round" stroke-linejoin="round"/>
<path id="d_11" d="M701.586 679.047C697.297 698.745 695.2 739.094 694.438 746.719C693.675 754.344 695.232 771.818 694.438 806.766C703.016 791.516 708.214 757.564 738.281 733.375C762.253 714.09 805.953 703.828 818.344 691.438C816.12 699.38 806.815 750.861 783.078 779.125C756.964 810.219 720.839 829.164 693.008 831.07V863" stroke="#CBD8F1" stroke-width="8" stroke-linecap="round" stroke-linejoin="round"/>
<path id="d_12" d="M664.414 677.141C668.703 696.839 671.277 726.703 672.039 734.328C672.802 741.953 674.581 819.474 675.375 854.422" stroke="#CBD8F1" stroke-width="8" stroke-linecap="round" stroke-linejoin="round"/>
<path id="d_13" d="M665.844 677.141C631.055 653.121 598.172 570.084 598.172 563.719C605.003 552.299 665.881 606.658 683.953 598.508C708.258 587.547 740.664 604.826 740.664 609.945C740.664 612.855 726.367 653.908 700.156 677.141" stroke="#CBD8F1" stroke-width="8" stroke-linecap="round" stroke-linejoin="round"/>
</g>
<path id="draw-line d2 rgb-template" d="M817.867 454.586C808.812 475.078 786.383 510.974 779.266 521.781C766.398 541.32 741.617 576.109 725.891 593.742" stroke="#6685D4" stroke-width="8" stroke-linecap="round" stroke-linejoin="round"/>
<path id="draw-line d1 rgb-template" d="M772.594 458.875C762.109 474.125 750.195 497 741.617 516.539C733.475 535.085 719.695 569.914 709.688 590.883" stroke="#6685D4" stroke-width="8" stroke-linecap="round" stroke-linejoin="round"/>
<path id="draw-line rgb-template" d="M721.125 474.125C715.724 482.862 708.163 503.291 705.875 513.203C703.587 523.116 697.773 550.375 695.867 591.836" stroke="#6685D4" stroke-width="8" stroke-linecap="round" stroke-linejoin="round"/>
</g>
</g>
<g id="step s-multistep-brush_2">
<g id="input_3">
<g id="ref_2">
<path id="Ellipse 1_2" d="M935.391 293.984C935.391 295.308 934.614 297.246 931.617 299.751C928.658 302.224 924.053 304.791 917.743 307.342C905.159 312.43 886.711 317.095 863.621 321.044C817.507 328.929 753.646 333.828 683 333.828C612.354 333.828 548.493 328.929 502.379 321.044C479.289 317.095 460.841 312.43 448.257 307.342C441.947 304.791 437.342 302.224 434.383 299.751C431.386 297.246 430.609 295.308 430.609 293.984C430.609 292.661 431.386 290.723 434.383 288.218C437.342 285.745 441.947 283.178 448.257 280.627C460.841 275.539 479.289 270.873 502.379 266.925C548.493 259.039 612.354 254.141 683 254.141C753.646 254.141 817.507 259.039 863.621 266.925C886.711 270.873 905.159 275.539 917.743 280.627C924.053 283.178 928.658 285.745 931.617 288.218C934.614 290.723 935.391 292.661 935.391 293.984Z" stroke="#CBD8F1" stroke-width="8" stroke-linecap="round" stroke-linejoin="round"/>
<path id="Vector 1_2" d="M683.953 192V810.102" stroke="#CBD8F1" stroke-width="8" stroke-linecap="round" stroke-linejoin="round"/>
<path id="Vector 2_2" d="M686.812 705.258L427.562 293.984H937.961L686.812 705.258Z" stroke="#CBD8F1" stroke-width="8" stroke-linecap="round" stroke-linejoin="round"/>
</g>
<g id="ref g-template_2">
<path id="d_14" d="M723.508 388.82C723.984 381.831 726.081 364.516 730.656 351.172C735.231 337.828 742.729 322.737 745.906 316.859" stroke="#CBD8F1" stroke-width="8" stroke-linecap="round" stroke-linejoin="round"/>
<path id="d_15" d="M701.586 372.141C701.205 369.472 701.427 342.753 701.586 329.727" stroke="#CBD8F1" stroke-width="8" stroke-linecap="round" stroke-linejoin="round"/>
<path id="d_16" d="M682.047 362.133C682.047 359.273 681.094 351.267 677.281 342.117C673.469 332.967 667.75 324.643 665.367 321.625" stroke="#CBD8F1" stroke-width="8" stroke-linecap="round" stroke-linejoin="round"/>
<path id="d_17" d="M615.328 239.389C596.146 235.275 551.161 229.515 524.674 239.389C498.187 249.263 469.23 268.463 458.062 276.828" stroke="#CBD8F1" stroke-width="8" stroke-linecap="round" stroke-linejoin="round"/>
<path id="d_18" d="M605.17 342.594C596.233 324.23 581.671 281.993 594.918 259.957C611.478 232.411 657.214 221.722 672.985 222.544C688.756 223.366 731.731 240.634 749.08 241.456C766.428 242.278 844.099 232.411 872.487 241.456C895.197 248.692 908.76 265.027 912.703 272.291" stroke="#CBD8F1" stroke-width="8" stroke-linecap="round" stroke-linejoin="round"/>
<path id="d_19" d="M680.617 594.219C678.241 571.601 681.249 492.66 702.791 460.42C729.719 420.12 778.427 392.157 814.463 367.072C850.499 341.987 862.775 313.612 880.991 300.864C899.207 288.116 934.055 244.526 925.739 279.892C917.423 315.257 884.96 415.097 849.32 466.5C820.808 507.623 778.159 576.126 743.047 604.227" stroke="#CBD8F1" stroke-width="8" stroke-linecap="round" stroke-linejoin="round"/>
<path id="d_20" d="M741.141 418.613C736.15 409.033 721.913 386.835 704.892 374.682C683.615 359.491 617.422 348.816 585.507 336.089C553.593 323.361 532.71 308.17 488.975 288.463C445.24 268.756 440.906 277.788 440.906 288.463C440.906 299.138 476.543 409.453 503.336 448.867C524.77 480.399 555.21 525.753 599.602 561.336" stroke="#CBD8F1" stroke-width="8" stroke-linecap="round" stroke-linejoin="round"/>
<path id="d_21" d="M814.531 698.109C814.531 698.109 784.369 738.334 762.109 761.492C742.39 782.008 708.258 810.578 708.258 810.578" stroke="#CBD8F1" stroke-width="8" stroke-linecap="round" stroke-linejoin="round"/>
<path id="d_22" d="M701.586 679.047C697.297 698.745 695.2 739.094 694.438 746.719C693.675 754.344 695.232 771.818 694.438 806.766C703.016 791.516 708.214 757.564 738.281 733.375C762.253 714.09 805.953 703.828 818.344 691.438C816.12 699.38 806.815 750.861 783.078 779.125C756.964 810.219 720.839 829.164 693.008 831.07V863" stroke="#CBD8F1" stroke-width="8" stroke-linecap="round" stroke-linejoin="round"/>
<path id="d_23" d="M664.414 677.141C668.703 696.839 671.277 726.703 672.039 734.328C672.802 741.953 674.581 819.474 675.375 854.422" stroke="#CBD8F1" stroke-width="8" stroke-linecap="round" stroke-linejoin="round"/>
<path id="d_24" d="M665.844 677.141C631.055 653.121 598.172 570.084 598.172 563.719C605.003 552.299 665.881 606.658 683.953 598.508C708.258 587.547 740.664 604.826 740.664 609.945C740.664 612.855 726.367 653.908 700.156 677.141" stroke="#CBD8F1" stroke-width="8" stroke-linecap="round" stroke-linejoin="round"/>
</g>
<path id="draw-line d1 rgb-template_2" d="M620.094 478.414C623.43 493.188 627.225 507.44 634.867 526.547C644.398 550.375 652.977 564.195 669.18 594.695" stroke="#6685D4" stroke-width="8" stroke-linecap="round" stroke-linejoin="round"/>
<path id="draw-line rgb-template_2" d="M546.227 458.398C557.664 483.18 567.824 500.276 588.641 526.07C610.562 553.234 617.234 560.383 636.297 576.586" stroke="#6685D4" stroke-width="8" stroke-linecap="round" stroke-linejoin="round"/>
</g>
</g>
<g id="step s-multistep-brush_3">
<g id="input_4">
<g id="ref_3">
<path id="Ellipse 1_3" d="M935.391 293.984C935.391 295.308 934.614 297.246 931.617 299.751C928.658 302.224 924.053 304.791 917.743 307.342C905.159 312.43 886.711 317.095 863.621 321.044C817.507 328.929 753.646 333.828 683 333.828C612.354 333.828 548.493 328.929 502.379 321.044C479.289 317.095 460.841 312.43 448.257 307.342C441.947 304.791 437.342 302.224 434.383 299.751C431.386 297.246 430.609 295.308 430.609 293.984C430.609 292.661 431.386 290.723 434.383 288.218C437.342 285.745 441.947 283.178 448.257 280.627C460.841 275.539 479.289 270.873 502.379 266.925C548.493 259.039 612.354 254.141 683 254.141C753.646 254.141 817.507 259.039 863.621 266.925C886.711 270.873 905.159 275.539 917.743 280.627C924.053 283.178 928.658 285.745 931.617 288.218C934.614 290.723 935.391 292.661 935.391 293.984Z" stroke="#CBD8F1" stroke-width="8" stroke-linecap="round" stroke-linejoin="round"/>
<path id="Vector 1_3" d="M683.953 192V810.102" stroke="#CBD8F1" stroke-width="8" stroke-linecap="round" stroke-linejoin="round"/>
<path id="Vector 2_3" d="M686.812 705.258L427.562 293.984H937.961L686.812 705.258Z" stroke="#CBD8F1" stroke-width="8" stroke-linecap="round" stroke-linejoin="round"/>
</g>
<g id="ref g-template_3">
<path id="d_25" d="M701.586 372.141C701.205 369.472 701.427 342.753 701.586 329.727" stroke="#CBD8F1" stroke-width="8" stroke-linecap="round" stroke-linejoin="round"/>
<path id="d_26" d="M682.047 362.133C682.047 359.273 681.094 351.267 677.281 342.117C673.469 332.967 667.75 324.643 665.367 321.625" stroke="#CBD8F1" stroke-width="8" stroke-linecap="round" stroke-linejoin="round"/>
<path id="d_27" d="M615.328 239.389C596.146 235.275 551.161 229.515 524.674 239.389C498.187 249.263 469.23 268.463 458.062 276.828" stroke="#CBD8F1" stroke-width="8" stroke-linecap="round" stroke-linejoin="round"/>
<path id="d_28" d="M605.17 342.594C596.233 324.23 581.671 281.993 594.918 259.957C611.478 232.411 657.214 221.722 672.985 222.544C688.756 223.366 731.731 240.634 749.08 241.456C766.428 242.278 844.099 232.411 872.487 241.456C895.197 248.692 908.76 265.027 912.703 272.291" stroke="#CBD8F1" stroke-width="8" stroke-linecap="round" stroke-linejoin="round"/>
<path id="d_29" d="M680.617 594.219C678.241 571.601 681.249 492.66 702.791 460.42C729.719 420.12 778.427 392.157 814.463 367.072C850.499 341.987 862.775 313.612 880.991 300.864C899.207 288.116 934.055 244.526 925.739 279.892C917.423 315.257 884.96 415.097 849.32 466.5C820.808 507.623 778.159 576.126 743.047 604.227" stroke="#CBD8F1" stroke-width="8" stroke-linecap="round" stroke-linejoin="round"/>
<path id="d_30" d="M741.141 418.613C736.15 409.033 721.913 386.835 704.892 374.682C683.615 359.491 617.422 348.816 585.507 336.089C553.593 323.361 532.71 308.17 488.975 288.463C445.24 268.756 440.906 277.788 440.906 288.463C440.906 299.138 476.543 409.453 503.336 448.867C524.77 480.399 555.21 525.753 599.602 561.336" stroke="#CBD8F1" stroke-width="8" stroke-linecap="round" stroke-linejoin="round"/>
<path id="d_31" d="M814.531 698.109C814.531 698.109 784.369 738.334 762.109 761.492C742.39 782.008 708.258 810.578 708.258 810.578" stroke="#CBD8F1" stroke-width="8" stroke-linecap="round" stroke-linejoin="round"/>
<path id="d_32" d="M701.586 679.047C697.297 698.745 695.2 739.094 694.438 746.719C693.675 754.344 695.232 771.818 694.438 806.766C703.016 791.516 708.214 757.564 738.281 733.375C762.253 714.09 805.953 703.828 818.344 691.438C816.12 699.38 806.815 750.861 783.078 779.125C756.964 810.219 720.839 829.164 693.008 831.07V863" stroke="#CBD8F1" stroke-width="8" stroke-linecap="round" stroke-linejoin="round"/>
<path id="d_33" d="M664.414 677.141C668.703 696.839 671.277 726.703 672.039 734.328C672.802 741.953 674.581 819.474 675.375 854.422" stroke="#CBD8F1" stroke-width="8" stroke-linecap="round" stroke-linejoin="round"/>
<path id="d_34" d="M665.844 677.141C631.055 653.121 598.172 570.084 598.172 563.719C605.003 552.299 665.881 606.658 683.953 598.508C708.258 587.547 740.664 604.826 740.664 609.945C740.664 612.855 726.367 653.908 700.156 677.141" stroke="#CBD8F1" stroke-width="8" stroke-linecap="round" stroke-linejoin="round"/>
</g>
<path id="draw-line d2 rgb-template_2" d="M723.508 388.82C723.984 381.831 726.081 364.516 730.656 351.172C735.231 337.828 742.729 322.737 745.906 316.859" stroke="#6685D4" stroke-width="8" stroke-linecap="round" stroke-linejoin="round"/>
<path id="draw-line d1 rgb-template_3" d="M701.586 372.141C701.205 369.472 701.427 342.753 701.586 329.727" stroke="#6685D4" stroke-width="8" stroke-linecap="round" stroke-linejoin="round"/>
<path id="draw-line rgb-template_3" d="M682.047 362.133C682.047 359.273 681.094 351.267 677.281 342.117C673.469 332.967 667.75 324.643 665.367 321.625" stroke="#6685D4" stroke-width="8" stroke-linecap="round" stroke-linejoin="round"/>
</g>
</g>
<g id="step s-multistep-brush_4">
<g id="input_5">
<g id="ref_4">
<path id="Ellipse 1_4" d="M935.391 293.984C935.391 295.308 934.614 297.246 931.617 299.751C928.658 302.224 924.053 304.791 917.743 307.342C905.159 312.43 886.711 317.095 863.621 321.044C817.507 328.929 753.646 333.828 683 333.828C612.354 333.828 548.493 328.929 502.379 321.044C479.289 317.095 460.841 312.43 448.257 307.342C441.947 304.791 437.342 302.224 434.383 299.751C431.386 297.246 430.609 295.308 430.609 293.984C430.609 292.661 431.386 290.723 434.383 288.218C437.342 285.745 441.947 283.178 448.257 280.627C460.841 275.539 479.289 270.873 502.379 266.925C548.493 259.039 612.354 254.141 683 254.141C753.646 254.141 817.507 259.039 863.621 266.925C886.711 270.873 905.159 275.539 917.743 280.627C924.053 283.178 928.658 285.745 931.617 288.218C934.614 290.723 935.391 292.661 935.391 293.984Z" stroke="#CBD8F1" stroke-width="8" stroke-linecap="round" stroke-linejoin="round"/>
<path id="Vector 1_4" d="M683.953 192V810.102" stroke="#CBD8F1" stroke-width="8" stroke-linecap="round" stroke-linejoin="round"/>
<path id="Vector 2_4" d="M686.812 705.258L427.562 293.984H937.961L686.812 705.258Z" stroke="#CBD8F1" stroke-width="8" stroke-linecap="round" stroke-linejoin="round"/>
</g>
<g id="ref g-template_4">
<path id="d_35" d="M605.17 342.594C596.233 324.23 581.671 281.993 594.918 259.957C611.478 232.411 657.214 221.722 672.985 222.544C688.756 223.366 731.731 240.634 749.08 241.456C766.428 242.278 844.099 232.411 872.487 241.456C895.197 248.692 908.76 265.027 912.703 272.291" stroke="#CBD8F1" stroke-width="8" stroke-linecap="round" stroke-linejoin="round"/>
<path id="d_36" d="M680.617 594.219C678.241 571.601 681.249 492.66 702.791 460.42C729.719 420.12 778.427 392.157 814.463 367.072C850.499 341.987 862.775 313.612 880.991 300.864C899.207 288.116 934.055 244.526 925.739 279.892C917.423 315.257 884.96 415.097 849.32 466.5C820.808 507.623 778.159 576.126 743.047 604.227" stroke="#CBD8F1" stroke-width="8" stroke-linecap="round" stroke-linejoin="round"/>
<path id="d_37" d="M741.141 418.613C736.15 409.033 721.913 386.835 704.892 374.682C683.615 359.491 617.422 348.816 585.507 336.089C553.593 323.361 532.71 308.17 488.975 288.463C445.24 268.756 440.906 277.788 440.906 288.463C440.906 299.138 476.543 409.453 503.336 448.867C524.77 480.399 555.21 525.753 599.602 561.336" stroke="#CBD8F1" stroke-width="8" stroke-linecap="round" stroke-linejoin="round"/>
<path id="d_38" d="M814.531 698.109C814.531 698.109 784.369 738.334 762.109 761.492C742.39 782.008 708.258 810.578 708.258 810.578" stroke="#CBD8F1" stroke-width="8" stroke-linecap="round" stroke-linejoin="round"/>
<path id="d_39" d="M701.586 679.047C697.297 698.745 695.2 739.094 694.438 746.719C693.675 754.344 695.232 771.818 694.438 806.766C703.016 791.516 708.214 757.564 738.281 733.375C762.253 714.09 805.953 703.828 818.344 691.438C816.12 699.38 806.815 750.861 783.078 779.125C756.964 810.219 720.839 829.164 693.008 831.07V863" stroke="#CBD8F1" stroke-width="8" stroke-linecap="round" stroke-linejoin="round"/>
<path id="d_40" d="M664.414 677.141C668.703 696.839 671.277 726.703 672.039 734.328C672.802 741.953 674.581 819.474 675.375 854.422" stroke="#CBD8F1" stroke-width="8" stroke-linecap="round" stroke-linejoin="round"/>
<path id="d_41" d="M665.844 677.141C631.055 653.121 598.172 570.084 598.172 563.719C605.003 552.299 665.881 606.658 683.953 598.508C708.258 587.547 740.664 604.826 740.664 609.945C740.664 612.855 726.367 653.908 700.156 677.141" stroke="#CBD8F1" stroke-width="8" stroke-linecap="round" stroke-linejoin="round"/>
</g>
<path id="draw-line rgb-template_4" d="M615.328 239.389C596.146 235.275 551.161 229.515 524.674 239.389C498.187 249.263 469.23 268.463 458.062 276.828" stroke="#6685D4" stroke-width="8" stroke-linecap="round" stroke-linejoin="round"/>
</g>
</g>
<g id="step s-multistep-brush_5">
<g id="input_6">
<g id="ref_5">
<path id="Ellipse 1_5" d="M935.391 293.984C935.391 295.308 934.614 297.246 931.617 299.751C928.658 302.224 924.053 304.791 917.743 307.342C905.159 312.43 886.711 317.095 863.621 321.044C817.507 328.929 753.646 333.828 683 333.828C612.354 333.828 548.493 328.929 502.379 321.044C479.289 317.095 460.841 312.43 448.257 307.342C441.947 304.791 437.342 302.224 434.383 299.751C431.386 297.246 430.609 295.308 430.609 293.984C430.609 292.661 431.386 290.723 434.383 288.218C437.342 285.745 441.947 283.178 448.257 280.627C460.841 275.539 479.289 270.873 502.379 266.925C548.493 259.039 612.354 254.141 683 254.141C753.646 254.141 817.507 259.039 863.621 266.925C886.711 270.873 905.159 275.539 917.743 280.627C924.053 283.178 928.658 285.745 931.617 288.218C934.614 290.723 935.391 292.661 935.391 293.984Z" stroke="#CBD8F1" stroke-width="8" stroke-linecap="round" stroke-linejoin="round"/>
<path id="Vector 1_5" d="M683.953 192V810.102" stroke="#CBD8F1" stroke-width="8" stroke-linecap="round" stroke-linejoin="round"/>
<path id="Vector 2_5" d="M686.812 705.258L427.562 293.984H937.961L686.812 705.258Z" stroke="#CBD8F1" stroke-width="8" stroke-linecap="round" stroke-linejoin="round"/>
</g>
<g id="ref g-template_5">
<path id="d_42" d="M680.617 594.219C678.241 571.601 681.249 492.66 702.791 460.42C729.719 420.12 778.427 392.157 814.463 367.072C850.499 341.987 862.775 313.612 880.991 300.864C899.207 288.116 934.055 244.526 925.739 279.892C917.423 315.257 884.96 415.097 849.32 466.5C820.808 507.623 778.159 576.126 743.047 604.227" stroke="#CBD8F1" stroke-width="8" stroke-linecap="round" stroke-linejoin="round"/>
<path id="d_43" d="M741.141 418.613C736.15 409.033 721.913 386.835 704.892 374.682C683.615 359.491 617.422 348.816 585.507 336.089C553.593 323.361 532.71 308.17 488.975 288.463C445.24 268.756 440.906 277.788 440.906 288.463C440.906 299.138 476.543 409.453 503.336 448.867C524.77 480.399 555.21 525.753 599.602 561.336" stroke="#CBD8F1" stroke-width="8" stroke-linecap="round" stroke-linejoin="round"/>
<path id="d_44" d="M814.531 698.109C814.531 698.109 784.369 738.334 762.109 761.492C742.39 782.008 708.258 810.578 708.258 810.578" stroke="#CBD8F1" stroke-width="8" stroke-linecap="round" stroke-linejoin="round"/>
<path id="d_45" d="M701.586 679.047C697.297 698.745 695.2 739.094 694.438 746.719C693.675 754.344 695.232 771.818 694.438 806.766C703.016 791.516 708.214 757.564 738.281 733.375C762.253 714.09 805.953 703.828 818.344 691.438C816.12 699.38 806.815 750.861 783.078 779.125C756.964 810.219 720.839 829.164 693.008 831.07V863" stroke="#CBD8F1" stroke-width="8" stroke-linecap="round" stroke-linejoin="round"/>
<path id="d_46" d="M664.414 677.141C668.703 696.839 671.277 726.703 672.039 734.328C672.802 741.953 674.581 819.474 675.375 854.422" stroke="#CBD8F1" stroke-width="8" stroke-linecap="round" stroke-linejoin="round"/>
<path id="d_47" d="M665.844 677.141C631.055 653.121 598.172 570.084 598.172 563.719C605.003 552.299 665.881 606.658 683.953 598.508C708.258 587.547 740.664 604.826 740.664 609.945C740.664 612.855 726.367 653.908 700.156 677.141" stroke="#CBD8F1" stroke-width="8" stroke-linecap="round" stroke-linejoin="round"/>
</g>
<path id="draw-line rgb-template_5" d="M605.17 342.594C596.233 324.23 581.671 281.993 594.918 259.957C611.478 232.411 657.214 221.722 672.985 222.544C688.756 223.366 731.731 240.634 749.08 241.456C766.428 242.278 844.099 232.411 872.487 241.456C895.197 248.692 908.76 265.027 912.703 272.291" stroke="#6685D4" stroke-width="8" stroke-linecap="round" stroke-linejoin="round"/>
</g>
</g>
<g id="step s-multistep-brush_6">
<g id="input_7">
<g id="ref_6">
<path id="Ellipse 1_6" d="M935.391 293.984C935.391 295.308 934.614 297.246 931.617 299.751C928.658 302.224 924.053 304.791 917.743 307.342C905.159 312.43 886.711 317.095 863.621 321.044C817.507 328.929 753.646 333.828 683 333.828C612.354 333.828 548.493 328.929 502.379 321.044C479.289 317.095 460.841 312.43 448.257 307.342C441.947 304.791 437.342 302.224 434.383 299.751C431.386 297.246 430.609 295.308 430.609 293.984C430.609 292.661 431.386 290.723 434.383 288.218C437.342 285.745 441.947 283.178 448.257 280.627C460.841 275.539 479.289 270.873 502.379 266.925C548.493 259.039 612.354 254.141 683 254.141C753.646 254.141 817.507 259.039 863.621 266.925C886.711 270.873 905.159 275.539 917.743 280.627C924.053 283.178 928.658 285.745 931.617 288.218C934.614 290.723 935.391 292.661 935.391 293.984Z" stroke="#CBD8F1" stroke-width="8" stroke-linecap="round" stroke-linejoin="round"/>
<path id="Vector 1_6" d="M683.953 192V810.102" stroke="#CBD8F1" stroke-width="8" stroke-linecap="round" stroke-linejoin="round"/>
<path id="Vector 2_6" d="M686.812 705.258L427.562 293.984H937.961L686.812 705.258Z" stroke="#CBD8F1" stroke-width="8" stroke-linecap="round" stroke-linejoin="round"/>
</g>
<g id="ref g-template_6">
<path id="d_48" d="M741.141 418.613C736.15 409.033 721.913 386.835 704.892 374.682C683.615 359.491 617.422 348.816 585.507 336.089C553.593 323.361 532.71 308.17 488.975 288.463C445.24 268.756 440.906 277.788 440.906 288.463C440.906 299.138 476.543 409.453 503.336 448.867C524.77 480.399 555.21 525.753 599.602 561.336" stroke="#CBD8F1" stroke-width="8" stroke-linecap="round" stroke-linejoin="round"/>
<path id="d_49" d="M814.531 698.109C814.531 698.109 784.369 738.334 762.109 761.492C742.39 782.008 708.258 810.578 708.258 810.578" stroke="#CBD8F1" stroke-width="8" stroke-linecap="round" stroke-linejoin="round"/>
<path id="d_50" d="M701.586 679.047C697.297 698.745 695.2 739.094 694.438 746.719C693.675 754.344 695.232 771.818 694.438 806.766C703.016 791.516 708.214 757.564 738.281 733.375C762.253 714.09 805.953 703.828 818.344 691.438C816.12 699.38 806.815 750.861 783.078 779.125C756.964 810.219 720.839 829.164 693.008 831.07V863" stroke="#CBD8F1" stroke-width="8" stroke-linecap="round" stroke-linejoin="round"/>
<path id="d_51" d="M664.414 677.141C668.703 696.839 671.277 726.703 672.039 734.328C672.802 741.953 674.581 819.474 675.375 854.422" stroke="#CBD8F1" stroke-width="8" stroke-linecap="round" stroke-linejoin="round"/>
<path id="d_52" d="M665.844 677.141C631.055 653.121 598.172 570.084 598.172 563.719C605.003 552.299 665.881 606.658 683.953 598.508C708.258 587.547 740.664 604.826 740.664 609.945C740.664 612.855 726.367 653.908 700.156 677.141" stroke="#CBD8F1" stroke-width="8" stroke-linecap="round" stroke-linejoin="round"/>
</g>
<path id="draw-line rgb-template_6" d="M680.617 594.219C678.241 571.601 681.249 492.66 702.791 460.42C729.719 420.12 778.427 392.157 814.463 367.072C850.499 341.987 862.775 313.612 880.991 300.864C899.207 288.116 934.055 244.526 925.739 279.892C917.423 315.257 884.96 415.097 849.32 466.5C820.808 507.623 778.159 576.126 743.047 604.227" stroke="#6685D4" stroke-width="8" stroke-linecap="round" stroke-linejoin="round"/>
</g>
</g>
<g id="step s-multistep-brush_7">
<g id="input_8">
<g id="ref_7">
<path id="Ellipse 1_7" d="M935.391 293.984C935.391 295.308 934.614 297.246 931.617 299.751C928.658 302.224 924.053 304.791 917.743 307.342C905.159 312.43 886.711 317.095 863.621 321.044C817.507 328.929 753.646 333.828 683 333.828C612.354 333.828 548.493 328.929 502.379 321.044C479.289 317.095 460.841 312.43 448.257 307.342C441.947 304.791 437.342 302.224 434.383 299.751C431.386 297.246 430.609 295.308 430.609 293.984C430.609 292.661 431.386 290.723 434.383 288.218C437.342 285.745 441.947 283.178 448.257 280.627C460.841 275.539 479.289 270.873 502.379 266.925C548.493 259.039 612.354 254.141 683 254.141C753.646 254.141 817.507 259.039 863.621 266.925C886.711 270.873 905.159 275.539 917.743 280.627C924.053 283.178 928.658 285.745 931.617 288.218C934.614 290.723 935.391 292.661 935.391 293.984Z" stroke="#CBD8F1" stroke-width="8" stroke-linecap="round" stroke-linejoin="round"/>
<path id="Vector 1_7" d="M683.953 192V810.102" stroke="#CBD8F1" stroke-width="8" stroke-linecap="round" stroke-linejoin="round"/>
<path id="Vector 2_7" d="M686.812 705.258L427.562 293.984H937.961L686.812 705.258Z" stroke="#CBD8F1" stroke-width="8" stroke-linecap="round" stroke-linejoin="round"/>
</g>
<g id="ref g-template_7">
<path id="d_53" d="M814.531 698.109C814.531 698.109 784.369 738.334 762.109 761.492C742.39 782.008 708.258 810.578 708.258 810.578" stroke="#CBD8F1" stroke-width="8" stroke-linecap="round" stroke-linejoin="round"/>
<path id="d_54" d="M701.586 679.047C697.297 698.745 695.2 739.094 694.438 746.719C693.675 754.344 695.232 771.818 694.438 806.766C703.016 791.516 708.214 757.564 738.281 733.375C762.253 714.09 805.953 703.828 818.344 691.438C816.12 699.38 806.815 750.861 783.078 779.125C756.964 810.219 720.839 829.164 693.008 831.07V863" stroke="#CBD8F1" stroke-width="8" stroke-linecap="round" stroke-linejoin="round"/>
<path id="d_55" d="M664.414 677.141C668.703 696.839 671.277 726.703 672.039 734.328C672.802 741.953 674.581 819.474 675.375 854.422" stroke="#CBD8F1" stroke-width="8" stroke-linecap="round" stroke-linejoin="round"/>
<path id="d_56" d="M665.844 677.141C631.055 653.121 598.172 570.084 598.172 563.719C605.003 552.299 665.881 606.658 683.953 598.508C708.258 587.547 740.664 604.826 740.664 609.945C740.664 612.855 726.367 653.908 700.156 677.141" stroke="#CBD8F1" stroke-width="8" stroke-linecap="round" stroke-linejoin="round"/>
</g>
<path id="draw-line rgb-template_7" d="M741.141 418.613C736.15 409.033 721.913 386.835 704.892 374.682C683.615 359.491 617.422 348.816 585.507 336.089C553.593 323.361 532.71 308.17 488.975 288.463C445.24 268.756 440.906 277.788 440.906 288.463C440.906 299.138 476.543 409.453 503.336 448.867C524.77 480.399 555.21 525.753 599.602 561.336" stroke="#6685D4" stroke-width="8" stroke-linecap="round" stroke-linejoin="round"/>
</g>
</g>
<g id="step s-multistep-brush_8">
<g id="input_9">
<g id="ref_8">
<path id="Ellipse 1_8" d="M935.391 293.984C935.391 295.308 934.614 297.246 931.617 299.751C928.658 302.224 924.053 304.791 917.743 307.342C905.159 312.43 886.711 317.095 863.621 321.044C817.507 328.929 753.646 333.828 683 333.828C612.354 333.828 548.493 328.929 502.379 321.044C479.289 317.095 460.841 312.43 448.257 307.342C441.947 304.791 437.342 302.224 434.383 299.751C431.386 297.246 430.609 295.308 430.609 293.984C430.609 292.661 431.386 290.723 434.383 288.218C437.342 285.745 441.947 283.178 448.257 280.627C460.841 275.539 479.289 270.873 502.379 266.925C548.493 259.039 612.354 254.141 683 254.141C753.646 254.141 817.507 259.039 863.621 266.925C886.711 270.873 905.159 275.539 917.743 280.627C924.053 283.178 928.658 285.745 931.617 288.218C934.614 290.723 935.391 292.661 935.391 293.984Z" stroke="#CBD8F1" stroke-width="8" stroke-linecap="round" stroke-linejoin="round"/>
<path id="Vector 1_8" d="M683.953 192V810.102" stroke="#CBD8F1" stroke-width="8" stroke-linecap="round" stroke-linejoin="round"/>
<path id="Vector 2_8" d="M686.812 705.258L427.562 293.984H937.961L686.812 705.258Z" stroke="#CBD8F1" stroke-width="8" stroke-linecap="round" stroke-linejoin="round"/>
</g>
<g id="ref g-template_8">
<path id="d_57" d="M665.844 677.141C631.055 653.121 598.172 570.084 598.172 563.719C605.003 552.299 665.881 606.658 683.953 598.508C708.258 587.547 740.664 604.826 740.664 609.945C740.664 612.855 726.367 653.908 700.156 677.141" stroke="#CBD8F1" stroke-width="8" stroke-linecap="round" stroke-linejoin="round"/>
</g>
<path id="draw-line d2 rgb-template_3" d="M814.531 698.109C814.531 698.109 784.369 738.334 762.109 761.492C742.39 782.008 708.258 810.578 708.258 810.578" stroke="#6685D4" stroke-width="8" stroke-linecap="round" stroke-linejoin="round"/>
<path id="draw-line d1 rgb-template_4" d="M701.586 679.047C697.297 698.745 695.2 739.094 694.438 746.719C693.675 754.344 695.232 771.818 694.438 806.766C703.016 791.516 708.214 757.564 738.281 733.375C762.253 714.09 805.953 703.828 818.344 691.438C816.12 699.38 806.815 750.861 783.078 779.125C756.964 810.219 720.839 829.164 693.008 831.07V863" stroke="#6685D4" stroke-width="8" stroke-linecap="round" stroke-linejoin="round"/>
<path id="draw-line rgb-template_8" d="M664.414 677.141C668.703 696.839 671.277 726.703 672.039 734.328C672.802 741.953 674.581 819.474 675.375 854.422" stroke="#6685D4" stroke-width="8" stroke-linecap="round" stroke-linejoin="round"/>
</g>
</g>
<g id="step s-multistep-first-brush">
<g id="input_10">
<g id="ref_9">
<path id="Ellipse 1_9" d="M935.391 293.984C935.391 295.308 934.614 297.246 931.617 299.751C928.658 302.224 924.053 304.791 917.743 307.342C905.159 312.43 886.711 317.095 863.621 321.044C817.507 328.929 753.646 333.828 683 333.828C612.354 333.828 548.493 328.929 502.379 321.044C479.289 317.095 460.841 312.43 448.257 307.342C441.947 304.791 437.342 302.224 434.383 299.751C431.386 297.246 430.609 295.308 430.609 293.984C430.609 292.661 431.386 290.723 434.383 288.218C437.342 285.745 441.947 283.178 448.257 280.627C460.841 275.539 479.289 270.873 502.379 266.925C548.493 259.039 612.354 254.141 683 254.141C753.646 254.141 817.507 259.039 863.621 266.925C886.711 270.873 905.159 275.539 917.743 280.627C924.053 283.178 928.658 285.745 931.617 288.218C934.614 290.723 935.391 292.661 935.391 293.984Z" stroke="#CBD8F1" stroke-width="8" stroke-linecap="round" stroke-linejoin="round"/>
<path id="Vector 1_9" d="M683.953 192V810.102" stroke="#CBD8F1" stroke-width="8" stroke-linecap="round" stroke-linejoin="round"/>
<path id="Vector 2_9" d="M686.812 705.258L427.562 293.984H937.961L686.812 705.258Z" stroke="#CBD8F1" stroke-width="8" stroke-linecap="round" stroke-linejoin="round"/>
</g>
<path id="draw-line rgb-template_9" d="M665.844 677.141C631.055 653.121 598.172 570.084 598.172 563.719C605.003 552.299 665.881 606.658 683.953 598.508C708.258 587.547 740.664 604.826 740.664 609.945C740.664 612.855 726.367 653.908 700.156 677.141" stroke="#6685D4" stroke-width="8" stroke-linecap="round" stroke-linejoin="round"/>
</g>
</g>
<g id="step s-multistep">
<g id="input_11">
<path id="draw-line rgb-template_10" d="M427.562 293.984L686.812 705.258L937.961 293.984H428.516" stroke="#6685D4" stroke-width="8" stroke-linecap="round" stroke-linejoin="round"/>
</g>
</g>
<g id="step s-multistep_2">
<g id="input_12">
<path id="draw-line rgb-template_11" d="M683.953 192V810.102" stroke="#6685D4" stroke-width="8" stroke-linecap="round" stroke-linejoin="round"/>
</g>
</g>
<g id="step s-multistep_3">
<g id="input_13">
<path id="draw-line rgb-template flip" d="M683 254.906C544.031 254.906 431.375 272.402 431.375 293.984C431.375 315.567 544.031 333.062 683 333.062C821.969 333.062 934.625 315.567 934.625 293.984C934.625 272.451 822.474 254.985 683.935 254.907" stroke="#6685D4" stroke-width="8" stroke-linecap="round" stroke-linejoin="round"/>
</g>
</g>
</g>
<defs>
<clipPath id="clip0">
<rect width="1366" height="1024" fill="white"/>
</clipPath>
</defs>
</svg>
