<svg width="1366" height="1024" viewBox="0 0 1366 1024" fill="none" xmlns="http://www.w3.org/2000/svg">
<g id="flower2" clip-path="url(#clip0)">
<g id="step s-multistep-result">
<g id="input">
<rect id="appear d1" x="1219" y="879.5" width="95" height="95" stroke="#999999" stroke-width="5"/>
<path id="draw-line d2" d="M1232.5 921C1261.7 952.2 1261.5 962.5 1261.5 962.5C1261.5 962.5 1290.5 889 1312.5 863" stroke="#0000FF" stroke-opacity="0.1" stroke-width="10" stroke-linecap="round" stroke-linejoin="round"/>
</g>
<g id="template">
<rect id="Rectangle 6" x="1191.5" y="852" width="150" height="150" fill="#FF0000" stroke="#00FF00" stroke-width="50"/>
</g>
</g>
<g id="step s-multistep-brush">
<g id="input_2">
<g id="ref">
<path id="d" d="M871.708 318.182L474.436 715.454" stroke="#CBD8F1" stroke-width="8" stroke-miterlimit="10" stroke-linecap="round" stroke-linejoin="round"/>
<path id="d_2" d="M481.256 325.002L871.962 724.809" stroke="#CBD8F1" stroke-width="8" stroke-miterlimit="10" stroke-linecap="round" stroke-linejoin="round"/>
<path id="d_3" d="M514.994 351.026C425.527 440.493 425.501 585.521 514.935 674.955C604.369 764.389 749.397 764.363 838.864 674.896C928.331 585.429 928.357 440.401 838.923 350.967C749.823 261.867 605.545 261.56 516 350.026" stroke="#CBD8F1" stroke-width="8" stroke-miterlimit="10" stroke-linecap="round" stroke-linejoin="round"/>
</g>
<g id="ref g-template">
<path id="Vector 10" d="M721.027 604.955C721.027 604.955 704.89 587.564 696.632 574.903C684.308 556.01 672.944 522.224 672.944 522.224" stroke="#CBD8F1" stroke-width="8" stroke-linecap="round"/>
<path id="Vector 11" d="M639.356 591.167C639.356 591.167 652.458 574.336 658.448 562.175C666.168 546.503 671.529 519.395 671.529 519.395" stroke="#CBD8F1" stroke-width="8" stroke-linecap="round"/>
<path id="Vector 7" d="M606.476 558.286C606.476 558.286 619.237 541.792 630.164 534.598C642.568 526.431 665.873 521.517 665.873 521.517" stroke="#CBD8F1" stroke-width="8" stroke-linecap="round"/>
<path id="Vector 8" d="M711.834 436.664C711.834 436.664 698.351 452.464 691.682 463.887C681.767 480.872 673.651 510.91 673.651 510.91" stroke="#CBD8F1" stroke-width="8" stroke-linecap="round"/>
<path id="Vector 9" d="M636.528 441.26C636.528 441.26 652.598 453.249 659.155 463.887C668.365 478.829 669.055 507.728 669.055 507.728" stroke="#CBD8F1" stroke-width="8" stroke-linecap="round"/>
<path id="Vector" d="M796.687 319.284C805.357 304.156 806.887 299.973 814.118 296.405C834.876 286.153 852.585 295.164 887.39 285.15C894.833 283.009 900.724 280.665 904.455 279.073C903.113 289.206 900.517 303.118 895.096 319.026C890.977 331.088 893.019 336.162 879.065 354.993C872.759 363.516 863.904 366.958 848.66 378.327" stroke="#CBD8F1" stroke-width="8" stroke-miterlimit="10" stroke-linecap="round" stroke-linejoin="round"/>
<path id="Vector_2" d="M477.621 387.521C462.493 378.851 458.31 377.321 454.741 370.09C444.489 349.332 453.5 331.623 443.487 296.818C441.345 289.375 439.001 283.484 437.41 279.753C447.543 281.095 461.455 283.691 477.363 289.112C489.424 293.231 494.499 291.189 513.33 305.143C521.853 311.449 525.295 320.304 536.664 335.548" stroke="#CBD8F1" stroke-width="8" stroke-miterlimit="10" stroke-linecap="round" stroke-linejoin="round"/>
<path id="Vector_3" d="M870.58 664.706C895.329 681.676 886.55 716.733 896.563 751.538C898.705 758.981 901.048 764.872 902.64 768.603C892.507 767.261 878.595 764.665 862.687 759.244C850.626 755.125 838.763 752.777 826.72 743.213C814.999 733.905 814.755 728.052 803.386 712.808" stroke="#CBD8F1" stroke-width="8" stroke-miterlimit="10" stroke-linecap="round" stroke-linejoin="round"/>
<path id="Vector_4" d="M555.564 696.879C538.593 721.628 509.405 726.11 474.6 736.123C467.157 738.265 461.266 740.609 457.535 742.2C458.877 732.068 451.148 707.838 456.569 691.929C460.688 679.868 466.115 661.877 498.288 643.139" stroke="#CBD8F1" stroke-width="8" stroke-miterlimit="10" stroke-linecap="round" stroke-linejoin="round"/>
<path id="Vector_5" d="M569 630C565.5 664.5 564.828 681.784 585.5 696.583C600.959 707.651 627 692 627 692C627 692 637.26 712.319 660 718C670.612 720.651 688.948 710.525 702.891 696.583C707.101 700.689 719.561 711.906 737.147 714.431C758.148 717.45 772.094 706.035 778.762 700.59C798.5 684.471 799 666 792.5 648" stroke="#CBD8F1" stroke-width="8" stroke-miterlimit="10" stroke-linecap="round" stroke-linejoin="round"/>
<path id="Vector_6" d="M555.5 408C482.5 396 496 434 496 434C490.589 439.711 469.217 447.751 468.079 467.975C466.58 494.671 484.786 508.237 487.781 511.037C483.447 514.921 472.194 526.074 470.071 543.519C467.894 561.351 471.877 577.843 478.739 588.651C486.02 600.123 501.626 614.472 522.903 621.024C552.199 630.05 567.747 620.454 571 618" stroke="#CBD8F1" stroke-width="8" stroke-miterlimit="10" stroke-linecap="round" stroke-linejoin="round"/>
<path id="Vector_7" d="M783.746 406.144C786.011 397.991 793.016 368.948 777.423 340.969C761.957 313.218 725.592 288.902 693.813 300.409C673.268 307.849 663.252 327.151 660.012 334.21C651.179 329.214 646.356 316.742 621.983 309.645C579.714 302.549 568.915 330.008 563.671 354.382C535.594 364.564 546.898 385.55 563.72 408.565C592.681 437.526 562.561 407.406 591.522 436.367" stroke="#CBD8F1" stroke-width="8" stroke-miterlimit="10" stroke-linecap="round" stroke-linejoin="round"/>
<path id="Vector_8" d="M774.453 415.437C799.028 390.862 841.674 403.016 865 415.437C867.713 416.876 887.876 431.341 887.133 467.682C886.623 492.955 860.852 511.223 857.212 514.5C862.008 522.987 875.095 522.636 879.189 547.474C882.881 569.873 852 590.5 852 590.5C852 590.5 866.265 613.5 852 632C837.735 650.5 810.281 642.724 792.5 639" stroke="#CBD8F1" stroke-width="8" stroke-miterlimit="10" stroke-linecap="round" stroke-linejoin="round"/>
<path id="Vector_9" d="M587.03 604.602C575.009 616.622 558.066 637.809 555.944 666.093C553.823 694.378 557.028 716.514 580.666 732.588C598.344 744.609 616.5 729.508 616.5 729.508C616.5 729.508 621.298 747.111 648.195 752.034C660.747 754.331 680.541 750.547 698.5 732.588C703.223 737.176 713.599 746.55 734.557 748.108C759.584 749.973 777.336 735.056 785.821 727.939C791.143 723.465 809.868 707.747 814.037 685.727C816.817 671.047 802.02 653.422 793.859 645.26" stroke="#CBD8F1" stroke-width="8" stroke-miterlimit="10" stroke-linecap="round" stroke-linejoin="round"/>
<path id="Vector_10" d="M626.982 475.555C593.394 441.967 558.368 385.727 497.22 385.996C463.326 386.145 463.228 419.988 463.228 419.988C456.825 426.738 435.527 438.442 433.941 462.12C431.853 493.375 452.985 509.02 456.455 512.259C451.335 516.859 438.028 530.05 435.325 550.488C432.555 571.38 437.008 590.627 444.902 603.188C453.277 616.519 471.357 633.113 496.171 640.512C530.336 650.706 560.197 628.787 564.035 625.875C590.696 599.213 606.874 583.036 633.545 556.364" stroke="#CBD8F1" stroke-width="8" stroke-miterlimit="10" stroke-linecap="round" stroke-linejoin="round"/>
<path id="Vector_11" d="M799.977 389.913C802.572 380.571 810.599 347.289 792.731 315.228C775.008 283.426 733.336 255.562 696.92 268.748C673.376 277.274 661.9 299.392 658.187 307.482C648.065 301.757 642.538 287.464 614.607 279.333C566.17 271.201 553.796 302.667 547.786 330.598C515.612 342.265 528.566 366.314 547.842 392.687C581.029 425.875 546.515 391.36 579.702 424.547" stroke="#CBD8F1" stroke-width="8" stroke-miterlimit="10" stroke-linecap="round" stroke-linejoin="round"/>
<path id="Vector_12" d="M712.188 478.029C745.561 444.657 758.553 431.337 791.926 397.964C820.565 369.325 853.023 377.775 880.207 392.251C883.369 393.927 924.106 416.499 923.241 458.851C922.647 488.303 902.331 507.347 898.088 511.166C903.678 521.056 909.212 522.892 913.984 551.839C918.286 577.942 888.372 601.18 888.372 601.18C888.372 601.18 903.385 622.557 886.76 644.116C870.136 665.676 846.671 674.619 825.949 670.279C806.329 666.17 780.694 628.56 780.694 628.56C780.694 628.56 747.19 583.742 725.27 569.6" stroke="#CBD8F1" stroke-width="8" stroke-miterlimit="10" stroke-linecap="round" stroke-linejoin="round"/>
</g>
<path id="draw-line rgb-template" d="M805.5 380.5C805.5 380.5 818.631 348.575 833.5 333C849.022 316.741 882 302 882 302" stroke="#6685D4" stroke-width="8" stroke-linecap="round"/>
<path id="draw-line rgb-template_2" d="M819 670.5C820.2 672.1 844.167 693.5 856 704C867.833 714.5 878 743.5 878 743.5" stroke="#6685D4" stroke-width="8" stroke-linecap="round"/>
<path id="draw-line rgb-template_3" d="M561.5 630C561.5 630 540.502 661.257 523 677.5C508.142 691.289 481 708 481 708" stroke="#6685D4" stroke-width="8" stroke-linecap="round"/>
<path id="draw-line rgb-template_4" d="M466 307C466 307 488.452 325.058 501 338.5C519.231 358.03 541 394 541 394" stroke="#6685D4" stroke-width="8" stroke-linecap="round"/>
</g>
</g>
<g id="step s-multistep-brush_2">
<g id="input_3">
<g id="ref_2">
<path id="d_4" d="M871.708 318.182L474.436 715.454" stroke="#CBD8F1" stroke-width="8" stroke-miterlimit="10" stroke-linecap="round" stroke-linejoin="round"/>
<path id="d_5" d="M481.256 325.002L871.962 724.809" stroke="#CBD8F1" stroke-width="8" stroke-miterlimit="10" stroke-linecap="round" stroke-linejoin="round"/>
<path id="d_6" d="M514.994 351.026C425.527 440.493 425.501 585.521 514.935 674.955C604.369 764.389 749.397 764.363 838.864 674.896C928.331 585.429 928.357 440.401 838.923 350.967C749.823 261.867 605.545 261.56 516 350.026" stroke="#CBD8F1" stroke-width="8" stroke-miterlimit="10" stroke-linecap="round" stroke-linejoin="round"/>
</g>
<g id="ref g-template_2">
<path id="Vector_13" d="M796.687 319.284C805.357 304.156 806.887 299.973 814.118 296.405C834.876 286.153 852.585 295.164 887.39 285.15C894.833 283.009 900.724 280.665 904.455 279.073C903.113 289.206 900.517 303.118 895.096 319.026C890.977 331.088 893.019 336.162 879.065 354.993C872.759 363.516 863.904 366.958 848.66 378.327" stroke="#CBD8F1" stroke-width="8" stroke-miterlimit="10" stroke-linecap="round" stroke-linejoin="round"/>
<path id="Vector_14" d="M477.621 387.521C462.493 378.851 458.31 377.321 454.741 370.09C444.489 349.332 453.5 331.623 443.487 296.818C441.345 289.375 439.001 283.484 437.41 279.753C447.543 281.095 461.455 283.691 477.363 289.112C489.424 293.231 494.499 291.189 513.33 305.143C521.853 311.449 525.295 320.304 536.664 335.548" stroke="#CBD8F1" stroke-width="8" stroke-miterlimit="10" stroke-linecap="round" stroke-linejoin="round"/>
<path id="Vector_15" d="M870.58 664.706C895.329 681.676 886.55 716.733 896.563 751.538C898.705 758.981 901.048 764.872 902.64 768.603C892.507 767.261 878.595 764.665 862.687 759.244C850.626 755.125 838.763 752.777 826.72 743.213C814.999 733.905 814.755 728.052 803.386 712.808" stroke="#CBD8F1" stroke-width="8" stroke-miterlimit="10" stroke-linecap="round" stroke-linejoin="round"/>
<path id="Vector_16" d="M555.564 696.879C538.593 721.628 509.405 726.11 474.6 736.123C467.157 738.265 461.266 740.609 457.535 742.2C458.877 732.068 451.148 707.838 456.569 691.929C460.688 679.868 466.115 661.877 498.288 643.139" stroke="#CBD8F1" stroke-width="8" stroke-miterlimit="10" stroke-linecap="round" stroke-linejoin="round"/>
<path id="Vector_17" d="M569 630C565.5 664.5 564.828 681.784 585.5 696.583C600.959 707.651 627 692 627 692C627 692 637.26 712.319 660 718C670.612 720.651 688.948 710.525 702.891 696.583C707.101 700.689 719.561 711.906 737.147 714.431C758.148 717.45 772.094 706.035 778.762 700.59C798.5 684.471 799 666 792.5 648" stroke="#CBD8F1" stroke-width="8" stroke-miterlimit="10" stroke-linecap="round" stroke-linejoin="round"/>
<path id="Vector_18" d="M555.5 408C482.5 396 496 434 496 434C490.589 439.711 469.217 447.751 468.079 467.975C466.58 494.671 484.786 508.237 487.781 511.037C483.447 514.921 472.194 526.074 470.071 543.519C467.894 561.351 471.877 577.843 478.739 588.651C486.02 600.123 501.626 614.472 522.903 621.024C552.199 630.05 567.747 620.454 571 618" stroke="#CBD8F1" stroke-width="8" stroke-miterlimit="10" stroke-linecap="round" stroke-linejoin="round"/>
<path id="Vector_19" d="M783.746 406.144C786.011 397.991 793.016 368.948 777.423 340.969C761.957 313.218 725.592 288.902 693.813 300.409C673.268 307.849 663.252 327.151 660.012 334.21C651.179 329.214 646.356 316.742 621.983 309.645C579.714 302.549 568.915 330.008 563.671 354.382C535.594 364.564 546.898 385.55 563.72 408.565C592.681 437.526 562.561 407.406 591.522 436.367" stroke="#CBD8F1" stroke-width="8" stroke-miterlimit="10" stroke-linecap="round" stroke-linejoin="round"/>
<path id="Vector_20" d="M774.453 415.437C799.028 390.862 841.674 403.016 865 415.437C867.713 416.876 887.876 431.341 887.133 467.682C886.623 492.955 860.852 511.223 857.212 514.5C862.008 522.987 875.095 522.636 879.189 547.474C882.881 569.873 852 590.5 852 590.5C852 590.5 866.265 613.5 852 632C837.735 650.5 810.281 642.724 792.5 639" stroke="#CBD8F1" stroke-width="8" stroke-miterlimit="10" stroke-linecap="round" stroke-linejoin="round"/>
<path id="Vector_21" d="M587.03 604.602C575.009 616.622 558.066 637.809 555.944 666.093C553.823 694.378 557.028 716.514 580.666 732.588C598.344 744.609 616.5 729.508 616.5 729.508C616.5 729.508 621.298 747.111 648.195 752.034C660.747 754.331 680.541 750.547 698.5 732.588C703.223 737.176 713.599 746.55 734.557 748.108C759.584 749.973 777.336 735.056 785.821 727.939C791.143 723.465 809.868 707.747 814.037 685.727C816.817 671.047 802.02 653.422 793.859 645.26" stroke="#CBD8F1" stroke-width="8" stroke-miterlimit="10" stroke-linecap="round" stroke-linejoin="round"/>
<path id="Vector_22" d="M626.982 475.555C593.394 441.967 558.368 385.727 497.22 385.996C463.326 386.145 463.228 419.988 463.228 419.988C456.825 426.738 435.527 438.442 433.941 462.12C431.853 493.375 452.985 509.02 456.455 512.259C451.335 516.859 438.028 530.05 435.325 550.488C432.555 571.38 437.008 590.627 444.902 603.188C453.277 616.519 471.357 633.113 496.171 640.512C530.336 650.706 560.197 628.787 564.035 625.875C590.696 599.213 606.874 583.036 633.545 556.364" stroke="#CBD8F1" stroke-width="8" stroke-miterlimit="10" stroke-linecap="round" stroke-linejoin="round"/>
<path id="Vector_23" d="M799.977 389.913C802.572 380.571 810.599 347.289 792.731 315.228C775.008 283.426 733.336 255.562 696.92 268.748C673.376 277.274 661.9 299.392 658.187 307.482C648.065 301.757 642.538 287.464 614.607 279.333C566.17 271.201 553.796 302.667 547.786 330.598C515.612 342.265 528.566 366.314 547.842 392.687C581.029 425.875 546.515 391.36 579.702 424.547" stroke="#CBD8F1" stroke-width="8" stroke-miterlimit="10" stroke-linecap="round" stroke-linejoin="round"/>
<path id="Vector_24" d="M712.188 478.029C745.561 444.657 758.553 431.337 791.926 397.964C820.565 369.325 853.023 377.775 880.207 392.251C883.369 393.927 924.106 416.499 923.241 458.851C922.647 488.303 902.331 507.347 898.088 511.166C903.678 521.056 909.212 522.892 913.984 551.839C918.286 577.942 888.372 601.18 888.372 601.18C888.372 601.18 903.385 622.557 886.76 644.116C870.136 665.676 846.671 674.619 825.949 670.279C806.329 666.17 780.694 628.56 780.694 628.56C780.694 628.56 747.19 583.742 725.27 569.6" stroke="#CBD8F1" stroke-width="8" stroke-miterlimit="10" stroke-linecap="round" stroke-linejoin="round"/>
</g>
<path id="draw-line rgb-template_5" d="M755.675 493.939C755.675 493.939 737.215 496.479 725.623 499.243C706 503.922 676.833 516.213 676.833 516.213" stroke="#6685D4" stroke-width="8" stroke-linecap="round"/>
<path id="draw-line rgb-template_6" d="M761.332 538.487C761.332 538.487 744.223 537.684 733.401 536.012C709.575 532.333 674.358 517.981 674.358 517.981" stroke="#6685D4" stroke-width="8" stroke-linecap="round"/>
<path id="draw-line rgb-template_7" d="M581.373 460.352C581.373 460.352 602.45 478.85 617.436 488.636C636.358 500.993 669.055 514.799 669.055 514.799" stroke="#6685D4" stroke-width="8" stroke-linecap="round"/>
<path id="draw-line rgb-template_8" d="M589.505 504.546L668.701 517.981" stroke="#6685D4" stroke-width="8" stroke-linecap="round"/>
<path id="draw-line rgb-template_9" d="M721.027 604.955C721.027 604.955 704.89 587.564 696.632 574.903C684.308 556.01 672.944 522.224 672.944 522.224" stroke="#6685D4" stroke-width="8" stroke-linecap="round"/>
<path id="draw-line rgb-template_10" d="M639.356 591.167C639.356 591.167 652.458 574.336 658.448 562.175C666.168 546.503 671.529 519.395 671.529 519.395" stroke="#6685D4" stroke-width="8" stroke-linecap="round"/>
<path id="draw-line rgb-template_11" d="M606.476 558.286C606.476 558.286 619.237 541.792 630.164 534.598C642.568 526.431 665.873 521.517 665.873 521.517" stroke="#6685D4" stroke-width="8" stroke-linecap="round"/>
<path id="draw-line rgb-template_12" d="M711.834 436.664C711.834 436.664 698.351 452.464 691.682 463.887C681.767 480.872 673.651 510.91 673.651 510.91" stroke="#6685D4" stroke-width="8" stroke-linecap="round"/>
<path id="draw-line rgb-template_13" d="M636.528 441.26C636.528 441.26 652.598 453.249 659.155 463.887C668.365 478.829 669.055 507.728 669.055 507.728" stroke="#6685D4" stroke-width="8" stroke-linecap="round"/>
</g>
</g>
<g id="step s-multistep-brush_3">
<g id="input_4">
<g id="ref_3">
<path id="d_7" d="M871.708 318.182L474.436 715.454" stroke="#CBD8F1" stroke-width="8" stroke-miterlimit="10" stroke-linecap="round" stroke-linejoin="round"/>
<path id="d_8" d="M481.256 325.002L871.962 724.809" stroke="#CBD8F1" stroke-width="8" stroke-miterlimit="10" stroke-linecap="round" stroke-linejoin="round"/>
<path id="d_9" d="M514.994 351.026C425.527 440.493 425.501 585.521 514.935 674.955C604.369 764.389 749.397 764.363 838.864 674.896C928.331 585.429 928.357 440.401 838.923 350.967C749.823 261.867 605.545 261.56 516 350.026" stroke="#CBD8F1" stroke-width="8" stroke-miterlimit="10" stroke-linecap="round" stroke-linejoin="round"/>
</g>
<g id="ref g-template_3">
<path id="Vector_25" d="M569 630C565.5 664.5 564.828 681.784 585.5 696.583C600.959 707.651 627 692 627 692C627 692 637.26 712.319 660 718C670.612 720.651 688.948 710.525 702.891 696.583C707.101 700.689 719.561 711.906 737.147 714.431C758.148 717.45 772.094 706.035 778.762 700.59C798.5 684.471 799 666 792.5 648" stroke="#CBD8F1" stroke-width="8" stroke-miterlimit="10" stroke-linecap="round" stroke-linejoin="round"/>
<path id="Vector_26" d="M555.5 408C482.5 396 496 434 496 434C490.589 439.711 469.217 447.751 468.079 467.975C466.58 494.671 484.786 508.237 487.781 511.037C483.447 514.921 472.194 526.074 470.071 543.519C467.894 561.351 471.877 577.843 478.739 588.651C486.02 600.123 501.626 614.472 522.903 621.024C552.199 630.05 567.747 620.454 571 618" stroke="#CBD8F1" stroke-width="8" stroke-miterlimit="10" stroke-linecap="round" stroke-linejoin="round"/>
<path id="Vector_27" d="M783.746 406.144C786.011 397.991 793.016 368.948 777.423 340.969C761.957 313.218 725.592 288.902 693.813 300.409C673.268 307.849 663.252 327.151 660.012 334.21C651.179 329.214 646.356 316.742 621.983 309.645C579.714 302.549 568.915 330.008 563.671 354.382C535.594 364.564 546.898 385.55 563.72 408.565C592.681 437.526 562.561 407.406 591.522 436.367" stroke="#CBD8F1" stroke-width="8" stroke-miterlimit="10" stroke-linecap="round" stroke-linejoin="round"/>
<path id="Vector_28" d="M774.453 415.437C799.028 390.862 841.674 403.016 865 415.437C867.713 416.876 887.876 431.341 887.133 467.682C886.623 492.955 860.852 511.223 857.212 514.5C862.008 522.987 875.095 522.636 879.189 547.474C882.881 569.873 852 590.5 852 590.5C852 590.5 866.265 613.5 852 632C837.735 650.5 810.281 642.724 792.5 639" stroke="#CBD8F1" stroke-width="8" stroke-miterlimit="10" stroke-linecap="round" stroke-linejoin="round"/>
<path id="Vector_29" d="M587.03 604.602C575.009 616.622 558.066 637.809 555.944 666.093C553.823 694.378 557.028 716.514 580.666 732.588C598.344 744.609 616.5 729.508 616.5 729.508C616.5 729.508 621.298 747.111 648.195 752.034C660.747 754.331 680.541 750.547 698.5 732.588C703.223 737.176 713.599 746.55 734.557 748.108C759.584 749.973 777.336 735.056 785.821 727.939C791.143 723.465 809.868 707.747 814.037 685.727C816.817 671.047 802.02 653.422 793.859 645.26" stroke="#CBD8F1" stroke-width="8" stroke-miterlimit="10" stroke-linecap="round" stroke-linejoin="round"/>
<path id="Vector_30" d="M626.982 475.555C593.394 441.967 558.368 385.727 497.22 385.996C463.326 386.145 463.228 419.988 463.228 419.988C456.825 426.738 435.527 438.442 433.941 462.12C431.853 493.375 452.985 509.02 456.455 512.259C451.335 516.859 438.028 530.05 435.325 550.488C432.555 571.38 437.008 590.627 444.902 603.188C453.277 616.519 471.357 633.113 496.171 640.512C530.336 650.706 560.197 628.787 564.035 625.875C590.696 599.213 606.874 583.036 633.545 556.364" stroke="#CBD8F1" stroke-width="8" stroke-miterlimit="10" stroke-linecap="round" stroke-linejoin="round"/>
<path id="Vector_31" d="M799.977 389.913C802.572 380.571 810.599 347.289 792.731 315.228C775.008 283.426 733.336 255.562 696.92 268.748C673.376 277.274 661.9 299.392 658.187 307.482C648.065 301.757 642.538 287.464 614.607 279.333C566.17 271.201 553.796 302.667 547.786 330.598C515.612 342.265 528.566 366.314 547.842 392.687C581.029 425.875 546.515 391.36 579.702 424.547" stroke="#CBD8F1" stroke-width="8" stroke-miterlimit="10" stroke-linecap="round" stroke-linejoin="round"/>
<path id="Vector_32" d="M712.188 478.029C745.561 444.657 758.553 431.337 791.926 397.964C820.565 369.325 853.023 377.775 880.207 392.251C883.369 393.927 924.106 416.499 923.241 458.851C922.647 488.303 902.331 507.347 898.088 511.166C903.678 521.056 909.212 522.892 913.984 551.839C918.286 577.942 888.372 601.18 888.372 601.18C888.372 601.18 903.385 622.557 886.76 644.116C870.136 665.676 846.671 674.619 825.949 670.279C806.329 666.17 780.694 628.56 780.694 628.56C780.694 628.56 747.19 583.742 725.27 569.6" stroke="#CBD8F1" stroke-width="8" stroke-miterlimit="10" stroke-linecap="round" stroke-linejoin="round"/>
</g>
<path id="draw-line rgb-template_14" d="M796.687 319.284C805.357 304.156 806.887 299.973 814.118 296.405C834.876 286.153 852.585 295.164 887.39 285.15C894.833 283.009 900.724 280.665 904.455 279.073C903.113 289.206 900.517 303.118 895.096 319.026C890.977 331.088 893.019 336.162 879.065 354.993C872.759 363.516 863.904 366.958 848.66 378.327" stroke="#6685D4" stroke-width="8" stroke-miterlimit="10" stroke-linecap="round" stroke-linejoin="round"/>
<path id="draw-line rgb-template_15" d="M477.621 387.521C462.493 378.851 458.31 377.321 454.741 370.09C444.489 349.332 453.5 331.623 443.487 296.818C441.345 289.375 439.001 283.484 437.41 279.753C447.543 281.095 461.455 283.691 477.363 289.112C489.424 293.231 494.499 291.189 513.33 305.143C521.853 311.449 525.295 320.304 536.664 335.548" stroke="#6685D4" stroke-width="8" stroke-miterlimit="10" stroke-linecap="round" stroke-linejoin="round"/>
<path id="draw-line rgb-template_16" d="M870.58 664.706C895.329 681.676 886.55 716.733 896.563 751.538C898.705 758.981 901.048 764.872 902.64 768.603C892.507 767.261 878.595 764.665 862.687 759.244C850.626 755.125 838.763 752.777 826.72 743.213C814.999 733.905 814.755 728.052 803.386 712.808" stroke="#6685D4" stroke-width="8" stroke-miterlimit="10" stroke-linecap="round" stroke-linejoin="round"/>
<path id="draw-line rgb-template_17" d="M555.564 696.879C538.593 721.628 509.405 726.11 474.6 736.123C467.157 738.265 461.266 740.609 457.535 742.2C458.877 732.068 451.148 707.838 456.569 691.929C460.688 679.868 466.115 661.877 498.288 643.139" stroke="#6685D4" stroke-width="8" stroke-miterlimit="10" stroke-linecap="round" stroke-linejoin="round"/>
</g>
</g>
<g id="step s-multistep-brush_4">
<g id="input_5">
<g id="ref_4">
<path id="d_10" d="M871.708 318.182L474.436 715.454" stroke="#CBD8F1" stroke-width="8" stroke-miterlimit="10" stroke-linecap="round" stroke-linejoin="round"/>
<path id="d_11" d="M481.256 325.002L871.962 724.809" stroke="#CBD8F1" stroke-width="8" stroke-miterlimit="10" stroke-linecap="round" stroke-linejoin="round"/>
<path id="d_12" d="M514.994 351.026C425.527 440.493 425.501 585.521 514.935 674.955C604.369 764.389 749.397 764.363 838.864 674.896C928.331 585.429 928.357 440.401 838.923 350.967C749.823 261.867 605.545 261.56 516 350.026" stroke="#CBD8F1" stroke-width="8" stroke-miterlimit="10" stroke-linecap="round" stroke-linejoin="round"/>
</g>
<g id="ref g-template_4">
<path id="Vector_33" d="M555.5 408C482.5 396 496 434 496 434C490.589 439.711 469.217 447.751 468.079 467.975C466.58 494.671 484.786 508.237 487.781 511.037C483.447 514.921 472.194 526.074 470.071 543.519C467.894 561.351 471.877 577.843 478.739 588.651C486.02 600.123 501.626 614.472 522.903 621.024C552.199 630.05 567.747 620.454 571 618" stroke="#CBD8F1" stroke-width="8" stroke-miterlimit="10" stroke-linecap="round" stroke-linejoin="round"/>
<path id="Vector_34" d="M783.746 406.144C786.011 397.991 793.016 368.948 777.423 340.969C761.957 313.218 725.592 288.902 693.813 300.409C673.268 307.849 663.252 327.151 660.012 334.21C651.179 329.214 646.356 316.742 621.983 309.645C579.714 302.549 568.915 330.008 563.671 354.382C535.594 364.564 546.898 385.55 563.72 408.565C592.681 437.526 562.561 407.406 591.522 436.367" stroke="#CBD8F1" stroke-width="8" stroke-miterlimit="10" stroke-linecap="round" stroke-linejoin="round"/>
<path id="Vector_35" d="M774.453 415.437C799.028 390.862 841.674 403.016 865 415.437C867.713 416.876 887.876 431.341 887.133 467.682C886.623 492.955 860.852 511.223 857.212 514.5C862.008 522.987 875.095 522.636 879.189 547.474C882.881 569.873 852 590.5 852 590.5C852 590.5 866.265 613.5 852 632C837.735 650.5 810.281 642.724 792.5 639" stroke="#CBD8F1" stroke-width="8" stroke-miterlimit="10" stroke-linecap="round" stroke-linejoin="round"/>
<path id="Vector_36" d="M587.03 604.602C575.009 616.622 558.066 637.809 555.944 666.093C553.823 694.378 557.028 716.514 580.666 732.588C598.344 744.609 616.5 729.508 616.5 729.508C616.5 729.508 621.298 747.111 648.195 752.034C660.747 754.331 680.541 750.547 698.5 732.588C703.223 737.176 713.599 746.55 734.557 748.108C759.584 749.973 777.336 735.056 785.821 727.939C791.143 723.465 809.868 707.747 814.037 685.727C816.817 671.047 802.02 653.422 793.859 645.26" stroke="#CBD8F1" stroke-width="8" stroke-miterlimit="10" stroke-linecap="round" stroke-linejoin="round"/>
<path id="Vector_37" d="M626.982 475.555C593.394 441.967 558.368 385.727 497.22 385.996C463.326 386.145 463.228 419.988 463.228 419.988C456.825 426.738 435.527 438.442 433.941 462.12C431.853 493.375 452.985 509.02 456.455 512.259C451.335 516.859 438.028 530.05 435.325 550.488C432.555 571.38 437.008 590.627 444.902 603.188C453.277 616.519 471.357 633.113 496.171 640.512C530.336 650.706 560.197 628.787 564.035 625.875C590.696 599.213 606.874 583.036 633.545 556.364" stroke="#CBD8F1" stroke-width="8" stroke-miterlimit="10" stroke-linecap="round" stroke-linejoin="round"/>
<path id="Vector_38" d="M799.977 389.913C802.572 380.571 810.599 347.289 792.731 315.228C775.008 283.426 733.336 255.562 696.92 268.748C673.376 277.274 661.9 299.392 658.187 307.482C648.065 301.757 642.538 287.464 614.607 279.333C566.17 271.201 553.796 302.667 547.786 330.598C515.612 342.265 528.566 366.314 547.842 392.687C581.029 425.875 546.515 391.36 579.702 424.547" stroke="#CBD8F1" stroke-width="8" stroke-miterlimit="10" stroke-linecap="round" stroke-linejoin="round"/>
<path id="Vector_39" d="M712.188 478.029C745.561 444.657 758.553 431.337 791.926 397.964C820.565 369.325 853.023 377.775 880.207 392.251C883.369 393.927 924.106 416.499 923.241 458.851C922.647 488.303 902.331 507.347 898.088 511.166C903.678 521.056 909.212 522.892 913.984 551.839C918.286 577.942 888.372 601.18 888.372 601.18C888.372 601.18 903.385 622.557 886.76 644.116C870.136 665.676 846.671 674.619 825.949 670.279C806.329 666.17 780.694 628.56 780.694 628.56C780.694 628.56 747.19 583.742 725.27 569.6" stroke="#CBD8F1" stroke-width="8" stroke-miterlimit="10" stroke-linecap="round" stroke-linejoin="round"/>
</g>
<path id="draw-line rgb-template_18" d="M569 630C565.5 664.5 564.828 681.784 585.5 696.583C600.959 707.651 627 692 627 692C627 692 637.26 712.319 660 718C670.612 720.651 688.948 710.525 702.891 696.583C707.101 700.689 719.561 711.906 737.147 714.431C758.148 717.45 772.094 706.035 778.762 700.59C798.5 684.471 799 666 792.5 648" stroke="#6685D4" stroke-width="8" stroke-miterlimit="10" stroke-linecap="round" stroke-linejoin="round"/>
</g>
</g>
<g id="step s-multistep-brush_5">
<g id="input_6">
<g id="ref_5">
<path id="d_13" d="M871.708 318.182L474.436 715.454" stroke="#CBD8F1" stroke-width="8" stroke-miterlimit="10" stroke-linecap="round" stroke-linejoin="round"/>
<path id="d_14" d="M481.256 325.002L871.962 724.809" stroke="#CBD8F1" stroke-width="8" stroke-miterlimit="10" stroke-linecap="round" stroke-linejoin="round"/>
<path id="d_15" d="M514.994 351.026C425.527 440.493 425.501 585.521 514.935 674.955C604.369 764.389 749.397 764.363 838.864 674.896C928.331 585.429 928.357 440.401 838.923 350.967C749.823 261.867 605.545 261.56 516 350.026" stroke="#CBD8F1" stroke-width="8" stroke-miterlimit="10" stroke-linecap="round" stroke-linejoin="round"/>
</g>
<g id="ref g-template_5">
<path id="Vector_40" d="M783.746 406.144C786.011 397.991 793.016 368.948 777.423 340.969C761.957 313.218 725.592 288.902 693.813 300.409C673.268 307.849 663.252 327.151 660.012 334.21C651.179 329.214 646.356 316.742 621.983 309.645C579.714 302.549 568.915 330.008 563.671 354.382C535.594 364.564 546.898 385.55 563.72 408.565C592.681 437.526 562.561 407.406 591.522 436.367" stroke="#CBD8F1" stroke-width="8" stroke-miterlimit="10" stroke-linecap="round" stroke-linejoin="round"/>
<path id="Vector_41" d="M774.453 415.437C799.028 390.862 841.674 403.016 865 415.437C867.713 416.876 887.876 431.341 887.133 467.682C886.623 492.955 860.852 511.223 857.212 514.5C862.008 522.987 875.095 522.636 879.189 547.474C882.881 569.873 852 590.5 852 590.5C852 590.5 866.265 613.5 852 632C837.735 650.5 810.281 642.724 792.5 639" stroke="#CBD8F1" stroke-width="8" stroke-miterlimit="10" stroke-linecap="round" stroke-linejoin="round"/>
<path id="Vector_42" d="M587.03 604.602C575.009 616.622 558.066 637.809 555.944 666.093C553.823 694.378 557.028 716.514 580.666 732.588C598.344 744.609 616.5 729.508 616.5 729.508C616.5 729.508 621.298 747.111 648.195 752.034C660.747 754.331 680.541 750.547 698.5 732.588C703.223 737.176 713.599 746.55 734.557 748.108C759.584 749.973 777.336 735.056 785.821 727.939C791.143 723.465 809.868 707.747 814.037 685.727C816.817 671.047 802.02 653.422 793.859 645.26" stroke="#CBD8F1" stroke-width="8" stroke-miterlimit="10" stroke-linecap="round" stroke-linejoin="round"/>
<path id="Vector_43" d="M626.982 475.555C593.394 441.967 558.368 385.727 497.22 385.996C463.326 386.145 463.228 419.988 463.228 419.988C456.825 426.738 435.527 438.442 433.941 462.12C431.853 493.375 452.985 509.02 456.455 512.259C451.335 516.859 438.028 530.05 435.325 550.488C432.555 571.38 437.008 590.627 444.902 603.188C453.277 616.519 471.357 633.113 496.171 640.512C530.336 650.706 560.197 628.787 564.035 625.875C590.696 599.213 606.874 583.036 633.545 556.364" stroke="#CBD8F1" stroke-width="8" stroke-miterlimit="10" stroke-linecap="round" stroke-linejoin="round"/>
<path id="Vector_44" d="M799.977 389.913C802.572 380.571 810.599 347.289 792.731 315.228C775.008 283.426 733.336 255.562 696.92 268.748C673.376 277.274 661.9 299.392 658.187 307.482C648.065 301.757 642.538 287.464 614.607 279.333C566.17 271.201 553.796 302.667 547.786 330.598C515.612 342.265 528.566 366.314 547.842 392.687C581.029 425.875 546.515 391.36 579.702 424.547" stroke="#CBD8F1" stroke-width="8" stroke-miterlimit="10" stroke-linecap="round" stroke-linejoin="round"/>
<path id="Vector_45" d="M712.188 478.029C745.561 444.657 758.553 431.337 791.926 397.964C820.565 369.325 853.023 377.775 880.207 392.251C883.369 393.927 924.106 416.499 923.241 458.851C922.647 488.303 902.331 507.347 898.088 511.166C903.678 521.056 909.212 522.892 913.984 551.839C918.286 577.942 888.372 601.18 888.372 601.18C888.372 601.18 903.385 622.557 886.76 644.116C870.136 665.676 846.671 674.619 825.949 670.279C806.329 666.17 780.694 628.56 780.694 628.56C780.694 628.56 747.19 583.742 725.27 569.6" stroke="#CBD8F1" stroke-width="8" stroke-miterlimit="10" stroke-linecap="round" stroke-linejoin="round"/>
</g>
<path id="draw-line rgb-template_19" d="M555.5 408C482.5 396 496 434 496 434C490.589 439.711 469.217 447.751 468.079 467.975C466.58 494.671 484.786 508.237 487.781 511.037C483.447 514.921 472.194 526.074 470.071 543.519C467.894 561.351 471.877 577.843 478.739 588.651C486.02 600.123 501.626 614.472 522.903 621.024C552.199 630.05 567.747 620.454 571 618" stroke="#6685D4" stroke-width="8" stroke-miterlimit="10" stroke-linecap="round" stroke-linejoin="round"/>
</g>
</g>
<g id="step s-multistep-brush_6">
<g id="input_7">
<g id="ref_6">
<path id="d_16" d="M871.708 318.182L474.436 715.454" stroke="#CBD8F1" stroke-width="8" stroke-miterlimit="10" stroke-linecap="round" stroke-linejoin="round"/>
<path id="d_17" d="M481.256 325.002L871.962 724.809" stroke="#CBD8F1" stroke-width="8" stroke-miterlimit="10" stroke-linecap="round" stroke-linejoin="round"/>
<path id="d_18" d="M514.994 351.026C425.527 440.493 425.501 585.521 514.935 674.955C604.369 764.389 749.397 764.363 838.864 674.896C928.331 585.429 928.357 440.401 838.923 350.967C749.823 261.867 605.545 261.56 516 350.026" stroke="#CBD8F1" stroke-width="8" stroke-miterlimit="10" stroke-linecap="round" stroke-linejoin="round"/>
</g>
<g id="ref g-template_6">
<path id="Vector_46" d="M774.453 415.437C799.028 390.862 841.674 403.016 865 415.437C867.713 416.876 887.876 431.341 887.133 467.682C886.623 492.955 860.852 511.223 857.212 514.5C862.008 522.987 875.095 522.636 879.189 547.474C882.881 569.873 852 590.5 852 590.5C852 590.5 866.265 613.5 852 632C837.735 650.5 810.281 642.724 792.5 639" stroke="#CBD8F1" stroke-width="8" stroke-miterlimit="10" stroke-linecap="round" stroke-linejoin="round"/>
<path id="Vector_47" d="M587.03 604.602C575.009 616.622 558.066 637.809 555.944 666.093C553.823 694.378 557.028 716.514 580.666 732.588C598.344 744.609 616.5 729.508 616.5 729.508C616.5 729.508 621.298 747.111 648.195 752.034C660.747 754.331 680.541 750.547 698.5 732.588C703.223 737.176 713.599 746.55 734.557 748.108C759.584 749.973 777.336 735.056 785.821 727.939C791.143 723.465 809.868 707.747 814.037 685.727C816.817 671.047 802.02 653.422 793.859 645.26" stroke="#CBD8F1" stroke-width="8" stroke-miterlimit="10" stroke-linecap="round" stroke-linejoin="round"/>
<path id="Vector_48" d="M626.982 475.555C593.394 441.967 558.368 385.727 497.22 385.996C463.326 386.145 463.228 419.988 463.228 419.988C456.825 426.738 435.527 438.442 433.941 462.12C431.853 493.375 452.985 509.02 456.455 512.259C451.335 516.859 438.028 530.05 435.325 550.488C432.555 571.38 437.008 590.627 444.902 603.188C453.277 616.519 471.357 633.113 496.171 640.512C530.336 650.706 560.197 628.787 564.035 625.875C590.696 599.213 606.874 583.036 633.545 556.364" stroke="#CBD8F1" stroke-width="8" stroke-miterlimit="10" stroke-linecap="round" stroke-linejoin="round"/>
<path id="Vector_49" d="M799.977 389.913C802.572 380.571 810.599 347.289 792.731 315.228C775.008 283.426 733.336 255.562 696.92 268.748C673.376 277.274 661.9 299.392 658.187 307.482C648.065 301.757 642.538 287.464 614.607 279.333C566.17 271.201 553.796 302.667 547.786 330.598C515.612 342.265 528.566 366.314 547.842 392.687C581.029 425.875 546.515 391.36 579.702 424.547" stroke="#CBD8F1" stroke-width="8" stroke-miterlimit="10" stroke-linecap="round" stroke-linejoin="round"/>
<path id="Vector_50" d="M712.188 478.029C745.561 444.657 758.553 431.337 791.926 397.964C820.565 369.325 853.023 377.775 880.207 392.251C883.369 393.927 924.106 416.499 923.241 458.851C922.647 488.303 902.331 507.347 898.088 511.166C903.678 521.056 909.212 522.892 913.984 551.839C918.286 577.942 888.372 601.18 888.372 601.18C888.372 601.18 903.385 622.557 886.76 644.116C870.136 665.676 846.671 674.619 825.949 670.279C806.329 666.17 780.694 628.56 780.694 628.56C780.694 628.56 747.19 583.742 725.27 569.6" stroke="#CBD8F1" stroke-width="8" stroke-miterlimit="10" stroke-linecap="round" stroke-linejoin="round"/>
</g>
<path id="draw-line rgb-template_20" d="M783.746 406.144C786.011 397.991 793.016 368.948 777.423 340.969C761.957 313.218 725.592 288.902 693.813 300.409C673.268 307.849 663.252 327.151 660.012 334.21C651.179 329.214 646.356 316.742 621.983 309.645C579.714 302.549 568.915 330.008 563.671 354.382C535.594 364.564 546.898 385.55 563.72 408.565C592.681 437.526 562.561 407.406 591.522 436.367" stroke="#6685D4" stroke-width="8" stroke-miterlimit="10" stroke-linecap="round" stroke-linejoin="round"/>
</g>
</g>
<g id="step s-multistep-brush_7">
<g id="input_8">
<g id="ref_7">
<path id="d_19" d="M871.708 318.182L474.436 715.454" stroke="#CBD8F1" stroke-width="8" stroke-miterlimit="10" stroke-linecap="round" stroke-linejoin="round"/>
<path id="d_20" d="M481.256 325.002L871.962 724.809" stroke="#CBD8F1" stroke-width="8" stroke-miterlimit="10" stroke-linecap="round" stroke-linejoin="round"/>
<path id="d_21" d="M514.994 351.026C425.527 440.493 425.501 585.521 514.935 674.955C604.369 764.389 749.397 764.363 838.864 674.896C928.331 585.429 928.357 440.401 838.923 350.967C749.823 261.867 605.545 261.56 516 350.026" stroke="#CBD8F1" stroke-width="8" stroke-miterlimit="10" stroke-linecap="round" stroke-linejoin="round"/>
</g>
<g id="ref g-template_7">
<path id="Vector_51" d="M587.03 604.602C575.009 616.622 558.066 637.809 555.944 666.093C553.823 694.378 557.028 716.514 580.666 732.588C598.344 744.609 616.5 729.508 616.5 729.508C616.5 729.508 621.298 747.111 648.195 752.034C660.747 754.331 680.541 750.547 698.5 732.588C703.223 737.176 713.599 746.55 734.557 748.108C759.584 749.973 777.336 735.056 785.821 727.939C791.143 723.465 809.868 707.747 814.037 685.727C816.817 671.047 802.02 653.422 793.859 645.26" stroke="#CBD8F1" stroke-width="8" stroke-miterlimit="10" stroke-linecap="round" stroke-linejoin="round"/>
<path id="Vector_52" d="M626.982 475.555C593.394 441.967 558.368 385.727 497.22 385.996C463.326 386.145 463.228 419.988 463.228 419.988C456.825 426.738 435.527 438.442 433.941 462.12C431.853 493.375 452.985 509.02 456.455 512.259C451.335 516.859 438.028 530.05 435.325 550.488C432.555 571.38 437.008 590.627 444.902 603.188C453.277 616.519 471.357 633.113 496.171 640.512C530.336 650.706 560.197 628.787 564.035 625.875C590.696 599.213 606.874 583.036 633.545 556.364" stroke="#CBD8F1" stroke-width="8" stroke-miterlimit="10" stroke-linecap="round" stroke-linejoin="round"/>
<path id="Vector_53" d="M799.977 389.913C802.572 380.571 810.599 347.289 792.731 315.228C775.008 283.426 733.336 255.562 696.92 268.748C673.376 277.274 661.9 299.392 658.187 307.482C648.065 301.757 642.538 287.464 614.607 279.333C566.17 271.201 553.796 302.667 547.786 330.598C515.612 342.265 528.566 366.314 547.842 392.687C581.029 425.875 546.515 391.36 579.702 424.547" stroke="#CBD8F1" stroke-width="8" stroke-miterlimit="10" stroke-linecap="round" stroke-linejoin="round"/>
<path id="Vector_54" d="M712.188 478.029C745.561 444.657 758.553 431.337 791.926 397.964C820.565 369.325 853.023 377.775 880.207 392.251C883.369 393.927 924.106 416.499 923.241 458.851C922.647 488.303 902.331 507.347 898.088 511.166C903.678 521.056 909.212 522.892 913.984 551.839C918.286 577.942 888.372 601.18 888.372 601.18C888.372 601.18 903.385 622.557 886.76 644.116C870.136 665.676 846.671 674.619 825.949 670.279C806.329 666.17 780.694 628.56 780.694 628.56C780.694 628.56 747.19 583.742 725.27 569.6" stroke="#CBD8F1" stroke-width="8" stroke-miterlimit="10" stroke-linecap="round" stroke-linejoin="round"/>
</g>
<path id="draw-line rgb-template_21" d="M774.453 415.437C799.028 390.862 841.674 403.016 865 415.437C867.713 416.876 887.875 431.341 887.133 467.682C886.623 492.955 860.852 511.223 857.212 514.5C862.008 522.987 875.095 522.636 879.189 547.474C882.881 569.873 852 590.5 852 590.5C852 590.5 866.265 613.5 852 632C837.735 650.5 810.281 642.724 792.5 639" stroke="#6685D4" stroke-width="8" stroke-miterlimit="10" stroke-linecap="round" stroke-linejoin="round"/>
</g>
</g>
<g id="step s-multistep-brush_8">
<g id="input_9">
<g id="ref_8">
<path id="d_22" d="M871.708 318.182L474.436 715.454" stroke="#CBD8F1" stroke-width="8" stroke-miterlimit="10" stroke-linecap="round" stroke-linejoin="round"/>
<path id="d_23" d="M481.256 325.002L871.962 724.809" stroke="#CBD8F1" stroke-width="8" stroke-miterlimit="10" stroke-linecap="round" stroke-linejoin="round"/>
<path id="d_24" d="M514.994 351.026C425.527 440.493 425.501 585.521 514.935 674.955C604.369 764.389 749.397 764.363 838.864 674.896C928.331 585.429 928.357 440.401 838.923 350.967C749.823 261.867 605.545 261.56 516 350.026" stroke="#CBD8F1" stroke-width="8" stroke-miterlimit="10" stroke-linecap="round" stroke-linejoin="round"/>
</g>
<g id="ref g-template_8">
<path id="Vector_55" d="M626.982 475.555C593.394 441.967 558.368 385.727 497.22 385.996C463.326 386.145 463.228 419.988 463.228 419.988C456.825 426.738 435.527 438.442 433.941 462.12C431.853 493.375 452.985 509.02 456.455 512.259C451.335 516.859 438.028 530.05 435.325 550.488C432.555 571.38 437.008 590.627 444.902 603.188C453.277 616.519 471.357 633.113 496.171 640.512C530.336 650.706 560.197 628.787 564.035 625.875C590.696 599.213 606.874 583.036 633.545 556.364" stroke="#CBD8F1" stroke-width="8" stroke-miterlimit="10" stroke-linecap="round" stroke-linejoin="round"/>
<path id="Vector_56" d="M799.977 389.913C802.572 380.571 810.599 347.289 792.731 315.228C775.008 283.426 733.336 255.562 696.92 268.748C673.376 277.274 661.9 299.392 658.187 307.482C648.065 301.757 642.538 287.464 614.607 279.333C566.17 271.201 553.796 302.667 547.786 330.598C515.612 342.265 528.566 366.314 547.842 392.687C581.029 425.875 546.515 391.36 579.702 424.547" stroke="#CBD8F1" stroke-width="8" stroke-miterlimit="10" stroke-linecap="round" stroke-linejoin="round"/>
<path id="Vector_57" d="M712.188 478.029C745.561 444.657 758.553 431.337 791.926 397.964C820.565 369.325 853.023 377.775 880.207 392.251C883.369 393.927 924.106 416.499 923.241 458.851C922.647 488.303 902.331 507.347 898.088 511.166C903.678 521.056 909.212 522.892 913.984 551.839C918.286 577.942 888.372 601.18 888.372 601.18C888.372 601.18 903.385 622.557 886.76 644.116C870.136 665.676 846.671 674.619 825.949 670.279C806.329 666.17 780.694 628.56 780.694 628.56C780.694 628.56 747.19 583.742 725.27 569.6" stroke="#CBD8F1" stroke-width="8" stroke-miterlimit="10" stroke-linecap="round" stroke-linejoin="round"/>
</g>
<path id="draw-line rgb-template_22" d="M587.03 604.602C575.009 616.622 558.066 637.809 555.944 666.093C553.823 694.378 557.028 716.514 580.666 732.588C598.344 744.609 616.5 729.508 616.5 729.508C616.5 729.508 621.298 747.111 648.195 752.034C660.747 754.331 680.541 750.547 698.5 732.588C703.223 737.176 713.598 746.55 734.557 748.108C759.584 749.973 777.336 735.056 785.821 727.939C791.143 723.465 809.868 707.747 814.037 685.727C816.817 671.047 802.02 653.422 793.859 645.26" stroke="#6685D4" stroke-width="8" stroke-miterlimit="10" stroke-linecap="round" stroke-linejoin="round"/>
</g>
</g>
<g id="step s-multistep-brush_9">
<g id="input_10">
<g id="ref_9">
<path id="d_25" d="M871.708 318.182L474.436 715.454" stroke="#CBD8F1" stroke-width="8" stroke-miterlimit="10" stroke-linecap="round" stroke-linejoin="round"/>
<path id="d_26" d="M481.256 325.002L871.962 724.809" stroke="#CBD8F1" stroke-width="8" stroke-miterlimit="10" stroke-linecap="round" stroke-linejoin="round"/>
<path id="d_27" d="M514.994 351.026C425.527 440.493 425.501 585.521 514.935 674.955C604.369 764.389 749.397 764.363 838.864 674.896C928.331 585.429 928.357 440.401 838.923 350.967C749.823 261.867 605.545 261.56 516 350.026" stroke="#CBD8F1" stroke-width="8" stroke-miterlimit="10" stroke-linecap="round" stroke-linejoin="round"/>
</g>
<g id="ref g-template_9">
<path id="Vector_58" d="M799.977 389.913C802.572 380.571 810.599 347.289 792.731 315.228C775.008 283.426 733.336 255.562 696.92 268.748C673.376 277.274 661.9 299.392 658.187 307.482C648.065 301.757 642.538 287.464 614.607 279.333C566.17 271.201 553.796 302.667 547.786 330.598C515.612 342.265 528.566 366.314 547.842 392.687C581.029 425.875 546.515 391.36 579.702 424.547" stroke="#CBD8F1" stroke-width="8" stroke-miterlimit="10" stroke-linecap="round" stroke-linejoin="round"/>
<path id="Vector_59" d="M712.188 478.029C745.561 444.657 758.553 431.337 791.926 397.964C820.565 369.325 853.023 377.775 880.207 392.251C883.369 393.927 924.106 416.499 923.241 458.851C922.647 488.303 902.331 507.347 898.088 511.166C903.678 521.056 909.212 522.892 913.984 551.839C918.286 577.942 888.372 601.18 888.372 601.18C888.372 601.18 903.385 622.557 886.76 644.116C870.136 665.676 846.671 674.619 825.949 670.279C806.329 666.17 780.694 628.56 780.694 628.56C780.694 628.56 747.19 583.742 725.27 569.6" stroke="#CBD8F1" stroke-width="8" stroke-miterlimit="10" stroke-linecap="round" stroke-linejoin="round"/>
</g>
<path id="draw-line rgb-template_23" d="M626.982 475.555C593.394 441.967 558.368 385.727 497.22 385.996C463.326 386.145 463.228 419.988 463.228 419.988C456.825 426.738 435.527 438.442 433.941 462.12C431.853 493.375 452.985 509.02 456.455 512.259C451.335 516.859 438.028 530.05 435.325 550.488C432.555 571.38 437.008 590.627 444.902 603.188C453.277 616.519 471.357 633.113 496.171 640.512C530.336 650.706 560.197 628.787 564.035 625.875C590.696 599.213 606.874 583.036 633.545 556.364" stroke="#6685D4" stroke-width="8" stroke-miterlimit="10" stroke-linecap="round" stroke-linejoin="round"/>
</g>
</g>
<g id="step s-multistep-brush_10">
<g id="input_11">
<g id="ref_10">
<path id="d_28" d="M871.708 318.182L474.436 715.454" stroke="#CBD8F1" stroke-width="8" stroke-miterlimit="10" stroke-linecap="round" stroke-linejoin="round"/>
<path id="d_29" d="M481.256 325.002L871.962 724.809" stroke="#CBD8F1" stroke-width="8" stroke-miterlimit="10" stroke-linecap="round" stroke-linejoin="round"/>
<path id="d_30" d="M514.994 351.026C425.527 440.493 425.501 585.521 514.935 674.955C604.369 764.389 749.397 764.363 838.864 674.896C928.331 585.429 928.357 440.401 838.923 350.967C749.823 261.867 605.545 261.56 516 350.026" stroke="#CBD8F1" stroke-width="8" stroke-miterlimit="10" stroke-linecap="round" stroke-linejoin="round"/>
</g>
<g id="ref g-template_10">
<path id="Vector_60" d="M712.188 478.029C745.561 444.657 758.553 431.337 791.926 397.964C820.565 369.325 853.023 377.775 880.207 392.251C883.369 393.927 924.106 416.499 923.241 458.851C922.647 488.303 902.331 507.347 898.088 511.166C903.678 521.056 909.212 522.892 913.984 551.839C918.286 577.942 888.372 601.18 888.372 601.18C888.372 601.18 903.385 622.557 886.76 644.116C870.136 665.676 846.671 674.619 825.949 670.279C806.329 666.17 780.694 628.56 780.694 628.56C780.694 628.56 747.19 583.742 725.27 569.6" stroke="#CBD8F1" stroke-width="8" stroke-miterlimit="10" stroke-linecap="round" stroke-linejoin="round"/>
</g>
<path id="draw-line rgb-template_24" d="M799.977 389.913C802.572 380.571 810.599 347.289 792.731 315.228C775.008 283.426 733.336 255.562 696.92 268.748C673.376 277.274 661.9 299.392 658.187 307.482C648.065 301.757 642.538 287.464 614.607 279.333C566.17 271.201 553.796 302.667 547.786 330.598C515.612 342.265 528.566 366.314 547.842 392.687C581.029 425.875 546.515 391.36 579.702 424.547" stroke="#6685D4" stroke-width="8" stroke-miterlimit="10" stroke-linecap="round" stroke-linejoin="round"/>
</g>
</g>
<g id="step s-multistep-first-brush">
<g id="input_12">
<g id="ref_11">
<path id="d_31" d="M871.708 318.182L474.436 715.454" stroke="#CBD8F1" stroke-width="8" stroke-miterlimit="10" stroke-linecap="round" stroke-linejoin="round"/>
<path id="d_32" d="M481.256 325.002L871.962 724.809" stroke="#CBD8F1" stroke-width="8" stroke-miterlimit="10" stroke-linecap="round" stroke-linejoin="round"/>
<path id="d_33" d="M514.994 351.026C425.527 440.493 425.501 585.521 514.935 674.955C604.369 764.389 749.397 764.363 838.864 674.896C928.331 585.429 928.357 440.401 838.923 350.967C749.823 261.867 605.545 261.56 516 350.026" stroke="#CBD8F1" stroke-width="8" stroke-miterlimit="10" stroke-linecap="round" stroke-linejoin="round"/>
</g>
<path id="draw-line rgb-template_25" d="M712.188 478.029C745.561 444.657 758.553 431.337 791.926 397.964C820.565 369.325 853.023 377.775 880.207 392.251C883.369 393.927 924.106 416.499 923.241 458.851C922.647 488.303 902.331 507.347 898.088 511.166C903.678 521.056 909.212 522.892 913.984 551.839C918.286 577.942 888.372 601.18 888.372 601.18C888.372 601.18 903.385 622.557 886.76 644.116C870.136 665.676 846.671 674.619 825.949 670.279C806.329 666.17 780.694 628.56 780.694 628.56C780.694 628.56 747.19 583.742 725.27 569.6" stroke="#6685D4" stroke-width="8" stroke-miterlimit="10" stroke-linecap="round" stroke-linejoin="round"/>
</g>
</g>
<g id="step s-multistep">
<g id="input_13">
<g id="ref_12">
<path id="d_34" d="M514.994 351.026C425.527 440.493 425.501 585.521 514.935 674.955C604.369 764.389 749.397 764.363 838.864 674.896C928.331 585.429 928.357 440.401 838.923 350.967C749.823 261.867 605.545 261.56 516 350.026" stroke="#CBD8F1" stroke-width="8" stroke-miterlimit="10" stroke-linecap="round" stroke-linejoin="round"/>
</g>
<path id="draw-line d1 rgb-template" d="M871.708 318.182L474.436 715.454" stroke="#6685D4" stroke-width="8" stroke-miterlimit="10" stroke-linecap="round" stroke-linejoin="round"/>
<path id="draw-line rgb-template_26" d="M481.256 325.002L871.962 724.809" stroke="#6685D4" stroke-width="8" stroke-miterlimit="10" stroke-linecap="round" stroke-linejoin="round"/>
</g>
</g>
<g id="step s-multistep_2">
<g id="input_14">
<path id="draw-line rgb-template_27" d="M514.994 351.026C425.527 440.493 425.501 585.521 514.935 674.955C604.369 764.389 749.397 764.363 838.864 674.896C928.331 585.429 928.357 440.401 838.923 350.967C749.823 261.867 605.545 261.56 516 350.026" stroke="#6685D4" stroke-width="8" stroke-miterlimit="10" stroke-linecap="round" stroke-linejoin="round"/>
</g>
</g>
</g>
<defs>
<clipPath id="clip0">
<rect width="1366" height="1024" fill="white"/>
</clipPath>
</defs>
</svg>
