<svg width="1366" height="1024" viewBox="0 0 1366 1024" fill="none" xmlns="http://www.w3.org/2000/svg">
<g id="leaves">
<g id="step s-multistep-brush">
<g id="input">
<path id="draw-line d6 rgb-template" d="M615.748 765.486C638.046 744.888 657.058 730.562 671.493 727.233C697.348 721.295 716.422 732.959 754.19 729.821C777.417 727.906 795.907 723.538 807.559 720.31C795.673 733.728 773.598 764.17 742.849 777.379C686.344 801.653 632.53 776.62 613.848 771.276" stroke="#6685D4" stroke-width="8" stroke-miterlimit="10" stroke-linecap="round" stroke-linejoin="round"/>
<path id="draw-line d5 rgb-template" d="M595.807 669.298C605.829 661.251 622.96 644.851 630.662 618.341C633.305 609.23 635.88 595.349 632.016 564.311C629.123 541.095 622.465 507.051 605.551 466.837C604.396 475.685 601.659 489.254 594.175 503.583C582.407 526.118 570.256 528.756 561.879 548.331C554.087 566.556 556.17 583.999 557.938 598.753C561.662 629.88 579.229 659.525 587.995 671.961" stroke="#6685D4" stroke-width="8" stroke-miterlimit="10" stroke-linecap="round" stroke-linejoin="round"/>
<path id="draw-line d4 rgb-template" d="M790.761 645.934C806.063 648.02 832.857 657.268 858.015 651.998C891.649 644.946 913.888 630.124 920.026 625.858C927.273 620.815 945.851 607.01 962.494 582.538C979.803 557.097 983.421 525.964 986.614 509.747C974.233 517.664 951.321 533.894 927.59 545.489C894.13 561.831 867.363 562.005 848.133 571.693C826.533 582.58 813.939 600.58 787.045 640.095" stroke="#6685D4" stroke-width="8" stroke-miterlimit="10" stroke-linecap="round" stroke-linejoin="round"/>
<path id="draw-line d3 rgb-template" d="M691.498 597.533C700.251 585.854 726.287 549.449 728.887 510.165C729.707 497.81 731.246 474.543 720.544 449.138C715.538 437.246 711.243 432.964 706.12 419.541C698.677 400.038 697.569 382.393 697.825 370.301C683.76 391.932 675.434 411.645 670.438 425.72C662.274 448.804 653.567 473.364 656.424 506.154C658.536 530.525 666.275 550.747 670.493 561.59C675.743 575.046 681.411 585.933 685.957 593.813" stroke="#6685D4" stroke-width="8" stroke-miterlimit="10" stroke-linecap="round" stroke-linejoin="round"/>
<path id="draw-line d2 rgb-template" d="M844.857 493.98C855.118 487.236 875.241 480.813 896.68 471.047C929.475 456.127 944.259 460.259 960.093 451.023C977.568 440.842 1003.03 407.801 1014.37 354.282C993.81 374.23 974.427 383.562 960.503 388.398C934.781 397.328 923.142 392.488 900.671 405.286C880.592 416.72 869.074 432.434 863.77 439.814C850.794 457.886 844.998 475.638 842.257 486.926" stroke="#6685D4" stroke-width="8" stroke-miterlimit="10" stroke-linecap="round" stroke-linejoin="round"/>
<path id="draw-line d1 rgb-template" d="M778.356 482.758C786.968 465.94 799.536 440.539 809.219 409.377C819.426 376.486 824.766 359.305 822.374 337.358C818.265 299.529 793.711 270.817 776.04 254.432C776.326 269.937 774.949 293.29 765.21 318.41C754.869 345.081 743.242 352.785 737.069 369.719C729.805 389.647 736.012 428.261 773.71 485.701" stroke="#6685D4" stroke-width="8" stroke-miterlimit="10" stroke-linecap="round" stroke-linejoin="round"/>
<path id="draw-line rgb-template" d="M851.033 396.03C865.9 388.161 897.21 364.97 917.836 340.581C922.3 335.299 942.252 311.167 955.938 271.806C972.983 222.806 992.127 192.427 992.127 192.427C919.921 205.167 878.853 258.926 871.691 268.709C857.697 287.841 842.68 325.383 848.002 386.133" stroke="#6685D4" stroke-width="8" stroke-miterlimit="10" stroke-linecap="round" stroke-linejoin="round"/>
</g>
</g>
<g id="step s-multistep-brush_2">
<g id="input_2">
<path id="draw-line d5 rgb-template_2" d="M953.815 413.001C930.02 424.297 901.226 440.817 871.68 465.024C831.689 497.791 804.812 532.784 787.496 559.701C780.144 566.321 770.478 574.425 763.126 581.045" stroke="#6685D4" stroke-width="8" stroke-miterlimit="10" stroke-linecap="round" stroke-linejoin="round"/>
<path id="draw-line d4 rgb-template_2" d="M789.73 327.833C789.404 342.876 788.024 365.664 782.593 392.755C777.237 419.459 773.878 420.756 771.552 439.803C767.163 475.729 783.965 492.512 779.901 523.306C778.312 535.373 774.175 553.302 761.947 574.071" stroke="#6685D4" stroke-width="8" stroke-miterlimit="10" stroke-linecap="round" stroke-linejoin="round"/>
<path id="draw-line d3 rgb-template_2" d="M952.231 547.267C927.366 578.078 902.664 595.442 885.18 605.497C839.422 631.799 808.47 627.922 760.999 656.573C734.223 672.74 715.7 691.098 704.662 703.412C688.74 705.626 656.826 708.851 642.385 716.073" stroke="#6685D4" stroke-width="8" stroke-miterlimit="10" stroke-linecap="round" stroke-linejoin="round"/>
<path id="draw-line d2 rgb-template_2" d="M699.465 453.939C693.794 472.254 688.522 494.374 685.549 519.871C680.735 561.163 691.529 614.067 695.806 641.069C686.28 660.881 666.767 679.809 657.263 699.627" stroke="#6685D4" stroke-width="8" stroke-miterlimit="10" stroke-linecap="round" stroke-linejoin="round"/>
<path id="draw-line d1 rgb-template_2" d="M726.979 752.322C689.712 748.669 661.889 753.551 643.204 758.76C617.285 766.003 599.239 776.66 564.21 780.556C547.577 782.407 544.944 782.49 535.805 781.879" stroke="#6685D4" stroke-width="8" stroke-miterlimit="10" stroke-linecap="round" stroke-linejoin="round"/>
<path id="draw-line rgb-template_2" d="M601.684 540.826C603.742 559.606 605.143 586.56 601.226 618.26C598.22 642.664 594.612 671.904 577.488 703.872C569.307 719.152 536.559 767.566 505.543 790.155" stroke="#6685D4" stroke-width="8" stroke-miterlimit="10" stroke-linecap="round" stroke-linejoin="round"/>
</g>
</g>
<g id="step s-multistep-first-brush">
<g id="input_3">
<path id="draw-line rgb-template_3" d="M930.559 268.835C911.294 292.986 882.797 331.402 853.96 382.341C801.385 475.25 798.206 520.64 757.347 587.31C708.916 666.345 647.891 709.433 615.367 732.392C489.654 821.152 355.457 833.498 286.451 834.357" stroke="#6685D4" stroke-width="8" stroke-miterlimit="10" stroke-linecap="round" stroke-linejoin="round"/>
</g>
</g>
<g id="step s-multistep-brush_3">
<g id="input_4">
<path id="draw-line d5 rgb-template_3" d="M826.629 596.275C818.709 604.095 822.489 619.346 835.071 630.339C847.652 641.332 864.272 643.903 872.192 636.083C880.111 628.263 876.332 613.012 863.75 602.019C851.729 591.516 836.022 588.7 827.738 595.291" stroke="#6685D4" stroke-width="8" stroke-miterlimit="10" stroke-linecap="round" stroke-linejoin="round"/>
<path id="draw-line d4 rgb-template_3" d="M678.311 519.478C670.392 527.298 674.171 542.549 686.753 553.542C699.335 564.535 715.955 567.107 723.875 559.286C731.794 551.466 728.015 536.215 715.433 525.222C703.186 514.522 687.115 511.801 678.963 518.874" stroke="#6685D4" stroke-width="8" stroke-miterlimit="10" stroke-linecap="round" stroke-linejoin="round"/>
<path id="draw-line d3 rgb-template_3" d="M519 672.391C504.768 677.067 495.527 686.539 498.361 693.548C501.194 700.556 515.029 702.447 529.261 697.771C543.494 693.095 552.734 683.623 549.901 676.615C547.093 669.669 533.48 667.75 519.383 672.267" stroke="#6685D4" stroke-width="8" stroke-miterlimit="10" stroke-linecap="round" stroke-linejoin="round"/>
<path id="draw-line d2 rgb-template_3" d="M543.475 523.604C562.308 522.406 578.45 530.218 579.529 541.053C580.608 551.887 566.215 561.641 547.382 562.838C528.549 564.036 512.407 556.224 511.328 545.39C510.259 534.654 524.382 524.978 542.965 523.639" stroke="#6685D4" stroke-width="8" stroke-miterlimit="10" stroke-linecap="round" stroke-linejoin="round"/>
<path id="draw-line d1 rgb-template_3" d="M467.261 461.443C489.356 462.457 506.97 474.105 506.602 487.459C506.233 500.813 488.023 510.817 465.928 509.803C443.832 508.789 426.219 497.141 426.587 483.787C426.952 470.539 444.878 460.588 466.737 461.421" stroke="#6685D4" stroke-width="8" stroke-miterlimit="10" stroke-linecap="round" stroke-linejoin="round"/>
<path id="draw-line rgb-template_4" d="M630.411 428.498C649.566 425.805 666.969 433.566 669.281 445.831C671.594 458.096 657.94 470.222 638.785 472.914C619.629 475.607 602.227 467.847 599.914 455.581C597.627 443.451 610.956 431.458 629.779 428.59" stroke="#6685D4" stroke-width="8" stroke-miterlimit="10" stroke-linecap="round" stroke-linejoin="round"/>
</g>
</g>
<g id="step s-multistep-brush shadow-size-40">
<g id="input_5">
<path id="draw-line rgb-template_5" d="M740.358 435.263C763.683 422.58 784.074 414.032 805.107 408.45C854.223 395.432 867.149 395.399 896.53 397.699C910.284 398.771 949.45 399.111 987.684 436.755C1022.16 498.796 1014.28 525.922 1014.28 525.922L988.823 557.413C988.823 557.413 981.677 504.988 964.152 484.247C934.67 458.419 915.572 454.738 907.461 451.688C859.432 433.607 804.528 459.406 795.792 463.702C794.283 466.035 788.176 476.036 792.574 484.46C797.526 493.948 812.534 495.188 819.966 495.797C851.838 498.429 861.792 480.494 885.023 481.786C913.237 483.362 932.919 511.719 936.368 516.681C957.83 547.596 954.245 591.293 928.275 628.247C927.022 618.599 921.729 588.072 893.978 562.554C865.714 536.548 832.653 532.767 822.094 531.565C812.749 530.497 793.726 528.322 789.142 536.372C785.302 543.125 793.111 554.387 799.187 560.613C818.353 580.251 839.717 569.789 867.423 585.453C899.008 603.308 906.496 636.837 906.793 638.242C909.081 649.273 908.248 659.385 906.185 667.949C902.336 663.291 897.399 659.958 891.596 658.515C872.956 653.873 852.468 670.447 845.819 695.509C842.212 709.103 843.427 722.413 848.261 732.48C822.859 743.578 798.078 745.17 793.53 745.402C803.836 713.436 806.531 686.566 807.037 668.131C807.658 645.638 805.132 633.103 800.424 621.752C796.681 612.709 786.186 587.393 764.923 583.649C763.879 583.46 748.952 581.037 740.956 589.849C733.724 597.815 734.6 612.267 744.793 624.456C754.606 635.784 766.496 652.582 773.804 674.755C783.1 702.968 790.316 756.082 761.42 774.449C749.746 781.863 734.127 782.389 731.024 782.492C708.416 783.252 702.127 772.239 687.601 775.76C671.915 779.563 672.264 794.096 653.757 805.951C639.689 814.963 623.792 816.614 612.166 816.509C623.288 806.783 646.477 783.783 656.784 746.886C670.84 696.608 651.346 654.901 645.275 643.053C638.054 656.535 630.735 671.985 624.085 689.373C613.282 717.622 612.309 729.777 599.337 764.902C589.733 790.919 584.785 804.061 577.803 811.169C560.14 829.145 541.272 827.591 504.171 840.856C487.752 846.732 464.205 856.773 437.603 874.477" stroke="#6685D4" stroke-width="8" stroke-miterlimit="10" stroke-linecap="round" stroke-linejoin="round"/>
</g>
</g>
<g id="step s-multistep-brush shadow-size-40_2">
<g id="input_6">
<path id="draw-line rgb-template_6" d="M437.588 874.475C427.164 855.052 401.565 818.497 401.938 773.989C402.13 751.892 406.087 733.096 410.521 718.625C423.735 692.271 440.163 679.415 452.022 672.614C489.355 651.209 528.915 662.476 544.588 639.221C551.463 629.012 551.775 608.7 550.449 601.418C530.305 603.443 485.195 618.685 441.975 648.387C395.71 680.184 376.03 720.273 368.761 737.673C365.827 731.473 361.583 722.054 357.206 710.373C340.723 666.403 328.981 635.094 343.908 608.123C345.804 604.709 356.345 586.498 377.59 578.885C397.822 571.644 411.268 579.922 433.062 573.317C449.951 568.207 461.231 557.364 468.129 548.993C455.764 545.596 427.974 539.671 394.94 547.563C368.809 553.794 350.966 565.915 341.646 573.312C349.988 563.685 358.427 550.405 354.932 537.109C351.314 523.372 337.931 520.945 334.52 508.436C332.132 499.658 335.94 490.55 341.548 482.631C347.53 488.516 360.279 490.574 373.412 487.122C389.58 482.865 400.193 471.864 397.127 462.533C395.042 456.165 387.097 452.23 377.134 451.732C412.424 432.033 451.805 434.688 454.52 434.905C489.551 437.742 504.839 452.907 543.49 448.698C555.227 447.421 564.562 444.861 570.457 442.963C552.99 412.071 534.562 401.988 521.042 398.452C495.757 391.829 483.738 395.494 439.729 395.762C426.399 395.841 396.435 411.245 397.575 397.254C411.793 381.108 458.591 335.158 510.17 327.303C521.417 325.583 534.018 323.665 550.124 326.828C560.082 328.779 568.245 332.068 575.841 336.452C573.757 337.568 571.935 338.984 570.429 340.733C560.626 352.104 567.881 372.72 586.644 386.808C605.407 400.895 628.57 403.101 638.372 391.744C639.75 390.151 640.777 388.368 641.501 386.442C653.694 394.744 662.853 398.622 684.246 417.084C683.643 387.787 689.328 375.384 645.185 336.892C618.446 313.568 575.607 297.283 499.901 299.482C508.497 295.613 547.323 247.802 625.455 255.84C640.767 257.415 666.582 263.438 688.028 276.91C714.993 293.844 768.554 337.586 740.909 431.804" stroke="#6685D4" stroke-width="8" stroke-miterlimit="10" stroke-linecap="round" stroke-linejoin="round"/>
</g>
</g>
<g id="step s-multistep-first-brush_2">
<g id="input_7">
<path id="draw-line rgb-template_7" d="M740.373 435.266C705.702 458.456 673.765 473.879 640.273 523.983C598.472 586.532 601 637.928 559.97 710.389C540.174 745.353 443.63 766.285 438.123 871.026" stroke="#6685D4" stroke-width="8" stroke-miterlimit="10" stroke-linecap="round" stroke-linejoin="round"/>
</g>
</g>
<g id="step s-multistep-brush shadow-size-30">
<g id="input_8">
<path id="draw-line d3 rgb-template_4" d="M662.035 744.867C674.232 745.346 692.421 744.807 712.302 738.604C740.396 729.854 751.958 722.872 780.334 700.038C839.765 652.242 858.447 671.21 865.533 638.038C866.731 632.494 868 624.194 868 601C825.806 660.902 787.031 676.964 758.867 680.2C736.095 682.837 708.036 678.492 685.3 694.793C670.883 705.132 664.855 719.276 662 729.194" stroke="#6685D4" stroke-width="8" stroke-miterlimit="10" stroke-linecap="round" stroke-linejoin="round"/>
<path id="draw-line d2 rgb-template_4" d="M662.906 658.827C716.267 663.732 746.483 645.947 758.816 637.054C766.997 631.167 785.259 623.572 815.317 573.696C828.982 551.037 839.128 518.947 856.154 483.534C842.584 489.674 824.163 500.592 810.656 520.213C799.115 537.018 802.856 543.189 792.932 556.892C775.05 581.577 750.763 578.285 716.933 597.685C703.046 605.628 683.578 619.711 664.523 645.725" stroke="#6685D4" stroke-width="8" stroke-miterlimit="10" stroke-linecap="round" stroke-linejoin="round"/>
<path id="draw-line d1 rgb-template_4" d="M679 593C689.714 589.535 719.75 576.807 735.22 565.037C763.289 543.709 745.223 534.421 775.915 492.231C800.65 458.224 818.087 459.846 830.659 429.671C837.055 414.29 835.743 394.214 837 385C825.603 403.06 814.561 416.673 806.581 425.789C786.547 448.665 774.74 455.668 758.478 478.741C748.175 493.337 748.311 497.072 739.893 510.562C735.821 517.098 698.378 559.263 679.957 572.483" stroke="#6685D4" stroke-width="8" stroke-miterlimit="10" stroke-linecap="round" stroke-linejoin="round"/>
<path id="draw-line rgb-template_8" d="M680.946 536.353C697.529 517.745 719.977 490.307 742.71 454.356C762.716 422.708 780.313 394.827 792.33 355.3C799.876 330.489 809.071 288.272 803.363 233.111C788.398 246.276 777.65 271.562 770.294 300.519C763.889 325.584 761.068 340.679 762.589 351.977C766.838 383.593 741.515 431.104 684 512.5" stroke="#6685D4" stroke-width="8" stroke-miterlimit="10" stroke-linecap="round" stroke-linejoin="round"/>
</g>
</g>
<g id="step s-multistep-brush shadow-size-30_2">
<g id="input_9">
<path id="draw-line d3 rgb-template_5" d="M683 470C670.233 437.589 661.06 408.149 662.354 390.935C663.874 370.746 672.281 350.81 671.286 328.703C670.242 305.195 663.148 286.278 657.495 274.208C648.266 295.842 626.963 330.72 639.186 388.981C645.52 419.195 669.733 478.596 680 495" stroke="#6685D4" stroke-width="8" stroke-miterlimit="10" stroke-linecap="round" stroke-linejoin="round"/>
<path id="draw-line d2 rgb-template_5" d="M680.946 530.308C671.53 524.549 658.498 514.896 647.877 499.484C636.304 482.743 632.88 466.919 631.612 461.793C626.285 440.019 610.4 406.157 564.078 353.085C564.871 370.523 569.214 440.621 601.586 490.686C608.593 501.51 619.405 517.839 640.172 530.308C655.994 539.803 671.213 543.22 680.978 544.613" stroke="#6685D4" stroke-width="8" stroke-miterlimit="10" stroke-linecap="round" stroke-linejoin="round"/>
<path id="draw-line d1 rgb-template_5" d="M665.157 620.819C662.113 612.812 656.533 601.736 645.721 593.001C630.756 580.944 620.895 585.532 611.288 574.488C599.398 560.816 609.1 547.493 596.355 532.239C587.762 521.954 582.467 526.985 570.482 516.415C555.517 503.187 538.016 443.564 544.737 462.362C544.484 477.363 545.783 500.655 554.756 527.302C559.893 542.619 569.087 568.886 593.501 593.444C617.376 617.464 643.819 627.781 658.816 632.275" stroke="#6685D4" stroke-width="8" stroke-miterlimit="10" stroke-linecap="round" stroke-linejoin="round"/>
<path id="draw-line rgb-template_9" d="M652 693.633C638.708 680.002 618.468 663.465 588.784 652.403C568.971 645.01 558.245 645.01 539.216 637.672C520.793 630.561 497.773 617.805 476 593C483.483 606.376 495.171 624.24 513.167 643.316C532.98 664.312 550.12 682.429 581.016 693.633C593.274 698.063 617.541 704.977 651.964 702.466" stroke="#6685D4" stroke-width="8" stroke-miterlimit="10" stroke-linecap="round" stroke-linejoin="round"/>
</g>
</g>
<g id="step s-multistep-first-brush_3">
<g id="input_10">
<path id="draw-line rgb-template_10" d="M690 460.5C696.69 450.943 706.343 415.366 722.418 401.537C752.539 375.649 745.088 327.894 746.261 312.07C748.797 278.43 756.058 228.554 801.81 164.848C749.114 205.515 722.862 231.719 720.769 253.334C720.357 257.701 720.262 263.176 718.55 272.037C712.177 305.551 707.897 328.432 698.163 344.287C687.161 362.199 693.502 364.415 684.941 490.686C682.437 527.555 680.946 541.511 679.425 553.442C674.066 595.565 666.869 625.756 665.093 633.794C657.325 668.511 652.252 728.988 665.093 841.842" stroke="#6685D4" stroke-width="8" stroke-miterlimit="10" stroke-linecap="round" stroke-linejoin="round"/>
</g>
</g>
<g id="step s-multistep-brush shadow-size-40_3">
<g id="input_11">
<path id="draw-line rgb-template_11" d="M560.278 742.842C554.866 741.003 510.099 725.094 500.834 687.6C498.225 677.039 499.095 667.457 500.834 659.979L555.586 611.183C545.256 608.073 532.063 606.008 520.654 611.183C510.729 615.683 508.165 622.909 503.967 622.234C496.141 620.963 493.713 593.964 495.617 569.295C497.401 546.333 503.997 511.565 527.955 469.862C538.42 477.115 553.337 485.783 572.797 492.414C606.02 503.743 635.674 503.439 652.586 502.075C633.321 496.199 610.278 487.504 585.84 474.455C568.389 465.137 553.667 455.423 541.508 446.37C541.403 443.882 541.418 440.19 542.033 435.783C545.001 414.369 558.659 401.743 567.07 389.752C574.521 379.124 578.584 371.475 579.064 346.474L588.449 344.171C603.681 351.543 624.145 352.02 641.641 363.507C663.14 377.629 680.741 391.975 694.834 404.932C692.48 394.675 683.59 362.541 649.992 337.726C625.795 319.846 600.383 314.34 587.939 312.408C587.444 310.026 587.279 307.194 587.939 304.123C590.668 291.563 605.105 285.634 607.234 284.787C610.218 276.926 614.79 265.703 621.312 252.56C637.129 220.678 653.11 200.23 669.812 184.428C687.758 167.448 696.108 165.74 702.15 166.018C715.628 166.627 737.487 204.651 740.74 208.833L716.228 144.379C729.751 129.821 742.764 124.474 752.209 122.277C765.387 119.22 770.245 122.661 801.234 122.277C825.476 121.973 827.725 119.803 835.132 122.277C855.656 129.133 862.957 154.041 865.896 164.629C878.114 208.634 859.269 221.512 862.762 272.346C865.401 310.833 877.095 309.986 868.324 333.147C859.074 357.565 807.591 383.492 785.597 392.042L865.926 381.917C867.71 387.118 869.419 394.411 869.029 403.093C868.234 421.013 859.014 433.903 854.427 439.462L802.808 468.459L846.616 459.248C850.753 469.028 855.356 483.957 853.392 501.599C851.188 521.451 841.983 532.793 831.488 554.075C824.637 567.971 816.001 588.604 810.109 615.762C796.302 612.771 781.714 604.168 759.526 604.711C731.01 605.412 703.874 617.125 688.612 622.207C696.273 625.04 707.727 628.454 721.985 629.579C738.281 630.85 745.838 628.137 758.491 628.653C769.915 629.116 785.867 632.239 804.907 644.309C807.156 647.962 809.75 653.627 808.55 659.966C806.856 668.953 798.55 674.035 790.305 680.215C782.029 686.409 770.83 695.938 759.016 710.139C750.755 706.87 738.881 703.112 724.084 701.391C710.921 699.856 699.616 700.412 691.236 701.391C701.176 704.409 712.09 708.313 723.574 713.355C730.755 716.518 737.367 719.774 743.394 723.017C730.231 732.202 718.177 738.157 709.496 741.889C694.579 748.321 685.134 759.717 644.835 758.552C633.725 758.234 618.763 758.552 601.027 756.633" stroke="#6685D4" stroke-width="8" stroke-miterlimit="10" stroke-linecap="round" stroke-linejoin="round"/>
</g>
</g>
<g id="step s-multistep-brush_4">
<g id="input_12">
<path id="draw-line rgb-template_12" d="M785.552 170.187L745.403 352.774C734.458 415.083 691.701 486.895 661.581 568.302C636.784 635.297 640.607 619.547 611.927 685.311C576.14 767.313 540.159 849.25 503.982 931.133" stroke="#6685D4" stroke-width="8" stroke-miterlimit="10" stroke-linecap="round" stroke-linejoin="round"/>
</g>
</g>
</g>
</svg>
