<svg width="1366" height="1024" viewBox="0 0 1366 1024" fill="none" xmlns="http://www.w3.org/2000/svg">
<g id="leaves">
<g id="step s-multistep-brush">
<g id="input">
<path id="draw-line d6 rgb-template" d="M615.748 765.486C638.046 744.888 657.058 730.562 671.493 727.233C697.348 721.295 716.422 732.959 754.19 729.821C777.417 727.906 795.907 723.538 807.559 720.31C795.673 733.728 773.598 764.17 742.849 777.379C686.344 801.653 632.53 776.62 613.848 771.276" stroke="#6685D4" stroke-width="8" stroke-miterlimit="10" stroke-linecap="round" stroke-linejoin="round"/>
<path id="draw-line d5 rgb-template" d="M595.807 669.298C605.829 661.251 622.96 644.851 630.662 618.341C633.305 609.23 635.88 595.349 632.016 564.311C629.123 541.095 622.465 507.051 605.551 466.837C604.396 475.685 601.659 489.254 594.175 503.583C582.407 526.118 570.256 528.756 561.879 548.331C554.087 566.556 556.17 583.999 557.938 598.753C561.662 629.88 579.229 659.525 587.995 671.961" stroke="#6685D4" stroke-width="8" stroke-miterlimit="10" stroke-linecap="round" stroke-linejoin="round"/>
<path id="draw-line d4 rgb-template" d="M790.761 645.934C806.063 648.02 832.857 657.268 858.015 651.998C891.649 644.946 913.888 630.124 920.026 625.858C927.273 620.815 945.851 607.01 962.494 582.538C979.803 557.097 983.421 525.964 986.614 509.747C974.233 517.664 951.321 533.894 927.59 545.489C894.13 561.831 867.363 562.005 848.133 571.693C826.533 582.58 813.939 600.58 787.045 640.095" stroke="#6685D4" stroke-width="8" stroke-miterlimit="10" stroke-linecap="round" stroke-linejoin="round"/>
<path id="draw-line d3 rgb-template" d="M691.498 597.533C700.251 585.854 726.287 549.449 728.887 510.165C729.707 497.81 731.246 474.543 720.544 449.138C715.538 437.246 711.243 432.964 706.12 419.541C698.677 400.038 697.569 382.393 697.825 370.301C683.76 391.932 675.434 411.645 670.438 425.72C662.274 448.804 653.567 473.364 656.424 506.154C658.536 530.525 666.275 550.747 670.493 561.59C675.743 575.046 681.411 585.933 685.957 593.813" stroke="#6685D4" stroke-width="8" stroke-miterlimit="10" stroke-linecap="round" stroke-linejoin="round"/>
<path id="draw-line d2 rgb-template" d="M844.857 493.98C855.118 487.236 875.241 480.813 896.68 471.047C929.475 456.127 944.259 460.259 960.093 451.023C977.568 440.842 1003.03 407.801 1014.37 354.282C993.81 374.23 974.427 383.562 960.503 388.398C934.781 397.328 923.142 392.488 900.671 405.286C880.592 416.72 869.074 432.434 863.77 439.814C850.794 457.886 844.998 475.638 842.257 486.926" stroke="#6685D4" stroke-width="8" stroke-miterlimit="10" stroke-linecap="round" stroke-linejoin="round"/>
<path id="draw-line d1 rgb-template" d="M778.356 482.758C786.968 465.94 799.536 440.539 809.219 409.377C819.426 376.486 824.766 359.305 822.374 337.358C818.265 299.529 793.711 270.817 776.04 254.432C776.326 269.937 774.949 293.29 765.21 318.41C754.869 345.081 743.242 352.785 737.069 369.719C729.805 389.647 736.012 428.261 773.71 485.701" stroke="#6685D4" stroke-width="8" stroke-miterlimit="10" stroke-linecap="round" stroke-linejoin="round"/>
<path id="draw-line rgb-template" d="M851.033 396.03C865.9 388.161 897.21 364.97 917.836 340.581C922.3 335.299 942.252 311.167 955.938 271.806C972.983 222.806 992.127 192.427 992.127 192.427C919.921 205.167 878.853 258.926 871.691 268.709C857.697 287.841 842.68 325.383 848.002 386.133" stroke="#6685D4" stroke-width="8" stroke-miterlimit="10" stroke-linecap="round" stroke-linejoin="round"/>
</g>
</g>
<g id="step s-multistep-brush_2">
<g id="input_2">
<path id="draw-line d5 rgb-template_2" d="M953.815 413.001C930.02 424.297 901.226 440.817 871.68 465.024C831.689 497.791 804.812 532.784 787.496 559.701C780.144 566.321 770.478 574.425 763.126 581.045" stroke="#6685D4" stroke-width="8" stroke-miterlimit="10" stroke-linecap="round" stroke-linejoin="round"/>
<path id="draw-line d4 rgb-template_2" d="M789.73 327.833C789.404 342.876 788.024 365.664 782.593 392.755C777.237 419.459 773.878 420.756 771.552 439.803C767.163 475.729 783.965 492.512 779.901 523.306C778.312 535.373 774.175 553.302 761.947 574.071" stroke="#6685D4" stroke-width="8" stroke-miterlimit="10" stroke-linecap="round" stroke-linejoin="round"/>
<path id="draw-line d3 rgb-template_2" d="M952.231 547.267C927.366 578.078 902.664 595.442 885.18 605.497C839.422 631.799 808.47 627.922 760.999 656.573C734.223 672.74 715.7 691.098 704.662 703.412C688.74 705.626 656.826 708.851 642.385 716.073" stroke="#6685D4" stroke-width="8" stroke-miterlimit="10" stroke-linecap="round" stroke-linejoin="round"/>
<path id="draw-line d2 rgb-template_2" d="M699.465 453.939C693.794 472.254 688.522 494.374 685.549 519.871C680.735 561.163 691.529 614.067 695.806 641.069C686.28 660.881 666.767 679.809 657.263 699.627" stroke="#6685D4" stroke-width="8" stroke-miterlimit="10" stroke-linecap="round" stroke-linejoin="round"/>
<path id="draw-line d1 rgb-template_2" d="M726.979 752.322C689.712 748.669 661.889 753.551 643.204 758.76C617.285 766.003 599.239 776.66 564.21 780.556C547.577 782.407 544.944 782.49 535.805 781.879" stroke="#6685D4" stroke-width="8" stroke-miterlimit="10" stroke-linecap="round" stroke-linejoin="round"/>
<path id="draw-line rgb-template_2" d="M601.684 540.826C603.742 559.606 605.143 586.56 601.226 618.26C598.22 642.664 594.612 671.904 577.488 703.872C569.307 719.152 536.559 767.566 505.543 790.155" stroke="#6685D4" stroke-width="8" stroke-miterlimit="10" stroke-linecap="round" stroke-linejoin="round"/>
</g>
</g>
<g id="step s-multistep-first-brush">
<g id="input_3">
<path id="draw-line rgb-template_3" d="M930.559 268.835C911.294 292.986 882.797 331.402 853.96 382.341C801.385 475.25 798.206 520.64 757.347 587.31C708.916 666.345 647.891 709.433 615.367 732.392C489.654 821.152 355.457 833.498 286.451 834.357" stroke="#6685D4" stroke-width="8" stroke-miterlimit="10" stroke-linecap="round" stroke-linejoin="round"/>
</g>
</g>
<g id="step s-multistep-brush_3">
<g id="input_4">
<path id="draw-line d5 rgb-template_3" d="M860.629 562.545C852.709 570.366 856.489 585.617 869.07 596.61C881.652 607.602 898.272 610.174 906.192 602.354C914.111 594.533 910.332 579.282 897.75 568.289C885.729 557.787 870.022 554.971 861.738 561.561" stroke="#6685D4" stroke-width="8" stroke-miterlimit="10" stroke-linecap="round" stroke-linejoin="round"/>
<path id="draw-line d4 rgb-template_3" d="M712.311 485.749C704.392 493.569 708.171 508.82 720.753 519.813C733.335 530.805 749.955 533.377 757.875 525.557C765.794 517.736 762.015 502.485 749.433 491.493C737.186 480.793 721.115 478.071 712.963 485.145" stroke="#6685D4" stroke-width="8" stroke-miterlimit="10" stroke-linecap="round" stroke-linejoin="round"/>
<path id="draw-line d3 rgb-template_3" d="M553 638.662C538.768 643.338 529.527 652.81 532.361 659.818C535.194 666.827 549.029 668.718 563.261 664.042C577.494 659.366 586.734 649.894 583.901 642.885C581.093 635.94 567.48 634.02 553.383 638.538" stroke="#6685D4" stroke-width="8" stroke-miterlimit="10" stroke-linecap="round" stroke-linejoin="round"/>
<path id="draw-line d2 rgb-template_3" d="M577.475 489.875C596.308 488.677 612.45 496.489 613.529 507.323C614.608 518.157 600.215 527.911 581.382 529.109C562.548 530.307 546.407 522.494 545.328 511.66C544.259 500.924 558.382 491.249 576.964 489.909" stroke="#6685D4" stroke-width="8" stroke-miterlimit="10" stroke-linecap="round" stroke-linejoin="round"/>
<path id="draw-line d1 rgb-template_3" d="M501.261 427.714C523.356 428.728 540.97 440.376 540.601 453.73C540.233 467.084 522.023 477.087 499.928 476.073C477.832 475.059 460.219 463.412 460.587 450.058C460.952 436.809 478.878 426.859 500.737 427.692" stroke="#6685D4" stroke-width="8" stroke-miterlimit="10" stroke-linecap="round" stroke-linejoin="round"/>
<path id="draw-line rgb-template_4" d="M664.411 394.769C683.566 392.076 700.969 399.836 703.281 412.102C705.594 424.367 691.94 436.493 672.785 439.185C653.629 441.878 636.227 434.117 633.914 421.852C631.627 409.722 644.956 397.729 663.779 394.861" stroke="#6685D4" stroke-width="8" stroke-miterlimit="10" stroke-linecap="round" stroke-linejoin="round"/>
</g>
</g>
<g id="step s-multistep-brush_4">
<g id="input_5">
<path id="draw-line rgb-template_5" d="M774.358 401.534C797.683 388.85 818.074 380.303 839.107 374.721C888.223 361.703 901.149 361.669 930.53 363.969C944.284 365.042 983.45 365.382 1021.68 403.025C1056.16 465.066 1048.28 492.192 1048.28 492.192L1022.82 523.683C1022.82 523.683 1015.68 471.259 998.152 450.517C968.67 424.69 949.572 421.009 941.461 417.959C893.432 399.877 838.528 425.676 829.792 429.972C828.283 432.306 822.176 442.307 826.574 450.731C831.526 460.219 846.534 461.459 853.966 462.068C885.838 464.7 895.792 446.765 919.023 448.057C947.237 449.633 966.919 477.989 970.368 482.952C991.83 513.866 988.245 557.564 962.275 594.518C961.022 584.87 955.729 554.343 927.978 528.824C899.714 502.819 866.653 499.038 856.094 497.836C846.749 496.767 827.726 494.593 823.142 502.643C819.302 509.396 827.111 520.658 833.187 526.884C852.353 546.521 873.717 536.06 901.423 551.724C933.008 569.579 940.496 603.108 940.793 604.512C943.081 615.543 942.248 625.656 940.185 634.219C936.336 629.561 931.399 626.229 925.596 624.786C906.956 620.144 886.468 636.717 879.819 661.779C876.212 675.374 877.427 688.683 882.261 698.751C856.859 709.849 832.078 711.441 827.53 711.673C837.836 679.707 840.531 652.836 841.037 634.401C841.658 611.909 839.132 599.374 834.424 588.022C830.681 578.98 820.186 553.664 798.922 549.919C797.879 549.73 782.952 547.308 774.956 556.12C767.724 564.085 768.6 578.538 778.793 590.726C788.606 602.054 800.496 618.853 807.804 641.026C817.1 669.239 824.316 722.353 795.42 740.72C783.746 748.133 768.127 748.659 765.024 748.762C742.416 749.523 736.127 738.51 721.601 742.031C705.915 745.833 706.264 760.367 687.757 772.222C673.689 781.233 657.792 782.885 646.166 782.78C657.288 773.054 680.477 750.053 690.784 713.157C704.84 662.878 685.346 621.172 679.275 609.324C672.054 622.806 664.735 638.256 658.085 655.644C647.282 683.892 646.309 696.048 633.337 731.173C623.733 757.189 618.785 770.331 611.803 777.439C594.14 795.415 575.272 793.862 538.171 807.127C521.752 813.003 498.205 823.044 471.603 840.748" stroke="#6685D4" stroke-width="8" stroke-miterlimit="10" stroke-linecap="round" stroke-linejoin="round"/>
</g>
</g>
<g id="step s-multistep-brush_5">
<g id="input_6">
<path id="draw-line rgb-template_6" d="M471.588 840.746C461.164 821.322 435.565 784.768 435.938 740.26C436.13 718.163 440.087 699.367 444.521 684.895C457.735 658.542 474.163 645.685 486.022 638.885C523.355 617.48 562.915 628.747 578.588 605.491C585.463 595.283 585.775 574.97 584.449 567.688C564.305 569.713 519.195 584.955 475.975 614.657C429.71 646.455 410.03 686.543 402.761 703.944C399.827 697.743 395.583 688.324 391.206 676.644C374.723 632.674 362.981 601.365 377.908 574.394C379.804 570.98 390.345 552.769 411.59 545.155C431.822 537.915 445.268 546.193 467.062 539.588C483.951 534.478 495.231 523.635 502.129 515.264C489.764 511.867 461.974 505.942 428.94 513.833C402.809 520.065 384.966 532.185 375.646 539.583C383.988 529.956 392.427 516.676 388.932 503.379C385.314 489.643 371.931 487.215 368.52 474.706C366.132 465.928 369.94 456.82 375.548 448.902C381.53 454.787 394.279 456.845 407.412 453.393C423.58 449.135 434.193 438.135 431.127 428.803C429.042 422.436 421.097 418.501 411.134 418.002C446.424 398.304 485.805 400.959 488.52 401.176C523.551 404.012 538.839 419.178 577.49 414.969C589.227 413.692 598.562 411.132 604.457 409.234C586.99 378.341 568.562 368.258 555.042 364.723C529.757 358.1 517.738 361.765 473.729 362.033C460.399 362.112 430.435 377.515 431.575 363.525C445.793 347.379 492.591 301.429 544.17 293.574C555.417 291.854 568.018 289.936 584.124 293.098C594.082 295.05 602.245 298.339 609.841 302.722C607.757 303.839 605.935 305.254 604.429 307.004C594.626 318.374 601.881 338.991 620.644 353.078C639.407 367.166 662.57 369.371 672.372 358.014C673.75 356.421 674.777 354.638 675.501 352.713C687.694 361.014 696.853 364.893 718.246 383.354C717.643 354.057 723.328 341.655 679.185 303.163C652.446 279.838 609.607 263.553 533.901 265.753C542.497 261.883 581.323 214.073 659.455 222.111C674.767 223.686 700.582 229.709 722.028 243.18C748.993 260.115 802.554 303.856 774.909 398.074" stroke="#6685D4" stroke-width="8" stroke-miterlimit="10" stroke-linecap="round" stroke-linejoin="round"/>
</g>
</g>
<g id="step s-multistep-first-brush_2">
<g id="input_7">
<path id="draw-line rgb-template_7" d="M774.372 401.536C739.702 424.726 707.765 440.15 674.273 490.254C632.472 552.802 635 604.198 593.97 676.66C574.174 711.623 477.63 732.556 472.123 837.297" stroke="#6685D4" stroke-width="8" stroke-miterlimit="10" stroke-linecap="round" stroke-linejoin="round"/>
</g>
</g>
<g id="step s-multistep-brush_6">
<g id="input_8">
<path id="draw-line d3 rgb-template_4" d="M662.035 744.867C674.232 745.346 692.421 744.807 712.302 738.604C740.396 729.854 751.958 722.872 780.334 700.038C839.765 652.242 858.447 671.21 865.533 638.038C866.731 632.494 868 624.194 868 601C825.806 660.902 787.031 676.964 758.867 680.2C736.095 682.837 708.036 678.492 685.3 694.793C670.883 705.132 664.855 719.276 662 729.194" stroke="#6685D4" stroke-width="8" stroke-miterlimit="10" stroke-linecap="round" stroke-linejoin="round"/>
<path id="draw-line d2 rgb-template_4" d="M662.906 658.827C716.267 663.732 746.483 645.947 758.816 637.054C766.997 631.167 785.259 623.572 815.317 573.696C828.982 551.037 839.128 518.947 856.154 483.534C842.584 489.674 824.163 500.592 810.656 520.213C799.115 537.018 802.856 543.189 792.932 556.892C775.05 581.577 750.763 578.285 716.933 597.685C703.046 605.628 683.578 619.711 664.523 645.725" stroke="#6685D4" stroke-width="8" stroke-miterlimit="10" stroke-linecap="round" stroke-linejoin="round"/>
<path id="draw-line d1 rgb-template_4" d="M679 593C689.714 589.535 719.75 576.807 735.22 565.037C763.289 543.709 745.223 534.421 775.915 492.231C800.65 458.224 818.087 459.846 830.659 429.671C837.055 414.29 835.743 394.214 837 385C825.603 403.06 814.561 416.673 806.581 425.789C786.547 448.665 774.74 455.668 758.478 478.741C748.175 493.337 748.311 497.072 739.893 510.562C735.821 517.098 698.378 559.263 679.957 572.483" stroke="#6685D4" stroke-width="8" stroke-miterlimit="10" stroke-linecap="round" stroke-linejoin="round"/>
<path id="draw-line rgb-template_8" d="M680.946 536.353C697.529 517.745 719.977 490.307 742.71 454.356C762.716 422.708 780.313 394.827 792.33 355.3C799.876 330.489 809.071 288.272 803.363 233.111C788.398 246.276 777.65 271.562 770.294 300.519C763.889 325.584 761.068 340.679 762.589 351.977C766.838 383.593 741.515 431.104 684 512.5" stroke="#6685D4" stroke-width="8" stroke-miterlimit="10" stroke-linecap="round" stroke-linejoin="round"/>
</g>
</g>
<g id="step s-multistep-brush_7">
<g id="input_9">
<path id="draw-line d3 rgb-template_5" d="M683 470C670.233 437.589 661.06 408.149 662.354 390.935C663.874 370.746 672.281 350.81 671.286 328.703C670.242 305.195 663.148 286.278 657.495 274.208C648.266 295.842 626.963 330.72 639.186 388.981C645.52 419.195 669.733 478.596 680 495" stroke="#6685D4" stroke-width="8" stroke-miterlimit="10" stroke-linecap="round" stroke-linejoin="round"/>
<path id="draw-line d2 rgb-template_5" d="M680.946 530.308C671.53 524.549 658.498 514.896 647.877 499.484C636.304 482.743 632.88 466.919 631.612 461.793C626.285 440.019 610.4 406.157 564.078 353.085C564.871 370.523 569.214 440.621 601.586 490.686C608.593 501.51 619.405 517.839 640.172 530.308C655.994 539.803 671.213 543.22 680.978 544.613" stroke="#6685D4" stroke-width="8" stroke-miterlimit="10" stroke-linecap="round" stroke-linejoin="round"/>
<path id="draw-line d1 rgb-template_5" d="M665.157 620.819C662.113 612.812 656.533 601.736 645.721 593.001C630.756 580.944 620.895 585.532 611.288 574.488C599.398 560.816 609.1 547.493 596.355 532.239C587.762 521.954 582.467 526.985 570.482 516.415C555.517 503.187 538.016 443.564 544.737 462.362C544.484 477.363 545.783 500.655 554.756 527.302C559.893 542.619 569.087 568.886 593.501 593.444C617.376 617.464 643.819 627.781 658.816 632.275" stroke="#6685D4" stroke-width="8" stroke-miterlimit="10" stroke-linecap="round" stroke-linejoin="round"/>
<path id="draw-line rgb-template_9" d="M652 693.633C638.708 680.002 618.468 663.465 588.784 652.403C568.971 645.01 558.245 645.01 539.216 637.672C520.793 630.561 497.773 617.805 476 593C483.483 606.376 495.171 624.24 513.167 643.316C532.98 664.312 550.12 682.429 581.016 693.633C593.274 698.063 617.541 704.977 651.964 702.466" stroke="#6685D4" stroke-width="8" stroke-miterlimit="10" stroke-linecap="round" stroke-linejoin="round"/>
</g>
</g>
<g id="step s-multistep-first-brush_3">
<g id="input_10">
<path id="draw-line rgb-template_10" d="M690 460.5C696.69 450.943 706.343 415.366 722.418 401.537C752.539 375.649 745.088 327.894 746.261 312.07C748.797 278.43 756.058 228.554 801.81 164.848C749.114 205.515 722.862 231.719 720.769 253.334C720.357 257.701 720.262 263.176 718.55 272.037C712.177 305.551 707.897 328.432 698.163 344.287C687.161 362.199 693.502 364.415 684.941 490.686C682.437 527.555 680.946 541.511 679.425 553.442C674.066 595.565 666.869 625.756 665.093 633.794C657.325 668.511 652.252 728.988 665.093 841.842" stroke="#6685D4" stroke-width="8" stroke-miterlimit="10" stroke-linecap="round" stroke-linejoin="round"/>
</g>
</g>
<g id="step s-multistep-brush_8">
<g id="input_11">
<path id="draw-line rgb-template_11" d="M560.278 742.842C554.866 741.003 510.099 725.094 500.834 687.6C498.225 677.039 499.095 667.457 500.834 659.979L555.586 611.183C545.256 608.073 532.063 606.008 520.654 611.183C510.729 615.683 508.165 622.909 503.967 622.234C496.141 620.963 493.713 593.964 495.617 569.295C497.401 546.333 503.997 511.565 527.955 469.862C538.42 477.115 553.337 485.783 572.797 492.414C606.02 503.743 635.674 503.439 652.586 502.075C633.321 496.199 610.278 487.504 585.84 474.455C568.389 465.137 553.667 455.423 541.508 446.37C541.403 443.882 541.418 440.19 542.033 435.783C545.001 414.369 558.659 401.743 567.07 389.752C574.521 379.124 578.584 371.475 579.064 346.474L588.449 344.171C603.681 351.543 624.145 352.02 641.641 363.507C663.14 377.629 680.741 391.975 694.834 404.932C692.48 394.675 683.59 362.541 649.992 337.726C625.795 319.846 600.383 314.34 587.939 312.408C587.444 310.026 587.279 307.194 587.939 304.123C590.668 291.563 605.105 285.634 607.234 284.787C610.218 276.926 614.79 265.703 621.312 252.56C637.129 220.678 653.11 200.23 669.812 184.428C687.758 167.448 696.108 165.74 702.15 166.018C715.628 166.627 737.487 204.651 740.74 208.833L716.228 144.379C729.751 129.821 742.764 124.474 752.209 122.277C765.387 119.22 770.245 122.661 801.234 122.277C825.476 121.973 827.725 119.803 835.132 122.277C855.656 129.133 862.957 154.041 865.896 164.629C878.114 208.634 859.269 221.512 862.762 272.346C865.401 310.833 877.095 309.986 868.324 333.147C859.074 357.565 807.591 383.492 785.597 392.042L865.926 381.917C867.71 387.118 869.419 394.411 869.029 403.093C868.234 421.013 859.014 433.903 854.427 439.462L802.808 468.459L846.616 459.248C850.753 469.028 855.356 483.957 853.392 501.599C851.188 521.451 841.983 532.793 831.488 554.075C824.637 567.971 816.001 588.604 810.109 615.762C796.302 612.771 781.714 604.168 759.526 604.711C731.01 605.412 703.874 617.125 688.612 622.207C696.273 625.04 707.727 628.454 721.985 629.579C738.281 630.85 745.838 628.137 758.491 628.653C769.915 629.116 785.867 632.239 804.907 644.309C807.156 647.962 809.75 653.627 808.55 659.966C806.856 668.953 798.55 674.035 790.305 680.215C782.029 686.409 770.83 695.938 759.016 710.139C750.755 706.87 738.881 703.112 724.084 701.391C710.921 699.856 699.616 700.412 691.236 701.391C701.176 704.409 712.09 708.313 723.574 713.355C730.755 716.518 737.367 719.774 743.394 723.017C730.231 732.202 718.177 738.157 709.496 741.889C694.579 748.321 685.134 759.717 644.835 758.552C633.725 758.234 618.763 758.552 601.027 756.633" stroke="#6685D4" stroke-width="8" stroke-miterlimit="10" stroke-linecap="round" stroke-linejoin="round"/>
</g>
</g>
<g id="step s-multistep-brush_9">
<g id="input_12">
<path id="draw-line rgb-template_12" d="M785.552 170.187L745.403 352.774C734.458 415.083 691.701 486.895 661.581 568.302C636.784 635.297 640.607 619.547 611.927 685.311C576.14 767.313 540.159 849.25 503.982 931.133" stroke="#6685D4" stroke-width="8" stroke-miterlimit="10" stroke-linecap="round" stroke-linejoin="round"/>
</g>
</g>
</g>
</svg>
