<svg width="1366" height="1024" viewBox="0 0 1366 1024" fill="none" xmlns="http://www.w3.org/2000/svg">
<g id="texture" clip-path="url(#clip0)">
<g id="step s-multistep-result">
<g id="input">
<rect id="appear d1" x="1226.5" y="876.5" width="95" height="95" stroke="#999999" stroke-width="5"/>
<path id="draw-line d2" d="M1240 918C1269.2 949.2 1269 959.5 1269 959.5C1269 959.5 1298 886 1320 860" stroke="#0000FF" stroke-opacity="0.1" stroke-width="10" stroke-linecap="round" stroke-linejoin="round"/>
</g>
<g id="template">
<rect id="Rectangle 6" x="1199" y="849" width="150" height="150" fill="#FF0000" stroke="#00FF00" stroke-width="50"/>
</g>
</g>
<g id="step s-multistep-brush shadow-size-30">
<g id="input_2">
<path id="draw-line rgb-template" d="M990 390L951 392" stroke="#6685D4" stroke-width="8" stroke-miterlimit="10" stroke-linecap="round" stroke-linejoin="round"/>
<path id="draw-line rgb-template_2" d="M966.124 364.159L949.276 373.144" stroke="#6685D4" stroke-width="8" stroke-miterlimit="10" stroke-linecap="round" stroke-linejoin="round"/>
<path id="draw-line rgb-template_3" d="M931 332L933.821 372.802" stroke="#6685D4" stroke-width="8" stroke-miterlimit="10" stroke-linecap="round" stroke-linejoin="round"/>
<path id="draw-line rgb-template_4" d="M1005.67 417.515L990.463 422.187" stroke="#6685D4" stroke-width="8" stroke-miterlimit="10" stroke-linecap="round" stroke-linejoin="round"/>
<path id="draw-line rgb-template_5" d="M1003.23 434.508H980.825" stroke="#6685D4" stroke-width="8" stroke-miterlimit="10" stroke-linecap="round" stroke-linejoin="round"/>
<path id="draw-line rgb-template_6" d="M793.959 441.296L813.837 430.993" stroke="#6685D4" stroke-width="8" stroke-miterlimit="10" stroke-linecap="round" stroke-linejoin="round"/>
<path id="draw-line rgb-template_7" d="M777.243 419.859H798.552" stroke="#6685D4" stroke-width="8" stroke-miterlimit="10" stroke-linecap="round" stroke-linejoin="round"/>
<path id="draw-line rgb-template_8" d="M953.944 480.784H931.28" stroke="#6685D4" stroke-width="8" stroke-miterlimit="10" stroke-linecap="round" stroke-linejoin="round"/>
<path id="draw-line rgb-template_9" d="M958.105 501.456C958.048 501.179 939.845 492.683 939.845 492.683" stroke="#6685D4" stroke-width="8" stroke-miterlimit="10" stroke-linecap="round" stroke-linejoin="round"/>
<path id="draw-line rgb-template_10" d="M810.241 490.55L829.818 492.683" stroke="#6685D4" stroke-width="8" stroke-miterlimit="10" stroke-linecap="round" stroke-linejoin="round"/>
<path id="draw-line rgb-template_11" d="M819.653 531.748L839.23 522.828" stroke="#6685D4" stroke-width="8" stroke-miterlimit="10" stroke-linecap="round" stroke-linejoin="round"/>
<path id="draw-line rgb-template_12" d="M956.09 555.952L943.026 552.566" stroke="#6685D4" stroke-width="8" stroke-miterlimit="10" stroke-linecap="round" stroke-linejoin="round"/>
<path id="draw-line rgb-template_13" d="M693.363 602.322L703.678 617.606" stroke="#6685D4" stroke-width="8" stroke-miterlimit="10" stroke-linecap="round" stroke-linejoin="round"/>
<path id="draw-line rgb-template_14" d="M674.388 625.162L698.52 630.256" stroke="#6685D4" stroke-width="8" stroke-miterlimit="10" stroke-linecap="round" stroke-linejoin="round"/>
<path id="draw-line rgb-template_15" d="M670.666 644.753H689.32" stroke="#6685D4" stroke-width="8" stroke-miterlimit="10" stroke-linecap="round" stroke-linejoin="round"/>
<path id="draw-line rgb-template_16" d="M753.28 475.266L751.303 497.061" stroke="#6685D4" stroke-width="8" stroke-miterlimit="10" stroke-linecap="round" stroke-linejoin="round"/>
<path id="draw-line rgb-template_17" d="M777.913 482.784L766.619 499.061" stroke="#6685D4" stroke-width="8" stroke-miterlimit="10" stroke-linecap="round" stroke-linejoin="round"/>
<path id="draw-line rgb-template_18" d="M1055.93 614.972L1031.05 611.863" stroke="#6685D4" stroke-width="8" stroke-miterlimit="10" stroke-linecap="round" stroke-linejoin="round"/>
<path id="draw-line rgb-template_19" d="M1051.36 641.813L1026.47 625.162" stroke="#6685D4" stroke-width="8" stroke-miterlimit="10" stroke-linecap="round" stroke-linejoin="round"/>
<path id="draw-line rgb-template_20" d="M1046.77 475.266L1031.05 497.061" stroke="#6685D4" stroke-width="8" stroke-miterlimit="10" stroke-linecap="round" stroke-linejoin="round"/>
<path id="draw-line rgb-template_21" d="M1066.42 492.683L1043.49 509.953" stroke="#6685D4" stroke-width="8" stroke-miterlimit="10" stroke-linecap="round" stroke-linejoin="round"/>
<path id="draw-line rgb-template_22" d="M1046.77 796.983L1018.61 811.713" stroke="#6685D4" stroke-width="8" stroke-miterlimit="10" stroke-linecap="round" stroke-linejoin="round"/>
<path id="draw-line rgb-template_23" d="M1064.95 827.21L1020.76 830.026" stroke="#6685D4" stroke-width="8" stroke-miterlimit="10" stroke-linecap="round" stroke-linejoin="round"/>
</g>
</g>
<g id="step s-multistep-brush shadow-size-40">
<g id="input_3">
<path id="draw-line rgb-template_24" d="M698.52 315.425L698.2 261.971" stroke="#6685D4" stroke-width="8" stroke-miterlimit="10" stroke-linecap="round" stroke-linejoin="round"/>
<path id="draw-line rgb-template_25" d="M772.913 353.693L810.241 346.612" stroke="#6685D4" stroke-width="8" stroke-miterlimit="10" stroke-linecap="round" stroke-linejoin="round"/>
<path id="draw-line rgb-template_26" d="M772.104 376.822L813.837 384.261" stroke="#6685D4" stroke-width="8" stroke-miterlimit="10" stroke-linecap="round" stroke-linejoin="round"/>
<path id="draw-line rgb-template_27" d="M504.181 212.473L440.198 184.72" stroke="#6685D4" stroke-width="8" stroke-miterlimit="10" stroke-linecap="round" stroke-linejoin="round"/>
<path id="draw-line rgb-template_28" d="M490.232 243.66L440.198 251.782" stroke="#6685D4" stroke-width="8" stroke-miterlimit="10" stroke-linecap="round" stroke-linejoin="round"/>
<path id="draw-line rgb-template_29" d="M612.099 251.782L645.399 222.337" stroke="#6685D4" stroke-width="8" stroke-miterlimit="10" stroke-linecap="round" stroke-linejoin="round"/>
<path id="draw-line rgb-template_30" d="M612.099 294.493L659.555 304.357" stroke="#6685D4" stroke-width="8" stroke-miterlimit="10" stroke-linecap="round" stroke-linejoin="round"/>
<path id="draw-line rgb-template_31" d="M587.308 190.352L635.836 176.061" stroke="#6685D4" stroke-width="8" stroke-miterlimit="10" stroke-linecap="round" stroke-linejoin="round"/>
<path id="draw-line rgb-template_32" d="M480.707 310.51H440.198" stroke="#6685D4" stroke-width="8" stroke-miterlimit="10" stroke-linecap="round" stroke-linejoin="round"/>
<path id="draw-line rgb-template_33" d="M625.389 566.564L676.666 555.952" stroke="#6685D4" stroke-width="8" stroke-miterlimit="10" stroke-linecap="round" stroke-linejoin="round"/>
<path id="draw-line rgb-template_34" d="M625.389 590.28H676.666" stroke="#6685D4" stroke-width="8" stroke-miterlimit="10" stroke-linecap="round" stroke-linejoin="round"/>
</g>
</g>
<g id="step s-multistep-brush shadow-size-20">
<g id="input_4">
<path id="draw-line d2 rgb-template" d="M718.738 772.795L740.348 783.407" stroke="#6685D4" stroke-width="8" stroke-miterlimit="10" stroke-linecap="round" stroke-linejoin="round"/>
<path id="draw-line d2 rgb-template_2" d="M740.348 794.167V810.527" stroke="#6685D4" stroke-width="8" stroke-miterlimit="10" stroke-linecap="round" stroke-linejoin="round"/>
<path id="draw-line d2 rgb-template_3" d="M751.473 810.525L769.148 816.499" stroke="#6685D4" stroke-width="8" stroke-miterlimit="10" stroke-linecap="round" stroke-linejoin="round"/>
<path id="draw-line d2 rgb-template_4" d="M760.32 826.997L754.089 840.589" stroke="#6685D4" stroke-width="8" stroke-miterlimit="10" stroke-linecap="round" stroke-linejoin="round"/>
<path id="draw-line d2 rgb-template_5" d="M760.32 854.701L775.04 860.968" stroke="#6685D4" stroke-width="8" stroke-miterlimit="10" stroke-linecap="round" stroke-linejoin="round"/>
<path id="draw-line d2 rgb-template_6" d="M765.233 871.157L760.32 888.997" stroke="#6685D4" stroke-width="8" stroke-miterlimit="10" stroke-linecap="round" stroke-linejoin="round"/>
<path id="draw-line d2 rgb-template_7" d="M757.195 903.988L769.148 906.251" stroke="#6685D4" stroke-width="8" stroke-miterlimit="10" stroke-linecap="round" stroke-linejoin="round"/>
<path id="draw-line d1 rgb-template" d="M650.801 791.334L655.884 805.479" stroke="#6685D4" stroke-width="8" stroke-miterlimit="10" stroke-linecap="round" stroke-linejoin="round"/>
<path id="draw-line d1 rgb-template_2" d="M645.399 812.25L630.998 831.522" stroke="#6685D4" stroke-width="8" stroke-miterlimit="10" stroke-linecap="round" stroke-linejoin="round"/>
<path id="draw-line d1 rgb-template_3" d="M638.208 840.589L650.801 852.845" stroke="#6685D4" stroke-width="8" stroke-miterlimit="10" stroke-linecap="round" stroke-linejoin="round"/>
<path id="draw-line d1 rgb-template_4" d="M644.495 863.8L638.208 877.391" stroke="#6685D4" stroke-width="8" stroke-miterlimit="10" stroke-linecap="round" stroke-linejoin="round"/>
<path id="draw-line d1 rgb-template_5" d="M650.801 883.039L668.327 894.938" stroke="#6685D4" stroke-width="8" stroke-miterlimit="10" stroke-linecap="round" stroke-linejoin="round"/>
<path id="draw-line d1 rgb-template_6" d="M674.388 911.003L682.049 922.674" stroke="#6685D4" stroke-width="8" stroke-miterlimit="10" stroke-linecap="round" stroke-linejoin="round"/>
<path id="draw-line rgb-template_35" d="M682.049 783.407L698.201 791.334" stroke="#6685D4" stroke-width="8" stroke-miterlimit="10" stroke-linecap="round" stroke-linejoin="round"/>
<path id="draw-line rgb-template_36" d="M687.64 810.525L682.049 822.472" stroke="#6685D4" stroke-width="8" stroke-miterlimit="10" stroke-linecap="round" stroke-linejoin="round"/>
<path id="draw-line rgb-template_37" d="M706.295 822.472L722.126 831.522" stroke="#6685D4" stroke-width="8" stroke-miterlimit="10" stroke-linecap="round" stroke-linejoin="round"/>
<path id="draw-line rgb-template_38" d="M693.363 844.446L686.002 857.94" stroke="#6685D4" stroke-width="8" stroke-miterlimit="10" stroke-linecap="round" stroke-linejoin="round"/>
<path id="draw-line rgb-template_39" d="M714.201 860.968L728.564 871.157" stroke="#6685D4" stroke-width="8" stroke-miterlimit="10" stroke-linecap="round" stroke-linejoin="round"/>
<path id="draw-line rgb-template_40" d="M703.678 877.391L693.363 894.938" stroke="#6685D4" stroke-width="8" stroke-miterlimit="10" stroke-linecap="round" stroke-linejoin="round"/>
<path id="draw-line rgb-template_41" d="M718.738 894.938L735.547 908.529" stroke="#6685D4" stroke-width="8" stroke-miterlimit="10" stroke-linecap="round" stroke-linejoin="round"/>
<path id="draw-line rgb-template_42" d="M714.201 911.003L710.229 922.674" stroke="#6685D4" stroke-width="8" stroke-miterlimit="10" stroke-linecap="round" stroke-linejoin="round"/>
</g>
</g>
<g id="step s-multistep-brush">
<g id="input_5">
<path id="draw-line d2 rgb-template_8" d="M1022.16 486.872C1015.86 531.129 1002.47 620.979 991.103 670.184C975.31 738.58 937.812 869.041 917.614 925.799" stroke="#6685D4" stroke-width="8" stroke-miterlimit="10" stroke-linecap="round" stroke-linejoin="round"/>
<path id="draw-line d1 rgb-template_7" d="M885.18 362.01L876.766 921.616" stroke="#6685D4" stroke-width="8" stroke-miterlimit="10" stroke-linecap="round" stroke-linejoin="round"/>
<path id="draw-line rgb-template_43" d="M735.547 484.853L782.231 670.184C782.231 670.184 833.301 908.529 833.301 910.808" stroke="#6685D4" stroke-width="8" stroke-miterlimit="10" stroke-linecap="round" stroke-linejoin="round"/>
</g>
</g>
<g id="step s-multistep-brush shadow-size-35">
<g id="input_6">
<path id="draw-line d2 rgb-template_9" d="M440.198 339.271C451.116 375.943 455.709 418.915 459.455 440.303C465.93 477.333 459.36 483.616 467.963 557.498C476.49 630.729 477.695 623.29 478.429 644.125C480.443 700.834 470.26 719.911 467.963 772.502C466.721 800.84 479.446 865.33 490.232 915.317" stroke="#6685D4" stroke-width="8" stroke-miterlimit="10" stroke-linecap="round" stroke-linejoin="round"/>
<path id="draw-line d1 rgb-template_8" d="M423.482 334.323C411.886 398.748 426.305 438.35 433.176 471.457C437.016 489.916 430.748 531.552 432.63 564.302C435.096 607.338 428.564 639.372 426.738 649.219C419.34 689.228 423.576 782.512 440.235 926.629" stroke="#6685D4" stroke-width="8" stroke-miterlimit="10" stroke-linecap="round" stroke-linejoin="round"/>
<path id="draw-line rgb-template_44" d="M405.542 334.323C403.001 346.238 398.879 376.66 395.942 400.115C392.667 426.24 387.904 477.252 395.942 576.754C401.156 641.39 397.166 629.898 398.54 665.936C401.156 734.674 397.636 765.389 395.942 859.828C395.547 882.291 393.175 912.241 393.363 922.674" stroke="#6685D4" stroke-width="8" stroke-miterlimit="10" stroke-linecap="round" stroke-linejoin="round"/>
</g>
</g>
<g id="step s-multistep-brush shadow-size-30_2">
<g id="input_7">
<path id="draw-line d2 rgb-template_10" d="M310.18 549.571C309.766 576.9 299.713 631.526 300.353 673.554C301.012 716.623 310.01 740.973 326.538 765.275C336.985 780.64 353.795 804.047 363.207 810.525" stroke="#6685D4" stroke-width="8" stroke-miterlimit="10" stroke-linecap="round" stroke-linejoin="round"/>
<path id="draw-line d1 rgb-template_9" d="M324.994 554.129C324.75 575.582 324.862 626.155 325.22 657.146C325.615 691.377 326.312 707.735 333.729 728.489C339.526 744.684 365.466 769.653 371.057 777.743" stroke="#6685D4" stroke-width="8" stroke-miterlimit="10" stroke-linecap="round" stroke-linejoin="round"/>
<path id="draw-line rgb-template_45" d="M335.705 361.424C332.994 369.205 321.192 425.133 333.54 451.078C339.395 463.384 352.722 468.186 359.273 471.457" stroke="#6685D4" stroke-width="8" stroke-miterlimit="10" stroke-linecap="round" stroke-linejoin="round"/>
</g>
</g>
<g id="step s-multistep-brush_2">
<g id="input_8">
<path id="draw-line d3 rgb-template" d="M733.5 315.5C721.453 321.816 700.045 332.142 682.953 346.368C635.836 385.58 620.89 427.819 607.845 464.654C594.612 502.042 598.734 511.89 604.381 517.163C615.996 528.004 650.717 529.079 659 527.5" stroke="#6685D4" stroke-width="8" stroke-miterlimit="10" stroke-linecap="round" stroke-linejoin="round"/>
<path id="draw-line d2 rgb-template_11" d="M535 185C526.962 200.772 514.026 227.399 505.272 253.198C499.456 270.354 500.981 343.357 505.272 441.312C506.345 465.63 518.355 496.719 535.843 501.472C553.18 506.176 567.395 494.785 575 490" stroke="#6685D4" stroke-width="8" stroke-miterlimit="10" stroke-linecap="round" stroke-linejoin="round"/>
<path id="draw-line d1 rgb-template_10" d="M519.183 516C518.958 523.129 518.732 541.612 519.183 555.952C520.991 612.84 522.835 652.996 552.427 680.064C559.335 686.38 573.905 699.727 592.691 697.823C612.965 695.772 630.231 664.479 632 661.5" stroke="#6685D4" stroke-width="8" stroke-miterlimit="10" stroke-linecap="round" stroke-linejoin="round"/>
<path id="draw-line rgb-template_46" d="M531.5 703.5C529.411 706.951 518.939 721.913 518.939 729.189C518.939 777.743 519.202 801.801 526.901 844.447C531.664 870.815 543.052 886.197 558.187 898.617C564.361 903.695 575.43 912.517 588.776 910.792C595.289 909.946 606.063 903.311 609 901" stroke="#6685D4" stroke-width="8" stroke-miterlimit="10" stroke-linecap="round" stroke-linejoin="round"/>
</g>
</g>
<g id="step s-multistep-brush shadow-size-40_2">
<g id="input_9">
<path id="draw-line d3 rgb-template_2" d="M645.888 772.795C639.846 779.175 622.885 806.846 621.022 821.333C618.085 844.3 619.873 854.408 623.149 868.895C625.634 879.947 626.424 883.511 635.159 896.354C645.888 912.127 669.607 932.636 682.049 936.607" stroke="#6685D4" stroke-width="8" stroke-miterlimit="10" stroke-linecap="round" stroke-linejoin="round"/>
<path id="draw-line d2 rgb-template_12" d="M670.943 777.743C668.44 786.875 667.649 800.14 666.614 811.713C664.863 831.116 666.576 851.527 669.437 867.218C670.868 875.08 673.541 882.73 677.325 889.973C686.228 907.048 699.01 927.948 706.314 938.137" stroke="#6685D4" stroke-width="8" stroke-miterlimit="10" stroke-linecap="round" stroke-linejoin="round"/>
<path id="draw-line d1 rgb-template_11" d="M698.2 772.795C720.469 785.247 725.439 803.428 732.159 817.296C740.63 834.827 743.322 844.609 745.411 867.397C746.559 879.93 746.409 918.165 742.305 932.88" stroke="#6685D4" stroke-width="8" stroke-miterlimit="10" stroke-linecap="round" stroke-linejoin="round"/>
<path id="draw-line rgb-template_47" d="M710.229 761.32C724.535 763.582 735.773 766.984 751.83 780.575C761.223 788.518 770.146 799.978 775.059 810.574C779.408 819.966 782.589 837.545 783.568 855.303C784.038 863.914 782.325 897.77 772.179 915.317" stroke="#6685D4" stroke-width="8" stroke-miterlimit="10" stroke-linecap="round" stroke-linejoin="round"/>
</g>
</g>
<g id="step s-multistep-brush_3">
<g id="input_10">
<path id="draw-line rgb-template flip" d="M787.163 900.033C803.22 905.567 821.498 910.89 841.828 915.317C878.479 923.293 911.571 926.109 938.735 926.646C944.608 921.519 951.158 914.796 957.069 906.267C970.773 886.49 973.973 867.267 974.745 855.873C978.491 854.62 983.969 852.732 990.463 850.209C1006.67 843.926 1014.84 840.67 1018.62 835.494C1024.03 828.088 1024.7 816.531 1018.62 811.713C1015.37 809.125 1010.12 808.865 999.631 808.311C994.416 808.035 990.106 808.165 987.188 808.311C991.197 796.462 997.165 778.606 1004.2 756.794C1018.44 712.7 1025.68 690.075 1032.37 662.241C1035.72 648.259 1040.22 627.668 1044.15 602.227C1055.61 600.307 1062.31 596.27 1066.42 592.608C1077.9 582.321 1081.48 563.732 1081.48 563.732C1085.19 555.235 1082.12 546.625 1075.59 543.353C1068.66 539.886 1059.92 543.483 1058.89 543.923C1054.5 545.795 1051.92 548.594 1050.7 550.157C1050.15 537.119 1047.73 526.539 1045.47 519.019C1040.69 503.165 1037.62 493.008 1027.13 488.451C1019.75 485.244 1010.57 485.618 1003.56 488.451C987.621 494.896 983.574 513.957 981.955 521.282C970.547 573.368 948.918 623.795 941.351 676.402C937.191 705.359 930.565 747.679 920.4 799.831C929.981 754.158 937.831 702.136 941.351 644.711C945.267 581.035 943.083 523.349 938.076 473.166C941.426 471.588 944.796 470.009 948.147 468.43C951.987 466.997 955.846 465.549 959.686 464.116C963.319 463.303 978.171 459.624 986.529 447.123C988.882 443.607 995.922 433.076 990.463 422.219C985.249 411.883 972.618 409.019 970.83 408.628C955.149 405.307 943.045 414.602 942.029 415.415C948.222 407.44 951.742 400.196 953.813 395.037C957.333 386.214 959.611 380.306 957.088 373.518C956.843 372.851 953.079 363.101 945.304 361.636C936.777 360.025 924.541 368.57 919.12 384.277C918.329 382.194 913.454 369.97 898.828 364.468C884.107 358.934 870.516 364.354 867.391 365.608C849.603 372.704 838.835 391.57 839.889 413.169C836.125 410.907 832.379 408.644 828.614 406.382C819.842 402.736 809.357 404.656 803.22 410.907C796.726 417.531 796.65 427.509 803.22 434.411C811.691 441.67 820.143 448.946 828.614 456.206L841.207 832.695C833.282 773.56 828.764 726.112 826.148 694.551C826.148 694.551 819.672 616.6 784.245 520.175C781.629 513.078 775.04 495.971 757.402 488.467C755.821 487.8 739.501 481.093 726.625 487.328C714.766 493.09 711.641 507.023 710.248 525.253C708.61 546.723 708.968 579.277 720.074 620.93C718.813 620.132 712.074 616.014 703.697 617.528C694.511 619.204 689.24 626.594 687.979 632.535C685.494 644.19 697.899 653.175 701.081 655.47C711.904 663.299 724.498 663.494 728.583 663.397C734.794 693.786 741.025 724.159 747.237 754.548" stroke="#6685D4" stroke-width="8" stroke-miterlimit="10" stroke-linecap="round" stroke-linejoin="round"/>
</g>
</g>
<g id="step s-multistep-brush_4">
<g id="input_11">
<path id="draw-line rgb-template flip_2" d="M519.183 891.536C515.569 898.34 510.506 904.558 490.213 915.317C483.041 919.109 443.191 932.099 416.875 927.769C393.213 923.879 366.784 915.317 362.529 910.792L364.487 830.399C355.809 821.447 336.515 813.439 325.785 798.268C315.262 783.407 300.899 760.213 289.774 729.205C289.774 729.205 272.682 653.565 292.466 576.2C295.327 564.985 299.864 551.882 310.142 549.587C318.801 547.667 330.585 556.831 333.503 564.302C340.355 581.848 339.489 613.198 337.305 626.008C334.651 641.52 334.538 672.968 352.703 716.02C358.219 729.091 357.71 738.662 363.828 745.84L361.871 490.697C354.36 488.386 346.152 489.004 333.522 478.245C325.032 471.002 308.824 459.201 307.789 436.917C305.794 393.816 313.022 378.076 316.712 368.977C319.931 361.017 323.3 356.671 327.837 355.955C334.689 354.881 342.783 362.352 346.83 368.977C360.402 391.195 334.387 413.771 347.489 434.362C351.8 441.117 358.614 444.991 363.207 447.107C365.108 433.369 367.48 417.385 370.417 399.545C375.575 368.163 378.248 356.948 388.751 346.319C393.006 342.022 401.401 333.509 414.296 332.158C433.327 330.156 448.687 345.196 456.198 352.537C476.585 372.493 479.86 396.599 480.387 408.286" stroke="#6685D4" stroke-width="8" stroke-miterlimit="10" stroke-linecap="round" stroke-linejoin="round"/>
</g>
</g>
<g id="step s-multistep-brush shadow-size-40_3">
<g id="input_12">
<path id="draw-line d1 rgb-template_12" d="M541.942 184.281C545.029 184.688 549.547 184.997 554.855 184.281C571.74 182.002 582.075 171.194 593.595 159.165C602.706 149.643 605.68 144.842 609.2 134.978C609.803 133.301 614.433 121.272 605.341 117.171C601.031 115.217 592.917 123.942 590.357 124.739C590.414 122.249 590.301 108.723 589.284 104.279C587.816 97.8497 586.009 89.9228 580.136 87.53C573.152 84.6978 563.608 90.997 559.693 93.5688C544.803 103.4 539.946 118.408 538.177 126.595C536.031 122.509 530.534 113.525 518.807 107.518C509.79 102.896 491.87 97.3614 481.686 104.263C469.036 112.825 475.606 135.612 481.686 147.055C494.11 170.494 530.026 181.237 538.346 183.532" stroke="#6685D4" stroke-width="8" stroke-miterlimit="10" stroke-linecap="round" stroke-linejoin="round"/>
<path id="draw-line rgb-template_48" d="M770.165 331.149C765.609 330.53 757.873 328.919 749.967 324.28C745.92 321.904 739.312 318.03 735.322 310.64C729.9 300.629 730.427 275.986 736.94 267.343C737.806 266.187 745.788 255.119 751.19 257.674C766.645 265.015 760.847 281.732 759.793 296.349C760.188 294.265 769.544 276.523 777.563 268.971C782.005 264.787 791.191 257.967 802.373 265.797C811.446 272.145 799.248 285.622 796.857 288.682C794.147 292.149 781.158 301.557 771.163 309.305C774.72 309.761 794.053 294.461 805.479 296.186C819.371 298.286 823.644 302.062 822.703 311.763C821.649 322.669 790.42 333.574 771.52 331.442" stroke="#6685D4" stroke-width="8" stroke-miterlimit="10" stroke-linecap="round" stroke-linejoin="round"/>
</g>
</g>
<g id="step s-multistep-brush_5">
<g id="input_13">
<path id="draw-line d3 rgb-template_3" d="M732.159 304.357C723.029 306.343 708.761 310.168 693.193 317.948C646.133 341.452 625.427 381.95 604.965 421.975C595.892 439.717 592.108 450.965 584.522 473.459C569.331 518.563 573.453 526.946 577.293 531.39C587.232 542.865 608.974 543.711 622.471 541.579C642.218 538.454 662.792 534.726 687.621 508.813C704.601 491.088 719.886 466.818 742.286 440.873C753.656 428.893 765.628 403.908 772.085 376.822C773.873 369.319 774.739 338.116 775.04 331.702" stroke="#6685D4" stroke-width="8" stroke-miterlimit="10" stroke-linecap="round" stroke-linejoin="round"/>
<path id="draw-line d2 rgb-template_13" d="M523.287 179.87C516.322 190.776 501.263 215.061 492.359 237.979C475.041 282.546 483.549 294.233 479.258 418.589C478.316 446.13 477.074 469.374 494.317 491.055C497.762 495.385 516.19 518.563 540.812 517.098C556.756 516.154 571.119 507.055 574.865 497.843C583.505 476.617 588.117 457.85 604.984 421.975C614.019 402.768 610.593 377.539 611.534 332.516C612.532 284.434 612.927 259.937 606.941 237.963C598.885 208.355 588.08 190.173 577.896 176.061" stroke="#6685D4" stroke-width="8" stroke-miterlimit="10" stroke-linecap="round" stroke-linejoin="round"/>
<path id="draw-line d1 rgb-template_13" d="M501.639 501.456C497.875 514.673 494.637 530.429 494.147 553.543C493.564 581.197 498.552 600.29 508.548 637.337C523.287 691.947 533.659 701.745 539.984 706.694C544.747 710.421 565.171 721.327 590.395 722.271C612.099 723.068 621.135 703.096 625.088 697.367C639.639 676.239 634.575 654.167 632.937 648.112C626.104 607.29 624.862 588.848 625.088 579.602C625.144 577.551 625.577 562.3 625.577 541.595" stroke="#6685D4" stroke-width="8" stroke-miterlimit="10" stroke-linecap="round" stroke-linejoin="round"/>
<path id="draw-line rgb-template_49" d="M524.417 688.17C518.11 691.312 513.894 696.618 506.854 705.587C494.58 721.213 498.571 733.681 499.399 750.414C503.409 832.271 499.813 836.406 507.908 863.214C515.494 888.346 523.287 900.033 532.134 909.066C541.17 918.295 556.135 933.596 577.971 932.847C601.671 932.033 616.259 912.891 618.236 910.206" stroke="#6685D4" stroke-width="8" stroke-miterlimit="10" stroke-linecap="round" stroke-linejoin="round"/>
</g>
</g>
<g id="step s-multistep-brush shadow-size-40_4">
<g id="input_14">
<path id="draw-line rgb-template_50" d="M647.206 769.963C652.477 771.509 661.757 773.56 673.24 772.518C679.132 771.981 688.694 771.102 697.786 765.307C710.135 757.446 725.759 731.402 724.46 719.211C724.291 717.583 723.048 702.136 715.613 702.234C694.342 702.478 689.541 722.759 681.071 738.564C682.012 736.188 683.687 713.123 680.111 701.338C678.134 694.828 672.807 683.255 655.771 686.054C641.935 688.317 646.077 708.305 646.623 712.667C647.225 717.616 654.905 733.714 660.458 746.638C656.355 745.4 645.813 720.073 632.504 716.362C616.335 711.853 609.294 713.758 603.93 724.354C597.906 736.269 624.015 762.736 645.531 769.605" stroke="#6685D4" stroke-width="8" stroke-miterlimit="10" stroke-linecap="round" stroke-linejoin="round"/>
</g>
</g>
<g id="step s-multistep-brush_6">
<g id="input_15">
<path id="draw-line rgb-template_51" d="M638.039 768.237C631.526 772.86 624.655 778.752 616.767 789.918C604.908 806.716 600.24 823.807 599.242 830.969C598 839.873 593.294 871.239 612.118 899.479C616.975 906.755 626.933 924.383 663.809 933.889C671.527 935.875 705.655 940.042 727.754 937.258C755.765 933.743 776.132 912.436 780.631 906.267C790.871 892.204 794.222 877.44 796.669 862.107C799.116 846.807 801.281 827.518 790.118 802.094C785.412 791.383 770.692 774.846 753.28 763.598C735.773 752.269 722.295 750.984 713.881 750.739" stroke="#6685D4" stroke-width="8" stroke-miterlimit="10" stroke-linecap="round" stroke-linejoin="round"/>
</g>
</g>
</g>
<defs>
<clipPath id="clip0">
<rect width="1366" height="1024" fill="white"/>
</clipPath>
</defs>
</svg>
