<svg width="1366" height="1024" viewBox="0 0 1366 1024" fill="none" xmlns="http://www.w3.org/2000/svg">
<g id="2" clip-path="url(#clip0)">
<g id="step-1">
<g id="input">
<path id="draw-line" d="M682.5 173C745.424 173 805.777 197.971 850.306 242.43C894.835 286.89 919.901 347.203 920 410.127C920.099 473.051 895.222 533.443 850.833 578.042C806.444 622.641 746.17 647.801 683.246 647.999C620.322 648.197 559.891 623.415 515.223 579.096C470.554 534.777 445.299 474.543 445.003 411.619C444.706 348.696 469.393 288.226 513.641 243.488C557.89 198.75 618.085 173.4 681.008 173.005" stroke="#AAAAFF" stroke-width="10" stroke-linecap="round"/>
</g>
<g id="template">
<path id="neutral" d="M682.5 173C745.424 173 805.777 197.971 850.306 242.43C894.835 286.89 919.901 347.203 920 410.127C920.099 473.051 895.222 533.443 850.833 578.042C806.444 622.641 746.17 647.801 683.246 647.999C620.322 648.197 559.891 623.415 515.223 579.096C470.554 534.777 445.299 474.543 445.003 411.619C444.706 348.696 469.393 288.226 513.641 243.488C557.89 198.75 618.085 173.4 681.008 173.005" stroke="#00FF00" stroke-width="100" stroke-linecap="round"/>
<path id="good" d="M682.5 173C745.424 173 805.777 197.971 850.306 242.43C894.835 286.89 919.901 347.203 920 410.127C920.099 473.051 895.222 533.443 850.833 578.042C806.444 622.641 746.17 647.801 683.246 647.999C620.322 648.197 559.891 623.415 515.223 579.096C470.554 534.777 445.299 474.543 445.003 411.619C444.706 348.696 469.393 288.226 513.641 243.488C557.89 198.75 618.085 173.4 681.008 173.005" stroke="#0000FF" stroke-width="10" stroke-linecap="round"/>
</g>
</g>
<g id="step-2">
<g id="input_2">
<path id="prev" d="M682.5 173C745.424 173 805.777 197.971 850.306 242.43C894.835 286.89 919.901 347.203 920 410.127C920.099 473.051 895.222 533.443 850.833 578.042C806.444 622.641 746.17 647.801 683.246 647.999C620.322 648.197 559.891 623.415 515.223 579.096C470.554 534.777 445.299 474.543 445.003 411.619C444.706 348.696 469.393 288.226 513.641 243.488C557.89 198.75 618.085 173.4 681.008 173.005" stroke="#EEEEFF" stroke-width="10" stroke-linecap="round"/>
<g id="blink d3">
<line id="Line 6" x1="999" y1="254.5" x2="500" y2="254.5" stroke="#CCCCCC" stroke-width="5" stroke-dasharray="10 10"/>
</g>
<line id="blink d1" x1="999" y1="174.5" x2="688" y2="174.5" stroke="#CCCCCC" stroke-width="5" stroke-dasharray="10 10"/>
<line id="blink d1_2" x1="999" y1="414.5" x2="446" y2="414.5" stroke="#CCCCCC" stroke-width="5" stroke-dasharray="10 10"/>
<g id="appear d2">
<line id="Line 10" x1="999.001" y1="494.499" x2="976.001" y2="494.499" stroke="#EEEEEE" stroke-width="5"/>
<line id="Line 11" x1="999.001" y1="574.499" x2="976.001" y2="574.499" stroke="#EEEEEE" stroke-width="5"/>
<line id="Line 12" x1="999.001" y1="654.499" x2="956.001" y2="654.499" stroke="#EEEEEE" stroke-width="5"/>
<line id="Line 13" x1="996.501" y1="652.999" x2="996.501" y2="416.999" stroke="#EEEEEE" stroke-width="5"/>
</g>
<g id="appear d2_2">
<line id="Line 5" x1="999.001" y1="174.499" x2="956.001" y2="174.499" stroke="#555555" stroke-width="5"/>
<line id="Line 4" x1="999.001" y1="254.499" x2="976.001" y2="254.499" stroke="#555555" stroke-width="5"/>
<line id="Line 3" x1="999.001" y1="334.499" x2="976.001" y2="334.499" stroke="#555555" stroke-width="5"/>
<line id="Line 2" x1="999.001" y1="414.499" x2="956.001" y2="414.499" stroke="#555555" stroke-width="5"/>
<line id="Line 1" x1="996.501" y1="412.999" x2="996.501" y2="171.999" stroke="#555555" stroke-width="5"/>
<path id="~1/3" d="M1021.92 216.255C1021.92 217.466 1021.62 218.449 1021.02 219.204C1020.41 219.959 1019.63 220.337 1018.67 220.337C1018.19 220.337 1017.74 220.246 1017.33 220.063C1016.91 219.875 1016.44 219.523 1015.9 219.009C1015.36 218.488 1014.86 218.227 1014.41 218.227C1014.03 218.227 1013.72 218.39 1013.49 218.716C1013.25 219.041 1013.14 219.458 1013.14 219.966L1011.04 219.946C1011.04 218.735 1011.33 217.762 1011.91 217.026C1012.51 216.291 1013.29 215.923 1014.27 215.923C1014.78 215.923 1015.24 216.02 1015.66 216.216C1016.07 216.411 1016.54 216.763 1017.07 217.27C1017.61 217.772 1018.09 218.022 1018.53 218.022C1018.91 218.022 1019.22 217.85 1019.46 217.505C1019.71 217.16 1019.83 216.74 1019.83 216.245L1021.92 216.255ZM1030.79 223.999H1027.97V213.12L1024.6 214.165V211.87L1030.49 209.761H1030.79V223.999ZM1036.43 225.22H1034.33L1039.56 209.78H1041.66L1036.43 225.22ZM1045.77 215.64H1047.28C1047.99 215.64 1048.52 215.461 1048.87 215.102C1049.21 214.744 1049.39 214.269 1049.39 213.677C1049.39 213.104 1049.21 212.658 1048.87 212.339C1048.53 212.02 1048.06 211.86 1047.46 211.86C1046.92 211.86 1046.47 212.01 1046.1 212.31C1045.74 212.602 1045.56 212.987 1045.56 213.462H1042.74C1042.74 212.72 1042.93 212.056 1043.33 211.47C1043.73 210.877 1044.29 210.415 1045.01 210.083C1045.73 209.751 1046.53 209.585 1047.39 209.585C1048.9 209.585 1050.08 209.946 1050.93 210.669C1051.78 211.385 1052.21 212.375 1052.21 213.638C1052.21 214.289 1052.01 214.888 1051.61 215.435C1051.22 215.981 1050.69 216.401 1050.05 216.694C1050.85 216.981 1051.45 217.41 1051.84 217.983C1052.23 218.556 1052.43 219.233 1052.43 220.015C1052.43 221.278 1051.97 222.29 1051.05 223.052C1050.13 223.813 1048.91 224.194 1047.39 224.194C1045.97 224.194 1044.81 223.82 1043.91 223.071C1043.01 222.323 1042.56 221.333 1042.56 220.102H1045.38C1045.38 220.636 1045.58 221.073 1045.98 221.411C1046.38 221.75 1046.88 221.919 1047.46 221.919C1048.13 221.919 1048.66 221.743 1049.03 221.392C1049.42 221.033 1049.61 220.561 1049.61 219.976C1049.61 218.556 1048.83 217.847 1047.27 217.847H1045.77V215.64Z" fill="#555555"/>
</g>
<path id="draw-line d5" d="M516 578C510.5 578 490.964 499.75 487 418.5C483 336.5 494 261.5 499.5 261.5C507 261.5 523.373 335.5 528.5 416.5C532.804 484.5 524.5 570.5 517 576" stroke="#AAAAFF" stroke-width="10" stroke-linecap="round"/>
<path id="draw-line d6" d="M849.68 577.5C855.18 577.5 874.716 499.25 878.68 418C882.68 336 871.68 261 866.18 261C858.68 261 842.306 335 837.18 416C832.876 484 841.18 570 848.68 575.5" stroke="#AAAAFF" stroke-width="10" stroke-linecap="round"/>
</g>
<g id="template_2">
<path id="neutral_2" d="M682.5 173C745.424 173 805.777 197.971 850.306 242.43C894.835 286.89 919.901 347.203 920 410.127C920.099 473.051 895.222 533.443 850.833 578.042C806.444 622.641 746.17 647.801 683.246 647.999C620.322 648.197 559.891 623.415 515.223 579.096C470.554 534.777 445.299 474.543 445.003 411.619C444.706 348.696 469.393 288.226 513.641 243.488C557.89 198.75 618.085 173.4 681.008 173.005" stroke="#00FF00" stroke-width="100" stroke-linecap="round"/>
<path id="n" d="M503.415 258.734C536.68 361.041 543.044 470.172 521.893 575.651" stroke="#00FF00" stroke-width="100" stroke-linecap="round"/>
<path id="n_2" d="M494.791 259.214C473.036 364.582 478.819 473.746 511.584 576.225" stroke="#00FF00" stroke-width="100" stroke-linecap="round"/>
<path id="n_3" d="M862.312 259.718C829.046 362.024 822.683 471.155 843.834 576.634" stroke="#00FF00" stroke-width="100" stroke-linecap="round"/>
<path id="n_4" d="M870.936 260.197C892.69 365.565 886.908 474.729 854.143 577.208" stroke="#00FF00" stroke-width="100" stroke-linecap="round"/>
<path id="g" d="M498.66 260.28C531.66 361.77 537.972 470.031 516.991 574.668" stroke="#0000FF" stroke-width="10" stroke-linecap="round"/>
<path id="g_2" d="M499.688 260.225C478.107 364.751 483.843 473.042 516.347 574.702" stroke="#0000FF" stroke-width="10" stroke-linecap="round"/>
<path id="g_3" d="M867.067 261.264C834.067 362.754 827.754 471.014 848.736 575.651" stroke="#0000FF" stroke-width="10" stroke-linecap="round"/>
<path id="g_4" d="M866.039 261.208C887.62 365.734 881.883 474.025 849.38 575.685" stroke="#0000FF" stroke-width="10" stroke-linecap="round"/>
</g>
</g>
<g id="step-3">
<g id="input_3">
<g id="prev_2">
<path id="prev_3" d="M682.5 173C745.424 173 805.777 197.971 850.306 242.43C894.835 286.89 919.901 347.203 920 410.127C920.099 473.051 895.222 533.443 850.833 578.042C806.444 622.641 746.17 647.801 683.246 647.999C620.322 648.197 559.891 623.415 515.223 579.096C470.554 534.777 445.299 474.543 445.003 411.619C444.706 348.696 469.393 288.226 513.641 243.488C557.89 198.75 618.085 173.4 681.008 173.005" stroke="#EEEEFF" stroke-width="10" stroke-linecap="round"/>
<path id="a" d="M516 578C510.5 578 490.964 499.75 487 418.5C483 336.5 494 261.5 499.5 261.5C507 261.5 523.373 335.5 528.5 416.5C532.804 484.5 524.5 570.5 517 576" stroke="#EEEEFF" stroke-width="10" stroke-linecap="round"/>
<path id="a_2" d="M849.68 577.5C855.18 577.5 874.716 499.25 878.68 418C882.68 336 871.68 261 866.18 261C858.68 261 842.306 335 837.18 416C832.876 484 841.18 570 848.68 575.5" stroke="#EEEEFF" stroke-width="10" stroke-linecap="round"/>
</g>
<line id="draw-line_2" x1="5" y1="-5" x2="467" y2="-5" transform="matrix(1 0 0 -1 447 410)" stroke="#AAAAFF" stroke-width="10" stroke-linecap="round"/>
</g>
<g id="template_3">
<path id="neutral_3" d="M682.5 173C745.424 173 805.777 197.971 850.306 242.43C894.835 286.89 919.901 347.203 920 410.127C920.099 473.051 895.222 533.443 850.833 578.042C806.444 622.641 746.17 647.801 683.246 647.999C620.322 648.197 559.891 623.415 515.223 579.096C470.554 534.777 445.299 474.543 445.003 411.619C444.706 348.696 469.393 288.226 513.641 243.488C557.89 198.75 618.085 173.4 681.008 173.005" stroke="#00FF00" stroke-width="100" stroke-linecap="round"/>
<path id="n_5" d="M503.415 258.734C536.68 361.041 543.044 470.172 521.893 575.651" stroke="#00FF00" stroke-width="100" stroke-linecap="round"/>
<path id="n_6" d="M494.791 259.214C473.036 364.582 478.819 473.746 511.584 576.225" stroke="#00FF00" stroke-width="100" stroke-linecap="round"/>
<path id="n_7" d="M862.312 259.718C829.046 362.024 822.683 471.155 843.834 576.634" stroke="#00FF00" stroke-width="100" stroke-linecap="round"/>
<path id="n_8" d="M870.936 260.197C892.69 365.565 886.908 474.729 854.143 577.208" stroke="#00FF00" stroke-width="100" stroke-linecap="round"/>
<path id="neutral_4" d="M913.5 415L452 415" stroke="#00FF00" stroke-width="100" stroke-linecap="round"/>
<line id="good_2" x1="914" y1="415" x2="452" y2="415" stroke="#0000FF" stroke-width="10" stroke-linecap="round"/>
</g>
</g>
<g id="step-4">
<g id="input_4">
<g id="prev_4">
<g id="prev_5">
<path id="prev_6" d="M682.5 173C745.424 173 805.777 197.971 850.306 242.43C894.835 286.89 919.901 347.203 920 410.127C920.099 473.051 895.222 533.443 850.833 578.042C806.444 622.641 746.17 647.801 683.246 647.999C620.322 648.197 559.891 623.415 515.223 579.096C470.554 534.777 445.299 474.543 445.003 411.619C444.706 348.696 469.392 288.226 513.641 243.488C557.89 198.75 618.085 173.4 681.008 173.005" stroke="#EEEEFF" stroke-width="10" stroke-linecap="round"/>
<path id="a_3" d="M516 578C510.5 578 490.964 499.75 487 418.5C483 336.5 494 261.5 499.5 261.5C507 261.5 523.373 335.5 528.5 416.5C532.804 484.5 524.5 570.5 517 576" stroke="#EEEEFF" stroke-width="10" stroke-linecap="round"/>
<path id="a_4" d="M849.68 577.5C855.18 577.5 874.716 499.25 878.68 418C882.68 336 871.68 261 866.18 261C858.68 261 842.306 335 837.18 416C832.876 484 841.18 570 848.68 575.5" stroke="#EEEEFF" stroke-width="10" stroke-linecap="round"/>
</g>
<line id="a_5" x1="914" y1="415" x2="452" y2="415" stroke="#EEEEFF" stroke-width="10" stroke-linecap="round"/>
</g>
<line id="draw-line_3" x1="5" y1="-5" x2="337.006" y2="-5" transform="matrix(0.999981 -0.00620742 -0.00550912 -0.999985 512 575.592)" stroke="#AAAAFF" stroke-width="10" stroke-linecap="round"/>
</g>
<g id="template_4">
<path id="neutral_5" d="M682.5 173C745.424 173 805.777 197.971 850.306 242.43C894.835 286.889 919.901 347.203 920 410.127C920.099 473.051 895.222 533.443 850.833 578.042C806.444 622.641 746.17 647.801 683.246 647.999C620.322 648.196 559.891 623.415 515.223 579.096C470.554 534.777 445.299 474.543 445.003 411.619C444.706 348.696 469.392 288.226 513.641 243.488C557.89 198.75 618.085 173.4 681.008 173.005" stroke="#00FF00" stroke-width="100" stroke-linecap="round"/>
<path id="n_9" d="M503.415 258.734C536.68 361.041 543.044 470.172 521.893 575.651" stroke="#00FF00" stroke-width="100" stroke-linecap="round"/>
<path id="n_10" d="M494.791 259.214C473.036 364.582 478.819 473.746 511.584 576.225" stroke="#00FF00" stroke-width="100" stroke-linecap="round"/>
<path id="n_11" d="M862.312 259.718C829.046 362.024 822.683 471.155 843.834 576.634" stroke="#00FF00" stroke-width="100" stroke-linecap="round"/>
<path id="n_12" d="M870.936 260.197C892.69 365.565 886.908 474.729 854.143 577.208" stroke="#00FF00" stroke-width="100" stroke-linecap="round"/>
<path id="neutral_6" d="M913.5 415L452 415" stroke="#00FF00" stroke-width="100" stroke-linecap="round"/>
<path id="neutral_7" d="M849.002 580.561L516.973 578.5" stroke="#00FF00" stroke-width="100" stroke-linecap="round"/>
<line id="good_3" x1="5" y1="-5" x2="337.006" y2="-5" transform="matrix(-0.999981 -0.00620742 0.00550912 -0.999985 853.999 575.592)" stroke="#0000FF" stroke-width="10" stroke-linecap="round"/>
</g>
</g>
<g id="step-5">
<g id="input_5">
<g id="prev_7">
<g id="prev_8">
<g id="prev_9">
<path id="prev_10" d="M682.5 173C745.424 173 805.777 197.971 850.306 242.43C894.835 286.89 919.901 347.203 920 410.127C920.099 473.051 895.222 533.443 850.833 578.042C806.444 622.641 746.17 647.801 683.246 647.999C620.322 648.197 559.891 623.415 515.223 579.096C470.554 534.777 445.299 474.543 445.003 411.619C444.706 348.696 469.392 288.226 513.641 243.488C557.89 198.75 618.085 173.4 681.008 173.005" stroke="#EEEEFF" stroke-width="10" stroke-linecap="round"/>
<path id="a_6" d="M516 578C510.5 578 490.964 499.75 487 418.5C483 336.5 494 261.5 499.5 261.5C507 261.5 523.373 335.5 528.5 416.5C532.804 484.5 524.5 570.5 517 576" stroke="#EEEEFF" stroke-width="10" stroke-linecap="round"/>
<path id="a_7" d="M849.68 577.5C855.18 577.5 874.716 499.25 878.68 418C882.68 336 871.68 261 866.18 261C858.68 261 842.306 335 837.18 416C832.876 484 841.18 570 848.68 575.5" stroke="#EEEEFF" stroke-width="10" stroke-linecap="round"/>
</g>
<line id="a_8" x1="914" y1="415" x2="452" y2="415" stroke="#EEEEFF" stroke-width="10" stroke-linecap="round"/>
</g>
<line id="a_9" x1="5" y1="-5" x2="337.006" y2="-5" transform="matrix(-0.999981 -0.00620742 0.00550912 -0.999985 853.999 575.592)" stroke="#EEEEFF" stroke-width="10" stroke-linecap="round"/>
</g>
<g id="blink d3_2">
<line id="Line 7" x1="994" y1="251.5" x2="806" y2="251.5" stroke="#CCCCCC" stroke-width="5" stroke-dasharray="10 10"/>
<line id="Line 8" x1="994" y1="744.5" x2="731" y2="744.5" stroke="#CCCCCC" stroke-width="5" stroke-dasharray="10 10"/>
</g>
<g id="blink d1_3">
<line id="Line 6_2" x1="994" y1="415.5" x2="920" y2="415.5" stroke="#CCCCCC" stroke-width="5" stroke-dasharray="10 10"/>
<path id="Line 9" d="M973 580.5L849 580.5" stroke="#CCCCCC" stroke-width="5" stroke-dasharray="10 10"/>
</g>
<g id="appear d2_3">
<line id="Line 5_2" x1="994" y1="251.5" x2="951" y2="251.5" stroke="#555555" stroke-width="5"/>
<line id="Line 4_2" x1="994" y1="415.815" x2="971" y2="415.815" stroke="#555555" stroke-width="5"/>
<line id="Line 3_2" x1="994" y1="580.131" x2="971" y2="580.131" stroke="#555555" stroke-width="5"/>
<line id="Line 2_2" x1="994" y1="744.446" x2="951" y2="744.446" stroke="#555555" stroke-width="5"/>
<line id="Line 1_2" x1="991.5" y1="744" x2="991.5" y2="249" stroke="#555555" stroke-width="5"/>
</g>
<path id="draw-line d6_2" d="M639.075 743.048H725.94" stroke="#AAAAFF" stroke-width="10" stroke-linecap="round"/>
<path id="draw-line d5 flip" d="M816.282 247.823C727.852 267.013 636.308 266.664 548.027 246.798" stroke="#AAAAFF" stroke-width="10" stroke-linecap="round"/>
</g>
<g id="template_5">
<path id="neutral_8" d="M682.5 173C745.424 173 805.777 197.971 850.306 242.43C894.835 286.89 919.901 347.203 920 410.127C920.099 473.051 895.222 533.443 850.833 578.042C806.444 622.641 746.17 647.801 683.246 647.999C620.322 648.197 559.891 623.415 515.223 579.096C470.554 534.777 445.299 474.543 445.003 411.619C444.706 348.696 469.393 288.226 513.641 243.488C557.89 198.75 618.085 173.4 681.008 173.005" stroke="#00FF00" stroke-width="100" stroke-linecap="round"/>
<path id="n_13" d="M503.415 258.734C536.68 361.041 543.044 470.172 521.893 575.651" stroke="#00FF00" stroke-width="100" stroke-linecap="round"/>
<path id="n_14" d="M494.791 259.214C473.037 364.582 478.819 473.746 511.584 576.225" stroke="#00FF00" stroke-width="100" stroke-linecap="round"/>
<path id="n_15" d="M862.312 259.718C829.046 362.024 822.683 471.155 843.834 576.634" stroke="#00FF00" stroke-width="100" stroke-linecap="round"/>
<path id="n_16" d="M870.936 260.197C892.69 365.565 886.908 474.729 854.143 577.208" stroke="#00FF00" stroke-width="100" stroke-linecap="round"/>
<path id="neutral_9" d="M913.5 415L452 415" stroke="#00FF00" stroke-width="100" stroke-linecap="round"/>
<path id="neutral_10" d="M849.002 580.561L516.973 578.5" stroke="#00FF00" stroke-width="100" stroke-linecap="round"/>
<path id="n_17" d="M726 743H639" stroke="#00FF00" stroke-width="100" stroke-linecap="round"/>
<path id="n_18" d="M817.342 247.709C728.201 267.054 635.921 266.701 546.929 246.676" stroke="#00FF00" stroke-width="100" stroke-linecap="round"/>
<line id="g_5" x1="726" y1="743" x2="639" y2="743" stroke="#0000FF" stroke-width="10" stroke-linecap="round"/>
<path id="g_6" d="M816.282 247.823C727.852 267.013 636.308 266.664 548.027 246.798" stroke="#0000FF" stroke-width="10" stroke-linecap="round"/>
</g>
</g>
<g id="step-6">
<g id="input_6">
<g id="prev_11">
<g id="prev_12">
<g id="prev_13">
<g id="prev_14">
<path id="prev_15" d="M682.5 173C745.424 173 805.777 197.971 850.306 242.43C894.835 286.89 919.901 347.203 920 410.127C920.099 473.051 895.222 533.443 850.833 578.042C806.444 622.641 746.17 647.801 683.246 647.999C620.322 648.197 559.891 623.415 515.223 579.096C470.554 534.777 445.299 474.543 445.003 411.619C444.706 348.696 469.392 288.226 513.641 243.488C557.89 198.75 618.085 173.4 681.008 173.005" stroke="#EEEEFF" stroke-width="10" stroke-linecap="round"/>
<path id="a_10" d="M516 578C510.5 578 490.964 499.75 487 418.5C483 336.5 494 261.5 499.5 261.5C507 261.5 523.373 335.5 528.5 416.5C532.804 484.5 524.5 570.5 517 576" stroke="#EEEEFF" stroke-width="10" stroke-linecap="round"/>
<path id="a_11" d="M849.68 577.5C855.18 577.5 874.716 499.25 878.68 418C882.68 336 871.68 261 866.18 261C858.68 261 842.306 335 837.18 416C832.876 484 841.18 570 848.68 575.5" stroke="#EEEEFF" stroke-width="10" stroke-linecap="round"/>
</g>
<line id="a_12" x1="914" y1="415" x2="452" y2="415" stroke="#EEEEFF" stroke-width="10" stroke-linecap="round"/>
</g>
<line id="a_13" x1="5" y1="-5" x2="337.006" y2="-5" transform="matrix(-0.999981 -0.00620742 0.00550912 -0.999985 853.999 575.592)" stroke="#EEEEFF" stroke-width="10" stroke-linecap="round"/>
</g>
<line id="a_14" x1="726" y1="743" x2="639" y2="743" stroke="#EEEEFF" stroke-width="10" stroke-linecap="round"/>
<path id="a_15" d="M816.282 247.823C727.852 267.013 636.308 266.664 548.027 246.798" stroke="#EEEEFF" stroke-width="10" stroke-linecap="round"/>
</g>
<line id="draw-line flip" x1="682" y1="739" x2="682" y2="265" stroke="#AAAAFF" stroke-width="10" stroke-linecap="round"/>
</g>
<g id="template_6">
<path id="neutral_11" d="M682.5 173C745.424 173 805.777 197.971 850.306 242.43C894.835 286.89 919.901 347.203 920 410.127C920.099 473.051 895.222 533.443 850.833 578.042C806.444 622.641 746.17 647.801 683.246 647.999C620.322 648.197 559.891 623.415 515.223 579.096C470.554 534.777 445.299 474.543 445.003 411.619C444.706 348.696 469.393 288.226 513.641 243.488C557.89 198.75 618.085 173.4 681.008 173.005" stroke="#00FF00" stroke-width="100" stroke-linecap="round"/>
<path id="n_19" d="M503.415 258.734C536.68 361.041 543.044 470.172 521.893 575.651" stroke="#00FF00" stroke-width="100" stroke-linecap="round"/>
<path id="n_20" d="M494.791 259.214C473.037 364.582 478.819 473.746 511.584 576.225" stroke="#00FF00" stroke-width="100" stroke-linecap="round"/>
<path id="n_21" d="M862.312 259.718C829.046 362.024 822.683 471.156 843.834 576.634" stroke="#00FF00" stroke-width="100" stroke-linecap="round"/>
<path id="n_22" d="M870.936 260.197C892.69 365.565 886.908 474.729 854.143 577.208" stroke="#00FF00" stroke-width="100" stroke-linecap="round"/>
<path id="neutral_12" d="M913.5 415L452 415" stroke="#00FF00" stroke-width="100" stroke-linecap="round"/>
<path id="neutral_13" d="M849.002 580.561L516.973 578.5" stroke="#00FF00" stroke-width="100" stroke-linecap="round"/>
<path id="n_23" d="M726 743H639" stroke="#00FF00" stroke-width="100" stroke-linecap="round"/>
<path id="n_24" d="M817.342 247.709C728.201 267.054 635.921 266.701 546.929 246.676" stroke="#00FF00" stroke-width="100" stroke-linecap="round"/>
<path id="n_25" d="M682 739L682 264.5" stroke="#00FF00" stroke-width="100" stroke-linecap="round"/>
<line id="g_7" x1="682" y1="739" x2="682" y2="265" stroke="#0000FF" stroke-width="10" stroke-linecap="round"/>
</g>
</g>
<g id="step-7">
<g id="input_7">
<g id="prev_16">
<g id="prev_17">
<g id="prev_18">
<g id="prev_19">
<g id="prev_20">
<path id="prev_21" d="M682.5 173C745.424 173 805.777 197.971 850.306 242.43C894.835 286.89 919.901 347.203 920 410.127C920.099 473.051 895.222 533.443 850.833 578.042C806.444 622.641 746.17 647.801 683.246 647.999C620.322 648.197 559.891 623.415 515.223 579.096C470.554 534.777 445.299 474.543 445.003 411.619C444.706 348.696 469.392 288.226 513.641 243.488C557.89 198.75 618.085 173.4 681.008 173.005" stroke="#EEEEFF" stroke-width="10" stroke-linecap="round"/>
<path id="a_16" d="M516 569C510.5 569 490.964 490.75 487 409.5C483 327.5 494 252.5 499.5 252.5C507 252.5 523.373 326.5 528.5 407.5C532.804 475.5 524.5 561.5 517 567" stroke="#EEEEFF" stroke-width="10" stroke-linecap="round"/>
<path id="a_17" d="M849.68 568.5C855.18 568.5 874.716 490.25 878.68 409C882.68 327 871.68 252 866.18 252C858.68 252 842.306 326 837.18 407C832.876 475 841.18 561 848.68 566.5" stroke="#EEEEFF" stroke-width="10" stroke-linecap="round"/>
</g>
<line id="a_18" x1="914" y1="415" x2="452" y2="415" stroke="#EEEEFF" stroke-width="10" stroke-linecap="round"/>
</g>
<line id="a_19" x1="5" y1="-5" x2="337.006" y2="-5" transform="matrix(-0.999981 -0.00620742 0.00550912 -0.999985 853.999 575.592)" stroke="#EEEEFF" stroke-width="10" stroke-linecap="round"/>
</g>
<line id="a_20" x1="726" y1="743" x2="639" y2="743" stroke="#EEEEFF" stroke-width="10" stroke-linecap="round"/>
<path id="a_21" d="M816.282 247.823C727.852 267.013 636.308 266.664 548.027 246.798" stroke="#EEEEFF" stroke-width="10" stroke-linecap="round"/>
</g>
<line id="a_22" x1="682" y1="739" x2="682" y2="265" stroke="#EEEEFF" stroke-width="10" stroke-linecap="round"/>
</g>
<path id="draw-line_4" d="M519.049 558.661L546.661 670.951L636.5 742" stroke="#AAAAFF" stroke-width="10" stroke-linecap="round"/>
<path id="draw-line d2" d="M845.5 558.661L817.888 670.951L728.049 742" stroke="#AAAAFF" stroke-width="10" stroke-linecap="round"/>
</g>
<g id="template_7">
<path id="neutral_14" d="M682.5 173C745.424 173 805.777 197.971 850.306 242.43C894.835 286.889 919.901 347.203 920 410.127C920.099 473.051 895.222 533.443 850.833 578.042C806.444 622.64 746.17 647.801 683.246 647.999C620.322 648.196 559.891 623.415 515.223 579.096C470.554 534.777 445.299 474.543 445.003 411.619C444.706 348.695 469.393 288.226 513.641 243.488C557.89 198.75 618.085 173.4 681.008 173.005" stroke="#00FF00" stroke-width="100" stroke-linecap="round"/>
<path id="n_26" d="M503.415 258.734C536.68 361.041 543.044 470.172 521.893 575.651" stroke="#00FF00" stroke-width="100" stroke-linecap="round"/>
<path id="n_27" d="M494.791 259.214C473.037 364.582 478.819 473.746 511.584 576.225" stroke="#00FF00" stroke-width="100" stroke-linecap="round"/>
<path id="n_28" d="M862.312 259.718C829.046 362.024 822.683 471.155 843.834 576.634" stroke="#00FF00" stroke-width="100" stroke-linecap="round"/>
<path id="n_29" d="M870.936 260.197C892.69 365.565 886.908 474.729 854.143 577.208" stroke="#00FF00" stroke-width="100" stroke-linecap="round"/>
<path id="neutral_15" d="M913.5 415L452 415" stroke="#00FF00" stroke-width="100" stroke-linecap="round"/>
<path id="neutral_16" d="M849.002 580.561L516.973 578.5" stroke="#00FF00" stroke-width="100" stroke-linecap="round"/>
<path id="n_30" d="M726 742.999H639" stroke="#00FF00" stroke-width="100" stroke-linecap="round"/>
<path id="n_31" d="M817.342 247.709C728.201 267.054 635.921 266.701 546.929 246.675" stroke="#00FF00" stroke-width="100" stroke-linecap="round"/>
<path id="n_32" d="M682 739L682 264.5" stroke="#00FF00" stroke-width="100" stroke-linecap="round"/>
<path id="n_33" d="M519.049 558.661L546.661 670.951L636.5 742" stroke="#00FF00" stroke-width="100" stroke-linecap="round"/>
<path id="n_34" d="M845.5 558.661L817.888 670.951L728.049 742" stroke="#00FF00" stroke-width="80" stroke-linecap="round"/>
<path id="g_8" d="M519.049 558.661L546.661 670.951L636.5 742" stroke="#0000FF" stroke-width="10" stroke-linecap="round"/>
<path id="g_9" d="M845.5 558.661L817.888 670.951L728.049 742" stroke="#0000FF" stroke-width="10" stroke-linecap="round"/>
</g>
</g>
<g id="step-8">
<g id="input_8">
<g id="prev_22">
<g id="prev_23">
<g id="prev_24">
<g id="prev_25">
<g id="prev_26">
<g id="prev_27">
<path id="prev_28" d="M682.5 173C745.424 173 805.777 197.971 850.306 242.43C894.835 286.89 919.901 347.203 920 410.127C920.099 473.051 895.222 533.443 850.833 578.042C806.444 622.641 746.17 647.801 683.246 647.999C620.322 648.197 559.891 623.415 515.223 579.096C470.554 534.777 445.299 474.543 445.003 411.619C444.706 348.696 469.392 288.226 513.641 243.488C557.89 198.75 618.085 173.4 681.008 173.005" stroke="#EEEEFF" stroke-width="10" stroke-linecap="round"/>
<path id="a_23" d="M516 578C510.5 578 490.964 499.75 487 418.5C483 336.5 494 261.5 499.5 261.5C507 261.5 523.373 335.5 528.5 416.5C532.804 484.5 524.5 570.5 517 576" stroke="#EEEEFF" stroke-width="10" stroke-linecap="round"/>
<path id="a_24" d="M849.68 577.5C855.18 577.5 874.716 499.25 878.68 418C882.68 336 871.68 261 866.18 261C858.68 261 842.306 335 837.18 416C832.876 484 841.18 570 848.68 575.5" stroke="#EEEEFF" stroke-width="10" stroke-linecap="round"/>
</g>
<line id="a_25" x1="914" y1="415" x2="452" y2="415" stroke="#EEEEFF" stroke-width="10" stroke-linecap="round"/>
</g>
<line id="a_26" x1="5" y1="-5" x2="337.006" y2="-5" transform="matrix(-0.999981 -0.00620742 0.00550912 -0.999985 853.999 575.592)" stroke="#EEEEFF" stroke-width="10" stroke-linecap="round"/>
</g>
<line id="a_27" x1="726" y1="743" x2="639" y2="743" stroke="#EEEEFF" stroke-width="10" stroke-linecap="round"/>
<path id="a_28" d="M816.282 247.823C727.852 267.013 636.308 266.664 548.027 246.798" stroke="#EEEEFF" stroke-width="10" stroke-linecap="round"/>
</g>
<line id="a_29" x1="682" y1="739" x2="682" y2="265" stroke="#EEEEFF" stroke-width="10" stroke-linecap="round"/>
</g>
<path id="a_30" d="M519.049 558.661L546.661 670.951L636.5 742" stroke="#EEEEFF" stroke-width="10" stroke-linecap="round"/>
<path id="a_31" d="M845.5 558.661L817.888 670.951L728.049 742" stroke="#EEEEFF" stroke-width="10" stroke-linecap="round"/>
</g>
<line id="draw-line_5" x1="538.975" y1="641.025" x2="538.015" y2="830.025" stroke="#AAAAFF" stroke-width="10" stroke-linecap="round"/>
<line id="draw-line d1" x1="5" y1="-5" x2="194.003" y2="-5" transform="matrix(0.00507608 0.999987 0.999987 -0.00507608 830 636)" stroke="#AAAAFF" stroke-width="10" stroke-linecap="round"/>
<path id="draw-line d2_2" d="M537.5 766.5C533.5 819.5 468 863 460.5 864.5" stroke="#AAAAFF" stroke-width="10" stroke-linecap="round"/>
<path id="draw-line d3" d="M826.5 766.5C830.5 819.5 896 863 903.5 864.5" stroke="#AAAAFF" stroke-width="10" stroke-linecap="round"/>
</g>
<g id="template_8">
<path id="neutral_17" d="M682.5 173C745.424 173 805.777 197.971 850.306 242.43C894.835 286.889 919.901 347.202 920 410.127C920.099 473.051 895.222 533.443 850.833 578.041C806.444 622.64 746.17 647.801 683.246 647.999C620.322 648.196 559.891 623.415 515.223 579.096C470.554 534.777 445.299 474.543 445.003 411.619C444.706 348.695 469.393 288.226 513.641 243.488C557.89 198.75 618.085 173.4 681.008 173.004" stroke="#00FF00" stroke-width="100" stroke-linecap="round"/>
<path id="n_35" d="M503.415 258.734C536.68 361.041 543.044 470.172 521.893 575.651" stroke="#00FF00" stroke-width="100" stroke-linecap="round"/>
<path id="n_36" d="M494.791 259.214C473.037 364.582 478.819 473.746 511.584 576.225" stroke="#00FF00" stroke-width="100" stroke-linecap="round"/>
<path id="n_37" d="M862.312 259.717C829.046 362.024 822.683 471.155 843.834 576.634" stroke="#00FF00" stroke-width="100" stroke-linecap="round"/>
<path id="n_38" d="M870.936 260.197C892.69 365.565 886.908 474.729 854.143 577.208" stroke="#00FF00" stroke-width="100" stroke-linecap="round"/>
<path id="neutral_18" d="M913.5 415L452 415" stroke="#00FF00" stroke-width="100" stroke-linecap="round"/>
<path id="neutral_19" d="M849.002 580.561L516.973 578.5" stroke="#00FF00" stroke-width="100" stroke-linecap="round"/>
<path id="n_39" d="M726 742.999H639" stroke="#00FF00" stroke-width="100" stroke-linecap="round"/>
<path id="n_40" d="M817.342 247.709C728.201 267.054 635.921 266.701 546.929 246.675" stroke="#00FF00" stroke-width="100" stroke-linecap="round"/>
<path id="n_41" d="M682 739L682 264.5" stroke="#00FF00" stroke-width="100" stroke-linecap="round"/>
<path id="n_42" d="M519.049 558.661L546.661 670.95L636.5 742" stroke="#00FF00" stroke-width="100" stroke-linecap="round"/>
<path id="n_43" d="M845.5 558.661L817.888 670.95L728.049 742" stroke="#00FF00" stroke-width="80" stroke-linecap="round"/>
<path id="n_44" d="M538.975 641.025L538 829.5" stroke="#00FF00" stroke-width="100" stroke-linecap="round"/>
<path id="n_45" d="M825.025 641.025L825.025 829.5" stroke="#00FF00" stroke-width="100" stroke-linecap="round"/>
<path id="n_46" d="M537.5 766.5C533.5 819.5 468 863 460.5 864.5" stroke="#00FF00" stroke-width="100" stroke-linecap="round"/>
<path id="n_47" d="M826.5 766.5C830.5 819.5 896 863 903.5 864.5" stroke="#00FF00" stroke-width="100" stroke-linecap="round"/>
<line id="g_10" x1="538.975" y1="641.025" x2="538.015" y2="830.025" stroke="#0000FF" stroke-width="10" stroke-linecap="round"/>
<line id="g_11" x1="5" y1="-5" x2="194.003" y2="-5" transform="matrix(0.00507608 0.999987 0.999987 -0.00507608 830 636)" stroke="#0000FF" stroke-width="10" stroke-linecap="round"/>
<path id="g_12" d="M537.5 766.5C533.5 819.5 468 863 460.5 864.5" stroke="#0000FF" stroke-width="10" stroke-linecap="round"/>
<path id="g_13" d="M826.5 766.5C830.5 819.5 896 863 903.5 864.5" stroke="#0000FF" stroke-width="10" stroke-linecap="round"/>
</g>
</g>
<g id="step-9">
<g id="input_9">
<g id="Group 7">
<rect id="appear d1" x="1218.5" y="876.5" width="95" height="95" stroke="#999999" stroke-width="5"/>
<path id="draw-line d5_2" d="M1232 918C1261.2 949.2 1261 959.5 1261 959.5C1261 959.5 1290 886 1312 860" stroke="#AAAAFF" stroke-width="10" stroke-linecap="round" stroke-linejoin="round"/>
</g>
</g>
<g id="template_9">
<path id="neutral_20" d="M682.5 173C745.424 173 805.777 197.971 850.306 242.43C894.835 286.889 919.901 347.202 920 410.127C920.099 473.051 895.222 533.443 850.833 578.041C806.444 622.64 746.17 647.801 683.246 647.999C620.322 648.196 559.891 623.415 515.223 579.096C470.554 534.777 445.299 474.543 445.003 411.619C444.706 348.695 469.393 288.226 513.641 243.488C557.89 198.75 618.085 173.4 681.008 173.004" stroke="#00FF00" stroke-width="100" stroke-linecap="round"/>
<path id="n_48" d="M503.415 258.734C536.68 361.041 543.044 470.172 521.893 575.651" stroke="#00FF00" stroke-width="100" stroke-linecap="round"/>
<path id="n_49" d="M494.791 259.214C473.037 364.582 478.819 473.746 511.584 576.225" stroke="#00FF00" stroke-width="100" stroke-linecap="round"/>
<path id="n_50" d="M862.312 259.717C829.046 362.024 822.683 471.155 843.834 576.634" stroke="#00FF00" stroke-width="100" stroke-linecap="round"/>
<path id="n_51" d="M870.936 260.197C892.69 365.565 886.908 474.729 854.143 577.208" stroke="#00FF00" stroke-width="100" stroke-linecap="round"/>
<path id="neutral_21" d="M913.5 415L452 415" stroke="#00FF00" stroke-width="100" stroke-linecap="round"/>
<path id="neutral_22" d="M849.002 580.561L516.973 578.5" stroke="#00FF00" stroke-width="100" stroke-linecap="round"/>
<path id="n_52" d="M726 742.999H639" stroke="#00FF00" stroke-width="100" stroke-linecap="round"/>
<path id="n_53" d="M817.342 247.709C728.201 267.054 635.921 266.701 546.929 246.675" stroke="#00FF00" stroke-width="100" stroke-linecap="round"/>
<path id="n_54" d="M682 739L682 264.5" stroke="#00FF00" stroke-width="100" stroke-linecap="round"/>
<path id="n_55" d="M519.049 558.661L546.661 670.95L636.5 742" stroke="#00FF00" stroke-width="100" stroke-linecap="round"/>
<path id="n_56" d="M845.5 558.661L817.888 670.95L728.049 742" stroke="#00FF00" stroke-width="80" stroke-linecap="round"/>
<path id="n_57" d="M538.975 641.025L538 829.5" stroke="#00FF00" stroke-width="100" stroke-linecap="round"/>
<path id="n_58" d="M825.025 641.025L825.025 829.5" stroke="#00FF00" stroke-width="100" stroke-linecap="round"/>
<path id="n_59" d="M537.5 766.5C533.5 819.5 468 863 460.5 864.5" stroke="#00FF00" stroke-width="100" stroke-linecap="round"/>
<path id="n_60" d="M826.5 766.5C830.5 819.5 896 863 903.5 864.5" stroke="#00FF00" stroke-width="100" stroke-linecap="round"/>
<rect id="Rectangle 6" x="1191" y="849" width="150" height="150" fill="#0000FF" stroke="#00FF00" stroke-width="50"/>
</g>
</g>
</g>
<defs>
<clipPath id="clip0">
<rect width="1366" height="1024" fill="white"/>
</clipPath>
</defs>
</svg>
