<svg width="1366" height="1024" viewBox="0 0 1366 1024" fill="none" xmlns="http://www.w3.org/2000/svg">
<g id="lesson 1">
<g id="step-10">
<g id="input">
<path id="draw-line" d="M615.014 447.837L682.774 282L747.372 447.837H924L779.445 551.634L853.53 742.525L682.774 619.639L508.857 742.525L578.424 551.634L442 447.837H614.111" stroke="#85A7E8" stroke-width="8" stroke-linecap="round" stroke-linejoin="round"/>
</g>
<g id="template">
<path id="Vector 66" d="M615.014 447.837L682.774 282L747.372 447.837H924L779.445 551.634L853.53 742.525L682.774 619.639L508.857 742.525L578.424 551.634L442 447.837H614.111" stroke="#00FF00" stroke-width="40" stroke-linecap="round" stroke-linejoin="round"/>
<path id="Vector 67" d="M615.014 447.837L682.774 282L747.372 447.837H924L779.445 551.634L853.53 742.525L682.774 619.639L508.857 742.525L578.424 551.634L442 447.837H614.111" stroke="#0000FF" stroke-width="10" stroke-linecap="round" stroke-linejoin="round"/>
</g>
</g>
<g id="step-9">
<g id="input_2">
<path id="draw-line_2" d="M124 561L273.5 411.5L423 561L572.5 411.5L722 561L871.5 411.5L1021 561L1170.5 411.5L1320 561" stroke="#85A7E8" stroke-width="8" stroke-linecap="round" stroke-linejoin="round"/>
</g>
<g id="template_2">
<path id="Vector" d="M124 561L273.5 411.5L423 561L572.5 411.5L722 561L871.5 411.5L1021 561L1170.5 411.5L1320 561" stroke="#00FF00" stroke-width="70" stroke-linecap="round" stroke-linejoin="round"/>
<path id="Vector_2" d="M124 561L273.5 411.5L423 561L572.5 411.5L722 561L871.5 411.5L1021 561L1170.5 411.5L1320 561" stroke="#0000FF" stroke-width="10" stroke-linecap="round" stroke-linejoin="round"/>
</g>
</g>
<g id="step-8">
<g id="input_3">
<path id="Vector 27" d="M1120 395L1268.47 543.469" stroke="#85A7E8" stroke-width="8" stroke-linecap="round"/>
<path id="Vector 26" d="M915 543L1063.47 394.531" stroke="#85A7E8" stroke-width="8" stroke-linecap="round"/>
<path id="Vector 25" d="M710 395L858.469 543.469" stroke="#85A7E8" stroke-width="8" stroke-linecap="round"/>
<path id="Vector 24" d="M505 543L653.469 394.531" stroke="#85A7E8" stroke-width="8" stroke-linecap="round"/>
<path id="draw-line d1" d="M300 395L448.469 543.469" stroke="#85A7E8" stroke-width="8" stroke-linecap="round"/>
<path id="draw-line_3" d="M95 543L243.469 394.531" stroke="#85A7E8" stroke-width="8" stroke-linecap="round"/>
</g>
<g id="template_3">
<path id="Vector 27_2" d="M1120 395L1268.47 543.469" stroke="#00FF00" stroke-width="40" stroke-linecap="round"/>
<path id="Vector 26_2" d="M915 543L1063.47 394.531" stroke="#00FF00" stroke-width="40" stroke-linecap="round"/>
<path id="Vector 25_2" d="M710 395L858.469 543.469" stroke="#00FF00" stroke-width="40" stroke-linecap="round"/>
<path id="Vector 24_2" d="M505 543L653.469 394.531" stroke="#00FF00" stroke-width="40" stroke-linecap="round"/>
<path id="vector" d="M300 395L448.469 543.469" stroke="#00FF00" stroke-width="40" stroke-linecap="round"/>
<path id="vector_2" d="M95 543L243.469 394.531" stroke="#00FF00" stroke-width="40" stroke-linecap="round"/>
<path id="Vector 28" d="M1120 395L1268.47 543.469" stroke="#0000FF" stroke-width="10" stroke-linecap="round"/>
<path id="Vector 29" d="M915 543L1063.47 394.531" stroke="#0000FF" stroke-width="10" stroke-linecap="round"/>
<path id="Vector 30" d="M710 395L858.469 543.469" stroke="#0000FF" stroke-width="10" stroke-linecap="round"/>
<path id="Vector 31" d="M505 543L653.469 394.531" stroke="#0000FF" stroke-width="10" stroke-linecap="round"/>
<path id="vector_3" d="M300 395L448.469 543.469" stroke="#0000FF" stroke-width="10" stroke-linecap="round"/>
<path id="vector_4" d="M95 543L243.469 394.531" stroke="#0000FF" stroke-width="10" stroke-linecap="round"/>
</g>
</g>
<g id="step-7">
<g id="input_4">
<path id="Vector 42" d="M1123 647L1035 508" stroke="#85A7E8" stroke-width="8" stroke-linecap="round"/>
<path id="Vector 43" d="M1010 647L922 508" stroke="#85A7E8" stroke-width="8" stroke-linecap="round"/>
<path id="Vector 44" d="M897 647L809 508" stroke="#85A7E8" stroke-width="8" stroke-linecap="round"/>
<path id="Vector 45" d="M784 647L695 508" stroke="#85A7E8" stroke-width="8" stroke-linecap="round"/>
<path id="Vector 46" d="M671 647L582 508" stroke="#85A7E8" stroke-width="8" stroke-linecap="round"/>
<path id="Vector 47" d="M558 647L469 508" stroke="#85A7E8" stroke-width="8" stroke-linecap="round"/>
<path id="draw-line d3" d="M445 647L356 508" stroke="#85A7E8" stroke-width="8" stroke-linecap="round"/>
<path id="draw-line d2" d="M332 647L243 508" stroke="#85A7E8" stroke-width="8" stroke-linecap="round"/>
<path id="Vector 41" d="M1123 297L1035 436" stroke="#85A7E8" stroke-width="8" stroke-linecap="round"/>
<path id="Vector 40" d="M1010 297L922 436" stroke="#85A7E8" stroke-width="8" stroke-linecap="round"/>
<path id="Vector 39" d="M897 297L809 436" stroke="#85A7E8" stroke-width="8" stroke-linecap="round"/>
<path id="Vector 38" d="M784 297L695 436" stroke="#85A7E8" stroke-width="8" stroke-linecap="round"/>
<path id="Vector 37" d="M671 297L582 436" stroke="#85A7E8" stroke-width="8" stroke-linecap="round"/>
<path id="Vector 36" d="M558 297L469 436" stroke="#85A7E8" stroke-width="8" stroke-linecap="round"/>
<path id="draw-line d1_2" d="M445 297L356 436" stroke="#85A7E8" stroke-width="8" stroke-linecap="round"/>
<path id="draw-line_4" d="M332 297L243 436" stroke="#85A7E8" stroke-width="8" stroke-linecap="round"/>
</g>
<g id="template_4">
<path id="Vector 50" d="M1123 647L1035 508" stroke="#00FF00" stroke-width="50" stroke-linecap="round"/>
<path id="Vector 51" d="M1010 647L922 508" stroke="#00FF00" stroke-width="50" stroke-linecap="round"/>
<path id="Vector 52" d="M897 647L809 508" stroke="#00FF00" stroke-width="50" stroke-linecap="round"/>
<path id="Vector 53" d="M784 647L695 508" stroke="#00FF00" stroke-width="50" stroke-linecap="round"/>
<path id="Vector 54" d="M671 647L582 508" stroke="#00FF00" stroke-width="50" stroke-linecap="round"/>
<path id="Vector 55" d="M558 647L469 508" stroke="#00FF00" stroke-width="50" stroke-linecap="round"/>
<path id="Vector 56" d="M445 647L356 508" stroke="#00FF00" stroke-width="50" stroke-linecap="round"/>
<path id="Vector 57" d="M332 647L243 508" stroke="#00FF00" stroke-width="50" stroke-linecap="round"/>
<path id="Vector 58" d="M1123 297L1035 436" stroke="#00FF00" stroke-width="50" stroke-linecap="round"/>
<path id="Vector 59" d="M1010 297L922 436" stroke="#00FF00" stroke-width="50" stroke-linecap="round"/>
<path id="Vector 60" d="M897 297L809 436" stroke="#00FF00" stroke-width="50" stroke-linecap="round"/>
<path id="Vector 61" d="M784 297L695 436" stroke="#00FF00" stroke-width="50" stroke-linecap="round"/>
<path id="Vector 62" d="M671 297L582 436" stroke="#00FF00" stroke-width="50" stroke-linecap="round"/>
<path id="Vector 63" d="M558 297L469 436" stroke="#00FF00" stroke-width="50" stroke-linecap="round"/>
<path id="Vector 64" d="M445 297L356 436" stroke="#00FF00" stroke-width="50" stroke-linecap="round"/>
<path id="Vector 65" d="M332 297L243 436" stroke="#00FF00" stroke-width="50" stroke-linecap="round"/>
<path id="Vector 42_2" d="M1123 647L1035 508" stroke="#0000FF" stroke-width="10" stroke-linecap="round"/>
<path id="Vector 43_2" d="M1010 647L922 508" stroke="#0000FF" stroke-width="10" stroke-linecap="round"/>
<path id="Vector 44_2" d="M897 647L809 508" stroke="#0000FF" stroke-width="10" stroke-linecap="round"/>
<path id="Vector 45_2" d="M784 647L695 508" stroke="#0000FF" stroke-width="10" stroke-linecap="round"/>
<path id="Vector 46_2" d="M671 647L582 508" stroke="#0000FF" stroke-width="10" stroke-linecap="round"/>
<path id="Vector 47_2" d="M558 647L469 508" stroke="#0000FF" stroke-width="10" stroke-linecap="round"/>
<path id="Vector 48" d="M445 647L356 508" stroke="#0000FF" stroke-width="10" stroke-linecap="round"/>
<path id="Vector 49" d="M332 647L243 508" stroke="#0000FF" stroke-width="10" stroke-linecap="round"/>
<path id="Vector 41_2" d="M1123 297L1035 436" stroke="#0000FF" stroke-width="10" stroke-linecap="round"/>
<path id="Vector 40_2" d="M1010 297L922 436" stroke="#0000FF" stroke-width="10" stroke-linecap="round"/>
<path id="Vector 39_2" d="M897 297L809 436" stroke="#0000FF" stroke-width="10" stroke-linecap="round"/>
<path id="Vector 38_2" d="M784 297L695 436" stroke="#0000FF" stroke-width="10" stroke-linecap="round"/>
<path id="Vector 37_2" d="M671 297L582 436" stroke="#0000FF" stroke-width="10" stroke-linecap="round"/>
<path id="Vector 36_2" d="M558 297L469 436" stroke="#0000FF" stroke-width="10" stroke-linecap="round"/>
<path id="Vector 35" d="M445 297L356 436" stroke="#0000FF" stroke-width="10" stroke-linecap="round"/>
<path id="Vector 34" d="M332 297L243 436" stroke="#0000FF" stroke-width="10" stroke-linecap="round"/>
</g>
</g>
<g id="step-6">
<g id="input_5">
<path id="Vector 16" d="M190 723.5H1168.5" stroke="#85A7E8" stroke-width="8" stroke-linecap="round"/>
<path id="Vector 15" d="M189 617.5H1167.5" stroke="#85A7E8" stroke-width="8" stroke-linecap="round"/>
<path id="Vector 14" d="M199 511.5H1177.5" stroke="#85A7E8" stroke-width="8" stroke-linecap="round"/>
<path id="Vector 13" d="M189 405.5H1167.5" stroke="#85A7E8" stroke-width="8" stroke-linecap="round"/>
<path id="draw-line_5" d="M189 300H1167.5" stroke="#85A7E8" stroke-width="8" stroke-linecap="round"/>
</g>
<g id="template_5">
<path id="Vector 17" d="M190 723.5H1168.5" stroke="#00FF00" stroke-width="50" stroke-linecap="round"/>
<path id="Vector 18" d="M189 617.5H1167.5" stroke="#00FF00" stroke-width="50" stroke-linecap="round"/>
<path id="Vector 19" d="M199 511.5H1177.5" stroke="#00FF00" stroke-width="50" stroke-linecap="round"/>
<path id="Vector 20" d="M189 405.5H1167.5" stroke="#00FF00" stroke-width="50" stroke-linecap="round"/>
<path id="Vector 21" d="M189 300H1167.5" stroke="#00FF00" stroke-width="50" stroke-linecap="round"/>
<path id="Vector 16_2" d="M190 723.5H1168.5" stroke="#0000FF" stroke-width="10" stroke-linecap="round"/>
<path id="Vector 15_2" d="M189 617.5H1167.5" stroke="#0000FF" stroke-width="10" stroke-linecap="round"/>
<path id="Vector 14_2" d="M199 511.5H1177.5" stroke="#0000FF" stroke-width="10" stroke-linecap="round"/>
<path id="Vector 13_2" d="M189 405.5H1167.5" stroke="#0000FF" stroke-width="10" stroke-linecap="round"/>
<path id="Vector 12" d="M189 300H1167.5" stroke="#0000FF" stroke-width="10" stroke-linecap="round"/>
</g>
</g>
<g id="step-5">
<g id="input_6">
<path id="Vector 114" d="M1143.21 621.73L1244 622" stroke="#85A7E8" stroke-width="8" stroke-linecap="round"/>
<path id="Vector 115" d="M973.006 621.275L1073.8 621.545" stroke="#85A7E8" stroke-width="8" stroke-linecap="round"/>
<path id="Vector 116" d="M802.805 620.82L903.598 621.09" stroke="#85A7E8" stroke-width="8" stroke-linecap="round"/>
<path id="Vector 117" d="M632.604 620.365L733.396 620.635" stroke="#85A7E8" stroke-width="8" stroke-linecap="round"/>
<path id="Vector 118" d="M462.402 619.91L563.195 620.18" stroke="#85A7E8" stroke-width="8" stroke-linecap="round"/>
<path id="Vector 119" d="M292.201 619.455L392.994 619.725" stroke="#85A7E8" stroke-width="8" stroke-linecap="round"/>
<path id="Vector 120" d="M122 619L222.793 619.269" stroke="#85A7E8" stroke-width="8" stroke-linecap="round"/>
<path id="Vector 107" d="M1142.21 528.73L1243 529" stroke="#85A7E8" stroke-width="8" stroke-linecap="round"/>
<path id="Vector 108" d="M972.006 528.275L1072.8 528.545" stroke="#85A7E8" stroke-width="8" stroke-linecap="round"/>
<path id="Vector 109" d="M801.805 527.82L902.598 528.09" stroke="#85A7E8" stroke-width="8" stroke-linecap="round"/>
<path id="Vector 110" d="M631.604 527.365L732.396 527.635" stroke="#85A7E8" stroke-width="8" stroke-linecap="round"/>
<path id="Vector 111" d="M461.402 526.91L562.195 527.18" stroke="#85A7E8" stroke-width="8" stroke-linecap="round"/>
<path id="Vector 112" d="M291.201 526.455L391.994 526.725" stroke="#85A7E8" stroke-width="8" stroke-linecap="round"/>
<path id="Vector 113" d="M121 526L221.793 526.269" stroke="#85A7E8" stroke-width="8" stroke-linecap="round"/>
<path id="Vector 100" d="M1142.21 436.73L1243 437" stroke="#85A7E8" stroke-width="8" stroke-linecap="round"/>
<path id="Vector 101" d="M972.006 436.275L1072.8 436.545" stroke="#85A7E8" stroke-width="8" stroke-linecap="round"/>
<path id="Vector 102" d="M801.805 435.82L902.598 436.09" stroke="#85A7E8" stroke-width="8" stroke-linecap="round"/>
<path id="Vector 103" d="M631.604 435.365L732.396 435.635" stroke="#85A7E8" stroke-width="8" stroke-linecap="round"/>
<path id="Vector 104" d="M461.402 434.91L562.195 435.18" stroke="#85A7E8" stroke-width="8" stroke-linecap="round"/>
<path id="Vector 105" d="M291.201 434.455L391.994 434.725" stroke="#85A7E8" stroke-width="8" stroke-linecap="round"/>
<path id="Vector 106" d="M121 434L221.793 434.269" stroke="#85A7E8" stroke-width="8" stroke-linecap="round"/>
<path id="draw-line d6" d="M1142.21 345.73L1243 346" stroke="#85A7E8" stroke-width="8" stroke-linecap="round"/>
<path id="draw-line d5" d="M972.006 345.275L1072.8 345.545" stroke="#85A7E8" stroke-width="8" stroke-linecap="round"/>
<path id="draw-line d4" d="M801.805 344.82L902.598 345.09" stroke="#85A7E8" stroke-width="8" stroke-linecap="round"/>
<path id="draw-line d3_2" d="M631.604 344.365L732.396 344.635" stroke="#85A7E8" stroke-width="8" stroke-linecap="round"/>
<path id="draw-line d2_2" d="M461.402 343.91L562.195 344.18" stroke="#85A7E8" stroke-width="8" stroke-linecap="round"/>
<path id="draw-line d1_3" d="M291.201 343.455L391.994 343.725" stroke="#85A7E8" stroke-width="8" stroke-linecap="round"/>
<path id="draw-line_6" d="M121 343L221.793 343.269" stroke="#85A7E8" stroke-width="8" stroke-linecap="round"/>
</g>
<g id="template_6">
<path id="Vector 121" d="M1143.21 621.73L1244 622" stroke="#00FF00" stroke-width="40" stroke-linecap="round"/>
<path id="Vector 122" d="M973.006 621.275L1073.8 621.545" stroke="#00FF00" stroke-width="40" stroke-linecap="round"/>
<path id="Vector 123" d="M802.805 620.82L903.598 621.09" stroke="#00FF00" stroke-width="40" stroke-linecap="round"/>
<path id="Vector 124" d="M632.604 620.365L733.396 620.635" stroke="#00FF00" stroke-width="40" stroke-linecap="round"/>
<path id="Vector 125" d="M462.402 619.91L563.195 620.18" stroke="#00FF00" stroke-width="40" stroke-linecap="round"/>
<path id="Vector 126" d="M292.201 619.455L392.994 619.725" stroke="#00FF00" stroke-width="40" stroke-linecap="round"/>
<path id="Vector 127" d="M122 619L222.793 619.269" stroke="#00FF00" stroke-width="40" stroke-linecap="round"/>
<path id="Vector 128" d="M1142.21 528.73L1243 529" stroke="#00FF00" stroke-width="40" stroke-linecap="round"/>
<path id="Vector 129" d="M972.006 528.275L1072.8 528.545" stroke="#00FF00" stroke-width="40" stroke-linecap="round"/>
<path id="Vector 130" d="M801.805 527.82L902.598 528.09" stroke="#00FF00" stroke-width="40" stroke-linecap="round"/>
<path id="Vector 131" d="M631.604 527.365L732.396 527.635" stroke="#00FF00" stroke-width="40" stroke-linecap="round"/>
<path id="Vector 132" d="M461.402 526.91L562.195 527.18" stroke="#00FF00" stroke-width="40" stroke-linecap="round"/>
<path id="Vector 133" d="M291.201 526.455L391.994 526.725" stroke="#00FF00" stroke-width="40" stroke-linecap="round"/>
<path id="Vector 134" d="M121 526L221.793 526.269" stroke="#00FF00" stroke-width="40" stroke-linecap="round"/>
<path id="Vector 135" d="M1142.21 436.73L1243 437" stroke="#00FF00" stroke-width="40" stroke-linecap="round"/>
<path id="Vector 136" d="M972.006 436.275L1072.8 436.545" stroke="#00FF00" stroke-width="40" stroke-linecap="round"/>
<path id="Vector 137" d="M801.805 435.82L902.598 436.09" stroke="#00FF00" stroke-width="40" stroke-linecap="round"/>
<path id="Vector 138" d="M631.604 435.365L732.396 435.635" stroke="#00FF00" stroke-width="40" stroke-linecap="round"/>
<path id="Vector 139" d="M461.402 434.91L562.195 435.18" stroke="#00FF00" stroke-width="40" stroke-linecap="round"/>
<path id="Vector 140" d="M291.201 434.455L391.994 434.725" stroke="#00FF00" stroke-width="40" stroke-linecap="round"/>
<path id="Vector 141" d="M121 434L221.793 434.269" stroke="#00FF00" stroke-width="40" stroke-linecap="round"/>
<path id="draw-line d6_2" d="M1142.21 345.73L1243 346" stroke="#00FF00" stroke-width="40" stroke-linecap="round"/>
<path id="draw-line d5_2" d="M972.006 345.275L1072.8 345.545" stroke="#00FF00" stroke-width="40" stroke-linecap="round"/>
<path id="draw-line d4_2" d="M801.805 344.82L902.598 345.09" stroke="#00FF00" stroke-width="40" stroke-linecap="round"/>
<path id="draw-line d3_3" d="M631.604 344.365L732.396 344.635" stroke="#00FF00" stroke-width="40" stroke-linecap="round"/>
<path id="draw-line d2_3" d="M461.402 343.91L562.195 344.18" stroke="#00FF00" stroke-width="40" stroke-linecap="round"/>
<path id="draw-line d1_4" d="M291.201 343.455L391.994 343.725" stroke="#00FF00" stroke-width="40" stroke-linecap="round"/>
<path id="draw-line_7" d="M121 343L221.793 343.269" stroke="#00FF00" stroke-width="40" stroke-linecap="round"/>
<path id="Vector 114_2" d="M1143.21 621.73L1244 622" stroke="#0000FF" stroke-width="10" stroke-linecap="round"/>
<path id="Vector 115_2" d="M973.006 621.275L1073.8 621.545" stroke="#0000FF" stroke-width="10" stroke-linecap="round"/>
<path id="Vector 116_2" d="M802.805 620.82L903.598 621.09" stroke="#0000FF" stroke-width="10" stroke-linecap="round"/>
<path id="Vector 117_2" d="M632.604 620.365L733.396 620.635" stroke="#0000FF" stroke-width="10" stroke-linecap="round"/>
<path id="Vector 118_2" d="M462.402 619.91L563.195 620.18" stroke="#0000FF" stroke-width="10" stroke-linecap="round"/>
<path id="Vector 119_2" d="M292.201 619.455L392.994 619.725" stroke="#0000FF" stroke-width="10" stroke-linecap="round"/>
<path id="Vector 120_2" d="M122 619L222.793 619.269" stroke="#0000FF" stroke-width="10" stroke-linecap="round"/>
<path id="Vector 107_2" d="M1142.21 528.73L1243 529" stroke="#0000FF" stroke-width="10" stroke-linecap="round"/>
<path id="Vector 108_2" d="M972.006 528.275L1072.8 528.545" stroke="#0000FF" stroke-width="10" stroke-linecap="round"/>
<path id="Vector 109_2" d="M801.805 527.82L902.598 528.09" stroke="#0000FF" stroke-width="10" stroke-linecap="round"/>
<path id="Vector 110_2" d="M631.604 527.365L732.396 527.635" stroke="#0000FF" stroke-width="10" stroke-linecap="round"/>
<path id="Vector 111_2" d="M461.402 526.91L562.195 527.18" stroke="#0000FF" stroke-width="10" stroke-linecap="round"/>
<path id="Vector 112_2" d="M291.201 526.455L391.994 526.725" stroke="#0000FF" stroke-width="10" stroke-linecap="round"/>
<path id="Vector 113_2" d="M121 526L221.793 526.269" stroke="#0000FF" stroke-width="10" stroke-linecap="round"/>
<path id="Vector 100_2" d="M1142.21 436.73L1243 437" stroke="#0000FF" stroke-width="10" stroke-linecap="round"/>
<path id="Vector 101_2" d="M972.006 436.275L1072.8 436.545" stroke="#0000FF" stroke-width="10" stroke-linecap="round"/>
<path id="Vector 102_2" d="M801.805 435.82L902.598 436.09" stroke="#0000FF" stroke-width="10" stroke-linecap="round"/>
<path id="Vector 103_2" d="M631.604 435.365L732.396 435.635" stroke="#0000FF" stroke-width="10" stroke-linecap="round"/>
<path id="Vector 104_2" d="M461.402 434.91L562.195 435.18" stroke="#0000FF" stroke-width="10" stroke-linecap="round"/>
<path id="Vector 105_2" d="M291.201 434.455L391.994 434.725" stroke="#0000FF" stroke-width="10" stroke-linecap="round"/>
<path id="Vector 106_2" d="M121 434L221.793 434.269" stroke="#0000FF" stroke-width="10" stroke-linecap="round"/>
<path id="draw-line d6_3" d="M1142.21 345.73L1243 346" stroke="#0000FF" stroke-width="10" stroke-linecap="round"/>
<path id="draw-line d5_3" d="M972.006 345.275L1072.8 345.545" stroke="#0000FF" stroke-width="10" stroke-linecap="round"/>
<path id="draw-line d4_3" d="M801.805 344.82L902.598 345.09" stroke="#0000FF" stroke-width="10" stroke-linecap="round"/>
<path id="draw-line d3_4" d="M631.604 344.365L732.396 344.635" stroke="#0000FF" stroke-width="10" stroke-linecap="round"/>
<path id="draw-line d2_4" d="M461.402 343.91L562.195 344.18" stroke="#0000FF" stroke-width="10" stroke-linecap="round"/>
<path id="draw-line d1_5" d="M291.201 343.455L391.994 343.725" stroke="#0000FF" stroke-width="10" stroke-linecap="round"/>
<path id="draw-line_8" d="M121 343L221.793 343.269" stroke="#0000FF" stroke-width="10" stroke-linecap="round"/>
</g>
</g>
<g id="step-4">
<g id="input_7">
<path id="draw-line d5_4" d="M945.5 420V604.5" stroke="#85A7E8" stroke-width="8" stroke-linecap="round"/>
<path id="draw-line d4_4" d="M840.5 420V604.5" stroke="#85A7E8" stroke-width="8" stroke-linecap="round"/>
<path id="draw-line d3_5" d="M735.5 420V604.5" stroke="#85A7E8" stroke-width="8" stroke-linecap="round"/>
<path id="draw-line d2_5" d="M630.5 420V604.5" stroke="#85A7E8" stroke-width="8" stroke-linecap="round"/>
<path id="draw-line d1_6" d="M525.5 420V604.5" stroke="#85A7E8" stroke-width="8" stroke-linecap="round"/>
<path id="draw-line " d="M421 420V604.5" stroke="#85A7E8" stroke-width="8" stroke-linecap="round"/>
</g>
<g id="template_7">
<path id="vector1" d="M945.5 420V604.5" stroke="#00FF00" stroke-width="80" stroke-linecap="round"/>
<path id="vector1_2" d="M840.5 420V604.5" stroke="#00FF00" stroke-width="80" stroke-linecap="round"/>
<path id="vector1_3" d="M735.5 420V604.5" stroke="#00FF00" stroke-width="80" stroke-linecap="round"/>
<path id="vector1_4" d="M630.5 420V604.5" stroke="#00FF00" stroke-width="80" stroke-linecap="round"/>
<path id="vector1_5" d="M525.5 420V604.5" stroke="#00FF00" stroke-width="80" stroke-linecap="round"/>
<path id="vector1_6" d="M421 420V604.5" stroke="#00FF00" stroke-width="80" stroke-linecap="round"/>
<path id="vector_5" d="M945.5 420V604.5" stroke="#0000FF" stroke-width="10" stroke-linecap="round"/>
<path id="vector_6" d="M840.5 420V604.5" stroke="#0000FF" stroke-width="10" stroke-linecap="round"/>
<path id="vector_7" d="M735.5 420V604.5" stroke="#0000FF" stroke-width="10" stroke-linecap="round"/>
<path id="vector_8" d="M630.5 420V604.5" stroke="#0000FF" stroke-width="10" stroke-linecap="round"/>
<path id="vector_9" d="M525.5 420V604.5" stroke="#0000FF" stroke-width="10" stroke-linecap="round"/>
<path id="vector_10" d="M421 420V604.5" stroke="#0000FF" stroke-width="10" stroke-linecap="round"/>
</g>
</g>
<g id="step-3">
<g id="input_8">
<path id="draw-line &#208;&#178;5" d="M1157.5 512H1230" stroke="#85A7E8" stroke-width="8" stroke-linecap="round"/>
<path id="draw-line d5_5" d="M1006.5 512H1110" stroke="#85A7E8" stroke-width="8" stroke-linecap="round"/>
<path id="draw-line d4_5" d="M461.5 512H519" stroke="#85A7E8" stroke-width="8" stroke-linecap="round"/>
<path id="draw-line d3_6" d="M759.5 512H959" stroke="#85A7E8" stroke-width="8" stroke-linecap="round"/>
<path id="draw-line d2_6" d="M566.5 512H712" stroke="#85A7E8" stroke-width="8" stroke-linecap="round"/>
<path id="draw-line d1_7" d="M259.5 512H414" stroke="#85A7E8" stroke-width="8" stroke-linecap="round"/>
<path id="draw-line_9" d="M136 512H211.5" stroke="#85A7E8" stroke-width="8" stroke-linecap="round"/>
</g>
<g id="template_8">
<path id="Vector 86" d="M136 512H211.5" stroke="#00FF00" stroke-width="40" stroke-linecap="round"/>
<path id="Vector 87" d="M259.5 512H414" stroke="#00FF00" stroke-width="40" stroke-linecap="round"/>
<path id="Vector 88" d="M461.5 512H519" stroke="#00FF00" stroke-width="40" stroke-linecap="round"/>
<path id="Vector 89" d="M566.5 512H712" stroke="#00FF00" stroke-width="40" stroke-linecap="round"/>
<path id="Vector 90" d="M759.5 512H959" stroke="#00FF00" stroke-width="40" stroke-linecap="round"/>
<path id="Vector 91" d="M1006.5 512H1110" stroke="#00FF00" stroke-width="40" stroke-linecap="round"/>
<path id="Vector 92" d="M1157.5 512H1230" stroke="#00FF00" stroke-width="40" stroke-linecap="round"/>
<path id="Vector 79" d="M136 512H211.5" stroke="#0000FF" stroke-width="10" stroke-linecap="round"/>
<path id="Vector 80" d="M259.5 512H414" stroke="#0000FF" stroke-width="10" stroke-linecap="round"/>
<path id="Vector 81" d="M461.5 512H519" stroke="#0000FF" stroke-width="10" stroke-linecap="round"/>
<path id="Vector 82" d="M566.5 512H712" stroke="#0000FF" stroke-width="10" stroke-linecap="round"/>
<path id="Vector 83" d="M759.5 512H959" stroke="#0000FF" stroke-width="10" stroke-linecap="round"/>
<path id="Vector 84" d="M1006.5 512H1110" stroke="#0000FF" stroke-width="10" stroke-linecap="round"/>
<path id="Vector 85" d="M1157.5 512H1230" stroke="#0000FF" stroke-width="10" stroke-linecap="round"/>
</g>
</g>
<g id="step-2">
<g id="input_9">
<path id="draw-line d5_6" d="M1054 498H1162" stroke="#85A7E8" stroke-width="8" stroke-linecap="round"/>
<path id="draw-line d4_6" d="M890 498H998" stroke="#85A7E8" stroke-width="8" stroke-linecap="round"/>
<path id="draw-line d3_7" d="M717.5 498H825.5" stroke="#85A7E8" stroke-width="8" stroke-linecap="round"/>
<path id="draw-line d2_7" d="M539.5 498H647.5" stroke="#85A7E8" stroke-width="8" stroke-linecap="round"/>
<path id="draw-line d1_8" d="M375.5 498H483.5" stroke="#85A7E8" stroke-width="8" stroke-linecap="round"/>
<path id="draw-line_10" d="M203 498H311" stroke="#85A7E8" stroke-width="8" stroke-linecap="round"/>
</g>
<g id="template_9">
<path id="Vector 73" d="M717.5 498H825.5" stroke="#00FF00" stroke-width="40" stroke-linecap="round"/>
<path id="Vector 74" d="M1054 498H1162" stroke="#00FF00" stroke-width="40" stroke-linecap="round"/>
<path id="Vector 75" d="M890 498H998" stroke="#00FF00" stroke-width="40" stroke-linecap="round"/>
<path id="Vector 76" d="M203 498H311" stroke="#00FF00" stroke-width="40" stroke-linecap="round"/>
<path id="Vector 77" d="M539.5 498H647.5" stroke="#00FF00" stroke-width="40" stroke-linecap="round"/>
<path id="Vector 78" d="M375.5 498H483.5" stroke="#00FF00" stroke-width="40" stroke-linecap="round"/>
<path id="Vector 70" d="M717.5 498H825.5" stroke="#0000FF" stroke-width="10" stroke-linecap="round"/>
<path id="Vector 71" d="M1054 498H1162" stroke="#0000FF" stroke-width="10" stroke-linecap="round"/>
<path id="Vector 72" d="M890 498H998" stroke="#0000FF" stroke-width="10" stroke-linecap="round"/>
<path id="Vector 70_2" d="M203 498H311" stroke="#0000FF" stroke-width="10" stroke-linecap="round"/>
<path id="Vector 71_2" d="M539.5 498H647.5" stroke="#0000FF" stroke-width="10" stroke-linecap="round"/>
<path id="Vector 72_2" d="M375.5 498H483.5" stroke="#0000FF" stroke-width="10" stroke-linecap="round"/>
</g>
</g>
<g id="step-1">
<g id="input_10">
<circle id="Ellipse 2" cx="1106" cy="512" r="10" fill="#C4C4C4"/>
<circle id="Ellipse 1" cx="283" cy="512" r="10" fill="#C4C4C4"/>
<path id="draw-line_11" d="M283 512H1106.5" stroke="#85A7E8" stroke-width="6" stroke-linecap="round"/>
</g>
<g id="template_10">
<path id="Vector 3" d="M283 512H1106.5" stroke="#00FF00" stroke-width="80" stroke-linecap="round"/>
<path id="Vector 2" d="M283 512H1106.5" stroke="#0000FF" stroke-width="10" stroke-linecap="round"/>
</g>
</g>
</g>
</svg>
