<svg width="1366" height="1024" viewBox="0 0 1366 1024" fill="none" xmlns="http://www.w3.org/2000/svg">
<g id="1-point-perspective" clip-path="url(#clip0)">
<g id="step">
<g id="input">
<g id="ref">
<g id="ref_2">
<path id="d" d="M-2.5 440.5H1366" stroke="#CBD8F1" stroke-width="8"/>
<path id="d_2" d="M683 436C685.209 436 687 437.791 687 440C687 442.209 685.209 444 683 444C680.791 444 679 442.209 679 440C679 437.81 680.759 436.032 682.942 436" stroke="#EB5757" stroke-width="20" stroke-linecap="round"/>
</g>
<path id="d_3" d="M1371.5 158.5L689.5 438.5" stroke="#CBD8F1" stroke-width="8" stroke-linecap="round" stroke-linejoin="round"/>
<path id="d_4" d="M-5 158.5L677 438.5" stroke="#CBD8F1" stroke-width="8" stroke-linecap="round" stroke-linejoin="round"/>
<path id="d_5" d="M1373.5 951L685 438.5" stroke="#CBD8F1" stroke-width="8" stroke-linecap="round" stroke-linejoin="round"/>
<path id="d_6" d="M-7 951L681.5 438.5" stroke="#CBD8F1" stroke-width="8" stroke-linecap="round" stroke-linejoin="round"/>
<path id="d_7" d="M1246.5 1037.5L683 440.5" stroke="#CBD8F1" stroke-width="8" stroke-linecap="round" stroke-linejoin="round"/>
<path id="d_8" d="M120 1037.5L683.5 440.5" stroke="#CBD8F1" stroke-width="8" stroke-linecap="round" stroke-linejoin="round"/>
</g>
<path id="draw-line r2 rgb-template" d="M1305 1014.5C1294.6 1009.7 891.667 635.333 683.5 440.5" stroke="#6685D4" stroke-width="8" stroke-linecap="round"/>
<path id="draw-line r2 rgb-template_2" d="M59.5 1014.5C69.9 1009.7 472.833 635.333 681 440.5" stroke="#6685D4" stroke-width="8" stroke-linecap="round"/>
<path id="Draw the lines to the vanishing point through the reference points." d="M171.558 127V104.961H177.779C179.697 104.961 181.392 105.385 182.865 106.232C184.339 107.08 185.474 108.286 186.271 109.85C187.078 111.414 187.487 113.21 187.497 115.239V116.646C187.497 118.725 187.093 120.547 186.286 122.111C185.489 123.675 184.344 124.876 182.85 125.713C181.367 126.551 179.636 126.98 177.658 127H171.558ZM174.464 107.353V124.624H177.522C179.762 124.624 181.503 123.927 182.744 122.535C183.995 121.142 184.621 119.159 184.621 116.586V115.299C184.621 112.797 184.031 110.854 182.85 109.472C181.68 108.079 180.014 107.373 177.855 107.353H174.464ZM202.169 113.135C201.746 113.064 201.286 113.029 200.792 113.029C198.955 113.029 197.709 113.811 197.053 115.375V127H194.253V110.622H196.978L197.023 112.514C197.941 111.051 199.243 110.319 200.928 110.319C201.473 110.319 201.887 110.39 202.169 110.531V113.135ZM217.054 127C216.892 126.677 216.761 126.102 216.66 125.274C215.358 126.627 213.804 127.303 211.998 127.303C210.383 127.303 209.056 126.849 208.017 125.94C206.988 125.022 206.473 123.862 206.473 122.459C206.473 120.754 207.119 119.432 208.411 118.493C209.712 117.545 211.539 117.07 213.89 117.07H216.615V115.784C216.615 114.805 216.322 114.028 215.737 113.453C215.151 112.867 214.289 112.575 213.148 112.575C212.149 112.575 211.312 112.827 210.636 113.332C209.96 113.836 209.622 114.447 209.622 115.163H206.806C206.806 114.346 207.094 113.559 207.669 112.802C208.254 112.035 209.041 111.429 210.03 110.985C211.029 110.541 212.124 110.319 213.315 110.319C215.202 110.319 216.68 110.794 217.75 111.742C218.82 112.681 219.375 113.977 219.415 115.632V123.17C219.415 124.674 219.607 125.87 219.99 126.758V127H217.054ZM212.407 124.866C213.285 124.866 214.117 124.639 214.904 124.185C215.691 123.73 216.261 123.14 216.615 122.414V119.053H214.42C210.989 119.053 209.273 120.057 209.273 122.065C209.273 122.943 209.566 123.63 210.151 124.124C210.737 124.618 211.488 124.866 212.407 124.866ZM241.096 123.14L244.244 110.622H247.044L242.276 127H240.006L236.025 114.588L232.15 127H229.879L225.126 110.622H227.912L231.136 122.883L234.95 110.622H237.205L241.096 123.14ZM266.974 106.656V110.622H270.032V112.787H266.974V122.943C266.974 123.599 267.11 124.094 267.383 124.427C267.655 124.75 268.119 124.911 268.775 124.911C269.098 124.911 269.542 124.851 270.107 124.729V127C269.371 127.202 268.654 127.303 267.958 127.303C266.707 127.303 265.763 126.924 265.127 126.167C264.492 125.411 264.174 124.336 264.174 122.943V112.787H261.192V110.622H264.174V106.656H266.974ZM278.907 112.605C280.148 111.081 281.762 110.319 283.75 110.319C287.212 110.319 288.957 112.272 288.988 116.177V127H286.187V116.162C286.177 114.981 285.905 114.109 285.37 113.543C284.845 112.978 284.023 112.696 282.903 112.696C281.994 112.696 281.197 112.938 280.511 113.422C279.825 113.907 279.29 114.542 278.907 115.33V127H276.106V103.75H278.907V112.605ZM302.767 127.303C300.547 127.303 298.74 126.576 297.348 125.123C295.955 123.66 295.259 121.707 295.259 119.265V118.75C295.259 117.126 295.567 115.678 296.182 114.406C296.808 113.125 297.676 112.126 298.786 111.409C299.906 110.683 301.117 110.319 302.419 110.319C304.548 110.319 306.203 111.021 307.384 112.423C308.564 113.826 309.155 115.834 309.155 118.448V119.613H298.059C298.1 121.228 298.569 122.535 299.467 123.534C300.375 124.523 301.526 125.017 302.918 125.017C303.907 125.017 304.745 124.815 305.431 124.412C306.117 124.008 306.717 123.473 307.232 122.807L308.943 124.139C307.57 126.248 305.512 127.303 302.767 127.303ZM302.419 112.62C301.288 112.62 300.34 113.034 299.573 113.861C298.806 114.679 298.332 115.829 298.15 117.312H306.354V117.101C306.273 115.678 305.89 114.578 305.204 113.801C304.518 113.014 303.589 112.62 302.419 112.62ZM328.721 127H325.921V103.75H328.721V127ZM339.049 127H336.249V110.622H339.049V127ZM336.022 106.278C336.022 105.824 336.158 105.44 336.43 105.127C336.713 104.815 337.127 104.658 337.671 104.658C338.216 104.658 338.63 104.815 338.913 105.127C339.195 105.44 339.337 105.824 339.337 106.278C339.337 106.732 339.195 107.11 338.913 107.413C338.63 107.716 338.216 107.867 337.671 107.867C337.127 107.867 336.713 107.716 336.43 107.413C336.158 107.11 336.022 106.732 336.022 106.278ZM348.983 110.622L349.074 112.681C350.326 111.106 351.96 110.319 353.979 110.319C357.44 110.319 359.186 112.272 359.216 116.177V127H356.416V116.162C356.405 114.981 356.133 114.109 355.598 113.543C355.073 112.978 354.251 112.696 353.131 112.696C352.223 112.696 351.426 112.938 350.739 113.422C350.053 113.907 349.518 114.542 349.135 115.33V127H346.335V110.622H348.983ZM373.025 127.303C370.805 127.303 368.999 126.576 367.606 125.123C366.214 123.66 365.518 121.707 365.518 119.265V118.75C365.518 117.126 365.825 115.678 366.441 114.406C367.067 113.125 367.934 112.126 369.044 111.409C370.165 110.683 371.376 110.319 372.677 110.319C374.806 110.319 376.461 111.021 377.642 112.423C378.823 113.826 379.413 115.834 379.413 118.448V119.613H368.318C368.358 121.228 368.827 122.535 369.726 123.534C370.634 124.523 371.784 125.017 373.177 125.017C374.166 125.017 375.003 124.815 375.689 124.412C376.376 124.008 376.976 123.473 377.491 122.807L379.201 124.139C377.829 126.248 375.77 127.303 373.025 127.303ZM372.677 112.62C371.547 112.62 370.598 113.034 369.832 113.861C369.065 114.679 368.59 115.829 368.409 117.312H376.613V117.101C376.532 115.678 376.149 114.578 375.462 113.801C374.776 113.014 373.848 112.62 372.677 112.62ZM394.994 122.656C394.994 121.899 394.706 121.314 394.131 120.9C393.566 120.476 392.572 120.113 391.149 119.81C389.736 119.507 388.611 119.144 387.773 118.72C386.946 118.296 386.33 117.792 385.927 117.207C385.533 116.621 385.336 115.925 385.336 115.118C385.336 113.776 385.902 112.64 387.032 111.712C388.172 110.784 389.625 110.319 391.391 110.319C393.248 110.319 394.751 110.799 395.902 111.757C397.062 112.716 397.643 113.942 397.643 115.436H394.827C394.827 114.669 394.499 114.008 393.843 113.453C393.197 112.898 392.38 112.62 391.391 112.62C390.372 112.62 389.575 112.842 388.999 113.286C388.424 113.73 388.137 114.31 388.137 115.027C388.137 115.703 388.404 116.213 388.939 116.556C389.474 116.899 390.437 117.227 391.83 117.54C393.233 117.852 394.368 118.226 395.236 118.66C396.104 119.094 396.744 119.618 397.158 120.234C397.582 120.839 397.794 121.581 397.794 122.459C397.794 123.922 397.209 125.098 396.038 125.986C394.867 126.864 393.349 127.303 391.482 127.303C390.17 127.303 389.01 127.071 388 126.606C386.991 126.142 386.199 125.496 385.624 124.669C385.059 123.831 384.776 122.928 384.776 121.959H387.577C387.627 122.898 388 123.645 388.697 124.2C389.403 124.745 390.332 125.017 391.482 125.017C392.541 125.017 393.389 124.805 394.025 124.381C394.671 123.947 394.994 123.372 394.994 122.656ZM418.511 106.656V110.622H421.568V112.787H418.511V122.943C418.511 123.599 418.647 124.094 418.919 124.427C419.192 124.75 419.656 124.911 420.312 124.911C420.635 124.911 421.079 124.851 421.644 124.729V127C420.907 127.202 420.191 127.303 419.495 127.303C418.243 127.303 417.3 126.924 416.664 126.167C416.028 125.411 415.71 124.336 415.71 122.943V112.787H412.728V110.622H415.71V106.656H418.511ZM426.599 118.66C426.599 117.055 426.911 115.612 427.537 114.331C428.173 113.049 429.051 112.06 430.171 111.364C431.301 110.667 432.588 110.319 434.031 110.319C436.261 110.319 438.062 111.091 439.434 112.635C440.817 114.179 441.508 116.233 441.508 118.796V118.993C441.508 120.587 441.2 122.02 440.585 123.292C439.979 124.553 439.106 125.537 437.966 126.243C436.836 126.95 435.534 127.303 434.061 127.303C431.841 127.303 430.04 126.531 428.657 124.987C427.285 123.443 426.599 121.399 426.599 118.856V118.66ZM429.414 118.993C429.414 120.809 429.833 122.267 430.67 123.367C431.518 124.467 432.648 125.017 434.061 125.017C435.484 125.017 436.614 124.462 437.452 123.352C438.289 122.232 438.708 120.668 438.708 118.66C438.708 116.863 438.279 115.41 437.421 114.3C436.574 113.18 435.443 112.62 434.031 112.62C432.648 112.62 431.533 113.17 430.685 114.27C429.838 115.37 429.414 116.944 429.414 118.993ZM462.089 106.656V110.622H465.146V112.787H462.089V122.943C462.089 123.599 462.225 124.094 462.497 124.427C462.77 124.75 463.234 124.911 463.89 124.911C464.213 124.911 464.657 124.851 465.222 124.729V127C464.485 127.202 463.769 127.303 463.073 127.303C461.821 127.303 460.878 126.924 460.242 126.167C459.606 125.411 459.288 124.336 459.288 122.943V112.787H456.306V110.622H459.288V106.656H462.089ZM474.021 112.605C475.262 111.081 476.877 110.319 478.865 110.319C482.326 110.319 484.072 112.272 484.102 116.177V127H481.302V116.162C481.292 114.981 481.019 114.109 480.485 113.543C479.96 112.978 479.137 112.696 478.017 112.696C477.109 112.696 476.312 112.938 475.626 113.422C474.94 113.907 474.405 114.542 474.021 115.33V127H471.221V103.75H474.021V112.605ZM497.882 127.303C495.661 127.303 493.855 126.576 492.463 125.123C491.07 123.66 490.374 121.707 490.374 119.265V118.75C490.374 117.126 490.681 115.678 491.297 114.406C491.923 113.125 492.791 112.126 493.901 111.409C495.021 110.683 496.232 110.319 497.533 110.319C499.663 110.319 501.318 111.021 502.498 112.423C503.679 113.826 504.269 115.834 504.269 118.448V119.613H493.174C493.214 121.228 493.684 122.535 494.582 123.534C495.49 124.523 496.64 125.017 498.033 125.017C499.022 125.017 499.859 124.815 500.546 124.412C501.232 124.008 501.832 123.473 502.347 122.807L504.057 124.139C502.685 126.248 500.626 127.303 497.882 127.303ZM497.533 112.62C496.403 112.62 495.455 113.034 494.688 113.861C493.921 114.679 493.446 115.829 493.265 117.312H501.469V117.101C501.388 115.678 501.005 114.578 500.319 113.801C499.632 113.014 498.704 112.62 497.533 112.62ZM526.197 123.201L530.254 110.622H533.114L527.241 127H525.107L519.173 110.622H522.034L526.197 123.201ZM548.468 127C548.306 126.677 548.175 126.102 548.074 125.274C546.773 126.627 545.219 127.303 543.412 127.303C541.798 127.303 540.471 126.849 539.431 125.94C538.402 125.022 537.887 123.862 537.887 122.459C537.887 120.754 538.533 119.432 539.825 118.493C541.127 117.545 542.953 117.07 545.304 117.07H548.029V115.784C548.029 114.805 547.736 114.028 547.151 113.453C546.566 112.867 545.703 112.575 544.563 112.575C543.564 112.575 542.726 112.827 542.05 113.332C541.374 113.836 541.036 114.447 541.036 115.163H538.22C538.22 114.346 538.508 113.559 539.083 112.802C539.668 112.035 540.455 111.429 541.444 110.985C542.443 110.541 543.538 110.319 544.729 110.319C546.616 110.319 548.094 110.794 549.164 111.742C550.234 112.681 550.789 113.977 550.829 115.632V123.17C550.829 124.674 551.021 125.87 551.404 126.758V127H548.468ZM543.821 124.866C544.699 124.866 545.531 124.639 546.318 124.185C547.106 123.73 547.676 123.14 548.029 122.414V119.053H545.834C542.403 119.053 540.688 120.057 540.688 122.065C540.688 122.943 540.98 123.63 541.566 124.124C542.151 124.618 542.903 124.866 543.821 124.866ZM560.658 110.622L560.749 112.681C562 111.106 563.635 110.319 565.653 110.319C569.114 110.319 570.86 112.272 570.89 116.177V127H568.09V116.162C568.08 114.981 567.807 114.109 567.272 113.543C566.748 112.978 565.925 112.696 564.805 112.696C563.897 112.696 563.1 112.938 562.414 113.422C561.727 113.907 561.193 114.542 560.809 115.33V127H558.009V110.622H560.658ZM580.946 127H578.146V110.622H580.946V127ZM577.918 106.278C577.918 105.824 578.055 105.44 578.327 105.127C578.61 104.815 579.023 104.658 579.568 104.658C580.113 104.658 580.527 104.815 580.81 105.127C581.092 105.44 581.233 105.824 581.233 106.278C581.233 106.732 581.092 107.11 580.81 107.413C580.527 107.716 580.113 107.867 579.568 107.867C579.023 107.867 578.61 107.716 578.327 107.413C578.055 107.11 577.918 106.732 577.918 106.278ZM597.768 122.656C597.768 121.899 597.48 121.314 596.905 120.9C596.34 120.476 595.346 120.113 593.923 119.81C592.51 119.507 591.385 119.144 590.547 118.72C589.72 118.296 589.104 117.792 588.701 117.207C588.307 116.621 588.11 115.925 588.11 115.118C588.11 113.776 588.675 112.64 589.806 111.712C590.946 110.784 592.399 110.319 594.165 110.319C596.022 110.319 597.525 110.799 598.676 111.757C599.836 112.716 600.416 113.942 600.416 115.436H597.601C597.601 114.669 597.273 114.008 596.617 113.453C595.971 112.898 595.154 112.62 594.165 112.62C593.146 112.62 592.349 112.842 591.773 113.286C591.198 113.73 590.911 114.31 590.911 115.027C590.911 115.703 591.178 116.213 591.713 116.556C592.248 116.899 593.211 117.227 594.604 117.54C596.007 117.852 597.142 118.226 598.01 118.66C598.878 119.094 599.518 119.618 599.932 120.234C600.356 120.839 600.568 121.581 600.568 122.459C600.568 123.922 599.983 125.098 598.812 125.986C597.641 126.864 596.123 127.303 594.256 127.303C592.944 127.303 591.783 127.071 590.774 126.606C589.765 126.142 588.973 125.496 588.398 124.669C587.833 123.831 587.55 122.928 587.55 121.959H590.351C590.401 122.898 590.774 123.645 591.471 124.2C592.177 124.745 593.105 125.017 594.256 125.017C595.315 125.017 596.163 124.805 596.799 124.381C597.445 123.947 597.768 123.372 597.768 122.656ZM609.806 112.605C611.047 111.081 612.662 110.319 614.65 110.319C618.111 110.319 619.857 112.272 619.887 116.177V127H617.087V116.162C617.077 114.981 616.804 114.109 616.269 113.543C615.745 112.978 614.922 112.696 613.802 112.696C612.894 112.696 612.097 112.938 611.411 113.422C610.724 113.907 610.19 114.542 609.806 115.33V127H607.006V103.75H609.806V112.605ZM629.912 127H627.112V110.622H629.912V127ZM626.885 106.278C626.885 105.824 627.021 105.44 627.294 105.127C627.576 104.815 627.99 104.658 628.535 104.658C629.08 104.658 629.494 104.815 629.776 105.127C630.059 105.44 630.2 105.824 630.2 106.278C630.2 106.732 630.059 107.11 629.776 107.413C629.494 107.716 629.08 107.867 628.535 107.867C627.99 107.867 627.576 107.716 627.294 107.413C627.021 107.11 626.885 106.732 626.885 106.278ZM639.847 110.622L639.938 112.681C641.189 111.106 642.824 110.319 644.842 110.319C648.303 110.319 650.049 112.272 650.079 116.177V127H647.279V116.162C647.269 114.981 646.997 114.109 646.462 113.543C645.937 112.978 645.115 112.696 643.994 112.696C643.086 112.696 642.289 112.938 641.603 113.422C640.917 113.907 640.382 114.542 639.998 115.33V127H637.198V110.622H639.847ZM656.427 118.675C656.427 116.122 657.017 114.093 658.198 112.59C659.378 111.076 660.942 110.319 662.89 110.319C664.888 110.319 666.447 111.026 667.567 112.438L667.703 110.622H670.262V126.606C670.262 128.726 669.631 130.396 668.369 131.617C667.118 132.838 665.433 133.448 663.314 133.448C662.133 133.448 660.978 133.196 659.847 132.691C658.717 132.187 657.854 131.496 657.259 130.618L658.712 128.938C659.913 130.421 661.381 131.163 663.117 131.163C664.479 131.163 665.539 130.779 666.296 130.012C667.063 129.245 667.446 128.166 667.446 126.773V125.365C666.326 126.657 664.797 127.303 662.86 127.303C660.942 127.303 659.388 126.531 658.198 124.987C657.017 123.443 656.427 121.339 656.427 118.675ZM659.242 118.993C659.242 120.839 659.62 122.292 660.377 123.352C661.134 124.402 662.194 124.926 663.556 124.926C665.322 124.926 666.619 124.124 667.446 122.52V115.042C666.588 113.478 665.302 112.696 663.586 112.696C662.224 112.696 661.159 113.226 660.392 114.285C659.625 115.345 659.242 116.914 659.242 118.993ZM701.604 118.993C701.604 121.485 701.034 123.493 699.894 125.017C698.753 126.541 697.21 127.303 695.262 127.303C693.274 127.303 691.71 126.672 690.57 125.411V133.297H687.769V110.622H690.327L690.464 112.438C691.604 111.026 693.188 110.319 695.217 110.319C697.184 110.319 698.738 111.061 699.879 112.544C701.029 114.028 701.604 116.091 701.604 118.735V118.993ZM698.804 118.675C698.804 116.828 698.41 115.37 697.623 114.3C696.836 113.231 695.756 112.696 694.384 112.696C692.689 112.696 691.417 113.448 690.57 114.951V122.777C691.407 124.27 692.689 125.017 694.414 125.017C695.756 125.017 696.821 124.487 697.608 123.428C698.405 122.358 698.804 120.774 698.804 118.675ZM707.225 118.66C707.225 117.055 707.538 115.612 708.163 114.331C708.799 113.049 709.677 112.06 710.797 111.364C711.927 110.667 713.214 110.319 714.657 110.319C716.887 110.319 718.688 111.091 720.061 112.635C721.443 114.179 722.134 116.233 722.134 118.796V118.993C722.134 120.587 721.827 122.02 721.211 123.292C720.606 124.553 719.733 125.537 718.592 126.243C717.462 126.95 716.161 127.303 714.687 127.303C712.467 127.303 710.666 126.531 709.283 124.987C707.911 123.443 707.225 121.399 707.225 118.856V118.66ZM710.04 118.993C710.04 120.809 710.459 122.267 711.297 123.367C712.144 124.467 713.274 125.017 714.687 125.017C716.11 125.017 717.24 124.462 718.078 123.352C718.915 122.232 719.334 120.668 719.334 118.66C719.334 116.863 718.905 115.41 718.048 114.3C717.2 113.18 716.07 112.62 714.657 112.62C713.274 112.62 712.159 113.17 711.312 114.27C710.464 115.37 710.04 116.944 710.04 118.993ZM731.479 127H728.678V110.622H731.479V127ZM728.451 106.278C728.451 105.824 728.588 105.44 728.86 105.127C729.143 104.815 729.556 104.658 730.101 104.658C730.646 104.658 731.06 104.815 731.342 105.127C731.625 105.44 731.766 105.824 731.766 106.278C731.766 106.732 731.625 107.11 731.342 107.413C731.06 107.716 730.646 107.867 730.101 107.867C729.556 107.867 729.143 107.716 728.86 107.413C728.588 107.11 728.451 106.732 728.451 106.278ZM741.413 110.622L741.504 112.681C742.755 111.106 744.39 110.319 746.408 110.319C749.87 110.319 751.615 112.272 751.646 116.177V127H748.845V116.162C748.835 114.981 748.563 114.109 748.028 113.543C747.503 112.978 746.681 112.696 745.561 112.696C744.652 112.696 743.855 112.938 743.169 113.422C742.483 113.907 741.948 114.542 741.565 115.33V127H738.764V110.622H741.413ZM762.458 106.656V110.622H765.516V112.787H762.458V122.943C762.458 123.599 762.594 124.094 762.867 124.427C763.139 124.75 763.603 124.911 764.259 124.911C764.582 124.911 765.026 124.851 765.591 124.729V127C764.855 127.202 764.138 127.303 763.442 127.303C762.191 127.303 761.247 126.924 760.611 126.167C759.976 125.411 759.658 124.336 759.658 122.943V112.787H756.676V110.622H759.658V106.656H762.458ZM785.869 106.656V110.622H788.927V112.787H785.869V122.943C785.869 123.599 786.005 124.094 786.278 124.427C786.55 124.75 787.014 124.911 787.67 124.911C787.993 124.911 788.437 124.851 789.002 124.729V127C788.266 127.202 787.549 127.303 786.853 127.303C785.602 127.303 784.658 126.924 784.022 126.167C783.387 125.411 783.069 124.336 783.069 122.943V112.787H780.087V110.622H783.069V106.656H785.869ZM797.802 112.605C799.043 111.081 800.657 110.319 802.645 110.319C806.107 110.319 807.852 112.272 807.883 116.177V127H805.082V116.162C805.072 114.981 804.8 114.109 804.265 113.543C803.74 112.978 802.918 112.696 801.798 112.696C800.89 112.696 800.092 112.938 799.406 113.422C798.72 113.907 798.185 114.542 797.802 115.33V127H795.001V103.75H797.802V112.605ZM822.782 113.135C822.358 113.064 821.899 113.029 821.405 113.029C819.568 113.029 818.322 113.811 817.666 115.375V127H814.866V110.622H817.59L817.636 112.514C818.554 111.051 819.856 110.319 821.541 110.319C822.086 110.319 822.5 110.39 822.782 110.531V113.135ZM827.116 118.66C827.116 117.055 827.429 115.612 828.055 114.331C828.69 113.049 829.568 112.06 830.688 111.364C831.819 110.667 833.105 110.319 834.548 110.319C836.778 110.319 838.58 111.091 839.952 112.635C841.335 114.179 842.026 116.233 842.026 118.796V118.993C842.026 120.587 841.718 122.02 841.102 123.292C840.497 124.553 839.624 125.537 838.484 126.243C837.354 126.95 836.052 127.303 834.578 127.303C832.358 127.303 830.557 126.531 829.175 124.987C827.802 123.443 827.116 121.399 827.116 118.856V118.66ZM829.932 118.993C829.932 120.809 830.35 122.267 831.188 123.367C832.036 124.467 833.166 125.017 834.578 125.017C836.001 125.017 837.132 124.462 837.969 123.352C838.807 122.232 839.225 120.668 839.225 118.66C839.225 116.863 838.797 115.41 837.939 114.3C837.091 113.18 835.961 112.62 834.548 112.62C833.166 112.62 832.051 113.17 831.203 114.27C830.355 115.37 829.932 116.944 829.932 118.993ZM858.439 125.38C857.349 126.662 855.749 127.303 853.64 127.303C851.895 127.303 850.563 126.798 849.644 125.789C848.736 124.77 848.277 123.266 848.267 121.278V110.622H851.067V121.203C851.067 123.685 852.076 124.926 854.095 124.926C856.234 124.926 857.657 124.129 858.363 122.535V110.622H861.163V127H858.499L858.439 125.38ZM867.556 118.675C867.556 116.122 868.146 114.093 869.327 112.59C870.508 111.076 872.072 110.319 874.019 110.319C876.017 110.319 877.576 111.026 878.697 112.438L878.833 110.622H881.391V126.606C881.391 128.726 880.76 130.396 879.499 131.617C878.247 132.838 876.562 133.448 874.443 133.448C873.262 133.448 872.107 133.196 870.977 132.691C869.847 132.187 868.984 131.496 868.388 130.618L869.842 128.938C871.042 130.421 872.511 131.163 874.246 131.163C875.609 131.163 876.668 130.779 877.425 130.012C878.192 129.245 878.575 128.166 878.575 126.773V125.365C877.455 126.657 875.927 127.303 873.989 127.303C872.072 127.303 870.518 126.531 869.327 124.987C868.146 123.443 867.556 121.339 867.556 118.675ZM870.371 118.993C870.371 120.839 870.75 122.292 871.507 123.352C872.263 124.402 873.323 124.926 874.685 124.926C876.451 124.926 877.748 124.124 878.575 122.52V115.042C877.718 113.478 876.431 112.696 874.716 112.696C873.353 112.696 872.289 113.226 871.522 114.285C870.755 115.345 870.371 116.914 870.371 118.993ZM891.219 112.605C892.461 111.081 894.075 110.319 896.063 110.319C899.524 110.319 901.27 112.272 901.301 116.177V127H898.5V116.162C898.49 114.981 898.218 114.109 897.683 113.543C897.158 112.978 896.336 112.696 895.216 112.696C894.307 112.696 893.51 112.938 892.824 113.422C892.138 113.907 891.603 114.542 891.219 115.33V127H888.419V103.75H891.219V112.605ZM922.562 106.656V110.622H925.62V112.787H922.562V122.943C922.562 123.599 922.698 124.094 922.971 124.427C923.243 124.75 923.708 124.911 924.363 124.911C924.686 124.911 925.13 124.851 925.695 124.729V127C924.959 127.202 924.242 127.303 923.546 127.303C922.295 127.303 921.351 126.924 920.716 126.167C920.08 125.411 919.762 124.336 919.762 122.943V112.787H916.78V110.622H919.762V106.656H922.562ZM934.495 112.605C935.736 111.081 937.351 110.319 939.339 110.319C942.8 110.319 944.546 112.272 944.576 116.177V127H941.776V116.162C941.765 114.981 941.493 114.109 940.958 113.543C940.433 112.978 939.611 112.696 938.491 112.696C937.583 112.696 936.785 112.938 936.099 113.422C935.413 113.907 934.878 114.542 934.495 115.33V127H931.694V103.75H934.495V112.605ZM958.355 127.303C956.135 127.303 954.329 126.576 952.936 125.123C951.544 123.66 950.847 121.707 950.847 119.265V118.75C950.847 117.126 951.155 115.678 951.771 114.406C952.396 113.125 953.264 112.126 954.374 111.409C955.494 110.683 956.705 110.319 958.007 110.319C960.136 110.319 961.791 111.021 962.972 112.423C964.152 113.826 964.743 115.834 964.743 118.448V119.613H953.648C953.688 121.228 954.157 122.535 955.055 123.534C955.963 124.523 957.114 125.017 958.506 125.017C959.495 125.017 960.333 124.815 961.019 124.412C961.705 124.008 962.306 123.473 962.82 122.807L964.531 124.139C963.158 126.248 961.1 127.303 958.355 127.303ZM958.007 112.62C956.877 112.62 955.928 113.034 955.161 113.861C954.394 114.679 953.92 115.829 953.738 117.312H961.942V117.101C961.862 115.678 961.478 114.578 960.792 113.801C960.106 113.014 959.177 112.62 958.007 112.62ZM989.183 113.135C988.759 113.064 988.3 113.029 987.806 113.029C985.969 113.029 984.723 113.811 984.067 115.375V127H981.267V110.622H983.991L984.037 112.514C984.955 111.051 986.257 110.319 987.942 110.319C988.487 110.319 988.901 110.39 989.183 110.531V113.135ZM1001.06 127.303C998.835 127.303 997.029 126.576 995.636 125.123C994.244 123.66 993.547 121.707 993.547 119.265V118.75C993.547 117.126 993.855 115.678 994.471 114.406C995.096 113.125 995.964 112.126 997.074 111.409C998.194 110.683 999.405 110.319 1000.71 110.319C1002.84 110.319 1004.49 111.021 1005.67 112.423C1006.85 113.826 1007.44 115.834 1007.44 118.448V119.613H996.348C996.388 121.228 996.857 122.535 997.755 123.534C998.664 124.523 999.814 125.017 1001.21 125.017C1002.2 125.017 1003.03 124.815 1003.72 124.412C1004.41 124.008 1005.01 123.473 1005.52 122.807L1007.23 124.139C1005.86 126.248 1003.8 127.303 1001.06 127.303ZM1000.71 112.62C999.577 112.62 998.628 113.034 997.861 113.861C997.094 114.679 996.62 115.829 996.438 117.312H1004.64V117.101C1004.56 115.678 1004.18 114.578 1003.49 113.801C1002.81 113.014 1001.88 112.62 1000.71 112.62ZM1014.86 127V112.787H1012.28V110.622H1014.86V108.942C1014.86 107.186 1015.33 105.829 1016.27 104.87C1017.21 103.911 1018.54 103.432 1020.25 103.432C1020.9 103.432 1021.54 103.518 1022.18 103.689L1022.02 105.96C1021.55 105.869 1021.05 105.824 1020.51 105.824C1019.6 105.824 1018.9 106.091 1018.41 106.626C1017.91 107.151 1017.66 107.908 1017.66 108.896V110.622H1021.16V112.787H1017.66V127H1014.86ZM1033.49 127.303C1031.27 127.303 1029.46 126.576 1028.07 125.123C1026.68 123.66 1025.98 121.707 1025.98 119.265V118.75C1025.98 117.126 1026.29 115.678 1026.9 114.406C1027.53 113.125 1028.4 112.126 1029.51 111.409C1030.63 110.683 1031.84 110.319 1033.14 110.319C1035.27 110.319 1036.92 111.021 1038.1 112.423C1039.29 113.826 1039.88 115.834 1039.88 118.448V119.613H1028.78C1028.82 121.228 1029.29 122.535 1030.19 123.534C1031.1 124.523 1032.25 125.017 1033.64 125.017C1034.63 125.017 1035.47 124.815 1036.15 124.412C1036.84 124.008 1037.44 123.473 1037.95 122.807L1039.66 124.139C1038.29 126.248 1036.23 127.303 1033.49 127.303ZM1033.14 112.62C1032.01 112.62 1031.06 113.034 1030.29 113.861C1029.53 114.679 1029.05 115.829 1028.87 117.312H1037.08V117.101C1036.99 115.678 1036.61 114.578 1035.92 113.801C1035.24 113.014 1034.31 112.62 1033.14 112.62ZM1053.84 113.135C1053.41 113.064 1052.95 113.029 1052.46 113.029C1050.62 113.029 1049.38 113.811 1048.72 115.375V127H1045.92V110.622H1048.64L1048.69 112.514C1049.61 111.051 1050.91 110.319 1052.6 110.319C1053.14 110.319 1053.55 110.39 1053.84 110.531V113.135ZM1065.71 127.303C1063.49 127.303 1061.68 126.576 1060.29 125.123C1058.9 123.66 1058.2 121.707 1058.2 119.265V118.75C1058.2 117.126 1058.51 115.678 1059.12 114.406C1059.75 113.125 1060.62 112.126 1061.73 111.409C1062.85 110.683 1064.06 110.319 1065.36 110.319C1067.49 110.319 1069.14 111.021 1070.33 112.423C1071.51 113.826 1072.1 115.834 1072.1 118.448V119.613H1061C1061.04 121.228 1061.51 122.535 1062.41 123.534C1063.32 124.523 1064.47 125.017 1065.86 125.017C1066.85 125.017 1067.69 124.815 1068.37 124.412C1069.06 124.008 1069.66 123.473 1070.17 122.807L1071.88 124.139C1070.51 126.248 1068.45 127.303 1065.71 127.303ZM1065.36 112.62C1064.23 112.62 1063.28 113.034 1062.51 113.861C1061.75 114.679 1061.27 115.829 1061.09 117.312H1069.3V117.101C1069.21 115.678 1068.83 114.578 1068.15 113.801C1067.46 113.014 1066.53 112.62 1065.36 112.62ZM1080.79 110.622L1080.88 112.681C1082.13 111.106 1083.77 110.319 1085.78 110.319C1089.25 110.319 1090.99 112.272 1091.02 116.177V127H1088.22V116.162C1088.21 114.981 1087.94 114.109 1087.4 113.543C1086.88 112.978 1086.06 112.696 1084.94 112.696C1084.03 112.696 1083.23 112.938 1082.55 113.422C1081.86 113.907 1081.32 114.542 1080.94 115.33V127H1078.14V110.622H1080.79ZM1104.6 125.017C1105.6 125.017 1106.48 124.714 1107.22 124.109C1107.97 123.503 1108.38 122.747 1108.46 121.838H1111.11C1111.06 122.777 1110.74 123.67 1110.14 124.518C1109.55 125.365 1108.75 126.041 1107.75 126.546C1106.76 127.05 1105.71 127.303 1104.6 127.303C1102.37 127.303 1100.6 126.561 1099.28 125.078C1097.96 123.584 1097.31 121.546 1097.31 118.962V118.493C1097.31 116.899 1097.6 115.481 1098.19 114.24C1098.77 112.999 1099.61 112.035 1100.7 111.349C1101.8 110.662 1103.1 110.319 1104.59 110.319C1106.43 110.319 1107.95 110.869 1109.16 111.969C1110.38 113.069 1111.03 114.497 1111.11 116.253H1108.46C1108.38 115.193 1107.98 114.326 1107.25 113.649C1106.54 112.963 1105.65 112.62 1104.59 112.62C1103.17 112.62 1102.06 113.135 1101.27 114.164C1100.5 115.183 1100.11 116.662 1100.11 118.599V119.129C1100.11 121.016 1100.5 122.469 1101.27 123.488C1102.05 124.507 1103.16 125.017 1104.6 125.017ZM1123.85 127.303C1121.63 127.303 1119.82 126.576 1118.43 125.123C1117.04 123.66 1116.34 121.707 1116.34 119.265V118.75C1116.34 117.126 1116.65 115.678 1117.26 114.406C1117.89 113.125 1118.76 112.126 1119.87 111.409C1120.99 110.683 1122.2 110.319 1123.5 110.319C1125.63 110.319 1127.28 111.021 1128.46 112.423C1129.65 113.826 1130.24 115.834 1130.24 118.448V119.613H1119.14C1119.18 121.228 1119.65 122.535 1120.55 123.534C1121.46 124.523 1122.61 125.017 1124 125.017C1124.99 125.017 1125.83 124.815 1126.51 124.412C1127.2 124.008 1127.8 123.473 1128.31 122.807L1130.02 124.139C1128.65 126.248 1126.59 127.303 1123.85 127.303ZM1123.5 112.62C1122.37 112.62 1121.42 113.034 1120.65 113.861C1119.89 114.679 1119.41 115.829 1119.23 117.312H1127.44V117.101C1127.35 115.678 1126.97 114.578 1126.28 113.801C1125.6 113.014 1124.67 112.62 1123.5 112.62ZM1160.59 118.993C1160.59 121.485 1160.02 123.493 1158.88 125.017C1157.74 126.541 1156.2 127.303 1154.25 127.303C1152.26 127.303 1150.7 126.672 1149.56 125.411V133.297H1146.76V110.622H1149.32L1149.45 112.438C1150.59 111.026 1152.18 110.319 1154.21 110.319C1156.17 110.319 1157.73 111.061 1158.87 112.544C1160.02 114.028 1160.59 116.091 1160.59 118.735V118.993ZM1157.79 118.675C1157.79 116.828 1157.4 115.37 1156.61 114.3C1155.83 113.231 1154.75 112.696 1153.37 112.696C1151.68 112.696 1150.41 113.448 1149.56 114.951V122.777C1150.4 124.27 1151.68 125.017 1153.4 125.017C1154.75 125.017 1155.81 124.487 1156.6 123.428C1157.4 122.358 1157.79 120.774 1157.79 118.675ZM1166.21 118.66C1166.21 117.055 1166.53 115.612 1167.15 114.331C1167.79 113.049 1168.67 112.06 1169.79 111.364C1170.92 110.667 1172.2 110.319 1173.65 110.319C1175.88 110.319 1177.68 111.091 1179.05 112.635C1180.43 114.179 1181.12 116.233 1181.12 118.796V118.993C1181.12 120.587 1180.82 122.02 1180.2 123.292C1179.6 124.553 1178.72 125.537 1177.58 126.243C1176.45 126.95 1175.15 127.303 1173.68 127.303C1171.46 127.303 1169.66 126.531 1168.27 124.987C1166.9 123.443 1166.21 121.399 1166.21 118.856V118.66ZM1169.03 118.993C1169.03 120.809 1169.45 122.267 1170.29 123.367C1171.13 124.467 1172.26 125.017 1173.68 125.017C1175.1 125.017 1176.23 124.462 1177.07 123.352C1177.91 122.232 1178.32 120.668 1178.32 118.66C1178.32 116.863 1177.9 115.41 1177.04 114.3C1176.19 113.18 1175.06 112.62 1173.65 112.62C1172.26 112.62 1171.15 113.17 1170.3 114.27C1169.45 115.37 1169.03 116.944 1169.03 118.993ZM1190.47 127H1187.67V110.622H1190.47V127ZM1187.44 106.278C1187.44 105.824 1187.58 105.44 1187.85 105.127C1188.13 104.815 1188.55 104.658 1189.09 104.658C1189.64 104.658 1190.05 104.815 1190.33 105.127C1190.62 105.44 1190.76 105.824 1190.76 106.278C1190.76 106.732 1190.62 107.11 1190.33 107.413C1190.05 107.716 1189.64 107.867 1189.09 107.867C1188.55 107.867 1188.13 107.716 1187.85 107.413C1187.58 107.11 1187.44 106.732 1187.44 106.278ZM1200.4 110.622L1200.49 112.681C1201.75 111.106 1203.38 110.319 1205.4 110.319C1208.86 110.319 1210.61 112.272 1210.64 116.177V127H1207.84V116.162C1207.83 114.981 1207.55 114.109 1207.02 113.543C1206.49 112.978 1205.67 112.696 1204.55 112.696C1203.64 112.696 1202.85 112.938 1202.16 113.422C1201.47 113.907 1200.94 114.542 1200.55 115.33V127H1197.75V110.622H1200.4ZM1221.45 106.656V110.622H1224.51V112.787H1221.45V122.943C1221.45 123.599 1221.58 124.094 1221.86 124.427C1222.13 124.75 1222.59 124.911 1223.25 124.911C1223.57 124.911 1224.02 124.851 1224.58 124.729V127C1223.84 127.202 1223.13 127.303 1222.43 127.303C1221.18 127.303 1220.24 126.924 1219.6 126.167C1218.97 125.411 1218.65 124.336 1218.65 122.943V112.787H1215.67V110.622H1218.65V106.656H1221.45ZM1240.12 122.656C1240.12 121.899 1239.83 121.314 1239.25 120.9C1238.69 120.476 1237.69 120.113 1236.27 119.81C1234.86 119.507 1233.73 119.144 1232.9 118.72C1232.07 118.296 1231.45 117.792 1231.05 117.207C1230.66 116.621 1230.46 115.925 1230.46 115.118C1230.46 113.776 1231.02 112.64 1232.15 111.712C1233.29 110.784 1234.75 110.319 1236.51 110.319C1238.37 110.319 1239.87 110.799 1241.02 111.757C1242.19 112.716 1242.77 113.942 1242.77 115.436H1239.95C1239.95 114.669 1239.62 114.008 1238.97 113.453C1238.32 112.898 1237.5 112.62 1236.51 112.62C1235.49 112.62 1234.7 112.842 1234.12 113.286C1233.55 113.73 1233.26 114.31 1233.26 115.027C1233.26 115.703 1233.53 116.213 1234.06 116.556C1234.6 116.899 1235.56 117.227 1236.95 117.54C1238.36 117.852 1239.49 118.226 1240.36 118.66C1241.23 119.094 1241.87 119.618 1242.28 120.234C1242.7 120.839 1242.92 121.581 1242.92 122.459C1242.92 123.922 1242.33 125.098 1241.16 125.986C1239.99 126.864 1238.47 127.303 1236.6 127.303C1235.29 127.303 1234.13 127.071 1233.12 126.606C1232.11 126.142 1231.32 125.496 1230.75 124.669C1230.18 123.831 1229.9 122.928 1229.9 121.959H1232.7C1232.75 122.898 1233.12 123.645 1233.82 124.2C1234.53 124.745 1235.45 125.017 1236.6 125.017C1237.66 125.017 1238.51 124.805 1239.15 124.381C1239.79 123.947 1240.12 123.372 1240.12 122.656ZM1249.42 125.532C1249.42 125.047 1249.56 124.644 1249.84 124.321C1250.13 123.998 1250.57 123.836 1251.14 123.836C1251.72 123.836 1252.15 123.998 1252.44 124.321C1252.75 124.644 1252.9 125.047 1252.9 125.532C1252.9 125.996 1252.75 126.384 1252.44 126.697C1252.15 127.01 1251.72 127.167 1251.14 127.167C1250.57 127.167 1250.13 127.01 1249.84 126.697C1249.56 126.384 1249.42 125.996 1249.42 125.532Z" fill="black"/>
<circle id="Ellipse 4" cx="1281" cy="994" r="13" fill="#EB5757"/>
<circle id="Ellipse 5" cx="82" cy="994" r="13" fill="#EB5757"/>
</g>
</g>
</g>
<defs>
<clipPath id="clip0">
<rect width="1366" height="1024" fill="white"/>
</clipPath>
</defs>
</svg>
