<svg width="1366" height="1024" viewBox="0 0 1366 1024" fill="none" xmlns="http://www.w3.org/2000/svg">
<g id="2-point-perspective">
<g id="step s-multistep">
<g id="input">
<g id="ref">
<path id="Vector 1" d="M0 524H1356" stroke="#CBD8F1" stroke-width="8"/>
<circle id="Ellipse 1" cx="80" cy="524" r="12" fill="#C4C4C4"/>
<circle id="Ellipse 2" cx="1285" cy="524" r="12" fill="#C4C4C4"/>
<circle id="Ellipse 3" cx="681" cy="952" r="12" fill="#C4C4C4"/>
<circle id="Ellipse 3_2" cx="681" cy="683" r="12" fill="#C4C4C4"/>
<circle id="Ellipse 12" cx="681" cy="353" r="12" fill="#C4C4C4"/>
<circle id="Ellipse 13" cx="681" cy="75" r="12" fill="#C4C4C4"/>
</g>
<path id="draw-line d1 rgb-template" d="M792.5 155.5L79.5 524.5" stroke="#6685D4" stroke-width="8" stroke-linecap="round"/>
<path id="draw-line rgb-template" d="M574 157L1285 523.5" stroke="#6685D4" stroke-width="8" stroke-linecap="round"/>
</g>
</g>
<g id="step s-multistep_2">
<g id="input_2">
<g id="ref_2">
<path id="Vector 1_2" d="M0 524H1356" stroke="#CBD8F1" stroke-width="8"/>
<circle id="Ellipse 1_2" cx="80" cy="524" r="12" fill="#C4C4C4"/>
<circle id="Ellipse 2_2" cx="1285" cy="524" r="12" fill="#C4C4C4"/>
<circle id="Ellipse 3_3" cx="681" cy="952" r="12" fill="#C4C4C4"/>
<circle id="Ellipse 3_4" cx="681" cy="683" r="12" fill="#C4C4C4"/>
<circle id="Ellipse 12_2" cx="681" cy="353" r="12" fill="#C4C4C4"/>
<circle id="Ellipse 13_2" cx="681" cy="75" r="12" fill="#C4C4C4"/>
</g>
<path id="draw-line d1 rgb-template_2" d="M579.5 383.5L1285 523.5" stroke="#6685D4" stroke-width="8" stroke-linecap="round"/>
<path id="draw-line rgb-template_2" d="M784.5 384.5L79.5 524.5" stroke="#6685D4" stroke-width="8" stroke-linecap="round"/>
</g>
</g>
<g id="step s-multistep_3">
<g id="input_3">
<g id="ref_3">
<path id="Vector 1_3" d="M0 524H1356" stroke="#CBD8F1" stroke-width="8"/>
<circle id="Ellipse 1_3" cx="80" cy="524" r="12" fill="#C4C4C4"/>
<circle id="Ellipse 2_3" cx="1285" cy="524" r="12" fill="#C4C4C4"/>
<circle id="Ellipse 3_5" cx="681" cy="952" r="12" fill="#C4C4C4"/>
<circle id="Ellipse 3_6" cx="681" cy="683" r="12" fill="#C4C4C4"/>
<circle id="Ellipse 12_3" cx="681" cy="353" r="12" fill="#C4C4C4"/>
<circle id="Ellipse 13_3" cx="681" cy="75" r="12" fill="#C4C4C4"/>
</g>
<path id="draw-line d1 rgb-template_3" d="M580 656L1285 523.5" stroke="#6685D4" stroke-width="8" stroke-linecap="round"/>
<path id="draw-line rgb-template_3" d="M783 656L79.5 524.5" stroke="#6685D4" stroke-width="8" stroke-linecap="round"/>
</g>
</g>
<g id="step s-multistep_4">
<g id="input_4">
<g id="ref_4">
<path id="Vector 1_4" d="M0 524H1356" stroke="#CBD8F1" stroke-width="8"/>
<circle id="Ellipse 1_4" cx="80" cy="524" r="12" fill="#C4C4C4"/>
<circle id="Ellipse 2_4" cx="1285" cy="524" r="12" fill="#C4C4C4"/>
<circle id="Ellipse 3_7" cx="681" cy="952" r="12" fill="#C4C4C4"/>
<circle id="Ellipse 3_8" cx="681" cy="683" r="12" fill="#C4C4C4"/>
<circle id="Ellipse 12_4" cx="681" cy="353" r="12" fill="#C4C4C4"/>
<circle id="Ellipse 13_4" cx="681" cy="75" r="12" fill="#C4C4C4"/>
</g>
<path id="draw-line d1 rgb-template_4" d="M573.5 875L1285 523.5" stroke="#6685D4" stroke-width="8" stroke-linecap="round"/>
<path id="draw-line rgb-template_4" d="M788.5 875.5L79.5 524.5" stroke="#6685D4" stroke-width="8" stroke-linecap="round"/>
</g>
</g>
<g id="step s-multistep_5">
<g id="input_5">
<g id="ref_5">
<path id="Vector 1_5" d="M0 524H1356" stroke="#CBD8F1" stroke-width="8"/>
<circle id="Ellipse 1_5" cx="80" cy="524" r="12" fill="#C4C4C4"/>
<circle id="Ellipse 2_5" cx="1285" cy="524" r="12" fill="#C4C4C4"/>
<circle id="Ellipse 3_9" cx="681" cy="952" r="12" fill="#C4C4C4"/>
<circle id="Ellipse 3_10" cx="681" cy="683" r="12" fill="#C4C4C4"/>
<circle id="Ellipse 12_5" cx="681" cy="353" r="12" fill="#C4C4C4"/>
<circle id="Ellipse 13_5" cx="681" cy="75" r="12" fill="#C4C4C4"/>
</g>
<path id="draw-line d3 rgb-template" d="M499.5 214H863.5" stroke="#6685D4" stroke-width="8" stroke-linecap="round"/>
<path id="draw-line d2 rgb-template" d="M499.5 406H863.5" stroke="#6685D4" stroke-width="8" stroke-linecap="round"/>
<path id="draw-line d1 rgb-template_5" d="M499 635H863" stroke="#6685D4" stroke-width="8" stroke-linecap="round"/>
<path id="draw-line rgb-template_5" d="M499.5 821H863.5" stroke="#6685D4" stroke-width="8" stroke-linecap="round"/>
</g>
</g>
<g id="step s-multistep_6">
<g id="input_6">
<g id="ref_6">
<path id="Vector 1_6" d="M0 524H1356" stroke="#CBD8F1" stroke-width="8"/>
<circle id="Ellipse 1_6" cx="80" cy="524" r="12" fill="#C4C4C4"/>
<circle id="Ellipse 2_6" cx="1285" cy="524" r="12" fill="#C4C4C4"/>
<circle id="Ellipse 3_11" cx="681" cy="952" r="12" fill="#C4C4C4"/>
<circle id="Ellipse 3_12" cx="681" cy="683" r="12" fill="#C4C4C4"/>
<circle id="Ellipse 12_6" cx="681" cy="353" r="12" fill="#C4C4C4"/>
<circle id="Ellipse 13_6" cx="681" cy="75" r="12" fill="#C4C4C4"/>
</g>
<path id="draw-line d3 rgb-template_2" d="M682 73L682 289" stroke="#6685D4" stroke-width="8" stroke-linecap="round"/>
<path id="draw-line d2 rgb-template_2" d="M682 352L682 434" stroke="#6685D4" stroke-width="8" stroke-linecap="round"/>
<path id="draw-line d1 rgb-template_6" d="M681 608L681 679" stroke="#6685D4" stroke-width="8" stroke-linecap="round"/>
<path id="draw-line rgb-template_6" d="M681.5 751V954" stroke="#6685D4" stroke-width="8" stroke-linecap="round"/>
</g>
</g>
<g id="step s-multistep_7">
<g id="input_7">
<g id="ref_7">
<path id="Vector 1_7" d="M0 524H1356" stroke="#CBD8F1" stroke-width="8"/>
<circle id="Ellipse 1_7" cx="80" cy="524" r="12" fill="#C4C4C4"/>
<circle id="Ellipse 2_7" cx="1285" cy="524" r="12" fill="#C4C4C4"/>
<circle id="Ellipse 3_13" cx="681" cy="952" r="12" fill="#C4C4C4"/>
<circle id="Ellipse 3_14" cx="681" cy="683" r="12" fill="#C4C4C4"/>
<circle id="Ellipse 12_7" cx="681" cy="353" r="12" fill="#C4C4C4"/>
<circle id="Ellipse 13_7" cx="681" cy="75" r="12" fill="#C4C4C4"/>
</g>
<path id="draw-line d1 rgb-template_7" d="M490.5 216.5L1286 523" stroke="#6685D4" stroke-width="8" stroke-linecap="round" stroke-linejoin="round"/>
<path id="draw-line rgb-template_7" d="M872 217L79.5 524" stroke="#6685D4" stroke-width="8" stroke-linecap="round" stroke-linejoin="round"/>
</g>
</g>
<g id="step s-multistep_8">
<g id="input_8">
<g id="ref_8">
<path id="Vector 1_8" d="M0 524H1356" stroke="#CBD8F1" stroke-width="8"/>
<circle id="Ellipse 1_8" cx="80" cy="524" r="12" fill="#C4C4C4"/>
<circle id="Ellipse 2_8" cx="1285" cy="524" r="12" fill="#C4C4C4"/>
<circle id="Ellipse 3_15" cx="681" cy="952" r="12" fill="#C4C4C4"/>
<circle id="Ellipse 3_16" cx="681" cy="683" r="12" fill="#C4C4C4"/>
<circle id="Ellipse 12_8" cx="681" cy="353" r="12" fill="#C4C4C4"/>
<circle id="Ellipse 13_8" cx="681" cy="75" r="12" fill="#C4C4C4"/>
</g>
<path id="draw-line d1 rgb-template_8" d="M492 407L1286 523" stroke="#6685D4" stroke-width="8" stroke-linecap="round" stroke-linejoin="round"/>
<path id="draw-line rgb-template_8" d="M874 407.5L79.5 524" stroke="#6685D4" stroke-width="8" stroke-linecap="round" stroke-linejoin="round"/>
</g>
</g>
<g id="step s-multistep_9">
<g id="input_9">
<g id="ref_9">
<path id="Vector 1_9" d="M0 524H1356" stroke="#CBD8F1" stroke-width="8"/>
<circle id="Ellipse 1_9" cx="80" cy="524" r="12" fill="#C4C4C4"/>
<circle id="Ellipse 2_9" cx="1285" cy="524" r="12" fill="#C4C4C4"/>
<circle id="Ellipse 3_17" cx="681" cy="952" r="12" fill="#C4C4C4"/>
<circle id="Ellipse 3_18" cx="681" cy="683" r="12" fill="#C4C4C4"/>
<circle id="Ellipse 12_9" cx="681" cy="353" r="12" fill="#C4C4C4"/>
<circle id="Ellipse 13_9" cx="681" cy="75" r="12" fill="#C4C4C4"/>
</g>
<path id="draw-line d1 rgb-template_9" d="M494 632L1286 523" stroke="#6685D4" stroke-width="8" stroke-linecap="round" stroke-linejoin="round"/>
<path id="draw-line rgb-template_9" d="M865.5 633.5L79.5 524" stroke="#6685D4" stroke-width="8" stroke-linecap="round" stroke-linejoin="round"/>
</g>
</g>
<g id="step s-multistep_10">
<g id="input_10">
<g id="ref_10">
<path id="Vector 1_10" d="M0 524H1356" stroke="#CBD8F1" stroke-width="8"/>
<circle id="Ellipse 1_10" cx="80" cy="524" r="12" fill="#C4C4C4"/>
<circle id="Ellipse 2_10" cx="1285" cy="524" r="12" fill="#C4C4C4"/>
<circle id="Ellipse 3_19" cx="681" cy="952" r="12" fill="#C4C4C4"/>
<circle id="Ellipse 3_20" cx="681" cy="683" r="12" fill="#C4C4C4"/>
<circle id="Ellipse 12_10" cx="681" cy="353" r="12" fill="#C4C4C4"/>
<circle id="Ellipse 13_10" cx="681" cy="75" r="12" fill="#C4C4C4"/>
</g>
<path id="draw-line rgb-template_10" d="M79.5 524L682 72L1285 523.5" stroke="#6685D4" stroke-width="8" stroke-linecap="round" stroke-linejoin="round"/>
</g>
</g>
<g id="step s-multistep_11">
<g id="input_11">
<g id="ref_11">
<path id="Vector 1_11" d="M0 524H1356" stroke="#CBD8F1" stroke-width="8"/>
<circle id="Ellipse 1_11" cx="80" cy="524" r="12" fill="#C4C4C4"/>
<circle id="Ellipse 2_11" cx="1285" cy="524" r="12" fill="#C4C4C4"/>
<circle id="Ellipse 3_21" cx="681" cy="952" r="12" fill="#C4C4C4"/>
<circle id="Ellipse 3_22" cx="681" cy="683" r="12" fill="#C4C4C4"/>
<circle id="Ellipse 12_11" cx="681" cy="353" r="12" fill="#C4C4C4"/>
</g>
<path id="draw-line rgb-template_11" d="M79.5 524L682 352L1285 523.5" stroke="#6685D4" stroke-width="8" stroke-linecap="round" stroke-linejoin="round"/>
</g>
</g>
<g id="step s-multistep_12">
<g id="input_12">
<g id="ref_12">
<path id="Vector 1_12" d="M0 524H1356" stroke="#CBD8F1" stroke-width="8"/>
<circle id="Ellipse 1_12" cx="80" cy="524" r="12" fill="#C4C4C4"/>
<circle id="Ellipse 2_12" cx="1285" cy="524" r="12" fill="#C4C4C4"/>
<circle id="Ellipse 3_23" cx="681" cy="952" r="12" fill="#C4C4C4"/>
<circle id="Ellipse 3_24" cx="681" cy="683" r="12" fill="#C4C4C4"/>
</g>
<path id="draw-line rgb-template_12" d="M79.5 524L681.5 684L1285 523.5" stroke="#6685D4" stroke-width="8" stroke-linecap="round" stroke-linejoin="round"/>
</g>
</g>
<g id="step s-multistep_13">
<g id="input_13">
<g id="ref_13">
<path id="Vector 1_13" d="M0 524H1366" stroke="#CBD8F1" stroke-width="8"/>
<circle id="Ellipse 1_13" cx="80" cy="524" r="12" fill="#C4C4C4"/>
<circle id="Ellipse 2_13" cx="1285" cy="524" r="12" fill="#C4C4C4"/>
<circle id="Ellipse 3_25" cx="681" cy="952" r="12" fill="#C4C4C4"/>
<circle id="Ellipse 4" cx="497" cy="821" r="12" fill="#C4C4C4"/>
<circle id="Ellipse 5" cx="865" cy="821" r="12" fill="#C4C4C4"/>
</g>
<path id="draw-line d1 rgb-template_10" d="M494.5 820L1286 523" stroke="#6685D4" stroke-width="8" stroke-linecap="round" stroke-linejoin="round"/>
<path id="draw-line rgb-template_13" d="M869 820.5L79.5 524" stroke="#6685D4" stroke-width="8" stroke-linecap="round" stroke-linejoin="round"/>
</g>
</g>
<g id="step s-multistep_14">
<g id="input_14">
<g id="ref_14">
<path id="Vector 1_14" d="M0 524H1366" stroke="#CBD8F1" stroke-width="8"/>
<circle id="Ellipse 1_14" cx="80" cy="524" r="12" fill="#C4C4C4"/>
<circle id="Ellipse 2_14" cx="1285" cy="524" r="12" fill="#C4C4C4"/>
<circle id="Ellipse 3_26" cx="681" cy="952" r="12" fill="#C4C4C4"/>
</g>
<path id="If the object in front of us is expanded, then 2 vanishing points appear. In this case, all the lines converge at two different vanishing points, depending on the direction." d="M148.676 148H145.77V125.961H148.676V148ZM157.733 148V133.787H155.144V131.622H157.733V129.942C157.733 128.186 158.202 126.829 159.141 125.87C160.079 124.911 161.406 124.432 163.122 124.432C163.767 124.432 164.408 124.518 165.044 124.689L164.893 126.96C164.418 126.869 163.914 126.824 163.379 126.824C162.471 126.824 161.769 127.091 161.275 127.626C160.78 128.151 160.533 128.908 160.533 129.896V131.622H164.03V133.787H160.533V148H157.733ZM184.202 127.656V131.622H187.259V133.787H184.202V143.943C184.202 144.599 184.338 145.094 184.61 145.427C184.883 145.75 185.347 145.911 186.003 145.911C186.326 145.911 186.77 145.851 187.335 145.729V148C186.598 148.202 185.882 148.303 185.185 148.303C183.934 148.303 182.991 147.924 182.355 147.167C181.719 146.411 181.401 145.336 181.401 143.943V133.787H178.419V131.622H181.401V127.656H184.202ZM196.134 133.605C197.375 132.081 198.99 131.319 200.978 131.319C204.439 131.319 206.185 133.272 206.215 137.177V148H203.415V137.162C203.405 135.981 203.132 135.109 202.597 134.543C202.073 133.978 201.25 133.696 200.13 133.696C199.222 133.696 198.425 133.938 197.739 134.422C197.052 134.907 196.518 135.542 196.134 136.33V148H193.334V124.75H196.134V133.605ZM219.994 148.303C217.774 148.303 215.968 147.576 214.575 146.123C213.183 144.66 212.487 142.707 212.487 140.265V139.75C212.487 138.126 212.794 136.678 213.41 135.406C214.036 134.125 214.903 133.126 216.013 132.409C217.134 131.683 218.345 131.319 219.646 131.319C221.776 131.319 223.43 132.021 224.611 133.423C225.792 134.826 226.382 136.834 226.382 139.448V140.613H215.287C215.327 142.228 215.797 143.535 216.695 144.534C217.603 145.523 218.753 146.017 220.146 146.017C221.135 146.017 221.972 145.815 222.658 145.412C223.345 145.008 223.945 144.473 224.46 143.807L226.17 145.139C224.798 147.248 222.739 148.303 219.994 148.303ZM219.646 133.62C218.516 133.62 217.568 134.034 216.801 134.861C216.034 135.679 215.559 136.829 215.378 138.312H223.582V138.101C223.501 136.678 223.118 135.578 222.431 134.801C221.745 134.014 220.817 133.62 219.646 133.62ZM242.164 139.66C242.164 138.055 242.477 136.612 243.103 135.331C243.738 134.049 244.616 133.06 245.737 132.364C246.867 131.667 248.153 131.319 249.596 131.319C251.827 131.319 253.628 132.091 255 133.635C256.383 135.179 257.074 137.233 257.074 139.796V139.993C257.074 141.587 256.766 143.02 256.151 144.292C255.545 145.553 254.672 146.537 253.532 147.243C252.402 147.95 251.1 148.303 249.627 148.303C247.407 148.303 245.605 147.531 244.223 145.987C242.85 144.443 242.164 142.399 242.164 139.856V139.66ZM244.98 139.993C244.98 141.809 245.398 143.267 246.236 144.367C247.084 145.467 248.214 146.017 249.627 146.017C251.05 146.017 252.18 145.462 253.017 144.352C253.855 143.232 254.274 141.668 254.274 139.66C254.274 137.863 253.845 136.41 252.987 135.3C252.139 134.18 251.009 133.62 249.596 133.62C248.214 133.62 247.099 134.17 246.251 135.27C245.404 136.37 244.98 137.944 244.98 139.993ZM277.241 139.993C277.241 142.495 276.666 144.508 275.515 146.032C274.365 147.546 272.821 148.303 270.883 148.303C268.815 148.303 267.215 147.571 266.085 146.108L265.949 148H263.376V124.75H266.176V133.423C267.306 132.021 268.865 131.319 270.853 131.319C272.841 131.319 274.4 132.071 275.53 133.575C276.671 135.078 277.241 137.137 277.241 139.75V139.993ZM274.441 139.675C274.441 137.768 274.072 136.294 273.336 135.255C272.599 134.215 271.539 133.696 270.157 133.696C268.31 133.696 266.983 134.554 266.176 136.269V143.353C267.034 145.069 268.371 145.926 270.187 145.926C271.529 145.926 272.574 145.407 273.32 144.367C274.067 143.328 274.441 141.764 274.441 139.675ZM286.464 131.622V149.892C286.464 153.041 285.036 154.615 282.18 154.615C281.565 154.615 280.995 154.524 280.47 154.342V152.102C280.793 152.183 281.217 152.223 281.741 152.223C282.367 152.223 282.841 152.052 283.164 151.708C283.497 151.375 283.664 150.79 283.664 149.953V131.622H286.464ZM283.376 127.278C283.376 126.834 283.512 126.455 283.785 126.143C284.067 125.82 284.476 125.658 285.011 125.658C285.556 125.658 285.97 125.815 286.252 126.127C286.535 126.44 286.676 126.824 286.676 127.278C286.676 127.732 286.535 128.11 286.252 128.413C285.97 128.716 285.556 128.867 285.011 128.867C284.466 128.867 284.057 128.716 283.785 128.413C283.512 128.11 283.376 127.732 283.376 127.278ZM300.576 148.303C298.356 148.303 296.55 147.576 295.157 146.123C293.765 144.66 293.068 142.707 293.068 140.265V139.75C293.068 138.126 293.376 136.678 293.992 135.406C294.617 134.125 295.485 133.126 296.595 132.409C297.715 131.683 298.926 131.319 300.228 131.319C302.357 131.319 304.012 132.021 305.193 133.423C306.374 134.826 306.964 136.834 306.964 139.448V140.613H295.869C295.909 142.228 296.378 143.535 297.276 144.534C298.185 145.523 299.335 146.017 300.728 146.017C301.717 146.017 302.554 145.815 303.24 145.412C303.927 145.008 304.527 144.473 305.042 143.807L306.752 145.139C305.38 147.248 303.321 148.303 300.576 148.303ZM300.228 133.62C299.098 133.62 298.149 134.034 297.382 134.861C296.615 135.679 296.141 136.829 295.96 138.312H304.164V138.101C304.083 136.678 303.699 135.578 303.013 134.801C302.327 134.014 301.399 133.62 300.228 133.62ZM319.578 146.017C320.577 146.017 321.45 145.714 322.196 145.109C322.943 144.503 323.357 143.747 323.438 142.838H326.086C326.036 143.777 325.713 144.67 325.118 145.518C324.522 146.365 323.725 147.041 322.726 147.546C321.737 148.05 320.688 148.303 319.578 148.303C317.348 148.303 315.572 147.561 314.25 146.078C312.938 144.584 312.282 142.546 312.282 139.962V139.493C312.282 137.899 312.574 136.481 313.16 135.24C313.745 133.999 314.583 133.035 315.672 132.349C316.772 131.662 318.069 131.319 319.563 131.319C321.399 131.319 322.923 131.869 324.134 132.969C325.355 134.069 326.006 135.497 326.086 137.253H323.438C323.357 136.193 322.953 135.326 322.227 134.649C321.51 133.963 320.622 133.62 319.563 133.62C318.14 133.62 317.035 134.135 316.248 135.164C315.471 136.183 315.082 137.662 315.082 139.599V140.129C315.082 142.016 315.471 143.469 316.248 144.488C317.025 145.507 318.135 146.017 319.578 146.017ZM335.824 127.656V131.622H338.882V133.787H335.824V143.943C335.824 144.599 335.96 145.094 336.233 145.427C336.505 145.75 336.97 145.911 337.626 145.911C337.948 145.911 338.392 145.851 338.958 145.729V148C338.221 148.202 337.504 148.303 336.808 148.303C335.557 148.303 334.613 147.924 333.978 147.167C333.342 146.411 333.024 145.336 333.024 143.943V133.787H330.042V131.622H333.024V127.656H335.824ZM358.478 148H355.678V131.622H358.478V148ZM355.451 127.278C355.451 126.824 355.587 126.44 355.86 126.127C356.142 125.815 356.556 125.658 357.101 125.658C357.646 125.658 358.06 125.815 358.342 126.127C358.625 126.44 358.766 126.824 358.766 127.278C358.766 127.732 358.625 128.11 358.342 128.413C358.06 128.716 357.646 128.867 357.101 128.867C356.556 128.867 356.142 128.716 355.86 128.413C355.587 128.11 355.451 127.732 355.451 127.278ZM368.413 131.622L368.504 133.681C369.755 132.106 371.39 131.319 373.408 131.319C376.869 131.319 378.615 133.272 378.645 137.177V148H375.845V137.162C375.835 135.981 375.563 135.109 375.028 134.543C374.503 133.978 373.681 133.696 372.56 133.696C371.652 133.696 370.855 133.938 370.169 134.422C369.483 134.907 368.948 135.542 368.564 136.33V148H365.764V131.622H368.413ZM397.515 148V133.787H394.927V131.622H397.515V129.942C397.515 128.186 397.985 126.829 398.923 125.87C399.862 124.911 401.189 124.432 402.904 124.432C403.55 124.432 404.191 124.518 404.826 124.689L404.675 126.96C404.201 126.869 403.696 126.824 403.161 126.824C402.253 126.824 401.552 127.091 401.057 127.626C400.563 128.151 400.316 128.908 400.316 129.896V131.622H403.812V133.787H400.316V148H397.515ZM417.622 134.135C417.198 134.064 416.739 134.029 416.244 134.029C414.408 134.029 413.162 134.811 412.506 136.375V148H409.705V131.622H412.43L412.475 133.514C413.394 132.051 414.695 131.319 416.381 131.319C416.926 131.319 417.339 131.39 417.622 131.531V134.135ZM421.956 139.66C421.956 138.055 422.269 136.612 422.894 135.331C423.53 134.049 424.408 133.06 425.528 132.364C426.658 131.667 427.945 131.319 429.388 131.319C431.618 131.319 433.419 132.091 434.792 133.635C436.174 135.179 436.865 137.233 436.865 139.796V139.993C436.865 141.587 436.558 143.02 435.942 144.292C435.337 145.553 434.464 146.537 433.323 147.243C432.193 147.95 430.892 148.303 429.418 148.303C427.198 148.303 425.397 147.531 424.014 145.987C422.642 144.443 421.956 142.399 421.956 139.856V139.66ZM424.771 139.993C424.771 141.809 425.19 143.267 426.028 144.367C426.875 145.467 428.005 146.017 429.418 146.017C430.841 146.017 431.971 145.462 432.809 144.352C433.646 143.232 434.065 141.668 434.065 139.66C434.065 137.863 433.636 136.41 432.779 135.3C431.931 134.18 430.801 133.62 429.388 133.62C428.005 133.62 426.89 134.17 426.043 135.27C425.195 136.37 424.771 137.944 424.771 139.993ZM445.816 131.622L445.907 133.681C447.158 132.106 448.793 131.319 450.811 131.319C454.272 131.319 456.018 133.272 456.049 137.177V148H453.248V137.162C453.238 135.981 452.966 135.109 452.431 134.543C451.906 133.978 451.084 133.696 449.964 133.696C449.055 133.696 448.258 133.938 447.572 134.422C446.886 134.907 446.351 135.542 445.967 136.33V148H443.167V131.622H445.816ZM466.861 127.656V131.622H469.919V133.787H466.861V143.943C466.861 144.599 466.997 145.094 467.27 145.427C467.542 145.75 468.006 145.911 468.662 145.911C468.985 145.911 469.429 145.851 469.994 145.729V148C469.258 148.202 468.541 148.303 467.845 148.303C466.594 148.303 465.65 147.924 465.014 147.167C464.379 146.411 464.061 145.336 464.061 143.943V133.787H461.079V131.622H464.061V127.656H466.861ZM485.731 139.66C485.731 138.055 486.044 136.612 486.67 135.331C487.305 134.049 488.183 133.06 489.303 132.364C490.434 131.667 491.72 131.319 493.163 131.319C495.393 131.319 497.195 132.091 498.567 133.635C499.949 135.179 500.641 137.233 500.641 139.796V139.993C500.641 141.587 500.333 143.02 499.717 144.292C499.112 145.553 498.239 146.537 497.099 147.243C495.969 147.95 494.667 148.303 493.193 148.303C490.973 148.303 489.172 147.531 487.79 145.987C486.417 144.443 485.731 142.399 485.731 139.856V139.66ZM488.546 139.993C488.546 141.809 488.965 143.267 489.803 144.367C490.65 145.467 491.781 146.017 493.193 146.017C494.616 146.017 495.747 145.462 496.584 144.352C497.422 143.232 497.84 141.668 497.84 139.66C497.84 137.863 497.412 136.41 496.554 135.3C495.706 134.18 494.576 133.62 493.163 133.62C491.781 133.62 490.666 134.17 489.818 135.27C488.97 136.37 488.546 137.944 488.546 139.993ZM508.32 148V133.787H505.731V131.622H508.32V129.942C508.32 128.186 508.789 126.829 509.728 125.87C510.666 124.911 511.993 124.432 513.709 124.432C514.354 124.432 514.995 124.518 515.631 124.689L515.48 126.96C515.005 126.869 514.501 126.824 513.966 126.824C513.058 126.824 512.356 127.091 511.862 127.626C511.367 128.151 511.12 128.908 511.12 129.896V131.622H514.617V133.787H511.12V148H508.32ZM541.101 146.38C540.011 147.662 538.411 148.303 536.302 148.303C534.556 148.303 533.224 147.798 532.306 146.789C531.398 145.77 530.939 144.266 530.929 142.278V131.622H533.729V142.203C533.729 144.685 534.738 145.926 536.756 145.926C538.896 145.926 540.318 145.129 541.025 143.535V131.622H543.825V148H541.161L541.101 146.38ZM560.42 143.656C560.42 142.899 560.132 142.314 559.557 141.9C558.992 141.476 557.998 141.113 556.575 140.81C555.162 140.507 554.037 140.144 553.2 139.72C552.372 139.296 551.757 138.792 551.353 138.207C550.959 137.621 550.763 136.925 550.763 136.118C550.763 134.776 551.328 133.64 552.458 132.712C553.598 131.784 555.051 131.319 556.817 131.319C558.674 131.319 560.178 131.799 561.328 132.757C562.489 133.716 563.069 134.942 563.069 136.436H560.253C560.253 135.669 559.925 135.008 559.269 134.453C558.624 133.898 557.806 133.62 556.817 133.62C555.798 133.62 555.001 133.842 554.426 134.286C553.85 134.73 553.563 135.31 553.563 136.027C553.563 136.703 553.83 137.213 554.365 137.556C554.9 137.899 555.864 138.227 557.256 138.54C558.659 138.852 559.794 139.226 560.662 139.66C561.53 140.094 562.171 140.618 562.584 141.234C563.008 141.839 563.22 142.581 563.22 143.459C563.22 144.922 562.635 146.098 561.464 146.986C560.294 147.864 558.775 148.303 556.908 148.303C555.596 148.303 554.436 148.071 553.427 147.606C552.418 147.142 551.625 146.496 551.05 145.669C550.485 144.831 550.203 143.928 550.203 142.959H553.003C553.053 143.898 553.427 144.645 554.123 145.2C554.829 145.745 555.758 146.017 556.908 146.017C557.968 146.017 558.815 145.805 559.451 145.381C560.097 144.947 560.42 144.372 560.42 143.656ZM583.18 148H580.38V131.622H583.18V148ZM580.153 127.278C580.153 126.824 580.289 126.44 580.561 126.127C580.844 125.815 581.258 125.658 581.803 125.658C582.348 125.658 582.761 125.815 583.044 126.127C583.326 126.44 583.468 126.824 583.468 127.278C583.468 127.732 583.326 128.11 583.044 128.413C582.761 128.716 582.348 128.867 581.803 128.867C581.258 128.867 580.844 128.716 580.561 128.413C580.289 128.11 580.153 127.732 580.153 127.278ZM600.002 143.656C600.002 142.899 599.714 142.314 599.139 141.9C598.574 141.476 597.58 141.113 596.157 140.81C594.744 140.507 593.619 140.144 592.782 139.72C591.954 139.296 591.339 138.792 590.935 138.207C590.541 137.621 590.345 136.925 590.345 136.118C590.345 134.776 590.91 133.64 592.04 132.712C593.18 131.784 594.633 131.319 596.399 131.319C598.256 131.319 599.76 131.799 600.91 132.757C602.07 133.716 602.651 134.942 602.651 136.436H599.835C599.835 135.669 599.507 135.008 598.851 134.453C598.206 133.898 597.388 133.62 596.399 133.62C595.38 133.62 594.583 133.842 594.008 134.286C593.432 134.73 593.145 135.31 593.145 136.027C593.145 136.703 593.412 137.213 593.947 137.556C594.482 137.899 595.446 138.227 596.838 138.54C598.241 138.852 599.376 139.226 600.244 139.66C601.112 140.094 601.753 140.618 602.166 141.234C602.59 141.839 602.802 142.581 602.802 143.459C602.802 144.922 602.217 146.098 601.046 146.986C599.876 147.864 598.357 148.303 596.49 148.303C595.178 148.303 594.018 148.071 593.009 147.606C591.999 147.142 591.207 146.496 590.632 145.669C590.067 144.831 589.784 143.928 589.784 142.959H592.585C592.635 143.898 593.009 144.645 593.705 145.2C594.411 145.745 595.34 146.017 596.49 146.017C597.55 146.017 598.397 145.805 599.033 145.381C599.679 144.947 600.002 144.372 600.002 143.656ZM626.516 148.303C624.296 148.303 622.489 147.576 621.097 146.123C619.704 144.66 619.008 142.707 619.008 140.265V139.75C619.008 138.126 619.316 136.678 619.931 135.406C620.557 134.125 621.425 133.126 622.535 132.409C623.655 131.683 624.866 131.319 626.168 131.319C628.297 131.319 629.952 132.021 631.133 133.423C632.313 134.826 632.904 136.834 632.904 139.448V140.613H621.808C621.849 142.228 622.318 143.535 623.216 144.534C624.124 145.523 625.275 146.017 626.667 146.017C627.656 146.017 628.494 145.815 629.18 145.412C629.866 145.008 630.467 144.473 630.981 143.807L632.692 145.139C631.319 147.248 629.261 148.303 626.516 148.303ZM626.168 133.62C625.037 133.62 624.089 134.034 623.322 134.861C622.555 135.679 622.081 136.829 621.899 138.312H630.103V138.101C630.023 136.678 629.639 135.578 628.953 134.801C628.267 134.014 627.338 133.62 626.168 133.62ZM644.443 137.601L648.075 131.622H651.345L645.987 139.72L651.511 148H648.272L644.488 141.87L640.704 148H637.449L642.974 139.72L637.616 131.622H640.855L644.443 137.601ZM670.952 139.993C670.952 142.485 670.382 144.493 669.241 146.017C668.101 147.541 666.557 148.303 664.609 148.303C662.622 148.303 661.057 147.672 659.917 146.411V154.297H657.117V131.622H659.675L659.811 133.438C660.951 132.026 662.536 131.319 664.564 131.319C666.532 131.319 668.086 132.061 669.226 133.544C670.377 135.028 670.952 137.091 670.952 139.735V139.993ZM668.151 139.675C668.151 137.828 667.758 136.37 666.971 135.3C666.184 134.231 665.104 133.696 663.732 133.696C662.036 133.696 660.765 134.448 659.917 135.951V143.777C660.755 145.27 662.036 146.017 663.762 146.017C665.104 146.017 666.169 145.487 666.956 144.428C667.753 143.358 668.151 141.774 668.151 139.675ZM687.425 148C687.264 147.677 687.133 147.102 687.032 146.274C685.73 147.627 684.176 148.303 682.37 148.303C680.755 148.303 679.428 147.849 678.389 146.94C677.359 146.022 676.845 144.862 676.845 143.459C676.845 141.754 677.491 140.432 678.782 139.493C680.084 138.545 681.911 138.07 684.262 138.07H686.986V136.784C686.986 135.805 686.694 135.028 686.109 134.453C685.523 133.867 684.66 133.575 683.52 133.575C682.521 133.575 681.684 133.827 681.007 134.332C680.331 134.836 679.993 135.447 679.993 136.163H677.178C677.178 135.346 677.465 134.559 678.041 133.802C678.626 133.035 679.413 132.429 680.402 131.985C681.401 131.541 682.496 131.319 683.687 131.319C685.574 131.319 687.052 131.794 688.122 132.742C689.191 133.681 689.746 134.977 689.787 136.632V144.17C689.787 145.674 689.978 146.87 690.362 147.758V148H687.425ZM682.778 145.866C683.656 145.866 684.489 145.639 685.276 145.185C686.063 144.73 686.633 144.14 686.986 143.414V140.053H684.792C681.361 140.053 679.645 141.057 679.645 143.065C679.645 143.943 679.938 144.63 680.523 145.124C681.108 145.618 681.86 145.866 682.778 145.866ZM699.615 131.622L699.706 133.681C700.957 132.106 702.592 131.319 704.61 131.319C708.072 131.319 709.817 133.272 709.848 137.177V148H707.047V137.162C707.037 135.981 706.765 135.109 706.23 134.543C705.705 133.978 704.883 133.696 703.763 133.696C702.855 133.696 702.057 133.938 701.371 134.422C700.685 134.907 700.15 135.542 699.767 136.33V148H696.966V131.622H699.615ZM716.18 139.675C716.18 137.162 716.775 135.144 717.966 133.62C719.157 132.086 720.716 131.319 722.643 131.319C724.56 131.319 726.079 131.975 727.199 133.287V124.75H730V148H727.426L727.29 146.244C726.17 147.617 724.611 148.303 722.613 148.303C720.716 148.303 719.167 147.526 717.966 145.972C716.775 144.418 716.18 142.389 716.18 139.887V139.675ZM718.98 139.993C718.98 141.849 719.363 143.303 720.13 144.352C720.897 145.402 721.957 145.926 723.309 145.926C725.085 145.926 726.382 145.129 727.199 143.535V136.012C726.362 134.468 725.075 133.696 723.339 133.696C721.967 133.696 720.897 134.226 720.13 135.285C719.363 136.345 718.98 137.914 718.98 139.993ZM743.945 148.303C741.725 148.303 739.919 147.576 738.526 146.123C737.134 144.66 736.438 142.707 736.438 140.265V139.75C736.438 138.126 736.745 136.678 737.361 135.406C737.986 134.125 738.854 133.126 739.964 132.409C741.084 131.683 742.295 131.319 743.597 131.319C745.726 131.319 747.381 132.021 748.562 133.423C749.743 134.826 750.333 136.834 750.333 139.448V140.613H739.238C739.278 142.228 739.747 143.535 740.646 144.534C741.554 145.523 742.704 146.017 744.097 146.017C745.086 146.017 745.923 145.815 746.609 145.412C747.296 145.008 747.896 144.473 748.411 143.807L750.121 145.139C748.749 147.248 746.69 148.303 743.945 148.303ZM743.597 133.62C742.467 133.62 741.518 134.034 740.751 134.861C739.985 135.679 739.51 136.829 739.329 138.312H747.533V138.101C747.452 136.678 747.069 135.578 746.382 134.801C745.696 134.014 744.768 133.62 743.597 133.62ZM755.696 139.675C755.696 137.162 756.292 135.144 757.482 133.62C758.673 132.086 760.232 131.319 762.16 131.319C764.077 131.319 765.596 131.975 766.716 133.287V124.75H769.516V148H766.943L766.807 146.244C765.686 147.617 764.127 148.303 762.129 148.303C760.232 148.303 758.683 147.526 757.482 145.972C756.292 144.418 755.696 142.389 755.696 139.887V139.675ZM758.497 139.993C758.497 141.849 758.88 143.303 759.647 144.352C760.414 145.402 761.473 145.926 762.826 145.926C764.602 145.926 765.898 145.129 766.716 143.535V136.012C765.878 134.468 764.592 133.696 762.856 133.696C761.484 133.696 760.414 134.226 759.647 135.285C758.88 136.345 758.497 137.914 758.497 139.993ZM776.575 152.39L774.985 151.3C775.934 149.978 776.428 148.616 776.469 147.213V144.685H779.208V146.88C779.208 147.899 778.956 148.918 778.452 149.938C777.957 150.957 777.331 151.774 776.575 152.39ZM799.819 127.656V131.622H802.877V133.787H799.819V143.943C799.819 144.599 799.955 145.094 800.228 145.427C800.5 145.75 800.964 145.911 801.62 145.911C801.943 145.911 802.387 145.851 802.952 145.729V148C802.216 148.202 801.499 148.303 800.803 148.303C799.552 148.303 798.608 147.924 797.972 147.167C797.337 146.411 797.019 145.336 797.019 143.943V133.787H794.037V131.622H797.019V127.656H799.819ZM811.752 133.605C812.993 132.081 814.608 131.319 816.595 131.319C820.057 131.319 821.802 133.272 821.833 137.177V148H819.032V137.162C819.022 135.981 818.75 135.109 818.215 134.543C817.69 133.978 816.868 133.696 815.748 133.696C814.84 133.696 814.042 133.938 813.356 134.422C812.67 134.907 812.135 135.542 811.752 136.33V148H808.951V124.75H811.752V133.605ZM835.612 148.303C833.392 148.303 831.586 147.576 830.193 146.123C828.801 144.66 828.104 142.707 828.104 140.265V139.75C828.104 138.126 828.412 136.678 829.028 135.406C829.653 134.125 830.521 133.126 831.631 132.409C832.751 131.683 833.962 131.319 835.264 131.319C837.393 131.319 839.048 132.021 840.229 133.423C841.409 134.826 842 136.834 842 139.448V140.613H830.905C830.945 142.228 831.414 143.535 832.312 144.534C833.22 145.523 834.371 146.017 835.763 146.017C836.752 146.017 837.59 145.815 838.276 145.412C838.962 145.008 839.563 144.473 840.077 143.807L841.788 145.139C840.415 147.248 838.357 148.303 835.612 148.303ZM835.264 133.62C834.134 133.62 833.185 134.034 832.418 134.861C831.651 135.679 831.177 136.829 830.995 138.312H839.199V138.101C839.119 136.678 838.735 135.578 838.049 134.801C837.363 134.014 836.434 133.62 835.264 133.62ZM850.693 131.622L850.784 133.681C852.035 132.106 853.67 131.319 855.688 131.319C859.149 131.319 860.895 133.272 860.925 137.177V148H858.125V137.162C858.115 135.981 857.843 135.109 857.308 134.543C856.783 133.978 855.961 133.696 854.841 133.696C853.932 133.696 853.135 133.938 852.449 134.422C851.763 134.907 851.228 135.542 850.844 136.33V148H848.044V131.622H850.693ZM892.571 148H878.13V145.987L885.759 137.51C886.89 136.229 887.667 135.189 888.09 134.392C888.524 133.585 888.741 132.752 888.741 131.895C888.741 130.744 888.393 129.801 887.697 129.064C887.001 128.327 886.072 127.959 884.912 127.959C883.519 127.959 882.434 128.358 881.657 129.155C880.89 129.942 880.507 131.042 880.507 132.455H877.707C877.707 130.426 878.358 128.786 879.659 127.535C880.971 126.284 882.722 125.658 884.912 125.658C886.96 125.658 888.58 126.198 889.771 127.278C890.961 128.347 891.557 129.775 891.557 131.562C891.557 133.731 890.174 136.314 887.409 139.312L881.506 145.714H892.571V148ZM914.499 144.201L918.555 131.622H921.416L915.543 148H913.409L907.475 131.622H910.336L914.499 144.201ZM936.77 148C936.608 147.677 936.477 147.102 936.376 146.274C935.074 147.627 933.52 148.303 931.714 148.303C930.099 148.303 928.772 147.849 927.733 146.94C926.704 146.022 926.189 144.862 926.189 143.459C926.189 141.754 926.835 140.432 928.126 139.493C929.428 138.545 931.255 138.07 933.606 138.07H936.331V136.784C936.331 135.805 936.038 135.028 935.453 134.453C934.867 133.867 934.005 133.575 932.864 133.575C931.865 133.575 931.028 133.827 930.352 134.332C929.675 134.836 929.337 135.447 929.337 136.163H926.522C926.522 135.346 926.81 134.559 927.385 133.802C927.97 133.035 928.757 132.429 929.746 131.985C930.745 131.541 931.84 131.319 933.031 131.319C934.918 131.319 936.396 131.794 937.466 132.742C938.535 133.681 939.09 134.977 939.131 136.632V144.17C939.131 145.674 939.323 146.87 939.706 147.758V148H936.77ZM932.123 145.866C933 145.866 933.833 145.639 934.62 145.185C935.407 144.73 935.977 144.14 936.331 143.414V140.053H934.136C930.705 140.053 928.989 141.057 928.989 143.065C928.989 143.943 929.282 144.63 929.867 145.124C930.452 145.618 931.204 145.866 932.123 145.866ZM948.959 131.622L949.05 133.681C950.302 132.106 951.936 131.319 953.955 131.319C957.416 131.319 959.162 133.272 959.192 137.177V148H956.392V137.162C956.381 135.981 956.109 135.109 955.574 134.543C955.049 133.978 954.227 133.696 953.107 133.696C952.199 133.696 951.401 133.938 950.715 134.422C950.029 134.907 949.494 135.542 949.111 136.33V148H946.31V131.622H948.959ZM969.247 148H966.447V131.622H969.247V148ZM966.22 127.278C966.22 126.824 966.356 126.44 966.629 126.127C966.911 125.815 967.325 125.658 967.87 125.658C968.415 125.658 968.829 125.815 969.111 126.127C969.394 126.44 969.535 126.824 969.535 127.278C969.535 127.732 969.394 128.11 969.111 128.413C968.829 128.716 968.415 128.867 967.87 128.867C967.325 128.867 966.911 128.716 966.629 128.413C966.356 128.11 966.22 127.732 966.22 127.278ZM986.069 143.656C986.069 142.899 985.782 142.314 985.206 141.9C984.641 141.476 983.647 141.113 982.224 140.81C980.812 140.507 979.687 140.144 978.849 139.72C978.022 139.296 977.406 138.792 977.002 138.207C976.609 137.621 976.412 136.925 976.412 136.118C976.412 134.776 976.977 133.64 978.107 132.712C979.248 131.784 980.701 131.319 982.467 131.319C984.323 131.319 985.827 131.799 986.977 132.757C988.138 133.716 988.718 134.942 988.718 136.436H985.903C985.903 135.669 985.575 135.008 984.919 134.453C984.273 133.898 983.456 133.62 982.467 133.62C981.447 133.62 980.65 133.842 980.075 134.286C979.5 134.73 979.212 135.31 979.212 136.027C979.212 136.703 979.48 137.213 980.015 137.556C980.549 137.899 981.513 138.227 982.906 138.54C984.308 138.852 985.444 139.226 986.311 139.66C987.179 140.094 987.82 140.618 988.234 141.234C988.658 141.839 988.87 142.581 988.87 143.459C988.87 144.922 988.284 146.098 987.114 146.986C985.943 147.864 984.424 148.303 982.557 148.303C981.246 148.303 980.085 148.071 979.076 147.606C978.067 147.142 977.275 146.496 976.7 145.669C976.134 144.831 975.852 143.928 975.852 142.959H978.652C978.703 143.898 979.076 144.645 979.772 145.2C980.479 145.745 981.407 146.017 982.557 146.017C983.617 146.017 984.465 145.805 985.1 145.381C985.746 144.947 986.069 144.372 986.069 143.656ZM998.108 133.605C999.349 132.081 1000.96 131.319 1002.95 131.319C1006.41 131.319 1008.16 133.272 1008.19 137.177V148H1005.39V137.162C1005.38 135.981 1005.11 135.109 1004.57 134.543C1004.05 133.978 1003.22 133.696 1002.1 133.696C1001.2 133.696 1000.4 133.938 999.712 134.422C999.026 134.907 998.491 135.542 998.108 136.33V148H995.307V124.75H998.108V133.605ZM1018.21 148H1015.41V131.622H1018.21V148ZM1015.19 127.278C1015.19 126.824 1015.32 126.44 1015.6 126.127C1015.88 125.815 1016.29 125.658 1016.84 125.658C1017.38 125.658 1017.8 125.815 1018.08 126.127C1018.36 126.44 1018.5 126.824 1018.5 127.278C1018.5 127.732 1018.36 128.11 1018.08 128.413C1017.8 128.716 1017.38 128.867 1016.84 128.867C1016.29 128.867 1015.88 128.716 1015.6 128.413C1015.32 128.11 1015.19 127.732 1015.19 127.278ZM1028.15 131.622L1028.24 133.681C1029.49 132.106 1031.13 131.319 1033.14 131.319C1036.61 131.319 1038.35 133.272 1038.38 137.177V148H1035.58V137.162C1035.57 135.981 1035.3 135.109 1034.76 134.543C1034.24 133.978 1033.42 133.696 1032.3 133.696C1031.39 133.696 1030.59 133.938 1029.9 134.422C1029.22 134.907 1028.68 135.542 1028.3 136.33V148H1025.5V131.622H1028.15ZM1044.73 139.675C1044.73 137.122 1045.32 135.093 1046.5 133.59C1047.68 132.076 1049.24 131.319 1051.19 131.319C1053.19 131.319 1054.75 132.026 1055.87 133.438L1056.01 131.622H1058.56V147.606C1058.56 149.726 1057.93 151.396 1056.67 152.617C1055.42 153.838 1053.73 154.448 1051.62 154.448C1050.43 154.448 1049.28 154.196 1048.15 153.691C1047.02 153.187 1046.16 152.496 1045.56 151.618L1047.01 149.938C1048.21 151.421 1049.68 152.163 1051.42 152.163C1052.78 152.163 1053.84 151.779 1054.6 151.012C1055.36 150.245 1055.75 149.166 1055.75 147.773V146.365C1054.63 147.657 1053.1 148.303 1051.16 148.303C1049.24 148.303 1047.69 147.531 1046.5 145.987C1045.32 144.443 1044.73 142.339 1044.73 139.675ZM1047.54 139.993C1047.54 141.839 1047.92 143.292 1048.68 144.352C1049.44 145.402 1050.5 145.926 1051.86 145.926C1053.62 145.926 1054.92 145.124 1055.75 143.52V136.042C1054.89 134.478 1053.6 133.696 1051.89 133.696C1050.53 133.696 1049.46 134.226 1048.69 135.285C1047.93 136.345 1047.54 137.914 1047.54 139.993ZM1089.91 139.993C1089.91 142.485 1089.34 144.493 1088.2 146.017C1087.06 147.541 1085.51 148.303 1083.56 148.303C1081.58 148.303 1080.01 147.672 1078.87 146.411V154.297H1076.07V131.622H1078.63L1078.77 133.438C1079.91 132.026 1081.49 131.319 1083.52 131.319C1085.49 131.319 1087.04 132.061 1088.18 133.544C1089.33 135.028 1089.91 137.091 1089.91 139.735V139.993ZM1087.11 139.675C1087.11 137.828 1086.71 136.37 1085.92 135.3C1085.14 134.231 1084.06 133.696 1082.69 133.696C1080.99 133.696 1079.72 134.448 1078.87 135.951V143.777C1079.71 145.27 1080.99 146.017 1082.72 146.017C1084.06 146.017 1085.12 145.487 1085.91 144.428C1086.71 143.358 1087.11 141.774 1087.11 139.675ZM1095.53 139.66C1095.53 138.055 1095.84 136.612 1096.46 135.331C1097.1 134.049 1097.98 133.06 1099.1 132.364C1100.23 131.667 1101.52 131.319 1102.96 131.319C1105.19 131.319 1106.99 132.091 1108.36 133.635C1109.74 135.179 1110.44 137.233 1110.44 139.796V139.993C1110.44 141.587 1110.13 143.02 1109.51 144.292C1108.91 145.553 1108.03 146.537 1106.89 147.243C1105.76 147.95 1104.46 148.303 1102.99 148.303C1100.77 148.303 1098.97 147.531 1097.59 145.987C1096.21 144.443 1095.53 142.399 1095.53 139.856V139.66ZM1098.34 139.993C1098.34 141.809 1098.76 143.267 1099.6 144.367C1100.45 145.467 1101.58 146.017 1102.99 146.017C1104.41 146.017 1105.54 145.462 1106.38 144.352C1107.22 143.232 1107.64 141.668 1107.64 139.66C1107.64 137.863 1107.21 136.41 1106.35 135.3C1105.5 134.18 1104.37 133.62 1102.96 133.62C1101.58 133.62 1100.46 134.17 1099.61 135.27C1098.77 136.37 1098.34 137.944 1098.34 139.993ZM1119.78 148H1116.98V131.622H1119.78V148ZM1116.75 127.278C1116.75 126.824 1116.89 126.44 1117.16 126.127C1117.44 125.815 1117.86 125.658 1118.4 125.658C1118.95 125.658 1119.36 125.815 1119.64 126.127C1119.93 126.44 1120.07 126.824 1120.07 127.278C1120.07 127.732 1119.93 128.11 1119.64 128.413C1119.36 128.716 1118.95 128.867 1118.4 128.867C1117.86 128.867 1117.44 128.716 1117.16 128.413C1116.89 128.11 1116.75 127.732 1116.75 127.278ZM1129.71 131.622L1129.81 133.681C1131.06 132.106 1132.69 131.319 1134.71 131.319C1138.17 131.319 1139.92 133.272 1139.95 137.177V148H1137.15V137.162C1137.14 135.981 1136.86 135.109 1136.33 134.543C1135.8 133.978 1134.98 133.696 1133.86 133.696C1132.95 133.696 1132.16 133.938 1131.47 134.422C1130.78 134.907 1130.25 135.542 1129.87 136.33V148H1127.07V131.622H1129.71ZM1150.76 127.656V131.622H1153.82V133.787H1150.76V143.943C1150.76 144.599 1150.9 145.094 1151.17 145.427C1151.44 145.75 1151.91 145.911 1152.56 145.911C1152.88 145.911 1153.33 145.851 1153.89 145.729V148C1153.16 148.202 1152.44 148.303 1151.74 148.303C1150.49 148.303 1149.55 147.924 1148.91 147.167C1148.28 146.411 1147.96 145.336 1147.96 143.943V133.787H1144.98V131.622H1147.96V127.656H1150.76ZM1169.43 143.656C1169.43 142.899 1169.14 142.314 1168.57 141.9C1168 141.476 1167.01 141.113 1165.58 140.81C1164.17 140.507 1163.05 140.144 1162.21 139.72C1161.38 139.296 1160.76 138.792 1160.36 138.207C1159.97 137.621 1159.77 136.925 1159.77 136.118C1159.77 134.776 1160.34 133.64 1161.47 132.712C1162.61 131.784 1164.06 131.319 1165.83 131.319C1167.68 131.319 1169.19 131.799 1170.34 132.757C1171.5 133.716 1172.08 134.942 1172.08 136.436H1169.26C1169.26 135.669 1168.93 135.008 1168.28 134.453C1167.63 133.898 1166.81 133.62 1165.83 133.62C1164.81 133.62 1164.01 133.842 1163.43 134.286C1162.86 134.73 1162.57 135.31 1162.57 136.027C1162.57 136.703 1162.84 137.213 1163.37 137.556C1163.91 137.899 1164.87 138.227 1166.26 138.54C1167.67 138.852 1168.8 139.226 1169.67 139.66C1170.54 140.094 1171.18 140.618 1171.59 141.234C1172.02 141.839 1172.23 142.581 1172.23 143.459C1172.23 144.922 1171.64 146.098 1170.47 146.986C1169.3 147.864 1167.78 148.303 1165.92 148.303C1164.6 148.303 1163.44 148.071 1162.43 147.606C1161.43 147.142 1160.63 146.496 1160.06 145.669C1159.49 144.831 1159.21 143.928 1159.21 142.959H1162.01C1162.06 143.898 1162.43 144.645 1163.13 145.2C1163.84 145.745 1164.77 146.017 1165.92 146.017C1166.98 146.017 1167.82 145.805 1168.46 145.381C1169.11 144.947 1169.43 144.372 1169.43 143.656ZM1199.26 148C1199.1 147.677 1198.96 147.102 1198.86 146.274C1197.56 147.627 1196.01 148.303 1194.2 148.303C1192.59 148.303 1191.26 147.849 1190.22 146.94C1189.19 146.022 1188.68 144.862 1188.68 143.459C1188.68 141.754 1189.32 140.432 1190.61 139.493C1191.92 138.545 1193.74 138.07 1196.09 138.07H1198.82V136.784C1198.82 135.805 1198.53 135.028 1197.94 134.453C1197.36 133.867 1196.49 133.575 1195.35 133.575C1194.35 133.575 1193.52 133.827 1192.84 134.332C1192.16 134.836 1191.83 135.447 1191.83 136.163H1189.01C1189.01 135.346 1189.3 134.559 1189.87 133.802C1190.46 133.035 1191.24 132.429 1192.23 131.985C1193.23 131.541 1194.33 131.319 1195.52 131.319C1197.41 131.319 1198.88 131.794 1199.95 132.742C1201.02 133.681 1201.58 134.977 1201.62 136.632V144.17C1201.62 145.674 1201.81 146.87 1202.19 147.758V148H1199.26ZM1194.61 145.866C1195.49 145.866 1196.32 145.639 1197.11 145.185C1197.89 144.73 1198.47 144.14 1198.82 143.414V140.053H1196.62C1193.19 140.053 1191.48 141.057 1191.48 143.065C1191.48 143.943 1191.77 144.63 1192.35 145.124C1192.94 145.618 1193.69 145.866 1194.61 145.866ZM1222.63 139.993C1222.63 142.485 1222.06 144.493 1220.92 146.017C1219.78 147.541 1218.24 148.303 1216.29 148.303C1214.3 148.303 1212.74 147.672 1211.6 146.411V154.297H1208.8V131.622H1211.36L1211.49 133.438C1212.63 132.026 1214.22 131.319 1216.25 131.319C1218.21 131.319 1219.77 132.061 1220.91 133.544C1222.06 135.028 1222.63 137.091 1222.63 139.735V139.993ZM1219.83 139.675C1219.83 137.828 1219.44 136.37 1218.65 135.3C1217.87 134.231 1216.79 133.696 1215.41 133.696C1213.72 133.696 1212.45 134.448 1211.6 135.951V143.777C1212.44 145.27 1213.72 146.017 1215.44 146.017C1216.79 146.017 1217.85 145.487 1218.64 144.428C1219.43 143.358 1219.83 141.774 1219.83 139.675ZM1242.83 139.993C1242.83 142.485 1242.26 144.493 1241.12 146.017C1239.98 147.541 1238.44 148.303 1236.49 148.303C1234.5 148.303 1232.94 147.672 1231.8 146.411V154.297H1229V131.622H1231.55L1231.69 133.438C1232.83 132.026 1234.41 131.319 1236.44 131.319C1238.41 131.319 1239.96 132.061 1241.1 133.544C1242.26 135.028 1242.83 137.091 1242.83 139.735V139.993ZM1240.03 139.675C1240.03 137.828 1239.64 136.37 1238.85 135.3C1238.06 134.231 1236.98 133.696 1235.61 133.696C1233.91 133.696 1232.64 134.448 1231.8 135.951V143.777C1232.63 145.27 1233.91 146.017 1235.64 146.017C1236.98 146.017 1238.05 145.487 1238.83 144.428C1239.63 143.358 1240.03 141.774 1240.03 139.675ZM1255.99 148.303C1253.77 148.303 1251.96 147.576 1250.57 146.123C1249.18 144.66 1248.48 142.707 1248.48 140.265V139.75C1248.48 138.126 1248.79 136.678 1249.4 135.406C1250.03 134.125 1250.9 133.126 1252.01 132.409C1253.13 131.683 1254.34 131.319 1255.64 131.319C1257.77 131.319 1259.43 132.021 1260.61 133.423C1261.79 134.826 1262.38 136.834 1262.38 139.448V140.613H1251.28C1251.32 142.228 1251.79 143.535 1252.69 144.534C1253.6 145.523 1254.75 146.017 1256.14 146.017C1257.13 146.017 1257.97 145.815 1258.65 145.412C1259.34 145.008 1259.94 144.473 1260.45 143.807L1262.16 145.139C1260.79 147.248 1258.73 148.303 1255.99 148.303ZM1255.64 133.62C1254.51 133.62 1253.56 134.034 1252.8 134.861C1252.03 135.679 1251.55 136.829 1251.37 138.312H1259.58V138.101C1259.5 136.678 1259.11 135.578 1258.43 134.801C1257.74 134.014 1256.81 133.62 1255.64 133.62ZM1278.53 148C1278.37 147.677 1278.24 147.102 1278.14 146.274C1276.84 147.627 1275.28 148.303 1273.48 148.303C1271.86 148.303 1270.54 147.849 1269.5 146.94C1268.47 146.022 1267.95 144.862 1267.95 143.459C1267.95 141.754 1268.6 140.432 1269.89 139.493C1271.19 138.545 1273.02 138.07 1275.37 138.07H1278.09V136.784C1278.09 135.805 1277.8 135.028 1277.22 134.453C1276.63 133.867 1275.77 133.575 1274.63 133.575C1273.63 133.575 1272.79 133.827 1272.11 134.332C1271.44 134.836 1271.1 135.447 1271.1 136.163H1268.28C1268.28 135.346 1268.57 134.559 1269.15 133.802C1269.73 133.035 1270.52 132.429 1271.51 131.985C1272.51 131.541 1273.6 131.319 1274.79 131.319C1276.68 131.319 1278.16 131.794 1279.23 132.742C1280.3 133.681 1280.85 134.977 1280.89 136.632V144.17C1280.89 145.674 1281.09 146.87 1281.47 147.758V148H1278.53ZM1273.89 145.866C1274.76 145.866 1275.6 145.639 1276.38 145.185C1277.17 144.73 1277.74 144.14 1278.09 143.414V140.053H1275.9C1272.47 140.053 1270.75 141.057 1270.75 143.065C1270.75 143.943 1271.04 144.63 1271.63 145.124C1272.22 145.618 1272.97 145.866 1273.89 145.866ZM1295.99 134.135C1295.57 134.064 1295.11 134.029 1294.61 134.029C1292.78 134.029 1291.53 134.811 1290.87 136.375V148H1288.07V131.622H1290.8L1290.84 133.514C1291.76 132.051 1293.06 131.319 1294.75 131.319C1295.29 131.319 1295.71 131.39 1295.99 131.531V134.135ZM1299.55 146.532C1299.55 146.047 1299.69 145.644 1299.98 145.321C1300.27 144.998 1300.7 144.836 1301.28 144.836C1301.85 144.836 1302.29 144.998 1302.58 145.321C1302.88 145.644 1303.03 146.047 1303.03 146.532C1303.03 146.996 1302.88 147.384 1302.58 147.697C1302.29 148.01 1301.85 148.167 1301.28 148.167C1300.7 148.167 1300.27 148.01 1299.98 147.697C1299.69 147.384 1299.55 146.996 1299.55 146.532ZM148.676 209H145.77V186.961H148.676V209ZM159.004 192.622L159.095 194.681C160.346 193.106 161.981 192.319 163.999 192.319C167.461 192.319 169.207 194.272 169.237 198.177V209H166.436V198.162C166.426 196.981 166.154 196.109 165.619 195.543C165.094 194.978 164.272 194.696 163.152 194.696C162.244 194.696 161.446 194.938 160.76 195.422C160.074 195.907 159.539 196.542 159.156 197.33V209H156.355V192.622H159.004ZM190.529 188.656V192.622H193.586V194.787H190.529V204.943C190.529 205.599 190.665 206.094 190.937 206.427C191.21 206.75 191.674 206.911 192.33 206.911C192.653 206.911 193.097 206.851 193.662 206.729V209C192.925 209.202 192.209 209.303 191.513 209.303C190.261 209.303 189.318 208.924 188.682 208.167C188.046 207.411 187.728 206.336 187.728 204.943V194.787H184.746V192.622H187.728V188.656H190.529ZM202.461 194.605C203.702 193.081 205.317 192.319 207.305 192.319C210.766 192.319 212.512 194.272 212.542 198.177V209H209.742V198.162C209.732 196.981 209.459 196.109 208.925 195.543C208.4 194.978 207.577 194.696 206.457 194.696C205.549 194.696 204.752 194.938 204.066 195.422C203.38 195.907 202.845 196.542 202.461 197.33V209H199.661V185.75H202.461V194.605ZM222.568 209H219.767V192.622H222.568V209ZM219.54 188.278C219.54 187.824 219.677 187.44 219.949 187.127C220.232 186.815 220.645 186.658 221.19 186.658C221.735 186.658 222.149 186.815 222.431 187.127C222.714 187.44 222.855 187.824 222.855 188.278C222.855 188.732 222.714 189.11 222.431 189.413C222.149 189.716 221.735 189.867 221.19 189.867C220.645 189.867 220.232 189.716 219.949 189.413C219.677 189.11 219.54 188.732 219.54 188.278ZM239.389 204.656C239.389 203.899 239.102 203.314 238.527 202.9C237.962 202.476 236.968 202.113 235.545 201.81C234.132 201.507 233.007 201.144 232.169 200.72C231.342 200.296 230.726 199.792 230.323 199.207C229.929 198.621 229.732 197.925 229.732 197.118C229.732 195.776 230.297 194.64 231.427 193.712C232.568 192.784 234.021 192.319 235.787 192.319C237.644 192.319 239.147 192.799 240.298 193.757C241.458 194.716 242.038 195.942 242.038 197.436H239.223C239.223 196.669 238.895 196.008 238.239 195.453C237.593 194.898 236.776 194.62 235.787 194.62C234.768 194.62 233.97 194.842 233.395 195.286C232.82 195.73 232.532 196.31 232.532 197.027C232.532 197.703 232.8 198.213 233.335 198.556C233.87 198.899 234.833 199.227 236.226 199.54C237.629 199.852 238.764 200.226 239.632 200.66C240.499 201.094 241.14 201.618 241.554 202.234C241.978 202.839 242.19 203.581 242.19 204.459C242.19 205.922 241.604 207.098 240.434 207.986C239.263 208.864 237.745 209.303 235.878 209.303C234.566 209.303 233.405 209.071 232.396 208.606C231.387 208.142 230.595 207.496 230.02 206.669C229.455 205.831 229.172 204.928 229.172 203.959H231.972C232.023 204.898 232.396 205.645 233.093 206.2C233.799 206.745 234.727 207.017 235.878 207.017C236.937 207.017 237.785 206.805 238.421 206.381C239.066 205.947 239.389 205.372 239.389 204.656ZM265.676 207.017C266.675 207.017 267.548 206.714 268.295 206.109C269.042 205.503 269.456 204.747 269.536 203.838H272.185C272.135 204.777 271.812 205.67 271.216 206.518C270.621 207.365 269.824 208.041 268.825 208.546C267.836 209.05 266.786 209.303 265.676 209.303C263.446 209.303 261.67 208.561 260.348 207.078C259.036 205.584 258.381 203.546 258.381 200.962V200.493C258.381 198.899 258.673 197.481 259.258 196.24C259.844 194.999 260.681 194.035 261.771 193.349C262.871 192.662 264.168 192.319 265.661 192.319C267.498 192.319 269.022 192.869 270.233 193.969C271.454 195.069 272.105 196.497 272.185 198.253H269.536C269.456 197.193 269.052 196.326 268.325 195.649C267.609 194.963 266.721 194.62 265.661 194.62C264.238 194.62 263.133 195.135 262.346 196.164C261.569 197.183 261.181 198.662 261.181 200.599V201.129C261.181 203.016 261.569 204.469 262.346 205.488C263.123 206.507 264.233 207.017 265.676 207.017ZM288.235 209C288.074 208.677 287.942 208.102 287.841 207.274C286.54 208.627 284.986 209.303 283.179 209.303C281.565 209.303 280.238 208.849 279.198 207.94C278.169 207.022 277.654 205.862 277.654 204.459C277.654 202.754 278.3 201.432 279.592 200.493C280.894 199.545 282.72 199.07 285.071 199.07H287.796V197.784C287.796 196.805 287.503 196.028 286.918 195.453C286.333 194.867 285.47 194.575 284.33 194.575C283.331 194.575 282.493 194.827 281.817 195.332C281.141 195.836 280.803 196.447 280.803 197.163H277.987C277.987 196.346 278.275 195.559 278.85 194.802C279.436 194.035 280.223 193.429 281.212 192.985C282.211 192.541 283.305 192.319 284.496 192.319C286.383 192.319 287.862 192.794 288.931 193.742C290.001 194.681 290.556 195.977 290.596 197.632V205.17C290.596 206.674 290.788 207.87 291.172 208.758V209H288.235ZM283.588 206.866C284.466 206.866 285.298 206.639 286.086 206.185C286.873 205.73 287.443 205.14 287.796 204.414V201.053H285.601C282.17 201.053 280.455 202.057 280.455 204.065C280.455 204.943 280.747 205.63 281.333 206.124C281.918 206.618 282.67 206.866 283.588 206.866ZM307.312 204.656C307.312 203.899 307.025 203.314 306.449 202.9C305.884 202.476 304.89 202.113 303.467 201.81C302.055 201.507 300.929 201.144 300.092 200.72C299.264 200.296 298.649 199.792 298.245 199.207C297.852 198.621 297.655 197.925 297.655 197.118C297.655 195.776 298.22 194.64 299.35 193.712C300.49 192.784 301.944 192.319 303.71 192.319C305.566 192.319 307.07 192.799 308.22 193.757C309.381 194.716 309.961 195.942 309.961 197.436H307.146C307.146 196.669 306.818 196.008 306.162 195.453C305.516 194.898 304.698 194.62 303.71 194.62C302.69 194.62 301.893 194.842 301.318 195.286C300.743 195.73 300.455 196.31 300.455 197.027C300.455 197.703 300.723 198.213 301.257 198.556C301.792 198.899 302.756 199.227 304.149 199.54C305.551 199.852 306.686 200.226 307.554 200.66C308.422 201.094 309.063 201.618 309.477 202.234C309.9 202.839 310.112 203.581 310.112 204.459C310.112 205.922 309.527 207.098 308.357 207.986C307.186 208.864 305.667 209.303 303.8 209.303C302.489 209.303 301.328 209.071 300.319 208.606C299.31 208.142 298.518 207.496 297.942 206.669C297.377 205.831 297.095 204.928 297.095 203.959H299.895C299.946 204.898 300.319 205.645 301.015 206.2C301.722 206.745 302.65 207.017 303.8 207.017C304.86 207.017 305.708 206.805 306.343 206.381C306.989 205.947 307.312 205.372 307.312 204.656ZM323.347 209.303C321.127 209.303 319.32 208.576 317.928 207.123C316.535 205.66 315.839 203.707 315.839 201.265V200.75C315.839 199.126 316.147 197.678 316.762 196.406C317.388 195.125 318.256 194.126 319.366 193.409C320.486 192.683 321.697 192.319 322.999 192.319C325.128 192.319 326.783 193.021 327.963 194.423C329.144 195.826 329.734 197.834 329.734 200.448V201.613H318.639C318.68 203.228 319.149 204.535 320.047 205.534C320.955 206.523 322.106 207.017 323.498 207.017C324.487 207.017 325.325 206.815 326.011 206.412C326.697 206.008 327.297 205.473 327.812 204.807L329.523 206.139C328.15 208.248 326.092 209.303 323.347 209.303ZM322.999 194.62C321.868 194.62 320.92 195.034 320.153 195.861C319.386 196.679 318.912 197.829 318.73 199.312H326.934V199.101C326.853 197.678 326.47 196.578 325.784 195.801C325.098 195.014 324.169 194.62 322.999 194.62ZM335.688 213.39L334.099 212.3C335.047 210.978 335.542 209.616 335.582 208.213V205.685H338.322V207.88C338.322 208.899 338.07 209.918 337.565 210.938C337.07 211.957 336.445 212.774 335.688 213.39ZM365.245 209C365.083 208.677 364.952 208.102 364.851 207.274C363.549 208.627 361.995 209.303 360.189 209.303C358.574 209.303 357.247 208.849 356.208 207.94C355.179 207.022 354.664 205.862 354.664 204.459C354.664 202.754 355.31 201.432 356.602 200.493C357.903 199.545 359.73 199.07 362.081 199.07H364.806V197.784C364.806 196.805 364.513 196.028 363.928 195.453C363.342 194.867 362.48 194.575 361.339 194.575C360.34 194.575 359.503 194.827 358.827 195.332C358.15 195.836 357.812 196.447 357.812 197.163H354.997C354.997 196.346 355.285 195.559 355.86 194.802C356.445 194.035 357.232 193.429 358.221 192.985C359.22 192.541 360.315 192.319 361.506 192.319C363.393 192.319 364.871 192.794 365.941 193.742C367.011 194.681 367.566 195.977 367.606 197.632V205.17C367.606 206.674 367.798 207.87 368.181 208.758V209H365.245ZM360.598 206.866C361.476 206.866 362.308 206.639 363.095 206.185C363.882 205.73 364.452 205.14 364.806 204.414V201.053H362.611C359.18 201.053 357.464 202.057 357.464 204.065C357.464 204.943 357.757 205.63 358.342 206.124C358.928 206.618 359.679 206.866 360.598 206.866ZM377.828 209H375.028V185.75H377.828V209ZM388.156 209H385.356V185.75H388.156V209ZM409.72 188.656V192.622H412.778V194.787H409.72V204.943C409.72 205.599 409.857 206.094 410.129 206.427C410.402 206.75 410.866 206.911 411.522 206.911C411.845 206.911 412.289 206.851 412.854 206.729V209C412.117 209.202 411.401 209.303 410.704 209.303C409.453 209.303 408.51 208.924 407.874 208.167C407.238 207.411 406.92 206.336 406.92 204.943V194.787H403.938V192.622H406.92V188.656H409.72ZM421.653 194.605C422.894 193.081 424.509 192.319 426.497 192.319C429.958 192.319 431.704 194.272 431.734 198.177V209H428.934V198.162C428.924 196.981 428.651 196.109 428.116 195.543C427.592 194.978 426.769 194.696 425.649 194.696C424.741 194.696 423.944 194.938 423.258 195.422C422.571 195.907 422.037 196.542 421.653 197.33V209H418.853V185.75H421.653V194.605ZM445.513 209.303C443.293 209.303 441.487 208.576 440.094 207.123C438.702 205.66 438.006 203.707 438.006 201.265V200.75C438.006 199.126 438.313 197.678 438.929 196.406C439.555 195.125 440.422 194.126 441.532 193.409C442.653 192.683 443.863 192.319 445.165 192.319C447.294 192.319 448.949 193.021 450.13 194.423C451.311 195.826 451.901 197.834 451.901 200.448V201.613H440.806C440.846 203.228 441.315 204.535 442.214 205.534C443.122 206.523 444.272 207.017 445.665 207.017C446.654 207.017 447.491 206.815 448.177 206.412C448.864 206.008 449.464 205.473 449.979 204.807L451.689 206.139C450.317 208.248 448.258 209.303 445.513 209.303ZM445.165 194.62C444.035 194.62 443.086 195.034 442.32 195.861C441.553 196.679 441.078 197.829 440.897 199.312H449.101V199.101C449.02 197.678 448.637 196.578 447.95 195.801C447.264 195.014 446.336 194.62 445.165 194.62ZM471.467 209H468.667V185.75H471.467V209ZM481.796 209H478.995V192.622H481.796V209ZM478.768 188.278C478.768 187.824 478.904 187.44 479.177 187.127C479.459 186.815 479.873 186.658 480.418 186.658C480.963 186.658 481.377 186.815 481.659 187.127C481.942 187.44 482.083 187.824 482.083 188.278C482.083 188.732 481.942 189.11 481.659 189.413C481.377 189.716 480.963 189.867 480.418 189.867C479.873 189.867 479.459 189.716 479.177 189.413C478.904 189.11 478.768 188.732 478.768 188.278ZM491.73 192.622L491.821 194.681C493.072 193.106 494.707 192.319 496.725 192.319C500.186 192.319 501.932 194.272 501.962 198.177V209H499.162V198.162C499.152 196.981 498.88 196.109 498.345 195.543C497.82 194.978 496.998 194.696 495.877 194.696C494.969 194.696 494.172 194.938 493.486 195.422C492.8 195.907 492.265 196.542 491.881 197.33V209H489.081V192.622H491.73ZM515.772 209.303C513.552 209.303 511.746 208.576 510.353 207.123C508.96 205.66 508.264 203.707 508.264 201.265V200.75C508.264 199.126 508.572 197.678 509.188 196.406C509.813 195.125 510.681 194.126 511.791 193.409C512.911 192.683 514.122 192.319 515.424 192.319C517.553 192.319 519.208 193.021 520.389 194.423C521.569 195.826 522.16 197.834 522.16 200.448V201.613H511.064C511.105 203.228 511.574 204.535 512.472 205.534C513.38 206.523 514.531 207.017 515.923 207.017C516.912 207.017 517.75 206.815 518.436 206.412C519.122 206.008 519.723 205.473 520.237 204.807L521.948 206.139C520.575 208.248 518.517 209.303 515.772 209.303ZM515.424 194.62C514.294 194.62 513.345 195.034 512.578 195.861C511.811 196.679 511.337 197.829 511.155 199.312H519.359V199.101C519.279 197.678 518.895 196.578 518.209 195.801C517.523 195.014 516.594 194.62 515.424 194.62ZM537.74 204.656C537.74 203.899 537.453 203.314 536.877 202.9C536.312 202.476 535.318 202.113 533.895 201.81C532.483 201.507 531.358 201.144 530.52 200.72C529.693 200.296 529.077 199.792 528.673 199.207C528.28 198.621 528.083 197.925 528.083 197.118C528.083 195.776 528.648 194.64 529.778 193.712C530.919 192.784 532.372 192.319 534.138 192.319C535.994 192.319 537.498 192.799 538.648 193.757C539.809 194.716 540.389 195.942 540.389 197.436H537.574C537.574 196.669 537.246 196.008 536.59 195.453C535.944 194.898 535.127 194.62 534.138 194.62C533.118 194.62 532.321 194.842 531.746 195.286C531.171 195.73 530.883 196.31 530.883 197.027C530.883 197.703 531.151 198.213 531.686 198.556C532.22 198.899 533.184 199.227 534.577 199.54C535.979 199.852 537.115 200.226 537.982 200.66C538.85 201.094 539.491 201.618 539.905 202.234C540.329 202.839 540.54 203.581 540.54 204.459C540.54 205.922 539.955 207.098 538.785 207.986C537.614 208.864 536.095 209.303 534.228 209.303C532.917 209.303 531.756 209.071 530.747 208.606C529.738 208.142 528.946 207.496 528.371 206.669C527.805 205.831 527.523 204.928 527.523 203.959H530.323C530.374 204.898 530.747 205.645 531.443 206.2C532.15 206.745 533.078 207.017 534.228 207.017C535.288 207.017 536.136 206.805 536.771 206.381C537.417 205.947 537.74 205.372 537.74 204.656ZM564.027 207.017C565.026 207.017 565.899 206.714 566.646 206.109C567.393 205.503 567.806 204.747 567.887 203.838H570.536C570.486 204.777 570.163 205.67 569.567 206.518C568.972 207.365 568.175 208.041 567.176 208.546C566.187 209.05 565.137 209.303 564.027 209.303C561.797 209.303 560.021 208.561 558.699 207.078C557.387 205.584 556.731 203.546 556.731 200.962V200.493C556.731 198.899 557.024 197.481 557.609 196.24C558.195 194.999 559.032 194.035 560.122 193.349C561.222 192.662 562.519 192.319 564.012 192.319C565.849 192.319 567.372 192.869 568.583 193.969C569.804 195.069 570.455 196.497 570.536 198.253H567.887C567.806 197.193 567.403 196.326 566.676 195.649C565.96 194.963 565.072 194.62 564.012 194.62C562.589 194.62 561.484 195.135 560.697 196.164C559.92 197.183 559.532 198.662 559.532 200.599V201.129C559.532 203.016 559.92 204.469 560.697 205.488C561.474 206.507 562.584 207.017 564.027 207.017ZM575.733 200.66C575.733 199.055 576.046 197.612 576.671 196.331C577.307 195.049 578.185 194.06 579.305 193.364C580.435 192.667 581.722 192.319 583.165 192.319C585.395 192.319 587.196 193.091 588.569 194.635C589.951 196.179 590.642 198.233 590.642 200.796V200.993C590.642 202.587 590.335 204.02 589.719 205.292C589.114 206.553 588.241 207.537 587.1 208.243C585.97 208.95 584.668 209.303 583.195 209.303C580.975 209.303 579.174 208.531 577.791 206.987C576.419 205.443 575.733 203.399 575.733 200.856V200.66ZM578.548 200.993C578.548 202.809 578.967 204.267 579.805 205.367C580.652 206.467 581.782 207.017 583.195 207.017C584.618 207.017 585.748 206.462 586.586 205.352C587.423 204.232 587.842 202.668 587.842 200.66C587.842 198.863 587.413 197.41 586.556 196.3C585.708 195.18 584.578 194.62 583.165 194.62C581.782 194.62 580.667 195.17 579.82 196.27C578.972 197.37 578.548 198.944 578.548 200.993ZM599.593 192.622L599.684 194.681C600.935 193.106 602.57 192.319 604.588 192.319C608.049 192.319 609.795 194.272 609.826 198.177V209H607.025V198.162C607.015 196.981 606.743 196.109 606.208 195.543C605.683 194.978 604.861 194.696 603.741 194.696C602.832 194.696 602.035 194.938 601.349 195.422C600.663 195.907 600.128 196.542 599.744 197.33V209H596.944V192.622H599.593ZM622.242 205.201L626.299 192.622H629.16L623.287 209H621.153L615.219 192.622H618.08L622.242 205.201ZM641.229 209.303C639.009 209.303 637.202 208.576 635.81 207.123C634.417 205.66 633.721 203.707 633.721 201.265V200.75C633.721 199.126 634.029 197.678 634.644 196.406C635.27 195.125 636.138 194.126 637.248 193.409C638.368 192.683 639.579 192.319 640.881 192.319C643.01 192.319 644.665 193.021 645.845 194.423C647.026 195.826 647.616 197.834 647.616 200.448V201.613H636.521C636.562 203.228 637.031 204.535 637.929 205.534C638.837 206.523 639.988 207.017 641.38 207.017C642.369 207.017 643.207 206.815 643.893 206.412C644.579 206.008 645.179 205.473 645.694 204.807L647.405 206.139C646.032 208.248 643.974 209.303 641.229 209.303ZM640.881 194.62C639.75 194.62 638.802 195.034 638.035 195.861C637.268 196.679 636.794 197.829 636.612 199.312H644.816V199.101C644.735 197.678 644.352 196.578 643.666 195.801C642.98 195.014 642.051 194.62 640.881 194.62ZM661.577 195.135C661.154 195.064 660.694 195.029 660.2 195.029C658.363 195.029 657.117 195.811 656.461 197.375V209H653.661V192.622H656.385L656.431 194.514C657.349 193.051 658.651 192.319 660.336 192.319C660.881 192.319 661.295 192.39 661.577 192.531V195.135ZM665.987 200.675C665.987 198.122 666.577 196.093 667.758 194.59C668.939 193.076 670.503 192.319 672.45 192.319C674.448 192.319 676.007 193.026 677.128 194.438L677.264 192.622H679.822V208.606C679.822 210.726 679.191 212.396 677.93 213.617C676.679 214.838 674.993 215.448 672.874 215.448C671.693 215.448 670.538 215.196 669.408 214.691C668.278 214.187 667.415 213.496 666.819 212.618L668.273 210.938C669.473 212.421 670.942 213.163 672.677 213.163C674.04 213.163 675.099 212.779 675.856 212.012C676.623 211.245 677.006 210.166 677.006 208.773V207.365C675.886 208.657 674.358 209.303 672.42 209.303C670.503 209.303 668.949 208.531 667.758 206.987C666.577 205.443 665.987 203.339 665.987 200.675ZM668.802 200.993C668.802 202.839 669.181 204.292 669.938 205.352C670.694 206.402 671.754 206.926 673.116 206.926C674.882 206.926 676.179 206.124 677.006 204.52V197.042C676.149 195.478 674.862 194.696 673.147 194.696C671.784 194.696 670.72 195.226 669.953 196.285C669.186 197.345 668.802 198.914 668.802 200.993ZM693.647 209.303C691.427 209.303 689.62 208.576 688.228 207.123C686.835 205.66 686.139 203.707 686.139 201.265V200.75C686.139 199.126 686.447 197.678 687.062 196.406C687.688 195.125 688.556 194.126 689.666 193.409C690.786 192.683 691.997 192.319 693.298 192.319C695.428 192.319 697.083 193.021 698.263 194.423C699.444 195.826 700.034 197.834 700.034 200.448V201.613H688.939C688.979 203.228 689.449 204.535 690.347 205.534C691.255 206.523 692.405 207.017 693.798 207.017C694.787 207.017 695.624 206.815 696.311 206.412C696.997 206.008 697.597 205.473 698.112 204.807L699.822 206.139C698.45 208.248 696.391 209.303 693.647 209.303ZM693.298 194.62C692.168 194.62 691.22 195.034 690.453 195.861C689.686 196.679 689.212 197.829 689.03 199.312H697.234V199.101C697.153 197.678 696.77 196.578 696.084 195.801C695.397 195.014 694.469 194.62 693.298 194.62ZM726.669 209C726.508 208.677 726.377 208.102 726.276 207.274C724.974 208.627 723.42 209.303 721.614 209.303C719.999 209.303 718.672 208.849 717.633 207.94C716.604 207.022 716.089 205.862 716.089 204.459C716.089 202.754 716.735 201.432 718.026 200.493C719.328 199.545 721.155 199.07 723.506 199.07H726.23V197.784C726.23 196.805 725.938 196.028 725.353 195.453C724.767 194.867 723.904 194.575 722.764 194.575C721.765 194.575 720.928 194.827 720.251 195.332C719.575 195.836 719.237 196.447 719.237 197.163H716.422C716.422 196.346 716.709 195.559 717.285 194.802C717.87 194.035 718.657 193.429 719.646 192.985C720.645 192.541 721.74 192.319 722.931 192.319C724.818 192.319 726.296 192.794 727.366 193.742C728.435 194.681 728.99 195.977 729.031 197.632V205.17C729.031 206.674 729.222 207.87 729.606 208.758V209H726.669ZM722.022 206.866C722.9 206.866 723.733 206.639 724.52 206.185C725.307 205.73 725.877 205.14 726.23 204.414V201.053H724.036C720.605 201.053 718.889 202.057 718.889 204.065C718.889 204.943 719.182 205.63 719.767 206.124C720.352 206.618 721.104 206.866 722.022 206.866ZM740.01 188.656V192.622H743.067V194.787H740.01V204.943C740.01 205.599 740.146 206.094 740.418 206.427C740.691 206.75 741.155 206.911 741.811 206.911C742.134 206.911 742.578 206.851 743.143 206.729V209C742.406 209.202 741.69 209.303 740.994 209.303C739.742 209.303 738.799 208.924 738.163 208.167C737.527 207.411 737.209 206.336 737.209 204.943V194.787H734.228V192.622H737.209V188.656H740.01ZM763.421 188.656V192.622H766.478V194.787H763.421V204.943C763.421 205.599 763.557 206.094 763.829 206.427C764.102 206.75 764.566 206.911 765.222 206.911C765.545 206.911 765.989 206.851 766.554 206.729V209C765.817 209.202 765.101 209.303 764.405 209.303C763.153 209.303 762.21 208.924 761.574 208.167C760.938 207.411 760.62 206.336 760.62 204.943V194.787H757.639V192.622H760.62V188.656H763.421ZM787.054 205.14L790.203 192.622H793.003L788.235 209H785.964L781.983 196.588L778.108 209H775.838L771.085 192.622H773.87L777.094 204.883L780.909 192.622H783.164L787.054 205.14ZM797.912 200.66C797.912 199.055 798.225 197.612 798.85 196.331C799.486 195.049 800.364 194.06 801.484 193.364C802.614 192.667 803.901 192.319 805.344 192.319C807.574 192.319 809.375 193.091 810.748 194.635C812.13 196.179 812.822 198.233 812.822 200.796V200.993C812.822 202.587 812.514 204.02 811.898 205.292C811.293 206.553 810.42 207.537 809.28 208.243C808.149 208.95 806.848 209.303 805.374 209.303C803.154 209.303 801.353 208.531 799.971 206.987C798.598 205.443 797.912 203.399 797.912 200.856V200.66ZM800.727 200.993C800.727 202.809 801.146 204.267 801.984 205.367C802.831 206.467 803.962 207.017 805.374 207.017C806.797 207.017 807.927 206.462 808.765 205.352C809.603 204.232 810.021 202.668 810.021 200.66C810.021 198.863 809.592 197.41 808.735 196.3C807.887 195.18 806.757 194.62 805.344 194.62C803.962 194.62 802.846 195.17 801.999 196.27C801.151 197.37 800.727 198.944 800.727 200.993ZM828.922 200.675C828.922 198.162 829.517 196.144 830.708 194.62C831.899 193.086 833.458 192.319 835.385 192.319C837.302 192.319 838.821 192.975 839.941 194.287V185.75H842.741V209H840.168L840.032 207.244C838.912 208.617 837.353 209.303 835.355 209.303C833.458 209.303 831.909 208.526 830.708 206.972C829.517 205.418 828.922 203.389 828.922 200.887V200.675ZM831.722 200.993C831.722 202.849 832.105 204.303 832.872 205.352C833.639 206.402 834.699 206.926 836.051 206.926C837.827 206.926 839.124 206.129 839.941 204.535V197.012C839.104 195.468 837.817 194.696 836.081 194.696C834.709 194.696 833.639 195.226 832.872 196.285C832.105 197.345 831.722 198.914 831.722 200.993ZM852.933 209H850.133V192.622H852.933V209ZM849.906 188.278C849.906 187.824 850.042 187.44 850.315 187.127C850.597 186.815 851.011 186.658 851.556 186.658C852.101 186.658 852.515 186.815 852.797 187.127C853.08 187.44 853.221 187.824 853.221 188.278C853.221 188.732 853.08 189.11 852.797 189.413C852.515 189.716 852.101 189.867 851.556 189.867C851.011 189.867 850.597 189.716 850.315 189.413C850.042 189.11 849.906 188.732 849.906 188.278ZM861.596 209V194.787H859.008V192.622H861.596V190.942C861.596 189.186 862.066 187.829 863.004 186.87C863.943 185.911 865.27 185.432 866.985 185.432C867.631 185.432 868.272 185.518 868.907 185.689L868.756 187.96C868.282 187.869 867.777 187.824 867.242 187.824C866.334 187.824 865.633 188.091 865.138 188.626C864.644 189.151 864.397 189.908 864.397 190.896V192.622H867.893V194.787H864.397V209H861.596ZM875.164 209V194.787H872.575V192.622H875.164V190.942C875.164 189.186 875.633 187.829 876.571 186.87C877.51 185.911 878.837 185.432 880.552 185.432C881.198 185.432 881.839 185.518 882.475 185.689L882.323 187.96C881.849 187.869 881.345 187.824 880.81 187.824C879.901 187.824 879.2 188.091 878.706 188.626C878.211 189.151 877.964 189.908 877.964 190.896V192.622H881.461V194.787H877.964V209H875.164ZM893.787 209.303C891.567 209.303 889.76 208.576 888.368 207.123C886.975 205.66 886.279 203.707 886.279 201.265V200.75C886.279 199.126 886.587 197.678 887.202 196.406C887.828 195.125 888.696 194.126 889.806 193.409C890.926 192.683 892.137 192.319 893.439 192.319C895.568 192.319 897.223 193.021 898.403 194.423C899.584 195.826 900.174 197.834 900.174 200.448V201.613H889.079C889.12 203.228 889.589 204.535 890.487 205.534C891.395 206.523 892.545 207.017 893.938 207.017C894.927 207.017 895.765 206.815 896.451 206.412C897.137 206.008 897.737 205.473 898.252 204.807L899.962 206.139C898.59 208.248 896.531 209.303 893.787 209.303ZM893.439 194.62C892.308 194.62 891.36 195.034 890.593 195.861C889.826 196.679 889.352 197.829 889.17 199.312H897.374V199.101C897.293 197.678 896.91 196.578 896.224 195.801C895.537 195.014 894.609 194.62 893.439 194.62ZM914.135 195.135C913.711 195.064 913.252 195.029 912.758 195.029C910.921 195.029 909.675 195.811 909.019 197.375V209H906.219V192.622H908.943L908.989 194.514C909.907 193.051 911.209 192.319 912.894 192.319C913.439 192.319 913.853 192.39 914.135 192.531V195.135ZM926.007 209.303C923.787 209.303 921.981 208.576 920.588 207.123C919.196 205.66 918.5 203.707 918.5 201.265V200.75C918.5 199.126 918.807 197.678 919.423 196.406C920.049 195.125 920.916 194.126 922.026 193.409C923.146 192.683 924.357 192.319 925.659 192.319C927.788 192.319 929.443 193.021 930.624 194.423C931.805 195.826 932.395 197.834 932.395 200.448V201.613H921.3C921.34 203.228 921.809 204.535 922.708 205.534C923.616 206.523 924.766 207.017 926.159 207.017C927.148 207.017 927.985 206.815 928.671 206.412C929.358 206.008 929.958 205.473 930.473 204.807L932.183 206.139C930.811 208.248 928.752 209.303 926.007 209.303ZM925.659 194.62C924.529 194.62 923.58 195.034 922.813 195.861C922.047 196.679 921.572 197.829 921.391 199.312H929.595V199.101C929.514 197.678 929.131 196.578 928.444 195.801C927.758 195.014 926.83 194.62 925.659 194.62ZM941.088 192.622L941.179 194.681C942.43 193.106 944.065 192.319 946.083 192.319C949.545 192.319 951.29 194.272 951.321 198.177V209H948.52V198.162C948.51 196.981 948.238 196.109 947.703 195.543C947.178 194.978 946.356 194.696 945.236 194.696C944.328 194.696 943.53 194.938 942.844 195.422C942.158 195.907 941.623 196.542 941.24 197.33V209H938.439V192.622H941.088ZM962.133 188.656V192.622H965.191V194.787H962.133V204.943C962.133 205.599 962.269 206.094 962.542 206.427C962.814 206.75 963.279 206.911 963.935 206.911C964.257 206.911 964.701 206.851 965.267 206.729V209C964.53 209.202 963.813 209.303 963.117 209.303C961.866 209.303 960.922 208.924 960.287 208.167C959.651 207.411 959.333 206.336 959.333 204.943V194.787H956.351V192.622H959.333V188.656H962.133ZM987.149 205.201L991.205 192.622H994.066L988.193 209H986.059L980.125 192.622H982.986L987.149 205.201ZM1009.42 209C1009.26 208.677 1009.13 208.102 1009.03 207.274C1007.72 208.627 1006.17 209.303 1004.36 209.303C1002.75 209.303 1001.42 208.849 1000.38 207.94C999.354 207.022 998.839 205.862 998.839 204.459C998.839 202.754 999.485 201.432 1000.78 200.493C1002.08 199.545 1003.9 199.07 1006.26 199.07H1008.98V197.784C1008.98 196.805 1008.69 196.028 1008.1 195.453C1007.52 194.867 1006.65 194.575 1005.51 194.575C1004.52 194.575 1003.68 194.827 1003 195.332C1002.33 195.836 1001.99 196.447 1001.99 197.163H999.172C999.172 196.346 999.46 195.559 1000.03 194.802C1000.62 194.035 1001.41 193.429 1002.4 192.985C1003.4 192.541 1004.49 192.319 1005.68 192.319C1007.57 192.319 1009.05 192.794 1010.12 193.742C1011.19 194.681 1011.74 195.977 1011.78 197.632V205.17C1011.78 206.674 1011.97 207.87 1012.36 208.758V209H1009.42ZM1004.77 206.866C1005.65 206.866 1006.48 206.639 1007.27 206.185C1008.06 205.73 1008.63 205.14 1008.98 204.414V201.053H1006.79C1003.35 201.053 1001.64 202.057 1001.64 204.065C1001.64 204.943 1001.93 205.63 1002.52 206.124C1003.1 206.618 1003.85 206.866 1004.77 206.866ZM1021.61 192.622L1021.7 194.681C1022.95 193.106 1024.59 192.319 1026.6 192.319C1030.07 192.319 1031.81 194.272 1031.84 198.177V209H1029.04V198.162C1029.03 196.981 1028.76 196.109 1028.22 195.543C1027.7 194.978 1026.88 194.696 1025.76 194.696C1024.85 194.696 1024.05 194.938 1023.37 195.422C1022.68 195.907 1022.14 196.542 1021.76 197.33V209H1018.96V192.622H1021.61ZM1041.9 209H1039.1V192.622H1041.9V209ZM1038.87 188.278C1038.87 187.824 1039.01 187.44 1039.28 187.127C1039.56 186.815 1039.98 186.658 1040.52 186.658C1041.07 186.658 1041.48 186.815 1041.76 187.127C1042.04 187.44 1042.19 187.824 1042.19 188.278C1042.19 188.732 1042.04 189.11 1041.76 189.413C1041.48 189.716 1041.07 189.867 1040.52 189.867C1039.98 189.867 1039.56 189.716 1039.28 189.413C1039.01 189.11 1038.87 188.732 1038.87 188.278ZM1058.72 204.656C1058.72 203.899 1058.43 203.314 1057.86 202.9C1057.29 202.476 1056.3 202.113 1054.87 201.81C1053.46 201.507 1052.34 201.144 1051.5 200.72C1050.67 200.296 1050.06 199.792 1049.65 199.207C1049.26 198.621 1049.06 197.925 1049.06 197.118C1049.06 195.776 1049.63 194.64 1050.76 193.712C1051.9 192.784 1053.35 192.319 1055.12 192.319C1056.97 192.319 1058.48 192.799 1059.63 193.757C1060.79 194.716 1061.37 195.942 1061.37 197.436H1058.55C1058.55 196.669 1058.22 196.008 1057.57 195.453C1056.92 194.898 1056.11 194.62 1055.12 194.62C1054.1 194.62 1053.3 194.842 1052.73 195.286C1052.15 195.73 1051.86 196.31 1051.86 197.027C1051.86 197.703 1052.13 198.213 1052.66 198.556C1053.2 198.899 1054.16 199.227 1055.56 199.54C1056.96 199.852 1058.09 200.226 1058.96 200.66C1059.83 201.094 1060.47 201.618 1060.88 202.234C1061.31 202.839 1061.52 203.581 1061.52 204.459C1061.52 205.922 1060.93 207.098 1059.76 207.986C1058.59 208.864 1057.07 209.303 1055.21 209.303C1053.9 209.303 1052.74 209.071 1051.73 208.606C1050.72 208.142 1049.92 207.496 1049.35 206.669C1048.78 205.831 1048.5 204.928 1048.5 203.959H1051.3C1051.35 204.898 1051.73 205.645 1052.42 206.2C1053.13 206.745 1054.06 207.017 1055.21 207.017C1056.27 207.017 1057.11 206.805 1057.75 206.381C1058.4 205.947 1058.72 205.372 1058.72 204.656ZM1070.76 194.605C1072 193.081 1073.61 192.319 1075.6 192.319C1079.06 192.319 1080.81 194.272 1080.84 198.177V209H1078.04V198.162C1078.03 196.981 1077.76 196.109 1077.22 195.543C1076.7 194.978 1075.87 194.696 1074.75 194.696C1073.85 194.696 1073.05 194.938 1072.36 195.422C1071.68 195.907 1071.14 196.542 1070.76 197.33V209H1067.96V185.75H1070.76V194.605ZM1090.86 209H1088.06V192.622H1090.86V209ZM1087.84 188.278C1087.84 187.824 1087.97 187.44 1088.25 187.127C1088.53 186.815 1088.94 186.658 1089.49 186.658C1090.03 186.658 1090.45 186.815 1090.73 187.127C1091.01 187.44 1091.15 187.824 1091.15 188.278C1091.15 188.732 1091.01 189.11 1090.73 189.413C1090.45 189.716 1090.03 189.867 1089.49 189.867C1088.94 189.867 1088.53 189.716 1088.25 189.413C1087.97 189.11 1087.84 188.732 1087.84 188.278ZM1100.8 192.622L1100.89 194.681C1102.14 193.106 1103.78 192.319 1105.79 192.319C1109.26 192.319 1111 194.272 1111.03 198.177V209H1108.23V198.162C1108.22 196.981 1107.95 196.109 1107.41 195.543C1106.89 194.978 1106.07 194.696 1104.95 194.696C1104.04 194.696 1103.24 194.938 1102.55 195.422C1101.87 195.907 1101.33 196.542 1100.95 197.33V209H1098.15V192.622H1100.8ZM1117.38 200.675C1117.38 198.122 1117.97 196.093 1119.15 194.59C1120.33 193.076 1121.89 192.319 1123.84 192.319C1125.84 192.319 1127.4 193.026 1128.52 194.438L1128.66 192.622H1131.21V208.606C1131.21 210.726 1130.58 212.396 1129.32 213.617C1128.07 214.838 1126.38 215.448 1124.27 215.448C1123.08 215.448 1121.93 215.196 1120.8 214.691C1119.67 214.187 1118.81 213.496 1118.21 212.618L1119.66 210.938C1120.86 212.421 1122.33 213.163 1124.07 213.163C1125.43 213.163 1126.49 212.779 1127.25 212.012C1128.01 211.245 1128.4 210.166 1128.4 208.773V207.365C1127.28 208.657 1125.75 209.303 1123.81 209.303C1121.89 209.303 1120.34 208.531 1119.15 206.987C1117.97 205.443 1117.38 203.339 1117.38 200.675ZM1120.19 200.993C1120.19 202.839 1120.57 204.292 1121.33 205.352C1122.09 206.402 1123.15 206.926 1124.51 206.926C1126.27 206.926 1127.57 206.124 1128.4 204.52V197.042C1127.54 195.478 1126.25 194.696 1124.54 194.696C1123.18 194.696 1122.11 195.226 1121.34 196.285C1120.58 197.345 1120.19 198.914 1120.19 200.993ZM1162.56 200.993C1162.56 203.485 1161.99 205.493 1160.85 207.017C1159.71 208.541 1158.16 209.303 1156.21 209.303C1154.23 209.303 1152.66 208.672 1151.52 207.411V215.297H1148.72V192.622H1151.28L1151.42 194.438C1152.56 193.026 1154.14 192.319 1156.17 192.319C1158.14 192.319 1159.69 193.061 1160.83 194.544C1161.98 196.028 1162.56 198.091 1162.56 200.735V200.993ZM1159.76 200.675C1159.76 198.828 1159.36 197.37 1158.58 196.3C1157.79 195.231 1156.71 194.696 1155.34 194.696C1153.64 194.696 1152.37 195.448 1151.52 196.951V204.777C1152.36 206.27 1153.64 207.017 1155.37 207.017C1156.71 207.017 1157.77 206.487 1158.56 205.428C1159.36 204.358 1159.76 202.774 1159.76 200.675ZM1168.18 200.66C1168.18 199.055 1168.49 197.612 1169.12 196.331C1169.75 195.049 1170.63 194.06 1171.75 193.364C1172.88 192.667 1174.17 192.319 1175.61 192.319C1177.84 192.319 1179.64 193.091 1181.01 194.635C1182.4 196.179 1183.09 198.233 1183.09 200.796V200.993C1183.09 202.587 1182.78 204.02 1182.16 205.292C1181.56 206.553 1180.68 207.537 1179.54 208.243C1178.41 208.95 1177.11 209.303 1175.64 209.303C1173.42 209.303 1171.62 208.531 1170.24 206.987C1168.86 205.443 1168.18 203.399 1168.18 200.856V200.66ZM1170.99 200.993C1170.99 202.809 1171.41 204.267 1172.25 205.367C1173.1 206.467 1174.23 207.017 1175.64 207.017C1177.06 207.017 1178.19 206.462 1179.03 205.352C1179.87 204.232 1180.29 202.668 1180.29 200.66C1180.29 198.863 1179.86 197.41 1179 196.3C1178.15 195.18 1177.02 194.62 1175.61 194.62C1174.23 194.62 1173.11 195.17 1172.26 196.27C1171.42 197.37 1170.99 198.944 1170.99 200.993ZM1192.43 209H1189.63V192.622H1192.43V209ZM1189.4 188.278C1189.4 187.824 1189.54 187.44 1189.81 187.127C1190.09 186.815 1190.51 186.658 1191.05 186.658C1191.6 186.658 1192.01 186.815 1192.29 187.127C1192.58 187.44 1192.72 187.824 1192.72 188.278C1192.72 188.732 1192.58 189.11 1192.29 189.413C1192.01 189.716 1191.6 189.867 1191.05 189.867C1190.51 189.867 1190.09 189.716 1189.81 189.413C1189.54 189.11 1189.4 188.732 1189.4 188.278ZM1202.37 192.622L1202.46 194.681C1203.71 193.106 1205.34 192.319 1207.36 192.319C1210.82 192.319 1212.57 194.272 1212.6 198.177V209H1209.8V198.162C1209.79 196.981 1209.51 196.109 1208.98 195.543C1208.46 194.978 1207.63 194.696 1206.51 194.696C1205.6 194.696 1204.81 194.938 1204.12 195.422C1203.43 195.907 1202.9 196.542 1202.52 197.33V209H1199.72V192.622H1202.37ZM1223.41 188.656V192.622H1226.47V194.787H1223.41V204.943C1223.41 205.599 1223.55 206.094 1223.82 206.427C1224.09 206.75 1224.56 206.911 1225.21 206.911C1225.53 206.911 1225.98 206.851 1226.54 206.729V209C1225.81 209.202 1225.09 209.303 1224.39 209.303C1223.14 209.303 1222.2 208.924 1221.56 208.167C1220.93 207.411 1220.61 206.336 1220.61 204.943V194.787H1217.63V192.622H1220.61V188.656H1223.41ZM1242.08 204.656C1242.08 203.899 1241.79 203.314 1241.22 202.9C1240.65 202.476 1239.66 202.113 1238.23 201.81C1236.82 201.507 1235.7 201.144 1234.86 200.72C1234.03 200.296 1233.42 199.792 1233.01 199.207C1232.62 198.621 1232.42 197.925 1232.42 197.118C1232.42 195.776 1232.99 194.64 1234.12 193.712C1235.26 192.784 1236.71 192.319 1238.48 192.319C1240.33 192.319 1241.84 192.799 1242.99 193.757C1244.15 194.716 1244.73 195.942 1244.73 197.436H1241.91C1241.91 196.669 1241.58 196.008 1240.93 195.453C1240.28 194.898 1239.46 194.62 1238.48 194.62C1237.46 194.62 1236.66 194.842 1236.08 195.286C1235.51 195.73 1235.22 196.31 1235.22 197.027C1235.22 197.703 1235.49 198.213 1236.02 198.556C1236.56 198.899 1237.52 199.227 1238.91 199.54C1240.32 199.852 1241.45 200.226 1242.32 200.66C1243.19 201.094 1243.83 201.618 1244.24 202.234C1244.67 202.839 1244.88 203.581 1244.88 204.459C1244.88 205.922 1244.29 207.098 1243.12 207.986C1241.95 208.864 1240.43 209.303 1238.57 209.303C1237.25 209.303 1236.09 209.071 1235.09 208.606C1234.08 208.142 1233.28 207.496 1232.71 206.669C1232.14 205.831 1231.86 204.928 1231.86 203.959H1234.66C1234.71 204.898 1235.09 205.645 1235.78 206.2C1236.49 206.745 1237.42 207.017 1238.57 207.017C1239.63 207.017 1240.47 206.805 1241.11 206.381C1241.76 205.947 1242.08 205.372 1242.08 204.656ZM1251.23 213.39L1249.64 212.3C1250.59 210.978 1251.08 209.616 1251.12 208.213V205.685H1253.86V207.88C1253.86 208.899 1253.61 209.918 1253.1 210.938C1252.61 211.957 1251.98 212.774 1251.23 213.39ZM144.438 261.675C144.438 259.162 145.033 257.144 146.224 255.62C147.415 254.086 148.974 253.319 150.901 253.319C152.819 253.319 154.337 253.975 155.458 255.287V246.75H158.258V270H155.685L155.548 268.244C154.428 269.617 152.869 270.303 150.871 270.303C148.974 270.303 147.425 269.526 146.224 267.972C145.033 266.418 144.438 264.389 144.438 261.887V261.675ZM147.238 261.993C147.238 263.849 147.622 265.303 148.389 266.352C149.156 267.402 150.215 267.926 151.567 267.926C153.343 267.926 154.64 267.129 155.458 265.535V258.012C154.62 256.468 153.333 255.696 151.598 255.696C150.225 255.696 149.156 256.226 148.389 257.285C147.622 258.345 147.238 259.914 147.238 261.993ZM172.204 270.303C169.984 270.303 168.177 269.576 166.785 268.123C165.392 266.66 164.696 264.707 164.696 262.265V261.75C164.696 260.126 165.004 258.678 165.619 257.406C166.245 256.125 167.113 255.126 168.223 254.409C169.343 253.683 170.554 253.319 171.855 253.319C173.985 253.319 175.64 254.021 176.82 255.423C178.001 256.826 178.591 258.834 178.591 261.448V262.613H167.496C167.536 264.228 168.006 265.535 168.904 266.534C169.812 267.523 170.962 268.017 172.355 268.017C173.344 268.017 174.181 267.815 174.868 267.412C175.554 267.008 176.154 266.473 176.669 265.807L178.379 267.139C177.007 269.248 174.948 270.303 172.204 270.303ZM171.855 255.62C170.725 255.62 169.777 256.034 169.01 256.861C168.243 257.679 167.769 258.829 167.587 260.312H175.791V260.101C175.71 258.678 175.327 257.578 174.641 256.801C173.954 256.014 173.026 255.62 171.855 255.62ZM198.471 261.993C198.471 264.485 197.9 266.493 196.76 268.017C195.62 269.541 194.076 270.303 192.128 270.303C190.14 270.303 188.576 269.672 187.436 268.411V276.297H184.636V253.622H187.194L187.33 255.438C188.47 254.026 190.055 253.319 192.083 253.319C194.051 253.319 195.605 254.061 196.745 255.544C197.895 257.028 198.471 259.091 198.471 261.735V261.993ZM195.67 261.675C195.67 259.828 195.277 258.37 194.49 257.3C193.703 256.231 192.623 255.696 191.25 255.696C189.555 255.696 188.284 256.448 187.436 257.951V265.777C188.274 267.27 189.555 268.017 191.281 268.017C192.623 268.017 193.687 267.487 194.475 266.428C195.272 265.358 195.67 263.774 195.67 261.675ZM211.629 270.303C209.409 270.303 207.603 269.576 206.21 268.123C204.818 266.66 204.121 264.707 204.121 262.265V261.75C204.121 260.126 204.429 258.678 205.045 257.406C205.67 256.125 206.538 255.126 207.648 254.409C208.768 253.683 209.979 253.319 211.281 253.319C213.41 253.319 215.065 254.021 216.246 255.423C217.427 256.826 218.017 258.834 218.017 261.448V262.613H206.922C206.962 264.228 207.431 265.535 208.329 266.534C209.238 267.523 210.388 268.017 211.781 268.017C212.77 268.017 213.607 267.815 214.293 267.412C214.98 267.008 215.58 266.473 216.095 265.807L217.805 267.139C216.433 269.248 214.374 270.303 211.629 270.303ZM211.281 255.62C210.151 255.62 209.202 256.034 208.435 256.861C207.669 257.679 207.194 258.829 207.013 260.312H215.217V260.101C215.136 258.678 214.752 257.578 214.066 256.801C213.38 256.014 212.452 255.62 211.281 255.62ZM226.71 253.622L226.801 255.681C228.052 254.106 229.687 253.319 231.705 253.319C235.167 253.319 236.912 255.272 236.943 259.177V270H234.142V259.162C234.132 257.981 233.86 257.109 233.325 256.543C232.8 255.978 231.978 255.696 230.858 255.696C229.95 255.696 229.152 255.938 228.466 256.422C227.78 256.907 227.245 257.542 226.862 258.33V270H224.061V253.622H226.71ZM243.275 261.675C243.275 259.162 243.87 257.144 245.061 255.62C246.252 254.086 247.811 253.319 249.738 253.319C251.655 253.319 253.174 253.975 254.294 255.287V246.75H257.095V270H254.521L254.385 268.244C253.265 269.617 251.706 270.303 249.708 270.303C247.811 270.303 246.262 269.526 245.061 267.972C243.87 266.418 243.275 264.389 243.275 261.887V261.675ZM246.075 261.993C246.075 263.849 246.458 265.303 247.225 266.352C247.992 267.402 249.052 267.926 250.404 267.926C252.18 267.926 253.477 267.129 254.294 265.535V258.012C253.457 256.468 252.17 255.696 250.434 255.696C249.062 255.696 247.992 256.226 247.225 257.285C246.458 258.345 246.075 259.914 246.075 261.993ZM267.286 270H264.486V253.622H267.286V270ZM264.259 249.278C264.259 248.824 264.395 248.44 264.668 248.127C264.95 247.815 265.364 247.658 265.909 247.658C266.454 247.658 266.868 247.815 267.15 248.127C267.433 248.44 267.574 248.824 267.574 249.278C267.574 249.732 267.433 250.11 267.15 250.413C266.868 250.716 266.454 250.867 265.909 250.867C265.364 250.867 264.95 250.716 264.668 250.413C264.395 250.11 264.259 249.732 264.259 249.278ZM277.221 253.622L277.312 255.681C278.563 254.106 280.198 253.319 282.216 253.319C285.677 253.319 287.423 255.272 287.453 259.177V270H284.653V259.162C284.643 257.981 284.37 257.109 283.836 256.543C283.311 255.978 282.488 255.696 281.368 255.696C280.46 255.696 279.663 255.938 278.977 256.422C278.291 256.907 277.756 257.542 277.372 258.33V270H274.572V253.622H277.221ZM293.8 261.675C293.8 259.122 294.391 257.093 295.571 255.59C296.752 254.076 298.316 253.319 300.264 253.319C302.262 253.319 303.821 254.026 304.941 255.438L305.077 253.622H307.635V269.606C307.635 271.726 307.005 273.396 305.743 274.617C304.492 275.838 302.807 276.448 300.688 276.448C299.507 276.448 298.352 276.196 297.221 275.691C296.091 275.187 295.228 274.496 294.633 273.618L296.086 271.938C297.287 273.421 298.755 274.163 300.491 274.163C301.853 274.163 302.913 273.779 303.67 273.012C304.437 272.245 304.82 271.166 304.82 269.773V268.365C303.7 269.657 302.171 270.303 300.234 270.303C298.316 270.303 296.762 269.531 295.571 267.987C294.391 266.443 293.8 264.339 293.8 261.675ZM296.616 261.993C296.616 263.839 296.994 265.292 297.751 266.352C298.508 267.402 299.568 267.926 300.93 267.926C302.696 267.926 303.993 267.124 304.82 265.52V258.042C303.962 256.478 302.676 255.696 300.96 255.696C299.598 255.696 298.533 256.226 297.766 257.285C296.999 258.345 296.616 259.914 296.616 261.993ZM324.401 261.66C324.401 260.055 324.714 258.612 325.34 257.331C325.976 256.049 326.854 255.06 327.974 254.364C329.104 253.667 330.391 253.319 331.834 253.319C334.064 253.319 335.865 254.091 337.237 255.635C338.62 257.179 339.311 259.233 339.311 261.796V261.993C339.311 263.587 339.003 265.02 338.388 266.292C337.782 267.553 336.909 268.537 335.769 269.243C334.639 269.95 333.337 270.303 331.864 270.303C329.644 270.303 327.843 269.531 326.46 267.987C325.088 266.443 324.401 264.399 324.401 261.856V261.66ZM327.217 261.993C327.217 263.809 327.636 265.267 328.473 266.367C329.321 267.467 330.451 268.017 331.864 268.017C333.287 268.017 334.417 267.462 335.254 266.352C336.092 265.232 336.511 263.668 336.511 261.66C336.511 259.863 336.082 258.41 335.224 257.3C334.377 256.18 333.246 255.62 331.834 255.62C330.451 255.62 329.336 256.17 328.488 257.27C327.641 258.37 327.217 259.944 327.217 261.993ZM348.262 253.622L348.353 255.681C349.604 254.106 351.239 253.319 353.257 253.319C356.718 253.319 358.464 255.272 358.494 259.177V270H355.694V259.162C355.684 257.981 355.411 257.109 354.877 256.543C354.352 255.978 353.529 255.696 352.409 255.696C351.501 255.696 350.704 255.938 350.018 256.422C349.331 256.907 348.797 257.542 348.413 258.33V270H345.613V253.622H348.262ZM379.786 249.656V253.622H382.844V255.787H379.786V265.943C379.786 266.599 379.922 267.094 380.195 267.427C380.467 267.75 380.931 267.911 381.587 267.911C381.91 267.911 382.354 267.851 382.919 267.729V270C382.183 270.202 381.466 270.303 380.77 270.303C379.519 270.303 378.575 269.924 377.939 269.167C377.304 268.411 376.986 267.336 376.986 265.943V255.787H374.004V253.622H376.986V249.656H379.786ZM391.719 255.605C392.96 254.081 394.574 253.319 396.562 253.319C400.024 253.319 401.769 255.272 401.8 259.177V270H398.999V259.162C398.989 257.981 398.717 257.109 398.182 256.543C397.657 255.978 396.835 255.696 395.715 255.696C394.807 255.696 394.009 255.938 393.323 256.422C392.637 256.907 392.102 257.542 391.719 258.33V270H388.918V246.75H391.719V255.605ZM415.579 270.303C413.359 270.303 411.553 269.576 410.16 268.123C408.767 266.66 408.071 264.707 408.071 262.265V261.75C408.071 260.126 408.379 258.678 408.995 257.406C409.62 256.125 410.488 255.126 411.598 254.409C412.718 253.683 413.929 253.319 415.231 253.319C417.36 253.319 419.015 254.021 420.196 255.423C421.376 256.826 421.967 258.834 421.967 261.448V262.613H410.871C410.912 264.228 411.381 265.535 412.279 266.534C413.187 267.523 414.338 268.017 415.73 268.017C416.719 268.017 417.557 267.815 418.243 267.412C418.929 267.008 419.53 266.473 420.044 265.807L421.755 267.139C420.382 269.248 418.324 270.303 415.579 270.303ZM415.231 255.62C414.101 255.62 413.152 256.034 412.385 256.861C411.618 257.679 411.144 258.829 410.962 260.312H419.166V260.101C419.086 258.678 418.702 257.578 418.016 256.801C417.33 256.014 416.401 255.62 415.231 255.62ZM437.809 261.675C437.809 259.162 438.405 257.144 439.596 255.62C440.786 254.086 442.345 253.319 444.273 253.319C446.19 253.319 447.709 253.975 448.829 255.287V246.75H451.629V270H449.056L448.92 268.244C447.8 269.617 446.241 270.303 444.242 270.303C442.345 270.303 440.796 269.526 439.596 267.972C438.405 266.418 437.809 264.389 437.809 261.887V261.675ZM440.61 261.993C440.61 263.849 440.993 265.303 441.76 266.352C442.527 267.402 443.587 267.926 444.939 267.926C446.715 267.926 448.012 267.129 448.829 265.535V258.012C447.991 256.468 446.705 255.696 444.969 255.696C443.597 255.696 442.527 256.226 441.76 257.285C440.993 258.345 440.61 259.914 440.61 261.993ZM461.821 270H459.021V253.622H461.821V270ZM458.794 249.278C458.794 248.824 458.93 248.44 459.202 248.127C459.485 247.815 459.899 247.658 460.444 247.658C460.989 247.658 461.402 247.815 461.685 248.127C461.967 248.44 462.109 248.824 462.109 249.278C462.109 249.732 461.967 250.11 461.685 250.413C461.402 250.716 460.989 250.867 460.444 250.867C459.899 250.867 459.485 250.716 459.202 250.413C458.93 250.11 458.794 249.732 458.794 249.278ZM477.023 256.135C476.599 256.064 476.14 256.029 475.646 256.029C473.809 256.029 472.563 256.811 471.907 258.375V270H469.107V253.622H471.831L471.877 255.514C472.795 254.051 474.097 253.319 475.782 253.319C476.327 253.319 476.741 253.39 477.023 253.531V256.135ZM488.895 270.303C486.675 270.303 484.869 269.576 483.476 268.123C482.084 266.66 481.387 264.707 481.387 262.265V261.75C481.387 260.126 481.695 258.678 482.311 257.406C482.936 256.125 483.804 255.126 484.914 254.409C486.034 253.683 487.245 253.319 488.547 253.319C490.676 253.319 492.331 254.021 493.512 255.423C494.693 256.826 495.283 258.834 495.283 261.448V262.613H484.188C484.228 264.228 484.697 265.535 485.595 266.534C486.504 267.523 487.654 268.017 489.047 268.017C490.036 268.017 490.873 267.815 491.559 267.412C492.245 267.008 492.846 266.473 493.361 265.807L495.071 267.139C493.699 269.248 491.64 270.303 488.895 270.303ZM488.547 255.62C487.417 255.62 486.468 256.034 485.701 256.861C484.934 257.679 484.46 258.829 484.279 260.312H492.483V260.101C492.402 258.678 492.018 257.578 491.332 256.801C490.646 256.014 489.718 255.62 488.547 255.62ZM507.897 268.017C508.896 268.017 509.769 267.714 510.515 267.109C511.262 266.503 511.676 265.747 511.757 264.838H514.405C514.355 265.777 514.032 266.67 513.437 267.518C512.841 268.365 512.044 269.041 511.045 269.546C510.056 270.05 509.007 270.303 507.897 270.303C505.666 270.303 503.89 269.561 502.569 268.078C501.257 266.584 500.601 264.546 500.601 261.962V261.493C500.601 259.899 500.893 258.481 501.479 257.24C502.064 255.999 502.902 255.035 503.991 254.349C505.091 253.662 506.388 253.319 507.882 253.319C509.718 253.319 511.242 253.869 512.453 254.969C513.674 256.069 514.325 257.497 514.405 259.253H511.757C511.676 258.193 511.272 257.326 510.546 256.649C509.829 255.963 508.941 255.62 507.882 255.62C506.459 255.62 505.354 256.135 504.567 257.164C503.79 258.183 503.401 259.662 503.401 261.599V262.129C503.401 264.016 503.79 265.469 504.567 266.488C505.344 267.507 506.454 268.017 507.897 268.017ZM524.143 249.656V253.622H527.201V255.787H524.143V265.943C524.143 266.599 524.279 267.094 524.552 267.427C524.824 267.75 525.289 267.911 525.944 267.911C526.267 267.911 526.711 267.851 527.276 267.729V270C526.54 270.202 525.823 270.303 525.127 270.303C523.876 270.303 522.932 269.924 522.297 269.167C521.661 268.411 521.343 267.336 521.343 265.943V255.787H518.361V253.622H521.343V249.656H524.143ZM536.318 270H533.518V253.622H536.318V270ZM533.291 249.278C533.291 248.824 533.427 248.44 533.699 248.127C533.982 247.815 534.396 247.658 534.941 247.658C535.485 247.658 535.899 247.815 536.182 248.127C536.464 248.44 536.606 248.824 536.606 249.278C536.606 249.732 536.464 250.11 536.182 250.413C535.899 250.716 535.485 250.867 534.941 250.867C534.396 250.867 533.982 250.716 533.699 250.413C533.427 250.11 533.291 249.732 533.291 249.278ZM542.862 261.66C542.862 260.055 543.175 258.612 543.8 257.331C544.436 256.049 545.314 255.06 546.434 254.364C547.564 253.667 548.851 253.319 550.294 253.319C552.524 253.319 554.325 254.091 555.698 255.635C557.08 257.179 557.772 259.233 557.772 261.796V261.993C557.772 263.587 557.464 265.02 556.848 266.292C556.243 267.553 555.37 268.537 554.23 269.243C553.099 269.95 551.798 270.303 550.324 270.303C548.104 270.303 546.303 269.531 544.92 267.987C543.548 266.443 542.862 264.399 542.862 261.856V261.66ZM545.677 261.993C545.677 263.809 546.096 265.267 546.934 266.367C547.781 267.467 548.911 268.017 550.324 268.017C551.747 268.017 552.877 267.462 553.715 266.352C554.552 265.232 554.971 263.668 554.971 261.66C554.971 259.863 554.542 258.41 553.685 257.3C552.837 256.18 551.707 255.62 550.294 255.62C548.911 255.62 547.796 256.17 546.949 257.27C546.101 258.37 545.677 259.944 545.677 261.993ZM566.722 253.622L566.813 255.681C568.064 254.106 569.699 253.319 571.717 253.319C575.179 253.319 576.924 255.272 576.955 259.177V270H574.154V259.162C574.144 257.981 573.872 257.109 573.337 256.543C572.812 255.978 571.99 255.696 570.87 255.696C569.961 255.696 569.164 255.938 568.478 256.422C567.792 256.907 567.257 257.542 566.874 258.33V270H564.073V253.622H566.722ZM584.028 268.532C584.028 268.047 584.17 267.644 584.452 267.321C584.745 266.998 585.179 266.836 585.754 266.836C586.329 266.836 586.763 266.998 587.056 267.321C587.358 267.644 587.51 268.047 587.51 268.532C587.51 268.996 587.358 269.384 587.056 269.697C586.763 270.01 586.329 270.167 585.754 270.167C585.179 270.167 584.745 270.01 584.452 269.697C584.17 269.384 584.028 268.996 584.028 268.532Z" fill="black"/>
<path id="draw-line rgb-template_14" d="M79.5 524L681.5 954L1285 523.5" stroke="#6685D4" stroke-width="8" stroke-linecap="round" stroke-linejoin="round"/>
</g>
</g>
</g>
</svg>
