<svg width="1366" height="1024" viewBox="0 0 1366 1024" fill="none" xmlns="http://www.w3.org/2000/svg">
<g id="2-point-perspective">
<g id="step s-multistep-brush">
<g id="input">
<g id="ref">
<path id="Vector 1" d="M6 451H1362" stroke="#6685D4" stroke-width="8"/>
<circle id="Ellipse 1" cx="86" cy="451" r="12" fill="#C4C4C4"/>
<circle id="Ellipse 2" cx="1291" cy="451" r="12" fill="#C4C4C4"/>
<circle id="Ellipse 3" cx="538" cy="944" r="12" fill="#C4C4C4"/>
</g>
<path id="draw-line d2 rgb-template" d="M380 505L380 622" stroke="#6685D4" stroke-width="8" stroke-linecap="round"/>
<path id="draw-line d1 rgb-template" d="M487 683.5L86.5 451" stroke="#6685D4" stroke-width="8" stroke-linecap="round"/>
<path id="draw-line rgb-template" d="M247 646.5L1290.5 451" stroke="#6685D4" stroke-width="8" stroke-linecap="round"/>
</g>
</g>
<g id="step s-multistep-brush_2">
<g id="input_2">
<g id="ref_2">
<path id="Vector 1_2" d="M6 451H1362" stroke="#6685D4" stroke-width="8"/>
<circle id="Ellipse 1_2" cx="86" cy="451" r="12" fill="#C4C4C4"/>
<circle id="Ellipse 2_2" cx="1291" cy="451" r="12" fill="#C4C4C4"/>
</g>
<path id="draw-line d1 rgb-template_2" d="M87 451L487 525.5" stroke="#6685D4" stroke-width="8" stroke-linecap="round"/>
<path id="draw-line rgb-template_2" d="M244 513.5L1291 451" stroke="#6685D4" stroke-width="8" stroke-linecap="round"/>
</g>
</g>
<g id="step s-multistep-brush_3">
<g id="input_3">
<g id="ref_3">
<path id="Vector 1_3" d="M6 451H1362" stroke="#6685D4" stroke-width="8"/>
<circle id="Ellipse 1_3" cx="86" cy="451" r="12" fill="#C4C4C4"/>
<circle id="Ellipse 2_3" cx="1291" cy="451" r="12" fill="#C4C4C4"/>
</g>
<path id="draw-line d1 rgb-template_3" d="M487 684L487 525" stroke="#6685D4" stroke-width="8" stroke-linecap="round"/>
<path id="draw-line rgb-template_3" d="M244 645L244 514" stroke="#6685D4" stroke-width="8" stroke-linecap="round"/>
</g>
</g>
<g id="step s-multistep-brush_4">
<g id="input_4">
<g id="ref_4">
<path id="Vector 1_4" d="M6 451H1362" stroke="#6685D4" stroke-width="8"/>
<circle id="Ellipse 1_4" cx="86" cy="451" r="12" fill="#C4C4C4"/>
<circle id="Ellipse 2_4" cx="1291" cy="451" r="12" fill="#C4C4C4"/>
</g>
<path id="draw-line d2 rgb-template_2" d="M316 542L87 451" stroke="#6685D4" stroke-width="8" stroke-linecap="round"/>
<path id="draw-line d1 rgb-template_4" d="M316 542L1290.5 451" stroke="#6685D4" stroke-width="8" stroke-linecap="round"/>
<path id="draw-line rgb-template_4" d="M316 734.5V541.5" stroke="#6685D4" stroke-width="8" stroke-linecap="round"/>
</g>
</g>
<g id="step s-multistep-first-brush">
<g id="input_5">
<g id="ref_5">
<path id="Vector 1_5" d="M6 451H1362" stroke="#6685D4" stroke-width="8"/>
<circle id="Ellipse 1_5" cx="86" cy="451" r="12" fill="#C4C4C4"/>
<circle id="Ellipse 2_5" cx="1291" cy="451" r="12" fill="#C4C4C4"/>
</g>
<circle id="Ellipse 4" cx="316" cy="734" r="12" fill="#C4C4C4"/>
<path id="draw-line d1 rgb-template_5" d="M315.5 733.5L1290.5 451" stroke="#6685D4" stroke-width="8" stroke-linecap="round"/>
<path id="draw-line rgb-template_5" d="M315 733.5L86 451" stroke="#6685D4" stroke-width="8" stroke-linecap="round"/>
</g>
</g>
<g id="step s-multistep-brush_5">
<g id="input_6">
<g id="ref_6">
<path id="Vector 1_6" d="M6 451H1362" stroke="#6685D4" stroke-width="8"/>
<circle id="Ellipse 1_6" cx="86" cy="451" r="12" fill="#C4C4C4"/>
<circle id="Ellipse 2_6" cx="1291" cy="451" r="12" fill="#C4C4C4"/>
</g>
<path id="draw-line rgb-template_6" d="M915 590V693" stroke="#6685D4" stroke-width="8" stroke-linecap="round"/>
</g>
</g>
<g id="step s-multistep-brush_6">
<g id="input_7">
<g id="ref_7">
<path id="Vector 1_7" d="M6 451H1362" stroke="#6685D4" stroke-width="8"/>
<circle id="Ellipse 1_7" cx="86" cy="451" r="12" fill="#C4C4C4"/>
<circle id="Ellipse 2_7" cx="1291" cy="451" r="12" fill="#C4C4C4"/>
</g>
<path id="draw-line d1 rgb-template_6" d="M777.5 782L1291 450.5" stroke="#6685D4" stroke-width="8" stroke-linecap="round"/>
<path id="draw-line rgb-template_7" d="M1042 730L921.19 694.743L86 451.5" stroke="#6685D4" stroke-width="8" stroke-linecap="round"/>
</g>
</g>
<g id="step s-multistep-brush_7">
<g id="input_8">
<g id="ref_8">
<path id="Vector 1_8" d="M6 451H1362" stroke="#6685D4" stroke-width="8"/>
<circle id="Ellipse 1_8" cx="86" cy="451" r="12" fill="#C4C4C4"/>
<circle id="Ellipse 2_8" cx="1291" cy="451" r="12" fill="#C4C4C4"/>
</g>
<path id="draw-line d1 rgb-template_7" d="M777 640.5L1291 450.5" stroke="#6685D4" stroke-width="8" stroke-linecap="round"/>
<path id="draw-line rgb-template_8" d="M1041 611L85.5 451.5" stroke="#6685D4" stroke-width="8" stroke-linecap="round"/>
</g>
</g>
<g id="step s-multistep-brush_8">
<g id="input_9">
<g id="ref_9">
<path id="Vector 1_9" d="M6 451H1362" stroke="#6685D4" stroke-width="8"/>
<circle id="Ellipse 1_9" cx="86" cy="451" r="12" fill="#C4C4C4"/>
<circle id="Ellipse 2_9" cx="1291" cy="451" r="12" fill="#C4C4C4"/>
</g>
<path id="draw-line d1 rgb-template_8" d="M1042 611L1042 730" stroke="#6685D4" stroke-width="8" stroke-linecap="round"/>
<path id="draw-line rgb-template_9" d="M777 640.5V782" stroke="#6685D4" stroke-width="8" stroke-linecap="round"/>
</g>
</g>
<g id="step s-multistep-brush_9">
<g id="input_10">
<g id="ref_10">
<path id="Vector 1_10" d="M6 451H1362" stroke="#6685D4" stroke-width="8"/>
<circle id="Ellipse 1_10" cx="86" cy="451" r="12" fill="#C4C4C4"/>
<circle id="Ellipse 2_10" cx="1291" cy="451" r="12" fill="#C4C4C4"/>
</g>
<path id="draw-line d2 rgb-template_3" d="M930 682L1291 450.5" stroke="#6685D4" stroke-width="8" stroke-linecap="round"/>
<path id="draw-line d1 rgb-template_9" d="M929.5 682L85.5 451.5" stroke="#6685D4" stroke-width="8" stroke-linecap="round"/>
<path id="draw-line rgb-template_10" d="M930 855L930 682" stroke="#6685D4" stroke-width="8" stroke-linecap="round"/>
</g>
</g>
<g id="step s-multistep-first-brush_2">
<g id="input_11">
<g id="ref_11">
<path id="Vector 1_11" d="M6 451H1362" stroke="#6685D4" stroke-width="8"/>
<circle id="Ellipse 1_11" cx="86" cy="451" r="12" fill="#C4C4C4"/>
<circle id="Ellipse 2_11" cx="1291" cy="451" r="12" fill="#C4C4C4"/>
</g>
<circle id="Ellipse 3_2" cx="930" cy="856" r="12" fill="#C4C4C4"/>
<path id="draw-line d1 rgb-template_10" d="M1290.5 451L930 855.5" stroke="#6685D4" stroke-width="8" stroke-linecap="round"/>
<path id="draw-line rgb-template_11" d="M930 855.5L85.5 451.5" stroke="#6685D4" stroke-width="8" stroke-linecap="round"/>
<path id="Vector 1_12" d="M6 451H1362" stroke="#6685D4" stroke-width="8"/>
<circle id="Ellipse 1_12" cx="86" cy="451" r="12" fill="#C4C4C4"/>
<circle id="Ellipse 2_12" cx="1291" cy="451" r="12" fill="#C4C4C4"/>
</g>
</g>
<g id="step s-multistep-brush_10">
<g id="input_12">
<g id="ref_12">
<path id="Vector 1_13" d="M6 451H1362" stroke="#6685D4" stroke-width="8"/>
<circle id="Ellipse 1_13" cx="86" cy="451" r="12" fill="#C4C4C4"/>
<circle id="Ellipse 2_13" cx="1291" cy="451" r="12" fill="#C4C4C4"/>
</g>
<path id="draw-line d1 rgb-template_11" d="M572 314.5L1291 451.5" stroke="#6685D4" stroke-width="8" stroke-linecap="round"/>
<path id="draw-line rgb-template_12" d="M817 314.5L86.5 451" stroke="#6685D4" stroke-width="8" stroke-linecap="round"/>
</g>
</g>
<g id="step s-multistep-brush_11">
<g id="input_13">
<g id="ref_13">
<path id="Vector 1_14" d="M6 451H1362" stroke="#6685D4" stroke-width="8"/>
<circle id="Ellipse 1_14" cx="86" cy="451" r="12" fill="#C4C4C4"/>
<circle id="Ellipse 2_14" cx="1291" cy="451" r="12" fill="#C4C4C4"/>
</g>
<path id="draw-line rgb-template_13" d="M572 189V314" stroke="#6685D4" stroke-width="8" stroke-linecap="round"/>
<path id="draw-line d1 rgb-template_12" d="M817 189V314" stroke="#6685D4" stroke-width="8" stroke-linecap="round"/>
</g>
</g>
<g id="step s-multistep-brush_12">
<g id="input_14">
<g id="ref_14">
<path id="Vector 1_15" d="M6 451H1362" stroke="#6685D4" stroke-width="8"/>
<circle id="Ellipse 1_15" cx="86" cy="451" r="12" fill="#C4C4C4"/>
<circle id="Ellipse 2_15" cx="1291" cy="451" r="12" fill="#C4C4C4"/>
</g>
<path id="draw-line d2 rgb-template_4" d="M696 122.5L1291.5 451" stroke="#6685D4" stroke-width="8" stroke-linecap="round"/>
<path id="draw-line d1 rgb-template_13" d="M696 122.5L86 451" stroke="#6685D4" stroke-width="8" stroke-linecap="round"/>
<path id="draw-line rgb-template_14" d="M696 280L696 122" stroke="#6685D4" stroke-width="8" stroke-linecap="round"/>
</g>
</g>
<g id="step s-multistep-brush_13">
<g id="input_15">
<g id="ref_15">
<path id="Vector 1_16" d="M6 451H1362" stroke="#6685D4" stroke-width="8"/>
<circle id="Ellipse 1_16" cx="86" cy="451" r="12" fill="#C4C4C4"/>
<circle id="Ellipse 2_16" cx="1291" cy="451" r="12" fill="#C4C4C4"/>
</g>
<circle id="Ellipse 5" cx="696" cy="280" r="12" fill="#C4C4C4"/>
<path id="draw-line d1 rgb-template_14" d="M696 279.5L86.5 451" stroke="#6685D4" stroke-width="8" stroke-linecap="round"/>
<path id="draw-line rgb-template_15" d="M696 279.5L1291 451" stroke="#6685D4" stroke-width="8" stroke-linecap="round"/>
<path id="If the object in front of us is expanded, then 2 vanishing points appear. In this case, all the lines converge at two different vanishing points, depending on the direction." d="M145.676 661H142.77V638.961H145.676V661ZM154.733 661V646.787H152.144V644.622H154.733V642.942C154.733 641.186 155.202 639.829 156.141 638.87C157.079 637.911 158.406 637.432 160.122 637.432C160.767 637.432 161.408 637.518 162.044 637.689L161.893 639.96C161.418 639.869 160.914 639.824 160.379 639.824C159.471 639.824 158.769 640.091 158.275 640.626C157.78 641.151 157.533 641.908 157.533 642.896V644.622H161.03V646.787H157.533V661H154.733ZM181.202 640.656V644.622H184.259V646.787H181.202V656.943C181.202 657.599 181.338 658.094 181.61 658.427C181.883 658.75 182.347 658.911 183.003 658.911C183.326 658.911 183.77 658.851 184.335 658.729V661C183.598 661.202 182.882 661.303 182.185 661.303C180.934 661.303 179.991 660.924 179.355 660.167C178.719 659.411 178.401 658.336 178.401 656.943V646.787H175.419V644.622H178.401V640.656H181.202ZM193.134 646.605C194.375 645.081 195.99 644.319 197.978 644.319C201.439 644.319 203.185 646.272 203.215 650.177V661H200.415V650.162C200.405 648.981 200.132 648.109 199.597 647.543C199.073 646.978 198.25 646.696 197.13 646.696C196.222 646.696 195.425 646.938 194.739 647.422C194.052 647.907 193.518 648.542 193.134 649.33V661H190.334V637.75H193.134V646.605ZM216.994 661.303C214.774 661.303 212.968 660.576 211.575 659.123C210.183 657.66 209.487 655.707 209.487 653.265V652.75C209.487 651.126 209.794 649.678 210.41 648.406C211.036 647.125 211.903 646.126 213.013 645.409C214.134 644.683 215.345 644.319 216.646 644.319C218.776 644.319 220.43 645.021 221.611 646.423C222.792 647.826 223.382 649.834 223.382 652.448V653.613H212.287C212.327 655.228 212.797 656.535 213.695 657.534C214.603 658.523 215.753 659.017 217.146 659.017C218.135 659.017 218.972 658.815 219.658 658.412C220.345 658.008 220.945 657.473 221.46 656.807L223.17 658.139C221.798 660.248 219.739 661.303 216.994 661.303ZM216.646 646.62C215.516 646.62 214.568 647.034 213.801 647.861C213.034 648.679 212.559 649.829 212.378 651.312H220.582V651.101C220.501 649.678 220.118 648.578 219.431 647.801C218.745 647.014 217.817 646.62 216.646 646.62ZM239.164 652.66C239.164 651.055 239.477 649.612 240.103 648.331C240.738 647.049 241.616 646.06 242.737 645.364C243.867 644.667 245.153 644.319 246.596 644.319C248.827 644.319 250.628 645.091 252 646.635C253.383 648.179 254.074 650.233 254.074 652.796V652.993C254.074 654.587 253.766 656.02 253.151 657.292C252.545 658.553 251.672 659.537 250.532 660.243C249.402 660.95 248.1 661.303 246.627 661.303C244.407 661.303 242.605 660.531 241.223 658.987C239.85 657.443 239.164 655.399 239.164 652.856V652.66ZM241.98 652.993C241.98 654.809 242.398 656.267 243.236 657.367C244.084 658.467 245.214 659.017 246.627 659.017C248.05 659.017 249.18 658.462 250.017 657.352C250.855 656.232 251.274 654.668 251.274 652.66C251.274 650.863 250.845 649.41 249.987 648.3C249.139 647.18 248.009 646.62 246.596 646.62C245.214 646.62 244.099 647.17 243.251 648.27C242.404 649.37 241.98 650.944 241.98 652.993ZM274.241 652.993C274.241 655.495 273.666 657.508 272.515 659.032C271.365 660.546 269.821 661.303 267.883 661.303C265.815 661.303 264.215 660.571 263.085 659.108L262.949 661H260.376V637.75H263.176V646.423C264.306 645.021 265.865 644.319 267.853 644.319C269.841 644.319 271.4 645.071 272.53 646.575C273.671 648.078 274.241 650.137 274.241 652.75V652.993ZM271.441 652.675C271.441 650.768 271.072 649.294 270.336 648.255C269.599 647.215 268.539 646.696 267.157 646.696C265.31 646.696 263.983 647.554 263.176 649.269V656.353C264.034 658.069 265.371 658.926 267.187 658.926C268.529 658.926 269.574 658.407 270.32 657.367C271.067 656.328 271.441 654.764 271.441 652.675ZM283.464 644.622V662.892C283.464 666.041 282.036 667.615 279.18 667.615C278.565 667.615 277.995 667.524 277.47 667.342V665.102C277.793 665.183 278.217 665.223 278.741 665.223C279.367 665.223 279.841 665.052 280.164 664.708C280.497 664.375 280.664 663.79 280.664 662.953V644.622H283.464ZM280.376 640.278C280.376 639.834 280.512 639.455 280.785 639.143C281.067 638.82 281.476 638.658 282.011 638.658C282.556 638.658 282.97 638.815 283.252 639.127C283.535 639.44 283.676 639.824 283.676 640.278C283.676 640.732 283.535 641.11 283.252 641.413C282.97 641.716 282.556 641.867 282.011 641.867C281.466 641.867 281.057 641.716 280.785 641.413C280.512 641.11 280.376 640.732 280.376 640.278ZM297.576 661.303C295.356 661.303 293.55 660.576 292.157 659.123C290.765 657.66 290.068 655.707 290.068 653.265V652.75C290.068 651.126 290.376 649.678 290.992 648.406C291.617 647.125 292.485 646.126 293.595 645.409C294.715 644.683 295.926 644.319 297.228 644.319C299.357 644.319 301.012 645.021 302.193 646.423C303.374 647.826 303.964 649.834 303.964 652.448V653.613H292.869C292.909 655.228 293.378 656.535 294.276 657.534C295.185 658.523 296.335 659.017 297.728 659.017C298.717 659.017 299.554 658.815 300.24 658.412C300.927 658.008 301.527 657.473 302.042 656.807L303.752 658.139C302.38 660.248 300.321 661.303 297.576 661.303ZM297.228 646.62C296.098 646.62 295.149 647.034 294.382 647.861C293.615 648.679 293.141 649.829 292.96 651.312H301.164V651.101C301.083 649.678 300.699 648.578 300.013 647.801C299.327 647.014 298.399 646.62 297.228 646.62ZM316.578 659.017C317.577 659.017 318.45 658.714 319.196 658.109C319.943 657.503 320.357 656.747 320.438 655.838H323.086C323.036 656.777 322.713 657.67 322.118 658.518C321.522 659.365 320.725 660.041 319.726 660.546C318.737 661.05 317.688 661.303 316.578 661.303C314.348 661.303 312.572 660.561 311.25 659.078C309.938 657.584 309.282 655.546 309.282 652.962V652.493C309.282 650.899 309.574 649.481 310.16 648.24C310.745 646.999 311.583 646.035 312.672 645.349C313.772 644.662 315.069 644.319 316.563 644.319C318.399 644.319 319.923 644.869 321.134 645.969C322.355 647.069 323.006 648.497 323.086 650.253H320.438C320.357 649.193 319.953 648.326 319.227 647.649C318.51 646.963 317.622 646.62 316.563 646.62C315.14 646.62 314.035 647.135 313.248 648.164C312.471 649.183 312.082 650.662 312.082 652.599V653.129C312.082 655.016 312.471 656.469 313.248 657.488C314.025 658.507 315.135 659.017 316.578 659.017ZM332.824 640.656V644.622H335.882V646.787H332.824V656.943C332.824 657.599 332.96 658.094 333.233 658.427C333.505 658.75 333.97 658.911 334.626 658.911C334.948 658.911 335.392 658.851 335.958 658.729V661C335.221 661.202 334.504 661.303 333.808 661.303C332.557 661.303 331.613 660.924 330.978 660.167C330.342 659.411 330.024 658.336 330.024 656.943V646.787H327.042V644.622H330.024V640.656H332.824ZM355.478 661H352.678V644.622H355.478V661ZM352.451 640.278C352.451 639.824 352.587 639.44 352.86 639.127C353.142 638.815 353.556 638.658 354.101 638.658C354.646 638.658 355.06 638.815 355.342 639.127C355.625 639.44 355.766 639.824 355.766 640.278C355.766 640.732 355.625 641.11 355.342 641.413C355.06 641.716 354.646 641.867 354.101 641.867C353.556 641.867 353.142 641.716 352.86 641.413C352.587 641.11 352.451 640.732 352.451 640.278ZM365.413 644.622L365.504 646.681C366.755 645.106 368.39 644.319 370.408 644.319C373.869 644.319 375.615 646.272 375.645 650.177V661H372.845V650.162C372.835 648.981 372.563 648.109 372.028 647.543C371.503 646.978 370.681 646.696 369.56 646.696C368.652 646.696 367.855 646.938 367.169 647.422C366.483 647.907 365.948 648.542 365.564 649.33V661H362.764V644.622H365.413ZM394.515 661V646.787H391.927V644.622H394.515V642.942C394.515 641.186 394.985 639.829 395.923 638.87C396.862 637.911 398.189 637.432 399.904 637.432C400.55 637.432 401.191 637.518 401.826 637.689L401.675 639.96C401.201 639.869 400.696 639.824 400.161 639.824C399.253 639.824 398.552 640.091 398.057 640.626C397.563 641.151 397.316 641.908 397.316 642.896V644.622H400.812V646.787H397.316V661H394.515ZM414.622 647.135C414.198 647.064 413.739 647.029 413.244 647.029C411.408 647.029 410.162 647.811 409.506 649.375V661H406.705V644.622H409.43L409.475 646.514C410.394 645.051 411.695 644.319 413.381 644.319C413.926 644.319 414.339 644.39 414.622 644.531V647.135ZM418.956 652.66C418.956 651.055 419.269 649.612 419.894 648.331C420.53 647.049 421.408 646.06 422.528 645.364C423.658 644.667 424.945 644.319 426.388 644.319C428.618 644.319 430.419 645.091 431.792 646.635C433.174 648.179 433.865 650.233 433.865 652.796V652.993C433.865 654.587 433.558 656.02 432.942 657.292C432.337 658.553 431.464 659.537 430.323 660.243C429.193 660.95 427.892 661.303 426.418 661.303C424.198 661.303 422.397 660.531 421.014 658.987C419.642 657.443 418.956 655.399 418.956 652.856V652.66ZM421.771 652.993C421.771 654.809 422.19 656.267 423.028 657.367C423.875 658.467 425.005 659.017 426.418 659.017C427.841 659.017 428.971 658.462 429.809 657.352C430.646 656.232 431.065 654.668 431.065 652.66C431.065 650.863 430.636 649.41 429.779 648.3C428.931 647.18 427.801 646.62 426.388 646.62C425.005 646.62 423.89 647.17 423.043 648.27C422.195 649.37 421.771 650.944 421.771 652.993ZM442.816 644.622L442.907 646.681C444.158 645.106 445.793 644.319 447.811 644.319C451.272 644.319 453.018 646.272 453.049 650.177V661H450.248V650.162C450.238 648.981 449.966 648.109 449.431 647.543C448.906 646.978 448.084 646.696 446.964 646.696C446.055 646.696 445.258 646.938 444.572 647.422C443.886 647.907 443.351 648.542 442.967 649.33V661H440.167V644.622H442.816ZM463.861 640.656V644.622H466.919V646.787H463.861V656.943C463.861 657.599 463.997 658.094 464.27 658.427C464.542 658.75 465.006 658.911 465.662 658.911C465.985 658.911 466.429 658.851 466.994 658.729V661C466.258 661.202 465.541 661.303 464.845 661.303C463.594 661.303 462.65 660.924 462.014 660.167C461.379 659.411 461.061 658.336 461.061 656.943V646.787H458.079V644.622H461.061V640.656H463.861ZM482.731 652.66C482.731 651.055 483.044 649.612 483.67 648.331C484.305 647.049 485.183 646.06 486.303 645.364C487.434 644.667 488.72 644.319 490.163 644.319C492.393 644.319 494.195 645.091 495.567 646.635C496.949 648.179 497.641 650.233 497.641 652.796V652.993C497.641 654.587 497.333 656.02 496.717 657.292C496.112 658.553 495.239 659.537 494.099 660.243C492.969 660.95 491.667 661.303 490.193 661.303C487.973 661.303 486.172 660.531 484.79 658.987C483.417 657.443 482.731 655.399 482.731 652.856V652.66ZM485.546 652.993C485.546 654.809 485.965 656.267 486.803 657.367C487.65 658.467 488.781 659.017 490.193 659.017C491.616 659.017 492.747 658.462 493.584 657.352C494.422 656.232 494.84 654.668 494.84 652.66C494.84 650.863 494.412 649.41 493.554 648.3C492.706 647.18 491.576 646.62 490.163 646.62C488.781 646.62 487.666 647.17 486.818 648.27C485.97 649.37 485.546 650.944 485.546 652.993ZM505.32 661V646.787H502.731V644.622H505.32V642.942C505.32 641.186 505.789 639.829 506.728 638.87C507.666 637.911 508.993 637.432 510.709 637.432C511.354 637.432 511.995 637.518 512.631 637.689L512.48 639.96C512.005 639.869 511.501 639.824 510.966 639.824C510.058 639.824 509.356 640.091 508.862 640.626C508.367 641.151 508.12 641.908 508.12 642.896V644.622H511.617V646.787H508.12V661H505.32ZM538.101 659.38C537.011 660.662 535.411 661.303 533.302 661.303C531.556 661.303 530.224 660.798 529.306 659.789C528.398 658.77 527.939 657.266 527.929 655.278V644.622H530.729V655.203C530.729 657.685 531.738 658.926 533.756 658.926C535.896 658.926 537.318 658.129 538.025 656.535V644.622H540.825V661H538.161L538.101 659.38ZM557.42 656.656C557.42 655.899 557.132 655.314 556.557 654.9C555.992 654.476 554.998 654.113 553.575 653.81C552.162 653.507 551.037 653.144 550.2 652.72C549.372 652.296 548.757 651.792 548.353 651.207C547.959 650.621 547.763 649.925 547.763 649.118C547.763 647.776 548.328 646.64 549.458 645.712C550.598 644.784 552.051 644.319 553.817 644.319C555.674 644.319 557.178 644.799 558.328 645.757C559.489 646.716 560.069 647.942 560.069 649.436H557.253C557.253 648.669 556.925 648.008 556.269 647.453C555.624 646.898 554.806 646.62 553.817 646.62C552.798 646.62 552.001 646.842 551.426 647.286C550.85 647.73 550.563 648.31 550.563 649.027C550.563 649.703 550.83 650.213 551.365 650.556C551.9 650.899 552.864 651.227 554.256 651.54C555.659 651.852 556.794 652.226 557.662 652.66C558.53 653.094 559.171 653.618 559.584 654.234C560.008 654.839 560.22 655.581 560.22 656.459C560.22 657.922 559.635 659.098 558.464 659.986C557.294 660.864 555.775 661.303 553.908 661.303C552.596 661.303 551.436 661.071 550.427 660.606C549.418 660.142 548.625 659.496 548.05 658.669C547.485 657.831 547.203 656.928 547.203 655.959H550.003C550.053 656.898 550.427 657.645 551.123 658.2C551.829 658.745 552.758 659.017 553.908 659.017C554.968 659.017 555.815 658.805 556.451 658.381C557.097 657.947 557.42 657.372 557.42 656.656ZM580.18 661H577.38V644.622H580.18V661ZM577.153 640.278C577.153 639.824 577.289 639.44 577.561 639.127C577.844 638.815 578.258 638.658 578.803 638.658C579.348 638.658 579.761 638.815 580.044 639.127C580.326 639.44 580.468 639.824 580.468 640.278C580.468 640.732 580.326 641.11 580.044 641.413C579.761 641.716 579.348 641.867 578.803 641.867C578.258 641.867 577.844 641.716 577.561 641.413C577.289 641.11 577.153 640.732 577.153 640.278ZM597.002 656.656C597.002 655.899 596.714 655.314 596.139 654.9C595.574 654.476 594.58 654.113 593.157 653.81C591.744 653.507 590.619 653.144 589.782 652.72C588.954 652.296 588.339 651.792 587.935 651.207C587.541 650.621 587.345 649.925 587.345 649.118C587.345 647.776 587.91 646.64 589.04 645.712C590.18 644.784 591.633 644.319 593.399 644.319C595.256 644.319 596.76 644.799 597.91 645.757C599.07 646.716 599.651 647.942 599.651 649.436H596.835C596.835 648.669 596.507 648.008 595.851 647.453C595.206 646.898 594.388 646.62 593.399 646.62C592.38 646.62 591.583 646.842 591.008 647.286C590.432 647.73 590.145 648.31 590.145 649.027C590.145 649.703 590.412 650.213 590.947 650.556C591.482 650.899 592.446 651.227 593.838 651.54C595.241 651.852 596.376 652.226 597.244 652.66C598.112 653.094 598.753 653.618 599.166 654.234C599.59 654.839 599.802 655.581 599.802 656.459C599.802 657.922 599.217 659.098 598.046 659.986C596.876 660.864 595.357 661.303 593.49 661.303C592.178 661.303 591.018 661.071 590.009 660.606C588.999 660.142 588.207 659.496 587.632 658.669C587.067 657.831 586.784 656.928 586.784 655.959H589.585C589.635 656.898 590.009 657.645 590.705 658.2C591.411 658.745 592.34 659.017 593.49 659.017C594.55 659.017 595.397 658.805 596.033 658.381C596.679 657.947 597.002 657.372 597.002 656.656ZM623.516 661.303C621.296 661.303 619.489 660.576 618.097 659.123C616.704 657.66 616.008 655.707 616.008 653.265V652.75C616.008 651.126 616.316 649.678 616.931 648.406C617.557 647.125 618.425 646.126 619.535 645.409C620.655 644.683 621.866 644.319 623.168 644.319C625.297 644.319 626.952 645.021 628.133 646.423C629.313 647.826 629.904 649.834 629.904 652.448V653.613H618.808C618.849 655.228 619.318 656.535 620.216 657.534C621.124 658.523 622.275 659.017 623.667 659.017C624.656 659.017 625.494 658.815 626.18 658.412C626.866 658.008 627.467 657.473 627.981 656.807L629.692 658.139C628.319 660.248 626.261 661.303 623.516 661.303ZM623.168 646.62C622.037 646.62 621.089 647.034 620.322 647.861C619.555 648.679 619.081 649.829 618.899 651.312H627.103V651.101C627.023 649.678 626.639 648.578 625.953 647.801C625.267 647.014 624.338 646.62 623.168 646.62ZM641.443 650.601L645.075 644.622H648.345L642.987 652.72L648.511 661H645.272L641.488 654.87L637.704 661H634.449L639.974 652.72L634.616 644.622H637.855L641.443 650.601ZM667.952 652.993C667.952 655.485 667.382 657.493 666.241 659.017C665.101 660.541 663.557 661.303 661.609 661.303C659.622 661.303 658.057 660.672 656.917 659.411V667.297H654.117V644.622H656.675L656.811 646.438C657.951 645.026 659.536 644.319 661.564 644.319C663.532 644.319 665.086 645.061 666.226 646.544C667.377 648.028 667.952 650.091 667.952 652.735V652.993ZM665.151 652.675C665.151 650.828 664.758 649.37 663.971 648.3C663.184 647.231 662.104 646.696 660.732 646.696C659.036 646.696 657.765 647.448 656.917 648.951V656.777C657.755 658.27 659.036 659.017 660.762 659.017C662.104 659.017 663.169 658.487 663.956 657.428C664.753 656.358 665.151 654.774 665.151 652.675ZM684.425 661C684.264 660.677 684.133 660.102 684.032 659.274C682.73 660.627 681.176 661.303 679.37 661.303C677.755 661.303 676.428 660.849 675.389 659.94C674.359 659.022 673.845 657.862 673.845 656.459C673.845 654.754 674.491 653.432 675.782 652.493C677.084 651.545 678.911 651.07 681.262 651.07H683.986V649.784C683.986 648.805 683.694 648.028 683.109 647.453C682.523 646.867 681.66 646.575 680.52 646.575C679.521 646.575 678.684 646.827 678.007 647.332C677.331 647.836 676.993 648.447 676.993 649.163H674.178C674.178 648.346 674.465 647.559 675.041 646.802C675.626 646.035 676.413 645.429 677.402 644.985C678.401 644.541 679.496 644.319 680.687 644.319C682.574 644.319 684.052 644.794 685.122 645.742C686.191 646.681 686.746 647.977 686.787 649.632V657.17C686.787 658.674 686.978 659.87 687.362 660.758V661H684.425ZM679.778 658.866C680.656 658.866 681.489 658.639 682.276 658.185C683.063 657.73 683.633 657.14 683.986 656.414V653.053H681.792C678.361 653.053 676.645 654.057 676.645 656.065C676.645 656.943 676.938 657.63 677.523 658.124C678.108 658.618 678.86 658.866 679.778 658.866ZM696.615 644.622L696.706 646.681C697.957 645.106 699.592 644.319 701.61 644.319C705.072 644.319 706.817 646.272 706.848 650.177V661H704.047V650.162C704.037 648.981 703.765 648.109 703.23 647.543C702.705 646.978 701.883 646.696 700.763 646.696C699.855 646.696 699.057 646.938 698.371 647.422C697.685 647.907 697.15 648.542 696.767 649.33V661H693.966V644.622H696.615ZM713.18 652.675C713.18 650.162 713.775 648.144 714.966 646.62C716.157 645.086 717.716 644.319 719.643 644.319C721.56 644.319 723.079 644.975 724.199 646.287V637.75H727V661H724.426L724.29 659.244C723.17 660.617 721.611 661.303 719.613 661.303C717.716 661.303 716.167 660.526 714.966 658.972C713.775 657.418 713.18 655.389 713.18 652.887V652.675ZM715.98 652.993C715.98 654.849 716.363 656.303 717.13 657.352C717.897 658.402 718.957 658.926 720.309 658.926C722.085 658.926 723.382 658.129 724.199 656.535V649.012C723.362 647.468 722.075 646.696 720.339 646.696C718.967 646.696 717.897 647.226 717.13 648.285C716.363 649.345 715.98 650.914 715.98 652.993ZM740.945 661.303C738.725 661.303 736.919 660.576 735.526 659.123C734.134 657.66 733.438 655.707 733.438 653.265V652.75C733.438 651.126 733.745 649.678 734.361 648.406C734.986 647.125 735.854 646.126 736.964 645.409C738.084 644.683 739.295 644.319 740.597 644.319C742.726 644.319 744.381 645.021 745.562 646.423C746.743 647.826 747.333 649.834 747.333 652.448V653.613H736.238C736.278 655.228 736.747 656.535 737.646 657.534C738.554 658.523 739.704 659.017 741.097 659.017C742.086 659.017 742.923 658.815 743.609 658.412C744.296 658.008 744.896 657.473 745.411 656.807L747.121 658.139C745.749 660.248 743.69 661.303 740.945 661.303ZM740.597 646.62C739.467 646.62 738.518 647.034 737.751 647.861C736.985 648.679 736.51 649.829 736.329 651.312H744.533V651.101C744.452 649.678 744.069 648.578 743.382 647.801C742.696 647.014 741.768 646.62 740.597 646.62ZM752.696 652.675C752.696 650.162 753.292 648.144 754.482 646.62C755.673 645.086 757.232 644.319 759.16 644.319C761.077 644.319 762.596 644.975 763.716 646.287V637.75H766.516V661H763.943L763.807 659.244C762.686 660.617 761.127 661.303 759.129 661.303C757.232 661.303 755.683 660.526 754.482 658.972C753.292 657.418 752.696 655.389 752.696 652.887V652.675ZM755.497 652.993C755.497 654.849 755.88 656.303 756.647 657.352C757.414 658.402 758.473 658.926 759.826 658.926C761.602 658.926 762.898 658.129 763.716 656.535V649.012C762.878 647.468 761.592 646.696 759.856 646.696C758.484 646.696 757.414 647.226 756.647 648.285C755.88 649.345 755.497 650.914 755.497 652.993ZM773.575 665.39L771.985 664.3C772.934 662.978 773.428 661.616 773.469 660.213V657.685H776.208V659.88C776.208 660.899 775.956 661.918 775.452 662.938C774.957 663.957 774.331 664.774 773.575 665.39ZM796.819 640.656V644.622H799.877V646.787H796.819V656.943C796.819 657.599 796.955 658.094 797.228 658.427C797.5 658.75 797.964 658.911 798.62 658.911C798.943 658.911 799.387 658.851 799.952 658.729V661C799.216 661.202 798.499 661.303 797.803 661.303C796.552 661.303 795.608 660.924 794.972 660.167C794.337 659.411 794.019 658.336 794.019 656.943V646.787H791.037V644.622H794.019V640.656H796.819ZM808.752 646.605C809.993 645.081 811.608 644.319 813.595 644.319C817.057 644.319 818.802 646.272 818.833 650.177V661H816.032V650.162C816.022 648.981 815.75 648.109 815.215 647.543C814.69 646.978 813.868 646.696 812.748 646.696C811.84 646.696 811.042 646.938 810.356 647.422C809.67 647.907 809.135 648.542 808.752 649.33V661H805.951V637.75H808.752V646.605ZM832.612 661.303C830.392 661.303 828.586 660.576 827.193 659.123C825.801 657.66 825.104 655.707 825.104 653.265V652.75C825.104 651.126 825.412 649.678 826.028 648.406C826.653 647.125 827.521 646.126 828.631 645.409C829.751 644.683 830.962 644.319 832.264 644.319C834.393 644.319 836.048 645.021 837.229 646.423C838.409 647.826 839 649.834 839 652.448V653.613H827.905C827.945 655.228 828.414 656.535 829.312 657.534C830.22 658.523 831.371 659.017 832.763 659.017C833.752 659.017 834.59 658.815 835.276 658.412C835.962 658.008 836.563 657.473 837.077 656.807L838.788 658.139C837.415 660.248 835.357 661.303 832.612 661.303ZM832.264 646.62C831.134 646.62 830.185 647.034 829.418 647.861C828.651 648.679 828.177 649.829 827.995 651.312H836.199V651.101C836.119 649.678 835.735 648.578 835.049 647.801C834.363 647.014 833.434 646.62 832.264 646.62ZM847.693 644.622L847.784 646.681C849.035 645.106 850.67 644.319 852.688 644.319C856.149 644.319 857.895 646.272 857.925 650.177V661H855.125V650.162C855.115 648.981 854.843 648.109 854.308 647.543C853.783 646.978 852.961 646.696 851.841 646.696C850.932 646.696 850.135 646.938 849.449 647.422C848.763 647.907 848.228 648.542 847.844 649.33V661H845.044V644.622H847.693ZM889.571 661H875.13V658.987L882.759 650.51C883.89 649.229 884.667 648.189 885.09 647.392C885.524 646.585 885.741 645.752 885.741 644.895C885.741 643.744 885.393 642.801 884.697 642.064C884.001 641.327 883.072 640.959 881.912 640.959C880.519 640.959 879.434 641.358 878.657 642.155C877.89 642.942 877.507 644.042 877.507 645.455H874.707C874.707 643.426 875.358 641.786 876.659 640.535C877.971 639.284 879.722 638.658 881.912 638.658C883.96 638.658 885.58 639.198 886.771 640.278C887.961 641.347 888.557 642.775 888.557 644.562C888.557 646.731 887.174 649.314 884.409 652.312L878.506 658.714H889.571V661ZM911.499 657.201L915.555 644.622H918.416L912.543 661H910.409L904.475 644.622H907.336L911.499 657.201ZM933.77 661C933.608 660.677 933.477 660.102 933.376 659.274C932.074 660.627 930.52 661.303 928.714 661.303C927.099 661.303 925.772 660.849 924.733 659.94C923.704 659.022 923.189 657.862 923.189 656.459C923.189 654.754 923.835 653.432 925.126 652.493C926.428 651.545 928.255 651.07 930.606 651.07H933.331V649.784C933.331 648.805 933.038 648.028 932.453 647.453C931.867 646.867 931.005 646.575 929.864 646.575C928.865 646.575 928.028 646.827 927.352 647.332C926.675 647.836 926.337 648.447 926.337 649.163H923.522C923.522 648.346 923.81 647.559 924.385 646.802C924.97 646.035 925.757 645.429 926.746 644.985C927.745 644.541 928.84 644.319 930.031 644.319C931.918 644.319 933.396 644.794 934.466 645.742C935.535 646.681 936.09 647.977 936.131 649.632V657.17C936.131 658.674 936.323 659.87 936.706 660.758V661H933.77ZM929.123 658.866C930 658.866 930.833 658.639 931.62 658.185C932.407 657.73 932.977 657.14 933.331 656.414V653.053H931.136C927.705 653.053 925.989 654.057 925.989 656.065C925.989 656.943 926.282 657.63 926.867 658.124C927.452 658.618 928.204 658.866 929.123 658.866ZM945.959 644.622L946.05 646.681C947.302 645.106 948.936 644.319 950.955 644.319C954.416 644.319 956.162 646.272 956.192 650.177V661H953.392V650.162C953.381 648.981 953.109 648.109 952.574 647.543C952.049 646.978 951.227 646.696 950.107 646.696C949.199 646.696 948.401 646.938 947.715 647.422C947.029 647.907 946.494 648.542 946.111 649.33V661H943.31V644.622H945.959ZM966.247 661H963.447V644.622H966.247V661ZM963.22 640.278C963.22 639.824 963.356 639.44 963.629 639.127C963.911 638.815 964.325 638.658 964.87 638.658C965.415 638.658 965.829 638.815 966.111 639.127C966.394 639.44 966.535 639.824 966.535 640.278C966.535 640.732 966.394 641.11 966.111 641.413C965.829 641.716 965.415 641.867 964.87 641.867C964.325 641.867 963.911 641.716 963.629 641.413C963.356 641.11 963.22 640.732 963.22 640.278ZM983.069 656.656C983.069 655.899 982.782 655.314 982.206 654.9C981.641 654.476 980.647 654.113 979.224 653.81C977.812 653.507 976.687 653.144 975.849 652.72C975.022 652.296 974.406 651.792 974.002 651.207C973.609 650.621 973.412 649.925 973.412 649.118C973.412 647.776 973.977 646.64 975.107 645.712C976.248 644.784 977.701 644.319 979.467 644.319C981.323 644.319 982.827 644.799 983.977 645.757C985.138 646.716 985.718 647.942 985.718 649.436H982.903C982.903 648.669 982.575 648.008 981.919 647.453C981.273 646.898 980.456 646.62 979.467 646.62C978.447 646.62 977.65 646.842 977.075 647.286C976.5 647.73 976.212 648.31 976.212 649.027C976.212 649.703 976.48 650.213 977.015 650.556C977.549 650.899 978.513 651.227 979.906 651.54C981.308 651.852 982.444 652.226 983.311 652.66C984.179 653.094 984.82 653.618 985.234 654.234C985.658 654.839 985.87 655.581 985.87 656.459C985.87 657.922 985.284 659.098 984.114 659.986C982.943 660.864 981.424 661.303 979.557 661.303C978.246 661.303 977.085 661.071 976.076 660.606C975.067 660.142 974.275 659.496 973.7 658.669C973.134 657.831 972.852 656.928 972.852 655.959H975.652C975.703 656.898 976.076 657.645 976.772 658.2C977.479 658.745 978.407 659.017 979.557 659.017C980.617 659.017 981.465 658.805 982.1 658.381C982.746 657.947 983.069 657.372 983.069 656.656ZM995.108 646.605C996.349 645.081 997.964 644.319 999.951 644.319C1003.41 644.319 1005.16 646.272 1005.19 650.177V661H1002.39V650.162C1002.38 648.981 1002.11 648.109 1001.57 647.543C1001.05 646.978 1000.22 646.696 999.104 646.696C998.196 646.696 997.398 646.938 996.712 647.422C996.026 647.907 995.491 648.542 995.108 649.33V661H992.307V637.75H995.108V646.605ZM1015.21 661H1012.41V644.622H1015.21V661ZM1012.19 640.278C1012.19 639.824 1012.32 639.44 1012.6 639.127C1012.88 638.815 1013.29 638.658 1013.84 638.658C1014.38 638.658 1014.8 638.815 1015.08 639.127C1015.36 639.44 1015.5 639.824 1015.5 640.278C1015.5 640.732 1015.36 641.11 1015.08 641.413C1014.8 641.716 1014.38 641.867 1013.84 641.867C1013.29 641.867 1012.88 641.716 1012.6 641.413C1012.32 641.11 1012.19 640.732 1012.19 640.278ZM1025.15 644.622L1025.24 646.681C1026.49 645.106 1028.13 644.319 1030.14 644.319C1033.61 644.319 1035.35 646.272 1035.38 650.177V661H1032.58V650.162C1032.57 648.981 1032.3 648.109 1031.76 647.543C1031.24 646.978 1030.42 646.696 1029.3 646.696C1028.39 646.696 1027.59 646.938 1026.9 647.422C1026.22 647.907 1025.68 648.542 1025.3 649.33V661H1022.5V644.622H1025.15ZM1041.73 652.675C1041.73 650.122 1042.32 648.093 1043.5 646.59C1044.68 645.076 1046.24 644.319 1048.19 644.319C1050.19 644.319 1051.75 645.026 1052.87 646.438L1053.01 644.622H1055.56V660.606C1055.56 662.726 1054.93 664.396 1053.67 665.617C1052.42 666.838 1050.73 667.448 1048.62 667.448C1047.43 667.448 1046.28 667.196 1045.15 666.691C1044.02 666.187 1043.16 665.496 1042.56 664.618L1044.01 662.938C1045.21 664.421 1046.68 665.163 1048.42 665.163C1049.78 665.163 1050.84 664.779 1051.6 664.012C1052.36 663.245 1052.75 662.166 1052.75 660.773V659.365C1051.63 660.657 1050.1 661.303 1048.16 661.303C1046.24 661.303 1044.69 660.531 1043.5 658.987C1042.32 657.443 1041.73 655.339 1041.73 652.675ZM1044.54 652.993C1044.54 654.839 1044.92 656.292 1045.68 657.352C1046.44 658.402 1047.5 658.926 1048.86 658.926C1050.62 658.926 1051.92 658.124 1052.75 656.52V649.042C1051.89 647.478 1050.6 646.696 1048.89 646.696C1047.53 646.696 1046.46 647.226 1045.69 648.285C1044.93 649.345 1044.54 650.914 1044.54 652.993ZM1086.91 652.993C1086.91 655.485 1086.34 657.493 1085.2 659.017C1084.06 660.541 1082.51 661.303 1080.56 661.303C1078.58 661.303 1077.01 660.672 1075.87 659.411V667.297H1073.07V644.622H1075.63L1075.77 646.438C1076.91 645.026 1078.49 644.319 1080.52 644.319C1082.49 644.319 1084.04 645.061 1085.18 646.544C1086.33 648.028 1086.91 650.091 1086.91 652.735V652.993ZM1084.11 652.675C1084.11 650.828 1083.71 649.37 1082.92 648.3C1082.14 647.231 1081.06 646.696 1079.69 646.696C1077.99 646.696 1076.72 647.448 1075.87 648.951V656.777C1076.71 658.27 1077.99 659.017 1079.72 659.017C1081.06 659.017 1082.12 658.487 1082.91 657.428C1083.71 656.358 1084.11 654.774 1084.11 652.675ZM1092.53 652.66C1092.53 651.055 1092.84 649.612 1093.46 648.331C1094.1 647.049 1094.98 646.06 1096.1 645.364C1097.23 644.667 1098.52 644.319 1099.96 644.319C1102.19 644.319 1103.99 645.091 1105.36 646.635C1106.74 648.179 1107.44 650.233 1107.44 652.796V652.993C1107.44 654.587 1107.13 656.02 1106.51 657.292C1105.91 658.553 1105.03 659.537 1103.89 660.243C1102.76 660.95 1101.46 661.303 1099.99 661.303C1097.77 661.303 1095.97 660.531 1094.59 658.987C1093.21 657.443 1092.53 655.399 1092.53 652.856V652.66ZM1095.34 652.993C1095.34 654.809 1095.76 656.267 1096.6 657.367C1097.45 658.467 1098.58 659.017 1099.99 659.017C1101.41 659.017 1102.54 658.462 1103.38 657.352C1104.22 656.232 1104.64 654.668 1104.64 652.66C1104.64 650.863 1104.21 649.41 1103.35 648.3C1102.5 647.18 1101.37 646.62 1099.96 646.62C1098.58 646.62 1097.46 647.17 1096.61 648.27C1095.77 649.37 1095.34 650.944 1095.34 652.993ZM1116.78 661H1113.98V644.622H1116.78V661ZM1113.75 640.278C1113.75 639.824 1113.89 639.44 1114.16 639.127C1114.44 638.815 1114.86 638.658 1115.4 638.658C1115.95 638.658 1116.36 638.815 1116.64 639.127C1116.93 639.44 1117.07 639.824 1117.07 640.278C1117.07 640.732 1116.93 641.11 1116.64 641.413C1116.36 641.716 1115.95 641.867 1115.4 641.867C1114.86 641.867 1114.44 641.716 1114.16 641.413C1113.89 641.11 1113.75 640.732 1113.75 640.278ZM1126.71 644.622L1126.81 646.681C1128.06 645.106 1129.69 644.319 1131.71 644.319C1135.17 644.319 1136.92 646.272 1136.95 650.177V661H1134.15V650.162C1134.14 648.981 1133.86 648.109 1133.33 647.543C1132.8 646.978 1131.98 646.696 1130.86 646.696C1129.95 646.696 1129.16 646.938 1128.47 647.422C1127.78 647.907 1127.25 648.542 1126.87 649.33V661H1124.07V644.622H1126.71ZM1147.76 640.656V644.622H1150.82V646.787H1147.76V656.943C1147.76 657.599 1147.9 658.094 1148.17 658.427C1148.44 658.75 1148.91 658.911 1149.56 658.911C1149.88 658.911 1150.33 658.851 1150.89 658.729V661C1150.16 661.202 1149.44 661.303 1148.74 661.303C1147.49 661.303 1146.55 660.924 1145.91 660.167C1145.28 659.411 1144.96 658.336 1144.96 656.943V646.787H1141.98V644.622H1144.96V640.656H1147.76ZM1166.43 656.656C1166.43 655.899 1166.14 655.314 1165.57 654.9C1165 654.476 1164.01 654.113 1162.58 653.81C1161.17 653.507 1160.05 653.144 1159.21 652.72C1158.38 652.296 1157.76 651.792 1157.36 651.207C1156.97 650.621 1156.77 649.925 1156.77 649.118C1156.77 647.776 1157.34 646.64 1158.47 645.712C1159.61 644.784 1161.06 644.319 1162.83 644.319C1164.68 644.319 1166.19 644.799 1167.34 645.757C1168.5 646.716 1169.08 647.942 1169.08 649.436H1166.26C1166.26 648.669 1165.93 648.008 1165.28 647.453C1164.63 646.898 1163.81 646.62 1162.83 646.62C1161.81 646.62 1161.01 646.842 1160.43 647.286C1159.86 647.73 1159.57 648.31 1159.57 649.027C1159.57 649.703 1159.84 650.213 1160.37 650.556C1160.91 650.899 1161.87 651.227 1163.26 651.54C1164.67 651.852 1165.8 652.226 1166.67 652.66C1167.54 653.094 1168.18 653.618 1168.59 654.234C1169.02 654.839 1169.23 655.581 1169.23 656.459C1169.23 657.922 1168.64 659.098 1167.47 659.986C1166.3 660.864 1164.78 661.303 1162.92 661.303C1161.6 661.303 1160.44 661.071 1159.43 660.606C1158.43 660.142 1157.63 659.496 1157.06 658.669C1156.49 657.831 1156.21 656.928 1156.21 655.959H1159.01C1159.06 656.898 1159.43 657.645 1160.13 658.2C1160.84 658.745 1161.77 659.017 1162.92 659.017C1163.98 659.017 1164.82 658.805 1165.46 658.381C1166.11 657.947 1166.43 657.372 1166.43 656.656ZM1196.26 661C1196.1 660.677 1195.96 660.102 1195.86 659.274C1194.56 660.627 1193.01 661.303 1191.2 661.303C1189.59 661.303 1188.26 660.849 1187.22 659.94C1186.19 659.022 1185.68 657.862 1185.68 656.459C1185.68 654.754 1186.32 653.432 1187.61 652.493C1188.92 651.545 1190.74 651.07 1193.09 651.07H1195.82V649.784C1195.82 648.805 1195.53 648.028 1194.94 647.453C1194.36 646.867 1193.49 646.575 1192.35 646.575C1191.35 646.575 1190.52 646.827 1189.84 647.332C1189.16 647.836 1188.83 648.447 1188.83 649.163H1186.01C1186.01 648.346 1186.3 647.559 1186.87 646.802C1187.46 646.035 1188.24 645.429 1189.23 644.985C1190.23 644.541 1191.33 644.319 1192.52 644.319C1194.41 644.319 1195.88 644.794 1196.95 645.742C1198.02 646.681 1198.58 647.977 1198.62 649.632V657.17C1198.62 658.674 1198.81 659.87 1199.19 660.758V661H1196.26ZM1191.61 658.866C1192.49 658.866 1193.32 658.639 1194.11 658.185C1194.89 657.73 1195.47 657.14 1195.82 656.414V653.053H1193.62C1190.19 653.053 1188.48 654.057 1188.48 656.065C1188.48 656.943 1188.77 657.63 1189.35 658.124C1189.94 658.618 1190.69 658.866 1191.61 658.866ZM1219.63 652.993C1219.63 655.485 1219.06 657.493 1217.92 659.017C1216.78 660.541 1215.24 661.303 1213.29 661.303C1211.3 661.303 1209.74 660.672 1208.6 659.411V667.297H1205.8V644.622H1208.36L1208.49 646.438C1209.63 645.026 1211.22 644.319 1213.25 644.319C1215.21 644.319 1216.77 645.061 1217.91 646.544C1219.06 648.028 1219.63 650.091 1219.63 652.735V652.993ZM1216.83 652.675C1216.83 650.828 1216.44 649.37 1215.65 648.3C1214.87 647.231 1213.79 646.696 1212.41 646.696C1210.72 646.696 1209.45 647.448 1208.6 648.951V656.777C1209.44 658.27 1210.72 659.017 1212.44 659.017C1213.79 659.017 1214.85 658.487 1215.64 657.428C1216.43 656.358 1216.83 654.774 1216.83 652.675ZM1239.83 652.993C1239.83 655.485 1239.26 657.493 1238.12 659.017C1236.98 660.541 1235.44 661.303 1233.49 661.303C1231.5 661.303 1229.94 660.672 1228.8 659.411V667.297H1226V644.622H1228.55L1228.69 646.438C1229.83 645.026 1231.41 644.319 1233.44 644.319C1235.41 644.319 1236.96 645.061 1238.1 646.544C1239.26 648.028 1239.83 650.091 1239.83 652.735V652.993ZM1237.03 652.675C1237.03 650.828 1236.64 649.37 1235.85 648.3C1235.06 647.231 1233.98 646.696 1232.61 646.696C1230.91 646.696 1229.64 647.448 1228.8 648.951V656.777C1229.63 658.27 1230.91 659.017 1232.64 659.017C1233.98 659.017 1235.05 658.487 1235.83 657.428C1236.63 656.358 1237.03 654.774 1237.03 652.675ZM1252.99 661.303C1250.77 661.303 1248.96 660.576 1247.57 659.123C1246.18 657.66 1245.48 655.707 1245.48 653.265V652.75C1245.48 651.126 1245.79 649.678 1246.4 648.406C1247.03 647.125 1247.9 646.126 1249.01 645.409C1250.13 644.683 1251.34 644.319 1252.64 644.319C1254.77 644.319 1256.43 645.021 1257.61 646.423C1258.79 647.826 1259.38 649.834 1259.38 652.448V653.613H1248.28C1248.32 655.228 1248.79 656.535 1249.69 657.534C1250.6 658.523 1251.75 659.017 1253.14 659.017C1254.13 659.017 1254.97 658.815 1255.65 658.412C1256.34 658.008 1256.94 657.473 1257.45 656.807L1259.16 658.139C1257.79 660.248 1255.73 661.303 1252.99 661.303ZM1252.64 646.62C1251.51 646.62 1250.56 647.034 1249.8 647.861C1249.03 648.679 1248.55 649.829 1248.37 651.312H1256.58V651.101C1256.5 649.678 1256.11 648.578 1255.43 647.801C1254.74 647.014 1253.81 646.62 1252.64 646.62ZM1275.53 661C1275.37 660.677 1275.24 660.102 1275.14 659.274C1273.84 660.627 1272.28 661.303 1270.48 661.303C1268.86 661.303 1267.54 660.849 1266.5 659.94C1265.47 659.022 1264.95 657.862 1264.95 656.459C1264.95 654.754 1265.6 653.432 1266.89 652.493C1268.19 651.545 1270.02 651.07 1272.37 651.07H1275.09V649.784C1275.09 648.805 1274.8 648.028 1274.22 647.453C1273.63 646.867 1272.77 646.575 1271.63 646.575C1270.63 646.575 1269.79 646.827 1269.11 647.332C1268.44 647.836 1268.1 648.447 1268.1 649.163H1265.28C1265.28 648.346 1265.57 647.559 1266.15 646.802C1266.73 646.035 1267.52 645.429 1268.51 644.985C1269.51 644.541 1270.6 644.319 1271.79 644.319C1273.68 644.319 1275.16 644.794 1276.23 645.742C1277.3 646.681 1277.85 647.977 1277.89 649.632V657.17C1277.89 658.674 1278.09 659.87 1278.47 660.758V661H1275.53ZM1270.89 658.866C1271.76 658.866 1272.6 658.639 1273.38 658.185C1274.17 657.73 1274.74 657.14 1275.09 656.414V653.053H1272.9C1269.47 653.053 1267.75 654.057 1267.75 656.065C1267.75 656.943 1268.04 657.63 1268.63 658.124C1269.22 658.618 1269.97 658.866 1270.89 658.866ZM1292.99 647.135C1292.57 647.064 1292.11 647.029 1291.61 647.029C1289.78 647.029 1288.53 647.811 1287.87 649.375V661H1285.07V644.622H1287.8L1287.84 646.514C1288.76 645.051 1290.06 644.319 1291.75 644.319C1292.29 644.319 1292.71 644.39 1292.99 644.531V647.135ZM1296.55 659.532C1296.55 659.047 1296.69 658.644 1296.98 658.321C1297.27 657.998 1297.7 657.836 1298.28 657.836C1298.85 657.836 1299.29 657.998 1299.58 658.321C1299.88 658.644 1300.03 659.047 1300.03 659.532C1300.03 659.996 1299.88 660.384 1299.58 660.697C1299.29 661.01 1298.85 661.167 1298.28 661.167C1297.7 661.167 1297.27 661.01 1296.98 660.697C1296.69 660.384 1296.55 659.996 1296.55 659.532ZM145.676 722H142.77V699.961H145.676V722ZM156.004 705.622L156.095 707.681C157.346 706.106 158.981 705.319 160.999 705.319C164.461 705.319 166.207 707.272 166.237 711.177V722H163.436V711.162C163.426 709.981 163.154 709.109 162.619 708.543C162.094 707.978 161.272 707.696 160.152 707.696C159.244 707.696 158.446 707.938 157.76 708.422C157.074 708.907 156.539 709.542 156.156 710.33V722H153.355V705.622H156.004ZM187.529 701.656V705.622H190.586V707.787H187.529V717.943C187.529 718.599 187.665 719.094 187.937 719.427C188.21 719.75 188.674 719.911 189.33 719.911C189.653 719.911 190.097 719.851 190.662 719.729V722C189.925 722.202 189.209 722.303 188.513 722.303C187.261 722.303 186.318 721.924 185.682 721.167C185.046 720.411 184.728 719.336 184.728 717.943V707.787H181.746V705.622H184.728V701.656H187.529ZM199.461 707.605C200.702 706.081 202.317 705.319 204.305 705.319C207.766 705.319 209.512 707.272 209.542 711.177V722H206.742V711.162C206.732 709.981 206.459 709.109 205.925 708.543C205.4 707.978 204.577 707.696 203.457 707.696C202.549 707.696 201.752 707.938 201.066 708.422C200.38 708.907 199.845 709.542 199.461 710.33V722H196.661V698.75H199.461V707.605ZM219.568 722H216.767V705.622H219.568V722ZM216.54 701.278C216.54 700.824 216.677 700.44 216.949 700.127C217.232 699.815 217.645 699.658 218.19 699.658C218.735 699.658 219.149 699.815 219.431 700.127C219.714 700.44 219.855 700.824 219.855 701.278C219.855 701.732 219.714 702.11 219.431 702.413C219.149 702.716 218.735 702.867 218.19 702.867C217.645 702.867 217.232 702.716 216.949 702.413C216.677 702.11 216.54 701.732 216.54 701.278ZM236.389 717.656C236.389 716.899 236.102 716.314 235.527 715.9C234.962 715.476 233.968 715.113 232.545 714.81C231.132 714.507 230.007 714.144 229.169 713.72C228.342 713.296 227.726 712.792 227.323 712.207C226.929 711.621 226.732 710.925 226.732 710.118C226.732 708.776 227.297 707.64 228.427 706.712C229.568 705.784 231.021 705.319 232.787 705.319C234.644 705.319 236.147 705.799 237.298 706.757C238.458 707.716 239.038 708.942 239.038 710.436H236.223C236.223 709.669 235.895 709.008 235.239 708.453C234.593 707.898 233.776 707.62 232.787 707.62C231.768 707.62 230.97 707.842 230.395 708.286C229.82 708.73 229.532 709.31 229.532 710.027C229.532 710.703 229.8 711.213 230.335 711.556C230.87 711.899 231.833 712.227 233.226 712.54C234.629 712.852 235.764 713.226 236.632 713.66C237.499 714.094 238.14 714.618 238.554 715.234C238.978 715.839 239.19 716.581 239.19 717.459C239.19 718.922 238.604 720.098 237.434 720.986C236.263 721.864 234.745 722.303 232.878 722.303C231.566 722.303 230.405 722.071 229.396 721.606C228.387 721.142 227.595 720.496 227.02 719.669C226.455 718.831 226.172 717.928 226.172 716.959H228.972C229.023 717.898 229.396 718.645 230.093 719.2C230.799 719.745 231.727 720.017 232.878 720.017C233.937 720.017 234.785 719.805 235.421 719.381C236.066 718.947 236.389 718.372 236.389 717.656ZM262.676 720.017C263.675 720.017 264.548 719.714 265.295 719.109C266.042 718.503 266.456 717.747 266.536 716.838H269.185C269.135 717.777 268.812 718.67 268.216 719.518C267.621 720.365 266.824 721.041 265.825 721.546C264.836 722.05 263.786 722.303 262.676 722.303C260.446 722.303 258.67 721.561 257.348 720.078C256.036 718.584 255.381 716.546 255.381 713.962V713.493C255.381 711.899 255.673 710.481 256.258 709.24C256.844 707.999 257.681 707.035 258.771 706.349C259.871 705.662 261.168 705.319 262.661 705.319C264.498 705.319 266.022 705.869 267.233 706.969C268.454 708.069 269.105 709.497 269.185 711.253H266.536C266.456 710.193 266.052 709.326 265.325 708.649C264.609 707.963 263.721 707.62 262.661 707.62C261.238 707.62 260.133 708.135 259.346 709.164C258.569 710.183 258.181 711.662 258.181 713.599V714.129C258.181 716.016 258.569 717.469 259.346 718.488C260.123 719.507 261.233 720.017 262.676 720.017ZM285.235 722C285.074 721.677 284.942 721.102 284.841 720.274C283.54 721.627 281.986 722.303 280.179 722.303C278.565 722.303 277.238 721.849 276.198 720.94C275.169 720.022 274.654 718.862 274.654 717.459C274.654 715.754 275.3 714.432 276.592 713.493C277.894 712.545 279.72 712.07 282.071 712.07H284.796V710.784C284.796 709.805 284.503 709.028 283.918 708.453C283.333 707.867 282.47 707.575 281.33 707.575C280.331 707.575 279.493 707.827 278.817 708.332C278.141 708.836 277.803 709.447 277.803 710.163H274.987C274.987 709.346 275.275 708.559 275.85 707.802C276.436 707.035 277.223 706.429 278.212 705.985C279.211 705.541 280.305 705.319 281.496 705.319C283.383 705.319 284.862 705.794 285.931 706.742C287.001 707.681 287.556 708.977 287.596 710.632V718.17C287.596 719.674 287.788 720.87 288.172 721.758V722H285.235ZM280.588 719.866C281.466 719.866 282.298 719.639 283.086 719.185C283.873 718.73 284.443 718.14 284.796 717.414V714.053H282.601C279.17 714.053 277.455 715.057 277.455 717.065C277.455 717.943 277.747 718.63 278.333 719.124C278.918 719.618 279.67 719.866 280.588 719.866ZM304.312 717.656C304.312 716.899 304.025 716.314 303.449 715.9C302.884 715.476 301.89 715.113 300.467 714.81C299.055 714.507 297.929 714.144 297.092 713.72C296.264 713.296 295.649 712.792 295.245 712.207C294.852 711.621 294.655 710.925 294.655 710.118C294.655 708.776 295.22 707.64 296.35 706.712C297.49 705.784 298.944 705.319 300.71 705.319C302.566 705.319 304.07 705.799 305.22 706.757C306.381 707.716 306.961 708.942 306.961 710.436H304.146C304.146 709.669 303.818 709.008 303.162 708.453C302.516 707.898 301.698 707.62 300.71 707.62C299.69 707.62 298.893 707.842 298.318 708.286C297.743 708.73 297.455 709.31 297.455 710.027C297.455 710.703 297.723 711.213 298.257 711.556C298.792 711.899 299.756 712.227 301.149 712.54C302.551 712.852 303.686 713.226 304.554 713.66C305.422 714.094 306.063 714.618 306.477 715.234C306.9 715.839 307.112 716.581 307.112 717.459C307.112 718.922 306.527 720.098 305.357 720.986C304.186 721.864 302.667 722.303 300.8 722.303C299.489 722.303 298.328 722.071 297.319 721.606C296.31 721.142 295.518 720.496 294.942 719.669C294.377 718.831 294.095 717.928 294.095 716.959H296.895C296.946 717.898 297.319 718.645 298.015 719.2C298.722 719.745 299.65 720.017 300.8 720.017C301.86 720.017 302.708 719.805 303.343 719.381C303.989 718.947 304.312 718.372 304.312 717.656ZM320.347 722.303C318.127 722.303 316.32 721.576 314.928 720.123C313.535 718.66 312.839 716.707 312.839 714.265V713.75C312.839 712.126 313.147 710.678 313.762 709.406C314.388 708.125 315.256 707.126 316.366 706.409C317.486 705.683 318.697 705.319 319.999 705.319C322.128 705.319 323.783 706.021 324.963 707.423C326.144 708.826 326.734 710.834 326.734 713.448V714.613H315.639C315.68 716.228 316.149 717.535 317.047 718.534C317.955 719.523 319.106 720.017 320.498 720.017C321.487 720.017 322.325 719.815 323.011 719.412C323.697 719.008 324.297 718.473 324.812 717.807L326.523 719.139C325.15 721.248 323.092 722.303 320.347 722.303ZM319.999 707.62C318.868 707.62 317.92 708.034 317.153 708.861C316.386 709.679 315.912 710.829 315.73 712.312H323.934V712.101C323.853 710.678 323.47 709.578 322.784 708.801C322.098 708.014 321.169 707.62 319.999 707.62ZM332.688 726.39L331.099 725.3C332.047 723.978 332.542 722.616 332.582 721.213V718.685H335.322V720.88C335.322 721.899 335.07 722.918 334.565 723.938C334.07 724.957 333.445 725.774 332.688 726.39ZM362.245 722C362.083 721.677 361.952 721.102 361.851 720.274C360.549 721.627 358.995 722.303 357.189 722.303C355.574 722.303 354.247 721.849 353.208 720.94C352.179 720.022 351.664 718.862 351.664 717.459C351.664 715.754 352.31 714.432 353.602 713.493C354.903 712.545 356.73 712.07 359.081 712.07H361.806V710.784C361.806 709.805 361.513 709.028 360.928 708.453C360.342 707.867 359.48 707.575 358.339 707.575C357.34 707.575 356.503 707.827 355.827 708.332C355.15 708.836 354.812 709.447 354.812 710.163H351.997C351.997 709.346 352.285 708.559 352.86 707.802C353.445 707.035 354.232 706.429 355.221 705.985C356.22 705.541 357.315 705.319 358.506 705.319C360.393 705.319 361.871 705.794 362.941 706.742C364.011 707.681 364.566 708.977 364.606 710.632V718.17C364.606 719.674 364.798 720.87 365.181 721.758V722H362.245ZM357.598 719.866C358.476 719.866 359.308 719.639 360.095 719.185C360.882 718.73 361.452 718.14 361.806 717.414V714.053H359.611C356.18 714.053 354.464 715.057 354.464 717.065C354.464 717.943 354.757 718.63 355.342 719.124C355.928 719.618 356.679 719.866 357.598 719.866ZM374.828 722H372.028V698.75H374.828V722ZM385.156 722H382.356V698.75H385.156V722ZM406.72 701.656V705.622H409.778V707.787H406.72V717.943C406.72 718.599 406.857 719.094 407.129 719.427C407.402 719.75 407.866 719.911 408.522 719.911C408.845 719.911 409.289 719.851 409.854 719.729V722C409.117 722.202 408.401 722.303 407.704 722.303C406.453 722.303 405.51 721.924 404.874 721.167C404.238 720.411 403.92 719.336 403.92 717.943V707.787H400.938V705.622H403.92V701.656H406.72ZM418.653 707.605C419.894 706.081 421.509 705.319 423.497 705.319C426.958 705.319 428.704 707.272 428.734 711.177V722H425.934V711.162C425.924 709.981 425.651 709.109 425.116 708.543C424.592 707.978 423.769 707.696 422.649 707.696C421.741 707.696 420.944 707.938 420.258 708.422C419.571 708.907 419.037 709.542 418.653 710.33V722H415.853V698.75H418.653V707.605ZM442.513 722.303C440.293 722.303 438.487 721.576 437.094 720.123C435.702 718.66 435.006 716.707 435.006 714.265V713.75C435.006 712.126 435.313 710.678 435.929 709.406C436.555 708.125 437.422 707.126 438.532 706.409C439.653 705.683 440.863 705.319 442.165 705.319C444.294 705.319 445.949 706.021 447.13 707.423C448.311 708.826 448.901 710.834 448.901 713.448V714.613H437.806C437.846 716.228 438.315 717.535 439.214 718.534C440.122 719.523 441.272 720.017 442.665 720.017C443.654 720.017 444.491 719.815 445.177 719.412C445.864 719.008 446.464 718.473 446.979 717.807L448.689 719.139C447.317 721.248 445.258 722.303 442.513 722.303ZM442.165 707.62C441.035 707.62 440.086 708.034 439.32 708.861C438.553 709.679 438.078 710.829 437.897 712.312H446.101V712.101C446.02 710.678 445.637 709.578 444.95 708.801C444.264 708.014 443.336 707.62 442.165 707.62ZM468.467 722H465.667V698.75H468.467V722ZM478.796 722H475.995V705.622H478.796V722ZM475.768 701.278C475.768 700.824 475.904 700.44 476.177 700.127C476.459 699.815 476.873 699.658 477.418 699.658C477.963 699.658 478.377 699.815 478.659 700.127C478.942 700.44 479.083 700.824 479.083 701.278C479.083 701.732 478.942 702.11 478.659 702.413C478.377 702.716 477.963 702.867 477.418 702.867C476.873 702.867 476.459 702.716 476.177 702.413C475.904 702.11 475.768 701.732 475.768 701.278ZM488.73 705.622L488.821 707.681C490.072 706.106 491.707 705.319 493.725 705.319C497.186 705.319 498.932 707.272 498.962 711.177V722H496.162V711.162C496.152 709.981 495.88 709.109 495.345 708.543C494.82 707.978 493.998 707.696 492.877 707.696C491.969 707.696 491.172 707.938 490.486 708.422C489.8 708.907 489.265 709.542 488.881 710.33V722H486.081V705.622H488.73ZM512.772 722.303C510.552 722.303 508.746 721.576 507.353 720.123C505.96 718.66 505.264 716.707 505.264 714.265V713.75C505.264 712.126 505.572 710.678 506.188 709.406C506.813 708.125 507.681 707.126 508.791 706.409C509.911 705.683 511.122 705.319 512.424 705.319C514.553 705.319 516.208 706.021 517.389 707.423C518.569 708.826 519.16 710.834 519.16 713.448V714.613H508.064C508.105 716.228 508.574 717.535 509.472 718.534C510.38 719.523 511.531 720.017 512.923 720.017C513.912 720.017 514.75 719.815 515.436 719.412C516.122 719.008 516.723 718.473 517.237 717.807L518.948 719.139C517.575 721.248 515.517 722.303 512.772 722.303ZM512.424 707.62C511.294 707.62 510.345 708.034 509.578 708.861C508.811 709.679 508.337 710.829 508.155 712.312H516.359V712.101C516.279 710.678 515.895 709.578 515.209 708.801C514.523 708.014 513.594 707.62 512.424 707.62ZM534.74 717.656C534.74 716.899 534.453 716.314 533.877 715.9C533.312 715.476 532.318 715.113 530.895 714.81C529.483 714.507 528.358 714.144 527.52 713.72C526.693 713.296 526.077 712.792 525.673 712.207C525.28 711.621 525.083 710.925 525.083 710.118C525.083 708.776 525.648 707.64 526.778 706.712C527.919 705.784 529.372 705.319 531.138 705.319C532.994 705.319 534.498 705.799 535.648 706.757C536.809 707.716 537.389 708.942 537.389 710.436H534.574C534.574 709.669 534.246 709.008 533.59 708.453C532.944 707.898 532.127 707.62 531.138 707.62C530.118 707.62 529.321 707.842 528.746 708.286C528.171 708.73 527.883 709.31 527.883 710.027C527.883 710.703 528.151 711.213 528.686 711.556C529.22 711.899 530.184 712.227 531.577 712.54C532.979 712.852 534.115 713.226 534.982 713.66C535.85 714.094 536.491 714.618 536.905 715.234C537.329 715.839 537.54 716.581 537.54 717.459C537.54 718.922 536.955 720.098 535.785 720.986C534.614 721.864 533.095 722.303 531.228 722.303C529.917 722.303 528.756 722.071 527.747 721.606C526.738 721.142 525.946 720.496 525.371 719.669C524.805 718.831 524.523 717.928 524.523 716.959H527.323C527.374 717.898 527.747 718.645 528.443 719.2C529.15 719.745 530.078 720.017 531.228 720.017C532.288 720.017 533.136 719.805 533.771 719.381C534.417 718.947 534.74 718.372 534.74 717.656ZM561.027 720.017C562.026 720.017 562.899 719.714 563.646 719.109C564.393 718.503 564.806 717.747 564.887 716.838H567.536C567.486 717.777 567.163 718.67 566.567 719.518C565.972 720.365 565.175 721.041 564.176 721.546C563.187 722.05 562.137 722.303 561.027 722.303C558.797 722.303 557.021 721.561 555.699 720.078C554.387 718.584 553.731 716.546 553.731 713.962V713.493C553.731 711.899 554.024 710.481 554.609 709.24C555.195 707.999 556.032 707.035 557.122 706.349C558.222 705.662 559.519 705.319 561.012 705.319C562.849 705.319 564.372 705.869 565.583 706.969C566.804 708.069 567.455 709.497 567.536 711.253H564.887C564.806 710.193 564.403 709.326 563.676 708.649C562.96 707.963 562.072 707.62 561.012 707.62C559.589 707.62 558.484 708.135 557.697 709.164C556.92 710.183 556.532 711.662 556.532 713.599V714.129C556.532 716.016 556.92 717.469 557.697 718.488C558.474 719.507 559.584 720.017 561.027 720.017ZM572.733 713.66C572.733 712.055 573.046 710.612 573.671 709.331C574.307 708.049 575.185 707.06 576.305 706.364C577.435 705.667 578.722 705.319 580.165 705.319C582.395 705.319 584.196 706.091 585.569 707.635C586.951 709.179 587.642 711.233 587.642 713.796V713.993C587.642 715.587 587.335 717.02 586.719 718.292C586.114 719.553 585.241 720.537 584.1 721.243C582.97 721.95 581.668 722.303 580.195 722.303C577.975 722.303 576.174 721.531 574.791 719.987C573.419 718.443 572.733 716.399 572.733 713.856V713.66ZM575.548 713.993C575.548 715.809 575.967 717.267 576.805 718.367C577.652 719.467 578.782 720.017 580.195 720.017C581.618 720.017 582.748 719.462 583.586 718.352C584.423 717.232 584.842 715.668 584.842 713.66C584.842 711.863 584.413 710.41 583.556 709.3C582.708 708.18 581.578 707.62 580.165 707.62C578.782 707.62 577.667 708.17 576.82 709.27C575.972 710.37 575.548 711.944 575.548 713.993ZM596.593 705.622L596.684 707.681C597.935 706.106 599.57 705.319 601.588 705.319C605.049 705.319 606.795 707.272 606.826 711.177V722H604.025V711.162C604.015 709.981 603.743 709.109 603.208 708.543C602.683 707.978 601.861 707.696 600.741 707.696C599.832 707.696 599.035 707.938 598.349 708.422C597.663 708.907 597.128 709.542 596.744 710.33V722H593.944V705.622H596.593ZM619.242 718.201L623.299 705.622H626.16L620.287 722H618.153L612.219 705.622H615.08L619.242 718.201ZM638.229 722.303C636.009 722.303 634.202 721.576 632.81 720.123C631.417 718.66 630.721 716.707 630.721 714.265V713.75C630.721 712.126 631.029 710.678 631.644 709.406C632.27 708.125 633.138 707.126 634.248 706.409C635.368 705.683 636.579 705.319 637.881 705.319C640.01 705.319 641.665 706.021 642.845 707.423C644.026 708.826 644.616 710.834 644.616 713.448V714.613H633.521C633.562 716.228 634.031 717.535 634.929 718.534C635.837 719.523 636.988 720.017 638.38 720.017C639.369 720.017 640.207 719.815 640.893 719.412C641.579 719.008 642.179 718.473 642.694 717.807L644.405 719.139C643.032 721.248 640.974 722.303 638.229 722.303ZM637.881 707.62C636.75 707.62 635.802 708.034 635.035 708.861C634.268 709.679 633.794 710.829 633.612 712.312H641.816V712.101C641.735 710.678 641.352 709.578 640.666 708.801C639.98 708.014 639.051 707.62 637.881 707.62ZM658.577 708.135C658.154 708.064 657.694 708.029 657.2 708.029C655.363 708.029 654.117 708.811 653.461 710.375V722H650.661V705.622H653.385L653.431 707.514C654.349 706.051 655.651 705.319 657.336 705.319C657.881 705.319 658.295 705.39 658.577 705.531V708.135ZM662.987 713.675C662.987 711.122 663.577 709.093 664.758 707.59C665.939 706.076 667.503 705.319 669.45 705.319C671.448 705.319 673.007 706.026 674.128 707.438L674.264 705.622H676.822V721.606C676.822 723.726 676.191 725.396 674.93 726.617C673.679 727.838 671.993 728.448 669.874 728.448C668.693 728.448 667.538 728.196 666.408 727.691C665.278 727.187 664.415 726.496 663.819 725.618L665.273 723.938C666.473 725.421 667.942 726.163 669.677 726.163C671.04 726.163 672.099 725.779 672.856 725.012C673.623 724.245 674.006 723.166 674.006 721.773V720.365C672.886 721.657 671.358 722.303 669.42 722.303C667.503 722.303 665.949 721.531 664.758 719.987C663.577 718.443 662.987 716.339 662.987 713.675ZM665.802 713.993C665.802 715.839 666.181 717.292 666.938 718.352C667.694 719.402 668.754 719.926 670.116 719.926C671.882 719.926 673.179 719.124 674.006 717.52V710.042C673.149 708.478 671.862 707.696 670.147 707.696C668.784 707.696 667.72 708.226 666.953 709.285C666.186 710.345 665.802 711.914 665.802 713.993ZM690.647 722.303C688.427 722.303 686.62 721.576 685.228 720.123C683.835 718.66 683.139 716.707 683.139 714.265V713.75C683.139 712.126 683.447 710.678 684.062 709.406C684.688 708.125 685.556 707.126 686.666 706.409C687.786 705.683 688.997 705.319 690.298 705.319C692.428 705.319 694.083 706.021 695.263 707.423C696.444 708.826 697.034 710.834 697.034 713.448V714.613H685.939C685.979 716.228 686.449 717.535 687.347 718.534C688.255 719.523 689.405 720.017 690.798 720.017C691.787 720.017 692.624 719.815 693.311 719.412C693.997 719.008 694.597 718.473 695.112 717.807L696.822 719.139C695.45 721.248 693.391 722.303 690.647 722.303ZM690.298 707.62C689.168 707.62 688.22 708.034 687.453 708.861C686.686 709.679 686.212 710.829 686.03 712.312H694.234V712.101C694.153 710.678 693.77 709.578 693.084 708.801C692.397 708.014 691.469 707.62 690.298 707.62ZM723.669 722C723.508 721.677 723.377 721.102 723.276 720.274C721.974 721.627 720.42 722.303 718.614 722.303C716.999 722.303 715.672 721.849 714.633 720.94C713.604 720.022 713.089 718.862 713.089 717.459C713.089 715.754 713.735 714.432 715.026 713.493C716.328 712.545 718.155 712.07 720.506 712.07H723.23V710.784C723.23 709.805 722.938 709.028 722.353 708.453C721.767 707.867 720.904 707.575 719.764 707.575C718.765 707.575 717.928 707.827 717.251 708.332C716.575 708.836 716.237 709.447 716.237 710.163H713.422C713.422 709.346 713.709 708.559 714.285 707.802C714.87 707.035 715.657 706.429 716.646 705.985C717.645 705.541 718.74 705.319 719.931 705.319C721.818 705.319 723.296 705.794 724.366 706.742C725.435 707.681 725.99 708.977 726.031 710.632V718.17C726.031 719.674 726.222 720.87 726.606 721.758V722H723.669ZM719.022 719.866C719.9 719.866 720.733 719.639 721.52 719.185C722.307 718.73 722.877 718.14 723.23 717.414V714.053H721.036C717.605 714.053 715.889 715.057 715.889 717.065C715.889 717.943 716.182 718.63 716.767 719.124C717.352 719.618 718.104 719.866 719.022 719.866ZM737.01 701.656V705.622H740.067V707.787H737.01V717.943C737.01 718.599 737.146 719.094 737.418 719.427C737.691 719.75 738.155 719.911 738.811 719.911C739.134 719.911 739.578 719.851 740.143 719.729V722C739.406 722.202 738.69 722.303 737.994 722.303C736.742 722.303 735.799 721.924 735.163 721.167C734.527 720.411 734.209 719.336 734.209 717.943V707.787H731.228V705.622H734.209V701.656H737.01ZM760.421 701.656V705.622H763.478V707.787H760.421V717.943C760.421 718.599 760.557 719.094 760.829 719.427C761.102 719.75 761.566 719.911 762.222 719.911C762.545 719.911 762.989 719.851 763.554 719.729V722C762.817 722.202 762.101 722.303 761.405 722.303C760.153 722.303 759.21 721.924 758.574 721.167C757.938 720.411 757.62 719.336 757.62 717.943V707.787H754.639V705.622H757.62V701.656H760.421ZM784.054 718.14L787.203 705.622H790.003L785.235 722H782.964L778.983 709.588L775.108 722H772.838L768.085 705.622H770.87L774.094 717.883L777.909 705.622H780.164L784.054 718.14ZM794.912 713.66C794.912 712.055 795.225 710.612 795.85 709.331C796.486 708.049 797.364 707.06 798.484 706.364C799.614 705.667 800.901 705.319 802.344 705.319C804.574 705.319 806.375 706.091 807.748 707.635C809.13 709.179 809.822 711.233 809.822 713.796V713.993C809.822 715.587 809.514 717.02 808.898 718.292C808.293 719.553 807.42 720.537 806.28 721.243C805.149 721.95 803.848 722.303 802.374 722.303C800.154 722.303 798.353 721.531 796.971 719.987C795.598 718.443 794.912 716.399 794.912 713.856V713.66ZM797.727 713.993C797.727 715.809 798.146 717.267 798.984 718.367C799.831 719.467 800.962 720.017 802.374 720.017C803.797 720.017 804.927 719.462 805.765 718.352C806.603 717.232 807.021 715.668 807.021 713.66C807.021 711.863 806.592 710.41 805.735 709.3C804.887 708.18 803.757 707.62 802.344 707.62C800.962 707.62 799.846 708.17 798.999 709.27C798.151 710.37 797.727 711.944 797.727 713.993ZM825.922 713.675C825.922 711.162 826.517 709.144 827.708 707.62C828.899 706.086 830.458 705.319 832.385 705.319C834.302 705.319 835.821 705.975 836.941 707.287V698.75H839.741V722H837.168L837.032 720.244C835.912 721.617 834.353 722.303 832.355 722.303C830.458 722.303 828.909 721.526 827.708 719.972C826.517 718.418 825.922 716.389 825.922 713.887V713.675ZM828.722 713.993C828.722 715.849 829.105 717.303 829.872 718.352C830.639 719.402 831.699 719.926 833.051 719.926C834.827 719.926 836.124 719.129 836.941 717.535V710.012C836.104 708.468 834.817 707.696 833.081 707.696C831.709 707.696 830.639 708.226 829.872 709.285C829.105 710.345 828.722 711.914 828.722 713.993ZM849.933 722H847.133V705.622H849.933V722ZM846.906 701.278C846.906 700.824 847.042 700.44 847.315 700.127C847.597 699.815 848.011 699.658 848.556 699.658C849.101 699.658 849.515 699.815 849.797 700.127C850.08 700.44 850.221 700.824 850.221 701.278C850.221 701.732 850.08 702.11 849.797 702.413C849.515 702.716 849.101 702.867 848.556 702.867C848.011 702.867 847.597 702.716 847.315 702.413C847.042 702.11 846.906 701.732 846.906 701.278ZM858.596 722V707.787H856.008V705.622H858.596V703.942C858.596 702.186 859.066 700.829 860.004 699.87C860.943 698.911 862.27 698.432 863.985 698.432C864.631 698.432 865.272 698.518 865.907 698.689L865.756 700.96C865.282 700.869 864.777 700.824 864.242 700.824C863.334 700.824 862.633 701.091 862.138 701.626C861.644 702.151 861.397 702.908 861.397 703.896V705.622H864.893V707.787H861.397V722H858.596ZM872.164 722V707.787H869.575V705.622H872.164V703.942C872.164 702.186 872.633 700.829 873.571 699.87C874.51 698.911 875.837 698.432 877.552 698.432C878.198 698.432 878.839 698.518 879.475 698.689L879.323 700.96C878.849 700.869 878.345 700.824 877.81 700.824C876.901 700.824 876.2 701.091 875.706 701.626C875.211 702.151 874.964 702.908 874.964 703.896V705.622H878.461V707.787H874.964V722H872.164ZM890.787 722.303C888.567 722.303 886.76 721.576 885.368 720.123C883.975 718.66 883.279 716.707 883.279 714.265V713.75C883.279 712.126 883.587 710.678 884.202 709.406C884.828 708.125 885.696 707.126 886.806 706.409C887.926 705.683 889.137 705.319 890.439 705.319C892.568 705.319 894.223 706.021 895.403 707.423C896.584 708.826 897.174 710.834 897.174 713.448V714.613H886.079C886.12 716.228 886.589 717.535 887.487 718.534C888.395 719.523 889.545 720.017 890.938 720.017C891.927 720.017 892.765 719.815 893.451 719.412C894.137 719.008 894.737 718.473 895.252 717.807L896.962 719.139C895.59 721.248 893.531 722.303 890.787 722.303ZM890.439 707.62C889.308 707.62 888.36 708.034 887.593 708.861C886.826 709.679 886.352 710.829 886.17 712.312H894.374V712.101C894.293 710.678 893.91 709.578 893.224 708.801C892.537 708.014 891.609 707.62 890.439 707.62ZM911.135 708.135C910.711 708.064 910.252 708.029 909.758 708.029C907.921 708.029 906.675 708.811 906.019 710.375V722H903.219V705.622H905.943L905.989 707.514C906.907 706.051 908.209 705.319 909.894 705.319C910.439 705.319 910.853 705.39 911.135 705.531V708.135ZM923.007 722.303C920.787 722.303 918.981 721.576 917.588 720.123C916.196 718.66 915.5 716.707 915.5 714.265V713.75C915.5 712.126 915.807 710.678 916.423 709.406C917.049 708.125 917.916 707.126 919.026 706.409C920.146 705.683 921.357 705.319 922.659 705.319C924.788 705.319 926.443 706.021 927.624 707.423C928.805 708.826 929.395 710.834 929.395 713.448V714.613H918.3C918.34 716.228 918.809 717.535 919.708 718.534C920.616 719.523 921.766 720.017 923.159 720.017C924.148 720.017 924.985 719.815 925.671 719.412C926.358 719.008 926.958 718.473 927.473 717.807L929.183 719.139C927.811 721.248 925.752 722.303 923.007 722.303ZM922.659 707.62C921.529 707.62 920.58 708.034 919.813 708.861C919.047 709.679 918.572 710.829 918.391 712.312H926.595V712.101C926.514 710.678 926.131 709.578 925.444 708.801C924.758 708.014 923.83 707.62 922.659 707.62ZM938.088 705.622L938.179 707.681C939.43 706.106 941.065 705.319 943.083 705.319C946.545 705.319 948.29 707.272 948.321 711.177V722H945.52V711.162C945.51 709.981 945.238 709.109 944.703 708.543C944.178 707.978 943.356 707.696 942.236 707.696C941.328 707.696 940.53 707.938 939.844 708.422C939.158 708.907 938.623 709.542 938.24 710.33V722H935.439V705.622H938.088ZM959.133 701.656V705.622H962.191V707.787H959.133V717.943C959.133 718.599 959.269 719.094 959.542 719.427C959.814 719.75 960.279 719.911 960.935 719.911C961.257 719.911 961.701 719.851 962.267 719.729V722C961.53 722.202 960.813 722.303 960.117 722.303C958.866 722.303 957.922 721.924 957.287 721.167C956.651 720.411 956.333 719.336 956.333 717.943V707.787H953.351V705.622H956.333V701.656H959.133ZM984.149 718.201L988.205 705.622H991.066L985.193 722H983.059L977.125 705.622H979.986L984.149 718.201ZM1006.42 722C1006.26 721.677 1006.13 721.102 1006.03 720.274C1004.72 721.627 1003.17 722.303 1001.36 722.303C999.749 722.303 998.423 721.849 997.383 720.94C996.354 720.022 995.839 718.862 995.839 717.459C995.839 715.754 996.485 714.432 997.777 713.493C999.078 712.545 1000.9 712.07 1003.26 712.07H1005.98V710.784C1005.98 709.805 1005.69 709.028 1005.1 708.453C1004.52 707.867 1003.65 707.575 1002.51 707.575C1001.52 707.575 1000.68 707.827 1000 708.332C999.326 708.836 998.988 709.447 998.988 710.163H996.172C996.172 709.346 996.46 708.559 997.035 707.802C997.62 707.035 998.407 706.429 999.396 705.985C1000.4 705.541 1001.49 705.319 1002.68 705.319C1004.57 705.319 1006.05 705.794 1007.12 706.742C1008.19 707.681 1008.74 708.977 1008.78 710.632V718.17C1008.78 719.674 1008.97 720.87 1009.36 721.758V722H1006.42ZM1001.77 719.866C1002.65 719.866 1003.48 719.639 1004.27 719.185C1005.06 718.73 1005.63 718.14 1005.98 717.414V714.053H1003.79C1000.35 714.053 998.639 715.057 998.639 717.065C998.639 717.943 998.932 718.63 999.517 719.124C1000.1 719.618 1000.85 719.866 1001.77 719.866ZM1018.61 705.622L1018.7 707.681C1019.95 706.106 1021.59 705.319 1023.6 705.319C1027.07 705.319 1028.81 707.272 1028.84 711.177V722H1026.04V711.162C1026.03 709.981 1025.76 709.109 1025.22 708.543C1024.7 707.978 1023.88 707.696 1022.76 707.696C1021.85 707.696 1021.05 707.938 1020.37 708.422C1019.68 708.907 1019.14 709.542 1018.76 710.33V722H1015.96V705.622H1018.61ZM1038.9 722H1036.1V705.622H1038.9V722ZM1035.87 701.278C1035.87 700.824 1036.01 700.44 1036.28 700.127C1036.56 699.815 1036.98 699.658 1037.52 699.658C1038.07 699.658 1038.48 699.815 1038.76 700.127C1039.04 700.44 1039.19 700.824 1039.19 701.278C1039.19 701.732 1039.04 702.11 1038.76 702.413C1038.48 702.716 1038.07 702.867 1037.52 702.867C1036.98 702.867 1036.56 702.716 1036.28 702.413C1036.01 702.11 1035.87 701.732 1035.87 701.278ZM1055.72 717.656C1055.72 716.899 1055.43 716.314 1054.86 715.9C1054.29 715.476 1053.3 715.113 1051.87 714.81C1050.46 714.507 1049.34 714.144 1048.5 713.72C1047.67 713.296 1047.06 712.792 1046.65 712.207C1046.26 711.621 1046.06 710.925 1046.06 710.118C1046.06 708.776 1046.63 707.64 1047.76 706.712C1048.9 705.784 1050.35 705.319 1052.12 705.319C1053.97 705.319 1055.48 705.799 1056.63 706.757C1057.79 707.716 1058.37 708.942 1058.37 710.436H1055.55C1055.55 709.669 1055.22 709.008 1054.57 708.453C1053.92 707.898 1053.11 707.62 1052.12 707.62C1051.1 707.62 1050.3 707.842 1049.73 708.286C1049.15 708.73 1048.86 709.31 1048.86 710.027C1048.86 710.703 1049.13 711.213 1049.66 711.556C1050.2 711.899 1051.16 712.227 1052.56 712.54C1053.96 712.852 1055.09 713.226 1055.96 713.66C1056.83 714.094 1057.47 714.618 1057.88 715.234C1058.31 715.839 1058.52 716.581 1058.52 717.459C1058.52 718.922 1057.93 720.098 1056.76 720.986C1055.59 721.864 1054.07 722.303 1052.21 722.303C1050.9 722.303 1049.74 722.071 1048.73 721.606C1047.72 721.142 1046.92 720.496 1046.35 719.669C1045.78 718.831 1045.5 717.928 1045.5 716.959H1048.3C1048.35 717.898 1048.73 718.645 1049.42 719.2C1050.13 719.745 1051.06 720.017 1052.21 720.017C1053.27 720.017 1054.11 719.805 1054.75 719.381C1055.4 718.947 1055.72 718.372 1055.72 717.656ZM1067.76 707.605C1069 706.081 1070.61 705.319 1072.6 705.319C1076.06 705.319 1077.81 707.272 1077.84 711.177V722H1075.04V711.162C1075.03 709.981 1074.76 709.109 1074.22 708.543C1073.7 707.978 1072.87 707.696 1071.75 707.696C1070.85 707.696 1070.05 707.938 1069.36 708.422C1068.68 708.907 1068.14 709.542 1067.76 710.33V722H1064.96V698.75H1067.76V707.605ZM1087.86 722H1085.06V705.622H1087.86V722ZM1084.84 701.278C1084.84 700.824 1084.97 700.44 1085.25 700.127C1085.53 699.815 1085.94 699.658 1086.49 699.658C1087.03 699.658 1087.45 699.815 1087.73 700.127C1088.01 700.44 1088.15 700.824 1088.15 701.278C1088.15 701.732 1088.01 702.11 1087.73 702.413C1087.45 702.716 1087.03 702.867 1086.49 702.867C1085.94 702.867 1085.53 702.716 1085.25 702.413C1084.97 702.11 1084.84 701.732 1084.84 701.278ZM1097.8 705.622L1097.89 707.681C1099.14 706.106 1100.78 705.319 1102.79 705.319C1106.26 705.319 1108 707.272 1108.03 711.177V722H1105.23V711.162C1105.22 709.981 1104.95 709.109 1104.41 708.543C1103.89 707.978 1103.07 707.696 1101.95 707.696C1101.04 707.696 1100.24 707.938 1099.55 708.422C1098.87 708.907 1098.33 709.542 1097.95 710.33V722H1095.15V705.622H1097.8ZM1114.38 713.675C1114.38 711.122 1114.97 709.093 1116.15 707.59C1117.33 706.076 1118.89 705.319 1120.84 705.319C1122.84 705.319 1124.4 706.026 1125.52 707.438L1125.66 705.622H1128.21V721.606C1128.21 723.726 1127.58 725.396 1126.32 726.617C1125.07 727.838 1123.38 728.448 1121.27 728.448C1120.08 728.448 1118.93 728.196 1117.8 727.691C1116.67 727.187 1115.81 726.496 1115.21 725.618L1116.66 723.938C1117.86 725.421 1119.33 726.163 1121.07 726.163C1122.43 726.163 1123.49 725.779 1124.25 725.012C1125.01 724.245 1125.4 723.166 1125.4 721.773V720.365C1124.28 721.657 1122.75 722.303 1120.81 722.303C1118.89 722.303 1117.34 721.531 1116.15 719.987C1114.97 718.443 1114.38 716.339 1114.38 713.675ZM1117.19 713.993C1117.19 715.839 1117.57 717.292 1118.33 718.352C1119.09 719.402 1120.15 719.926 1121.51 719.926C1123.27 719.926 1124.57 719.124 1125.4 717.52V710.042C1124.54 708.478 1123.25 707.696 1121.54 707.696C1120.18 707.696 1119.11 708.226 1118.34 709.285C1117.58 710.345 1117.19 711.914 1117.19 713.993ZM1159.56 713.993C1159.56 716.485 1158.99 718.493 1157.85 720.017C1156.71 721.541 1155.16 722.303 1153.21 722.303C1151.23 722.303 1149.66 721.672 1148.52 720.411V728.297H1145.72V705.622H1148.28L1148.42 707.438C1149.56 706.026 1151.14 705.319 1153.17 705.319C1155.14 705.319 1156.69 706.061 1157.83 707.544C1158.98 709.028 1159.56 711.091 1159.56 713.735V713.993ZM1156.76 713.675C1156.76 711.828 1156.36 710.37 1155.58 709.3C1154.79 708.231 1153.71 707.696 1152.34 707.696C1150.64 707.696 1149.37 708.448 1148.52 709.951V717.777C1149.36 719.27 1150.64 720.017 1152.37 720.017C1153.71 720.017 1154.77 719.487 1155.56 718.428C1156.36 717.358 1156.76 715.774 1156.76 713.675ZM1165.18 713.66C1165.18 712.055 1165.49 710.612 1166.12 709.331C1166.75 708.049 1167.63 707.06 1168.75 706.364C1169.88 705.667 1171.17 705.319 1172.61 705.319C1174.84 705.319 1176.64 706.091 1178.01 707.635C1179.4 709.179 1180.09 711.233 1180.09 713.796V713.993C1180.09 715.587 1179.78 717.02 1179.16 718.292C1178.56 719.553 1177.68 720.537 1176.54 721.243C1175.41 721.95 1174.11 722.303 1172.64 722.303C1170.42 722.303 1168.62 721.531 1167.24 719.987C1165.86 718.443 1165.18 716.399 1165.18 713.856V713.66ZM1167.99 713.993C1167.99 715.809 1168.41 717.267 1169.25 718.367C1170.1 719.467 1171.23 720.017 1172.64 720.017C1174.06 720.017 1175.19 719.462 1176.03 718.352C1176.87 717.232 1177.29 715.668 1177.29 713.66C1177.29 711.863 1176.86 710.41 1176 709.3C1175.15 708.18 1174.02 707.62 1172.61 707.62C1171.23 707.62 1170.11 708.17 1169.26 709.27C1168.42 710.37 1167.99 711.944 1167.99 713.993ZM1189.43 722H1186.63V705.622H1189.43V722ZM1186.4 701.278C1186.4 700.824 1186.54 700.44 1186.81 700.127C1187.09 699.815 1187.51 699.658 1188.05 699.658C1188.6 699.658 1189.01 699.815 1189.29 700.127C1189.58 700.44 1189.72 700.824 1189.72 701.278C1189.72 701.732 1189.58 702.11 1189.29 702.413C1189.01 702.716 1188.6 702.867 1188.05 702.867C1187.51 702.867 1187.09 702.716 1186.81 702.413C1186.54 702.11 1186.4 701.732 1186.4 701.278ZM1199.37 705.622L1199.46 707.681C1200.71 706.106 1202.34 705.319 1204.36 705.319C1207.82 705.319 1209.57 707.272 1209.6 711.177V722H1206.8V711.162C1206.79 709.981 1206.51 709.109 1205.98 708.543C1205.46 707.978 1204.63 707.696 1203.51 707.696C1202.6 707.696 1201.81 707.938 1201.12 708.422C1200.43 708.907 1199.9 709.542 1199.52 710.33V722H1196.72V705.622H1199.37ZM1220.41 701.656V705.622H1223.47V707.787H1220.41V717.943C1220.41 718.599 1220.55 719.094 1220.82 719.427C1221.09 719.75 1221.56 719.911 1222.21 719.911C1222.53 719.911 1222.98 719.851 1223.54 719.729V722C1222.81 722.202 1222.09 722.303 1221.39 722.303C1220.14 722.303 1219.2 721.924 1218.56 721.167C1217.93 720.411 1217.61 719.336 1217.61 717.943V707.787H1214.63V705.622H1217.61V701.656H1220.41ZM1239.08 717.656C1239.08 716.899 1238.79 716.314 1238.22 715.9C1237.65 715.476 1236.66 715.113 1235.23 714.81C1233.82 714.507 1232.7 714.144 1231.86 713.72C1231.03 713.296 1230.42 712.792 1230.01 712.207C1229.62 711.621 1229.42 710.925 1229.42 710.118C1229.42 708.776 1229.99 707.64 1231.12 706.712C1232.26 705.784 1233.71 705.319 1235.48 705.319C1237.33 705.319 1238.84 705.799 1239.99 706.757C1241.15 707.716 1241.73 708.942 1241.73 710.436H1238.91C1238.91 709.669 1238.58 709.008 1237.93 708.453C1237.28 707.898 1236.46 707.62 1235.48 707.62C1234.46 707.62 1233.66 707.842 1233.08 708.286C1232.51 708.73 1232.22 709.31 1232.22 710.027C1232.22 710.703 1232.49 711.213 1233.02 711.556C1233.56 711.899 1234.52 712.227 1235.91 712.54C1237.32 712.852 1238.45 713.226 1239.32 713.66C1240.19 714.094 1240.83 714.618 1241.24 715.234C1241.67 715.839 1241.88 716.581 1241.88 717.459C1241.88 718.922 1241.29 720.098 1240.12 720.986C1238.95 721.864 1237.43 722.303 1235.57 722.303C1234.25 722.303 1233.09 722.071 1232.09 721.606C1231.08 721.142 1230.28 720.496 1229.71 719.669C1229.14 718.831 1228.86 717.928 1228.86 716.959H1231.66C1231.71 717.898 1232.09 718.645 1232.78 719.2C1233.49 719.745 1234.42 720.017 1235.57 720.017C1236.63 720.017 1237.47 719.805 1238.11 719.381C1238.76 718.947 1239.08 718.372 1239.08 717.656ZM1248.23 726.39L1246.64 725.3C1247.59 723.978 1248.08 722.616 1248.12 721.213V718.685H1250.86V720.88C1250.86 721.899 1250.61 722.918 1250.1 723.938C1249.61 724.957 1248.98 725.774 1248.23 726.39ZM141.438 774.675C141.438 772.162 142.033 770.144 143.224 768.62C144.415 767.086 145.974 766.319 147.901 766.319C149.819 766.319 151.337 766.975 152.458 768.287V759.75H155.258V783H152.685L152.548 781.244C151.428 782.617 149.869 783.303 147.871 783.303C145.974 783.303 144.425 782.526 143.224 780.972C142.033 779.418 141.438 777.389 141.438 774.887V774.675ZM144.238 774.993C144.238 776.849 144.622 778.303 145.389 779.352C146.156 780.402 147.215 780.926 148.567 780.926C150.343 780.926 151.64 780.129 152.458 778.535V771.012C151.62 769.468 150.333 768.696 148.598 768.696C147.225 768.696 146.156 769.226 145.389 770.285C144.622 771.345 144.238 772.914 144.238 774.993ZM169.204 783.303C166.984 783.303 165.177 782.576 163.785 781.123C162.392 779.66 161.696 777.707 161.696 775.265V774.75C161.696 773.126 162.004 771.678 162.619 770.406C163.245 769.125 164.113 768.126 165.223 767.409C166.343 766.683 167.554 766.319 168.855 766.319C170.985 766.319 172.64 767.021 173.82 768.423C175.001 769.826 175.591 771.834 175.591 774.448V775.613H164.496C164.536 777.228 165.006 778.535 165.904 779.534C166.812 780.523 167.962 781.017 169.355 781.017C170.344 781.017 171.181 780.815 171.868 780.412C172.554 780.008 173.154 779.473 173.669 778.807L175.379 780.139C174.007 782.248 171.948 783.303 169.204 783.303ZM168.855 768.62C167.725 768.62 166.777 769.034 166.01 769.861C165.243 770.679 164.769 771.829 164.587 773.312H172.791V773.101C172.71 771.678 172.327 770.578 171.641 769.801C170.954 769.014 170.026 768.62 168.855 768.62ZM195.471 774.993C195.471 777.485 194.9 779.493 193.76 781.017C192.62 782.541 191.076 783.303 189.128 783.303C187.14 783.303 185.576 782.672 184.436 781.411V789.297H181.636V766.622H184.194L184.33 768.438C185.47 767.026 187.055 766.319 189.083 766.319C191.051 766.319 192.605 767.061 193.745 768.544C194.895 770.028 195.471 772.091 195.471 774.735V774.993ZM192.67 774.675C192.67 772.828 192.277 771.37 191.49 770.3C190.703 769.231 189.623 768.696 188.25 768.696C186.555 768.696 185.284 769.448 184.436 770.951V778.777C185.274 780.27 186.555 781.017 188.281 781.017C189.623 781.017 190.687 780.487 191.475 779.428C192.272 778.358 192.67 776.774 192.67 774.675ZM208.629 783.303C206.409 783.303 204.603 782.576 203.21 781.123C201.818 779.66 201.121 777.707 201.121 775.265V774.75C201.121 773.126 201.429 771.678 202.045 770.406C202.67 769.125 203.538 768.126 204.648 767.409C205.768 766.683 206.979 766.319 208.281 766.319C210.41 766.319 212.065 767.021 213.246 768.423C214.427 769.826 215.017 771.834 215.017 774.448V775.613H203.922C203.962 777.228 204.431 778.535 205.329 779.534C206.238 780.523 207.388 781.017 208.781 781.017C209.77 781.017 210.607 780.815 211.293 780.412C211.98 780.008 212.58 779.473 213.095 778.807L214.805 780.139C213.433 782.248 211.374 783.303 208.629 783.303ZM208.281 768.62C207.151 768.62 206.202 769.034 205.435 769.861C204.669 770.679 204.194 771.829 204.013 773.312H212.217V773.101C212.136 771.678 211.752 770.578 211.066 769.801C210.38 769.014 209.452 768.62 208.281 768.62ZM223.71 766.622L223.801 768.681C225.052 767.106 226.687 766.319 228.705 766.319C232.167 766.319 233.912 768.272 233.943 772.177V783H231.142V772.162C231.132 770.981 230.86 770.109 230.325 769.543C229.8 768.978 228.978 768.696 227.858 768.696C226.95 768.696 226.152 768.938 225.466 769.422C224.78 769.907 224.245 770.542 223.862 771.33V783H221.061V766.622H223.71ZM240.275 774.675C240.275 772.162 240.87 770.144 242.061 768.62C243.252 767.086 244.811 766.319 246.738 766.319C248.655 766.319 250.174 766.975 251.294 768.287V759.75H254.095V783H251.521L251.385 781.244C250.265 782.617 248.706 783.303 246.708 783.303C244.811 783.303 243.262 782.526 242.061 780.972C240.87 779.418 240.275 777.389 240.275 774.887V774.675ZM243.075 774.993C243.075 776.849 243.458 778.303 244.225 779.352C244.992 780.402 246.052 780.926 247.404 780.926C249.18 780.926 250.477 780.129 251.294 778.535V771.012C250.457 769.468 249.17 768.696 247.434 768.696C246.062 768.696 244.992 769.226 244.225 770.285C243.458 771.345 243.075 772.914 243.075 774.993ZM264.286 783H261.486V766.622H264.286V783ZM261.259 762.278C261.259 761.824 261.395 761.44 261.668 761.127C261.95 760.815 262.364 760.658 262.909 760.658C263.454 760.658 263.868 760.815 264.15 761.127C264.433 761.44 264.574 761.824 264.574 762.278C264.574 762.732 264.433 763.11 264.15 763.413C263.868 763.716 263.454 763.867 262.909 763.867C262.364 763.867 261.95 763.716 261.668 763.413C261.395 763.11 261.259 762.732 261.259 762.278ZM274.221 766.622L274.312 768.681C275.563 767.106 277.198 766.319 279.216 766.319C282.677 766.319 284.423 768.272 284.453 772.177V783H281.653V772.162C281.643 770.981 281.37 770.109 280.836 769.543C280.311 768.978 279.488 768.696 278.368 768.696C277.46 768.696 276.663 768.938 275.977 769.422C275.291 769.907 274.756 770.542 274.372 771.33V783H271.572V766.622H274.221ZM290.8 774.675C290.8 772.122 291.391 770.093 292.571 768.59C293.752 767.076 295.316 766.319 297.264 766.319C299.262 766.319 300.821 767.026 301.941 768.438L302.077 766.622H304.635V782.606C304.635 784.726 304.005 786.396 302.743 787.617C301.492 788.838 299.807 789.448 297.688 789.448C296.507 789.448 295.352 789.196 294.221 788.691C293.091 788.187 292.228 787.496 291.633 786.618L293.086 784.938C294.287 786.421 295.755 787.163 297.491 787.163C298.853 787.163 299.913 786.779 300.67 786.012C301.437 785.245 301.82 784.166 301.82 782.773V781.365C300.7 782.657 299.171 783.303 297.234 783.303C295.316 783.303 293.762 782.531 292.571 780.987C291.391 779.443 290.8 777.339 290.8 774.675ZM293.616 774.993C293.616 776.839 293.994 778.292 294.751 779.352C295.508 780.402 296.568 780.926 297.93 780.926C299.696 780.926 300.993 780.124 301.82 778.52V771.042C300.962 769.478 299.676 768.696 297.96 768.696C296.598 768.696 295.533 769.226 294.766 770.285C293.999 771.345 293.616 772.914 293.616 774.993ZM321.401 774.66C321.401 773.055 321.714 771.612 322.34 770.331C322.976 769.049 323.854 768.06 324.974 767.364C326.104 766.667 327.391 766.319 328.834 766.319C331.064 766.319 332.865 767.091 334.237 768.635C335.62 770.179 336.311 772.233 336.311 774.796V774.993C336.311 776.587 336.003 778.02 335.388 779.292C334.782 780.553 333.909 781.537 332.769 782.243C331.639 782.95 330.337 783.303 328.864 783.303C326.644 783.303 324.843 782.531 323.46 780.987C322.088 779.443 321.401 777.399 321.401 774.856V774.66ZM324.217 774.993C324.217 776.809 324.636 778.267 325.473 779.367C326.321 780.467 327.451 781.017 328.864 781.017C330.287 781.017 331.417 780.462 332.254 779.352C333.092 778.232 333.511 776.668 333.511 774.66C333.511 772.863 333.082 771.41 332.224 770.3C331.377 769.18 330.246 768.62 328.834 768.62C327.451 768.62 326.336 769.17 325.488 770.27C324.641 771.37 324.217 772.944 324.217 774.993ZM345.262 766.622L345.353 768.681C346.604 767.106 348.239 766.319 350.257 766.319C353.718 766.319 355.464 768.272 355.494 772.177V783H352.694V772.162C352.684 770.981 352.411 770.109 351.877 769.543C351.352 768.978 350.529 768.696 349.409 768.696C348.501 768.696 347.704 768.938 347.018 769.422C346.331 769.907 345.797 770.542 345.413 771.33V783H342.613V766.622H345.262ZM376.786 762.656V766.622H379.844V768.787H376.786V778.943C376.786 779.599 376.922 780.094 377.195 780.427C377.467 780.75 377.931 780.911 378.587 780.911C378.91 780.911 379.354 780.851 379.919 780.729V783C379.183 783.202 378.466 783.303 377.77 783.303C376.519 783.303 375.575 782.924 374.939 782.167C374.304 781.411 373.986 780.336 373.986 778.943V768.787H371.004V766.622H373.986V762.656H376.786ZM388.719 768.605C389.96 767.081 391.574 766.319 393.562 766.319C397.024 766.319 398.769 768.272 398.8 772.177V783H395.999V772.162C395.989 770.981 395.717 770.109 395.182 769.543C394.657 768.978 393.835 768.696 392.715 768.696C391.807 768.696 391.009 768.938 390.323 769.422C389.637 769.907 389.102 770.542 388.719 771.33V783H385.918V759.75H388.719V768.605ZM412.579 783.303C410.359 783.303 408.553 782.576 407.16 781.123C405.767 779.66 405.071 777.707 405.071 775.265V774.75C405.071 773.126 405.379 771.678 405.995 770.406C406.62 769.125 407.488 768.126 408.598 767.409C409.718 766.683 410.929 766.319 412.231 766.319C414.36 766.319 416.015 767.021 417.196 768.423C418.376 769.826 418.967 771.834 418.967 774.448V775.613H407.871C407.912 777.228 408.381 778.535 409.279 779.534C410.187 780.523 411.338 781.017 412.73 781.017C413.719 781.017 414.557 780.815 415.243 780.412C415.929 780.008 416.53 779.473 417.044 778.807L418.755 780.139C417.382 782.248 415.324 783.303 412.579 783.303ZM412.231 768.62C411.101 768.62 410.152 769.034 409.385 769.861C408.618 770.679 408.144 771.829 407.962 773.312H416.166V773.101C416.086 771.678 415.702 770.578 415.016 769.801C414.33 769.014 413.401 768.62 412.231 768.62ZM434.809 774.675C434.809 772.162 435.405 770.144 436.596 768.62C437.786 767.086 439.345 766.319 441.273 766.319C443.19 766.319 444.709 766.975 445.829 768.287V759.75H448.629V783H446.056L445.92 781.244C444.8 782.617 443.241 783.303 441.242 783.303C439.345 783.303 437.796 782.526 436.596 780.972C435.405 779.418 434.809 777.389 434.809 774.887V774.675ZM437.61 774.993C437.61 776.849 437.993 778.303 438.76 779.352C439.527 780.402 440.587 780.926 441.939 780.926C443.715 780.926 445.012 780.129 445.829 778.535V771.012C444.991 769.468 443.705 768.696 441.969 768.696C440.597 768.696 439.527 769.226 438.76 770.285C437.993 771.345 437.61 772.914 437.61 774.993ZM458.821 783H456.021V766.622H458.821V783ZM455.794 762.278C455.794 761.824 455.93 761.44 456.202 761.127C456.485 760.815 456.899 760.658 457.444 760.658C457.989 760.658 458.402 760.815 458.685 761.127C458.967 761.44 459.109 761.824 459.109 762.278C459.109 762.732 458.967 763.11 458.685 763.413C458.402 763.716 457.989 763.867 457.444 763.867C456.899 763.867 456.485 763.716 456.202 763.413C455.93 763.11 455.794 762.732 455.794 762.278ZM474.023 769.135C473.599 769.064 473.14 769.029 472.646 769.029C470.809 769.029 469.563 769.811 468.907 771.375V783H466.107V766.622H468.831L468.877 768.514C469.795 767.051 471.097 766.319 472.782 766.319C473.327 766.319 473.741 766.39 474.023 766.531V769.135ZM485.895 783.303C483.675 783.303 481.869 782.576 480.476 781.123C479.084 779.66 478.387 777.707 478.387 775.265V774.75C478.387 773.126 478.695 771.678 479.311 770.406C479.936 769.125 480.804 768.126 481.914 767.409C483.034 766.683 484.245 766.319 485.547 766.319C487.676 766.319 489.331 767.021 490.512 768.423C491.693 769.826 492.283 771.834 492.283 774.448V775.613H481.188C481.228 777.228 481.697 778.535 482.595 779.534C483.504 780.523 484.654 781.017 486.047 781.017C487.036 781.017 487.873 780.815 488.559 780.412C489.245 780.008 489.846 779.473 490.361 778.807L492.071 780.139C490.699 782.248 488.64 783.303 485.895 783.303ZM485.547 768.62C484.417 768.62 483.468 769.034 482.701 769.861C481.934 770.679 481.46 771.829 481.279 773.312H489.483V773.101C489.402 771.678 489.018 770.578 488.332 769.801C487.646 769.014 486.718 768.62 485.547 768.62ZM504.897 781.017C505.896 781.017 506.769 780.714 507.515 780.109C508.262 779.503 508.676 778.747 508.757 777.838H511.405C511.355 778.777 511.032 779.67 510.437 780.518C509.841 781.365 509.044 782.041 508.045 782.546C507.056 783.05 506.007 783.303 504.897 783.303C502.666 783.303 500.89 782.561 499.569 781.078C498.257 779.584 497.601 777.546 497.601 774.962V774.493C497.601 772.899 497.893 771.481 498.479 770.24C499.064 768.999 499.902 768.035 500.991 767.349C502.091 766.662 503.388 766.319 504.882 766.319C506.718 766.319 508.242 766.869 509.453 767.969C510.674 769.069 511.325 770.497 511.405 772.253H508.757C508.676 771.193 508.272 770.326 507.546 769.649C506.829 768.963 505.941 768.62 504.882 768.62C503.459 768.62 502.354 769.135 501.567 770.164C500.79 771.183 500.401 772.662 500.401 774.599V775.129C500.401 777.016 500.79 778.469 501.567 779.488C502.344 780.507 503.454 781.017 504.897 781.017ZM521.143 762.656V766.622H524.201V768.787H521.143V778.943C521.143 779.599 521.279 780.094 521.552 780.427C521.824 780.75 522.289 780.911 522.944 780.911C523.267 780.911 523.711 780.851 524.276 780.729V783C523.54 783.202 522.823 783.303 522.127 783.303C520.876 783.303 519.932 782.924 519.297 782.167C518.661 781.411 518.343 780.336 518.343 778.943V768.787H515.361V766.622H518.343V762.656H521.143ZM533.318 783H530.518V766.622H533.318V783ZM530.291 762.278C530.291 761.824 530.427 761.44 530.699 761.127C530.982 760.815 531.396 760.658 531.941 760.658C532.485 760.658 532.899 760.815 533.182 761.127C533.464 761.44 533.606 761.824 533.606 762.278C533.606 762.732 533.464 763.11 533.182 763.413C532.899 763.716 532.485 763.867 531.941 763.867C531.396 763.867 530.982 763.716 530.699 763.413C530.427 763.11 530.291 762.732 530.291 762.278ZM539.862 774.66C539.862 773.055 540.175 771.612 540.8 770.331C541.436 769.049 542.314 768.06 543.434 767.364C544.564 766.667 545.851 766.319 547.294 766.319C549.524 766.319 551.325 767.091 552.698 768.635C554.08 770.179 554.772 772.233 554.772 774.796V774.993C554.772 776.587 554.464 778.02 553.848 779.292C553.243 780.553 552.37 781.537 551.23 782.243C550.099 782.95 548.798 783.303 547.324 783.303C545.104 783.303 543.303 782.531 541.92 780.987C540.548 779.443 539.862 777.399 539.862 774.856V774.66ZM542.677 774.993C542.677 776.809 543.096 778.267 543.934 779.367C544.781 780.467 545.911 781.017 547.324 781.017C548.747 781.017 549.877 780.462 550.715 779.352C551.552 778.232 551.971 776.668 551.971 774.66C551.971 772.863 551.542 771.41 550.685 770.3C549.837 769.18 548.707 768.62 547.294 768.62C545.911 768.62 544.796 769.17 543.949 770.27C543.101 771.37 542.677 772.944 542.677 774.993ZM563.722 766.622L563.813 768.681C565.064 767.106 566.699 766.319 568.717 766.319C572.179 766.319 573.924 768.272 573.955 772.177V783H571.154V772.162C571.144 770.981 570.872 770.109 570.337 769.543C569.812 768.978 568.99 768.696 567.87 768.696C566.961 768.696 566.164 768.938 565.478 769.422C564.792 769.907 564.257 770.542 563.874 771.33V783H561.073V766.622H563.722ZM581.028 781.532C581.028 781.047 581.17 780.644 581.452 780.321C581.745 779.998 582.179 779.836 582.754 779.836C583.329 779.836 583.763 779.998 584.056 780.321C584.358 780.644 584.51 781.047 584.51 781.532C584.51 781.996 584.358 782.384 584.056 782.697C583.763 783.01 583.329 783.167 582.754 783.167C582.179 783.167 581.745 783.01 581.452 782.697C581.17 782.384 581.028 781.996 581.028 781.532Z" fill="black"/>
</g>
</g>
</g>
</svg>
