<svg width="1366" height="1024" viewBox="0 0 1366 1024" fill="none" xmlns="http://www.w3.org/2000/svg">
<g id="3d-shapes">
<g id="step s-multistep-brush">
<g id="input">
<g id="ref">
<path id="Vector 1" d="M682 192V847" stroke="#CBD8F1" stroke-width="8" stroke-linecap="round" stroke-linejoin="round"/>
<path id="Vector 2" d="M334.878 692.005L682.101 847.435" stroke="#CBD8F1" stroke-width="8" stroke-linecap="round" stroke-linejoin="round"/>
<path id="Vector 5" d="M658 244L682.242 177L708 244" stroke="#CBD8F1" stroke-width="8" stroke-linecap="round" stroke-linejoin="round"/>
<path id="Vector 6" d="M357.853 731.434L325.529 686.365L381.632 688.02" stroke="#CBD8F1" stroke-width="8" stroke-linecap="round" stroke-linejoin="round"/>
<path id="Vector 8" d="M1030.22 691.005L683 846.435" stroke="#CBD8F1" stroke-width="8" stroke-linecap="round" stroke-linejoin="round"/>
<path id="Vector 9" d="M1007.25 730.434L1039.57 685.365L983.469 687.02" stroke="#CBD8F1" stroke-width="8" stroke-linecap="round" stroke-linejoin="round"/>
</g>
<g id="ref2">
<path id="d" d="M682 554V827.5" stroke="#CBD8F1" stroke-width="8" stroke-linecap="round"/>
<path id="d_2" d="M548 704C548 704 588.341 767.5 681.5 767.5C779.5 767.5 819 704 819 704" stroke="#CBD8F1" stroke-width="8" stroke-linecap="round"/>
<path id="d_3" d="M556.5 641C556.5 641 588.841 700 682 700C775.159 700 808 641 808 641" stroke="#CBD8F1" stroke-width="8" stroke-linecap="round"/>
<path id="fd" d="M591 589.5C591 589.5 612.994 629.5 682 629.5C751.006 629.5 771 589.5 771 589.5" stroke="#CBD8F1" stroke-width="8" stroke-linecap="round"/>
<circle id="d_4" cx="683" cy="691" r="141" stroke="#CBD8F1" stroke-width="8"/>
</g>
<path id="draw-line rgb-template" d="M720.834 559C720.834 559 776.333 589.5 792.833 672C809.338 754.523 743.834 816.5 743.834 816.5" stroke="#6685D4" stroke-width="8" stroke-linecap="round"/>
<path id="draw-line rgb-template_2" d="M696.834 550.5C696.834 550.5 732.334 617.5 739.834 694C747.59 773.121 714.334 827 714.334 827" stroke="#6685D4" stroke-width="8" stroke-linecap="round"/>
<path id="draw-line rgb-template_3" d="M668.5 550.5C668.5 550.5 633 617.5 625.5 694C617.743 773.121 651 827 651 827" stroke="#6685D4" stroke-width="8" stroke-linecap="round"/>
<path id="draw-line rgb-template_4" d="M644.5 559C644.5 559 589 589.5 572.5 672C555.996 754.523 621.5 816.5 621.5 816.5" stroke="#6685D4" stroke-width="8" stroke-linecap="round"/>
</g>
</g>
<g id="step s-multistep-brush_2">
<g id="input_2">
<g id="ref_2">
<path id="Vector 1_2" d="M682 192V847" stroke="#CBD8F1" stroke-width="8" stroke-linecap="round" stroke-linejoin="round"/>
<path id="Vector 2_2" d="M334.878 692.005L682.101 847.435" stroke="#CBD8F1" stroke-width="8" stroke-linecap="round" stroke-linejoin="round"/>
<path id="Vector 5_2" d="M658 244L682.242 177L708 244" stroke="#CBD8F1" stroke-width="8" stroke-linecap="round" stroke-linejoin="round"/>
<path id="Vector 6_2" d="M357.853 731.434L325.529 686.365L381.632 688.02" stroke="#CBD8F1" stroke-width="8" stroke-linecap="round" stroke-linejoin="round"/>
<path id="Vector 8_2" d="M1030.22 691.005L683 846.435" stroke="#CBD8F1" stroke-width="8" stroke-linecap="round" stroke-linejoin="round"/>
<path id="Vector 9_2" d="M1007.25 730.434L1039.57 685.365L983.469 687.02" stroke="#CBD8F1" stroke-width="8" stroke-linecap="round" stroke-linejoin="round"/>
</g>
<g id="ref1">
<path id="Vector 10" d="M472.853 563.434L440.529 518.365L496.632 520.02" stroke="#CBD8F1" stroke-width="8" stroke-linecap="round" stroke-linejoin="round"/>
<path id="Vector 11" d="M892.248 562.434L924.571 517.365L868.469 519.02" stroke="#CBD8F1" stroke-width="8" stroke-linecap="round" stroke-linejoin="round"/>
<path id="Vector 31" d="M472.853 699.434L440.529 654.365L496.632 656.02" stroke="#CBD8F1" stroke-width="8" stroke-linecap="round" stroke-linejoin="round"/>
<path id="Vector 32" d="M892.248 698.434L924.571 653.365L868.469 655.02" stroke="#CBD8F1" stroke-width="8" stroke-linecap="round" stroke-linejoin="round"/>
<path id="Vector 33" d="M472.853 632.434L440.529 587.365L496.632 589.02" stroke="#CBD8F1" stroke-width="8" stroke-linecap="round" stroke-linejoin="round"/>
<path id="Vector 34" d="M892.248 631.434L924.571 586.365L868.469 588.02" stroke="#CBD8F1" stroke-width="8" stroke-linecap="round" stroke-linejoin="round"/>
<path id="Vector 10_2" d="M452.344 525.662L682.374 628.633" stroke="#CBD8F1" stroke-width="8" stroke-linecap="round" stroke-linejoin="round"/>
<path id="Vector 11_2" d="M913 525L682.97 627.97" stroke="#CBD8F1" stroke-width="8" stroke-linecap="round" stroke-linejoin="round"/>
<path id="Vector 27" d="M452.344 594.662L682.374 697.633" stroke="#CBD8F1" stroke-width="8" stroke-linecap="round" stroke-linejoin="round"/>
<path id="Vector 28" d="M913 594L682.97 696.97" stroke="#CBD8F1" stroke-width="8" stroke-linecap="round" stroke-linejoin="round"/>
<path id="Vector 29" d="M452.344 661.662L682.374 764.633" stroke="#CBD8F1" stroke-width="8" stroke-linecap="round" stroke-linejoin="round"/>
<path id="Vector 30" d="M913 661L682.97 763.97" stroke="#CBD8F1" stroke-width="8" stroke-linecap="round" stroke-linejoin="round"/>
</g>
<circle id="d_5" cx="683" cy="691" r="141" stroke="#CBD8F1" stroke-width="8"/>
<path id="d_6" d="M682 554V827.5" stroke="#CBD8F1" stroke-width="8" stroke-linecap="round"/>
<path id="draw-line d2 rgb-template" d="M548 704C548 704 588.341 767.5 681.5 767.5C779.5 767.5 819 704 819 704" stroke="#6685D4" stroke-width="8" stroke-linecap="round"/>
<path id="draw-line d1 rgb-template" d="M556.5 641C556.5 641 588.841 700 682 700C775.159 700 808 641 808 641" stroke="#6685D4" stroke-width="8" stroke-linecap="round"/>
<path id="draw-line rgb-template_5" d="M591 589.5C591 589.5 612.994 629.5 682 629.5C751.006 629.5 771 589.5 771 589.5" stroke="#6685D4" stroke-width="8" stroke-linecap="round"/>
</g>
</g>
<g id="step s-multistep-first-brush sphere">
<g id="input_3">
<g id="ref_3">
<path id="Vector 1_3" d="M682 192V847" stroke="#CBD8F1" stroke-width="8" stroke-linecap="round" stroke-linejoin="round"/>
<path id="Vector 2_3" d="M334.878 692.005L682.101 847.435" stroke="#CBD8F1" stroke-width="8" stroke-linecap="round" stroke-linejoin="round"/>
<path id="Vector 5_3" d="M658 244L682.242 177L708 244" stroke="#CBD8F1" stroke-width="8" stroke-linecap="round" stroke-linejoin="round"/>
<path id="Vector 6_3" d="M357.853 731.434L325.529 686.365L381.632 688.02" stroke="#CBD8F1" stroke-width="8" stroke-linecap="round" stroke-linejoin="round"/>
<path id="Vector 8_3" d="M1030.22 691.005L683 846.435" stroke="#CBD8F1" stroke-width="8" stroke-linecap="round" stroke-linejoin="round"/>
<path id="Vector 9_3" d="M1007.25 730.434L1039.57 685.365L983.469 687.02" stroke="#CBD8F1" stroke-width="8" stroke-linecap="round" stroke-linejoin="round"/>
</g>
<circle id="draw-line d1 rgb-template_2" cx="683" cy="691" r="141" stroke="#6685D4" stroke-width="8" stroke-linecap="round" stroke-linejoin="round"/>
</g>
</g>
<g id="step s-multistep-brush_3">
<g id="input_4">
<g id="ref_4">
<path id="Vector 1_4" d="M682 192V847" stroke="#CBD8F1" stroke-width="8" stroke-linecap="round" stroke-linejoin="round"/>
<path id="Vector 2_4" d="M334.878 692.005L682.101 847.435" stroke="#CBD8F1" stroke-width="8" stroke-linecap="round" stroke-linejoin="round"/>
<path id="Vector 5_4" d="M658 244L682.242 177L708 244" stroke="#CBD8F1" stroke-width="8" stroke-linecap="round" stroke-linejoin="round"/>
<path id="Vector 6_4" d="M357.853 731.434L325.529 686.365L381.632 688.02" stroke="#CBD8F1" stroke-width="8" stroke-linecap="round" stroke-linejoin="round"/>
<path id="Vector 8_4" d="M1030.22 691.005L683 846.435" stroke="#CBD8F1" stroke-width="8" stroke-linecap="round" stroke-linejoin="round"/>
<path id="Vector 9_4" d="M1007.25 730.434L1039.57 685.365L983.469 687.02" stroke="#CBD8F1" stroke-width="8" stroke-linecap="round" stroke-linejoin="round"/>
</g>
<path id="d_7" d="M683 565L908.5 463V745L683 847V565Z" stroke="#CBD8F1" stroke-width="8" stroke-linecap="round" stroke-linejoin="round"/>
<path id="d_8" d="M682.5 565L457 463V745L682.5 847" stroke="#CBD8F1" stroke-width="8" stroke-linecap="round" stroke-linejoin="round"/>
<path id="draw-line rgb-template_6" d="M458.5 464.5L680.5 375.5L907.5 462.5" stroke="#6685D4" stroke-width="8" stroke-linecap="round" stroke-linejoin="round"/>
</g>
</g>
<g id="step s-multistep-brush_4">
<g id="input_5">
<g id="ref_5">
<path id="Vector 1_5" d="M682 192V847" stroke="#CBD8F1" stroke-width="8" stroke-linecap="round" stroke-linejoin="round"/>
<path id="Vector 2_5" d="M334.878 692.005L682.101 847.435" stroke="#CBD8F1" stroke-width="8" stroke-linecap="round" stroke-linejoin="round"/>
<path id="Vector 5_5" d="M658 244L682.242 177L708 244" stroke="#CBD8F1" stroke-width="8" stroke-linecap="round" stroke-linejoin="round"/>
<path id="Vector 6_5" d="M357.853 731.434L325.529 686.365L381.632 688.02" stroke="#CBD8F1" stroke-width="8" stroke-linecap="round" stroke-linejoin="round"/>
<path id="Vector 8_5" d="M1030.22 691.005L683 846.435" stroke="#CBD8F1" stroke-width="8" stroke-linecap="round" stroke-linejoin="round"/>
<path id="Vector 9_5" d="M1007.25 730.434L1039.57 685.365L983.469 687.02" stroke="#CBD8F1" stroke-width="8" stroke-linecap="round" stroke-linejoin="round"/>
</g>
<path id="d_9" d="M683 565L908.5 463V745L683 847V565Z" stroke="#CBD8F1" stroke-width="8" stroke-linecap="round" stroke-linejoin="round"/>
<path id="draw-line rgb-template_7" d="M682.5 565L457 463V745L682.5 847" stroke="#6685D4" stroke-width="8" stroke-linecap="round" stroke-linejoin="round"/>
</g>
</g>
<g id="step s-multistep-first-brush diag-cube">
<g id="input_6">
<g id="ref_6">
<path id="Vector 1_6" d="M682 192V847" stroke="#CBD8F1" stroke-width="8" stroke-linecap="round" stroke-linejoin="round"/>
<path id="Vector 2_6" d="M334.878 692.005L682.101 847.435" stroke="#CBD8F1" stroke-width="8" stroke-linecap="round" stroke-linejoin="round"/>
<path id="Vector 5_6" d="M658 244L682.242 177L708 244" stroke="#CBD8F1" stroke-width="8" stroke-linecap="round" stroke-linejoin="round"/>
<path id="Vector 6_6" d="M357.853 731.434L325.529 686.365L381.632 688.02" stroke="#CBD8F1" stroke-width="8" stroke-linecap="round" stroke-linejoin="round"/>
<path id="Vector 8_6" d="M1030.22 691.005L683 846.435" stroke="#CBD8F1" stroke-width="8" stroke-linecap="round" stroke-linejoin="round"/>
<path id="Vector 9_6" d="M1007.25 730.434L1039.57 685.365L983.469 687.02" stroke="#CBD8F1" stroke-width="8" stroke-linecap="round" stroke-linejoin="round"/>
</g>
<path id="draw-line rgb-template_8" d="M683 565L908.5 463V745L683 847V565Z" stroke="#6685D4" stroke-width="8" stroke-linecap="round" stroke-linejoin="round"/>
</g>
</g>
<g id="step s-multistep-brush_5">
<g id="input_7">
<g id="ref_7">
<path id="Vector 1_7" d="M682 192V847" stroke="#CBD8F1" stroke-width="8" stroke-linecap="round" stroke-linejoin="round"/>
<path id="Vector 2_7" d="M334.878 692.005L682.101 847.435" stroke="#CBD8F1" stroke-width="8" stroke-linecap="round" stroke-linejoin="round"/>
<path id="Vector 5_7" d="M658 244L682.242 177L708 244" stroke="#CBD8F1" stroke-width="8" stroke-linecap="round" stroke-linejoin="round"/>
<path id="Vector 6_7" d="M357.853 731.434L325.529 686.365L381.632 688.02" stroke="#CBD8F1" stroke-width="8" stroke-linecap="round" stroke-linejoin="round"/>
<path id="Vector 8_7" d="M1030.22 691.005L683 846.435" stroke="#CBD8F1" stroke-width="8" stroke-linecap="round" stroke-linejoin="round"/>
<path id="Vector 9_7" d="M1007.25 730.434L1039.57 685.365L983.469 687.02" stroke="#CBD8F1" stroke-width="8" stroke-linecap="round" stroke-linejoin="round"/>
</g>
<path id="d_10" d="M683 362V846L967.5 719L684 362.5" stroke="#CBD8F1" stroke-width="8" stroke-linecap="round" stroke-linejoin="round"/>
<path id="draw-line rgb-template flip" d="M683.5 846L399 719L682.5 362.5" stroke="#6685D4" stroke-width="8" stroke-linecap="round" stroke-linejoin="round"/>
</g>
</g>
<g id="step s-multistep-first-brush triangle">
<g id="input_8">
<g id="ref_8">
<path id="Vector 1_8" d="M682 192V847" stroke="#CBD8F1" stroke-width="8" stroke-linecap="round" stroke-linejoin="round"/>
<path id="Vector 2_8" d="M334.878 692.005L682.101 847.435" stroke="#CBD8F1" stroke-width="8" stroke-linecap="round" stroke-linejoin="round"/>
<path id="Vector 5_8" d="M658 244L682.242 177L708 244" stroke="#CBD8F1" stroke-width="8" stroke-linecap="round" stroke-linejoin="round"/>
<path id="Vector 6_8" d="M357.853 731.434L325.529 686.365L381.632 688.02" stroke="#CBD8F1" stroke-width="8" stroke-linecap="round" stroke-linejoin="round"/>
<path id="Vector 8_8" d="M1030.22 691.005L683 846.435" stroke="#CBD8F1" stroke-width="8" stroke-linecap="round" stroke-linejoin="round"/>
<path id="Vector 9_8" d="M1007.25 730.434L1039.57 685.365L983.469 687.02" stroke="#CBD8F1" stroke-width="8" stroke-linecap="round" stroke-linejoin="round"/>
</g>
<path id="draw-line rgb-template_9" d="M683 362V846L967.5 719L684 362.5" stroke="#6685D4" stroke-width="8" stroke-linecap="round" stroke-linejoin="round"/>
</g>
</g>
<g id="step s-multistep-brush shadow-size-35">
<g id="input_9">
<g id="ref_9">
<path id="Vector 1_9" d="M581.275 262.5V748.5" stroke="#CBD8F1" stroke-width="8" stroke-linecap="round" stroke-linejoin="round"/>
<path id="Vector 2_9" d="M313 479.631L582 748.631" stroke="#CBD8F1" stroke-width="8" stroke-linecap="round" stroke-linejoin="round"/>
<path id="Vector 4" d="M1067.78 748.5L581.775 748.5" stroke="#CBD8F1" stroke-width="8" stroke-linecap="round" stroke-linejoin="round"/>
<path id="Vector 5_9" d="M557 301L581 251L606.5 301" stroke="#CBD8F1" stroke-width="8" stroke-linecap="round" stroke-linejoin="round"/>
<path id="Vector 6_9" d="M320.409 524.659L306.276 471.028L358.103 492.575" stroke="#CBD8F1" stroke-width="8" stroke-linecap="round" stroke-linejoin="round"/>
<path id="Vector 7" d="M1027 723.5L1077 747.5L1027 773" stroke="#CBD8F1" stroke-width="8" stroke-linecap="round" stroke-linejoin="round"/>
</g>
<g id="ref_10">
<path id="&#208;&#178;" d="M849 748.799V481.092H581.293V748.799H847.801" stroke="#6685D4" stroke-width="8" stroke-linecap="round" stroke-linejoin="round"/>
<path id="&#208;&#178;_2" d="M581.293 481.092L483.266 382.799V650.507L581.293 748.799" stroke="#6685D4" stroke-width="8" stroke-linecap="round" stroke-linejoin="round"/>
<path id="&#208;&#178;_3" d="M849 478.694L750.707 382H483L581.293 478.694" stroke="#6685D4" stroke-width="8" stroke-linecap="round" stroke-linejoin="round"/>
</g>
<path id="d_11" d="M849 748.799V481.092H581.293V748.799H847.801" stroke="#CBD8F1" stroke-width="8" stroke-linecap="round" stroke-linejoin="round"/>
<path id="d_12" d="M581.293 481.092L483.266 382.799V650.507L581.293 748.799" stroke="#CBD8F1" stroke-width="8" stroke-linecap="round" stroke-linejoin="round"/>
<path id="d_13" d="M849 478.694L750.707 382H483L581.293 478.694" stroke="#CBD8F1" stroke-width="8" stroke-linecap="round" stroke-linejoin="round"/>
<path id="draw-line rgb-template_10" d="M505 403.5H772" stroke="#6685D4" stroke-width="8" stroke-linecap="round"/>
<path id="draw-line rgb-template_11" d="M532 430H799" stroke="#6685D4" stroke-width="8" stroke-linecap="round"/>
<path id="draw-line rgb-template_12" d="M559 457H826" stroke="#6685D4" stroke-width="8" stroke-linecap="round"/>
</g>
</g>
<g id="step s-multistep-brush shadow-size-30">
<g id="input_10">
<g id="ref_11">
<path id="Vector 1_10" d="M581.275 262.5V748.5" stroke="#CBD8F1" stroke-width="8" stroke-linecap="round" stroke-linejoin="round"/>
<path id="Vector 2_10" d="M313 479.631L582 748.631" stroke="#CBD8F1" stroke-width="8" stroke-linecap="round" stroke-linejoin="round"/>
<path id="Vector 4_2" d="M1067.78 748.5L581.775 748.5" stroke="#CBD8F1" stroke-width="8" stroke-linecap="round" stroke-linejoin="round"/>
<path id="Vector 5_10" d="M557 301L581 251L606.5 301" stroke="#CBD8F1" stroke-width="8" stroke-linecap="round" stroke-linejoin="round"/>
<path id="Vector 6_10" d="M320.409 524.659L306.276 471.028L358.103 492.575" stroke="#CBD8F1" stroke-width="8" stroke-linecap="round" stroke-linejoin="round"/>
<path id="Vector 7_2" d="M1027 723.5L1077 747.5L1027 773" stroke="#CBD8F1" stroke-width="8" stroke-linecap="round" stroke-linejoin="round"/>
</g>
<path id="d_14" d="M849 748.799V481.092H581.293V748.799H847.801" stroke="#CBD8F1" stroke-width="8" stroke-linecap="round" stroke-linejoin="round"/>
<path id="d_15" d="M581.293 481.092L483.266 382.799V650.507L581.293 748.799" stroke="#CBD8F1" stroke-width="8" stroke-linecap="round" stroke-linejoin="round"/>
<path id="d_16" d="M849 478.694L750.707 382H483L581.293 478.694" stroke="#CBD8F1" stroke-width="8" stroke-linecap="round" stroke-linejoin="round"/>
<g id="f rgb-template">
<path id="draw-line" d="M580 746.5L484.5 386" stroke="#6685D4" stroke-width="8" stroke-linecap="round"/>
<path id="draw-line_2" d="M580 671L513 418" stroke="#6685D4" stroke-width="8" stroke-linecap="round"/>
<path id="draw-line_3" d="M580 581L543 445" stroke="#6685D4" stroke-width="8" stroke-linecap="round"/>
<path id="draw-line_4" d="M547 708L483 470" stroke="#6685D4" stroke-width="8" stroke-linecap="round"/>
<path id="draw-line_5" d="M516 682L483 558" stroke="#6685D4" stroke-width="8" stroke-linecap="round"/>
</g>
</g>
</g>
<g id="step s-multistep-brush shadow-size-35_2">
<g id="input_11">
<g id="ref_12">
<path id="Vector 1_11" d="M581.275 262.5V748.5" stroke="#CBD8F1" stroke-width="8" stroke-linecap="round" stroke-linejoin="round"/>
<path id="Vector 2_11" d="M313 479.631L582 748.631" stroke="#CBD8F1" stroke-width="8" stroke-linecap="round" stroke-linejoin="round"/>
<path id="Vector 4_3" d="M1067.78 748.5L581.775 748.5" stroke="#CBD8F1" stroke-width="8" stroke-linecap="round" stroke-linejoin="round"/>
<path id="Vector 5_11" d="M557 301L581 251L606.5 301" stroke="#CBD8F1" stroke-width="8" stroke-linecap="round" stroke-linejoin="round"/>
<path id="Vector 6_11" d="M320.409 524.659L306.276 471.028L358.103 492.575" stroke="#CBD8F1" stroke-width="8" stroke-linecap="round" stroke-linejoin="round"/>
<path id="Vector 7_3" d="M1027 723.5L1077 747.5L1027 773" stroke="#CBD8F1" stroke-width="8" stroke-linecap="round" stroke-linejoin="round"/>
</g>
<path id="d_17" d="M849 748.799V481.092H581.293V748.799H847.801" stroke="#CBD8F1" stroke-width="8" stroke-linecap="round" stroke-linejoin="round"/>
<path id="d_18" d="M581.293 481.092L483.266 382.799V650.507L581.293 748.799" stroke="#CBD8F1" stroke-width="8" stroke-linecap="round" stroke-linejoin="round"/>
<path id="d_19" d="M849 478.694L750.707 382H483L581.293 478.694" stroke="#CBD8F1" stroke-width="8" stroke-linecap="round" stroke-linejoin="round"/>
<g id="f rgb-template_2">
<path id="draw-line_6" d="M583 746L846 482" stroke="#6685D4" stroke-width="8" stroke-linecap="round"/>
<path id="draw-line_7" d="M627 746L847 525" stroke="#6685D4" stroke-width="8" stroke-linecap="round"/>
<path id="draw-line_8" d="M677 746L846 576" stroke="#6685D4" stroke-width="8" stroke-linecap="round"/>
<path id="draw-line_9" d="M724 746L847 622" stroke="#6685D4" stroke-width="8" stroke-linecap="round"/>
<path id="draw-line_10" d="M770 746L848 667" stroke="#6685D4" stroke-width="8" stroke-linecap="round"/>
<path id="draw-line_11" d="M810 746L849 707" stroke="#6685D4" stroke-width="8" stroke-linecap="round"/>
<path id="draw-line_12" d="M796 482L584 695" stroke="#6685D4" stroke-width="8" stroke-linecap="round"/>
<path id="draw-line_13" d="M749 482L585 647" stroke="#6685D4" stroke-width="8" stroke-linecap="round"/>
<path id="draw-line_14" d="M704 482L584 602" stroke="#6685D4" stroke-width="8" stroke-linecap="round"/>
<path id="draw-line_15" d="M659 482L583 558" stroke="#6685D4" stroke-width="8" stroke-linecap="round"/>
<path id="draw-line_16" d="M620 482L582 520" stroke="#6685D4" stroke-width="8" stroke-linecap="round"/>
</g>
</g>
</g>
<g id="step s-multistep-brush_6">
<g id="input_12">
<g id="ref_13">
<path id="Vector 1_12" d="M581.275 262.5V748.5" stroke="#CBD8F1" stroke-width="8" stroke-linecap="round" stroke-linejoin="round"/>
<path id="Vector 2_12" d="M313 479.631L582 748.631" stroke="#CBD8F1" stroke-width="8" stroke-linecap="round" stroke-linejoin="round"/>
<path id="Vector 4_4" d="M1067.78 748.5L581.775 748.5" stroke="#CBD8F1" stroke-width="8" stroke-linecap="round" stroke-linejoin="round"/>
<path id="Vector 5_12" d="M557 301L581 251L606.5 301" stroke="#CBD8F1" stroke-width="8" stroke-linecap="round" stroke-linejoin="round"/>
<path id="Vector 6_12" d="M320.409 524.659L306.276 471.028L358.103 492.575" stroke="#CBD8F1" stroke-width="8" stroke-linecap="round" stroke-linejoin="round"/>
<path id="Vector 7_4" d="M1027 723.5L1077 747.5L1027 773" stroke="#CBD8F1" stroke-width="8" stroke-linecap="round" stroke-linejoin="round"/>
</g>
<path id="d_20" d="M849 748.799V481.092H581.293V748.799H847.801" stroke="#CBD8F1" stroke-width="8" stroke-linecap="round" stroke-linejoin="round"/>
<path id="d_21" d="M581.293 481.092L483.266 382.799V650.507L581.293 748.799" stroke="#CBD8F1" stroke-width="8" stroke-linecap="round" stroke-linejoin="round"/>
<path id="draw-line rgb-template_13" d="M483 382H750.707L849 478.694" stroke="#6685D4" stroke-width="8" stroke-linecap="round" stroke-linejoin="round"/>
</g>
</g>
<g id="step s-multistep-brush_7">
<g id="input_13">
<g id="ref_14">
<path id="Vector 1_13" d="M581.275 262.5V748.5" stroke="#CBD8F1" stroke-width="8" stroke-linecap="round" stroke-linejoin="round"/>
<path id="Vector 2_13" d="M313 479.631L582 748.631" stroke="#CBD8F1" stroke-width="8" stroke-linecap="round" stroke-linejoin="round"/>
<path id="Vector 4_5" d="M1067.78 748.5L581.775 748.5" stroke="#CBD8F1" stroke-width="8" stroke-linecap="round" stroke-linejoin="round"/>
<path id="Vector 5_13" d="M557 301L581 251L606.5 301" stroke="#CBD8F1" stroke-width="8" stroke-linecap="round" stroke-linejoin="round"/>
<path id="Vector 6_13" d="M320.409 524.659L306.276 471.028L358.103 492.575" stroke="#CBD8F1" stroke-width="8" stroke-linecap="round" stroke-linejoin="round"/>
<path id="Vector 7_5" d="M1027 723.5L1077 747.5L1027 773" stroke="#CBD8F1" stroke-width="8" stroke-linecap="round" stroke-linejoin="round"/>
</g>
<path id="d_22" d="M849 748.799V481.092H581.293V748.799H847.801" stroke="#CBD8F1" stroke-width="8" stroke-linecap="round" stroke-linejoin="round"/>
<path id="draw-line rgb-template_14" d="M581.293 481.092L483.266 382.799V650.507L581.293 748.799" stroke="#6685D4" stroke-width="8" stroke-linecap="round" stroke-linejoin="round"/>
</g>
</g>
<g id="step s-multistep-first-brush">
<g id="input ">
<g id="ref_15">
<path id="Vector 1_14" d="M581.275 262.5V748.5" stroke="#CBD8F1" stroke-width="8" stroke-linecap="round" stroke-linejoin="round"/>
<path id="Vector 2_14" d="M313 479.631L582 748.631" stroke="#CBD8F1" stroke-width="8" stroke-linecap="round" stroke-linejoin="round"/>
<path id="Vector 4_6" d="M1067.78 748.5L581.775 748.5" stroke="#CBD8F1" stroke-width="8" stroke-linecap="round" stroke-linejoin="round"/>
<path id="Vector 5_14" d="M557 301L581 251L606.5 301" stroke="#CBD8F1" stroke-width="8" stroke-linecap="round" stroke-linejoin="round"/>
<path id="Vector 6_14" d="M320.409 524.659L306.276 471.028L358.103 492.575" stroke="#CBD8F1" stroke-width="8" stroke-linecap="round" stroke-linejoin="round"/>
<path id="Vector 7_6" d="M1027 723.5L1077 747.5L1027 773" stroke="#CBD8F1" stroke-width="8" stroke-linecap="round" stroke-linejoin="round"/>
</g>
<path id="draw-line flip rgb-template" d="M581.293 481.092L581.293 748.799L849 748.799L849 481.092L582.491 481.092" stroke="#6685D4" stroke-width="8" stroke-linecap="round" stroke-linejoin="round"/>
</g>
</g>
</g>
</svg>
