<svg width="1366" height="1024" viewBox="0 0 1366 1024" fill="none" xmlns="http://www.w3.org/2000/svg">
<g id="balloon" clip-path="url(#clip0)">
<g id="step s-multistep-result">
<g id="input">
<rect id="appear d1" x="1220.5" y="887.5" width="95" height="95" stroke="#999999" stroke-width="5"/>
<path id="draw-line d2" d="M1234 929C1263.2 960.2 1263 970.5 1263 970.5C1263 970.5 1292 897 1314 871" stroke="#0000FF" stroke-opacity="0.1" stroke-width="10" stroke-linecap="round" stroke-linejoin="round"/>
</g>
<g id="template">
<rect id="Rectangle 6" x="1193" y="860" width="150" height="150" fill="#FF0000" stroke="#00FF00" stroke-width="50"/>
</g>
</g>
<g id="step s-multistep-brush">
<g id="input_2">
<g id="ref">
<path id="d" d="M567.496 606.084L402.996 874.584" stroke="#CBD8F1" stroke-width="8" stroke-linecap="round" stroke-linejoin="round"/>
<path id="d_2" d="M947.996 609.584L1112.5 842.084" stroke="#CBD8F1" stroke-width="8" stroke-linecap="round" stroke-linejoin="round"/>
<path id="d_3" d="M566.996 607.584H945.996" stroke="#CBD8F1" stroke-width="8" stroke-linecap="round" stroke-linejoin="round"/>
<path id="d_4" d="M474.996 326.084L219.996 401.584" stroke="#CBD8F1" stroke-width="8" stroke-linecap="round" stroke-linejoin="round"/>
<path id="d_5" d="M946.496 607.584L1029.5 411.584" stroke="#CBD8F1" stroke-width="8" stroke-linecap="round" stroke-linejoin="round"/>
<path id="d_6" d="M566.996 607.084L439.996 336.084" stroke="#CBD8F1" stroke-width="8" stroke-linecap="round" stroke-linejoin="round"/>
<path id="d_7" d="M562.039 608.084C562.039 672.425 648.896 724.584 756.039 724.584C863.182 724.584 950.039 672.425 950.039 608.084C950.039 543.742 863.182 491.584 756.039 491.584C650.845 491.584 565.206 541.862 562.125 604.584" stroke="#CBD8F1" stroke-width="8" stroke-linecap="round" stroke-linejoin="round"/>
<path id="d_8" d="M569.555 596.117C604.815 622.352 595.786 707.198 549.389 785.626C502.991 864.054 436.795 906.366 401.535 880.131C366.275 853.896 375.304 769.05 421.702 690.622C467.424 613.335 532.373 571.122 567.996 595.016" stroke="#CBD8F1" stroke-width="8" stroke-linecap="round" stroke-linejoin="round"/>
<path id="d_9" d="M574.268 605.133C610.029 579.842 606.645 501.15 566.71 429.372C526.775 357.593 465.412 319.907 429.651 345.199C393.89 370.491 397.274 449.182 437.209 520.961C475.773 590.275 534.319 627.797 570.496 607.517" stroke="#CBD8F1" stroke-width="8" stroke-linecap="round" stroke-linejoin="round"/>
<path id="d_10" d="M938.401 598.355C908.356 627.114 925.148 704.753 975.906 771.767C1026.66 838.78 1092.17 869.791 1122.21 841.032C1152.26 812.272 1135.47 734.633 1084.71 667.62C1034.21 600.946 969.11 569.911 938.861 597.922" stroke="#CBD8F1" stroke-width="8" stroke-linecap="round" stroke-linejoin="round"/>
<path id="d_11" d="M1034.91 408.88C1062.24 426.165 1063.29 483.97 1037.25 537.992C1011.21 592.014 967.947 621.795 940.618 604.51C913.289 587.226 912.243 529.42 938.283 475.399C964.032 421.978 1006.62 392.262 1034 408.32" stroke="#CBD8F1" stroke-width="8" stroke-linecap="round" stroke-linejoin="round"/>
<path id="d_12" d="M479.07 329.96C490.849 377.112 440.239 430.365 366.029 448.905C291.818 467.445 222.109 444.25 210.329 397.098C198.549 349.946 249.16 296.693 323.37 278.153C396.056 259.994 464.423 281.872 478.271 327.084" stroke="#CBD8F1" stroke-width="8" stroke-linecap="round" stroke-linejoin="round"/>
<ellipse id="d_13" cx="471.956" cy="218.293" rx="58.2343" ry="109.074" transform="rotate(19.6148 471.956 218.293)" stroke="#CBD8F1" stroke-width="8" stroke-linecap="round" stroke-linejoin="round"/>
<path id="d_14" d="M436.496 316.084L505.496 121.084" stroke="#CBD8F1" stroke-width="8" stroke-linecap="round" stroke-linejoin="round"/>
<ellipse id="d_15" cx="550.214" cy="260.839" rx="63" ry="118" transform="rotate(45.0234 550.214 260.839)" stroke="#CBD8F1" stroke-width="8" stroke-linecap="round" stroke-linejoin="round"/>
<path id="d_16" d="M628.996 182.084L470.996 336.084" stroke="#CBD8F1" stroke-width="8" stroke-linecap="round" stroke-linejoin="round"/>
<ellipse id="d_17" cx="612.158" cy="747.122" rx="78.33" ry="146.183" transform="rotate(-15.7945 612.158 747.122)" stroke="#CBD8F1" stroke-width="8" stroke-linecap="round" stroke-linejoin="round"/>
<path id="d_18" d="M569.996 611.584L652.496 881.084" stroke="#CBD8F1" stroke-width="8" stroke-linecap="round" stroke-linejoin="round"/>
<ellipse id="d_19" rx="73.4618" ry="134.938" transform="matrix(-0.962244 -0.272188 -0.272188 0.962244 909.904 732.072)" stroke="#CBD8F1" stroke-width="8" stroke-linecap="round" stroke-linejoin="round"/>
<path id="d_20" d="M947.996 608.084L873.496 851.584" stroke="#CBD8F1" stroke-width="8" stroke-linecap="round" stroke-linejoin="round"/>
</g>
<g id="r g-template">
<path id="1" d="M598.996 539.669C634.26 510.529 691.465 491.584 756.039 491.584C824.53 491.584 884.732 512.898 919.254 545.084C938.735 563.247 950.039 584.873 950.039 608.084C950.039 628.691 941.129 648.049 925.496 664.843C892.32 700.485 828.866 724.584 756.039 724.584C685.789 724.584 624.261 702.161 590.217 668.584" stroke="#6685D4" stroke-width="8" stroke-linecap="round" stroke-linejoin="round"/>
<path id="d_21" d="M950.496 608.611C977.551 614.718 1014.17 585.879 1037.25 537.992C1063.29 483.97 1062.24 426.165 1034.91 408.88C1007.59 391.596 964.322 421.377 938.283 475.399C926.834 499.151 920.621 523.634 919.576 545.084" stroke="#6685D4" stroke-width="8" stroke-linecap="round" stroke-linejoin="round"/>
<path id="d_22" d="M974.567 770.584C951.851 832.025 908.754 871.979 873.175 861.915C834.591 851.001 819.289 785.344 838.52 714.584" stroke="#6685D4" stroke-width="8" stroke-linecap="round" stroke-linejoin="round"/>
<path id="d_23" d="M995.696 593.584C1024.24 604.654 1056.72 630.662 1084.71 667.62C1135.47 734.633 1152.26 812.272 1122.21 841.032C1092.17 869.791 1026.66 838.78 975.906 771.767C949.132 736.418 931.808 698.112 925.825 665.584" stroke="#6685D4" stroke-width="8" stroke-linecap="round" stroke-linejoin="round"/>
<path id="d_24" d="M545.035 793.084C569.956 857.069 614.888 898.269 651.948 887.786C693.575 876.011 709.506 803.488 687.531 725.802C686.602 722.518 685.62 719.278 684.589 716.084" stroke="#6685D4" stroke-width="8" stroke-linecap="round" stroke-linejoin="round"/>
<path id="d_25" d="M577.233 603.584C603.114 636.011 592.04 713.53 549.389 785.626C502.991 864.054 436.795 906.366 401.535 880.131C366.275 853.896 375.304 769.05 421.702 690.622C446.844 648.123 477.8 616.229 506.497 600.101" stroke="#6685D4" stroke-width="8" stroke-linecap="round" stroke-linejoin="round"/>
<path id="d_26" d="M503.027 355.084C525.737 370.889 548.461 396.571 566.71 429.372C606.645 501.15 610.029 579.842 574.268 605.133C538.508 630.425 477.144 592.74 437.209 520.961C421.081 491.971 410.914 461.855 406.88 434.584" stroke="#6685D4" stroke-width="8" stroke-linecap="round" stroke-linejoin="round"/>
<path id="d_27" d="M456.996 296.599C428.224 273.144 376.972 264.762 323.37 278.153C249.16 296.693 198.549 349.946 210.329 397.098C222.109 444.25 291.818 467.445 366.029 448.905C428.525 433.292 474.284 393.059 480.137 352.584" stroke="#6685D4" stroke-width="8" stroke-linecap="round" stroke-linejoin="round"/>
</g>
<path id="draw-line d1 rgb-template" d="M537.505 188.584C540.169 152.278 529.806 123.116 508.572 115.549C478.276 104.752 437.323 142 417.101 198.744C407.298 226.252 404.166 253.292 406.993 275.084" stroke="#6685D4" stroke-width="8" stroke-linecap="round" stroke-linejoin="round"/>
<path id="draw-line rgb-template" d="M466.741 344.243C491.334 368.856 548.643 351.468 594.743 305.405C640.844 259.342 658.28 202.047 633.687 177.434C609.094 152.821 551.785 170.21 505.684 216.273C460.293 261.627 442.692 317.869 465.636 343.084" stroke="#6685D4" stroke-width="8" stroke-linecap="round" stroke-linejoin="round"/>
</g>
</g>
<g id="step s-multistep-brush_2">
<g id="input_3">
<g id="ref_2">
<path id="d_28" d="M567.496 606.084L402.996 874.584" stroke="#CBD8F1" stroke-width="8" stroke-linecap="round" stroke-linejoin="round"/>
<path id="d_29" d="M947.996 609.584L1112.5 842.084" stroke="#CBD8F1" stroke-width="8" stroke-linecap="round" stroke-linejoin="round"/>
<path id="d_30" d="M566.996 607.584H945.996" stroke="#CBD8F1" stroke-width="8" stroke-linecap="round" stroke-linejoin="round"/>
<path id="d_31" d="M474.996 326.084L219.996 401.584" stroke="#CBD8F1" stroke-width="8" stroke-linecap="round" stroke-linejoin="round"/>
<path id="d_32" d="M946.496 607.584L1029.5 411.584" stroke="#CBD8F1" stroke-width="8" stroke-linecap="round" stroke-linejoin="round"/>
<path id="d_33" d="M566.996 607.084L439.996 336.084" stroke="#CBD8F1" stroke-width="8" stroke-linecap="round" stroke-linejoin="round"/>
<path id="d_34" d="M562.039 608.084C562.039 672.425 648.896 724.584 756.039 724.584C863.182 724.584 950.039 672.425 950.039 608.084C950.039 543.742 863.182 491.584 756.039 491.584C650.845 491.584 565.206 541.862 562.125 604.584" stroke="#CBD8F1" stroke-width="8" stroke-linecap="round" stroke-linejoin="round"/>
<path id="d_35" d="M569.555 596.117C604.815 622.352 595.786 707.198 549.389 785.626C502.991 864.054 436.795 906.366 401.535 880.131C366.275 853.896 375.304 769.05 421.702 690.622C467.424 613.335 532.373 571.122 567.996 595.016" stroke="#CBD8F1" stroke-width="8" stroke-linecap="round" stroke-linejoin="round"/>
<path id="d_36" d="M574.268 605.133C610.029 579.842 606.645 501.15 566.71 429.372C526.775 357.593 465.412 319.907 429.651 345.199C393.89 370.491 397.274 449.182 437.209 520.961C475.773 590.275 534.319 627.797 570.496 607.517" stroke="#CBD8F1" stroke-width="8" stroke-linecap="round" stroke-linejoin="round"/>
<path id="d_37" d="M938.401 598.355C908.356 627.114 925.148 704.753 975.906 771.767C1026.66 838.78 1092.17 869.791 1122.21 841.032C1152.26 812.272 1135.47 734.633 1084.71 667.62C1034.21 600.946 969.11 569.911 938.861 597.922" stroke="#CBD8F1" stroke-width="8" stroke-linecap="round" stroke-linejoin="round"/>
<path id="d_38" d="M1034.91 408.88C1062.24 426.165 1063.29 483.97 1037.25 537.992C1011.21 592.014 967.947 621.795 940.618 604.51C913.289 587.226 912.243 529.42 938.283 475.399C964.032 421.978 1006.62 392.262 1034 408.32" stroke="#CBD8F1" stroke-width="8" stroke-linecap="round" stroke-linejoin="round"/>
<path id="d_39" d="M479.07 329.96C490.849 377.112 440.239 430.365 366.029 448.905C291.818 467.445 222.109 444.25 210.329 397.098C198.549 349.946 249.16 296.693 323.37 278.153C396.056 259.994 464.423 281.872 478.271 327.084" stroke="#CBD8F1" stroke-width="8" stroke-linecap="round" stroke-linejoin="round"/>
<ellipse id="d_40" cx="471.956" cy="218.293" rx="58.2343" ry="109.074" transform="rotate(19.6148 471.956 218.293)" stroke="#CBD8F1" stroke-width="8" stroke-linecap="round" stroke-linejoin="round"/>
<path id="d_41" d="M436.496 316.084L505.496 121.084" stroke="#CBD8F1" stroke-width="8" stroke-linecap="round" stroke-linejoin="round"/>
<ellipse id="d_42" cx="550.214" cy="260.839" rx="63" ry="118" transform="rotate(45.0234 550.214 260.839)" stroke="#CBD8F1" stroke-width="8" stroke-linecap="round" stroke-linejoin="round"/>
<path id="d_43" d="M628.996 182.084L470.996 336.084" stroke="#CBD8F1" stroke-width="8" stroke-linecap="round" stroke-linejoin="round"/>
<ellipse id="d_44" cx="612.158" cy="747.122" rx="78.33" ry="146.183" transform="rotate(-15.7945 612.158 747.122)" stroke="#CBD8F1" stroke-width="8" stroke-linecap="round" stroke-linejoin="round"/>
<path id="d_45" d="M569.996 611.584L652.496 881.084" stroke="#CBD8F1" stroke-width="8" stroke-linecap="round" stroke-linejoin="round"/>
<ellipse id="d_46" rx="73.4618" ry="134.938" transform="matrix(-0.962244 -0.272188 -0.272188 0.962244 909.904 732.072)" stroke="#CBD8F1" stroke-width="8" stroke-linecap="round" stroke-linejoin="round"/>
<path id="d_47" d="M947.996 608.084L873.496 851.584" stroke="#CBD8F1" stroke-width="8" stroke-linecap="round" stroke-linejoin="round"/>
</g>
<g id="r g-template_2">
<path id="1_2" d="M598.997 539.669C634.26 510.529 691.465 491.584 756.039 491.584C824.53 491.584 884.732 512.898 919.254 545.084C938.735 563.247 950.039 584.873 950.039 608.084C950.039 628.691 941.129 648.049 925.497 664.843C892.32 700.485 828.866 724.584 756.039 724.584C685.789 724.584 624.261 702.161 590.217 668.584" stroke="#6685D4" stroke-width="8" stroke-linecap="round" stroke-linejoin="round"/>
<path id="d_48" d="M950.497 608.611C977.551 614.718 1014.17 585.879 1037.25 537.992C1063.29 483.97 1062.24 426.165 1034.91 408.88C1007.59 391.596 964.322 421.377 938.283 475.399C926.834 499.151 920.621 523.634 919.576 545.084" stroke="#6685D4" stroke-width="8" stroke-linecap="round" stroke-linejoin="round"/>
<path id="d_49" d="M974.567 770.584C951.851 832.025 908.754 871.979 873.175 861.915C834.591 851.001 819.289 785.344 838.52 714.584" stroke="#6685D4" stroke-width="8" stroke-linecap="round" stroke-linejoin="round"/>
<path id="d_50" d="M995.696 593.584C1024.24 604.654 1056.72 630.662 1084.71 667.62C1135.47 734.633 1152.26 812.272 1122.21 841.032C1092.17 869.791 1026.67 838.78 975.907 771.767C949.132 736.418 931.808 698.112 925.825 665.584" stroke="#6685D4" stroke-width="8" stroke-linecap="round" stroke-linejoin="round"/>
<path id="d_51" d="M545.035 793.084C569.956 857.069 614.888 898.269 651.948 887.786C693.575 876.011 709.506 803.488 687.531 725.802C686.602 722.518 685.62 719.278 684.589 716.084" stroke="#6685D4" stroke-width="8" stroke-linecap="round" stroke-linejoin="round"/>
<path id="d_52" d="M577.233 603.584C603.114 636.011 592.04 713.53 549.389 785.626C502.991 864.054 436.795 906.366 401.535 880.131C366.275 853.896 375.304 769.05 421.702 690.622C446.844 648.123 477.8 616.229 506.497 600.101" stroke="#6685D4" stroke-width="8" stroke-linecap="round" stroke-linejoin="round"/>
<path id="d_53" d="M503.027 355.084C525.737 370.889 548.461 396.571 566.71 429.372C606.645 501.15 610.029 579.842 574.268 605.133C538.508 630.425 477.144 592.74 437.209 520.961C421.081 491.971 410.914 461.855 406.88 434.584" stroke="#6685D4" stroke-width="8" stroke-linecap="round" stroke-linejoin="round"/>
</g>
<path id="draw-line rgb-template_2" d="M456.996 296.599C428.224 273.144 376.972 264.762 323.37 278.153C249.16 296.693 198.549 349.946 210.329 397.098C222.109 444.25 291.818 467.445 366.029 448.905C428.525 433.292 474.284 393.059 480.137 352.584" stroke="#6685D4" stroke-width="8" stroke-linecap="round" stroke-linejoin="round"/>
</g>
</g>
<g id="step s-multistep-brush_3">
<g id="input_4">
<g id="ref_3">
<path id="d_54" d="M567.496 606.084L402.996 874.584" stroke="#CBD8F1" stroke-width="8" stroke-linecap="round" stroke-linejoin="round"/>
<path id="d_55" d="M947.996 609.584L1112.5 842.084" stroke="#CBD8F1" stroke-width="8" stroke-linecap="round" stroke-linejoin="round"/>
<path id="d_56" d="M566.996 607.584H945.996" stroke="#CBD8F1" stroke-width="8" stroke-linecap="round" stroke-linejoin="round"/>
<path id="d_57" d="M474.996 326.084L219.996 401.584" stroke="#CBD8F1" stroke-width="8" stroke-linecap="round" stroke-linejoin="round"/>
<path id="d_58" d="M946.496 607.584L1029.5 411.584" stroke="#CBD8F1" stroke-width="8" stroke-linecap="round" stroke-linejoin="round"/>
<path id="d_59" d="M566.996 607.084L439.996 336.084" stroke="#CBD8F1" stroke-width="8" stroke-linecap="round" stroke-linejoin="round"/>
<path id="d_60" d="M562.039 608.084C562.039 672.425 648.896 724.584 756.039 724.584C863.182 724.584 950.039 672.425 950.039 608.084C950.039 543.742 863.182 491.584 756.039 491.584C650.845 491.584 565.206 541.862 562.125 604.584" stroke="#CBD8F1" stroke-width="8" stroke-linecap="round" stroke-linejoin="round"/>
<path id="d_61" d="M569.555 596.117C604.815 622.352 595.786 707.198 549.389 785.626C502.991 864.054 436.795 906.366 401.535 880.131C366.275 853.896 375.304 769.05 421.702 690.622C467.424 613.335 532.373 571.122 567.996 595.016" stroke="#CBD8F1" stroke-width="8" stroke-linecap="round" stroke-linejoin="round"/>
<path id="d_62" d="M574.268 605.133C610.029 579.842 606.645 501.15 566.71 429.372C526.775 357.593 465.412 319.907 429.651 345.199C393.89 370.491 397.274 449.182 437.209 520.961C475.773 590.275 534.319 627.797 570.496 607.517" stroke="#CBD8F1" stroke-width="8" stroke-linecap="round" stroke-linejoin="round"/>
<path id="d_63" d="M938.401 598.355C908.356 627.114 925.148 704.753 975.906 771.767C1026.66 838.78 1092.17 869.791 1122.21 841.032C1152.26 812.272 1135.47 734.633 1084.71 667.62C1034.21 600.946 969.11 569.911 938.861 597.922" stroke="#CBD8F1" stroke-width="8" stroke-linecap="round" stroke-linejoin="round"/>
<path id="d_64" d="M1034.91 408.88C1062.24 426.165 1063.29 483.97 1037.25 537.992C1011.21 592.014 967.947 621.795 940.618 604.51C913.289 587.226 912.243 529.42 938.283 475.399C964.032 421.978 1006.62 392.262 1034 408.32" stroke="#CBD8F1" stroke-width="8" stroke-linecap="round" stroke-linejoin="round"/>
<path id="d_65" d="M479.07 329.96C490.849 377.112 440.239 430.365 366.029 448.905C291.818 467.445 222.109 444.25 210.329 397.098C198.549 349.946 249.16 296.693 323.37 278.153C396.056 259.994 464.423 281.872 478.271 327.084" stroke="#CBD8F1" stroke-width="8" stroke-linecap="round" stroke-linejoin="round"/>
<ellipse id="d_66" cx="471.956" cy="218.293" rx="58.2343" ry="109.074" transform="rotate(19.6148 471.956 218.293)" stroke="#CBD8F1" stroke-width="8" stroke-linecap="round" stroke-linejoin="round"/>
<path id="d_67" d="M436.496 316.084L505.496 121.084" stroke="#CBD8F1" stroke-width="8" stroke-linecap="round" stroke-linejoin="round"/>
<ellipse id="d_68" cx="550.214" cy="260.839" rx="63" ry="118" transform="rotate(45.0234 550.214 260.839)" stroke="#CBD8F1" stroke-width="8" stroke-linecap="round" stroke-linejoin="round"/>
<path id="d_69" d="M628.996 182.084L470.996 336.084" stroke="#CBD8F1" stroke-width="8" stroke-linecap="round" stroke-linejoin="round"/>
<ellipse id="d_70" cx="612.158" cy="747.122" rx="78.33" ry="146.183" transform="rotate(-15.7945 612.158 747.122)" stroke="#CBD8F1" stroke-width="8" stroke-linecap="round" stroke-linejoin="round"/>
<path id="d_71" d="M569.996 611.584L652.496 881.084" stroke="#CBD8F1" stroke-width="8" stroke-linecap="round" stroke-linejoin="round"/>
<ellipse id="d_72" rx="73.4618" ry="134.938" transform="matrix(-0.962244 -0.272188 -0.272188 0.962244 909.904 732.072)" stroke="#CBD8F1" stroke-width="8" stroke-linecap="round" stroke-linejoin="round"/>
<path id="d_73" d="M947.996 608.084L873.496 851.584" stroke="#CBD8F1" stroke-width="8" stroke-linecap="round" stroke-linejoin="round"/>
</g>
<g id="r g-template_3">
<path id="1_3" d="M598.997 539.669C634.26 510.529 691.465 491.584 756.039 491.584C824.53 491.584 884.732 512.898 919.254 545.084C938.735 563.247 950.039 584.873 950.039 608.084C950.039 628.691 941.129 648.049 925.497 664.843C892.32 700.485 828.866 724.584 756.039 724.584C685.789 724.584 624.261 702.161 590.217 668.584" stroke="#6685D4" stroke-width="8" stroke-linecap="round" stroke-linejoin="round"/>
<path id="d_74" d="M950.497 608.611C977.551 614.718 1014.17 585.879 1037.25 537.992C1063.29 483.97 1062.24 426.165 1034.91 408.88C1007.59 391.596 964.322 421.377 938.283 475.399C926.834 499.151 920.621 523.634 919.576 545.084" stroke="#6685D4" stroke-width="8" stroke-linecap="round" stroke-linejoin="round"/>
<path id="d_75" d="M974.567 770.584C951.851 832.025 908.754 871.979 873.175 861.915C834.591 851.001 819.289 785.344 838.52 714.584" stroke="#6685D4" stroke-width="8" stroke-linecap="round" stroke-linejoin="round"/>
<path id="d_76" d="M995.696 593.584C1024.24 604.654 1056.72 630.662 1084.71 667.62C1135.47 734.633 1152.26 812.272 1122.21 841.032C1092.17 869.791 1026.67 838.78 975.907 771.767C949.132 736.418 931.808 698.112 925.825 665.584" stroke="#6685D4" stroke-width="8" stroke-linecap="round" stroke-linejoin="round"/>
<path id="d_77" d="M545.035 793.084C569.956 857.069 614.888 898.269 651.948 887.786C693.575 876.011 709.506 803.488 687.531 725.802C686.602 722.518 685.62 719.278 684.589 716.084" stroke="#6685D4" stroke-width="8" stroke-linecap="round" stroke-linejoin="round"/>
<path id="d_78" d="M577.233 603.584C603.114 636.011 592.04 713.53 549.389 785.626C502.991 864.054 436.795 906.366 401.535 880.131C366.275 853.896 375.304 769.05 421.702 690.622C446.844 648.123 477.8 616.229 506.497 600.101" stroke="#6685D4" stroke-width="8" stroke-linecap="round" stroke-linejoin="round"/>
</g>
<path id="draw-line rgb-template_3" d="M503.027 355.084C525.737 370.889 548.461 396.571 566.71 429.372C606.645 501.15 610.029 579.842 574.268 605.133C538.508 630.425 477.144 592.74 437.209 520.961C421.081 491.971 410.914 461.855 406.88 434.584" stroke="#6685D4" stroke-width="8" stroke-linecap="round" stroke-linejoin="round"/>
</g>
</g>
<g id="step s-multistep-brush_4">
<g id="input_5">
<g id="ref_4">
<path id="d_79" d="M567.496 606.084L402.996 874.584" stroke="#CBD8F1" stroke-width="8" stroke-linecap="round" stroke-linejoin="round"/>
<path id="d_80" d="M947.996 609.584L1112.5 842.084" stroke="#CBD8F1" stroke-width="8" stroke-linecap="round" stroke-linejoin="round"/>
<path id="d_81" d="M566.996 607.584H945.996" stroke="#CBD8F1" stroke-width="8" stroke-linecap="round" stroke-linejoin="round"/>
<path id="d_82" d="M474.996 326.084L219.996 401.584" stroke="#CBD8F1" stroke-width="8" stroke-linecap="round" stroke-linejoin="round"/>
<path id="d_83" d="M946.496 607.584L1029.5 411.584" stroke="#CBD8F1" stroke-width="8" stroke-linecap="round" stroke-linejoin="round"/>
<path id="d_84" d="M566.996 607.084L439.996 336.084" stroke="#CBD8F1" stroke-width="8" stroke-linecap="round" stroke-linejoin="round"/>
<path id="d_85" d="M562.039 608.084C562.039 672.425 648.896 724.584 756.039 724.584C863.182 724.584 950.039 672.425 950.039 608.084C950.039 543.742 863.182 491.584 756.039 491.584C650.845 491.584 565.206 541.862 562.125 604.584" stroke="#CBD8F1" stroke-width="8" stroke-linecap="round" stroke-linejoin="round"/>
<path id="d_86" d="M569.555 596.117C604.815 622.352 595.786 707.198 549.389 785.626C502.991 864.054 436.795 906.366 401.535 880.131C366.275 853.896 375.304 769.05 421.702 690.622C467.424 613.335 532.373 571.122 567.996 595.016" stroke="#CBD8F1" stroke-width="8" stroke-linecap="round" stroke-linejoin="round"/>
<path id="d_87" d="M574.268 605.133C610.029 579.842 606.645 501.15 566.71 429.372C526.775 357.593 465.412 319.907 429.651 345.199C393.89 370.491 397.274 449.182 437.209 520.961C475.773 590.275 534.319 627.797 570.496 607.517" stroke="#CBD8F1" stroke-width="8" stroke-linecap="round" stroke-linejoin="round"/>
<path id="d_88" d="M938.401 598.355C908.356 627.114 925.148 704.753 975.906 771.767C1026.66 838.78 1092.17 869.791 1122.21 841.032C1152.26 812.272 1135.47 734.633 1084.71 667.62C1034.21 600.946 969.11 569.911 938.861 597.922" stroke="#CBD8F1" stroke-width="8" stroke-linecap="round" stroke-linejoin="round"/>
<path id="d_89" d="M1034.91 408.88C1062.24 426.165 1063.29 483.97 1037.25 537.992C1011.21 592.014 967.947 621.795 940.618 604.51C913.289 587.226 912.243 529.42 938.283 475.399C964.032 421.978 1006.62 392.262 1034 408.32" stroke="#CBD8F1" stroke-width="8" stroke-linecap="round" stroke-linejoin="round"/>
<path id="d_90" d="M479.07 329.96C490.849 377.112 440.239 430.365 366.029 448.905C291.818 467.445 222.109 444.25 210.329 397.098C198.549 349.946 249.16 296.693 323.37 278.153C396.056 259.994 464.423 281.872 478.271 327.084" stroke="#CBD8F1" stroke-width="8" stroke-linecap="round" stroke-linejoin="round"/>
<ellipse id="d_91" cx="471.956" cy="218.293" rx="58.2343" ry="109.074" transform="rotate(19.6148 471.956 218.293)" stroke="#CBD8F1" stroke-width="8" stroke-linecap="round" stroke-linejoin="round"/>
<path id="d_92" d="M436.496 316.084L505.496 121.084" stroke="#CBD8F1" stroke-width="8" stroke-linecap="round" stroke-linejoin="round"/>
<ellipse id="d_93" cx="550.214" cy="260.839" rx="63" ry="118" transform="rotate(45.0234 550.214 260.839)" stroke="#CBD8F1" stroke-width="8" stroke-linecap="round" stroke-linejoin="round"/>
<path id="d_94" d="M628.996 182.084L470.996 336.084" stroke="#CBD8F1" stroke-width="8" stroke-linecap="round" stroke-linejoin="round"/>
<ellipse id="d_95" cx="612.158" cy="747.122" rx="78.33" ry="146.183" transform="rotate(-15.7945 612.158 747.122)" stroke="#CBD8F1" stroke-width="8" stroke-linecap="round" stroke-linejoin="round"/>
<path id="d_96" d="M569.996 611.584L652.496 881.084" stroke="#CBD8F1" stroke-width="8" stroke-linecap="round" stroke-linejoin="round"/>
<ellipse id="d_97" rx="73.4618" ry="134.938" transform="matrix(-0.962244 -0.272188 -0.272188 0.962244 909.904 732.072)" stroke="#CBD8F1" stroke-width="8" stroke-linecap="round" stroke-linejoin="round"/>
<path id="d_98" d="M947.996 608.084L873.496 851.584" stroke="#CBD8F1" stroke-width="8" stroke-linecap="round" stroke-linejoin="round"/>
</g>
<g id="r g-template_4">
<path id="1_4" d="M598.996 539.669C634.26 510.529 691.465 491.584 756.039 491.584C824.53 491.584 884.732 512.898 919.254 545.084C938.735 563.247 950.039 584.873 950.039 608.084C950.039 628.691 941.129 648.049 925.496 664.843C892.32 700.485 828.866 724.584 756.039 724.584C685.789 724.584 624.261 702.161 590.217 668.584" stroke="#6685D4" stroke-width="8" stroke-linecap="round" stroke-linejoin="round"/>
<path id="d_99" d="M950.496 608.611C977.551 614.718 1014.17 585.879 1037.25 537.992C1063.29 483.97 1062.24 426.165 1034.91 408.88C1007.59 391.596 964.322 421.377 938.283 475.399C926.834 499.151 920.621 523.634 919.576 545.084" stroke="#6685D4" stroke-width="8" stroke-linecap="round" stroke-linejoin="round"/>
<path id="d_100" d="M974.567 770.584C951.851 832.025 908.754 871.979 873.175 861.915C834.591 851.001 819.289 785.344 838.52 714.584" stroke="#6685D4" stroke-width="8" stroke-linecap="round" stroke-linejoin="round"/>
<path id="d_101" d="M995.696 593.584C1024.24 604.654 1056.72 630.662 1084.71 667.62C1135.47 734.633 1152.26 812.272 1122.21 841.032C1092.17 869.791 1026.66 838.78 975.906 771.767C949.132 736.418 931.808 698.112 925.825 665.584" stroke="#6685D4" stroke-width="8" stroke-linecap="round" stroke-linejoin="round"/>
</g>
<path id="draw-line d1 rgb-template_2" d="M545.035 793.084C569.956 857.069 614.888 898.269 651.948 887.786C693.575 876.011 709.506 803.488 687.531 725.802C686.602 722.518 685.62 719.278 684.589 716.084" stroke="#6685D4" stroke-width="8" stroke-linecap="round" stroke-linejoin="round"/>
<path id="draw-line rgb-template_4" d="M577.233 603.584C603.114 636.011 592.04 713.53 549.389 785.626C502.991 864.054 436.795 906.366 401.535 880.131C366.275 853.896 375.304 769.05 421.702 690.622C446.844 648.123 477.8 616.229 506.497 600.101" stroke="#6685D4" stroke-width="8" stroke-linecap="round" stroke-linejoin="round"/>
</g>
</g>
<g id="step s-multistep-brush_5">
<g id="input_6">
<g id="ref_5">
<path id="d_102" d="M567.496 606.084L402.996 874.584" stroke="#CBD8F1" stroke-width="8" stroke-linecap="round" stroke-linejoin="round"/>
<path id="d_103" d="M947.996 609.584L1112.5 842.084" stroke="#CBD8F1" stroke-width="8" stroke-linecap="round" stroke-linejoin="round"/>
<path id="d_104" d="M566.996 607.584H945.996" stroke="#CBD8F1" stroke-width="8" stroke-linecap="round" stroke-linejoin="round"/>
<path id="d_105" d="M474.996 326.084L219.996 401.584" stroke="#CBD8F1" stroke-width="8" stroke-linecap="round" stroke-linejoin="round"/>
<path id="d_106" d="M946.496 607.584L1029.5 411.584" stroke="#CBD8F1" stroke-width="8" stroke-linecap="round" stroke-linejoin="round"/>
<path id="d_107" d="M566.996 607.084L439.996 336.084" stroke="#CBD8F1" stroke-width="8" stroke-linecap="round" stroke-linejoin="round"/>
<path id="d_108" d="M562.039 608.084C562.039 672.425 648.896 724.584 756.039 724.584C863.182 724.584 950.039 672.425 950.039 608.084C950.039 543.742 863.182 491.584 756.039 491.584C650.845 491.584 565.206 541.862 562.125 604.584" stroke="#CBD8F1" stroke-width="8" stroke-linecap="round" stroke-linejoin="round"/>
<path id="d_109" d="M569.555 596.117C604.815 622.352 595.786 707.198 549.389 785.626C502.991 864.054 436.795 906.366 401.535 880.131C366.275 853.896 375.304 769.05 421.702 690.622C467.424 613.335 532.373 571.122 567.996 595.016" stroke="#CBD8F1" stroke-width="8" stroke-linecap="round" stroke-linejoin="round"/>
<path id="d_110" d="M574.268 605.133C610.029 579.842 606.645 501.15 566.71 429.372C526.775 357.593 465.412 319.907 429.651 345.199C393.89 370.491 397.274 449.182 437.209 520.961C475.773 590.275 534.319 627.797 570.496 607.517" stroke="#CBD8F1" stroke-width="8" stroke-linecap="round" stroke-linejoin="round"/>
<path id="d_111" d="M938.401 598.355C908.356 627.114 925.148 704.753 975.906 771.767C1026.66 838.78 1092.17 869.791 1122.21 841.032C1152.26 812.272 1135.47 734.633 1084.71 667.62C1034.21 600.946 969.11 569.911 938.861 597.922" stroke="#CBD8F1" stroke-width="8" stroke-linecap="round" stroke-linejoin="round"/>
<path id="d_112" d="M1034.91 408.88C1062.24 426.165 1063.29 483.97 1037.25 537.992C1011.21 592.014 967.947 621.795 940.618 604.51C913.289 587.226 912.243 529.42 938.283 475.399C964.032 421.978 1006.62 392.262 1034 408.32" stroke="#CBD8F1" stroke-width="8" stroke-linecap="round" stroke-linejoin="round"/>
<path id="d_113" d="M479.07 329.96C490.849 377.112 440.239 430.365 366.029 448.905C291.818 467.445 222.109 444.25 210.329 397.098C198.549 349.946 249.16 296.693 323.37 278.153C396.056 259.994 464.423 281.872 478.271 327.084" stroke="#CBD8F1" stroke-width="8" stroke-linecap="round" stroke-linejoin="round"/>
<ellipse id="d_114" cx="471.956" cy="218.293" rx="58.2343" ry="109.074" transform="rotate(19.6148 471.956 218.293)" stroke="#CBD8F1" stroke-width="8" stroke-linecap="round" stroke-linejoin="round"/>
<path id="d_115" d="M436.496 316.084L505.496 121.084" stroke="#CBD8F1" stroke-width="8" stroke-linecap="round" stroke-linejoin="round"/>
<ellipse id="d_116" cx="550.214" cy="260.839" rx="63" ry="118" transform="rotate(45.0234 550.214 260.839)" stroke="#CBD8F1" stroke-width="8" stroke-linecap="round" stroke-linejoin="round"/>
<path id="d_117" d="M628.996 182.084L470.996 336.084" stroke="#CBD8F1" stroke-width="8" stroke-linecap="round" stroke-linejoin="round"/>
<ellipse id="d_118" cx="612.158" cy="747.122" rx="78.33" ry="146.183" transform="rotate(-15.7945 612.158 747.122)" stroke="#CBD8F1" stroke-width="8" stroke-linecap="round" stroke-linejoin="round"/>
<path id="d_119" d="M569.996 611.584L652.496 881.084" stroke="#CBD8F1" stroke-width="8" stroke-linecap="round" stroke-linejoin="round"/>
<ellipse id="d_120" rx="73.4618" ry="134.938" transform="matrix(-0.962244 -0.272188 -0.272188 0.962244 909.904 732.072)" stroke="#CBD8F1" stroke-width="8" stroke-linecap="round" stroke-linejoin="round"/>
<path id="d_121" d="M947.996 608.084L873.496 851.584" stroke="#CBD8F1" stroke-width="8" stroke-linecap="round" stroke-linejoin="round"/>
</g>
<g id="r g-template_5">
<path id="1_5" d="M598.996 539.669C634.26 510.529 691.465 491.584 756.039 491.584C824.53 491.584 884.732 512.898 919.254 545.084C938.735 563.247 950.039 584.873 950.039 608.084C950.039 628.691 941.129 648.049 925.496 664.843C892.32 700.485 828.866 724.584 756.039 724.584C685.789 724.584 624.261 702.161 590.217 668.584" stroke="#6685D4" stroke-width="8" stroke-linecap="round" stroke-linejoin="round"/>
<path id="d_122" d="M950.496 608.611C977.551 614.718 1014.17 585.879 1037.25 537.992C1063.29 483.97 1062.24 426.165 1034.91 408.88C1007.59 391.596 964.322 421.377 938.283 475.399C926.834 499.151 920.621 523.634 919.576 545.084" stroke="#6685D4" stroke-width="8" stroke-linecap="round" stroke-linejoin="round"/>
</g>
<path id="draw-line d1 rgb-template_3" d="M974.567 770.584C951.851 832.025 908.754 871.979 873.175 861.915C834.591 851.001 819.289 785.344 838.52 714.584" stroke="#6685D4" stroke-width="8" stroke-linecap="round" stroke-linejoin="round"/>
<path id="draw-line rgb-template_5" d="M995.696 593.584C1024.24 604.654 1056.72 630.662 1084.71 667.62C1135.47 734.633 1152.26 812.272 1122.21 841.032C1092.17 869.791 1026.66 838.78 975.906 771.767C949.132 736.418 931.808 698.112 925.825 665.584" stroke="#6685D4" stroke-width="8" stroke-linecap="round" stroke-linejoin="round"/>
</g>
</g>
<g id="step s-multistep-brush_6">
<g id="input_7">
<g id="ref_6">
<path id="d_123" d="M567.496 606.084L402.996 874.584" stroke="#CBD8F1" stroke-width="8" stroke-linecap="round" stroke-linejoin="round"/>
<path id="d_124" d="M947.996 609.584L1112.5 842.084" stroke="#CBD8F1" stroke-width="8" stroke-linecap="round" stroke-linejoin="round"/>
<path id="d_125" d="M566.996 607.584H945.996" stroke="#CBD8F1" stroke-width="8" stroke-linecap="round" stroke-linejoin="round"/>
<path id="d_126" d="M474.996 326.084L219.996 401.584" stroke="#CBD8F1" stroke-width="8" stroke-linecap="round" stroke-linejoin="round"/>
<path id="d_127" d="M946.496 607.584L1029.5 411.584" stroke="#CBD8F1" stroke-width="8" stroke-linecap="round" stroke-linejoin="round"/>
<path id="d_128" d="M566.996 607.084L439.996 336.084" stroke="#CBD8F1" stroke-width="8" stroke-linecap="round" stroke-linejoin="round"/>
<path id="d_129" d="M562.039 608.084C562.039 672.425 648.896 724.584 756.039 724.584C863.182 724.584 950.039 672.425 950.039 608.084C950.039 543.742 863.182 491.584 756.039 491.584C650.845 491.584 565.206 541.862 562.125 604.584" stroke="#CBD8F1" stroke-width="8" stroke-linecap="round" stroke-linejoin="round"/>
<path id="d_130" d="M569.555 596.117C604.815 622.352 595.786 707.198 549.389 785.626C502.991 864.054 436.795 906.366 401.535 880.131C366.275 853.896 375.304 769.05 421.702 690.622C467.424 613.335 532.373 571.122 567.996 595.016" stroke="#CBD8F1" stroke-width="8" stroke-linecap="round" stroke-linejoin="round"/>
<path id="d_131" d="M574.268 605.133C610.029 579.842 606.645 501.15 566.71 429.372C526.775 357.593 465.412 319.907 429.651 345.199C393.89 370.491 397.274 449.182 437.209 520.961C475.773 590.275 534.319 627.797 570.496 607.517" stroke="#CBD8F1" stroke-width="8" stroke-linecap="round" stroke-linejoin="round"/>
<path id="d_132" d="M938.401 598.355C908.356 627.114 925.148 704.753 975.906 771.767C1026.66 838.78 1092.17 869.791 1122.21 841.032C1152.26 812.272 1135.47 734.633 1084.71 667.62C1034.21 600.946 969.11 569.911 938.861 597.922" stroke="#CBD8F1" stroke-width="8" stroke-linecap="round" stroke-linejoin="round"/>
<path id="d_133" d="M1034.91 408.88C1062.24 426.165 1063.29 483.97 1037.25 537.992C1011.21 592.014 967.947 621.795 940.618 604.51C913.289 587.226 912.243 529.42 938.283 475.399C964.032 421.978 1006.62 392.262 1034 408.32" stroke="#CBD8F1" stroke-width="8" stroke-linecap="round" stroke-linejoin="round"/>
<path id="d_134" d="M479.07 329.96C490.849 377.112 440.239 430.365 366.028 448.905C291.818 467.445 222.109 444.25 210.329 397.098C198.549 349.946 249.16 296.693 323.37 278.153C396.056 259.994 464.423 281.872 478.271 327.084" stroke="#CBD8F1" stroke-width="8" stroke-linecap="round" stroke-linejoin="round"/>
<ellipse id="d_135" cx="471.956" cy="218.293" rx="58.2343" ry="109.074" transform="rotate(19.6148 471.956 218.293)" stroke="#CBD8F1" stroke-width="8" stroke-linecap="round" stroke-linejoin="round"/>
<path id="d_136" d="M436.496 316.084L505.496 121.084" stroke="#CBD8F1" stroke-width="8" stroke-linecap="round" stroke-linejoin="round"/>
<ellipse id="d_137" cx="550.214" cy="260.839" rx="63" ry="118" transform="rotate(45.0234 550.214 260.839)" stroke="#CBD8F1" stroke-width="8" stroke-linecap="round" stroke-linejoin="round"/>
<path id="d_138" d="M628.996 182.084L470.996 336.084" stroke="#CBD8F1" stroke-width="8" stroke-linecap="round" stroke-linejoin="round"/>
<ellipse id="d_139" cx="612.158" cy="747.122" rx="78.33" ry="146.183" transform="rotate(-15.7945 612.158 747.122)" stroke="#CBD8F1" stroke-width="8" stroke-linecap="round" stroke-linejoin="round"/>
<path id="d_140" d="M569.996 611.584L652.496 881.084" stroke="#CBD8F1" stroke-width="8" stroke-linecap="round" stroke-linejoin="round"/>
<ellipse id="d_141" rx="73.4618" ry="134.938" transform="matrix(-0.962244 -0.272188 -0.272188 0.962244 909.904 732.072)" stroke="#CBD8F1" stroke-width="8" stroke-linecap="round" stroke-linejoin="round"/>
<path id="d_142" d="M947.996 608.084L873.496 851.584" stroke="#CBD8F1" stroke-width="8" stroke-linecap="round" stroke-linejoin="round"/>
</g>
<g id="r g-template_6">
<path id="1_6" d="M598.996 539.669C634.26 510.529 691.465 491.584 756.039 491.584C824.53 491.584 884.732 512.898 919.254 545.084C938.735 563.247 950.039 584.873 950.039 608.084C950.039 628.691 941.129 648.049 925.496 664.843C892.32 700.485 828.866 724.584 756.039 724.584C685.789 724.584 624.261 702.161 590.217 668.584" stroke="#6685D4" stroke-width="8" stroke-linecap="round" stroke-linejoin="round"/>
</g>
<path id="draw-line rgb-template_6" d="M950.496 608.611C977.551 614.718 1014.17 585.879 1037.25 537.992C1063.29 483.97 1062.24 426.165 1034.91 408.88C1007.59 391.596 964.322 421.377 938.283 475.399C926.834 499.151 920.621 523.634 919.576 545.084" stroke="#6685D4" stroke-width="8" stroke-linecap="round" stroke-linejoin="round"/>
</g>
</g>
<g id="step s-multistep">
<g id="input_8">
<g id="ref_7">
<path id="D" d="M567.496 606.084L402.996 874.584" stroke="#CBD8F1" stroke-width="8" stroke-linecap="round" stroke-linejoin="round"/>
<path id="D_2" d="M947.996 609.584L1112.5 842.084" stroke="#CBD8F1" stroke-width="8" stroke-linecap="round" stroke-linejoin="round"/>
<path id="D_3" d="M566.996 607.584H945.996" stroke="#CBD8F1" stroke-width="8" stroke-linecap="round" stroke-linejoin="round"/>
<path id="D_4" d="M474.996 326.084L219.996 401.584" stroke="#CBD8F1" stroke-width="8" stroke-linecap="round" stroke-linejoin="round"/>
<path id="D_5" d="M946.496 607.584L1029.5 411.584" stroke="#CBD8F1" stroke-width="8" stroke-linecap="round" stroke-linejoin="round"/>
<path id="D_6" d="M566.996 607.084L439.996 336.084" stroke="#CBD8F1" stroke-width="8" stroke-linecap="round" stroke-linejoin="round"/>
<path id="D_7" d="M562.039 608.084C562.039 672.425 648.896 724.584 756.039 724.584C863.182 724.584 950.039 672.425 950.039 608.084C950.039 543.742 863.182 491.584 756.039 491.584C650.845 491.584 565.206 541.862 562.125 604.584" stroke="#6685D4" stroke-width="8" stroke-linecap="round" stroke-linejoin="round"/>
<path id="D_8" d="M569.555 596.117C604.815 622.352 595.786 707.198 549.389 785.626C502.991 864.054 436.795 906.366 401.535 880.131C366.275 853.896 375.304 769.05 421.702 690.622C467.424 613.335 532.373 571.122 567.996 595.016" stroke="#6685D4" stroke-width="8" stroke-linecap="round" stroke-linejoin="round"/>
<path id="D_9" d="M574.268 605.133C610.029 579.842 606.645 501.15 566.71 429.372C526.775 357.593 465.412 319.907 429.651 345.199C393.89 370.491 397.274 449.182 437.209 520.961C475.773 590.275 534.319 627.797 570.496 607.517" stroke="#6685D4" stroke-width="8" stroke-linecap="round" stroke-linejoin="round"/>
<path id="D_10" d="M938.401 598.355C908.356 627.114 925.148 704.753 975.906 771.767C1026.66 838.78 1092.17 869.791 1122.21 841.032C1152.26 812.272 1135.47 734.633 1084.71 667.62C1034.21 600.946 969.11 569.911 938.861 597.922" stroke="#6685D4" stroke-width="8" stroke-linecap="round" stroke-linejoin="round"/>
<path id="D_11" d="M1034.91 408.88C1062.24 426.165 1063.29 483.97 1037.25 537.992C1011.21 592.014 967.947 621.795 940.618 604.51C913.289 587.226 912.243 529.42 938.283 475.399C964.032 421.978 1006.62 392.262 1034 408.32" stroke="#6685D4" stroke-width="8" stroke-linecap="round" stroke-linejoin="round"/>
<path id="D_12" d="M479.07 329.96C490.849 377.112 440.239 430.365 366.029 448.905C291.818 467.445 222.109 444.25 210.329 397.098C198.549 349.946 249.16 296.693 323.37 278.153C396.056 259.994 464.423 281.872 478.271 327.084" stroke="#6685D4" stroke-width="8" stroke-linecap="round" stroke-linejoin="round"/>
<ellipse id="D_13" cx="471.956" cy="218.293" rx="58.2343" ry="109.074" transform="rotate(19.6148 471.956 218.293)" stroke="#6685D4" stroke-width="8" stroke-linecap="round" stroke-linejoin="round"/>
<path id="D_14" d="M436.496 316.084L505.496 121.084" stroke="#CBD8F1" stroke-width="8" stroke-linecap="round" stroke-linejoin="round"/>
<ellipse id="D_15" cx="550.214" cy="260.839" rx="63" ry="118" transform="rotate(45.0234 550.214 260.839)" stroke="#6685D4" stroke-width="8" stroke-linecap="round" stroke-linejoin="round"/>
<path id="D_16" d="M628.996 182.084L470.996 336.084" stroke="#CBD8F1" stroke-width="8" stroke-linecap="round" stroke-linejoin="round"/>
<ellipse id="D_17" cx="612.158" cy="747.122" rx="78.33" ry="146.183" transform="rotate(-15.7945 612.158 747.122)" stroke="#6685D4" stroke-width="8" stroke-linecap="round" stroke-linejoin="round"/>
<path id="D_18" d="M569.996 611.584L652.496 881.084" stroke="#CBD8F1" stroke-width="8" stroke-linecap="round" stroke-linejoin="round"/>
</g>
<g id="ref g-template">
<path id="D_19" d="M567.496 606.084L402.996 874.584" stroke="#CBD8F1" stroke-width="8" stroke-linecap="round" stroke-linejoin="round"/>
<path id="D_20" d="M947.996 609.584L1112.5 842.084" stroke="#CBD8F1" stroke-width="8" stroke-linecap="round" stroke-linejoin="round"/>
<path id="D_21" d="M566.996 607.584H945.996" stroke="#CBD8F1" stroke-width="8" stroke-linecap="round" stroke-linejoin="round"/>
<path id="D_22" d="M474.996 326.084L219.996 401.584" stroke="#CBD8F1" stroke-width="8" stroke-linecap="round" stroke-linejoin="round"/>
<path id="D_23" d="M946.496 607.584L1029.5 411.584" stroke="#CBD8F1" stroke-width="8" stroke-linecap="round" stroke-linejoin="round"/>
<path id="D_24" d="M566.996 607.084L439.996 336.084" stroke="#CBD8F1" stroke-width="8" stroke-linecap="round" stroke-linejoin="round"/>
<path id="D_25" d="M562.039 608.084C562.039 672.425 648.896 724.584 756.039 724.584C863.182 724.584 950.039 672.425 950.039 608.084C950.039 543.742 863.182 491.584 756.039 491.584C650.845 491.584 565.206 541.862 562.125 604.584" stroke="#6685D4" stroke-width="8" stroke-linecap="round" stroke-linejoin="round"/>
<path id="D_26" d="M569.555 596.117C604.815 622.352 595.786 707.198 549.389 785.626C502.991 864.054 436.795 906.366 401.535 880.131C366.275 853.896 375.304 769.05 421.702 690.622C467.424 613.335 532.373 571.122 567.996 595.016" stroke="#6685D4" stroke-width="8" stroke-linecap="round" stroke-linejoin="round"/>
<path id="D_27" d="M574.268 605.133C610.029 579.842 606.645 501.15 566.71 429.372C526.775 357.593 465.412 319.907 429.651 345.199C393.89 370.491 397.274 449.182 437.209 520.961C475.773 590.275 534.319 627.797 570.496 607.517" stroke="#6685D4" stroke-width="8" stroke-linecap="round" stroke-linejoin="round"/>
<path id="D_28" d="M938.401 598.355C908.356 627.114 925.148 704.753 975.906 771.767C1026.66 838.78 1092.17 869.791 1122.21 841.032C1152.26 812.272 1135.47 734.633 1084.71 667.62C1034.21 600.946 969.11 569.911 938.861 597.922" stroke="#6685D4" stroke-width="8" stroke-linecap="round" stroke-linejoin="round"/>
<path id="D_29" d="M1034.91 408.88C1062.24 426.165 1063.29 483.97 1037.25 537.992C1011.21 592.014 967.947 621.795 940.618 604.51C913.289 587.226 912.243 529.42 938.283 475.399C964.032 421.978 1006.62 392.262 1034 408.32" stroke="#6685D4" stroke-width="8" stroke-linecap="round" stroke-linejoin="round"/>
<path id="D_30" d="M479.07 329.96C490.849 377.112 440.239 430.365 366.029 448.905C291.818 467.445 222.109 444.25 210.329 397.098C198.549 349.946 249.16 296.693 323.37 278.153C396.056 259.994 464.423 281.872 478.271 327.084" stroke="#6685D4" stroke-width="8" stroke-linecap="round" stroke-linejoin="round"/>
<ellipse id="D_31" cx="471.956" cy="218.293" rx="58.2343" ry="109.074" transform="rotate(19.6148 471.956 218.293)" stroke="#6685D4" stroke-width="8" stroke-linecap="round" stroke-linejoin="round"/>
<path id="D_32" d="M436.496 316.084L505.496 121.084" stroke="#CBD8F1" stroke-width="8" stroke-linecap="round" stroke-linejoin="round"/>
<ellipse id="D_33" cx="550.214" cy="260.839" rx="63" ry="118" transform="rotate(45.0234 550.214 260.839)" stroke="#6685D4" stroke-width="8" stroke-linecap="round" stroke-linejoin="round"/>
<path id="D_34" d="M628.996 182.084L470.996 336.084" stroke="#CBD8F1" stroke-width="8" stroke-linecap="round" stroke-linejoin="round"/>
<ellipse id="D_35" cx="612.158" cy="747.122" rx="78.33" ry="146.183" transform="rotate(-15.7945 612.158 747.122)" stroke="#6685D4" stroke-width="8" stroke-linecap="round" stroke-linejoin="round"/>
<path id="D_36" d="M569.996 611.584L652.496 881.084" stroke="#CBD8F1" stroke-width="8" stroke-linecap="round" stroke-linejoin="round"/>
</g>
<ellipse id="draw-line rgb-template_7" rx="73.4618" ry="134.938" transform="matrix(-0.962244 -0.272188 -0.272188 0.962244 909.904 732.072)" stroke="#6685D4" stroke-width="8" stroke-linecap="round" stroke-linejoin="round"/>
</g>
</g>
<g id="step s-multistep_2">
<g id="input_9">
<g id="ref_8">
<path id="D_37" d="M567.496 606.084L402.996 874.584" stroke="#CBD8F1" stroke-width="8" stroke-linecap="round" stroke-linejoin="round"/>
<path id="D_38" d="M947.996 609.584L1112.5 842.084" stroke="#CBD8F1" stroke-width="8" stroke-linecap="round" stroke-linejoin="round"/>
<path id="D_39" d="M566.996 607.584H945.996" stroke="#CBD8F1" stroke-width="8" stroke-linecap="round" stroke-linejoin="round"/>
<path id="D_40" d="M474.996 326.084L219.996 401.584" stroke="#CBD8F1" stroke-width="8" stroke-linecap="round" stroke-linejoin="round"/>
<path id="D_41" d="M946.496 607.584L1029.5 411.584" stroke="#CBD8F1" stroke-width="8" stroke-linecap="round" stroke-linejoin="round"/>
<path id="D_42" d="M566.996 607.084L439.996 336.084" stroke="#CBD8F1" stroke-width="8" stroke-linecap="round" stroke-linejoin="round"/>
<path id="D_43" d="M562.039 608.084C562.039 672.425 648.896 724.584 756.039 724.584C863.182 724.584 950.039 672.425 950.039 608.084C950.039 543.742 863.182 491.584 756.039 491.584C650.845 491.584 565.206 541.862 562.125 604.584" stroke="#6685D4" stroke-width="8" stroke-linecap="round" stroke-linejoin="round"/>
<path id="D_44" d="M569.555 596.117C604.815 622.352 595.786 707.198 549.389 785.626C502.991 864.054 436.795 906.366 401.535 880.131C366.275 853.896 375.304 769.05 421.702 690.622C467.424 613.335 532.373 571.122 567.996 595.016" stroke="#6685D4" stroke-width="8" stroke-linecap="round" stroke-linejoin="round"/>
<path id="D_45" d="M574.268 605.133C610.029 579.842 606.645 501.15 566.71 429.372C526.775 357.593 465.412 319.907 429.651 345.199C393.89 370.491 397.274 449.182 437.209 520.961C475.773 590.275 534.319 627.797 570.496 607.517" stroke="#6685D4" stroke-width="8" stroke-linecap="round" stroke-linejoin="round"/>
<path id="D_46" d="M938.401 598.355C908.356 627.114 925.148 704.753 975.906 771.767C1026.66 838.78 1092.17 869.791 1122.21 841.032C1152.26 812.272 1135.47 734.633 1084.71 667.62C1034.21 600.946 969.11 569.911 938.861 597.922" stroke="#6685D4" stroke-width="8" stroke-linecap="round" stroke-linejoin="round"/>
<path id="D_47" d="M1034.91 408.88C1062.24 426.165 1063.29 483.97 1037.25 537.992C1011.21 592.014 967.947 621.795 940.618 604.51C913.289 587.226 912.243 529.42 938.283 475.399C964.032 421.978 1006.62 392.262 1034 408.32" stroke="#6685D4" stroke-width="8" stroke-linecap="round" stroke-linejoin="round"/>
<path id="D_48" d="M479.07 329.96C490.849 377.112 440.239 430.365 366.029 448.905C291.818 467.445 222.109 444.25 210.329 397.098C198.549 349.946 249.16 296.693 323.37 278.153C396.056 259.994 464.423 281.872 478.271 327.084" stroke="#6685D4" stroke-width="8" stroke-linecap="round" stroke-linejoin="round"/>
<ellipse id="D_49" cx="471.956" cy="218.293" rx="58.2343" ry="109.074" transform="rotate(19.6148 471.956 218.293)" stroke="#6685D4" stroke-width="8" stroke-linecap="round" stroke-linejoin="round"/>
<path id="D_50" d="M436.496 316.084L505.496 121.084" stroke="#CBD8F1" stroke-width="8" stroke-linecap="round" stroke-linejoin="round"/>
<ellipse id="D_51" cx="550.214" cy="260.839" rx="63" ry="118" transform="rotate(45.0234 550.214 260.839)" stroke="#6685D4" stroke-width="8" stroke-linecap="round" stroke-linejoin="round"/>
<path id="D_52" d="M628.996 182.084L470.996 336.084" stroke="#CBD8F1" stroke-width="8" stroke-linecap="round" stroke-linejoin="round"/>
<ellipse id="D_53" cx="612.158" cy="747.122" rx="78.33" ry="146.183" transform="rotate(-15.7945 612.158 747.122)" stroke="#6685D4" stroke-width="8" stroke-linecap="round" stroke-linejoin="round"/>
<path id="D_54" d="M569.996 611.584L652.496 881.084" stroke="#CBD8F1" stroke-width="8" stroke-linecap="round" stroke-linejoin="round"/>
</g>
<g id="ref g-template_2">
<path id="D_55" d="M567.496 606.084L402.996 874.584" stroke="#CBD8F1" stroke-width="8" stroke-linecap="round" stroke-linejoin="round"/>
<path id="D_56" d="M947.996 609.584L1112.5 842.084" stroke="#CBD8F1" stroke-width="8" stroke-linecap="round" stroke-linejoin="round"/>
<path id="D_57" d="M566.996 607.584H945.996" stroke="#CBD8F1" stroke-width="8" stroke-linecap="round" stroke-linejoin="round"/>
<path id="D_58" d="M474.996 326.084L219.996 401.584" stroke="#CBD8F1" stroke-width="8" stroke-linecap="round" stroke-linejoin="round"/>
<path id="D_59" d="M946.496 607.584L1029.5 411.584" stroke="#CBD8F1" stroke-width="8" stroke-linecap="round" stroke-linejoin="round"/>
<path id="D_60" d="M566.996 607.084L439.996 336.084" stroke="#CBD8F1" stroke-width="8" stroke-linecap="round" stroke-linejoin="round"/>
<path id="D_61" d="M562.039 608.084C562.039 672.425 648.896 724.584 756.039 724.584C863.182 724.584 950.039 672.425 950.039 608.084C950.039 543.742 863.182 491.584 756.039 491.584C650.845 491.584 565.206 541.862 562.125 604.584" stroke="#6685D4" stroke-width="8" stroke-linecap="round" stroke-linejoin="round"/>
<path id="D_62" d="M569.555 596.117C604.815 622.352 595.786 707.198 549.389 785.626C502.991 864.054 436.795 906.366 401.535 880.131C366.275 853.896 375.304 769.05 421.702 690.622C467.424 613.335 532.373 571.122 567.996 595.016" stroke="#6685D4" stroke-width="8" stroke-linecap="round" stroke-linejoin="round"/>
<path id="D_63" d="M574.268 605.133C610.029 579.842 606.645 501.15 566.71 429.372C526.775 357.593 465.412 319.907 429.651 345.199C393.89 370.491 397.274 449.182 437.209 520.961C475.773 590.275 534.319 627.797 570.496 607.517" stroke="#6685D4" stroke-width="8" stroke-linecap="round" stroke-linejoin="round"/>
<path id="D_64" d="M938.401 598.355C908.356 627.114 925.148 704.753 975.906 771.767C1026.66 838.78 1092.17 869.791 1122.21 841.032C1152.26 812.272 1135.47 734.633 1084.71 667.62C1034.21 600.946 969.11 569.911 938.861 597.922" stroke="#6685D4" stroke-width="8" stroke-linecap="round" stroke-linejoin="round"/>
<path id="D_65" d="M1034.91 408.88C1062.24 426.165 1063.29 483.97 1037.25 537.992C1011.21 592.014 967.947 621.795 940.618 604.51C913.289 587.226 912.243 529.42 938.283 475.399C964.032 421.978 1006.62 392.262 1034 408.32" stroke="#6685D4" stroke-width="8" stroke-linecap="round" stroke-linejoin="round"/>
<path id="D_66" d="M479.07 329.96C490.849 377.112 440.239 430.365 366.029 448.905C291.818 467.445 222.109 444.25 210.329 397.098C198.549 349.946 249.16 296.693 323.37 278.153C396.056 259.994 464.423 281.872 478.271 327.084" stroke="#6685D4" stroke-width="8" stroke-linecap="round" stroke-linejoin="round"/>
<ellipse id="D_67" cx="471.956" cy="218.293" rx="58.2343" ry="109.074" transform="rotate(19.6148 471.956 218.293)" stroke="#6685D4" stroke-width="8" stroke-linecap="round" stroke-linejoin="round"/>
<path id="D_68" d="M436.496 316.084L505.496 121.084" stroke="#CBD8F1" stroke-width="8" stroke-linecap="round" stroke-linejoin="round"/>
<ellipse id="D_69" cx="550.214" cy="260.839" rx="63" ry="118" transform="rotate(45.0234 550.214 260.839)" stroke="#6685D4" stroke-width="8" stroke-linecap="round" stroke-linejoin="round"/>
<path id="D_70" d="M628.996 182.084L470.996 336.084" stroke="#CBD8F1" stroke-width="8" stroke-linecap="round" stroke-linejoin="round"/>
<ellipse id="D_71" cx="612.158" cy="747.122" rx="78.33" ry="146.183" transform="rotate(-15.7945 612.158 747.122)" stroke="#6685D4" stroke-width="8" stroke-linecap="round" stroke-linejoin="round"/>
<path id="D_72" d="M569.996 611.584L652.496 881.084" stroke="#CBD8F1" stroke-width="8" stroke-linecap="round" stroke-linejoin="round"/>
</g>
<path id="draw-line rgb-template_8" d="M947.996 608.084L873.496 851.584" stroke="#CBD8F1" stroke-width="8" stroke-linecap="round" stroke-linejoin="round"/>
</g>
</g>
<g id="step s-multistep_3">
<g id="input_10">
<g id="ref_9">
<path id="D_73" d="M567.496 606.084L402.996 874.584" stroke="#CBD8F1" stroke-width="8" stroke-linecap="round" stroke-linejoin="round"/>
<path id="D_74" d="M947.996 609.584L1112.5 842.084" stroke="#CBD8F1" stroke-width="8" stroke-linecap="round" stroke-linejoin="round"/>
<path id="D_75" d="M566.996 607.584H945.996" stroke="#CBD8F1" stroke-width="8" stroke-linecap="round" stroke-linejoin="round"/>
<path id="D_76" d="M474.996 326.084L219.996 401.584" stroke="#CBD8F1" stroke-width="8" stroke-linecap="round" stroke-linejoin="round"/>
<path id="D_77" d="M946.496 607.584L1029.5 411.584" stroke="#CBD8F1" stroke-width="8" stroke-linecap="round" stroke-linejoin="round"/>
<path id="D_78" d="M566.996 607.084L439.996 336.084" stroke="#CBD8F1" stroke-width="8" stroke-linecap="round" stroke-linejoin="round"/>
<path id="D_79" d="M562.039 608.084C562.039 672.425 648.896 724.584 756.039 724.584C863.182 724.584 950.039 672.425 950.039 608.084C950.039 543.742 863.182 491.584 756.039 491.584C650.845 491.584 565.206 541.862 562.125 604.584" stroke="#6685D4" stroke-width="8" stroke-linecap="round" stroke-linejoin="round"/>
<path id="D_80" d="M569.555 596.117C604.815 622.352 595.786 707.198 549.389 785.626C502.991 864.054 436.795 906.366 401.535 880.131C366.275 853.896 375.304 769.05 421.702 690.622C467.424 613.335 532.373 571.122 567.996 595.016" stroke="#6685D4" stroke-width="8" stroke-linecap="round" stroke-linejoin="round"/>
<path id="D_81" d="M574.268 605.133C610.029 579.842 606.645 501.15 566.71 429.372C526.775 357.593 465.412 319.907 429.651 345.199C393.89 370.491 397.274 449.182 437.209 520.961C475.773 590.275 534.319 627.797 570.496 607.517" stroke="#6685D4" stroke-width="8" stroke-linecap="round" stroke-linejoin="round"/>
<path id="D_82" d="M938.401 598.355C908.356 627.114 925.148 704.753 975.906 771.767C1026.66 838.78 1092.17 869.791 1122.21 841.032C1152.26 812.272 1135.47 734.633 1084.71 667.62C1034.21 600.946 969.11 569.911 938.861 597.922" stroke="#6685D4" stroke-width="8" stroke-linecap="round" stroke-linejoin="round"/>
<path id="D_83" d="M1034.91 408.88C1062.24 426.165 1063.29 483.97 1037.25 537.992C1011.21 592.014 967.947 621.795 940.618 604.51C913.289 587.226 912.243 529.42 938.283 475.399C964.032 421.978 1006.62 392.262 1034 408.32" stroke="#6685D4" stroke-width="8" stroke-linecap="round" stroke-linejoin="round"/>
<path id="D_84" d="M479.07 329.96C490.849 377.112 440.239 430.365 366.029 448.905C291.818 467.445 222.109 444.25 210.329 397.098C198.549 349.946 249.16 296.693 323.37 278.153C396.056 259.994 464.423 281.872 478.271 327.084" stroke="#6685D4" stroke-width="8" stroke-linecap="round" stroke-linejoin="round"/>
<ellipse id="D_85" cx="471.956" cy="218.293" rx="58.2343" ry="109.074" transform="rotate(19.6148 471.956 218.293)" stroke="#6685D4" stroke-width="8" stroke-linecap="round" stroke-linejoin="round"/>
<path id="D_86" d="M436.496 316.084L505.496 121.084" stroke="#CBD8F1" stroke-width="8" stroke-linecap="round" stroke-linejoin="round"/>
<ellipse id="D_87" cx="550.214" cy="260.839" rx="63" ry="118" transform="rotate(45.0234 550.214 260.839)" stroke="#6685D4" stroke-width="8" stroke-linecap="round" stroke-linejoin="round"/>
<path id="D_88" d="M628.996 182.084L470.996 336.084" stroke="#CBD8F1" stroke-width="8" stroke-linecap="round" stroke-linejoin="round"/>
</g>
<g id="ref g-template_3">
<path id="D_89" d="M567.496 606.084L402.996 874.584" stroke="#CBD8F1" stroke-width="8" stroke-linecap="round" stroke-linejoin="round"/>
<path id="D_90" d="M947.996 609.584L1112.5 842.084" stroke="#CBD8F1" stroke-width="8" stroke-linecap="round" stroke-linejoin="round"/>
<path id="D_91" d="M566.996 607.584H945.996" stroke="#CBD8F1" stroke-width="8" stroke-linecap="round" stroke-linejoin="round"/>
<path id="D_92" d="M474.996 326.084L219.996 401.584" stroke="#CBD8F1" stroke-width="8" stroke-linecap="round" stroke-linejoin="round"/>
<path id="D_93" d="M946.496 607.584L1029.5 411.584" stroke="#CBD8F1" stroke-width="8" stroke-linecap="round" stroke-linejoin="round"/>
<path id="D_94" d="M566.996 607.084L439.996 336.084" stroke="#CBD8F1" stroke-width="8" stroke-linecap="round" stroke-linejoin="round"/>
<path id="D_95" d="M562.039 608.084C562.039 672.425 648.896 724.584 756.039 724.584C863.182 724.584 950.039 672.425 950.039 608.084C950.039 543.742 863.182 491.584 756.039 491.584C650.845 491.584 565.206 541.862 562.125 604.584" stroke="#6685D4" stroke-width="8" stroke-linecap="round" stroke-linejoin="round"/>
<path id="D_96" d="M569.555 596.117C604.815 622.352 595.786 707.198 549.389 785.626C502.991 864.054 436.795 906.366 401.535 880.131C366.275 853.896 375.304 769.05 421.702 690.622C467.424 613.335 532.373 571.122 567.996 595.016" stroke="#6685D4" stroke-width="8" stroke-linecap="round" stroke-linejoin="round"/>
<path id="D_97" d="M574.268 605.133C610.029 579.842 606.645 501.15 566.71 429.372C526.775 357.593 465.412 319.907 429.651 345.199C393.89 370.491 397.274 449.182 437.209 520.961C475.773 590.275 534.319 627.797 570.496 607.517" stroke="#6685D4" stroke-width="8" stroke-linecap="round" stroke-linejoin="round"/>
<path id="D_98" d="M938.401 598.355C908.356 627.114 925.148 704.753 975.906 771.767C1026.66 838.78 1092.17 869.791 1122.21 841.032C1152.26 812.272 1135.47 734.633 1084.71 667.62C1034.21 600.946 969.11 569.911 938.861 597.922" stroke="#6685D4" stroke-width="8" stroke-linecap="round" stroke-linejoin="round"/>
<path id="D_99" d="M1034.91 408.88C1062.24 426.165 1063.29 483.97 1037.25 537.992C1011.21 592.014 967.947 621.795 940.618 604.51C913.289 587.226 912.243 529.42 938.283 475.399C964.032 421.978 1006.62 392.262 1034 408.32" stroke="#6685D4" stroke-width="8" stroke-linecap="round" stroke-linejoin="round"/>
<path id="D_100" d="M479.07 329.96C490.849 377.112 440.239 430.365 366.029 448.905C291.818 467.445 222.109 444.25 210.329 397.098C198.549 349.946 249.16 296.693 323.37 278.153C396.056 259.994 464.423 281.872 478.271 327.084" stroke="#6685D4" stroke-width="8" stroke-linecap="round" stroke-linejoin="round"/>
<ellipse id="D_101" cx="471.956" cy="218.293" rx="58.2343" ry="109.074" transform="rotate(19.6148 471.956 218.293)" stroke="#6685D4" stroke-width="8" stroke-linecap="round" stroke-linejoin="round"/>
<path id="D_102" d="M436.496 316.084L505.496 121.084" stroke="#CBD8F1" stroke-width="8" stroke-linecap="round" stroke-linejoin="round"/>
<ellipse id="D_103" cx="550.214" cy="260.839" rx="63" ry="118" transform="rotate(45.0234 550.214 260.839)" stroke="#6685D4" stroke-width="8" stroke-linecap="round" stroke-linejoin="round"/>
<path id="D_104" d="M628.996 182.084L470.996 336.084" stroke="#CBD8F1" stroke-width="8" stroke-linecap="round" stroke-linejoin="round"/>
</g>
<ellipse id="draw-line rgb-template_9" cx="612.158" cy="747.122" rx="78.33" ry="146.183" transform="rotate(-15.7945 612.158 747.122)" stroke="#6685D4" stroke-width="8" stroke-linecap="round" stroke-linejoin="round"/>
</g>
</g>
<g id="step s-multistep_4">
<g id="input_11">
<g id="ref_10">
<path id="D_105" d="M567.496 606.084L402.996 874.584" stroke="#CBD8F1" stroke-width="8" stroke-linecap="round" stroke-linejoin="round"/>
<path id="D_106" d="M947.996 609.584L1112.5 842.084" stroke="#CBD8F1" stroke-width="8" stroke-linecap="round" stroke-linejoin="round"/>
<path id="D_107" d="M566.996 607.584H945.996" stroke="#CBD8F1" stroke-width="8" stroke-linecap="round" stroke-linejoin="round"/>
<path id="D_108" d="M474.996 326.084L219.996 401.584" stroke="#CBD8F1" stroke-width="8" stroke-linecap="round" stroke-linejoin="round"/>
<path id="D_109" d="M946.496 607.584L1029.5 411.584" stroke="#CBD8F1" stroke-width="8" stroke-linecap="round" stroke-linejoin="round"/>
<path id="D_110" d="M566.996 607.084L439.996 336.084" stroke="#CBD8F1" stroke-width="8" stroke-linecap="round" stroke-linejoin="round"/>
<path id="D_111" d="M562.039 608.084C562.039 672.425 648.896 724.584 756.039 724.584C863.182 724.584 950.039 672.425 950.039 608.084C950.039 543.742 863.182 491.584 756.039 491.584C650.845 491.584 565.206 541.862 562.125 604.584" stroke="#6685D4" stroke-width="8" stroke-linecap="round" stroke-linejoin="round"/>
<path id="D_112" d="M569.555 596.117C604.815 622.352 595.786 707.198 549.389 785.626C502.991 864.054 436.795 906.366 401.535 880.131C366.275 853.896 375.304 769.05 421.702 690.622C467.424 613.335 532.373 571.122 567.996 595.016" stroke="#6685D4" stroke-width="8" stroke-linecap="round" stroke-linejoin="round"/>
<path id="D_113" d="M574.268 605.133C610.029 579.842 606.645 501.15 566.71 429.372C526.775 357.593 465.412 319.907 429.651 345.199C393.89 370.491 397.274 449.182 437.209 520.961C475.773 590.275 534.319 627.797 570.496 607.517" stroke="#6685D4" stroke-width="8" stroke-linecap="round" stroke-linejoin="round"/>
<path id="D_114" d="M938.401 598.355C908.356 627.114 925.148 704.753 975.906 771.767C1026.66 838.78 1092.17 869.791 1122.21 841.032C1152.26 812.272 1135.47 734.633 1084.71 667.62C1034.21 600.946 969.11 569.911 938.861 597.922" stroke="#6685D4" stroke-width="8" stroke-linecap="round" stroke-linejoin="round"/>
<path id="D_115" d="M1034.91 408.88C1062.24 426.165 1063.29 483.97 1037.25 537.992C1011.21 592.014 967.947 621.795 940.618 604.51C913.289 587.226 912.243 529.42 938.283 475.399C964.032 421.978 1006.62 392.262 1034 408.32" stroke="#6685D4" stroke-width="8" stroke-linecap="round" stroke-linejoin="round"/>
<path id="D_116" d="M479.07 329.96C490.849 377.112 440.239 430.365 366.029 448.905C291.818 467.445 222.109 444.25 210.329 397.098C198.549 349.946 249.16 296.693 323.37 278.153C396.056 259.994 464.423 281.872 478.271 327.084" stroke="#6685D4" stroke-width="8" stroke-linecap="round" stroke-linejoin="round"/>
<ellipse id="D_117" cx="471.956" cy="218.293" rx="58.2343" ry="109.074" transform="rotate(19.6148 471.956 218.293)" stroke="#6685D4" stroke-width="8" stroke-linecap="round" stroke-linejoin="round"/>
<path id="D_118" d="M436.496 316.084L505.496 121.084" stroke="#CBD8F1" stroke-width="8" stroke-linecap="round" stroke-linejoin="round"/>
<ellipse id="D_119" cx="550.214" cy="260.839" rx="63" ry="118" transform="rotate(45.0234 550.214 260.839)" stroke="#6685D4" stroke-width="8" stroke-linecap="round" stroke-linejoin="round"/>
<path id="D_120" d="M628.996 182.084L470.996 336.084" stroke="#CBD8F1" stroke-width="8" stroke-linecap="round" stroke-linejoin="round"/>
</g>
<g id="ref g-template_4">
<path id="D_121" d="M567.496 606.084L402.996 874.584" stroke="#CBD8F1" stroke-width="8" stroke-linecap="round" stroke-linejoin="round"/>
<path id="D_122" d="M947.996 609.584L1112.5 842.084" stroke="#CBD8F1" stroke-width="8" stroke-linecap="round" stroke-linejoin="round"/>
<path id="D_123" d="M566.996 607.584H945.996" stroke="#CBD8F1" stroke-width="8" stroke-linecap="round" stroke-linejoin="round"/>
<path id="D_124" d="M474.996 326.084L219.996 401.584" stroke="#CBD8F1" stroke-width="8" stroke-linecap="round" stroke-linejoin="round"/>
<path id="D_125" d="M946.496 607.584L1029.5 411.584" stroke="#CBD8F1" stroke-width="8" stroke-linecap="round" stroke-linejoin="round"/>
<path id="D_126" d="M566.996 607.084L439.996 336.084" stroke="#CBD8F1" stroke-width="8" stroke-linecap="round" stroke-linejoin="round"/>
<path id="D_127" d="M562.039 608.084C562.039 672.425 648.896 724.584 756.039 724.584C863.182 724.584 950.039 672.425 950.039 608.084C950.039 543.742 863.182 491.584 756.039 491.584C650.845 491.584 565.206 541.862 562.125 604.584" stroke="#6685D4" stroke-width="8" stroke-linecap="round" stroke-linejoin="round"/>
<path id="D_128" d="M569.555 596.117C604.815 622.352 595.786 707.198 549.389 785.626C502.991 864.054 436.795 906.366 401.535 880.131C366.275 853.896 375.304 769.05 421.702 690.622C467.424 613.335 532.373 571.122 567.996 595.016" stroke="#6685D4" stroke-width="8" stroke-linecap="round" stroke-linejoin="round"/>
<path id="D_129" d="M574.268 605.133C610.029 579.842 606.645 501.15 566.71 429.372C526.775 357.593 465.412 319.907 429.651 345.199C393.89 370.491 397.274 449.182 437.209 520.961C475.773 590.275 534.319 627.797 570.496 607.517" stroke="#6685D4" stroke-width="8" stroke-linecap="round" stroke-linejoin="round"/>
<path id="D_130" d="M938.401 598.355C908.356 627.114 925.148 704.753 975.906 771.767C1026.66 838.78 1092.17 869.791 1122.21 841.032C1152.26 812.272 1135.47 734.633 1084.71 667.62C1034.21 600.946 969.11 569.911 938.861 597.922" stroke="#6685D4" stroke-width="8" stroke-linecap="round" stroke-linejoin="round"/>
<path id="D_131" d="M1034.91 408.88C1062.24 426.165 1063.29 483.97 1037.25 537.992C1011.21 592.014 967.947 621.795 940.618 604.51C913.289 587.226 912.243 529.42 938.283 475.399C964.032 421.978 1006.62 392.262 1034 408.32" stroke="#6685D4" stroke-width="8" stroke-linecap="round" stroke-linejoin="round"/>
<path id="D_132" d="M479.07 329.96C490.849 377.112 440.239 430.365 366.029 448.905C291.818 467.445 222.109 444.25 210.329 397.098C198.549 349.946 249.16 296.693 323.37 278.153C396.056 259.994 464.423 281.872 478.271 327.084" stroke="#6685D4" stroke-width="8" stroke-linecap="round" stroke-linejoin="round"/>
<ellipse id="D_133" cx="471.956" cy="218.293" rx="58.2343" ry="109.074" transform="rotate(19.6148 471.956 218.293)" stroke="#6685D4" stroke-width="8" stroke-linecap="round" stroke-linejoin="round"/>
<path id="D_134" d="M436.496 316.084L505.496 121.084" stroke="#CBD8F1" stroke-width="8" stroke-linecap="round" stroke-linejoin="round"/>
<ellipse id="D_135" cx="550.214" cy="260.839" rx="63" ry="118" transform="rotate(45.0234 550.214 260.839)" stroke="#6685D4" stroke-width="8" stroke-linecap="round" stroke-linejoin="round"/>
<path id="D_136" d="M628.996 182.084L470.996 336.084" stroke="#CBD8F1" stroke-width="8" stroke-linecap="round" stroke-linejoin="round"/>
</g>
<path id="draw-line rgb-template_10" d="M569.996 611.584L652.496 881.084" stroke="#CBD8F1" stroke-width="8" stroke-linecap="round" stroke-linejoin="round"/>
</g>
</g>
<g id="step s-multistep_5">
<g id="input_12">
<g id="ref_11">
<path id="D_137" d="M567.496 606.084L402.996 874.584" stroke="#CBD8F1" stroke-width="8" stroke-linecap="round" stroke-linejoin="round"/>
<path id="D_138" d="M947.996 609.584L1112.5 842.084" stroke="#CBD8F1" stroke-width="8" stroke-linecap="round" stroke-linejoin="round"/>
<path id="D_139" d="M566.996 607.584H945.996" stroke="#CBD8F1" stroke-width="8" stroke-linecap="round" stroke-linejoin="round"/>
<path id="D_140" d="M474.996 326.084L219.996 401.584" stroke="#CBD8F1" stroke-width="8" stroke-linecap="round" stroke-linejoin="round"/>
<path id="D_141" d="M946.496 607.584L1029.5 411.584" stroke="#CBD8F1" stroke-width="8" stroke-linecap="round" stroke-linejoin="round"/>
<path id="D_142" d="M566.996 607.084L439.996 336.084" stroke="#CBD8F1" stroke-width="8" stroke-linecap="round" stroke-linejoin="round"/>
<path id="D_143" d="M562.039 608.084C562.039 672.425 648.896 724.584 756.039 724.584C863.182 724.584 950.039 672.425 950.039 608.084C950.039 543.742 863.182 491.584 756.039 491.584C650.845 491.584 565.206 541.862 562.125 604.584" stroke="#6685D4" stroke-width="8" stroke-linecap="round" stroke-linejoin="round"/>
<path id="D_144" d="M569.555 596.117C604.815 622.352 595.786 707.198 549.389 785.626C502.991 864.054 436.795 906.366 401.535 880.131C366.275 853.896 375.304 769.05 421.702 690.622C467.424 613.335 532.373 571.122 567.996 595.016" stroke="#6685D4" stroke-width="8" stroke-linecap="round" stroke-linejoin="round"/>
<path id="D_145" d="M574.268 605.133C610.029 579.842 606.645 501.15 566.71 429.372C526.775 357.593 465.412 319.907 429.651 345.199C393.89 370.491 397.274 449.182 437.209 520.961C475.773 590.275 534.319 627.797 570.496 607.517" stroke="#6685D4" stroke-width="8" stroke-linecap="round" stroke-linejoin="round"/>
<path id="D_146" d="M938.401 598.355C908.356 627.114 925.148 704.753 975.906 771.767C1026.66 838.78 1092.17 869.791 1122.21 841.032C1152.26 812.272 1135.47 734.633 1084.71 667.62C1034.21 600.946 969.11 569.911 938.861 597.922" stroke="#6685D4" stroke-width="8" stroke-linecap="round" stroke-linejoin="round"/>
<path id="D_147" d="M1034.91 408.88C1062.24 426.165 1063.29 483.97 1037.25 537.992C1011.21 592.014 967.947 621.795 940.618 604.51C913.289 587.226 912.243 529.42 938.283 475.399C964.032 421.978 1006.62 392.262 1034 408.32" stroke="#6685D4" stroke-width="8" stroke-linecap="round" stroke-linejoin="round"/>
<path id="D_148" d="M479.07 329.96C490.849 377.112 440.239 430.365 366.029 448.905C291.818 467.445 222.109 444.25 210.329 397.098C198.549 349.946 249.16 296.693 323.37 278.153C396.056 259.994 464.423 281.872 478.271 327.084" stroke="#6685D4" stroke-width="8" stroke-linecap="round" stroke-linejoin="round"/>
<ellipse id="D_149" cx="471.956" cy="218.293" rx="58.2343" ry="109.074" transform="rotate(19.6148 471.956 218.293)" stroke="#6685D4" stroke-width="8" stroke-linecap="round" stroke-linejoin="round"/>
<path id="D_150" d="M436.496 316.084L505.496 121.084" stroke="#CBD8F1" stroke-width="8" stroke-linecap="round" stroke-linejoin="round"/>
</g>
<g id="ref g-template_5">
<path id="D_151" d="M567.496 606.084L402.996 874.584" stroke="#CBD8F1" stroke-width="8" stroke-linecap="round" stroke-linejoin="round"/>
<path id="D_152" d="M947.996 609.584L1112.5 842.084" stroke="#CBD8F1" stroke-width="8" stroke-linecap="round" stroke-linejoin="round"/>
<path id="D_153" d="M566.996 607.584H945.996" stroke="#CBD8F1" stroke-width="8" stroke-linecap="round" stroke-linejoin="round"/>
<path id="D_154" d="M474.996 326.084L219.996 401.584" stroke="#CBD8F1" stroke-width="8" stroke-linecap="round" stroke-linejoin="round"/>
<path id="D_155" d="M946.496 607.584L1029.5 411.584" stroke="#CBD8F1" stroke-width="8" stroke-linecap="round" stroke-linejoin="round"/>
<path id="D_156" d="M566.996 607.084L439.996 336.084" stroke="#CBD8F1" stroke-width="8" stroke-linecap="round" stroke-linejoin="round"/>
<path id="D_157" d="M562.039 608.084C562.039 672.425 648.896 724.584 756.039 724.584C863.182 724.584 950.039 672.425 950.039 608.084C950.039 543.742 863.182 491.584 756.039 491.584C650.845 491.584 565.206 541.862 562.125 604.584" stroke="#6685D4" stroke-width="8" stroke-linecap="round" stroke-linejoin="round"/>
<path id="D_158" d="M569.555 596.117C604.815 622.352 595.786 707.198 549.389 785.626C502.991 864.054 436.795 906.366 401.535 880.131C366.275 853.896 375.304 769.05 421.702 690.622C467.424 613.335 532.373 571.122 567.996 595.016" stroke="#6685D4" stroke-width="8" stroke-linecap="round" stroke-linejoin="round"/>
<path id="D_159" d="M574.268 605.133C610.029 579.842 606.645 501.15 566.71 429.372C526.775 357.593 465.412 319.907 429.651 345.199C393.89 370.491 397.274 449.182 437.209 520.961C475.773 590.275 534.319 627.797 570.496 607.517" stroke="#6685D4" stroke-width="8" stroke-linecap="round" stroke-linejoin="round"/>
<path id="D_160" d="M938.401 598.355C908.356 627.114 925.148 704.753 975.906 771.767C1026.66 838.78 1092.17 869.791 1122.21 841.032C1152.26 812.272 1135.47 734.633 1084.71 667.62C1034.21 600.946 969.11 569.911 938.861 597.922" stroke="#6685D4" stroke-width="8" stroke-linecap="round" stroke-linejoin="round"/>
<path id="D_161" d="M1034.91 408.88C1062.24 426.165 1063.29 483.97 1037.25 537.992C1011.21 592.014 967.947 621.795 940.618 604.51C913.289 587.226 912.243 529.42 938.283 475.399C964.032 421.978 1006.62 392.262 1034 408.32" stroke="#6685D4" stroke-width="8" stroke-linecap="round" stroke-linejoin="round"/>
<path id="D_162" d="M479.07 329.96C490.849 377.112 440.239 430.365 366.029 448.905C291.818 467.445 222.109 444.25 210.329 397.098C198.549 349.946 249.16 296.693 323.37 278.153C396.056 259.994 464.423 281.872 478.271 327.084" stroke="#6685D4" stroke-width="8" stroke-linecap="round" stroke-linejoin="round"/>
<ellipse id="D_163" cx="471.956" cy="218.293" rx="58.2343" ry="109.074" transform="rotate(19.6148 471.956 218.293)" stroke="#6685D4" stroke-width="8" stroke-linecap="round" stroke-linejoin="round"/>
<path id="D_164" d="M436.496 316.084L505.496 121.084" stroke="#CBD8F1" stroke-width="8" stroke-linecap="round" stroke-linejoin="round"/>
</g>
<ellipse id="draw-line rgb-template_11" cx="550.214" cy="260.839" rx="63" ry="118" transform="rotate(45.0234 550.214 260.839)" stroke="#6685D4" stroke-width="8" stroke-linecap="round" stroke-linejoin="round"/>
</g>
</g>
<g id="step s-multistep_6">
<g id="input_13">
<g id="ref_12">
<path id="D_165" d="M567.496 606.084L402.996 874.584" stroke="#CBD8F1" stroke-width="8" stroke-linecap="round" stroke-linejoin="round"/>
<path id="D_166" d="M947.996 609.584L1112.5 842.084" stroke="#CBD8F1" stroke-width="8" stroke-linecap="round" stroke-linejoin="round"/>
<path id="D_167" d="M566.996 607.584H945.996" stroke="#CBD8F1" stroke-width="8" stroke-linecap="round" stroke-linejoin="round"/>
<path id="D_168" d="M474.996 326.084L219.996 401.584" stroke="#CBD8F1" stroke-width="8" stroke-linecap="round" stroke-linejoin="round"/>
<path id="D_169" d="M946.496 607.584L1029.5 411.584" stroke="#CBD8F1" stroke-width="8" stroke-linecap="round" stroke-linejoin="round"/>
<path id="D_170" d="M566.996 607.084L439.996 336.084" stroke="#CBD8F1" stroke-width="8" stroke-linecap="round" stroke-linejoin="round"/>
<path id="D_171" d="M562.039 608.084C562.039 672.425 648.896 724.584 756.039 724.584C863.182 724.584 950.039 672.425 950.039 608.084C950.039 543.742 863.182 491.584 756.039 491.584C650.845 491.584 565.206 541.862 562.125 604.584" stroke="#6685D4" stroke-width="8" stroke-linecap="round" stroke-linejoin="round"/>
<path id="D_172" d="M569.555 596.117C604.815 622.352 595.786 707.198 549.389 785.626C502.991 864.054 436.795 906.366 401.535 880.131C366.275 853.896 375.304 769.05 421.702 690.622C467.424 613.335 532.373 571.122 567.996 595.016" stroke="#6685D4" stroke-width="8" stroke-linecap="round" stroke-linejoin="round"/>
<path id="D_173" d="M574.268 605.133C610.029 579.842 606.645 501.15 566.71 429.372C526.775 357.593 465.412 319.907 429.651 345.199C393.89 370.491 397.274 449.182 437.209 520.961C475.773 590.275 534.319 627.797 570.496 607.517" stroke="#6685D4" stroke-width="8" stroke-linecap="round" stroke-linejoin="round"/>
<path id="D_174" d="M938.401 598.355C908.356 627.114 925.148 704.753 975.906 771.767C1026.66 838.78 1092.17 869.791 1122.21 841.032C1152.26 812.272 1135.47 734.633 1084.71 667.62C1034.21 600.946 969.11 569.911 938.861 597.922" stroke="#6685D4" stroke-width="8" stroke-linecap="round" stroke-linejoin="round"/>
<path id="D_175" d="M1034.91 408.88C1062.24 426.165 1063.29 483.97 1037.25 537.992C1011.21 592.014 967.947 621.795 940.618 604.51C913.289 587.226 912.243 529.42 938.283 475.399C964.032 421.978 1006.62 392.262 1034 408.32" stroke="#6685D4" stroke-width="8" stroke-linecap="round" stroke-linejoin="round"/>
<path id="D_176" d="M479.07 329.96C490.849 377.112 440.239 430.365 366.029 448.905C291.818 467.445 222.109 444.25 210.329 397.098C198.549 349.946 249.16 296.693 323.37 278.153C396.056 259.994 464.423 281.872 478.271 327.084" stroke="#6685D4" stroke-width="8" stroke-linecap="round" stroke-linejoin="round"/>
<ellipse id="D_177" cx="471.956" cy="218.293" rx="58.2343" ry="109.074" transform="rotate(19.6148 471.956 218.293)" stroke="#6685D4" stroke-width="8" stroke-linecap="round" stroke-linejoin="round"/>
<path id="D_178" d="M436.496 316.084L505.496 121.084" stroke="#CBD8F1" stroke-width="8" stroke-linecap="round" stroke-linejoin="round"/>
</g>
<g id="ref g-template_6">
<path id="D_179" d="M567.496 606.084L402.996 874.584" stroke="#CBD8F1" stroke-width="8" stroke-linecap="round" stroke-linejoin="round"/>
<path id="D_180" d="M947.996 609.584L1112.5 842.084" stroke="#CBD8F1" stroke-width="8" stroke-linecap="round" stroke-linejoin="round"/>
<path id="D_181" d="M566.996 607.584H945.996" stroke="#CBD8F1" stroke-width="8" stroke-linecap="round" stroke-linejoin="round"/>
<path id="D_182" d="M474.996 326.084L219.996 401.584" stroke="#CBD8F1" stroke-width="8" stroke-linecap="round" stroke-linejoin="round"/>
<path id="D_183" d="M946.496 607.584L1029.5 411.584" stroke="#CBD8F1" stroke-width="8" stroke-linecap="round" stroke-linejoin="round"/>
<path id="D_184" d="M566.996 607.084L439.996 336.084" stroke="#CBD8F1" stroke-width="8" stroke-linecap="round" stroke-linejoin="round"/>
<path id="D_185" d="M562.039 608.084C562.039 672.425 648.896 724.584 756.039 724.584C863.182 724.584 950.039 672.425 950.039 608.084C950.039 543.742 863.182 491.584 756.039 491.584C650.845 491.584 565.206 541.862 562.125 604.584" stroke="#6685D4" stroke-width="8" stroke-linecap="round" stroke-linejoin="round"/>
<path id="D_186" d="M569.555 596.117C604.815 622.352 595.786 707.198 549.389 785.626C502.991 864.054 436.795 906.366 401.535 880.131C366.275 853.896 375.304 769.05 421.702 690.622C467.424 613.335 532.373 571.122 567.996 595.016" stroke="#6685D4" stroke-width="8" stroke-linecap="round" stroke-linejoin="round"/>
<path id="D_187" d="M574.268 605.133C610.029 579.842 606.645 501.15 566.71 429.372C526.775 357.593 465.412 319.907 429.651 345.199C393.89 370.491 397.274 449.182 437.209 520.961C475.773 590.275 534.319 627.797 570.496 607.517" stroke="#6685D4" stroke-width="8" stroke-linecap="round" stroke-linejoin="round"/>
<path id="D_188" d="M938.401 598.355C908.356 627.114 925.148 704.753 975.906 771.767C1026.66 838.78 1092.17 869.791 1122.21 841.032C1152.26 812.272 1135.47 734.633 1084.71 667.62C1034.21 600.946 969.11 569.911 938.861 597.922" stroke="#6685D4" stroke-width="8" stroke-linecap="round" stroke-linejoin="round"/>
<path id="D_189" d="M1034.91 408.88C1062.24 426.165 1063.29 483.97 1037.25 537.992C1011.21 592.014 967.947 621.795 940.618 604.51C913.289 587.226 912.243 529.42 938.283 475.399C964.032 421.978 1006.62 392.262 1034 408.32" stroke="#6685D4" stroke-width="8" stroke-linecap="round" stroke-linejoin="round"/>
<path id="D_190" d="M479.07 329.96C490.849 377.112 440.239 430.365 366.029 448.905C291.818 467.445 222.109 444.25 210.329 397.098C198.549 349.946 249.16 296.693 323.37 278.153C396.056 259.994 464.423 281.872 478.271 327.084" stroke="#6685D4" stroke-width="8" stroke-linecap="round" stroke-linejoin="round"/>
<ellipse id="D_191" cx="471.956" cy="218.293" rx="58.2343" ry="109.074" transform="rotate(19.6148 471.956 218.293)" stroke="#6685D4" stroke-width="8" stroke-linecap="round" stroke-linejoin="round"/>
<path id="D_192" d="M436.496 316.084L505.496 121.084" stroke="#CBD8F1" stroke-width="8" stroke-linecap="round" stroke-linejoin="round"/>
</g>
<path id="draw-line rgb-template_12" d="M628.996 182.084L470.996 336.084" stroke="#CBD8F1" stroke-width="8" stroke-linecap="round" stroke-linejoin="round"/>
</g>
</g>
<g id="step s-multistep_7">
<g id="input_14">
<g id="ref_13">
<path id="D_193" d="M567.496 606.084L402.996 874.584" stroke="#CBD8F1" stroke-width="8" stroke-linecap="round" stroke-linejoin="round"/>
<path id="D_194" d="M947.996 609.584L1112.5 842.084" stroke="#CBD8F1" stroke-width="8" stroke-linecap="round" stroke-linejoin="round"/>
<path id="D_195" d="M566.996 607.584H945.996" stroke="#CBD8F1" stroke-width="8" stroke-linecap="round" stroke-linejoin="round"/>
<path id="D_196" d="M474.996 326.084L219.996 401.584" stroke="#CBD8F1" stroke-width="8" stroke-linecap="round" stroke-linejoin="round"/>
<path id="D_197" d="M946.496 607.584L1029.5 411.584" stroke="#CBD8F1" stroke-width="8" stroke-linecap="round" stroke-linejoin="round"/>
<path id="D_198" d="M566.996 607.084L439.996 336.084" stroke="#CBD8F1" stroke-width="8" stroke-linecap="round" stroke-linejoin="round"/>
<path id="D_199" d="M562.039 608.084C562.039 672.425 648.896 724.584 756.039 724.584C863.182 724.584 950.039 672.425 950.039 608.084C950.039 543.742 863.182 491.584 756.039 491.584C650.845 491.584 565.206 541.862 562.125 604.584" stroke="#6685D4" stroke-width="8" stroke-linecap="round" stroke-linejoin="round"/>
<path id="D_200" d="M569.555 596.117C604.815 622.352 595.786 707.198 549.389 785.626C502.991 864.054 436.795 906.366 401.535 880.131C366.275 853.896 375.304 769.05 421.702 690.622C467.424 613.335 532.373 571.122 567.996 595.016" stroke="#6685D4" stroke-width="8" stroke-linecap="round" stroke-linejoin="round"/>
<path id="D_201" d="M574.268 605.133C610.029 579.842 606.645 501.15 566.71 429.372C526.775 357.593 465.412 319.907 429.651 345.199C393.89 370.491 397.274 449.182 437.209 520.961C475.773 590.275 534.319 627.797 570.496 607.517" stroke="#6685D4" stroke-width="8" stroke-linecap="round" stroke-linejoin="round"/>
<path id="D_202" d="M938.401 598.355C908.356 627.114 925.148 704.753 975.906 771.767C1026.66 838.78 1092.17 869.791 1122.21 841.032C1152.26 812.272 1135.47 734.633 1084.71 667.62C1034.21 600.946 969.11 569.911 938.861 597.922" stroke="#6685D4" stroke-width="8" stroke-linecap="round" stroke-linejoin="round"/>
<path id="D_203" d="M1034.91 408.88C1062.24 426.165 1063.29 483.97 1037.25 537.992C1011.21 592.014 967.947 621.795 940.618 604.51C913.289 587.226 912.243 529.42 938.283 475.399C964.032 421.978 1006.62 392.262 1034 408.32" stroke="#6685D4" stroke-width="8" stroke-linecap="round" stroke-linejoin="round"/>
<path id="D_204" d="M479.07 329.96C490.849 377.112 440.239 430.365 366.029 448.905C291.818 467.445 222.109 444.25 210.329 397.098C198.549 349.946 249.16 296.693 323.37 278.153C396.056 259.994 464.423 281.872 478.271 327.084" stroke="#6685D4" stroke-width="8" stroke-linecap="round" stroke-linejoin="round"/>
</g>
<g id="ref g-template_7">
<path id="D_205" d="M567.496 606.084L402.996 874.584" stroke="#CBD8F1" stroke-width="8" stroke-linecap="round" stroke-linejoin="round"/>
<path id="D_206" d="M947.996 609.584L1112.5 842.084" stroke="#CBD8F1" stroke-width="8" stroke-linecap="round" stroke-linejoin="round"/>
<path id="D_207" d="M566.996 607.584H945.996" stroke="#CBD8F1" stroke-width="8" stroke-linecap="round" stroke-linejoin="round"/>
<path id="D_208" d="M474.996 326.084L219.996 401.584" stroke="#CBD8F1" stroke-width="8" stroke-linecap="round" stroke-linejoin="round"/>
<path id="D_209" d="M946.496 607.584L1029.5 411.584" stroke="#CBD8F1" stroke-width="8" stroke-linecap="round" stroke-linejoin="round"/>
<path id="D_210" d="M566.996 607.084L439.996 336.084" stroke="#CBD8F1" stroke-width="8" stroke-linecap="round" stroke-linejoin="round"/>
<path id="D_211" d="M562.039 608.084C562.039 672.425 648.896 724.584 756.039 724.584C863.182 724.584 950.039 672.425 950.039 608.084C950.039 543.742 863.182 491.584 756.039 491.584C650.845 491.584 565.206 541.862 562.125 604.584" stroke="#6685D4" stroke-width="8" stroke-linecap="round" stroke-linejoin="round"/>
<path id="D_212" d="M569.555 596.117C604.815 622.352 595.786 707.198 549.389 785.626C502.991 864.054 436.795 906.366 401.535 880.131C366.275 853.896 375.304 769.05 421.702 690.622C467.424 613.335 532.373 571.122 567.996 595.016" stroke="#6685D4" stroke-width="8" stroke-linecap="round" stroke-linejoin="round"/>
<path id="D_213" d="M574.268 605.133C610.029 579.842 606.645 501.15 566.71 429.372C526.775 357.593 465.412 319.907 429.651 345.199C393.89 370.491 397.274 449.182 437.209 520.961C475.773 590.275 534.319 627.797 570.496 607.517" stroke="#6685D4" stroke-width="8" stroke-linecap="round" stroke-linejoin="round"/>
<path id="D_214" d="M938.401 598.355C908.356 627.114 925.148 704.753 975.906 771.767C1026.66 838.78 1092.17 869.791 1122.21 841.032C1152.26 812.272 1135.47 734.633 1084.71 667.62C1034.21 600.946 969.11 569.911 938.861 597.922" stroke="#6685D4" stroke-width="8" stroke-linecap="round" stroke-linejoin="round"/>
<path id="D_215" d="M1034.91 408.88C1062.24 426.165 1063.29 483.97 1037.25 537.992C1011.21 592.014 967.947 621.795 940.618 604.51C913.289 587.226 912.243 529.42 938.283 475.399C964.032 421.978 1006.62 392.262 1034 408.32" stroke="#6685D4" stroke-width="8" stroke-linecap="round" stroke-linejoin="round"/>
<path id="D_216" d="M479.07 329.96C490.849 377.112 440.239 430.365 366.029 448.905C291.818 467.445 222.109 444.25 210.329 397.098C198.549 349.946 249.16 296.693 323.37 278.153C396.056 259.994 464.423 281.872 478.271 327.084" stroke="#6685D4" stroke-width="8" stroke-linecap="round" stroke-linejoin="round"/>
</g>
<ellipse id="draw-line rgb-template_13" cx="471.956" cy="218.293" rx="58.2343" ry="109.074" transform="rotate(19.6148 471.956 218.293)" stroke="#6685D4" stroke-width="8" stroke-linecap="round" stroke-linejoin="round"/>
</g>
</g>
<g id="step s-multistep_8">
<g id="input_15">
<g id="ref_14">
<path id="D_217" d="M567.496 606.084L402.996 874.584" stroke="#CBD8F1" stroke-width="8" stroke-linecap="round" stroke-linejoin="round"/>
<path id="D_218" d="M947.996 609.584L1112.5 842.084" stroke="#CBD8F1" stroke-width="8" stroke-linecap="round" stroke-linejoin="round"/>
<path id="D_219" d="M566.996 607.584H945.996" stroke="#CBD8F1" stroke-width="8" stroke-linecap="round" stroke-linejoin="round"/>
<path id="D_220" d="M474.996 326.084L219.996 401.584" stroke="#CBD8F1" stroke-width="8" stroke-linecap="round" stroke-linejoin="round"/>
<path id="D_221" d="M946.496 607.584L1029.5 411.584" stroke="#CBD8F1" stroke-width="8" stroke-linecap="round" stroke-linejoin="round"/>
<path id="D_222" d="M566.996 607.084L439.996 336.084" stroke="#CBD8F1" stroke-width="8" stroke-linecap="round" stroke-linejoin="round"/>
<path id="D_223" d="M562.039 608.084C562.039 672.425 648.896 724.584 756.039 724.584C863.182 724.584 950.039 672.425 950.039 608.084C950.039 543.742 863.182 491.584 756.039 491.584C650.845 491.584 565.206 541.862 562.125 604.584" stroke="#6685D4" stroke-width="8" stroke-linecap="round" stroke-linejoin="round"/>
<path id="D_224" d="M569.555 596.117C604.815 622.352 595.786 707.198 549.389 785.626C502.991 864.054 436.795 906.366 401.535 880.131C366.275 853.896 375.304 769.05 421.702 690.622C467.424 613.335 532.373 571.122 567.996 595.016" stroke="#6685D4" stroke-width="8" stroke-linecap="round" stroke-linejoin="round"/>
<path id="D_225" d="M574.268 605.133C610.029 579.842 606.645 501.15 566.71 429.372C526.775 357.593 465.412 319.907 429.651 345.199C393.89 370.491 397.274 449.182 437.209 520.961C475.773 590.275 534.319 627.797 570.496 607.517" stroke="#6685D4" stroke-width="8" stroke-linecap="round" stroke-linejoin="round"/>
<path id="D_226" d="M938.401 598.355C908.356 627.114 925.148 704.753 975.906 771.767C1026.66 838.78 1092.17 869.791 1122.21 841.032C1152.26 812.272 1135.47 734.633 1084.71 667.62C1034.21 600.946 969.11 569.911 938.861 597.922" stroke="#6685D4" stroke-width="8" stroke-linecap="round" stroke-linejoin="round"/>
<path id="D_227" d="M1034.91 408.88C1062.24 426.165 1063.29 483.97 1037.25 537.992C1011.21 592.014 967.947 621.795 940.618 604.51C913.289 587.226 912.243 529.42 938.283 475.399C964.032 421.978 1006.62 392.262 1034 408.32" stroke="#6685D4" stroke-width="8" stroke-linecap="round" stroke-linejoin="round"/>
<path id="D_228" d="M479.07 329.96C490.849 377.112 440.239 430.365 366.029 448.905C291.818 467.445 222.109 444.25 210.329 397.098C198.549 349.946 249.16 296.693 323.37 278.153C396.056 259.994 464.423 281.872 478.271 327.084" stroke="#6685D4" stroke-width="8" stroke-linecap="round" stroke-linejoin="round"/>
</g>
<g id="ref g-template_8">
<path id="D_229" d="M567.496 606.084L402.996 874.584" stroke="#CBD8F1" stroke-width="8" stroke-linecap="round" stroke-linejoin="round"/>
<path id="D_230" d="M947.996 609.584L1112.5 842.084" stroke="#CBD8F1" stroke-width="8" stroke-linecap="round" stroke-linejoin="round"/>
<path id="D_231" d="M566.996 607.584H945.996" stroke="#CBD8F1" stroke-width="8" stroke-linecap="round" stroke-linejoin="round"/>
<path id="D_232" d="M474.996 326.084L219.996 401.584" stroke="#CBD8F1" stroke-width="8" stroke-linecap="round" stroke-linejoin="round"/>
<path id="D_233" d="M946.496 607.584L1029.5 411.584" stroke="#CBD8F1" stroke-width="8" stroke-linecap="round" stroke-linejoin="round"/>
<path id="D_234" d="M566.996 607.084L439.996 336.084" stroke="#CBD8F1" stroke-width="8" stroke-linecap="round" stroke-linejoin="round"/>
<path id="D_235" d="M562.039 608.084C562.039 672.425 648.896 724.584 756.039 724.584C863.182 724.584 950.039 672.425 950.039 608.084C950.039 543.742 863.182 491.584 756.039 491.584C650.845 491.584 565.206 541.862 562.125 604.584" stroke="#6685D4" stroke-width="8" stroke-linecap="round" stroke-linejoin="round"/>
<path id="D_236" d="M569.555 596.117C604.815 622.352 595.786 707.198 549.389 785.626C502.991 864.054 436.795 906.366 401.535 880.131C366.275 853.896 375.304 769.05 421.702 690.622C467.424 613.335 532.373 571.122 567.996 595.016" stroke="#6685D4" stroke-width="8" stroke-linecap="round" stroke-linejoin="round"/>
<path id="D_237" d="M574.268 605.133C610.029 579.842 606.645 501.15 566.71 429.372C526.775 357.593 465.412 319.907 429.651 345.199C393.89 370.491 397.274 449.182 437.209 520.961C475.773 590.275 534.319 627.797 570.496 607.517" stroke="#6685D4" stroke-width="8" stroke-linecap="round" stroke-linejoin="round"/>
<path id="D_238" d="M938.401 598.355C908.356 627.114 925.148 704.753 975.906 771.767C1026.66 838.78 1092.17 869.791 1122.21 841.032C1152.26 812.272 1135.47 734.633 1084.71 667.62C1034.21 600.946 969.11 569.911 938.861 597.922" stroke="#6685D4" stroke-width="8" stroke-linecap="round" stroke-linejoin="round"/>
<path id="D_239" d="M1034.91 408.88C1062.24 426.165 1063.29 483.97 1037.25 537.992C1011.21 592.014 967.947 621.795 940.618 604.51C913.289 587.226 912.243 529.42 938.283 475.399C964.032 421.978 1006.62 392.262 1034 408.32" stroke="#6685D4" stroke-width="8" stroke-linecap="round" stroke-linejoin="round"/>
<path id="D_240" d="M479.07 329.96C490.849 377.112 440.239 430.365 366.029 448.905C291.818 467.445 222.109 444.25 210.329 397.098C198.549 349.946 249.16 296.693 323.37 278.153C396.056 259.994 464.423 281.872 478.271 327.084" stroke="#6685D4" stroke-width="8" stroke-linecap="round" stroke-linejoin="round"/>
</g>
<path id="draw-line rgb-template_14" d="M436.496 316.084L505.496 121.084" stroke="#CBD8F1" stroke-width="8" stroke-linecap="round" stroke-linejoin="round"/>
</g>
</g>
</g>
<defs>
<clipPath id="clip0">
<rect width="1366" height="1024" fill="white"/>
</clipPath>
</defs>
</svg>
